<svg version="1.2" xmlns="http://www.w3.org/2000/svg" viewBox="0 0 1000 1000" width="1000" height="1000">
	<title>28159249_lens_flares_003-ai</title>
	<defs>
		<clipPath clipPathUnits="userSpaceOnUse" id="cp1">
			<path d="m1000 1000h-1000v-1000h1000z"/>
		</clipPath>
		<radialGradient id="g1" cx="0" cy="0" r="1" gradientUnits="userSpaceOnUse" gradientTransform="matrix(100,0,0,100,177.5,164.25)">
			<stop offset="0" stop-color="#000000"/>
			<stop offset=".8" stop-color="#000000"/>
			<stop offset=".9" stop-color="#808080"/>
			<stop offset="1" stop-color="#000000"/>
		</radialGradient>
		<radialGradient id="g2" cx="0" cy="0" r="1" gradientUnits="userSpaceOnUse" gradientTransform="matrix(121,0,0,121,177.5,164.25)">
			<stop offset="0" stop-color="#a3a3a3"/>
			<stop offset="1" stop-color="#000000"/>
		</radialGradient>
		<radialGradient id="g3" cx="0" cy="0" r="1" gradientUnits="userSpaceOnUse" gradientTransform="matrix(84,0,0,84,177.5,164.25)">
			<stop offset="0" stop-color="#858585"/>
			<stop offset="1" stop-color="#000000"/>
		</radialGradient>
		<radialGradient id="g4" cx="0" cy="0" r="1" gradientUnits="userSpaceOnUse" gradientTransform="matrix(60,0,0,60,177.5,164.25)">
			<stop offset="0" stop-color="#cccccc"/>
			<stop offset="1" stop-color="#000000"/>
		</radialGradient>
		<linearGradient id="g5" x2="1" gradientUnits="userSpaceOnUse" gradientTransform="matrix(312.966,0,0,310.783,89.065,0)">
			<stop offset="0" stop-color="#000000"/>
			<stop offset="1" stop-color="#9d9d9d"/>
		</linearGradient>
		<linearGradient id="g6" x2="1" gradientUnits="userSpaceOnUse" gradientTransform="matrix(-12.5,-187.5,187.5,-12.5,581,786)">
			<stop offset="0" stop-color="#000000"/>
			<stop offset="1" stop-color="#4a4a4a"/>
		</linearGradient>
		<radialGradient id="g7" cx="0" cy="0" r="1" gradientUnits="userSpaceOnUse" gradientTransform="matrix(126,0,0,126,703.5,712.505)">
			<stop offset="0" stop-color="#000000"/>
			<stop offset=".883" stop-color="#545454"/>
			<stop offset="1" stop-color="#000000"/>
		</radialGradient>
		<radialGradient id="g8" cx="0" cy="0" r="1" gradientUnits="userSpaceOnUse" gradientTransform="matrix(124,0,0,124,703.5,712.505)">
			<stop offset=".83" stop-color="#000000"/>
			<stop offset=".86" stop-color="#2f2f2f"/>
			<stop offset=".9" stop-color="#9c9c9c"/>
			<stop offset=".96" stop-color="#2f2f2f"/>
			<stop offset=".97" stop-color="#000000"/>
		</radialGradient>
		<radialGradient id="g9" cx="0" cy="0" r="1" gradientUnits="userSpaceOnUse" gradientTransform="matrix(82,0,0,82,744,754.531)">
			<stop offset="0" stop-color="#464646"/>
			<stop offset="1" stop-color="#000000"/>
		</radialGradient>
		<linearGradient id="g10" x2="1" gradientUnits="userSpaceOnUse" gradientTransform="matrix(-2.784,-102.81,103.031,-2.79,751.05,873.229)">
			<stop offset="0" stop-color="#000000"/>
			<stop offset="1" stop-color="#2f2f2f"/>
		</linearGradient>
		<radialGradient id="g11" cx="0" cy="0" r="1" gradientUnits="userSpaceOnUse" gradientTransform="matrix(187,0,0,187,593,594.5)">
			<stop offset="0" stop-color="#959595"/>
			<stop offset="1" stop-color="#000000"/>
		</radialGradient>
		<radialGradient id="g12" cx="0" cy="0" r="1" gradientUnits="userSpaceOnUse" gradientTransform="matrix(14,0,0,14,705.192,704.756)">
			<stop offset=".631" stop-color="#565656"/>
			<stop offset="1" stop-color="#000000"/>
		</radialGradient>
		<radialGradient id="g13" cx="0" cy="0" r="1" gradientUnits="userSpaceOnUse" gradientTransform="matrix(12,0,0,12,837.484,837.048)">
			<stop offset="0" stop-color="#060606"/>
			<stop offset="1" stop-color="#000000"/>
		</radialGradient>
		<radialGradient id="g14" cx="0" cy="0" r="1" gradientUnits="userSpaceOnUse" gradientTransform="matrix(16,0,0,16,214.885,214.449)">
			<stop offset=".6" stop-color="#1f1f1f"/>
			<stop offset="1" stop-color="#000000"/>
		</radialGradient>
		<radialGradient id="g15" cx="0" cy="0" r="1" gradientUnits="userSpaceOnUse" gradientTransform="matrix(17,0,0,17,113.285,112.849)">
			<stop offset=".678" stop-color="#333333"/>
			<stop offset="1" stop-color="#000000"/>
		</radialGradient>
		<radialGradient id="g16" cx="0" cy="0" r="1" gradientUnits="userSpaceOnUse" gradientTransform="matrix(10,0,0,10,534.218,533.782)">
			<stop offset=".326" stop-color="#1f1f1f"/>
			<stop offset="1" stop-color="#000000"/>
		</radialGradient>
		<radialGradient id="g17" cx="0" cy="0" r="1" gradientUnits="userSpaceOnUse" gradientTransform="matrix(31,0,0,31,353.083,352.833)">
			<stop offset=".525" stop-color="#343434"/>
			<stop offset="1" stop-color="#000000"/>
		</radialGradient>
		<radialGradient id="g18" cx="0" cy="0" r="1" gradientUnits="userSpaceOnUse" gradientTransform="matrix(33,0,0,33,.5,.25)">
			<stop offset=".403" stop-color="#2e2e2e"/>
			<stop offset="1" stop-color="#000000"/>
		</radialGradient>
		<linearGradient id="g19" x2="1" gradientUnits="userSpaceOnUse" gradientTransform="matrix(144.504,0,0,164.414,33.04,-0.066)">
			<stop offset="0" stop-color="#000000"/>
			<stop offset="1" stop-color="#ffffff"/>
		</linearGradient>
		<linearGradient id="g20" x2="1" gradientUnits="userSpaceOnUse" gradientTransform="matrix(169.994,0,0,164.426,7.544,-0.072)">
			<stop offset="0" stop-color="#000000"/>
			<stop offset="1" stop-color="#ffffff"/>
		</linearGradient>
		<linearGradient id="g21" x2="1" gradientUnits="userSpaceOnUse" gradientTransform="matrix(150.88,0,0,164.416,26.662,-0.067)">
			<stop offset="0" stop-color="#000000"/>
			<stop offset="1" stop-color="#ffffff"/>
		</linearGradient>
		<linearGradient id="g22" x2="1" gradientUnits="userSpaceOnUse" gradientTransform="matrix(177.5,0,0,27.732,-0.016,136.647)">
			<stop offset="0" stop-color="#000000"/>
			<stop offset="1" stop-color="#ffffff"/>
		</linearGradient>
		<linearGradient id="g23" x2="1" gradientUnits="userSpaceOnUse" gradientTransform="matrix(156.608,0,0,164.42,20.933,-0.069)">
			<stop offset="0" stop-color="#000000"/>
			<stop offset="1" stop-color="#ffffff"/>
		</linearGradient>
		<linearGradient id="g24" x2="1" gradientUnits="userSpaceOnUse" gradientTransform="matrix(163.354,0,0,164.422,14.186,-0.07)">
			<stop offset="0" stop-color="#000000"/>
			<stop offset="1" stop-color="#ffffff"/>
		</linearGradient>
		<linearGradient id="g25" x2="1" gradientUnits="userSpaceOnUse" gradientTransform="matrix(16.835,0,0,164.301,160.733,-0.01)">
			<stop offset="0" stop-color="#000000"/>
			<stop offset="1" stop-color="#ffffff"/>
		</linearGradient>
		<linearGradient id="g26" x2="1" gradientUnits="userSpaceOnUse" gradientTransform="matrix(177.496,0,0,23.84,-0.014,140.541)">
			<stop offset="0" stop-color="#000000"/>
			<stop offset="1" stop-color="#ffffff"/>
		</linearGradient>
		<linearGradient id="g27" x2="1" gradientUnits="userSpaceOnUse" gradientTransform="matrix(13.531,0,0,164.297,164.037,-0.008)">
			<stop offset="0" stop-color="#000000"/>
			<stop offset="1" stop-color="#ffffff"/>
		</linearGradient>
		<linearGradient id="g28" x2="1" gradientUnits="userSpaceOnUse" gradientTransform="matrix(177.492,0,0,20.485,-0.012,143.896)">
			<stop offset="0" stop-color="#000000"/>
			<stop offset="1" stop-color="#ffffff"/>
		</linearGradient>
		<linearGradient id="g29" x2="1" gradientUnits="userSpaceOnUse" gradientTransform="matrix(10.048,0,0,164.293,167.521,-0.006)">
			<stop offset="0" stop-color="#000000"/>
			<stop offset="1" stop-color="#ffffff"/>
		</linearGradient>
		<linearGradient id="g30" x2="1" gradientUnits="userSpaceOnUse" gradientTransform="matrix(177.486,0,0,16.701,-0.009,147.68)">
			<stop offset="0" stop-color="#000000"/>
			<stop offset="1" stop-color="#ffffff"/>
		</linearGradient>
		<linearGradient id="g31" x2="1" gradientUnits="userSpaceOnUse" gradientTransform="matrix(112.03,0,0,164.394,177.386,-0.057)">
			<stop offset="0" stop-color="#ffffff"/>
			<stop offset="1" stop-color="#000000"/>
		</linearGradient>
		<linearGradient id="g32" x2="1" gradientUnits="userSpaceOnUse" gradientTransform="matrix(177.482,0,0,13.137,-0.007,151.244)">
			<stop offset="0" stop-color="#000000"/>
			<stop offset="1" stop-color="#ffffff"/>
		</linearGradient>
		<linearGradient id="g33" x2="1" gradientUnits="userSpaceOnUse" gradientTransform="matrix(116.889,0,0,164.396,177.388,-0.058)">
			<stop offset="0" stop-color="#ffffff"/>
			<stop offset="1" stop-color="#000000"/>
		</linearGradient>
		<linearGradient id="g34" x2="1" gradientUnits="userSpaceOnUse" gradientTransform="matrix(3.446,0,0,164.285,174.122,-0.002)">
			<stop offset="0" stop-color="#000000"/>
			<stop offset="1" stop-color="#ffffff"/>
		</linearGradient>
		<linearGradient id="g35" x2="1" gradientUnits="userSpaceOnUse" gradientTransform="matrix(582.736,0,0,164.475,177.441,-0.097)">
			<stop offset="0" stop-color="#ffffff"/>
			<stop offset="1" stop-color="#000000"/>
		</linearGradient>
		<linearGradient id="g36" x2="1" gradientUnits="userSpaceOnUse" gradientTransform="matrix(6.981,0,0,164.289,170.587,-0.004)">
			<stop offset="0" stop-color="#000000"/>
			<stop offset="1" stop-color="#ffffff"/>
		</linearGradient>
		<linearGradient id="g37" x2="1" gradientUnits="userSpaceOnUse" gradientTransform="matrix(630.625,0,0,164.475,177.443,-0.097)">
			<stop offset="0" stop-color="#ffffff"/>
			<stop offset="1" stop-color="#000000"/>
		</linearGradient>
		<linearGradient id="g38" x2="1" gradientUnits="userSpaceOnUse" gradientTransform="matrix(132.725,0,0,164.406,177.391,-0.063)">
			<stop offset="0" stop-color="#ffffff"/>
			<stop offset="1" stop-color="#000000"/>
		</linearGradient>
		<linearGradient id="g39" x2="1" gradientUnits="userSpaceOnUse" gradientTransform="matrix(689.975,0,0,164.477,177.445,-0.098)">
			<stop offset="0" stop-color="#ffffff"/>
			<stop offset="1" stop-color="#000000"/>
		</linearGradient>
		<linearGradient id="g40" x2="1" gradientUnits="userSpaceOnUse" gradientTransform="matrix(126.994,0,0,164.404,177.39,-0.062)">
			<stop offset="0" stop-color="#ffffff"/>
			<stop offset="1" stop-color="#000000"/>
		</linearGradient>
		<linearGradient id="g41" x2="1" gradientUnits="userSpaceOnUse" gradientTransform="matrix(822.613,0,0,368.827,177.428,164.19)">
			<stop offset="0" stop-color="#ffffff"/>
			<stop offset="1" stop-color="#000000"/>
		</linearGradient>
		<linearGradient id="g42" x2="1" gradientUnits="userSpaceOnUse" gradientTransform="matrix(122.184,0,0,164.4,177.389,-0.06)">
			<stop offset="0" stop-color="#ffffff"/>
			<stop offset="1" stop-color="#000000"/>
		</linearGradient>
		<linearGradient id="g43" x2="1" gradientUnits="userSpaceOnUse" gradientTransform="matrix(822.617,0,0,388.708,177.426,164.19)">
			<stop offset="0" stop-color="#ffffff"/>
			<stop offset="1" stop-color="#000000"/>
		</linearGradient>
		<linearGradient id="g44" x2="1" gradientUnits="userSpaceOnUse" gradientTransform="matrix(822.57,0,0,161.5,177.449,2.88)">
			<stop offset="0" stop-color="#ffffff"/>
			<stop offset="1" stop-color="#000000"/>
		</linearGradient>
		<linearGradient id="g45" x2="1" gradientUnits="userSpaceOnUse" gradientTransform="matrix(325.839,0,0,835.792,177.376,164.245)">
			<stop offset="0" stop-color="#ffffff"/>
			<stop offset="1" stop-color="#000000"/>
		</linearGradient>
		<linearGradient id="g46" x2="1" gradientUnits="userSpaceOnUse" gradientTransform="matrix(751.809,0,0,164.477,177.447,-0.098)">
			<stop offset="0" stop-color="#ffffff"/>
			<stop offset="1" stop-color="#000000"/>
		</linearGradient>
		<linearGradient id="g47" x2="1" gradientUnits="userSpaceOnUse" gradientTransform="matrix(365.082,0,0,835.798,177.377,164.241)">
			<stop offset="0" stop-color="#ffffff"/>
			<stop offset="1" stop-color="#000000"/>
		</linearGradient>
		<linearGradient id="g48" x2="1" gradientUnits="userSpaceOnUse" gradientTransform="matrix(822.628,0,0,452.201,177.421,164.193)">
			<stop offset="0" stop-color="#ffffff"/>
			<stop offset="1" stop-color="#000000"/>
		</linearGradient>
		<linearGradient id="g49" x2="1" gradientUnits="userSpaceOnUse" gradientTransform="matrix(346.706,0,0,835.796,177.376,164.243)">
			<stop offset="0" stop-color="#ffffff"/>
			<stop offset="1" stop-color="#000000"/>
		</linearGradient>
		<linearGradient id="g50" x2="1" gradientUnits="userSpaceOnUse" gradientTransform="matrix(822.624,0,0,429.446,177.423,164.192)">
			<stop offset="0" stop-color="#ffffff"/>
			<stop offset="1" stop-color="#000000"/>
		</linearGradient>
		<linearGradient id="g51" x2="1" gradientUnits="userSpaceOnUse" gradientTransform="matrix(406.689,0,0,835.806,177.379,164.237)">
			<stop offset="0" stop-color="#ffffff"/>
			<stop offset="1" stop-color="#000000"/>
		</linearGradient>
		<linearGradient id="g52" x2="1" gradientUnits="userSpaceOnUse" gradientTransform="matrix(822.621,0,0,410.152,177.424,164.191)">
			<stop offset="0" stop-color="#ffffff"/>
			<stop offset="1" stop-color="#000000"/>
		</linearGradient>
		<linearGradient id="g53" x2="1" gradientUnits="userSpaceOnUse" gradientTransform="matrix(177.662,0,0,656.204,-0.097,164.255)">
			<stop offset="0" stop-color="#000000"/>
			<stop offset="1" stop-color="#ffffff"/>
		</linearGradient>
		<linearGradient id="g54" x2="1" gradientUnits="userSpaceOnUse" gradientTransform="matrix(386.272,0,0,835.802,177.378,164.239)">
			<stop offset="0" stop-color="#ffffff"/>
			<stop offset="1" stop-color="#000000"/>
		</linearGradient>
		<linearGradient id="g55" x2="1" gradientUnits="userSpaceOnUse" gradientTransform="matrix(177.66,0,0,566.011,-0.096,164.251)">
			<stop offset="0" stop-color="#000000"/>
			<stop offset="1" stop-color="#ffffff"/>
		</linearGradient>
		<linearGradient id="g56" x2="1" gradientUnits="userSpaceOnUse" gradientTransform="matrix(177.658,0,0,526.132,-0.095,164.249)">
			<stop offset="0" stop-color="#000000"/>
			<stop offset="1" stop-color="#ffffff"/>
		</linearGradient>
		<linearGradient id="g57" x2="1" gradientUnits="userSpaceOnUse" gradientTransform="matrix(177.572,0,0,107.161,-0.052,164.195)">
			<stop offset="0" stop-color="#000000"/>
			<stop offset="1" stop-color="#ffffff"/>
		</linearGradient>
		<linearGradient id="g58" x2="1" gradientUnits="userSpaceOnUse" gradientTransform="matrix(177.66,0,0,605.241,-0.096,164.253)">
			<stop offset="0" stop-color="#000000"/>
			<stop offset="1" stop-color="#ffffff"/>
		</linearGradient>
		<linearGradient id="g59" x2="1" gradientUnits="userSpaceOnUse" gradientTransform="matrix(177.578,0,0,117.109,-0.055,164.197)">
			<stop offset="0" stop-color="#000000"/>
			<stop offset="1" stop-color="#ffffff"/>
		</linearGradient>
		<linearGradient id="g60" x2="1" gradientUnits="userSpaceOnUse" gradientTransform="matrix(177.662,0,0,712.271,-0.097,164.257)">
			<stop offset="0" stop-color="#000000"/>
			<stop offset="1" stop-color="#ffffff"/>
		</linearGradient>
		<linearGradient id="g61" x2="1" gradientUnits="userSpaceOnUse" gradientTransform="matrix(177.586,0,0,127.848,-0.059,164.2)">
			<stop offset="0" stop-color="#000000"/>
			<stop offset="1" stop-color="#ffffff"/>
		</linearGradient>
		<linearGradient id="g62" x2="1" gradientUnits="userSpaceOnUse" gradientTransform="matrix(177.576,0,0,112.43,-0.054,164.196)">
			<stop offset="0" stop-color="#000000"/>
			<stop offset="1" stop-color="#ffffff"/>
		</linearGradient>
		<linearGradient id="g63" x2="1" gradientUnits="userSpaceOnUse" gradientTransform="matrix(177.582,0,0,122.553,-0.057,164.199)">
			<stop offset="0" stop-color="#000000"/>
			<stop offset="1" stop-color="#ffffff"/>
		</linearGradient>
	</defs>
	<style>
		.s0 { opacity: .8;mix-blend-mode: screen;fill: url(#g1) } 
		.s1 { opacity: .5;mix-blend-mode: screen;fill: url(#g2) } 
		.s2 { mix-blend-mode: screen;fill: url(#g3) } 
		.s3 { mix-blend-mode: screen;fill: url(#g4) } 
		.s4 { fill: url(#g5) } 
		.s5 { fill: url(#g6) } 
		.s6 { fill: url(#g7) } 
		.s7 { fill: url(#g8) } 
		.s8 { fill: url(#g9) } 
		.s9 { fill: url(#g10) } 
		.s10 { fill: url(#g11) } 
		.s11 { mix-blend-mode: screen;fill: #525252 } 
		.s12 { mix-blend-mode: screen;fill: #4e4e4e } 
		.s13 { mix-blend-mode: screen;fill: #1e1e1e } 
		.s14 { mix-blend-mode: screen;fill: url(#g12) } 
		.s15 { mix-blend-mode: screen;fill: url(#g13) } 
		.s16 { mix-blend-mode: screen;fill: #565656 } 
		.s17 { mix-blend-mode: screen;fill: url(#g14) } 
		.s18 { mix-blend-mode: screen;fill: url(#g15) } 
		.s19 { mix-blend-mode: screen;fill: url(#g16) } 
		.s20 { mix-blend-mode: screen;fill: url(#g17) } 
		.s21 { mix-blend-mode: screen;fill: url(#g18) } 
		.s22 { mix-blend-mode: screen;fill: url(#g19) } 
		.s23 { mix-blend-mode: screen;fill: url(#g20) } 
		.s24 { mix-blend-mode: screen;fill: url(#g21) } 
		.s25 { mix-blend-mode: screen;fill: url(#g22) } 
		.s26 { mix-blend-mode: screen;fill: url(#g23) } 
		.s27 { mix-blend-mode: screen;fill: url(#g24) } 
		.s28 { mix-blend-mode: screen;fill: url(#g25) } 
		.s29 { mix-blend-mode: screen;fill: url(#g26) } 
		.s30 { mix-blend-mode: screen;fill: url(#g27) } 
		.s31 { mix-blend-mode: screen;fill: url(#g28) } 
		.s32 { mix-blend-mode: screen;fill: url(#g29) } 
		.s33 { mix-blend-mode: screen;fill: url(#g30) } 
		.s34 { mix-blend-mode: screen;fill: url(#g31) } 
		.s35 { mix-blend-mode: screen;fill: url(#g32) } 
		.s36 { mix-blend-mode: screen;fill: url(#g33) } 
		.s37 { mix-blend-mode: screen;fill: url(#g34) } 
		.s38 { mix-blend-mode: screen;fill: url(#g35) } 
		.s39 { mix-blend-mode: screen;fill: url(#g36) } 
		.s40 { mix-blend-mode: screen;fill: url(#g37) } 
		.s41 { mix-blend-mode: screen;fill: url(#g38) } 
		.s42 { mix-blend-mode: screen;fill: url(#g39) } 
		.s43 { mix-blend-mode: screen;fill: url(#g40) } 
		.s44 { mix-blend-mode: screen;fill: url(#g41) } 
		.s45 { mix-blend-mode: screen;fill: url(#g42) } 
		.s46 { mix-blend-mode: screen;fill: url(#g43) } 
		.s47 { mix-blend-mode: screen;fill: url(#g44) } 
		.s48 { mix-blend-mode: screen;fill: url(#g45) } 
		.s49 { mix-blend-mode: screen;fill: url(#g46) } 
		.s50 { mix-blend-mode: screen;fill: url(#g47) } 
		.s51 { mix-blend-mode: screen;fill: url(#g48) } 
		.s52 { mix-blend-mode: screen;fill: url(#g49) } 
		.s53 { mix-blend-mode: screen;fill: url(#g50) } 
		.s54 { mix-blend-mode: screen;fill: url(#g51) } 
		.s55 { mix-blend-mode: screen;fill: url(#g52) } 
		.s56 { mix-blend-mode: screen;fill: url(#g53) } 
		.s57 { mix-blend-mode: screen;fill: url(#g54) } 
		.s58 { mix-blend-mode: screen;fill: url(#g55) } 
		.s59 { mix-blend-mode: screen;fill: url(#g56) } 
		.s60 { mix-blend-mode: screen;fill: url(#g57) } 
		.s61 { mix-blend-mode: screen;fill: url(#g58) } 
		.s62 { mix-blend-mode: screen;fill: url(#g59) } 
		.s63 { mix-blend-mode: screen;fill: url(#g60) } 
		.s64 { mix-blend-mode: screen;fill: url(#g61) } 
		.s65 { mix-blend-mode: screen;fill: url(#g62) } 
		.s66 { mix-blend-mode: screen;fill: url(#g63) } 
	</style>
	<g id="_Artboards_">
	</g>
	<g id="Layer 1">
		<g id="&lt;Clip Group&gt;" clip-path="url(#cp1)">
			<g id="&lt;Group&gt;" style="mix-blend-mode: screen">
			</g>
			<g id="&lt;Group&gt;">
				<path id="&lt;Path&gt;" class="s0" d="m277.5 164.3c0-55.3-44.8-100.1-100-100.1-55.2 0-100 44.8-100 100 0 55.3 44.8 100 100 100 55.2 0 100-44.7 100-100z"/>
				<path id="&lt;Path&gt;" class="s1" d="m298.5 164.3c0-66.9-54.2-121.1-121-121.1-66.8 0-121 54.2-121 121 0 66.9 54.2 121 121 121 66.8 0 121-54.1 121-121z"/>
				<path id="&lt;Path&gt;" class="s2" d="m261.5 164.3c0-46.4-37.6-84.1-84-84.1-46.4 0-84 37.7-84 84 0 46.4 37.6 84 84 84 46.4 0 84-37.6 84-84z"/>
				<path id="&lt;Path&gt;" class="s3" d="m237.5 164.3c0-33.2-26.9-60.1-60-60.1-33.1 0-60 26.9-60 60 0 33.2 26.9 60 60 60 33.1 0 60-26.8 60-60z"/>
			</g>
			<g id="&lt;Group&gt;" style="opacity: .3;mix-blend-mode: screen">
				<path id="&lt;Mesh&gt;" fill-rule="evenodd" class="s4" d="m432.1 0q1.3 0 2.6 0c34.8 132.3-23.5 257.5-115.5 340.6-92 83-217.9 124-319.2 88.1q0-1.3 0-2.5 0-1.3 0-2.6l2.6-2.5q1.7-0.1 4.6-0.2 0.2 0 0.4 0c9.3-0.5 26.6-1.7 48.6-4.2 58.6 4.9 120.1-9.4 175.4-38.9 31.6-11.9 60.3-27.1 81-46.1 86.6-79.9 140.7-199.7 112.7-327.5q0 0-0.1 0l4.3-4.2q-1.3 0-2.6 0-1.3 0-2.6 0-5 0-10.1 0-5.1 0-10.1 0-10.1 0-20.3 0-20.4 0-41.1 0c-27.5 0-55.3 0-83.2 0-55.7 0-111.6 0-165.5 0q-23.5 0-47 0-23.5 0-47 0 0 104.6 0 209.3 0 52.3 0 104.6 0 26.2 0 52.3 0 13.1 0 26.2 0 6.5 0 13c18.2 5.9 37 9.6 56.2 11.3 47.3-5.4 116.5-16.7 175.4-38.9 26.9-14.4 52.4-32.3 75.4-53.4 82.5-75.6 132.5-191.1 109.8-311.9 0 0 8.7-6.9 8.5-8.3q0 0-0.1 0l4.3-4.2q1.3 0 2.6 0zm-429.5 421.1c-1.7 0-2.6 0-2.6 0q0-1.3 0-2.6 1.9 0.7 3.9 1.3zm401.5-421.1c27.3 121.3-20.6 240.2-103.7 315.9 83.1-75.7 131-194.6 103.7-315.9z"/>
			</g>
			<g id="&lt;Group&gt;" style="mix-blend-mode: screen">
				<path id="&lt;Mesh&gt;" class="s5" d="m574.8 779.8q3.1 3.1 6.2 6.2 3.1-3.1 6.3-6.2 3.1-3.2 6.2-6.3-3.1-3.1-6.2-6.2-3.2-3.2-6.3-6.3-3.1 3.1-6.2 6.3-3.2 3.1-6.3 6.2 3.1 3.1 6.3 6.3zm-12.5-12.5q3.1 3.1 6.2 6.2 3.1-3.1 6.3-6.2 3.1-3.2 6.2-6.3-3.1-3.1-6.2-6.2-3.2-3.2-6.3-6.3-3.1 3.1-6.2 6.3-3.2 3.1-6.3 6.2 3.1 3.1 6.3 6.3zm-12.5-12.5q3.1 3.1 6.2 6.2 3.1-3.1 6.3-6.2 3.1-3.2 6.2-6.3-3.1-3.1-6.2-6.2-3.2-3.2-6.3-6.3-3.1 3.1-6.2 6.3-3.2 3.1-6.3 6.2 3.1 3.1 6.3 6.3zm-12.5-12.5q3.1 3.1 6.2 6.2 3.1-3.1 6.3-6.2 3.1-3.2 6.2-6.3-3.1-3.1-6.2-6.2-3.2-3.2-6.3-6.3-3.1 3.1-6.2 6.3-3.2 3.1-6.3 6.2 3.1 3.1 6.3 6.3zm-12.5-12.5q3.1 3.1 6.2 6.2 3.1-3.1 6.3-6.2 3.1-3.2 6.2-6.3-3.1-3.1-6.2-6.2-3.2-3.2-6.3-6.3-3.1 3.1-6.2 6.3-3.2 3.1-6.3 6.2 3.1 3.1 6.3 6.3zm-12.5-12.5q3.1 3.1 6.2 6.2 3.1-3.1 6.3-6.2 3.1-3.2 6.2-6.3-3.1-3.1-6.2-6.2-3.2-3.2-6.3-6.3-3.1 3.1-6.2 6.3-3.2 3.1-6.3 6.2 3.1 3.1 6.3 6.3zm-12.5-12.5q3.1 3.1 6.2 6.2 3.1-3.1 6.3-6.2 3.1-3.2 6.2-6.3-3.1-3.1-6.2-6.2-3.2-3.2-6.3-6.3-3.1 3.1-6.2 6.3-3.2 3.1-6.3 6.2 3.1 3.1 6.3 6.3zm-6.3-6.3q3.1-3.1 6.3-6.2 3.1-3.2 6.2-6.3-3.1-3.1-6.2-6.2-3.2 3.1-6.3 6.2-3.1 3.1-6.2 6.3 3.1 3.1 6.2 6.2zm-6.2-6.2q3.1-3.2 6.2-6.3 3.1-3.1 6.3-6.2-1.6-1.6-3.2-3.2-3.1 3.2-6.2 6.3-3.1 3.1-6.3 6.2 1.6 1.6 3.2 3.2zm-3.2-3.2q3.2-3.1 6.3-6.2 3.1-3.1 6.2-6.3-1.5-1.5-3.1-3.1-3.1 3.1-6.2 6.3-3.2 3.1-6.3 6.2 1.6 1.6 3.1 3.1zm-3.1-3.1q3.1-3.1 6.3-6.2 3.1-3.2 6.2-6.3-1.6-1.6-3.1-3.1-3.1 3.1-6.3 6.2-3.1 3.2-6.2 6.3 1.5 1.5 3.1 3.1zm-3.1-3.1q3.1-3.1 6.2-6.3 3.2-3.1 6.3-6.2-1.6-1.6-3.1-3.1-3.2 3.1-6.3 6.2-3.1 3.1-6.2 6.3 1.5 1.5 3.1 3.1zm-3.1-3.1q3.1-3.2 6.2-6.3 3.1-3.1 6.3-6.2-3.2-3.2-6.3-6.3-3.1 3.1-6.2 6.3-3.2 3.1-6.3 6.2 3.1 3.1 6.3 6.3zm-12.5-12.5q3.1 3.1 6.2 6.2 3.1-3.1 6.3-6.2 3.1-3.2 6.2-6.3-3.1-3.1-6.2-6.2-3.2-3.2-6.3-6.3-3.1 3.1-6.2 6.3-3.2 3.1-6.3 6.2 3.1 3.1 6.3 6.3zm-12.5-12.5q3.1 3.1 6.2 6.2 3.1-3.1 6.3-6.2 3.1-3.2 6.2-6.3-3.1-3.1-6.2-6.2-3.2-3.2-6.3-6.3-3.1 3.1-6.2 6.3-3.2 3.1-6.3 6.2 3.1 3.1 6.3 6.3zm-12.5-12.5q3.1 3.1 6.2 6.2 3.1-3.1 6.3-6.2 3.1-3.2 6.2-6.3-3.1-3.1-6.2-6.2-3.2-3.2-6.3-6.3-3.1 3.1-6.2 6.3-3.2 3.1-6.3 6.2 3.1 3.1 6.3 6.3zm-12.5-12.5q3.1 3.1 6.2 6.2 3.1-3.1 6.3-6.2 3.1-3.2 6.2-6.3-3.1-3.1-6.2-6.2-3.2-3.2-6.3-6.3-3.1 3.1-6.2 6.3-3.2 3.1-6.3 6.2 3.1 3.1 6.3 6.3zm-12.5-12.5q3.1 3.1 6.2 6.2 3.1-3.1 6.3-6.2 3.1-3.2 6.2-6.3-3.1-3.1-6.2-6.2-3.2-3.2-6.3-6.3-3.1 3.1-6.2 6.3-3.2 3.1-6.3 6.2 3.1 3.1 6.3 6.3zm-12.5-12.5q3.1 3.1 6.2 6.2 3.1-3.1 6.3-6.2 3.1-3.2 6.2-6.3-3.1-3.1-6.2-6.2-3.2-3.2-6.3-6.3-3.1 3.1-6.2 6.3-3.2 3.1-6.3 6.2 3.1 3.1 6.3 6.3zm-12.5-12.5q3.1 3.1 6.2 6.2 3.1-3.1 6.3-6.2 3.1-3.2 6.2-6.3-3.1-3.1-6.2-6.2-3.2-3.2-6.3-6.3-3.1 3.1-6.2 6.3-3.2 3.1-6.3 6.2 3.1 3.1 6.3 6.3zm200 175q3.1 3.1 6.2 6.2 3.1-3.1 6.3-6.2 3.1-3.2 6.2-6.3-3.1-3.1-6.2-6.2-3.2-3.2-6.3-6.3-3.1 3.1-6.2 6.3-3.2 3.1-6.3 6.2 3.1 3.1 6.3 6.3zm-12.5-12.5q3.1 3.1 6.2 6.2 3.1-3.1 6.3-6.2 3.1-3.2 6.2-6.3-3.1-3.1-6.2-6.2-3.2-3.2-6.3-6.3-3.1 3.1-6.2 6.3-3.2 3.1-6.3 6.2 3.1 3.1 6.3 6.3zm-12.5-12.5q3.1 3.1 6.2 6.2 3.1-3.1 6.3-6.2 3.1-3.2 6.2-6.3-3.1-3.1-6.2-6.2-3.2-3.2-6.3-6.3-3.1 3.1-6.2 6.3-3.2 3.1-6.3 6.2 3.1 3.1 6.3 6.3zm-12.5-12.5q3.1 3.1 6.2 6.2 3.1-3.1 6.3-6.2 3.1-3.2 6.2-6.3-3.1-3.1-6.2-6.2-3.2-3.2-6.3-6.3-3.1 3.1-6.2 6.3-3.2 3.1-6.3 6.2 3.1 3.1 6.3 6.3zm-12.5-12.5q3.1 3.1 6.2 6.2 3.1-3.1 6.3-6.2 3.1-3.2 6.2-6.3-3.1-3.1-6.2-6.2-3.2-3.2-6.3-6.3-3.1 3.1-6.2 6.3-3.2 3.1-6.3 6.2 3.1 3.1 6.3 6.3zm-12.5-12.5q3.1 3.1 6.2 6.2 3.1-3.1 6.3-6.2 3.1-3.2 6.2-6.3-3.1-3.1-6.2-6.2-3.2-3.2-6.3-6.3-3.1 3.1-6.2 6.3-3.2 3.1-6.3 6.2 3.1 3.1 6.3 6.3zm-12.5-12.5q3.1 3.1 6.2 6.2 3.1-3.1 6.3-6.2 3.1-3.2 6.2-6.3-3.1-3.1-6.2-6.2-3.2-3.2-6.3-6.3-3.1 3.1-6.2 6.3-3.2 3.1-6.3 6.2 3.1 3.1 6.3 6.3zm-6.3-6.3q3.1-3.1 6.3-6.2 3.1-3.2 6.2-6.3-3.1-3.1-6.2-6.2-3.2 3.1-6.3 6.2-3.1 3.1-6.2 6.3 3.1 3.1 6.2 6.2zm-6.2-6.2q3.1-3.2 6.2-6.3 3.1-3.1 6.3-6.2-1.6-1.6-3.2-3.2-3.1 3.2-6.2 6.3-3.1 3.1-6.3 6.2 1.6 1.6 3.2 3.2zm-3.2-3.2q3.2-3.1 6.3-6.2 3.1-3.1 6.2-6.3-1.5-1.5-3.1-3.1-3.1 3.1-6.2 6.3-3.2 3.1-6.3 6.2 1.6 1.6 3.1 3.1zm-3.1-3.1q3.1-3.1 6.3-6.2 3.1-3.2 6.2-6.3-1.6-1.6-3.1-3.1-3.1 3.1-6.3 6.2-3.1 3.2-6.2 6.3 1.5 1.5 3.1 3.1zm-3.1-3.1q3.1-3.1 6.2-6.3 3.2-3.1 6.3-6.2-1.6-1.6-3.1-3.1-3.2 3.1-6.3 6.2-3.1 3.1-6.2 6.3 1.5 1.5 3.1 3.1zm-3.1-3.1q3.1-3.2 6.2-6.3 3.1-3.1 6.3-6.2-3.2-3.2-6.3-6.3-3.1 3.1-6.2 6.3-3.2 3.1-6.3 6.2 3.1 3.1 6.3 6.3zm-12.5-12.5q3.1 3.1 6.2 6.2 3.1-3.1 6.3-6.2 3.1-3.2 6.2-6.3-3.1-3.1-6.2-6.2-3.2-3.2-6.3-6.3-3.1 3.1-6.2 6.3-3.2 3.1-6.3 6.2 3.1 3.1 6.3 6.3zm-12.5-12.5q3.1 3.1 6.2 6.2 3.1-3.1 6.3-6.2 3.1-3.2 6.2-6.3-3.1-3.1-6.2-6.2-3.2-3.2-6.3-6.3-3.1 3.1-6.2 6.3-3.2 3.1-6.3 6.2 3.1 3.1 6.3 6.3zm-12.5-12.5q3.1 3.1 6.2 6.2 3.1-3.1 6.3-6.2 3.1-3.2 6.2-6.3-3.1-3.1-6.2-6.2-3.2-3.2-6.3-6.3-3.1 3.1-6.2 6.3-3.2 3.1-6.3 6.2 3.1 3.1 6.3 6.3zm-12.5-12.5q3.1 3.1 6.2 6.2 3.1-3.1 6.3-6.2 3.1-3.2 6.2-6.3-3.1-3.1-6.2-6.2-3.2-3.2-6.3-6.3-3.1 3.1-6.2 6.3-3.2 3.1-6.3 6.2 3.1 3.1 6.3 6.3zm-12.5-12.5q3.1 3.1 6.2 6.2 3.1-3.1 6.3-6.2 3.1-3.2 6.2-6.3-3.1-3.1-6.2-6.2-3.2-3.2-6.3-6.3-3.1 3.1-6.2 6.3-3.2 3.1-6.3 6.2 3.1 3.1 6.3 6.3zm-12.5-12.5q3.1 3.1 6.2 6.2 3.1-3.1 6.3-6.2 3.1-3.2 6.2-6.3-3.1-3.1-6.2-6.2-3.2-3.2-6.3-6.3-3.1 3.1-6.2 6.3-3.2 3.1-6.3 6.2 3.1 3.1 6.3 6.3zm-12.5-12.5q3.1 3.1 6.2 6.2 3.1-3.1 6.3-6.2 3.1-3.2 6.2-6.3-3.1-3.1-6.2-6.2-3.2-3.2-6.3-6.3-3.1 3.1-6.2 6.3-3.2 3.1-6.3 6.2 3.1 3.1 6.3 6.3zm200 175q3.1 3.1 6.2 6.2 3.1-3.1 6.3-6.2 3.1-3.2 6.2-6.3-3.1-3.1-6.2-6.2-3.2-3.2-6.3-6.3-3.1 3.1-6.2 6.3-3.2 3.1-6.3 6.2 3.1 3.1 6.3 6.3zm-12.5-12.5q3.1 3.1 6.2 6.2 3.1-3.1 6.3-6.2 3.1-3.2 6.2-6.3-3.1-3.1-6.2-6.2-3.2-3.2-6.3-6.3-3.1 3.1-6.2 6.3-3.2 3.1-6.3 6.2 3.1 3.1 6.3 6.3zm-12.5-12.5q3.1 3.1 6.2 6.2 3.1-3.1 6.3-6.2 3.1-3.2 6.2-6.3-3.1-3.1-6.2-6.2-3.2-3.2-6.3-6.3-3.1 3.1-6.2 6.3-3.2 3.1-6.3 6.2 3.1 3.1 6.3 6.3zm-12.5-12.5q3.1 3.1 6.2 6.2 3.1-3.1 6.3-6.2 3.1-3.2 6.2-6.3-3.1-3.1-6.2-6.2-3.2-3.2-6.3-6.3-3.1 3.1-6.2 6.3-3.2 3.1-6.3 6.2 3.1 3.1 6.3 6.3zm-12.5-12.5q3.1 3.1 6.2 6.2 3.1-3.1 6.3-6.2 3.1-3.2 6.2-6.3-3.1-3.1-6.2-6.2-3.2-3.2-6.3-6.3-3.1 3.1-6.2 6.3-3.2 3.1-6.3 6.2 3.1 3.1 6.3 6.3zm-12.5-12.5q3.1 3.1 6.2 6.2 3.1-3.1 6.3-6.2 3.1-3.2 6.2-6.3-3.1-3.1-6.2-6.2-3.2-3.2-6.3-6.3-3.1 3.1-6.2 6.3-3.2 3.1-6.3 6.2 3.1 3.1 6.3 6.3zm-12.5-12.5q3.1 3.1 6.2 6.2 3.1-3.1 6.3-6.2 3.1-3.2 6.2-6.3-3.1-3.1-6.2-6.2-3.2-3.2-6.3-6.3-3.1 3.1-6.2 6.3-3.2 3.1-6.3 6.2 3.1 3.1 6.3 6.3zm-6.3-6.3q3.1-3.1 6.3-6.2 3.1-3.2 6.2-6.3-3.1-3.1-6.2-6.2-3.2 3.1-6.3 6.2-3.1 3.1-6.2 6.3 3.1 3.1 6.2 6.2zm-6.2-6.2q3.1-3.2 6.2-6.3 3.1-3.1 6.3-6.2-1.6-1.6-3.2-3.2-3.1 3.2-6.2 6.3-3.1 3.1-6.3 6.2 1.6 1.6 3.2 3.2zm-3.2-3.2q3.2-3.1 6.3-6.2 3.1-3.1 6.2-6.3-1.5-1.5-3.1-3.1-3.1 3.1-6.2 6.3-3.2 3.1-6.3 6.2 1.6 1.6 3.1 3.1zm-3.1-3.1q3.1-3.1 6.3-6.2 3.1-3.2 6.2-6.3-1.6-1.6-3.1-3.1-3.1 3.1-6.3 6.2-3.1 3.2-6.2 6.3 1.5 1.5 3.1 3.1zm-3.1-3.1q3.1-3.1 6.2-6.3 3.2-3.1 6.3-6.2-1.6-1.6-3.1-3.1-3.2 3.1-6.3 6.2-3.1 3.1-6.2 6.3 1.5 1.5 3.1 3.1zm-3.1-3.1q3.1-3.2 6.2-6.3 3.1-3.1 6.3-6.2-3.2-3.2-6.3-6.3-3.1 3.1-6.2 6.3-3.2 3.1-6.3 6.2 3.1 3.1 6.3 6.3zm-12.5-12.5q3.1 3.1 6.2 6.2 3.1-3.1 6.3-6.2 3.1-3.2 6.2-6.3-3.1-3.1-6.2-6.2-3.2-3.2-6.3-6.3-3.1 3.1-6.2 6.3-3.2 3.1-6.3 6.2 3.1 3.1 6.3 6.3zm-12.5-12.5q3.1 3.1 6.2 6.2 3.1-3.1 6.3-6.2 3.1-3.2 6.2-6.3-3.1-3.1-6.2-6.2-3.2-3.2-6.3-6.3-3.1 3.1-6.2 6.3-3.2 3.1-6.3 6.2 3.1 3.1 6.3 6.3zm-12.5-12.5q3.1 3.1 6.2 6.2 3.1-3.1 6.3-6.2 3.1-3.2 6.2-6.3-3.1-3.1-6.2-6.2-3.2-3.2-6.3-6.3-3.1 3.1-6.2 6.3-3.2 3.1-6.3 6.2 3.1 3.1 6.3 6.3zm-12.5-12.5q3.1 3.1 6.2 6.2 3.1-3.1 6.3-6.2 3.1-3.2 6.2-6.3-3.1-3.1-6.2-6.2-3.2-3.2-6.3-6.3-3.1 3.1-6.2 6.3-3.2 3.1-6.3 6.2 3.1 3.1 6.3 6.3zm-12.5-12.5q3.1 3.1 6.2 6.2 3.1-3.1 6.3-6.2 3.1-3.2 6.2-6.3-3.1-3.1-6.2-6.2-3.2-3.2-6.3-6.3-3.1 3.1-6.2 6.3-3.2 3.1-6.3 6.2 3.1 3.1 6.3 6.3zm-12.5-12.5q3.1 3.1 6.2 6.2 3.1-3.1 6.3-6.2 3.1-3.2 6.2-6.3-3.1-3.1-6.2-6.2-3.2-3.2-6.3-6.3-3.1 3.1-6.2 6.3-3.2 3.1-6.3 6.2 3.1 3.1 6.3 6.3zm-12.5-12.5q3.1 3.1 6.2 6.2 3.1-3.1 6.3-6.2 3.1-3.2 6.2-6.3-3.1-3.1-6.2-6.2-3.2-3.2-6.3-6.3-3.1 3.1-6.2 6.3-3.2 3.1-6.3 6.2 3.1 3.1 6.3 6.3zm200 175q3.1 3.1 6.2 6.2 3.1-3.1 6.3-6.2 3.1-3.2 6.2-6.3-3.1-3.1-6.2-6.2-3.2-3.2-6.3-6.3-3.1 3.1-6.2 6.3-3.2 3.1-6.3 6.2 3.1 3.1 6.3 6.3zm-12.5-12.5q3.1 3.1 6.2 6.2 3.1-3.1 6.3-6.2 3.1-3.2 6.2-6.3-3.1-3.1-6.2-6.2-3.2-3.2-6.3-6.3-3.1 3.1-6.2 6.3-3.2 3.1-6.3 6.2 3.1 3.1 6.3 6.3zm-12.5-12.5q3.1 3.1 6.2 6.2 3.1-3.1 6.3-6.2 3.1-3.2 6.2-6.3-3.1-3.1-6.2-6.2-3.2-3.2-6.3-6.3-3.1 3.1-6.2 6.3-3.2 3.1-6.3 6.2 3.1 3.1 6.3 6.3zm-12.5-12.5q3.1 3.1 6.2 6.2 3.1-3.1 6.3-6.2 3.1-3.2 6.2-6.3-3.1-3.1-6.2-6.2-3.2-3.2-6.3-6.3-3.1 3.1-6.2 6.3-3.2 3.1-6.3 6.2 3.1 3.1 6.3 6.3zm-12.5-12.5q3.1 3.1 6.2 6.2 3.1-3.1 6.3-6.2 3.1-3.2 6.2-6.3-3.1-3.1-6.2-6.2-3.2-3.2-6.3-6.3-3.1 3.1-6.2 6.3-3.2 3.1-6.3 6.2 3.1 3.1 6.3 6.3zm-12.5-12.5q3.1 3.1 6.2 6.2 3.1-3.1 6.3-6.2 3.1-3.2 6.2-6.3-3.1-3.1-6.2-6.2-3.2-3.2-6.3-6.3-3.1 3.1-6.2 6.3-3.2 3.1-6.3 6.2 3.1 3.1 6.3 6.3zm-12.5-12.5q3.1 3.1 6.2 6.2 3.1-3.1 6.3-6.2 3.1-3.2 6.2-6.3-3.1-3.1-6.2-6.2-3.2-3.2-6.3-6.3-3.1 3.1-6.2 6.3-3.2 3.1-6.3 6.2 3.1 3.1 6.3 6.3zm-6.3-6.3q3.1-3.1 6.3-6.2 3.1-3.2 6.2-6.3-3.1-3.1-6.2-6.2-3.2 3.1-6.3 6.2-3.1 3.1-6.2 6.3 3.1 3.1 6.2 6.2zm-6.2-6.2q3.1-3.2 6.2-6.3 3.1-3.1 6.3-6.2-1.6-1.6-3.2-3.2-3.1 3.2-6.2 6.3-3.1 3.1-6.3 6.2 1.6 1.6 3.2 3.2zm-3.2-3.2q3.2-3.1 6.3-6.2 3.1-3.1 6.2-6.3-1.5-1.5-3.1-3.1-3.1 3.1-6.2 6.3-3.2 3.1-6.3 6.2 1.6 1.6 3.1 3.1zm-3.1-3.1q3.1-3.1 6.3-6.2 3.1-3.2 6.2-6.3-1.6-1.6-3.1-3.1-3.1 3.1-6.3 6.2-3.1 3.2-6.2 6.3 1.5 1.5 3.1 3.1zm-3.1-3.1q3.1-3.1 6.2-6.3 3.2-3.1 6.3-6.2-1.6-1.6-3.1-3.1-3.2 3.1-6.3 6.2-3.1 3.1-6.2 6.3 1.5 1.5 3.1 3.1zm-3.1-3.1q3.1-3.2 6.2-6.3 3.1-3.1 6.3-6.2-3.2-3.2-6.3-6.3-3.1 3.1-6.2 6.3-3.2 3.1-6.3 6.2 3.1 3.1 6.3 6.3zm-12.5-12.5q3.1 3.1 6.2 6.2 3.1-3.1 6.3-6.2 3.1-3.2 6.2-6.3-3.1-3.1-6.2-6.2-3.2-3.2-6.3-6.3-3.1 3.1-6.2 6.3-3.2 3.1-6.3 6.2 3.1 3.1 6.3 6.3zm-12.5-12.5q3.1 3.1 6.2 6.2 3.1-3.1 6.3-6.2 3.1-3.2 6.2-6.3-3.1-3.1-6.2-6.2-3.2-3.2-6.3-6.3-3.1 3.1-6.2 6.3-3.2 3.1-6.3 6.2 3.1 3.1 6.3 6.3zm-12.5-12.5q3.1 3.1 6.2 6.2 3.1-3.1 6.3-6.2 3.1-3.2 6.2-6.3-3.1-3.1-6.2-6.2-3.2-3.2-6.3-6.3-3.1 3.1-6.2 6.3-3.2 3.1-6.3 6.2 3.1 3.1 6.3 6.3zm-12.5-12.5q3.1 3.1 6.2 6.2 3.1-3.1 6.3-6.2 3.1-3.2 6.2-6.3-3.1-3.1-6.2-6.2-3.2-3.2-6.3-6.3-3.1 3.1-6.2 6.3-3.2 3.1-6.3 6.2 3.1 3.1 6.3 6.3zm-12.5-12.5q3.1 3.1 6.2 6.2 3.1-3.1 6.3-6.2 3.1-3.2 6.2-6.3-3.1-3.1-6.2-6.2-3.2-3.2-6.3-6.3-3.1 3.1-6.2 6.3-3.2 3.1-6.3 6.2 3.1 3.1 6.3 6.3zm-12.5-12.5q3.1 3.1 6.2 6.2 3.1-3.1 6.3-6.2 3.1-3.2 6.2-6.3-3.1-3.1-6.2-6.2-3.2-3.2-6.3-6.3-3.1 3.1-6.2 6.3-3.2 3.1-6.3 6.2 3.1 3.1 6.3 6.3zm-12.5-12.5q3.1 3.1 6.2 6.2 3.1-3.1 6.3-6.2 3.1-3.2 6.2-6.3-3.1-3.1-6.2-6.2-3.2-3.2-6.3-6.3-3.1 3.1-6.2 6.3-3.2 3.1-6.3 6.2 3.1 3.1 6.3 6.3zm200 175q3.1 3.1 6.2 6.2 3.1-3.1 6.3-6.2 3.1-3.2 6.2-6.3-3.1-3.1-6.2-6.2-3.2-3.2-6.3-6.3-3.1 3.1-6.2 6.3-3.2 3.1-6.3 6.2 3.1 3.1 6.3 6.3zm-12.5-12.5q3.1 3.1 6.2 6.2 3.1-3.1 6.3-6.2 3.1-3.2 6.2-6.3-3.1-3.1-6.2-6.2-3.2-3.2-6.3-6.3-3.1 3.1-6.2 6.3-3.2 3.1-6.3 6.2 3.1 3.1 6.3 6.3zm-12.5-12.5q3.1 3.1 6.2 6.2 3.1-3.1 6.3-6.2 3.1-3.2 6.2-6.3-3.1-3.1-6.2-6.2-3.2-3.2-6.3-6.3-3.1 3.1-6.2 6.3-3.2 3.1-6.3 6.2 3.1 3.1 6.3 6.3zm-12.5-12.5q3.1 3.1 6.2 6.2 3.1-3.1 6.3-6.2 3.1-3.2 6.2-6.3-3.1-3.1-6.2-6.2-3.2-3.2-6.3-6.3-3.1 3.1-6.2 6.3-3.2 3.1-6.3 6.2 3.1 3.1 6.3 6.3zm-12.5-12.5q3.1 3.1 6.2 6.2 3.1-3.1 6.3-6.2 3.1-3.2 6.2-6.3-3.1-3.1-6.2-6.2-3.2-3.2-6.3-6.3-3.1 3.1-6.2 6.3-3.2 3.1-6.3 6.2 3.1 3.1 6.3 6.3zm-12.5-12.5q3.1 3.1 6.2 6.2 3.1-3.1 6.3-6.2 3.1-3.2 6.2-6.3-3.1-3.1-6.2-6.2-3.2-3.2-6.3-6.3-3.1 3.1-6.2 6.3-3.2 3.1-6.3 6.2 3.1 3.1 6.3 6.3zm-12.5-12.5q3.1 3.1 6.2 6.2 3.1-3.1 6.3-6.2 3.1-3.2 6.2-6.3-3.1-3.1-6.2-6.2-3.2-3.2-6.3-6.3-3.1 3.1-6.2 6.3-3.2 3.1-6.3 6.2 3.1 3.1 6.3 6.3zm-6.3-6.3q3.1-3.1 6.3-6.2 3.1-3.2 6.2-6.3-3.1-3.1-6.2-6.2-3.2 3.1-6.3 6.2-3.1 3.1-6.2 6.3 3.1 3.1 6.2 6.2zm-6.2-6.2q3.1-3.2 6.2-6.3 3.1-3.1 6.3-6.2-1.6-1.6-3.2-3.2-3.1 3.2-6.2 6.3-3.1 3.1-6.3 6.2 1.6 1.6 3.2 3.2zm-3.2-3.2q3.2-3.1 6.3-6.2 3.1-3.1 6.2-6.3-1.5-1.5-3.1-3.1-3.1 3.1-6.2 6.3-3.2 3.1-6.3 6.2 1.6 1.6 3.1 3.1zm-3.1-3.1q3.1-3.1 6.3-6.2 3.1-3.2 6.2-6.3-1.6-1.6-3.1-3.1-3.1 3.1-6.3 6.2-3.1 3.2-6.2 6.3 1.5 1.5 3.1 3.1zm-3.1-3.1q3.1-3.1 6.2-6.3 3.2-3.1 6.3-6.2-1.6-1.6-3.1-3.1-3.2 3.1-6.3 6.2-3.1 3.1-6.2 6.3 1.5 1.5 3.1 3.1zm-3.1-3.1q3.1-3.2 6.2-6.3 3.1-3.1 6.3-6.2-3.2-3.2-6.3-6.3-3.1 3.1-6.2 6.3-3.2 3.1-6.3 6.2 3.1 3.1 6.3 6.3zm-12.5-12.5q3.1 3.1 6.2 6.2 3.1-3.1 6.3-6.2 3.1-3.2 6.2-6.3-3.1-3.1-6.2-6.2-3.2-3.2-6.3-6.3-3.1 3.1-6.2 6.3-3.2 3.1-6.3 6.2 3.1 3.1 6.3 6.3zm-12.5-12.5q3.1 3.1 6.2 6.2 3.1-3.1 6.3-6.2 3.1-3.2 6.2-6.3-3.1-3.1-6.2-6.2-3.2-3.2-6.3-6.3-3.1 3.1-6.2 6.3-3.2 3.1-6.3 6.2 3.1 3.1 6.3 6.3zm-12.5-12.5q3.1 3.1 6.2 6.2 3.1-3.1 6.3-6.2 3.1-3.2 6.2-6.3-3.1-3.1-6.2-6.2-3.2-3.2-6.3-6.3-3.1 3.1-6.2 6.3-3.2 3.1-6.3 6.2 3.1 3.1 6.3 6.3zm-12.5-12.5q3.1 3.1 6.2 6.2 3.1-3.1 6.3-6.2 3.1-3.2 6.2-6.3-3.1-3.1-6.2-6.2-3.2-3.2-6.3-6.3-3.1 3.1-6.2 6.3-3.2 3.1-6.3 6.2 3.1 3.1 6.3 6.3zm-12.5-12.5q3.1 3.1 6.2 6.2 3.1-3.1 6.3-6.2 3.1-3.2 6.2-6.3-3.1-3.1-6.2-6.2-3.2-3.2-6.3-6.3-3.1 3.1-6.2 6.3-3.2 3.1-6.3 6.2 3.1 3.1 6.3 6.3zm-12.5-12.5q3.1 3.1 6.2 6.2 3.1-3.1 6.3-6.2 3.1-3.2 6.2-6.3-3.1-3.1-6.2-6.2-3.2-3.2-6.3-6.3-3.1 3.1-6.2 6.3-3.2 3.1-6.3 6.2 3.1 3.1 6.3 6.3zm-12.5-12.5q3.1 3.1 6.2 6.2 3.1-3.1 6.3-6.2 3.1-3.2 6.2-6.3-3.1-3.1-6.2-6.2-3.2-3.2-6.3-6.3-3.1 3.1-6.2 6.3-3.2 3.1-6.3 6.2 3.1 3.1 6.3 6.3zm200 175q3.1 3.1 6.2 6.2 3.1-3.1 6.3-6.2 3.1-3.2 6.2-6.3-3.1-3.1-6.2-6.2-3.2-3.2-6.3-6.3-3.1 3.1-6.2 6.3-3.2 3.1-6.3 6.2 3.1 3.1 6.3 6.3zm-12.5-12.5q3.1 3.1 6.2 6.2 3.1-3.1 6.3-6.2 3.1-3.2 6.2-6.3-3.1-3.1-6.2-6.2-3.2-3.2-6.3-6.3-3.1 3.1-6.2 6.3-3.2 3.1-6.3 6.2 3.1 3.1 6.3 6.3zm-12.5-12.5q3.1 3.1 6.2 6.2 3.1-3.1 6.3-6.2 3.1-3.2 6.2-6.3-3.1-3.1-6.2-6.2-3.2-3.2-6.3-6.3-3.1 3.1-6.2 6.3-3.2 3.1-6.3 6.2 3.1 3.1 6.3 6.3zm-12.5-12.5q3.1 3.1 6.2 6.2 3.1-3.1 6.3-6.2 3.1-3.2 6.2-6.3-3.1-3.1-6.2-6.2-3.2-3.2-6.3-6.3-3.1 3.1-6.2 6.3-3.2 3.1-6.3 6.2 3.1 3.1 6.3 6.3zm-12.5-12.5q3.1 3.1 6.2 6.2 3.1-3.1 6.3-6.2 3.1-3.2 6.2-6.3-3.1-3.1-6.2-6.2-3.2-3.2-6.3-6.3-3.1 3.1-6.2 6.3-3.2 3.1-6.3 6.2 3.1 3.1 6.3 6.3zm-12.5-12.5q3.1 3.1 6.2 6.2 3.1-3.1 6.3-6.2 3.1-3.2 6.2-6.3-3.1-3.1-6.2-6.2-3.2-3.2-6.3-6.3-3.1 3.1-6.2 6.3-3.2 3.1-6.3 6.2 3.1 3.1 6.3 6.3zm-12.5-12.5q3.1 3.1 6.2 6.2 3.1-3.1 6.3-6.2 3.1-3.2 6.2-6.3-3.1-3.1-6.2-6.2-3.2-3.2-6.3-6.3-3.1 3.1-6.2 6.3-3.2 3.1-6.3 6.2 3.1 3.1 6.3 6.3zm-6.3-6.3q3.1-3.1 6.3-6.2 3.1-3.2 6.2-6.3-3.1-3.1-6.2-6.2-3.2 3.1-6.3 6.2-3.1 3.1-6.2 6.3 3.1 3.1 6.2 6.2zm-6.2-6.2q3.1-3.2 6.2-6.3 3.1-3.1 6.3-6.2-1.6-1.6-3.2-3.2-3.1 3.2-6.2 6.3-3.1 3.1-6.3 6.2 1.6 1.6 3.2 3.2zm-3.2-3.2q3.2-3.1 6.3-6.2 3.1-3.1 6.2-6.3-1.5-1.5-3.1-3.1-3.1 3.1-6.2 6.3-3.2 3.1-6.3 6.2 1.6 1.6 3.1 3.1zm-3.1-3.1q3.1-3.1 6.3-6.2 3.1-3.2 6.2-6.3-1.6-1.6-3.1-3.1-3.1 3.1-6.3 6.2-3.1 3.2-6.2 6.3 1.5 1.5 3.1 3.1zm-3.1-3.1q3.1-3.1 6.2-6.3 3.2-3.1 6.3-6.2-1.6-1.6-3.1-3.1-3.2 3.1-6.3 6.2-3.1 3.1-6.2 6.3 1.5 1.5 3.1 3.1zm-3.1-3.1q3.1-3.2 6.2-6.3 3.1-3.1 6.3-6.2-3.2-3.2-6.3-6.3-3.1 3.1-6.2 6.3-3.2 3.1-6.3 6.2 3.1 3.1 6.3 6.3zm-12.5-12.5q3.1 3.1 6.2 6.2 3.1-3.1 6.3-6.2 3.1-3.2 6.2-6.3-3.1-3.1-6.2-6.2-3.2-3.2-6.3-6.3-3.1 3.1-6.2 6.3-3.2 3.1-6.3 6.2 3.1 3.1 6.3 6.3zm-12.5-12.5q3.1 3.1 6.2 6.2 3.1-3.1 6.3-6.2 3.1-3.2 6.2-6.3-3.1-3.1-6.2-6.2-3.2-3.2-6.3-6.3-3.1 3.1-6.2 6.3-3.2 3.1-6.3 6.2 3.1 3.1 6.3 6.3zm-12.5-12.5q3.1 3.1 6.2 6.2 3.1-3.1 6.3-6.2 3.1-3.2 6.2-6.3-3.1-3.1-6.2-6.2-3.2-3.2-6.3-6.3-3.1 3.1-6.2 6.3-3.2 3.1-6.3 6.2 3.1 3.1 6.3 6.3zm-12.5-12.5q3.1 3.1 6.2 6.2 3.1-3.1 6.3-6.2 3.1-3.2 6.2-6.3-3.1-3.1-6.2-6.2-3.2-3.2-6.3-6.3-3.1 3.1-6.2 6.3-3.2 3.1-6.3 6.2 3.1 3.1 6.3 6.3zm-12.5-12.5q3.1 3.1 6.2 6.2 3.1-3.1 6.3-6.2 3.1-3.2 6.2-6.3-3.1-3.1-6.2-6.2-3.2-3.2-6.3-6.3-3.1 3.1-6.2 6.3-3.2 3.1-6.3 6.2 3.1 3.1 6.3 6.3zm-12.5-12.5q3.1 3.1 6.2 6.2 3.1-3.1 6.3-6.2 3.1-3.2 6.2-6.3-3.1-3.1-6.2-6.2-3.2-3.2-6.3-6.3-3.1 3.1-6.2 6.3-3.2 3.1-6.3 6.2 3.1 3.1 6.3 6.3zm-12.5-12.5q3.1 3.1 6.2 6.2 3.1-3.1 6.3-6.2 3.1-3.2 6.2-6.3-3.1-3.1-6.2-6.2-3.2-3.2-6.3-6.3-3.1 3.1-6.2 6.3-3.2 3.1-6.3 6.2 3.1 3.1 6.3 6.3zm200 175q3.1 3.1 6.2 6.2 3.1-3.1 6.3-6.2 3.1-3.2 6.2-6.3-3.1-3.1-6.2-6.2-3.2-3.2-6.3-6.3-3.1 3.1-6.2 6.3-3.2 3.1-6.3 6.2 3.1 3.1 6.3 6.3zm-12.5-12.5q3.1 3.1 6.2 6.2 3.1-3.1 6.3-6.2 3.1-3.2 6.2-6.3-3.1-3.1-6.2-6.2-3.2-3.2-6.3-6.3-3.1 3.1-6.2 6.3-3.2 3.1-6.3 6.2 3.1 3.1 6.3 6.3zm-12.5-12.5q3.1 3.1 6.2 6.2 3.1-3.1 6.3-6.2 3.1-3.2 6.2-6.3-3.1-3.1-6.2-6.2-3.2-3.2-6.3-6.3-3.1 3.1-6.2 6.3-3.2 3.1-6.3 6.2 3.1 3.1 6.3 6.3zm-12.5-12.5q3.1 3.1 6.2 6.2 3.1-3.1 6.3-6.2 3.1-3.2 6.2-6.3-3.1-3.1-6.2-6.2-3.2-3.2-6.3-6.3-3.1 3.1-6.2 6.3-3.2 3.1-6.3 6.2 3.1 3.1 6.3 6.3zm-12.5-12.5q3.1 3.1 6.2 6.2 3.1-3.1 6.3-6.2 3.1-3.2 6.2-6.3-3.1-3.1-6.2-6.2-3.2-3.2-6.3-6.3-3.1 3.1-6.2 6.3-3.2 3.1-6.3 6.2 3.1 3.1 6.3 6.3zm-12.5-12.5q3.1 3.1 6.2 6.2 3.1-3.1 6.3-6.2 3.1-3.2 6.2-6.3-3.1-3.1-6.2-6.2-3.2-3.2-6.3-6.3-3.1 3.1-6.2 6.3-3.2 3.1-6.3 6.2 3.1 3.1 6.3 6.3zm-12.5-12.5q3.1 3.1 6.2 6.2 3.1-3.1 6.3-6.2 3.1-3.2 6.2-6.3-3.1-3.1-6.2-6.2-3.2-3.2-6.3-6.3-3.1 3.1-6.2 6.3-3.2 3.1-6.3 6.2 3.1 3.1 6.3 6.3zm-6.3-6.3q3.1-3.1 6.3-6.2 3.1-3.2 6.2-6.3-3.1-3.1-6.2-6.2-3.2 3.1-6.3 6.2-3.1 3.1-6.2 6.3 3.1 3.1 6.2 6.2zm-6.2-6.2q3.1-3.2 6.2-6.3 3.1-3.1 6.3-6.2-1.6-1.6-3.2-3.2-3.1 3.2-6.2 6.3-3.1 3.1-6.3 6.2 1.6 1.6 3.2 3.2zm-3.2-3.2q3.2-3.1 6.3-6.2 3.1-3.1 6.2-6.3-1.5-1.5-3.1-3.1-3.1 3.1-6.2 6.3-3.2 3.1-6.3 6.2 1.6 1.6 3.1 3.1zm-3.1-3.1q3.1-3.1 6.3-6.2 3.1-3.2 6.2-6.3-1.6-1.6-3.1-3.1-3.1 3.1-6.3 6.2-3.1 3.2-6.2 6.3 1.5 1.5 3.1 3.1zm-3.1-3.1q3.1-3.1 6.2-6.3 3.2-3.1 6.3-6.2-1.6-1.6-3.1-3.1-3.2 3.1-6.3 6.2-3.1 3.1-6.2 6.3 1.5 1.5 3.1 3.1zm-3.1-3.1q3.1-3.2 6.2-6.3 3.1-3.1 6.3-6.2-3.2-3.2-6.3-6.3-3.1 3.1-6.2 6.3-3.2 3.1-6.3 6.2 3.1 3.1 6.3 6.3zm-12.5-12.5q3.1 3.1 6.2 6.2 3.1-3.1 6.3-6.2 3.1-3.2 6.2-6.3-3.1-3.1-6.2-6.2-3.2-3.2-6.3-6.3-3.1 3.1-6.2 6.3-3.2 3.1-6.3 6.2 3.1 3.1 6.3 6.3zm-12.5-12.5q3.1 3.1 6.2 6.2 3.1-3.1 6.3-6.2 3.1-3.2 6.2-6.3-3.1-3.1-6.2-6.2-3.2-3.2-6.3-6.3-3.1 3.1-6.2 6.3-3.2 3.1-6.3 6.2 3.1 3.1 6.3 6.3zm-12.5-12.5q3.1 3.1 6.2 6.2 3.1-3.1 6.3-6.2 3.1-3.2 6.2-6.3-3.1-3.1-6.2-6.2-3.2-3.2-6.3-6.3-3.1 3.1-6.2 6.3-3.2 3.1-6.3 6.2 3.1 3.1 6.3 6.3zm-12.5-12.5q3.1 3.1 6.2 6.2 3.1-3.1 6.3-6.2 3.1-3.2 6.2-6.3-3.1-3.1-6.2-6.2-3.2-3.2-6.3-6.3-3.1 3.1-6.2 6.3-3.2 3.1-6.3 6.2 3.1 3.1 6.3 6.3zm-12.5-12.5q3.1 3.1 6.2 6.2 3.1-3.1 6.3-6.2 3.1-3.2 6.2-6.3-3.1-3.1-6.2-6.2-3.2-3.2-6.3-6.3-3.1 3.1-6.2 6.3-3.2 3.1-6.3 6.2 3.1 3.1 6.3 6.3zm-12.5-12.5q3.1 3.1 6.2 6.2 3.1-3.1 6.3-6.2 3.1-3.2 6.2-6.3-3.1-3.1-6.2-6.2-3.2-3.2-6.3-6.3-3.1 3.1-6.2 6.3-3.2 3.1-6.3 6.2 3.1 3.1 6.3 6.3zm-12.5-12.5q3.1 3.1 6.2 6.2 3.1-3.1 6.3-6.2 3.1-3.2 6.2-6.3-3.1-3.1-6.2-6.2-3.2-3.2-6.3-6.3-3.1 3.1-6.2 6.3-3.2 3.1-6.3 6.2 3.1 3.1 6.3 6.3zm200 175q3.1 3.1 6.2 6.2 3.1-3.1 6.3-6.2-3.2-3.2-6.3-6.3-3.1-3.1-6.2-6.2-3.2 3.1-6.3 6.2 3.1 3.1 6.3 6.3zm-12.5-12.5q3.1 3.1 6.2 6.2 3.1-3.1 6.3-6.2-3.2-3.2-6.3-6.3-3.1-3.1-6.2-6.2-3.2 3.1-6.3 6.2 3.1 3.1 6.3 6.3zm-12.5-12.5q3.1 3.1 6.2 6.2 3.1-3.1 6.3-6.2-3.2-3.2-6.3-6.3-3.1-3.1-6.2-6.2-3.2 3.1-6.3 6.2 3.1 3.1 6.3 6.3zm-12.5-12.5q3.1 3.1 6.2 6.2 3.1-3.1 6.3-6.2-3.2-3.2-6.3-6.3-3.1-3.1-6.2-6.2-3.2 3.1-6.3 6.2 3.1 3.1 6.3 6.3zm-12.5-12.5q3.1 3.1 6.2 6.2 3.1-3.1 6.3-6.2-3.2-3.2-6.3-6.3-3.1-3.1-6.2-6.2-3.2 3.1-6.3 6.2 3.1 3.1 6.3 6.3zm-12.5-12.5q3.1 3.1 6.2 6.2 3.1-3.1 6.3-6.2-3.2-3.2-6.3-6.3-3.1-3.1-6.2-6.2-3.2 3.1-6.3 6.2 3.1 3.1 6.3 6.3zm-12.5-12.5q3.1 3.1 6.2 6.2 3.1-3.1 6.3-6.2-3.2-3.2-6.3-6.3-3.1-3.1-6.2-6.2-3.2 3.1-6.3 6.2 3.1 3.1 6.3 6.3zm-6.3-6.3q3.1-3.1 6.3-6.2-3.2-3.2-6.3-6.3-3.1 3.1-6.2 6.3 3.1 3.1 6.2 6.2zm-6.2-6.2q3.1-3.2 6.2-6.3-1.6-1.6-3.1-3.1-3.1 3.1-6.3 6.2 1.6 1.6 3.2 3.2zm-3.2-3.2q3.2-3.1 6.3-6.2-1.6-1.6-3.1-3.1-3.2 3.1-6.3 6.2 1.6 1.6 3.1 3.1zm-3.1-3.1q3.1-3.1 6.3-6.2-1.6-1.6-3.2-3.2-3.1 3.2-6.2 6.3 1.5 1.5 3.1 3.1zm-3.1-3.1q3.1-3.1 6.2-6.3-1.5-1.5-3.1-3.1-3.1 3.1-6.2 6.3 1.5 1.5 3.1 3.1zm-3.1-3.1q3.1-3.2 6.2-6.3-3.1-3.1-6.2-6.2-3.2 3.1-6.3 6.2 3.1 3.1 6.3 6.3zm-12.5-12.5q3.1 3.1 6.2 6.2 3.1-3.1 6.3-6.2-3.2-3.2-6.3-6.3-3.1-3.1-6.2-6.2-3.2 3.1-6.3 6.2 3.1 3.1 6.3 6.3zm-12.5-12.5q3.1 3.1 6.2 6.2 3.1-3.1 6.3-6.2-3.2-3.2-6.3-6.3-3.1-3.1-6.2-6.2-3.2 3.1-6.3 6.2 3.1 3.1 6.3 6.3zm-12.5-12.5q3.1 3.1 6.2 6.2 3.1-3.1 6.3-6.2-3.2-3.2-6.3-6.3-3.1-3.1-6.2-6.2-3.2 3.1-6.3 6.2 3.1 3.1 6.3 6.3zm-12.5-12.5q3.1 3.1 6.2 6.2 3.1-3.1 6.3-6.2-3.2-3.2-6.3-6.3-3.1-3.1-6.2-6.2-3.2 3.1-6.3 6.2 3.1 3.1 6.3 6.3zm-12.5-12.5q3.1 3.1 6.2 6.2 3.1-3.1 6.3-6.2-3.2-3.2-6.3-6.3-3.1-3.1-6.2-6.2-3.2 3.1-6.3 6.2 3.1 3.1 6.3 6.3zm-12.5-12.5q3.1 3.1 6.2 6.2 3.1-3.1 6.3-6.2-3.2-3.2-6.3-6.3-3.1-3.1-6.2-6.2-3.2 3.1-6.3 6.2 3.1 3.1 6.3 6.3zm-12.5-12.5q3.1 3.1 6.2 6.2 3.1-3.1 6.3-6.2-3.2-3.2-6.3-6.3-3.1-3.1-6.2-6.2-3.2 3.1-6.3 6.2 3.1 3.1 6.3 6.3zm193.7 181.2q3.1 3.1 6.3 6.3 1.5-1.6 3.1-3.2-3.1-3.1-6.3-6.2-3.1-3.1-6.2-6.3-1.6 1.6-3.1 3.2 3.1 3.1 6.2 6.2zm-12.5-12.5q3.1 3.1 6.3 6.3 1.5-1.6 3.1-3.2-3.1-3.1-6.3-6.2-3.1-3.1-6.2-6.3-1.6 1.6-3.1 3.2 3.1 3.1 6.2 6.2zm-12.5-12.5q3.1 3.1 6.3 6.3 1.5-1.6 3.1-3.2-3.1-3.1-6.3-6.2-3.1-3.1-6.2-6.3-1.6 1.6-3.1 3.2 3.1 3.1 6.2 6.2zm-12.5-12.5q3.1 3.1 6.3 6.3 1.5-1.6 3.1-3.2-3.1-3.1-6.3-6.2-3.1-3.1-6.2-6.3-1.6 1.6-3.1 3.2 3.1 3.1 6.2 6.2zm-12.5-12.5q3.1 3.1 6.3 6.3 1.5-1.6 3.1-3.2-3.1-3.1-6.3-6.2-3.1-3.1-6.2-6.3-1.6 1.6-3.1 3.2 3.1 3.1 6.2 6.2zm-12.5-12.5q3.1 3.1 6.3 6.3 1.5-1.6 3.1-3.2-3.1-3.1-6.3-6.2-3.1-3.1-6.2-6.3-1.6 1.6-3.1 3.2 3.1 3.1 6.2 6.2zm-12.5-12.5q3.1 3.1 6.3 6.3 1.5-1.6 3.1-3.2-3.1-3.1-6.3-6.2-3.1-3.1-6.2-6.3-1.6 1.6-3.1 3.2 3.1 3.1 6.2 6.2zm-6.2-6.2q1.5-1.6 3.1-3.2-3.1-3.1-6.3-6.2-1.5 1.5-3.1 3.1 3.1 3.1 6.3 6.3zm-6.3-6.3q1.6-1.6 3.1-3.1-1.5-1.6-3.1-3.1-1.6 1.5-3.1 3.1 1.5 1.5 3.1 3.1zm-3.1-3.1q1.5-1.6 3.1-3.1-1.6-1.6-3.1-3.2-1.6 1.6-3.1 3.2 1.5 1.5 3.1 3.1zm-3.1-3.1q1.5-1.6 3.1-3.2-1.6-1.5-3.1-3.1-1.6 1.6-3.2 3.1 1.6 1.6 3.2 3.2zm-3.2-3.2q1.6-1.5 3.2-3.1-1.6-1.6-3.2-3.1-1.5 1.5-3.1 3.1 1.6 1.6 3.1 3.1zm-3.1-3.1q1.6-1.6 3.1-3.1-3.1-3.1-6.2-6.3-1.6 1.6-3.1 3.2 3.1 3.1 6.2 6.2zm-12.5-12.5q3.1 3.1 6.3 6.3 1.5-1.6 3.1-3.2-3.1-3.1-6.3-6.2-3.1-3.1-6.2-6.3-1.6 1.6-3.1 3.2 3.1 3.1 6.2 6.2zm-12.5-12.5q3.1 3.1 6.3 6.3 1.5-1.6 3.1-3.2-3.1-3.1-6.3-6.2-3.1-3.1-6.2-6.3-1.6 1.6-3.1 3.2 3.1 3.1 6.2 6.2zm-12.5-12.5q3.1 3.1 6.3 6.3 1.5-1.6 3.1-3.2-3.1-3.1-6.3-6.2-3.1-3.1-6.2-6.3-1.6 1.6-3.1 3.2 3.1 3.1 6.2 6.2zm-12.5-12.5q3.1 3.1 6.3 6.3 1.5-1.6 3.1-3.2-3.1-3.1-6.3-6.2-3.1-3.1-6.2-6.3-1.6 1.6-3.1 3.2 3.1 3.1 6.2 6.2zm-12.5-12.5q3.1 3.1 6.3 6.3 1.5-1.6 3.1-3.2-3.1-3.1-6.3-6.2-3.1-3.1-6.2-6.3-1.6 1.6-3.1 3.2 3.1 3.1 6.2 6.2zm-12.5-12.5q3.1 3.1 6.3 6.3 1.5-1.6 3.1-3.2-3.1-3.1-6.3-6.2-3.1-3.1-6.2-6.3-1.6 1.6-3.1 3.2 3.1 3.1 6.2 6.2zm-12.5-12.5q3.1 3.1 6.3 6.3 1.5-1.6 3.1-3.2-3.1-3.1-6.3-6.2-3.1-3.1-6.2-6.3-1.6 1.6-3.1 3.2 3.1 3.1 6.2 6.2zm190.6 184.4q3.2 3.1 6.3 6.2 1.5-1.5 3.1-3.1-3.1-3.1-6.2-6.2-3.2-3.2-6.3-6.3-1.6 1.6-3.1 3.1 3.1 3.2 6.2 6.3zm-12.5-12.5q3.2 3.1 6.3 6.2 1.5-1.5 3.1-3.1-3.1-3.1-6.2-6.2-3.2-3.2-6.3-6.3-1.6 1.6-3.1 3.1 3.1 3.2 6.2 6.3zm-12.5-12.5q3.2 3.1 6.3 6.2 1.5-1.5 3.1-3.1-3.1-3.1-6.2-6.2-3.2-3.2-6.3-6.3-1.6 1.6-3.1 3.1 3.1 3.2 6.2 6.3zm-12.5-12.5q3.2 3.1 6.3 6.2 1.5-1.5 3.1-3.1-3.1-3.1-6.2-6.2-3.2-3.2-6.3-6.3-1.6 1.6-3.1 3.1 3.1 3.2 6.2 6.3zm-12.5-12.5q3.2 3.1 6.3 6.2 1.5-1.5 3.1-3.1-3.1-3.1-6.2-6.2-3.2-3.2-6.3-6.3-1.6 1.6-3.1 3.1 3.1 3.2 6.2 6.3zm-12.5-12.5q3.2 3.1 6.3 6.2 1.5-1.5 3.1-3.1-3.1-3.1-6.2-6.2-3.2-3.2-6.3-6.3-1.6 1.6-3.1 3.1 3.1 3.2 6.2 6.3zm-12.5-12.5q3.2 3.1 6.3 6.2 1.5-1.5 3.1-3.1-3.1-3.1-6.2-6.2-3.2-3.2-6.3-6.3-1.6 1.6-3.1 3.1 3.1 3.2 6.2 6.3zm-6.2-6.3q1.5-1.5 3.1-3.1-3.1-3.1-6.2-6.2-1.6 1.5-3.2 3.1 3.2 3.1 6.3 6.2zm-6.3-6.2q1.6-1.6 3.2-3.1-1.6-1.6-3.2-3.2-1.5 1.6-3.1 3.2 1.6 1.5 3.1 3.1zm-3.1-3.1q1.6-1.6 3.1-3.2-1.5-1.5-3.1-3.1-1.6 1.6-3.1 3.1 1.5 1.6 3.1 3.2zm-3.1-3.2q1.5-1.5 3.1-3.1-1.6-1.6-3.1-3.1-1.6 1.5-3.1 3.1 1.5 1.6 3.1 3.1zm-3.1-3.1q1.5-1.6 3.1-3.1-1.6-1.6-3.1-3.1-1.6 1.5-3.2 3.1 1.6 1.5 3.2 3.1zm-3.2-3.1q1.6-1.6 3.2-3.1-3.2-3.2-6.3-6.3-1.6 1.6-3.1 3.1 3.1 3.2 6.2 6.3zm-12.5-12.5q3.2 3.1 6.3 6.2 1.5-1.5 3.1-3.1-3.1-3.1-6.2-6.2-3.2-3.2-6.3-6.3-1.6 1.6-3.1 3.1 3.1 3.2 6.2 6.3zm-12.5-12.5q3.2 3.1 6.3 6.2 1.5-1.5 3.1-3.1-3.1-3.1-6.2-6.2-3.2-3.2-6.3-6.3-1.6 1.6-3.1 3.1 3.1 3.2 6.2 6.3zm-12.5-12.5q3.2 3.1 6.3 6.2 1.5-1.5 3.1-3.1-3.1-3.1-6.2-6.2-3.2-3.2-6.3-6.3-1.6 1.6-3.1 3.1 3.1 3.2 6.2 6.3zm-12.5-12.5q3.2 3.1 6.3 6.2 1.5-1.5 3.1-3.1-3.1-3.1-6.2-6.2-3.2-3.2-6.3-6.3-1.6 1.6-3.1 3.1 3.1 3.2 6.2 6.3zm-12.5-12.5q3.2 3.1 6.3 6.2 1.5-1.5 3.1-3.1-3.1-3.1-6.2-6.2-3.2-3.2-6.3-6.3-1.6 1.6-3.1 3.1 3.1 3.2 6.2 6.3zm-12.5-12.5q3.2 3.1 6.3 6.2 1.5-1.5 3.1-3.1-3.1-3.1-6.2-6.2-3.2-3.2-6.3-6.3-1.6 1.6-3.1 3.1 3.1 3.2 6.2 6.3zm-12.5-12.5q3.2 3.1 6.3 6.2 1.5-1.5 3.1-3.1-3.1-3.1-6.2-6.2-3.2-3.2-6.3-6.3-1.6 1.6-3.1 3.1 3.1 3.2 6.2 6.3zm190.7 184.4q3.1 3.1 6.2 6.2 1.6-1.6 3.1-3.1-3.1-3.1-6.2-6.3-3.1-3.1-6.3-6.2-1.5 1.5-3.1 3.1 3.1 3.1 6.3 6.3zm-12.5-12.5q3.1 3.1 6.2 6.2 1.6-1.6 3.1-3.1-3.1-3.1-6.2-6.3-3.1-3.1-6.3-6.2-1.5 1.5-3.1 3.1 3.1 3.1 6.3 6.3zm-12.5-12.5q3.1 3.1 6.2 6.2 1.6-1.6 3.1-3.1-3.1-3.1-6.2-6.3-3.1-3.1-6.3-6.2-1.5 1.5-3.1 3.1 3.1 3.1 6.3 6.3zm-12.5-12.5q3.1 3.1 6.2 6.2 1.6-1.6 3.1-3.1-3.1-3.1-6.2-6.3-3.1-3.1-6.3-6.2-1.5 1.5-3.1 3.1 3.1 3.1 6.3 6.3zm-12.5-12.5q3.1 3.1 6.2 6.2 1.6-1.6 3.1-3.1-3.1-3.1-6.2-6.3-3.1-3.1-6.3-6.2-1.5 1.5-3.1 3.1 3.1 3.1 6.3 6.3zm-12.5-12.5q3.1 3.1 6.2 6.2 1.6-1.6 3.1-3.1-3.1-3.1-6.2-6.3-3.1-3.1-6.3-6.2-1.5 1.5-3.1 3.1 3.1 3.1 6.3 6.3zm-12.5-12.5q3.1 3.1 6.2 6.2 1.6-1.6 3.1-3.1-3.1-3.1-6.2-6.3-3.1-3.1-6.3-6.2-1.5 1.5-3.1 3.1 3.1 3.1 6.3 6.3zm-6.3-6.3q1.6-1.6 3.1-3.1-3.1-3.1-6.2-6.3-1.6 1.6-3.1 3.2 3.1 3.1 6.2 6.2zm-6.2-6.2q1.5-1.6 3.1-3.2-1.6-1.5-3.1-3.1-1.6 1.6-3.2 3.1 1.6 1.6 3.2 3.2zm-3.2-3.2q1.6-1.5 3.2-3.1-1.6-1.6-3.2-3.1-1.5 1.5-3.1 3.1 1.6 1.6 3.1 3.1zm-3.1-3.1q1.6-1.6 3.1-3.1-1.5-1.6-3.1-3.1-1.6 1.5-3.1 3.1 1.5 1.5 3.1 3.1zm-3.1-3.1q1.5-1.6 3.1-3.1-1.6-1.6-3.1-3.2-1.6 1.6-3.1 3.2 1.5 1.5 3.1 3.1zm-3.1-3.1q1.5-1.6 3.1-3.2-3.1-3.1-6.3-6.2-1.5 1.5-3.1 3.1 3.1 3.1 6.3 6.3zm-12.5-12.5q3.1 3.1 6.2 6.2 1.6-1.6 3.1-3.1-3.1-3.1-6.2-6.3-3.1-3.1-6.3-6.2-1.5 1.5-3.1 3.1 3.1 3.1 6.3 6.3zm-12.5-12.5q3.1 3.1 6.2 6.2 1.6-1.6 3.1-3.1-3.1-3.1-6.2-6.3-3.1-3.1-6.3-6.2-1.5 1.5-3.1 3.1 3.1 3.1 6.3 6.3zm-12.5-12.5q3.1 3.1 6.2 6.2 1.6-1.6 3.1-3.1-3.1-3.1-6.2-6.3-3.1-3.1-6.3-6.2-1.5 1.5-3.1 3.1 3.1 3.1 6.3 6.3zm-12.5-12.5q3.1 3.1 6.2 6.2 1.6-1.6 3.1-3.1-3.1-3.1-6.2-6.3-3.1-3.1-6.3-6.2-1.5 1.5-3.1 3.1 3.1 3.1 6.3 6.3zm-12.5-12.5q3.1 3.1 6.2 6.2 1.6-1.6 3.1-3.1-3.1-3.1-6.2-6.3-3.1-3.1-6.3-6.2-1.5 1.5-3.1 3.1 3.1 3.1 6.3 6.3zm-12.5-12.5q3.1 3.1 6.2 6.2 1.6-1.6 3.1-3.1-3.1-3.1-6.2-6.3-3.1-3.1-6.3-6.2-1.5 1.5-3.1 3.1 3.1 3.1 6.3 6.3zm-12.5-12.5q3.1 3.1 6.2 6.2 1.6-1.6 3.1-3.1-3.1-3.1-6.2-6.3-3.1-3.1-6.3-6.2-1.5 1.5-3.1 3.1 3.1 3.1 6.3 6.3zm190.6 184.3q3.1 3.2 6.2 6.3 1.6-1.6 3.2-3.1-3.2-3.2-6.3-6.3-3.1-3.1-6.2-6.2-1.6 1.5-3.2 3.1 3.2 3.1 6.3 6.2zm-12.5-12.5q3.1 3.2 6.2 6.3 1.6-1.6 3.2-3.1-3.2-3.2-6.3-6.3-3.1-3.1-6.2-6.2-1.6 1.5-3.2 3.1 3.2 3.1 6.3 6.2zm-12.5-12.5q3.1 3.2 6.2 6.3 1.6-1.6 3.2-3.1-3.2-3.2-6.3-6.3-3.1-3.1-6.2-6.2-1.6 1.5-3.2 3.1 3.2 3.1 6.3 6.2zm-12.5-12.5q3.1 3.2 6.2 6.3 1.6-1.6 3.2-3.1-3.2-3.2-6.3-6.3-3.1-3.1-6.2-6.2-1.6 1.5-3.2 3.1 3.2 3.1 6.3 6.2zm-12.5-12.5q3.1 3.2 6.2 6.3 1.6-1.6 3.2-3.1-3.2-3.2-6.3-6.3-3.1-3.1-6.2-6.2-1.6 1.5-3.2 3.1 3.2 3.1 6.3 6.2zm-12.5-12.5q3.1 3.2 6.2 6.3 1.6-1.6 3.2-3.1-3.2-3.2-6.3-6.3-3.1-3.1-6.2-6.2-1.6 1.5-3.2 3.1 3.2 3.1 6.3 6.2zm-12.5-12.5q3.1 3.2 6.2 6.3 1.6-1.6 3.2-3.1-3.2-3.2-6.3-6.3-3.1-3.1-6.2-6.2-1.6 1.5-3.2 3.1 3.2 3.1 6.3 6.2zm-6.3-6.2q1.6-1.6 3.2-3.1-3.2-3.2-6.3-6.3-1.6 1.6-3.1 3.1 3.1 3.2 6.2 6.3zm-6.2-6.3q1.5-1.5 3.1-3.1-1.6-1.6-3.1-3.1-1.6 1.5-3.1 3.1 1.5 1.6 3.1 3.1zm-3.1-3.1q1.5-1.6 3.1-3.1-1.6-1.6-3.1-3.1-1.6 1.5-3.2 3.1 1.6 1.5 3.2 3.1zm-3.2-3.1q1.6-1.6 3.2-3.1-1.6-1.6-3.2-3.2-1.5 1.6-3.1 3.2 1.6 1.5 3.1 3.1zm-3.1-3.1q1.6-1.6 3.1-3.2-1.5-1.5-3.1-3.1-1.6 1.6-3.1 3.1 1.5 1.6 3.1 3.2zm-3.1-3.2q1.5-1.5 3.1-3.1-3.1-3.1-6.2-6.2-1.6 1.5-3.2 3.1 3.2 3.1 6.3 6.2zm-12.5-12.5q3.1 3.2 6.2 6.3 1.6-1.6 3.2-3.1-3.2-3.2-6.3-6.3-3.1-3.1-6.2-6.2-1.6 1.5-3.2 3.1 3.2 3.1 6.3 6.2zm-12.5-12.5q3.1 3.2 6.2 6.3 1.6-1.6 3.2-3.1-3.2-3.2-6.3-6.3-3.1-3.1-6.2-6.2-1.6 1.5-3.2 3.1 3.2 3.1 6.3 6.2zm-12.5-12.5q3.1 3.2 6.2 6.3 1.6-1.6 3.2-3.1-3.2-3.2-6.3-6.3-3.1-3.1-6.2-6.2-1.6 1.5-3.2 3.1 3.2 3.1 6.3 6.2zm-12.5-12.5q3.1 3.2 6.2 6.3 1.6-1.6 3.2-3.1-3.2-3.2-6.3-6.3-3.1-3.1-6.2-6.2-1.6 1.5-3.2 3.1 3.2 3.1 6.3 6.2zm-12.5-12.5q3.1 3.2 6.2 6.3 1.6-1.6 3.2-3.1-3.2-3.2-6.3-6.3-3.1-3.1-6.2-6.2-1.6 1.5-3.2 3.1 3.2 3.1 6.3 6.2zm-12.5-12.5q3.1 3.2 6.2 6.3 1.6-1.6 3.2-3.1-3.2-3.2-6.3-6.3-3.1-3.1-6.2-6.2-1.6 1.5-3.2 3.1 3.2 3.1 6.3 6.2zm-12.5-12.5q3.1 3.2 6.2 6.3 1.6-1.6 3.2-3.1-3.2-3.2-6.3-6.3-3.1-3.1-6.2-6.2-1.6 1.5-3.2 3.1 3.2 3.1 6.3 6.2zm190.6 184.4q3.1 3.1 6.3 6.3 3.1-3.2 6.2-6.3-3.1-3.1-6.2-6.2-3.2-3.2-6.3-6.3-3.1 3.1-6.2 6.3 3.1 3.1 6.2 6.2zm-12.5-12.5q3.1 3.1 6.3 6.3 3.1-3.2 6.2-6.3-3.1-3.1-6.2-6.2-3.2-3.2-6.3-6.3-3.1 3.1-6.2 6.3 3.1 3.1 6.2 6.2zm-12.5-12.5q3.1 3.1 6.3 6.3 3.1-3.2 6.2-6.3-3.1-3.1-6.2-6.2-3.2-3.2-6.3-6.3-3.1 3.1-6.2 6.3 3.1 3.1 6.2 6.2zm-12.5-12.5q3.1 3.1 6.3 6.3 3.1-3.2 6.2-6.3-3.1-3.1-6.2-6.2-3.2-3.2-6.3-6.3-3.1 3.1-6.2 6.3 3.1 3.1 6.2 6.2zm-12.5-12.5q3.1 3.1 6.3 6.3 3.1-3.2 6.2-6.3-3.1-3.1-6.2-6.2-3.2-3.2-6.3-6.3-3.1 3.1-6.2 6.3 3.1 3.1 6.2 6.2zm-12.5-12.5q3.1 3.1 6.3 6.3 3.1-3.2 6.2-6.3-3.1-3.1-6.2-6.2-3.2-3.2-6.3-6.3-3.1 3.1-6.2 6.3 3.1 3.1 6.2 6.2zm-12.5-12.5q3.1 3.1 6.3 6.3 3.1-3.2 6.2-6.3-3.1-3.1-6.2-6.2-3.2-3.2-6.3-6.3-3.1 3.1-6.2 6.3 3.1 3.1 6.2 6.2zm-6.2-6.2q3.1-3.2 6.2-6.3-3.1-3.1-6.2-6.2-3.2 3.1-6.3 6.2 3.1 3.1 6.3 6.3zm-6.3-6.3q3.1-3.1 6.3-6.2-1.6-1.6-3.2-3.2-3.1 3.2-6.2 6.3 1.5 1.5 3.1 3.1zm-3.1-3.1q3.1-3.1 6.2-6.3-1.5-1.5-3.1-3.1-3.1 3.1-6.2 6.3 1.5 1.5 3.1 3.1zm-3.1-3.1q3.1-3.2 6.2-6.3-1.6-1.6-3.1-3.1-3.1 3.1-6.3 6.2 1.6 1.6 3.2 3.2zm-3.2-3.2q3.2-3.1 6.3-6.2-1.6-1.6-3.1-3.1-3.2 3.1-6.3 6.2 1.6 1.6 3.1 3.1zm-3.1-3.1q3.1-3.1 6.3-6.2-3.2-3.2-6.3-6.3-3.1 3.1-6.2 6.3 3.1 3.1 6.2 6.2zm-12.5-12.5q3.1 3.1 6.3 6.3 3.1-3.2 6.2-6.3-3.1-3.1-6.2-6.2-3.2-3.2-6.3-6.3-3.1 3.1-6.2 6.3 3.1 3.1 6.2 6.2zm-12.5-12.5q3.1 3.1 6.3 6.3 3.1-3.2 6.2-6.3-3.1-3.1-6.2-6.2-3.2-3.2-6.3-6.3-3.1 3.1-6.2 6.3 3.1 3.1 6.2 6.2zm-12.5-12.5q3.1 3.1 6.3 6.3 3.1-3.2 6.2-6.3-3.1-3.1-6.2-6.2-3.2-3.2-6.3-6.3-3.1 3.1-6.2 6.3 3.1 3.1 6.2 6.2zm-12.5-12.5q3.1 3.1 6.3 6.3 3.1-3.2 6.2-6.3-3.1-3.1-6.2-6.2-3.2-3.2-6.3-6.3-3.1 3.1-6.2 6.3 3.1 3.1 6.2 6.2zm-12.5-12.5q3.1 3.1 6.3 6.3 3.1-3.2 6.2-6.3-3.1-3.1-6.2-6.2-3.2-3.2-6.3-6.3-3.1 3.1-6.2 6.3 3.1 3.1 6.2 6.2zm-12.5-12.5q3.1 3.1 6.3 6.3 3.1-3.2 6.2-6.3-3.1-3.1-6.2-6.2-3.2-3.2-6.3-6.3-3.1 3.1-6.2 6.3 3.1 3.1 6.2 6.2zm-12.5-12.5q3.1 3.1 6.3 6.3 3.1-3.2 6.2-6.3-3.1-3.1-6.2-6.2-3.2-3.2-6.3-6.3-3.1 3.1-6.2 6.3 3.1 3.1 6.2 6.2zm193.8 181.3q3.1 3.1 6.2 6.2 3.1-3.1 6.3-6.2 3.1-3.2 6.2-6.3-3.1-3.1-6.2-6.2-3.2-3.2-6.3-6.3-3.1 3.1-6.2 6.3-3.2 3.1-6.3 6.2 3.1 3.1 6.3 6.3zm-12.5-12.5q3.1 3.1 6.2 6.2 3.1-3.1 6.3-6.2 3.1-3.2 6.2-6.3-3.1-3.1-6.2-6.2-3.2-3.2-6.3-6.3-3.1 3.1-6.2 6.3-3.2 3.1-6.3 6.2 3.1 3.1 6.3 6.3zm-12.5-12.5q3.1 3.1 6.2 6.2 3.1-3.1 6.3-6.2 3.1-3.2 6.2-6.3-3.1-3.1-6.2-6.2-3.2-3.2-6.3-6.3-3.1 3.1-6.2 6.3-3.2 3.1-6.3 6.2 3.1 3.1 6.3 6.3zm-12.5-12.5q3.1 3.1 6.2 6.2 3.1-3.1 6.3-6.2 3.1-3.2 6.2-6.3-3.1-3.1-6.2-6.2-3.2-3.2-6.3-6.3-3.1 3.1-6.2 6.3-3.2 3.1-6.3 6.2 3.1 3.1 6.3 6.3zm-12.5-12.5q3.1 3.1 6.2 6.2 3.1-3.1 6.3-6.2 3.1-3.2 6.2-6.3-3.1-3.1-6.2-6.2-3.2-3.2-6.3-6.3-3.1 3.1-6.2 6.3-3.2 3.1-6.3 6.2 3.1 3.1 6.3 6.3zm-12.5-12.5q3.1 3.1 6.2 6.2 3.1-3.1 6.3-6.2 3.1-3.2 6.2-6.3-3.1-3.1-6.2-6.2-3.2-3.2-6.3-6.3-3.1 3.1-6.2 6.3-3.2 3.1-6.3 6.2 3.1 3.1 6.3 6.3zm-12.5-12.5q3.1 3.1 6.2 6.2 3.1-3.1 6.3-6.2 3.1-3.2 6.2-6.3-3.1-3.1-6.2-6.2-3.2-3.2-6.3-6.3-3.1 3.1-6.2 6.3-3.2 3.1-6.3 6.2 3.1 3.1 6.3 6.3zm-6.3-6.3q3.1-3.1 6.3-6.2 3.1-3.2 6.2-6.3-3.1-3.1-6.2-6.2-3.2 3.1-6.3 6.2-3.1 3.1-6.2 6.3 3.1 3.1 6.2 6.2zm-6.2-6.2q3.1-3.2 6.2-6.3 3.1-3.1 6.3-6.2-1.6-1.6-3.2-3.2-3.1 3.2-6.2 6.3-3.1 3.1-6.3 6.2 1.6 1.6 3.2 3.2zm-3.2-3.2q3.2-3.1 6.3-6.2 3.1-3.1 6.2-6.3-1.5-1.5-3.1-3.1-3.1 3.1-6.2 6.3-3.2 3.1-6.3 6.2 1.6 1.6 3.1 3.1zm-3.1-3.1q3.1-3.1 6.3-6.2 3.1-3.2 6.2-6.3-1.6-1.6-3.1-3.1-3.1 3.1-6.3 6.2-3.1 3.2-6.2 6.3 1.5 1.5 3.1 3.1zm-3.1-3.1q3.1-3.1 6.2-6.3 3.2-3.1 6.3-6.2-1.6-1.6-3.1-3.1-3.2 3.1-6.3 6.2-3.1 3.1-6.2 6.3 1.5 1.5 3.1 3.1zm-3.1-3.1q3.1-3.2 6.2-6.3 3.1-3.1 6.3-6.2-3.2-3.2-6.3-6.3-3.1 3.1-6.2 6.3-3.2 3.1-6.3 6.2 3.1 3.1 6.3 6.3zm-12.5-12.5q3.1 3.1 6.2 6.2 3.1-3.1 6.3-6.2 3.1-3.2 6.2-6.3-3.1-3.1-6.2-6.2-3.2-3.2-6.3-6.3-3.1 3.1-6.2 6.3-3.2 3.1-6.3 6.2 3.1 3.1 6.3 6.3zm-12.5-12.5q3.1 3.1 6.2 6.2 3.1-3.1 6.3-6.2 3.1-3.2 6.2-6.3-3.1-3.1-6.2-6.2-3.2-3.2-6.3-6.3-3.1 3.1-6.2 6.3-3.2 3.1-6.3 6.2 3.1 3.1 6.3 6.3zm-12.5-12.5q3.1 3.1 6.2 6.2 3.1-3.1 6.3-6.2 3.1-3.2 6.2-6.3-3.1-3.1-6.2-6.2-3.2-3.2-6.3-6.3-3.1 3.1-6.2 6.3-3.2 3.1-6.3 6.2 3.1 3.1 6.3 6.3zm-12.5-12.5q3.1 3.1 6.2 6.2 3.1-3.1 6.3-6.2 3.1-3.2 6.2-6.3-3.1-3.1-6.2-6.2-3.2-3.2-6.3-6.3-3.1 3.1-6.2 6.3-3.2 3.1-6.3 6.2 3.1 3.1 6.3 6.3zm-12.5-12.5q3.1 3.1 6.2 6.2 3.1-3.1 6.3-6.2 3.1-3.2 6.2-6.3-3.1-3.1-6.2-6.2-3.2-3.2-6.3-6.3-3.1 3.1-6.2 6.3-3.2 3.1-6.3 6.2 3.1 3.1 6.3 6.3zm-12.5-12.5q3.1 3.1 6.2 6.2 3.1-3.1 6.3-6.2 3.1-3.2 6.2-6.3-3.1-3.1-6.2-6.2-3.2-3.2-6.3-6.3-3.1 3.1-6.2 6.3-3.2 3.1-6.3 6.2 3.1 3.1 6.3 6.3zm-12.5-12.5q3.1 3.1 6.2 6.2 3.1-3.1 6.3-6.2 3.1-3.2 6.2-6.3-3.1-3.1-6.2-6.2-3.2-3.2-6.3-6.3-3.1 3.1-6.2 6.3-3.2 3.1-6.3 6.2 3.1 3.1 6.3 6.3zm200 175q3.1 3.1 6.2 6.2 3.1-3.1 6.3-6.2 3.1-3.2 6.2-6.3-3.1-3.1-6.2-6.2-3.2-3.2-6.3-6.3-3.1 3.1-6.2 6.3-3.2 3.1-6.3 6.2 3.1 3.1 6.3 6.3zm-12.5-12.5q3.1 3.1 6.2 6.2 3.1-3.1 6.3-6.2 3.1-3.2 6.2-6.3-3.1-3.1-6.2-6.2-3.2-3.2-6.3-6.3-3.1 3.1-6.2 6.3-3.2 3.1-6.3 6.2 3.1 3.1 6.3 6.3zm-12.5-12.5q3.1 3.1 6.2 6.2 3.1-3.1 6.3-6.2 3.1-3.2 6.2-6.3-3.1-3.1-6.2-6.2-3.2-3.2-6.3-6.3-3.1 3.1-6.2 6.3-3.2 3.1-6.3 6.2 3.1 3.1 6.3 6.3zm-12.5-12.5q3.1 3.1 6.2 6.2 3.1-3.1 6.3-6.2 3.1-3.2 6.2-6.3-3.1-3.1-6.2-6.2-3.2-3.2-6.3-6.3-3.1 3.1-6.2 6.3-3.2 3.1-6.3 6.2 3.1 3.1 6.3 6.3zm-12.5-12.5q3.1 3.1 6.2 6.2 3.1-3.1 6.3-6.2 3.1-3.2 6.2-6.3-3.1-3.1-6.2-6.2-3.2-3.2-6.3-6.3-3.1 3.1-6.2 6.3-3.2 3.1-6.3 6.2 3.1 3.1 6.3 6.3zm-12.5-12.5q3.1 3.1 6.2 6.2 3.1-3.1 6.3-6.2 3.1-3.2 6.2-6.3-3.1-3.1-6.2-6.2-3.2-3.2-6.3-6.3-3.1 3.1-6.2 6.3-3.2 3.1-6.3 6.2 3.1 3.1 6.3 6.3zm-12.5-12.5q3.1 3.1 6.2 6.2 3.1-3.1 6.3-6.2 3.1-3.2 6.2-6.3-3.1-3.1-6.2-6.2-3.2-3.2-6.3-6.3-3.1 3.1-6.2 6.3-3.2 3.1-6.3 6.2 3.1 3.1 6.3 6.3zm-6.3-6.3q3.1-3.1 6.3-6.2 3.1-3.2 6.2-6.3-3.1-3.1-6.2-6.2-3.2 3.1-6.3 6.2-3.1 3.1-6.2 6.3 3.1 3.1 6.2 6.2zm-6.2-6.2q3.1-3.2 6.2-6.3 3.1-3.1 6.3-6.2-1.6-1.6-3.2-3.2-3.1 3.2-6.2 6.3-3.1 3.1-6.3 6.2 1.6 1.6 3.2 3.2zm-3.2-3.2q3.2-3.1 6.3-6.2 3.1-3.1 6.2-6.3-1.5-1.5-3.1-3.1-3.1 3.1-6.2 6.3-3.2 3.1-6.3 6.2 1.6 1.6 3.1 3.1zm-3.1-3.1q3.1-3.1 6.3-6.2 3.1-3.2 6.2-6.3-1.6-1.6-3.1-3.1-3.1 3.1-6.3 6.2-3.1 3.2-6.2 6.3 1.5 1.5 3.1 3.1zm-3.1-3.1q3.1-3.1 6.2-6.3 3.2-3.1 6.3-6.2-1.6-1.6-3.1-3.1-3.2 3.1-6.3 6.2-3.1 3.1-6.2 6.3 1.5 1.5 3.1 3.1zm-3.1-3.1q3.1-3.2 6.2-6.3 3.1-3.1 6.3-6.2-3.2-3.2-6.3-6.3-3.1 3.1-6.2 6.3-3.2 3.1-6.3 6.2 3.1 3.1 6.3 6.3zm-12.5-12.5q3.1 3.1 6.2 6.2 3.1-3.1 6.3-6.2 3.1-3.2 6.2-6.3-3.1-3.1-6.2-6.2-3.2-3.2-6.3-6.3-3.1 3.1-6.2 6.3-3.2 3.1-6.3 6.2 3.1 3.1 6.3 6.3zm-12.5-12.5q3.1 3.1 6.2 6.2 3.1-3.1 6.3-6.2 3.1-3.2 6.2-6.3-3.1-3.1-6.2-6.2-3.2-3.2-6.3-6.3-3.1 3.1-6.2 6.3-3.2 3.1-6.3 6.2 3.1 3.1 6.3 6.3zm-12.5-12.5q3.1 3.1 6.2 6.2 3.1-3.1 6.3-6.2 3.1-3.2 6.2-6.3-3.1-3.1-6.2-6.2-3.2-3.2-6.3-6.3-3.1 3.1-6.2 6.3-3.2 3.1-6.3 6.2 3.1 3.1 6.3 6.3zm-12.5-12.5q3.1 3.1 6.2 6.2 3.1-3.1 6.3-6.2 3.1-3.2 6.2-6.3-3.1-3.1-6.2-6.2-3.2-3.2-6.3-6.3-3.1 3.1-6.2 6.3-3.2 3.1-6.3 6.2 3.1 3.1 6.3 6.3zm-12.5-12.5q3.1 3.1 6.2 6.2 3.1-3.1 6.3-6.2 3.1-3.2 6.2-6.3-3.1-3.1-6.2-6.2-3.2-3.2-6.3-6.3-3.1 3.1-6.2 6.3-3.2 3.1-6.3 6.2 3.1 3.1 6.3 6.3zm-12.5-12.5q3.1 3.1 6.2 6.2 3.1-3.1 6.3-6.2 3.1-3.2 6.2-6.3-3.1-3.1-6.2-6.2-3.2-3.2-6.3-6.3-3.1 3.1-6.2 6.3-3.2 3.1-6.3 6.2 3.1 3.1 6.3 6.3zm-12.5-12.5q3.1 3.1 6.2 6.2 3.1-3.1 6.3-6.2 3.1-3.2 6.2-6.3-3.1-3.1-6.2-6.2-3.2-3.2-6.3-6.3-3.1 3.1-6.2 6.3-3.2 3.1-6.3 6.2 3.1 3.1 6.3 6.3zm200 175q3.1 3.1 6.2 6.2 3.1-3.1 6.3-6.2 3.1-3.2 6.2-6.3-3.1-3.1-6.2-6.2-3.2-3.2-6.3-6.3-3.1 3.1-6.2 6.3-3.2 3.1-6.3 6.2 3.1 3.1 6.3 6.3zm-12.5-12.5q3.1 3.1 6.2 6.2 3.1-3.1 6.3-6.2 3.1-3.2 6.2-6.3-3.1-3.1-6.2-6.2-3.2-3.2-6.3-6.3-3.1 3.1-6.2 6.3-3.2 3.1-6.3 6.2 3.1 3.1 6.3 6.3zm-12.5-12.5q3.1 3.1 6.2 6.2 3.1-3.1 6.3-6.2 3.1-3.2 6.2-6.3-3.1-3.1-6.2-6.2-3.2-3.2-6.3-6.3-3.1 3.1-6.2 6.3-3.2 3.1-6.3 6.2 3.1 3.1 6.3 6.3zm-12.5-12.5q3.1 3.1 6.2 6.2 3.1-3.1 6.3-6.2 3.1-3.2 6.2-6.3-3.1-3.1-6.2-6.2-3.2-3.2-6.3-6.3-3.1 3.1-6.2 6.3-3.2 3.1-6.3 6.2 3.1 3.1 6.3 6.3zm-12.5-12.5q3.1 3.1 6.2 6.2 3.1-3.1 6.3-6.2 3.1-3.2 6.2-6.3-3.1-3.1-6.2-6.2-3.2-3.2-6.3-6.3-3.1 3.1-6.2 6.3-3.2 3.1-6.3 6.2 3.1 3.1 6.3 6.3zm-12.5-12.5q3.1 3.1 6.2 6.2 3.1-3.1 6.3-6.2 3.1-3.2 6.2-6.3-3.1-3.1-6.2-6.2-3.2-3.2-6.3-6.3-3.1 3.1-6.2 6.3-3.2 3.1-6.3 6.2 3.1 3.1 6.3 6.3zm-12.5-12.5q3.1 3.1 6.2 6.2 3.1-3.1 6.3-6.2 3.1-3.2 6.2-6.3-3.1-3.1-6.2-6.2-3.2-3.2-6.3-6.3-3.1 3.1-6.2 6.3-3.2 3.1-6.3 6.2 3.1 3.1 6.3 6.3zm-6.3-6.3q3.1-3.1 6.3-6.2 3.1-3.2 6.2-6.3-3.1-3.1-6.2-6.2-3.2 3.1-6.3 6.2-3.1 3.1-6.2 6.3 3.1 3.1 6.2 6.2zm-6.2-6.2q3.1-3.2 6.2-6.3 3.1-3.1 6.3-6.2-1.6-1.6-3.2-3.2-3.1 3.2-6.2 6.3-3.1 3.1-6.3 6.2 1.6 1.6 3.2 3.2zm-3.2-3.2q3.2-3.1 6.3-6.2 3.1-3.1 6.2-6.3-1.5-1.5-3.1-3.1-3.1 3.1-6.2 6.3-3.2 3.1-6.3 6.2 1.6 1.6 3.1 3.1zm-3.1-3.1q3.1-3.1 6.3-6.2 3.1-3.2 6.2-6.3-1.6-1.6-3.1-3.1-3.1 3.1-6.3 6.2-3.1 3.2-6.2 6.3 1.5 1.5 3.1 3.1zm-3.1-3.1q3.1-3.1 6.2-6.3 3.2-3.1 6.3-6.2-1.6-1.6-3.1-3.1-3.2 3.1-6.3 6.2-3.1 3.1-6.2 6.3 1.5 1.5 3.1 3.1zm-3.1-3.1q3.1-3.2 6.2-6.3 3.1-3.1 6.3-6.2-3.2-3.2-6.3-6.3-3.1 3.1-6.2 6.3-3.2 3.1-6.3 6.2 3.1 3.1 6.3 6.3zm-12.5-12.5q3.1 3.1 6.2 6.2 3.1-3.1 6.3-6.2 3.1-3.2 6.2-6.3-3.1-3.1-6.2-6.2-3.2-3.2-6.3-6.3-3.1 3.1-6.2 6.3-3.2 3.1-6.3 6.2 3.1 3.1 6.3 6.3zm-12.5-12.5q3.1 3.1 6.2 6.2 3.1-3.1 6.3-6.2 3.1-3.2 6.2-6.3-3.1-3.1-6.2-6.2-3.2-3.2-6.3-6.3-3.1 3.1-6.2 6.3-3.2 3.1-6.3 6.2 3.1 3.1 6.3 6.3zm-12.5-12.5q3.1 3.1 6.2 6.2 3.1-3.1 6.3-6.2 3.1-3.2 6.2-6.3-3.1-3.1-6.2-6.2-3.2-3.2-6.3-6.3-3.1 3.1-6.2 6.3-3.2 3.1-6.3 6.2 3.1 3.1 6.3 6.3zm-12.5-12.5q3.1 3.1 6.2 6.2 3.1-3.1 6.3-6.2 3.1-3.2 6.2-6.3-3.1-3.1-6.2-6.2-3.2-3.2-6.3-6.3-3.1 3.1-6.2 6.3-3.2 3.1-6.3 6.2 3.1 3.1 6.3 6.3zm-12.5-12.5q3.1 3.1 6.2 6.2 3.1-3.1 6.3-6.2 3.1-3.2 6.2-6.3-3.1-3.1-6.2-6.2-3.2-3.2-6.3-6.3-3.1 3.1-6.2 6.3-3.2 3.1-6.3 6.2 3.1 3.1 6.3 6.3zm-12.5-12.5q3.1 3.1 6.2 6.2 3.1-3.1 6.3-6.2 3.1-3.2 6.2-6.3-3.1-3.1-6.2-6.2-3.2-3.2-6.3-6.3-3.1 3.1-6.2 6.3-3.2 3.1-6.3 6.2 3.1 3.1 6.3 6.3zm-12.5-12.5q3.1 3.1 6.2 6.2 3.1-3.1 6.3-6.2 3.1-3.2 6.2-6.3-3.1-3.1-6.2-6.2-3.2-3.2-6.3-6.3-3.1 3.1-6.2 6.3-3.2 3.1-6.3 6.2 3.1 3.1 6.3 6.3zm200 175q3.1 3.1 6.2 6.2 3.1-3.1 6.3-6.2 3.1-3.2 6.2-6.3-3.1-3.1-6.2-6.2-3.2-3.2-6.3-6.3-3.1 3.1-6.2 6.3-3.2 3.1-6.3 6.2 3.1 3.1 6.3 6.3zm-12.5-12.5q3.1 3.1 6.2 6.2 3.1-3.1 6.3-6.2 3.1-3.2 6.2-6.3-3.1-3.1-6.2-6.2-3.2-3.2-6.3-6.3-3.1 3.1-6.2 6.3-3.2 3.1-6.3 6.2 3.1 3.1 6.3 6.3zm-12.5-12.5q3.1 3.1 6.2 6.2 3.1-3.1 6.3-6.2 3.1-3.2 6.2-6.3-3.1-3.1-6.2-6.2-3.2-3.2-6.3-6.3-3.1 3.1-6.2 6.3-3.2 3.1-6.3 6.2 3.1 3.1 6.3 6.3zm-12.5-12.5q3.1 3.1 6.2 6.2 3.1-3.1 6.3-6.2 3.1-3.2 6.2-6.3-3.1-3.1-6.2-6.2-3.2-3.2-6.3-6.3-3.1 3.1-6.2 6.3-3.2 3.1-6.3 6.2 3.1 3.1 6.3 6.3zm-12.5-12.5q3.1 3.1 6.2 6.2 3.1-3.1 6.3-6.2 3.1-3.2 6.2-6.3-3.1-3.1-6.2-6.2-3.2-3.2-6.3-6.3-3.1 3.1-6.2 6.3-3.2 3.1-6.3 6.2 3.1 3.1 6.3 6.3zm-12.5-12.5q3.1 3.1 6.2 6.2 3.1-3.1 6.3-6.2 3.1-3.2 6.2-6.3-3.1-3.1-6.2-6.2-3.2-3.2-6.3-6.3-3.1 3.1-6.2 6.3-3.2 3.1-6.3 6.2 3.1 3.1 6.3 6.3zm-12.5-12.5q3.1 3.1 6.2 6.2 3.1-3.1 6.3-6.2 3.1-3.2 6.2-6.3-3.1-3.1-6.2-6.2-3.2-3.2-6.3-6.3-3.1 3.1-6.2 6.3-3.2 3.1-6.3 6.2 3.1 3.1 6.3 6.3zm-6.3-6.3q3.1-3.1 6.3-6.2 3.1-3.2 6.2-6.3-3.1-3.1-6.2-6.2-3.2 3.1-6.3 6.2-3.1 3.1-6.2 6.3 3.1 3.1 6.2 6.2zm-6.2-6.2q3.1-3.2 6.2-6.3 3.1-3.1 6.3-6.2-1.6-1.6-3.2-3.2-3.1 3.2-6.2 6.3-3.1 3.1-6.3 6.2 1.6 1.6 3.2 3.2zm-3.2-3.2q3.2-3.1 6.3-6.2 3.1-3.1 6.2-6.3-1.5-1.5-3.1-3.1-3.1 3.1-6.2 6.3-3.2 3.1-6.3 6.2 1.6 1.6 3.1 3.1zm-3.1-3.1q3.1-3.1 6.3-6.2 3.1-3.2 6.2-6.3-1.6-1.6-3.1-3.1-3.1 3.1-6.3 6.2-3.1 3.2-6.2 6.3 1.5 1.5 3.1 3.1zm-3.1-3.1q3.1-3.1 6.2-6.3 3.2-3.1 6.3-6.2-1.6-1.6-3.1-3.1-3.2 3.1-6.3 6.2-3.1 3.1-6.2 6.3 1.5 1.5 3.1 3.1zm-3.1-3.1q3.1-3.2 6.2-6.3 3.1-3.1 6.3-6.2-3.2-3.2-6.3-6.3-3.1 3.1-6.2 6.3-3.2 3.1-6.3 6.2 3.1 3.1 6.3 6.3zm-12.5-12.5q3.1 3.1 6.2 6.2 3.1-3.1 6.3-6.2 3.1-3.2 6.2-6.3-3.1-3.1-6.2-6.2-3.2-3.2-6.3-6.3-3.1 3.1-6.2 6.3-3.2 3.1-6.3 6.2 3.1 3.1 6.3 6.3zm-12.5-12.5q3.1 3.1 6.2 6.2 3.1-3.1 6.3-6.2 3.1-3.2 6.2-6.3-3.1-3.1-6.2-6.2-3.2-3.2-6.3-6.3-3.1 3.1-6.2 6.3-3.2 3.1-6.3 6.2 3.1 3.1 6.3 6.3zm-12.5-12.5q3.1 3.1 6.2 6.2 3.1-3.1 6.3-6.2 3.1-3.2 6.2-6.3-3.1-3.1-6.2-6.2-3.2-3.2-6.3-6.3-3.1 3.1-6.2 6.3-3.2 3.1-6.3 6.2 3.1 3.1 6.3 6.3zm-12.5-12.5q3.1 3.1 6.2 6.2 3.1-3.1 6.3-6.2 3.1-3.2 6.2-6.3-3.1-3.1-6.2-6.2-3.2-3.2-6.3-6.3-3.1 3.1-6.2 6.3-3.2 3.1-6.3 6.2 3.1 3.1 6.3 6.3zm-12.5-12.5q3.1 3.1 6.2 6.2 3.1-3.1 6.3-6.2 3.1-3.2 6.2-6.3-3.1-3.1-6.2-6.2-3.2-3.2-6.3-6.3-3.1 3.1-6.2 6.3-3.2 3.1-6.3 6.2 3.1 3.1 6.3 6.3zm-12.5-12.5q3.1 3.1 6.2 6.2 3.1-3.1 6.3-6.2 3.1-3.2 6.2-6.3-3.1-3.1-6.2-6.2-3.2-3.2-6.3-6.3-3.1 3.1-6.2 6.3-3.2 3.1-6.3 6.2 3.1 3.1 6.3 6.3zm-12.5-12.5q3.1 3.1 6.2 6.2 3.1-3.1 6.3-6.2 3.1-3.2 6.2-6.3-3.1-3.1-6.2-6.2-3.2-3.2-6.3-6.3-3.1 3.1-6.2 6.3-3.2 3.1-6.3 6.2 3.1 3.1 6.3 6.3zm200 175q3.1 3.1 6.2 6.2 3.1-3.1 6.3-6.2 3.1-3.2 6.2-6.3-3.1-3.1-6.2-6.2-3.2-3.2-6.3-6.3-3.1 3.1-6.2 6.3-3.2 3.1-6.3 6.2 3.1 3.1 6.3 6.3zm-12.5-12.5q3.1 3.1 6.2 6.2 3.1-3.1 6.3-6.2 3.1-3.2 6.2-6.3-3.1-3.1-6.2-6.2-3.2-3.2-6.3-6.3-3.1 3.1-6.2 6.3-3.2 3.1-6.3 6.2 3.1 3.1 6.3 6.3zm-12.5-12.5q3.1 3.1 6.2 6.2 3.1-3.1 6.3-6.2 3.1-3.2 6.2-6.3-3.1-3.1-6.2-6.2-3.2-3.2-6.3-6.3-3.1 3.1-6.2 6.3-3.2 3.1-6.3 6.2 3.1 3.1 6.3 6.3zm-12.5-12.5q3.1 3.1 6.2 6.2 3.1-3.1 6.3-6.2 3.1-3.2 6.2-6.3-3.1-3.1-6.2-6.2-3.2-3.2-6.3-6.3-3.1 3.1-6.2 6.3-3.2 3.1-6.3 6.2 3.1 3.1 6.3 6.3zm-12.5-12.5q3.1 3.1 6.2 6.2 3.1-3.1 6.3-6.2 3.1-3.2 6.2-6.3-3.1-3.1-6.2-6.2-3.2-3.2-6.3-6.3-3.1 3.1-6.2 6.3-3.2 3.1-6.3 6.2 3.1 3.1 6.3 6.3zm-12.5-12.5q3.1 3.1 6.2 6.2 3.1-3.1 6.3-6.2 3.1-3.2 6.2-6.3-3.1-3.1-6.2-6.2-3.2-3.2-6.3-6.3-3.1 3.1-6.2 6.3-3.2 3.1-6.3 6.2 3.1 3.1 6.3 6.3zm-12.5-12.5q3.1 3.1 6.2 6.2 3.1-3.1 6.3-6.2 3.1-3.2 6.2-6.3-3.1-3.1-6.2-6.2-3.2-3.2-6.3-6.3-3.1 3.1-6.2 6.3-3.2 3.1-6.3 6.2 3.1 3.1 6.3 6.3zm-6.3-6.3q3.1-3.1 6.3-6.2 3.1-3.2 6.2-6.3-3.1-3.1-6.2-6.2-3.2 3.1-6.3 6.2-3.1 3.1-6.2 6.3 3.1 3.1 6.2 6.2zm-6.2-6.2q3.1-3.2 6.2-6.3 3.1-3.1 6.3-6.2-1.6-1.6-3.2-3.2-3.1 3.2-6.2 6.3-3.1 3.1-6.3 6.2 1.6 1.6 3.2 3.2zm-3.2-3.2q3.2-3.1 6.3-6.2 3.1-3.1 6.2-6.3-1.5-1.5-3.1-3.1-3.1 3.1-6.2 6.3-3.2 3.1-6.3 6.2 1.6 1.6 3.1 3.1zm-3.1-3.1q3.1-3.1 6.3-6.2 3.1-3.2 6.2-6.3-1.6-1.6-3.1-3.1-3.1 3.1-6.3 6.2-3.1 3.2-6.2 6.3 1.5 1.5 3.1 3.1zm-3.1-3.1q3.1-3.1 6.2-6.3 3.2-3.1 6.3-6.2-1.6-1.6-3.1-3.1-3.2 3.1-6.3 6.2-3.1 3.1-6.2 6.3 1.5 1.5 3.1 3.1zm-3.1-3.1q3.1-3.2 6.2-6.3 3.1-3.1 6.3-6.2-3.2-3.2-6.3-6.3-3.1 3.1-6.2 6.3-3.2 3.1-6.3 6.2 3.1 3.1 6.3 6.3zm-12.5-12.5q3.1 3.1 6.2 6.2 3.1-3.1 6.3-6.2 3.1-3.2 6.2-6.3-3.1-3.1-6.2-6.2-3.2-3.2-6.3-6.3-3.1 3.1-6.2 6.3-3.2 3.1-6.3 6.2 3.1 3.1 6.3 6.3zm-12.5-12.5q3.1 3.1 6.2 6.2 3.1-3.1 6.3-6.2 3.1-3.2 6.2-6.3-3.1-3.1-6.2-6.2-3.2-3.2-6.3-6.3-3.1 3.1-6.2 6.3-3.2 3.1-6.3 6.2 3.1 3.1 6.3 6.3zm-12.5-12.5q3.1 3.1 6.2 6.2 3.1-3.1 6.3-6.2 3.1-3.2 6.2-6.3-3.1-3.1-6.2-6.2-3.2-3.2-6.3-6.3-3.1 3.1-6.2 6.3-3.2 3.1-6.3 6.2 3.1 3.1 6.3 6.3zm-12.5-12.5q3.1 3.1 6.2 6.2 3.1-3.1 6.3-6.2 3.1-3.2 6.2-6.3-3.1-3.1-6.2-6.2-3.2-3.2-6.3-6.3-3.1 3.1-6.2 6.3-3.2 3.1-6.3 6.2 3.1 3.1 6.3 6.3zm-12.5-12.5q3.1 3.1 6.2 6.2 3.1-3.1 6.3-6.2 3.1-3.2 6.2-6.3-3.1-3.1-6.2-6.2-3.2-3.2-6.3-6.3-3.1 3.1-6.2 6.3-3.2 3.1-6.3 6.2 3.1 3.1 6.3 6.3zm-12.5-12.5q3.1 3.1 6.2 6.2 3.1-3.1 6.3-6.2 3.1-3.2 6.2-6.3-3.1-3.1-6.2-6.2-3.2-3.2-6.3-6.3-3.1 3.1-6.2 6.3-3.2 3.1-6.3 6.2 3.1 3.1 6.3 6.3zm-12.5-12.5q3.1 3.1 6.2 6.2 3.1-3.1 6.3-6.2 3.1-3.2 6.2-6.3-3.1-3.1-6.2-6.2-3.2-3.2-6.3-6.3-3.1 3.1-6.2 6.3-3.2 3.1-6.3 6.2 3.1 3.1 6.3 6.3zm200 175q3.1 3.1 6.2 6.2 3.1-3.1 6.3-6.2 3.1-3.2 6.2-6.3-3.1-3.1-6.2-6.2-3.2-3.2-6.3-6.3-3.1 3.1-6.2 6.3-3.2 3.1-6.3 6.2 3.1 3.1 6.3 6.3zm-12.5-12.5q3.1 3.1 6.2 6.2 3.1-3.1 6.3-6.2 3.1-3.2 6.2-6.3-3.1-3.1-6.2-6.2-3.2-3.2-6.3-6.3-3.1 3.1-6.2 6.3-3.2 3.1-6.3 6.2 3.1 3.1 6.3 6.3zm-12.5-12.5q3.1 3.1 6.2 6.2 3.1-3.1 6.3-6.2 3.1-3.2 6.2-6.3-3.1-3.1-6.2-6.2-3.2-3.2-6.3-6.3-3.1 3.1-6.2 6.3-3.2 3.1-6.3 6.2 3.1 3.1 6.3 6.3zm-12.5-12.5q3.1 3.1 6.2 6.2 3.1-3.1 6.3-6.2 3.1-3.2 6.2-6.3-3.1-3.1-6.2-6.2-3.2-3.2-6.3-6.3-3.1 3.1-6.2 6.3-3.2 3.1-6.3 6.2 3.1 3.1 6.3 6.3zm-12.5-12.5q3.1 3.1 6.2 6.2 3.1-3.1 6.3-6.2 3.1-3.2 6.2-6.3-3.1-3.1-6.2-6.2-3.2-3.2-6.3-6.3-3.1 3.1-6.2 6.3-3.2 3.1-6.3 6.2 3.1 3.1 6.3 6.3zm-12.5-12.5q3.1 3.1 6.2 6.2 3.1-3.1 6.3-6.2 3.1-3.2 6.2-6.3-3.1-3.1-6.2-6.2-3.2-3.2-6.3-6.3-3.1 3.1-6.2 6.3-3.2 3.1-6.3 6.2 3.1 3.1 6.3 6.3zm-12.5-12.5q3.1 3.1 6.2 6.2 3.1-3.1 6.3-6.2 3.1-3.2 6.2-6.3-3.1-3.1-6.2-6.2-3.2-3.2-6.3-6.3-3.1 3.1-6.2 6.3-3.2 3.1-6.3 6.2 3.1 3.1 6.3 6.3zm-6.3-6.3q3.1-3.1 6.3-6.2 3.1-3.2 6.2-6.3-3.1-3.1-6.2-6.2-3.2 3.1-6.3 6.2-3.1 3.1-6.2 6.3 3.1 3.1 6.2 6.2zm-6.2-6.2q3.1-3.2 6.2-6.3 3.1-3.1 6.3-6.2-1.6-1.6-3.2-3.2-3.1 3.2-6.2 6.3-3.1 3.1-6.3 6.2 1.6 1.6 3.2 3.2zm-3.2-3.2q3.2-3.1 6.3-6.2 3.1-3.1 6.2-6.3-1.5-1.5-3.1-3.1-3.1 3.1-6.2 6.3-3.2 3.1-6.3 6.2 1.6 1.6 3.1 3.1zm-3.1-3.1q3.1-3.1 6.3-6.2 3.1-3.2 6.2-6.3-1.6-1.6-3.1-3.1-3.1 3.1-6.3 6.2-3.1 3.2-6.2 6.3 1.5 1.5 3.1 3.1zm-3.1-3.1q3.1-3.1 6.2-6.3 3.2-3.1 6.3-6.2-1.6-1.6-3.1-3.1-3.2 3.1-6.3 6.2-3.1 3.1-6.2 6.3 1.5 1.5 3.1 3.1zm-3.1-3.1q3.1-3.2 6.2-6.3 3.1-3.1 6.3-6.2-3.2-3.2-6.3-6.3-3.1 3.1-6.2 6.3-3.2 3.1-6.3 6.2 3.1 3.1 6.3 6.3zm-12.5-12.5q3.1 3.1 6.2 6.2 3.1-3.1 6.3-6.2 3.1-3.2 6.2-6.3-3.1-3.1-6.2-6.2-3.2-3.2-6.3-6.3-3.1 3.1-6.2 6.3-3.2 3.1-6.3 6.2 3.1 3.1 6.3 6.3zm-12.5-12.5q3.1 3.1 6.2 6.2 3.1-3.1 6.3-6.2 3.1-3.2 6.2-6.3-3.1-3.1-6.2-6.2-3.2-3.2-6.3-6.3-3.1 3.1-6.2 6.3-3.2 3.1-6.3 6.2 3.1 3.1 6.3 6.3zm-12.5-12.5q3.1 3.1 6.2 6.2 3.1-3.1 6.3-6.2 3.1-3.2 6.2-6.3-3.1-3.1-6.2-6.2-3.2-3.2-6.3-6.3-3.1 3.1-6.2 6.3-3.2 3.1-6.3 6.2 3.1 3.1 6.3 6.3zm-12.5-12.5q3.1 3.1 6.2 6.2 3.1-3.1 6.3-6.2 3.1-3.2 6.2-6.3-3.1-3.1-6.2-6.2-3.2-3.2-6.3-6.3-3.1 3.1-6.2 6.3-3.2 3.1-6.3 6.2 3.1 3.1 6.3 6.3zm-12.5-12.5q3.1 3.1 6.2 6.2 3.1-3.1 6.3-6.2 3.1-3.2 6.2-6.3-3.1-3.1-6.2-6.2-3.2-3.2-6.3-6.3-3.1 3.1-6.2 6.3-3.2 3.1-6.3 6.2 3.1 3.1 6.3 6.3zm-12.5-12.5q3.1 3.1 6.2 6.2 3.1-3.1 6.3-6.2 3.1-3.2 6.2-6.3-3.1-3.1-6.2-6.2-3.2-3.2-6.3-6.3-3.1 3.1-6.2 6.3-3.2 3.1-6.3 6.2 3.1 3.1 6.3 6.3zm-12.5-12.5q3.1 3.1 6.2 6.2 3.1-3.1 6.3-6.2 3.1-3.2 6.2-6.3-3.1-3.1-6.2-6.2-3.2-3.2-6.3-6.3-3.1 3.1-6.2 6.3-3.2 3.1-6.3 6.2 3.1 3.1 6.3 6.3zm200 175q3.1 3.1 6.2 6.2 3.1-3.1 6.3-6.2 3.1-3.2 6.2-6.3-3.1-3.1-6.2-6.2-3.2-3.2-6.3-6.3-3.1 3.1-6.2 6.3-3.2 3.1-6.3 6.2 3.1 3.1 6.3 6.3zm-12.5-12.5q3.1 3.1 6.2 6.2 3.1-3.1 6.3-6.2 3.1-3.2 6.2-6.3-3.1-3.1-6.2-6.2-3.2-3.2-6.3-6.3-3.1 3.1-6.2 6.3-3.2 3.1-6.3 6.2 3.1 3.1 6.3 6.3zm-12.5-12.5q3.1 3.1 6.2 6.2 3.1-3.1 6.3-6.2 3.1-3.2 6.2-6.3-3.1-3.1-6.2-6.2-3.2-3.2-6.3-6.3-3.1 3.1-6.2 6.3-3.2 3.1-6.3 6.2 3.1 3.1 6.3 6.3zm-12.5-12.5q3.1 3.1 6.2 6.2 3.1-3.1 6.3-6.2 3.1-3.2 6.2-6.3-3.1-3.1-6.2-6.2-3.2-3.2-6.3-6.3-3.1 3.1-6.2 6.3-3.2 3.1-6.3 6.2 3.1 3.1 6.3 6.3zm-12.5-12.5q3.1 3.1 6.2 6.2 3.1-3.1 6.3-6.2 3.1-3.2 6.2-6.3-3.1-3.1-6.2-6.2-3.2-3.2-6.3-6.3-3.1 3.1-6.2 6.3-3.2 3.1-6.3 6.2 3.1 3.1 6.3 6.3zm-12.5-12.5q3.1 3.1 6.2 6.2 3.1-3.1 6.3-6.2 3.1-3.2 6.2-6.3-3.1-3.1-6.2-6.2-3.2-3.2-6.3-6.3-3.1 3.1-6.2 6.3-3.2 3.1-6.3 6.2 3.1 3.1 6.3 6.3zm-12.5-12.5q3.1 3.1 6.2 6.2 3.1-3.1 6.3-6.2 3.1-3.2 6.2-6.3-3.1-3.1-6.2-6.2-3.2-3.2-6.3-6.3-3.1 3.1-6.2 6.3-3.2 3.1-6.3 6.2 3.1 3.1 6.3 6.3zm-6.3-6.3q3.1-3.1 6.3-6.2 3.1-3.2 6.2-6.3-3.1-3.1-6.2-6.2-3.2 3.1-6.3 6.2-3.1 3.1-6.2 6.3 3.1 3.1 6.2 6.2zm-6.2-6.2q3.1-3.2 6.2-6.3 3.1-3.1 6.3-6.2-1.6-1.6-3.2-3.2-3.1 3.2-6.2 6.3-3.1 3.1-6.3 6.2 1.6 1.6 3.2 3.2zm-3.2-3.2q3.2-3.1 6.3-6.2 3.1-3.1 6.2-6.3-1.5-1.5-3.1-3.1-3.1 3.1-6.2 6.3-3.2 3.1-6.3 6.2 1.6 1.6 3.1 3.1zm-3.1-3.1q3.1-3.1 6.3-6.2 3.1-3.2 6.2-6.3-1.6-1.6-3.1-3.1-3.1 3.1-6.3 6.2-3.1 3.2-6.2 6.3 1.5 1.5 3.1 3.1zm-3.1-3.1q3.1-3.1 6.2-6.3 3.2-3.1 6.3-6.2-1.6-1.6-3.1-3.1-3.2 3.1-6.3 6.2-3.1 3.1-6.2 6.3 1.5 1.5 3.1 3.1zm-3.1-3.1q3.1-3.2 6.2-6.3 3.1-3.1 6.3-6.2-3.2-3.2-6.3-6.3-3.1 3.1-6.2 6.3-3.2 3.1-6.3 6.2 3.1 3.1 6.3 6.3zm-12.5-12.5q3.1 3.1 6.2 6.2 3.1-3.1 6.3-6.2 3.1-3.2 6.2-6.3-3.1-3.1-6.2-6.2-3.2-3.2-6.3-6.3-3.1 3.1-6.2 6.3-3.2 3.1-6.3 6.2 3.1 3.1 6.3 6.3zm-12.5-12.5q3.1 3.1 6.2 6.2 3.1-3.1 6.3-6.2 3.1-3.2 6.2-6.3-3.1-3.1-6.2-6.2-3.2-3.2-6.3-6.3-3.1 3.1-6.2 6.3-3.2 3.1-6.3 6.2 3.1 3.1 6.3 6.3zm-12.5-12.5q3.1 3.1 6.2 6.2 3.1-3.1 6.3-6.2 3.1-3.2 6.2-6.3-3.1-3.1-6.2-6.2-3.2-3.2-6.3-6.3-3.1 3.1-6.2 6.3-3.2 3.1-6.3 6.2 3.1 3.1 6.3 6.3zm-12.5-12.5q3.1 3.1 6.2 6.2 3.1-3.1 6.3-6.2 3.1-3.2 6.2-6.3-3.1-3.1-6.2-6.2-3.2-3.2-6.3-6.3-3.1 3.1-6.2 6.3-3.2 3.1-6.3 6.2 3.1 3.1 6.3 6.3zm-12.5-12.5q3.1 3.1 6.2 6.2 3.1-3.1 6.3-6.2 3.1-3.2 6.2-6.3-3.1-3.1-6.2-6.2-3.2-3.2-6.3-6.3-3.1 3.1-6.2 6.3-3.2 3.1-6.3 6.2 3.1 3.1 6.3 6.3zm-12.5-12.5q3.1 3.1 6.2 6.2 3.1-3.1 6.3-6.2 3.1-3.2 6.2-6.3-3.1-3.1-6.2-6.2-3.2-3.2-6.3-6.3-3.1 3.1-6.2 6.3-3.2 3.1-6.3 6.2 3.1 3.1 6.3 6.3zm-12.5-12.5q3.1 3.1 6.2 6.2 3.1-3.1 6.3-6.2 3.1-3.2 6.2-6.3-3.1-3.1-6.2-6.2-3.2-3.2-6.3-6.3-3.1 3.1-6.2 6.3-3.2 3.1-6.3 6.2 3.1 3.1 6.3 6.3z"/>
			</g>
			<g id="&lt;Group&gt;" style="opacity: .3;mix-blend-mode: screen">
				<path id="&lt;Path&gt;" class="s6" d="m829.5 712.5c0-69.6-56.4-126-126-126-69.6 0-126 56.4-126 126 0 69.6 56.4 126 126 126 69.6 0 126-56.4 126-126z"/>
			</g>
			<g id="&lt;Group&gt;" style="opacity: .1;mix-blend-mode: screen">
				<path id="&lt;Path&gt;" class="s7" d="m827.5 712.5c0-68.5-55.5-124-124-124-68.5 0-124 55.5-124 124 0 68.5 55.5 124 124 124 68.5 0 124-55.5 124-124z"/>
			</g>
			<g id="&lt;Group&gt;" style="opacity: .4;mix-blend-mode: screen">
				<path id="&lt;Path&gt;" class="s8" d="m826 754.5c0-45.3-36.7-82-82-82-45.3 0-82 36.7-82 82 0 45.3 36.7 82 82 82 45.3 0 82-36.7 82-82z"/>
			</g>
			<g id="&lt;Group&gt;" style="mix-blend-mode: screen">
				<path id="&lt;Mesh&gt;" class="s9" d="m751 873.2q3.6-3.5 7.2-7.1-3.3-3.3-6.6-6.6-3.6 3.6-7.1 7.1 3.3 3.3 6.5 6.6zm-6.5-6.6q3.5-3.5 7.1-7.1-3.3-3.3-6.6-6.6-3.6 3.6-7.1 7.1 3.3 3.3 6.6 6.6zm-6.6-6.6q3.5-3.5 7.1-7.1-3.3-3.3-6.6-6.6-3.6 3.6-7.1 7.1 3.3 3.3 6.6 6.6zm-6.6-6.6q3.5-3.5 7.1-7.1-3.3-3.3-6.6-6.6-3.6 3.6-7.1 7.1 3.3 3.3 6.6 6.6zm-6.6-6.6q3.5-3.5 7.1-7.1-3.3-3.3-6.6-6.6-3.6 3.6-7.1 7.1 3.3 3.3 6.6 6.6zm-6.6-6.6q3.5-3.5 7.1-7.1-3.3-3.3-6.6-6.6-3.6 3.6-7.1 7.1 3.3 3.3 6.6 6.6zm-6.6-6.6q3.5-3.5 7.1-7.1-3.3-3.3-6.6-6.6-3.6 3.6-7.1 7.1 3.3 3.3 6.6 6.6zm-6.6-6.6q3.5-3.5 7.1-7.1-1.7-1.7-3.3-3.3-3.6 3.6-7.1 7.1 1.6 1.7 3.3 3.3zm-3.3-3.3q3.5-3.5 7.1-7.1-0.8-0.8-1.7-1.7-3.5 3.6-7.1 7.2 0.8 0.8 1.7 1.6zm-1.7-1.6q3.6-3.6 7.1-7.2-0.8-0.8-1.6-1.6-3.6 3.6-7.1 7.1 0.8 0.9 1.6 1.7zm-1.6-1.7q3.5-3.5 7.1-7.1-0.8-0.8-1.7-1.7-3.5 3.6-7.1 7.2 0.8 0.8 1.7 1.6zm-1.7-1.6q3.6-3.6 7.1-7.2-0.8-0.8-1.6-1.6-3.6 3.6-7.1 7.1 0.8 0.9 1.6 1.7zm-1.6-1.7q3.5-3.5 7.1-7.1-1.7-1.7-3.3-3.3-3.6 3.6-7.1 7.1 1.6 1.7 3.3 3.3zm-3.3-3.3q3.5-3.5 7.1-7.1-3.3-3.3-6.6-6.6-3.6 3.6-7.1 7.1 3.3 3.3 6.6 6.6zm-6.6-6.6q3.5-3.5 7.1-7.1-3.3-3.3-6.6-6.6-3.6 3.6-7.1 7.1 3.3 3.3 6.6 6.6zm-6.6-6.6q3.5-3.5 7.1-7.1-3.3-3.3-6.6-6.6-3.6 3.6-7.1 7.1 3.3 3.3 6.6 6.6zm-6.6-6.6q3.5-3.5 7.1-7.1-3.3-3.3-6.6-6.6-3.6 3.6-7.1 7.1 3.3 3.3 6.6 6.6zm-6.6-6.6q3.5-3.5 7.1-7.1-3.3-3.3-6.6-6.6-3.6 3.6-7.1 7.1 3.3 3.3 6.6 6.6zm-6.6-6.6q3.5-3.5 7.1-7.1-3.3-3.3-6.6-6.6-3.6 3.6-7.1 7.1 3.3 3.3 6.6 6.6zm-6.6-6.6q3.5-3.5 7.1-7.1-3.3-3.3-6.6-6.6-3.6 3.6-7.1 7.1 3.3 3.3 6.6 6.6zm106.1 91.9q3.6-3.6 7.1-7.2-3.3-3.3-6.6-6.6-3.5 3.6-7.1 7.2 3.3 3.3 6.6 6.6zm-6.6-6.6q3.6-3.6 7.1-7.2-3.3-3.3-6.6-6.6-3.5 3.6-7.1 7.2 3.3 3.3 6.6 6.6zm-6.6-6.6q3.6-3.6 7.1-7.2-3.3-3.3-6.6-6.6-3.5 3.6-7.1 7.2 3.3 3.3 6.6 6.6zm-6.6-6.6q3.6-3.6 7.1-7.2-3.3-3.3-6.6-6.6-3.5 3.6-7.1 7.2 3.3 3.3 6.6 6.6zm-6.6-6.6q3.6-3.6 7.1-7.2-3.3-3.3-6.6-6.6-3.5 3.6-7.1 7.2 3.3 3.3 6.6 6.6zm-6.6-6.6q3.6-3.6 7.1-7.2-3.3-3.3-6.6-6.6-3.5 3.6-7.1 7.2 3.3 3.3 6.6 6.6zm-6.6-6.6q3.6-3.6 7.1-7.2-3.3-3.3-6.6-6.6-3.5 3.6-7.1 7.2 3.3 3.3 6.6 6.6zm-6.6-6.6q3.6-3.6 7.1-7.2-1.6-1.6-3.3-3.3-3.5 3.6-7.1 7.2 1.6 1.6 3.3 3.3zm-3.3-3.3q3.6-3.6 7.1-7.2-0.8-0.8-1.6-1.6-3.6 3.6-7.2 7.1 0.9 0.9 1.7 1.7zm-1.7-1.7q3.6-3.5 7.2-7.1-0.8-0.8-1.7-1.7-3.5 3.6-7.1 7.2 0.8 0.8 1.6 1.6zm-1.6-1.6q3.6-3.6 7.1-7.2-0.8-0.8-1.6-1.6-3.6 3.6-7.2 7.1 0.9 0.9 1.7 1.7zm-1.7-1.7q3.6-3.5 7.2-7.1-0.8-0.8-1.7-1.7-3.5 3.6-7.1 7.2 0.8 0.8 1.6 1.6zm-1.6-1.6q3.6-3.6 7.1-7.2-1.6-1.6-3.3-3.3-3.5 3.6-7.1 7.2 1.6 1.6 3.3 3.3zm-3.3-3.3q3.6-3.6 7.1-7.2-3.3-3.3-6.6-6.6-3.5 3.6-7.1 7.2 3.3 3.3 6.6 6.6zm-6.6-6.6q3.6-3.6 7.1-7.2-3.3-3.3-6.6-6.6-3.5 3.6-7.1 7.2 3.3 3.3 6.6 6.6zm-6.6-6.6q3.6-3.6 7.1-7.2-3.3-3.3-6.6-6.6-3.5 3.6-7.1 7.2 3.3 3.3 6.6 6.6zm-6.6-6.6q3.6-3.6 7.1-7.2-3.3-3.3-6.6-6.6-3.5 3.6-7.1 7.2 3.3 3.3 6.6 6.6zm-6.6-6.6q3.6-3.6 7.1-7.2-3.3-3.3-6.6-6.6-3.5 3.6-7.1 7.2 3.3 3.3 6.6 6.6zm-6.6-6.6q3.6-3.6 7.1-7.2-3.3-3.3-6.6-6.6-3.5 3.6-7.1 7.2 3.3 3.3 6.6 6.6zm-6.6-6.6q3.6-3.6 7.1-7.2-3.3-3.3-6.6-6.6-3.5 3.6-7.1 7.2 3.3 3.3 6.6 6.6zm106.1 91.8q3.6-3.5 7.2-7.1-3.3-3.3-6.6-6.6-3.6 3.6-7.2 7.1 3.3 3.3 6.6 6.6zm-6.6-6.6q3.6-3.5 7.2-7.1-3.3-3.3-6.6-6.6-3.6 3.6-7.2 7.1 3.3 3.3 6.6 6.6zm-6.6-6.6q3.6-3.5 7.2-7.1-3.3-3.3-6.6-6.6-3.6 3.6-7.2 7.1 3.3 3.3 6.6 6.6zm-6.6-6.6q3.6-3.5 7.2-7.1-3.3-3.3-6.6-6.6-3.6 3.6-7.2 7.1 3.3 3.3 6.6 6.6zm-6.6-6.6q3.6-3.5 7.2-7.1-3.3-3.3-6.6-6.6-3.6 3.6-7.2 7.1 3.3 3.3 6.6 6.6zm-6.6-6.6q3.6-3.5 7.2-7.1-3.3-3.3-6.6-6.6-3.6 3.6-7.2 7.1 3.3 3.3 6.6 6.6zm-6.6-6.6q3.6-3.5 7.2-7.1-3.3-3.3-6.6-6.6-3.6 3.6-7.2 7.1 3.3 3.3 6.6 6.6zm-6.6-6.6q3.6-3.5 7.2-7.1-1.7-1.7-3.3-3.3-3.6 3.6-7.2 7.1 1.7 1.7 3.3 3.3zm-3.3-3.3q3.6-3.5 7.2-7.1-0.8-0.8-1.7-1.7-3.5 3.6-7.1 7.2 0.8 0.8 1.6 1.6zm-1.6-1.6q3.6-3.6 7.1-7.2-0.8-0.8-1.6-1.6-3.6 3.6-7.2 7.1 0.9 0.9 1.7 1.7zm-1.7-1.7q3.6-3.5 7.2-7.1-0.8-0.8-1.7-1.7-3.5 3.6-7.1 7.2 0.8 0.8 1.6 1.6zm-1.6-1.6q3.6-3.6 7.1-7.2-0.8-0.8-1.6-1.6-3.6 3.6-7.2 7.1 0.9 0.9 1.7 1.7zm-1.7-1.7q3.6-3.5 7.2-7.1-1.7-1.7-3.3-3.3-3.6 3.6-7.2 7.1 1.7 1.7 3.3 3.3zm-3.3-3.3q3.6-3.5 7.2-7.1-3.3-3.3-6.6-6.6-3.6 3.6-7.2 7.1 3.3 3.3 6.6 6.6zm-6.6-6.6q3.6-3.5 7.2-7.1-3.3-3.3-6.6-6.6-3.6 3.6-7.2 7.1 3.3 3.3 6.6 6.6zm-6.6-6.6q3.6-3.5 7.2-7.1-3.3-3.3-6.6-6.6-3.6 3.6-7.2 7.1 3.3 3.3 6.6 6.6zm-6.6-6.6q3.6-3.5 7.2-7.1-3.3-3.3-6.6-6.6-3.6 3.6-7.2 7.1 3.3 3.3 6.6 6.6zm-6.6-6.6q3.6-3.5 7.2-7.1-3.3-3.3-6.6-6.6-3.6 3.6-7.2 7.1 3.3 3.3 6.6 6.6zm-6.6-6.6q3.6-3.5 7.2-7.1-3.3-3.3-6.6-6.6-3.6 3.6-7.2 7.1 3.3 3.3 6.6 6.6zm-6.6-6.6q3.6-3.5 7.2-7.1-3.3-3.3-6.6-6.6-3.6 3.6-7.2 7.1 3.3 3.3 6.6 6.6zm106.2 91.9q3.6-3.6 7.1-7.1-3.3-3.3-6.6-6.6-3.5 3.5-7.1 7.1 3.3 3.3 6.6 6.6zm-6.6-6.6q3.6-3.6 7.1-7.1-3.3-3.3-6.6-6.6-3.5 3.5-7.1 7.1 3.3 3.3 6.6 6.6zm-6.6-6.6q3.6-3.6 7.1-7.1-3.3-3.3-6.6-6.6-3.5 3.5-7.1 7.1 3.3 3.3 6.6 6.6zm-6.6-6.6q3.6-3.6 7.1-7.1-3.3-3.3-6.6-6.6-3.5 3.5-7.1 7.1 3.3 3.3 6.6 6.6zm-6.6-6.6q3.6-3.6 7.1-7.1-3.3-3.3-6.6-6.6-3.5 3.5-7.1 7.1 3.3 3.3 6.6 6.6zm-6.6-6.6q3.6-3.6 7.1-7.1-3.3-3.3-6.6-6.6-3.5 3.5-7.1 7.1 3.3 3.3 6.6 6.6zm-6.6-6.6q3.6-3.6 7.1-7.1-3.3-3.3-6.6-6.6-3.5 3.5-7.1 7.1 3.3 3.3 6.6 6.6zm-6.6-6.6q3.6-3.6 7.1-7.1-1.6-1.7-3.3-3.3-3.5 3.5-7.1 7.1 1.6 1.6 3.3 3.3zm-3.3-3.3q3.6-3.6 7.1-7.1-0.8-0.9-1.6-1.7-3.6 3.6-7.2 7.1 0.9 0.9 1.7 1.7zm-1.7-1.7q3.6-3.5 7.2-7.1-0.8-0.8-1.7-1.6-3.5 3.5-7.1 7.1 0.8 0.8 1.6 1.6zm-1.6-1.6q3.6-3.6 7.1-7.1-0.8-0.9-1.6-1.7-3.6 3.6-7.2 7.1 0.9 0.9 1.7 1.7zm-1.7-1.7q3.6-3.5 7.2-7.1-0.8-0.8-1.7-1.6-3.5 3.5-7.1 7.1 0.8 0.8 1.6 1.6zm-1.6-1.6q3.6-3.6 7.1-7.1-1.6-1.7-3.3-3.3-3.5 3.5-7.1 7.1 1.6 1.6 3.3 3.3zm-3.3-3.3q3.6-3.6 7.1-7.1-3.3-3.3-6.6-6.6-3.5 3.5-7.1 7.1 3.3 3.3 6.6 6.6zm-6.6-6.6q3.6-3.6 7.1-7.1-3.3-3.3-6.6-6.6-3.5 3.5-7.1 7.1 3.3 3.3 6.6 6.6zm-6.6-6.6q3.6-3.6 7.1-7.1-3.3-3.3-6.6-6.6-3.5 3.5-7.1 7.1 3.3 3.3 6.6 6.6zm-6.6-6.6q3.6-3.6 7.1-7.1-3.3-3.3-6.6-6.6-3.5 3.5-7.1 7.1 3.3 3.3 6.6 6.6zm-6.6-6.6q3.6-3.6 7.1-7.1-3.3-3.3-6.6-6.6-3.5 3.5-7.1 7.1 3.3 3.3 6.6 6.6zm-6.6-6.6q3.6-3.6 7.1-7.1-3.3-3.3-6.6-6.6-3.5 3.5-7.1 7.1 3.3 3.3 6.6 6.6zm-6.6-6.6q3.6-3.6 7.1-7.1-3.3-3.3-6.6-6.6-3.5 3.5-7.1 7.1 3.3 3.3 6.6 6.6zm106.1 91.9q3.6-3.6 7.2-7.2-3.3-3.3-6.6-6.6-3.6 3.6-7.2 7.2 3.3 3.3 6.6 6.6zm-6.6-6.6q3.6-3.6 7.2-7.2-3.3-3.3-6.6-6.6-3.6 3.6-7.2 7.2 3.3 3.3 6.6 6.6zm-6.6-6.6q3.6-3.6 7.2-7.2-3.3-3.3-6.6-6.6-3.6 3.6-7.2 7.2 3.3 3.3 6.6 6.6zm-6.6-6.6q3.6-3.6 7.2-7.2-3.3-3.3-6.6-6.6-3.6 3.6-7.2 7.2 3.3 3.3 6.6 6.6zm-6.6-6.6q3.6-3.6 7.2-7.2-3.3-3.3-6.6-6.6-3.6 3.6-7.2 7.2 3.3 3.3 6.6 6.6zm-6.6-6.6q3.6-3.6 7.2-7.2-3.3-3.3-6.6-6.6-3.6 3.6-7.2 7.2 3.3 3.3 6.6 6.6zm-6.6-6.6q3.6-3.6 7.2-7.2-3.3-3.3-6.6-6.6-3.6 3.6-7.2 7.2 3.3 3.3 6.6 6.6zm-6.6-6.6q3.6-3.6 7.2-7.2-1.7-1.6-3.3-3.3-3.6 3.6-7.2 7.2 1.7 1.6 3.3 3.3zm-3.3-3.3q3.6-3.6 7.2-7.2-0.8-0.8-1.7-1.6-3.5 3.5-7.1 7.1 0.8 0.8 1.6 1.7zm-1.6-1.7q3.6-3.6 7.1-7.1-0.8-0.9-1.6-1.7-3.6 3.6-7.2 7.2 0.9 0.8 1.7 1.6zm-1.7-1.6q3.6-3.6 7.2-7.2-0.8-0.8-1.7-1.6-3.5 3.5-7.1 7.1 0.8 0.8 1.6 1.7zm-1.6-1.7q3.6-3.6 7.1-7.1-0.8-0.9-1.6-1.7-3.6 3.6-7.2 7.2 0.9 0.8 1.7 1.6zm-1.7-1.6q3.6-3.6 7.2-7.2-1.7-1.6-3.3-3.3-3.6 3.6-7.2 7.2 1.7 1.6 3.3 3.3zm-3.3-3.3q3.6-3.6 7.2-7.2-3.3-3.3-6.6-6.6-3.6 3.6-7.2 7.2 3.3 3.3 6.6 6.6zm-6.6-6.6q3.6-3.6 7.2-7.2-3.3-3.3-6.6-6.6-3.6 3.6-7.2 7.2 3.3 3.3 6.6 6.6zm-6.6-6.6q3.6-3.6 7.2-7.2-3.3-3.3-6.6-6.6-3.6 3.6-7.2 7.2 3.3 3.3 6.6 6.6zm-6.6-6.6q3.6-3.6 7.2-7.2-3.3-3.3-6.6-6.6-3.6 3.6-7.2 7.2 3.3 3.3 6.6 6.6zm-6.6-6.6q3.6-3.6 7.2-7.2-3.3-3.3-6.6-6.6-3.6 3.6-7.2 7.2 3.3 3.3 6.6 6.6zm-6.6-6.6q3.6-3.6 7.2-7.2-3.3-3.3-6.6-6.6-3.6 3.6-7.2 7.2 3.3 3.3 6.6 6.6zm-6.6-6.6q3.6-3.6 7.2-7.2-3.3-3.3-6.6-6.6-3.6 3.6-7.2 7.2 3.3 3.3 6.6 6.6zm106.2 91.8q3.5-3.6 7.1-7.1-3.3-3.3-6.6-6.6-3.6 3.5-7.1 7.1 3.3 3.3 6.6 6.6zm-6.6-6.6q3.5-3.6 7.1-7.1-3.3-3.3-6.6-6.6-3.6 3.5-7.1 7.1 3.3 3.3 6.6 6.6zm-6.6-6.6q3.5-3.6 7.1-7.1-3.3-3.3-6.6-6.6-3.6 3.5-7.1 7.1 3.3 3.3 6.6 6.6zm-6.6-6.6q3.5-3.6 7.1-7.1-3.3-3.3-6.6-6.6-3.6 3.5-7.1 7.1 3.3 3.3 6.6 6.6zm-6.6-6.6q3.5-3.6 7.1-7.1-3.3-3.3-6.6-6.6-3.6 3.5-7.1 7.1 3.3 3.3 6.6 6.6zm-6.6-6.6q3.5-3.6 7.1-7.1-3.3-3.3-6.6-6.6-3.6 3.5-7.1 7.1 3.3 3.3 6.6 6.6zm-6.6-6.6q3.5-3.6 7.1-7.1-3.3-3.3-6.6-6.6-3.6 3.5-7.1 7.1 3.3 3.3 6.6 6.6zm-6.6-6.6q3.5-3.6 7.1-7.1-1.6-1.7-3.3-3.3-3.6 3.5-7.1 7.1 1.6 1.7 3.3 3.3zm-3.3-3.3q3.5-3.6 7.1-7.1-0.8-0.9-1.6-1.7-3.6 3.6-7.2 7.2 0.9 0.8 1.7 1.6zm-1.7-1.6q3.6-3.6 7.2-7.2-0.9-0.8-1.7-1.6-3.6 3.5-7.1 7.1 0.8 0.8 1.6 1.7zm-1.6-1.7q3.5-3.6 7.1-7.1-0.8-0.9-1.6-1.7-3.6 3.6-7.2 7.2 0.9 0.8 1.7 1.6zm-1.7-1.6q3.6-3.6 7.2-7.2-0.9-0.8-1.7-1.6-3.6 3.5-7.1 7.1 0.8 0.8 1.6 1.7zm-1.6-1.7q3.5-3.6 7.1-7.1-1.6-1.7-3.3-3.3-3.6 3.5-7.1 7.1 1.6 1.7 3.3 3.3zm-3.3-3.3q3.5-3.6 7.1-7.1-3.3-3.3-6.6-6.6-3.6 3.5-7.1 7.1 3.3 3.3 6.6 6.6zm-6.6-6.6q3.5-3.6 7.1-7.1-3.3-3.3-6.6-6.6-3.6 3.5-7.1 7.1 3.3 3.3 6.6 6.6zm-6.6-6.6q3.5-3.6 7.1-7.1-3.3-3.3-6.6-6.6-3.5 3.5-7.1 7.1 3.3 3.3 6.6 6.6zm-6.6-6.6q3.6-3.6 7.1-7.1-3.3-3.3-6.6-6.6-3.5 3.5-7.1 7.1 3.3 3.3 6.6 6.6zm-6.6-6.6q3.6-3.6 7.1-7.1-3.3-3.3-6.6-6.6-3.5 3.5-7.1 7.1 3.3 3.3 6.6 6.6zm-6.6-6.6q3.6-3.6 7.1-7.1-3.3-3.3-6.6-6.6-3.5 3.5-7.1 7.1 3.3 3.3 6.6 6.6zm-6.6-6.6q3.6-3.6 7.1-7.1-3.3-3.3-6.6-6.6-3.5 3.5-7.1 7.1 3.3 3.3 6.6 6.6zm106.1 91.9q3.6-3.6 7.2-7.2-3.3-3.3-6.6-6.6-3.6 3.6-7.2 7.2 3.3 3.3 6.6 6.6zm-6.6-6.6q3.6-3.6 7.2-7.2-3.3-3.3-6.6-6.6-3.6 3.6-7.2 7.2 3.3 3.3 6.6 6.6zm-6.6-6.6q3.6-3.6 7.2-7.2-3.3-3.3-6.6-6.6-3.6 3.6-7.2 7.2 3.3 3.3 6.6 6.6zm-6.6-6.6q3.6-3.6 7.2-7.2-3.3-3.3-6.6-6.6-3.6 3.6-7.2 7.2 3.3 3.3 6.6 6.6zm-6.6-6.6q3.6-3.6 7.2-7.2-3.3-3.3-6.6-6.6-3.6 3.6-7.2 7.2 3.3 3.3 6.6 6.6zm-6.6-6.6q3.6-3.6 7.2-7.2-3.3-3.3-6.6-6.6-3.6 3.6-7.2 7.2 3.3 3.3 6.6 6.6zm-6.6-6.6q3.6-3.6 7.2-7.2-3.3-3.3-6.6-6.6-3.6 3.6-7.2 7.2 3.3 3.3 6.6 6.6zm-6.6-6.6q3.6-3.6 7.2-7.2-1.7-1.6-3.3-3.3-3.6 3.6-7.2 7.2 1.7 1.6 3.3 3.3zm-3.3-3.3q3.6-3.6 7.2-7.2-0.9-0.8-1.7-1.6-3.6 3.5-7.1 7.1 0.8 0.8 1.6 1.7zm-1.6-1.7q3.5-3.6 7.1-7.1-0.8-0.9-1.6-1.7-3.6 3.6-7.2 7.2 0.8 0.8 1.7 1.6zm-1.7-1.6q3.6-3.6 7.2-7.2-0.9-0.8-1.7-1.6-3.6 3.5-7.1 7.1 0.8 0.8 1.6 1.7zm-1.6-1.7q3.5-3.6 7.1-7.1-0.8-0.9-1.6-1.7-3.6 3.6-7.2 7.2 0.8 0.8 1.7 1.6zm-1.7-1.6q3.6-3.6 7.2-7.2-1.7-1.6-3.3-3.3-3.6 3.6-7.2 7.2 1.7 1.6 3.3 3.3zm-3.3-3.3q3.6-3.6 7.2-7.2-3.3-3.3-6.6-6.6-3.6 3.6-7.2 7.2 3.3 3.3 6.6 6.6zm-6.6-6.6q3.6-3.6 7.2-7.2-3.3-3.3-6.6-6.6-3.6 3.6-7.2 7.2 3.3 3.3 6.6 6.6zm-6.6-6.6q3.6-3.6 7.2-7.2-3.3-3.3-6.6-6.6-3.6 3.6-7.2 7.2 3.3 3.3 6.6 6.6zm-6.6-6.6q3.6-3.6 7.2-7.2-3.3-3.3-6.6-6.6-3.6 3.6-7.2 7.2 3.3 3.3 6.6 6.6zm-6.6-6.6q3.6-3.6 7.2-7.2-3.3-3.3-6.6-6.6-3.6 3.6-7.2 7.2 3.3 3.3 6.6 6.6zm-6.6-6.6q3.6-3.6 7.2-7.2-3.3-3.3-6.6-6.6-3.6 3.6-7.2 7.2 3.3 3.3 6.6 6.6zm-6.6-6.6q3.6-3.6 7.2-7.2-3.3-3.3-6.6-6.6-3.6 3.6-7.2 7.2 3.3 3.3 6.6 6.6zm106.2 91.8q3.5-3.6 7.1-7.1-3.3-3.3-6.6-6.6-3.6 3.5-7.1 7.1 3.3 3.3 6.6 6.6zm-6.6-6.6q3.5-3.6 7.1-7.1-3.3-3.3-6.6-6.6-3.6 3.5-7.1 7.1 3.3 3.3 6.6 6.6zm-6.6-6.6q3.5-3.6 7.1-7.1-3.3-3.3-6.6-6.6-3.6 3.5-7.1 7.1 3.3 3.3 6.6 6.6zm-6.6-6.6q3.5-3.6 7.1-7.1-3.3-3.3-6.6-6.6-3.6 3.5-7.1 7.1 3.3 3.3 6.6 6.6zm-6.6-6.6q3.5-3.6 7.1-7.1-3.3-3.3-6.6-6.6-3.6 3.5-7.1 7.1 3.3 3.3 6.6 6.6zm-6.6-6.6q3.5-3.6 7.1-7.1-3.3-3.3-6.6-6.6-3.6 3.5-7.1 7.1 3.3 3.3 6.6 6.6zm-6.6-6.6q3.5-3.6 7.1-7.1-3.3-3.3-6.6-6.6-3.6 3.5-7.1 7.1 3.3 3.3 6.6 6.6zm-6.6-6.6q3.5-3.6 7.1-7.1-1.6-1.7-3.3-3.3-3.6 3.5-7.1 7.1 1.6 1.7 3.3 3.3zm-3.3-3.3q3.5-3.6 7.1-7.1-0.8-0.9-1.6-1.7-3.6 3.6-7.2 7.2 0.8 0.8 1.7 1.6zm-1.7-1.6q3.6-3.6 7.2-7.2-0.9-0.8-1.7-1.6-3.6 3.5-7.1 7.1 0.8 0.8 1.6 1.7zm-1.6-1.7q3.5-3.6 7.1-7.1-0.8-0.9-1.6-1.7-3.6 3.6-7.2 7.2 0.8 0.8 1.7 1.6zm-1.7-1.6q3.6-3.6 7.2-7.2-0.9-0.8-1.7-1.6-3.6 3.5-7.1 7.1 0.8 0.8 1.6 1.7zm-1.6-1.7q3.5-3.6 7.1-7.1-1.6-1.7-3.3-3.3-3.6 3.5-7.1 7.1 1.6 1.7 3.3 3.3zm-3.3-3.3q3.5-3.6 7.1-7.1-3.3-3.3-6.6-6.6-3.6 3.5-7.1 7.1 3.3 3.3 6.6 6.6zm-6.6-6.6q3.5-3.6 7.1-7.1-3.3-3.3-6.6-6.6-3.6 3.5-7.1 7.1 3.3 3.3 6.6 6.6zm-6.6-6.6q3.5-3.6 7.1-7.1-3.3-3.3-6.6-6.6-3.6 3.5-7.1 7.1 3.3 3.3 6.6 6.6zm-6.6-6.6q3.5-3.6 7.1-7.1-3.3-3.3-6.6-6.6-3.6 3.5-7.1 7.1 3.3 3.3 6.6 6.6zm-6.6-6.6q3.5-3.6 7.1-7.1-3.3-3.3-6.6-6.6-3.6 3.5-7.1 7.1 3.3 3.3 6.6 6.6zm-6.6-6.6q3.5-3.6 7.1-7.1-3.3-3.3-6.6-6.6-3.6 3.5-7.1 7.1 3.3 3.3 6.6 6.6zm-6.6-6.6q3.5-3.6 7.1-7.1-3.3-3.3-6.6-6.6-3.6 3.5-7.1 7.1 3.3 3.3 6.6 6.6zm106.1 91.9q3.6-3.6 7.2-7.2-3.3-3.3-6.6-6.6-3.6 3.6-7.2 7.2 3.3 3.3 6.6 6.6zm-6.6-6.6q3.6-3.6 7.2-7.2-3.3-3.3-6.6-6.6-3.6 3.6-7.2 7.2 3.3 3.3 6.6 6.6zm-6.6-6.6q3.6-3.6 7.2-7.2-3.3-3.3-6.6-6.6-3.6 3.6-7.2 7.2 3.3 3.3 6.6 6.6zm-6.6-6.6q3.6-3.6 7.2-7.2-3.3-3.3-6.6-6.6-3.6 3.6-7.2 7.2 3.3 3.3 6.6 6.6zm-6.6-6.6q3.6-3.6 7.2-7.2-3.3-3.3-6.6-6.6-3.6 3.6-7.2 7.2 3.3 3.3 6.6 6.6zm-6.6-6.6q3.6-3.6 7.2-7.2-3.3-3.3-6.6-6.6-3.6 3.6-7.2 7.2 3.3 3.3 6.6 6.6zm-6.6-6.6q3.6-3.6 7.2-7.2-3.3-3.3-6.6-6.6-3.6 3.6-7.2 7.2 3.3 3.3 6.6 6.6zm-6.6-6.6q3.6-3.6 7.2-7.2-1.7-1.6-3.3-3.3-3.6 3.6-7.2 7.2 1.7 1.6 3.3 3.3zm-3.3-3.3q3.6-3.6 7.2-7.2-0.9-0.8-1.7-1.6-3.6 3.6-7.1 7.1 0.8 0.8 1.6 1.7zm-1.6-1.7q3.5-3.5 7.1-7.1-0.8-0.8-1.6-1.7-3.6 3.6-7.2 7.2 0.8 0.8 1.7 1.6zm-1.7-1.6q3.6-3.6 7.2-7.2-0.9-0.8-1.7-1.6-3.6 3.6-7.1 7.1 0.8 0.8 1.6 1.7zm-1.6-1.7q3.5-3.5 7.1-7.1-0.8-0.8-1.6-1.7-3.6 3.6-7.2 7.2 0.8 0.8 1.7 1.6zm-1.7-1.6q3.6-3.6 7.2-7.2-1.7-1.6-3.3-3.3-3.6 3.6-7.2 7.2 1.7 1.6 3.3 3.3zm-3.3-3.3q3.6-3.6 7.2-7.2-3.3-3.3-6.6-6.6-3.6 3.6-7.2 7.2 3.3 3.3 6.6 6.6zm-6.6-6.6q3.6-3.6 7.2-7.2-3.3-3.3-6.6-6.6-3.6 3.6-7.2 7.2 3.3 3.3 6.6 6.6zm-6.6-6.6q3.6-3.6 7.2-7.2-3.3-3.3-6.6-6.6-3.6 3.6-7.2 7.2 3.3 3.3 6.6 6.6zm-6.6-6.6q3.6-3.6 7.2-7.2-3.3-3.3-6.6-6.6-3.6 3.6-7.2 7.2 3.3 3.3 6.6 6.6zm-6.6-6.6q3.6-3.6 7.2-7.2-3.3-3.3-6.6-6.6-3.6 3.6-7.2 7.2 3.3 3.3 6.6 6.6zm-6.6-6.6q3.6-3.6 7.2-7.2-3.3-3.3-6.6-6.6-3.6 3.6-7.2 7.2 3.3 3.3 6.6 6.6zm-6.6-6.6q3.6-3.6 7.2-7.2-3.3-3.3-6.6-6.6-3.6 3.6-7.2 7.2 3.3 3.3 6.6 6.6zm106.2 91.8q3.5-3.5 7.1-7.1-3.3-3.3-6.6-6.6-3.6 3.6-7.1 7.1 3.3 3.3 6.6 6.6zm-6.6-6.6q3.5-3.5 7.1-7.1-3.3-3.3-6.6-6.6-3.6 3.6-7.1 7.1 3.3 3.3 6.6 6.6zm-6.6-6.6q3.5-3.5 7.1-7.1-3.3-3.3-6.6-6.6-3.6 3.6-7.1 7.1 3.3 3.3 6.6 6.6zm-6.6-6.6q3.5-3.5 7.1-7.1-3.3-3.3-6.6-6.6-3.6 3.6-7.1 7.1 3.3 3.3 6.6 6.6zm-6.6-6.6q3.5-3.5 7.1-7.1-3.3-3.3-6.6-6.6-3.6 3.6-7.1 7.1 3.3 3.3 6.6 6.6zm-6.6-6.6q3.5-3.5 7.1-7.1-3.3-3.3-6.6-6.6-3.6 3.6-7.1 7.1 3.3 3.3 6.6 6.6zm-6.6-6.6q3.5-3.5 7.1-7.1-3.3-3.3-6.6-6.6-3.6 3.6-7.1 7.1 3.3 3.3 6.6 6.6zm-6.6-6.6q3.5-3.5 7.1-7.1-1.7-1.7-3.3-3.3-3.6 3.6-7.1 7.1 1.6 1.7 3.3 3.3zm-3.3-3.3q3.5-3.5 7.1-7.1-0.8-0.8-1.7-1.7-3.5 3.6-7.1 7.2 0.8 0.8 1.7 1.6zm-1.7-1.6q3.6-3.6 7.1-7.2-0.8-0.8-1.6-1.6-3.6 3.6-7.1 7.1 0.8 0.9 1.6 1.7zm-1.6-1.7q3.5-3.5 7.1-7.1-0.8-0.8-1.7-1.7-3.5 3.6-7.1 7.2 0.8 0.8 1.7 1.6zm-1.7-1.6q3.6-3.6 7.1-7.2-0.8-0.8-1.6-1.6-3.6 3.6-7.1 7.1 0.8 0.9 1.6 1.7zm-1.6-1.7q3.5-3.5 7.1-7.1-1.6-1.7-3.3-3.3-3.6 3.6-7.1 7.1 1.6 1.7 3.3 3.3zm-3.3-3.3q3.5-3.5 7.1-7.1-3.3-3.3-6.6-6.6-3.6 3.6-7.1 7.1 3.3 3.3 6.6 6.6zm-6.6-6.6q3.5-3.5 7.1-7.1-3.3-3.3-6.6-6.6-3.6 3.6-7.1 7.1 3.3 3.3 6.6 6.6zm-6.6-6.6q3.5-3.5 7.1-7.1-3.3-3.3-6.6-6.6-3.6 3.6-7.1 7.1 3.3 3.3 6.6 6.6zm-6.6-6.6q3.5-3.5 7.1-7.1-3.3-3.3-6.6-6.6-3.6 3.6-7.1 7.1 3.3 3.3 6.6 6.6zm-6.6-6.6q3.5-3.5 7.1-7.1-3.3-3.3-6.6-6.6-3.6 3.6-7.1 7.1 3.3 3.3 6.6 6.6zm-6.6-6.6q3.5-3.5 7.1-7.1-3.3-3.3-6.6-6.6-3.6 3.6-7.1 7.1 3.3 3.3 6.6 6.6zm-6.6-6.6q3.5-3.5 7.1-7.1-3.3-3.3-6.6-6.6-3.6 3.6-7.1 7.1 3.3 3.3 6.6 6.6zm106.1 91.9q3.6-3.6 7.1-7.2-3.3-3.3-6.6-6.6-3.5 3.6-7.1 7.2 3.3 3.3 6.6 6.6zm-6.6-6.6q3.6-3.6 7.1-7.2-3.3-3.3-6.6-6.6-3.5 3.6-7.1 7.2 3.3 3.3 6.6 6.6zm-6.6-6.6q3.6-3.6 7.1-7.2-3.3-3.3-6.6-6.6-3.5 3.6-7.1 7.2 3.3 3.3 6.6 6.6zm-6.6-6.6q3.6-3.6 7.1-7.2-3.3-3.3-6.6-6.6-3.5 3.6-7.1 7.2 3.3 3.3 6.6 6.6zm-6.6-6.6q3.6-3.6 7.1-7.2-3.3-3.3-6.6-6.6-3.5 3.6-7.1 7.2 3.3 3.3 6.6 6.6zm-6.6-6.6q3.6-3.6 7.1-7.2-3.3-3.3-6.6-6.6-3.5 3.6-7.1 7.2 3.3 3.3 6.6 6.6zm-6.6-6.6q3.6-3.6 7.1-7.2-3.3-3.3-6.6-6.6-3.5 3.6-7.1 7.2 3.3 3.3 6.6 6.6zm-6.6-6.6q3.6-3.6 7.1-7.2-1.6-1.6-3.3-3.3-3.5 3.6-7.1 7.2 1.6 1.6 3.3 3.3zm-3.3-3.3q3.6-3.6 7.1-7.2-0.8-0.8-1.6-1.6-3.6 3.6-7.2 7.1 0.9 0.9 1.7 1.7zm-1.7-1.7q3.6-3.5 7.2-7.1-0.8-0.8-1.7-1.7-3.5 3.6-7.1 7.2 0.8 0.8 1.6 1.6zm-1.6-1.6q3.6-3.6 7.1-7.2-0.8-0.8-1.6-1.6-3.6 3.6-7.2 7.1 0.9 0.9 1.7 1.7zm-1.7-1.7q3.6-3.5 7.2-7.1-0.8-0.8-1.7-1.7-3.5 3.6-7.1 7.2 0.8 0.8 1.6 1.6zm-1.6-1.6q3.6-3.6 7.1-7.2-1.6-1.6-3.3-3.3-3.5 3.6-7.1 7.2 1.7 1.6 3.3 3.3zm-3.3-3.3q3.6-3.6 7.1-7.2-3.3-3.3-6.6-6.6-3.5 3.6-7.1 7.2 3.3 3.3 6.6 6.6zm-6.6-6.6q3.6-3.6 7.1-7.2-3.3-3.3-6.6-6.6-3.5 3.6-7.1 7.2 3.3 3.3 6.6 6.6zm-6.6-6.6q3.6-3.6 7.1-7.2-3.3-3.3-6.6-6.6-3.5 3.6-7.1 7.2 3.3 3.3 6.6 6.6zm-6.6-6.6q3.6-3.6 7.1-7.2-3.3-3.3-6.6-6.6-3.5 3.6-7.1 7.2 3.3 3.3 6.6 6.6zm-6.6-6.6q3.6-3.6 7.1-7.2-3.3-3.3-6.6-6.6-3.5 3.6-7.1 7.2 3.3 3.3 6.6 6.6zm-6.6-6.6q3.6-3.6 7.1-7.2-3.3-3.3-6.6-6.6-3.5 3.6-7.1 7.2 3.3 3.3 6.6 6.6zm-6.6-6.6q3.6-3.6 7.1-7.2-3.3-3.3-6.6-6.6-3.5 3.6-7.1 7.2 3.3 3.3 6.6 6.6zm106.1 91.8q3.6-3.5 7.2-7.1-3.3-3.3-6.6-6.6-3.6 3.6-7.2 7.1 3.3 3.3 6.6 6.6zm-6.6-6.6q3.6-3.5 7.2-7.1-3.3-3.3-6.6-6.6-3.6 3.6-7.2 7.1 3.3 3.3 6.6 6.6zm-6.6-6.6q3.6-3.5 7.2-7.1-3.3-3.3-6.6-6.6-3.6 3.6-7.2 7.1 3.3 3.3 6.6 6.6zm-6.6-6.6q3.6-3.5 7.2-7.1-3.3-3.3-6.6-6.6-3.6 3.6-7.2 7.1 3.3 3.3 6.6 6.6zm-6.6-6.6q3.6-3.5 7.2-7.1-3.3-3.3-6.6-6.6-3.6 3.6-7.2 7.1 3.3 3.3 6.6 6.6zm-6.6-6.6q3.6-3.5 7.2-7.1-3.3-3.3-6.6-6.6-3.6 3.6-7.2 7.1 3.3 3.3 6.6 6.6zm-6.6-6.6q3.6-3.5 7.2-7.1-3.3-3.3-6.6-6.6-3.6 3.6-7.2 7.1 3.3 3.3 6.6 6.6zm-6.6-6.6q3.6-3.5 7.2-7.1-1.7-1.7-3.3-3.3-3.6 3.6-7.2 7.1 1.7 1.7 3.3 3.3zm-3.3-3.3q3.6-3.5 7.2-7.1-0.8-0.8-1.7-1.7-3.5 3.6-7.1 7.2 0.8 0.8 1.6 1.6zm-1.6-1.6q3.6-3.6 7.1-7.2-0.8-0.8-1.6-1.6-3.6 3.6-7.2 7.1 0.9 0.9 1.7 1.7zm-1.7-1.7q3.6-3.5 7.2-7.1-0.8-0.8-1.7-1.7-3.5 3.6-7.1 7.2 0.8 0.8 1.6 1.6zm-1.6-1.6q3.6-3.6 7.1-7.2-0.8-0.8-1.6-1.6-3.6 3.6-7.2 7.1 0.9 0.9 1.7 1.7zm-1.7-1.7q3.6-3.5 7.2-7.1-1.7-1.7-3.3-3.3-3.6 3.6-7.2 7.1 1.7 1.7 3.3 3.3zm-3.3-3.3q3.6-3.5 7.2-7.1-3.3-3.3-6.6-6.6-3.6 3.6-7.2 7.1 3.3 3.3 6.6 6.6zm-6.6-6.6q3.6-3.5 7.2-7.1-3.3-3.3-6.6-6.6-3.6 3.6-7.2 7.1 3.3 3.3 6.6 6.6zm-6.6-6.6q3.6-3.5 7.2-7.1-3.3-3.3-6.6-6.6-3.6 3.6-7.2 7.1 3.3 3.3 6.6 6.6zm-6.6-6.6q3.6-3.5 7.2-7.1-3.3-3.3-6.6-6.6-3.6 3.6-7.2 7.1 3.3 3.3 6.6 6.6zm-6.6-6.6q3.6-3.5 7.2-7.1-3.3-3.3-6.6-6.6-3.6 3.6-7.2 7.1 3.3 3.3 6.6 6.6zm-6.6-6.6q3.6-3.5 7.2-7.1-3.3-3.3-6.6-6.6-3.6 3.6-7.2 7.1 3.3 3.3 6.6 6.6zm-6.6-6.6q3.6-3.5 7.2-7.1-3.3-3.3-6.6-6.6-3.6 3.6-7.2 7.1 3.3 3.3 6.6 6.6zm106.2 91.9q3.6-3.6 7.1-7.2-3.3-3.3-6.6-6.6-3.5 3.6-7.1 7.2 3.3 3.3 6.6 6.6zm-6.6-6.6q3.6-3.6 7.1-7.2-3.3-3.3-6.6-6.6-3.5 3.6-7.1 7.2 3.3 3.3 6.6 6.6zm-6.6-6.6q3.6-3.6 7.1-7.2-3.3-3.3-6.6-6.6-3.5 3.6-7.1 7.2 3.3 3.3 6.6 6.6zm-6.6-6.6q3.6-3.6 7.1-7.2-3.3-3.3-6.6-6.6-3.5 3.6-7.1 7.2 3.3 3.3 6.6 6.6zm-6.6-6.6q3.6-3.6 7.1-7.2-3.3-3.3-6.6-6.6-3.5 3.6-7.1 7.2 3.3 3.3 6.6 6.6zm-6.6-6.6q3.6-3.6 7.1-7.2-3.3-3.3-6.6-6.6-3.5 3.6-7.1 7.2 3.3 3.3 6.6 6.6zm-6.6-6.6q3.6-3.6 7.1-7.2-3.3-3.2-6.6-6.5-3.5 3.5-7.1 7.1 3.3 3.3 6.6 6.6zm-6.6-6.6q3.6-3.6 7.1-7.1-1.6-1.7-3.3-3.3-3.5 3.5-7.1 7.1 1.6 1.6 3.3 3.3zm-3.3-3.3q3.6-3.6 7.1-7.1-0.8-0.9-1.6-1.7-3.6 3.6-7.2 7.1 0.9 0.9 1.7 1.7zm-1.7-1.7q3.6-3.5 7.2-7.1-0.8-0.8-1.7-1.6-3.5 3.5-7.1 7.1 0.8 0.8 1.6 1.6zm-1.6-1.6q3.6-3.6 7.1-7.1-0.8-0.9-1.6-1.7-3.6 3.6-7.2 7.1 0.9 0.9 1.7 1.7zm-1.7-1.7q3.6-3.5 7.2-7.1-0.8-0.8-1.7-1.6-3.5 3.5-7.1 7.1 0.8 0.8 1.6 1.6zm-1.6-1.6q3.6-3.6 7.1-7.1-1.6-1.7-3.3-3.3-3.5 3.5-7.1 7.1 1.6 1.6 3.3 3.3zm-3.3-3.3q3.6-3.6 7.1-7.1-3.3-3.3-6.6-6.6-3.5 3.5-7.1 7.1 3.3 3.3 6.6 6.6zm-6.6-6.6q3.6-3.6 7.1-7.1-3.3-3.3-6.6-6.6-3.5 3.5-7.1 7.1 3.3 3.3 6.6 6.6zm-6.6-6.6q3.6-3.6 7.1-7.1-3.3-3.3-6.6-6.6-3.5 3.5-7.1 7.1 3.3 3.3 6.6 6.6zm-6.6-6.6q3.6-3.6 7.1-7.1-3.3-3.3-6.6-6.6-3.5 3.5-7.1 7.1 3.3 3.3 6.6 6.6zm-6.6-6.6q3.6-3.6 7.1-7.1-3.3-3.3-6.6-6.6-3.5 3.5-7.1 7.1 3.3 3.3 6.6 6.6zm-6.6-6.6q3.6-3.6 7.1-7.1-3.3-3.3-6.6-6.6-3.5 3.5-7.1 7.1 3.3 3.3 6.6 6.6zm-6.6-6.6q3.6-3.6 7.1-7.1-3.3-3.3-6.6-6.6-3.5 3.5-7.1 7.1 3.3 3.3 6.6 6.6zm106.1 91.8q3.6-3.5 7.2-7.1-3.3-3.3-6.6-6.6-3.6 3.6-7.2 7.1 3.3 3.3 6.6 6.6zm-6.6-6.6q3.6-3.5 7.2-7.1-3.3-3.3-6.6-6.6-3.6 3.6-7.2 7.1 3.3 3.3 6.6 6.6zm-6.6-6.6q3.6-3.5 7.2-7.1-3.3-3.3-6.6-6.6-3.6 3.6-7.2 7.1 3.3 3.3 6.6 6.6zm-6.6-6.6q3.6-3.5 7.2-7.1-3.3-3.3-6.6-6.6-3.6 3.6-7.2 7.1 3.3 3.3 6.6 6.6zm-6.6-6.6q3.6-3.5 7.2-7.1-3.3-3.3-6.6-6.6-3.6 3.6-7.2 7.1 3.3 3.3 6.6 6.6zm-6.6-6.6q3.6-3.5 7.2-7.1-3.3-3.3-6.6-6.6-3.6 3.6-7.2 7.1 3.3 3.3 6.6 6.6zm-6.6-6.6q3.6-3.5 7.2-7.1-3.3-3.3-6.6-6.6-3.6 3.6-7.2 7.2 3.3 3.3 6.6 6.5zm-6.6-6.5q3.6-3.6 7.2-7.2-1.7-1.6-3.3-3.3-3.6 3.6-7.2 7.2 1.7 1.6 3.3 3.3zm-3.3-3.3q3.6-3.6 7.2-7.2-0.8-0.8-1.7-1.6-3.5 3.5-7.1 7.1 0.8 0.8 1.6 1.7zm-1.6-1.7q3.6-3.6 7.1-7.1-0.8-0.9-1.6-1.7-3.6 3.6-7.2 7.2 0.9 0.8 1.7 1.6zm-1.7-1.6q3.6-3.6 7.2-7.2-0.8-0.8-1.7-1.6-3.5 3.5-7.1 7.1 0.8 0.8 1.6 1.7zm-1.6-1.7q3.6-3.6 7.1-7.1-0.8-0.9-1.6-1.7-3.6 3.6-7.2 7.2 0.9 0.8 1.7 1.6zm-1.7-1.6q3.6-3.6 7.2-7.2-1.7-1.6-3.3-3.3-3.6 3.6-7.2 7.2 1.7 1.6 3.3 3.3zm-3.3-3.3q3.6-3.6 7.2-7.2-3.3-3.3-6.6-6.6-3.6 3.6-7.2 7.2 3.3 3.3 6.6 6.6zm-6.6-6.6q3.6-3.6 7.2-7.2-3.3-3.3-6.6-6.6-3.6 3.6-7.2 7.2 3.3 3.3 6.6 6.6zm-6.6-6.6q3.6-3.6 7.2-7.2-3.3-3.3-6.6-6.6-3.6 3.6-7.2 7.2 3.3 3.3 6.6 6.6zm-6.6-6.6q3.6-3.6 7.2-7.2-3.3-3.3-6.6-6.6-3.6 3.6-7.2 7.2 3.3 3.3 6.6 6.6zm-6.6-6.6q3.6-3.6 7.2-7.2-3.3-3.3-6.6-6.6-3.6 3.6-7.2 7.2 3.3 3.3 6.6 6.6zm-6.6-6.6q3.6-3.6 7.2-7.2-3.3-3.3-6.6-6.6-3.6 3.6-7.2 7.2 3.3 3.3 6.6 6.6zm-6.6-6.6q3.6-3.6 7.2-7.2-3.3-3.3-6.6-6.6-3.6 3.6-7.2 7.2 3.3 3.3 6.6 6.6zm106.2 91.8q3.5-3.6 7.1-7.1-3.3-3.3-6.6-6.6-3.6 3.5-7.1 7.1 3.3 3.3 6.6 6.6zm-6.6-6.6q3.5-3.6 7.1-7.1-3.3-3.3-6.6-6.6-3.6 3.5-7.1 7.1 3.3 3.3 6.6 6.6zm-6.6-6.6q3.5-3.6 7.1-7.1-3.3-3.3-6.6-6.6-3.6 3.5-7.1 7.1 3.3 3.3 6.6 6.6zm-6.6-6.6q3.5-3.6 7.1-7.1-3.3-3.3-6.6-6.6-3.6 3.5-7.1 7.1 3.3 3.3 6.6 6.6zm-6.6-6.6q3.5-3.6 7.1-7.1-3.3-3.3-6.6-6.6-3.6 3.5-7.1 7.1 3.3 3.3 6.6 6.6zm-6.6-6.6q3.5-3.6 7.1-7.1-3.3-3.3-6.6-6.6-3.5 3.5-7.1 7.1 3.3 3.3 6.6 6.6zm-6.6-6.6q3.6-3.6 7.1-7.1-3.3-3.3-6.6-6.6-3.5 3.5-7.1 7.1 3.3 3.3 6.6 6.6zm-6.6-6.6q3.6-3.6 7.1-7.1-1.6-1.7-3.3-3.3-3.5 3.5-7.1 7.1 1.6 1.7 3.3 3.3zm-3.3-3.3q3.6-3.6 7.1-7.1-0.8-0.9-1.6-1.7-3.6 3.6-7.2 7.2 0.9 0.8 1.7 1.6zm-1.7-1.6q3.6-3.6 7.2-7.2-0.9-0.8-1.7-1.6-3.5 3.5-7.1 7.1 0.8 0.8 1.6 1.7zm-1.6-1.7q3.6-3.6 7.1-7.1-0.8-0.9-1.6-1.7-3.6 3.6-7.2 7.2 0.9 0.8 1.7 1.6zm-1.7-1.6q3.6-3.6 7.2-7.2-0.9-0.8-1.7-1.6-3.5 3.5-7.1 7.1 0.8 0.8 1.6 1.7zm-1.6-1.7q3.6-3.6 7.1-7.1-1.6-1.7-3.3-3.3-3.5 3.5-7.1 7.1 1.6 1.7 3.3 3.3zm-3.3-3.3q3.6-3.6 7.1-7.1-3.3-3.3-6.6-6.6-3.5 3.5-7.1 7.1 3.3 3.3 6.6 6.6zm-6.6-6.6q3.6-3.6 7.1-7.1-3.3-3.3-6.6-6.6-3.5 3.5-7.1 7.1 3.3 3.3 6.6 6.6zm-6.6-6.6q3.6-3.6 7.1-7.1-3.3-3.3-6.6-6.6-3.5 3.5-7.1 7.1 3.3 3.3 6.6 6.6zm-6.6-6.6q3.6-3.6 7.1-7.1-3.3-3.3-6.6-6.6-3.5 3.5-7.1 7.1 3.3 3.3 6.6 6.6zm-6.6-6.6q3.6-3.6 7.1-7.1-3.3-3.3-6.6-6.6-3.5 3.5-7.1 7.1 3.3 3.3 6.6 6.6zm-6.6-6.6q3.6-3.6 7.1-7.1-3.3-3.3-6.6-6.6-3.5 3.5-7.1 7.1 3.3 3.3 6.6 6.6zm-6.6-6.6q3.6-3.6 7.1-7.1-3.3-3.3-6.6-6.6-3.5 3.5-7.1 7.1 3.3 3.3 6.6 6.6zm106.1 91.9q3.6-3.6 7.2-7.2-3.3-3.3-6.6-6.6-3.6 3.6-7.2 7.2 3.3 3.3 6.6 6.6zm-6.6-6.6q3.6-3.6 7.2-7.2-3.3-3.3-6.6-6.6-3.6 3.6-7.2 7.2 3.3 3.3 6.6 6.6zm-6.6-6.6q3.6-3.6 7.2-7.2-3.3-3.3-6.6-6.6-3.6 3.6-7.2 7.2 3.3 3.3 6.6 6.6zm-6.6-6.6q3.6-3.6 7.2-7.2-3.3-3.3-6.6-6.6-3.6 3.6-7.2 7.2 3.3 3.3 6.6 6.6zm-6.6-6.6q3.6-3.6 7.2-7.2-3.3-3.3-6.6-6.6-3.6 3.6-7.2 7.2 3.3 3.3 6.6 6.6zm-6.6-6.6q3.6-3.6 7.2-7.2-3.3-3.3-6.6-6.6-3.6 3.6-7.2 7.2 3.3 3.3 6.6 6.6zm-6.6-6.6q3.6-3.6 7.2-7.2-3.3-3.3-6.6-6.6-3.6 3.6-7.2 7.2 3.3 3.3 6.6 6.6zm-6.6-6.6q3.6-3.6 7.2-7.2-1.7-1.6-3.3-3.3-3.6 3.6-7.2 7.2 1.7 1.6 3.3 3.3zm-3.3-3.3q3.6-3.6 7.2-7.2-0.9-0.8-1.7-1.6-3.6 3.5-7.1 7.1 0.8 0.8 1.6 1.7zm-1.6-1.7q3.5-3.6 7.1-7.1-0.8-0.9-1.6-1.7-3.6 3.6-7.2 7.2 0.8 0.8 1.7 1.6zm-1.7-1.6q3.6-3.6 7.2-7.2-0.9-0.8-1.7-1.6-3.6 3.5-7.1 7.1 0.8 0.8 1.6 1.7zm-1.6-1.7q3.5-3.6 7.1-7.1-0.8-0.9-1.6-1.7-3.6 3.6-7.2 7.2 0.8 0.8 1.7 1.6zm-1.7-1.6q3.6-3.6 7.2-7.2-1.7-1.6-3.3-3.3-3.6 3.6-7.2 7.2 1.7 1.6 3.3 3.3zm-3.3-3.3q3.6-3.6 7.2-7.2-3.3-3.3-6.6-6.6-3.6 3.6-7.2 7.2 3.3 3.3 6.6 6.6zm-6.6-6.6q3.6-3.6 7.2-7.2-3.3-3.3-6.6-6.6-3.6 3.6-7.2 7.2 3.3 3.3 6.6 6.6zm-6.6-6.6q3.6-3.6 7.2-7.2-3.3-3.3-6.6-6.6-3.6 3.6-7.2 7.2 3.3 3.3 6.6 6.6zm-6.6-6.6q3.6-3.6 7.2-7.2-3.3-3.3-6.6-6.6-3.6 3.6-7.2 7.2 3.3 3.3 6.6 6.6zm-6.6-6.6q3.6-3.6 7.2-7.2-3.3-3.3-6.6-6.6-3.6 3.6-7.2 7.2 3.3 3.3 6.6 6.6zm-6.6-6.6q3.6-3.6 7.2-7.2-3.3-3.3-6.6-6.6-3.6 3.6-7.2 7.2 3.3 3.3 6.6 6.6zm-6.6-6.6q3.6-3.6 7.2-7.2-3.3-3.3-6.6-6.6-3.6 3.6-7.2 7.2 3.3 3.3 6.6 6.6z"/>
			</g>
			<g id="&lt;Group&gt;" style="opacity: .1;mix-blend-mode: screen">
				<path id="&lt;Path&gt;" class="s10" d="m780 594.5c0-103.3-83.7-187-187-187-103.3 0-187 83.7-187 187 0 103.3 83.7 187 187 187 103.3 0 187-83.7 187-187z"/>
			</g>
			<g id="&lt;Group&gt;">
				<path id="&lt;Path&gt;" class="s11" d="m511.8 502.3c0-4.9-4.1-9-9-9-5 0-9 4.1-9 9 0 5 4 9 9 9 4.9 0 9-4 9-9z"/>
				<path id="&lt;Compound Path&gt;" fill-rule="evenodd" class="s12" d="m513.2 502.8c0 5.5-4.4 10-10 10-5.5 0-10-4.5-10-10 0-5.5 4.5-10 10-10 5.6 0 10 4.5 10 10zm-1.4-0.5c0-4.9-4.1-9-9-9-5 0-9 4.1-9 9 0 5 4 9 9 9 4.9 0 9-4 9-9z"/>
				<path id="&lt;Path&gt;" class="s13" d="m620.9 616.4c0-2.2-1.8-4-4-4-2.2 0-4 1.8-4 4 0 2.3 1.8 4 4 4 2.2 0 4-1.7 4-4z"/>
				<path id="&lt;Path&gt;" class="s14" d="m719.2 704.8c0-7.8-6.3-14-14-14-7.7 0-14 6.2-14 14 0 7.7 6.3 14 14 14 7.7 0 14-6.3 14-14z"/>
				<path id="&lt;Path&gt;" class="s15" d="m849.5 837c0-6.6-5.4-12-12-12-6.6 0-12 5.4-12 12 0 6.7 5.4 12 12 12 6.6 0 12-5.3 12-12z"/>
				<path id="&lt;Path&gt;" class="s16" d="m441.9 435.4c0-3.3-2.7-6-6-6-3.4 0-6 2.7-6 6 0 3.3 2.6 6 6 6 3.3 0 6-2.7 6-6z"/>
				<path id="&lt;Path&gt;" class="s17" d="m230.9 214.4c0-8.8-7.2-16-16-16-8.9 0-16 7.2-16 16 0 8.9 7.1 16 16 16 8.8 0 16-7.1 16-16z"/>
				<path id="&lt;Path&gt;" class="s18" d="m130.3 112.8c0-9.3-7.6-17-17-17-9.4 0-17 7.7-17 17 0 9.4 7.6 17 17 17 9.4 0 17-7.6 17-17z"/>
				<path id="&lt;Path&gt;" class="s19" d="m544.2 533.8c0-5.5-4.5-10-10-10-5.5 0-10 4.5-10 10 0 5.5 4.5 10 10 10 5.5 0 10-4.5 10-10z"/>
			</g>
			<g id="&lt;Group&gt;">
				<path id="&lt;Path&gt;" class="s20" d="m384.1 352.8c0-17.1-13.9-31-31-31-17.1 0-31 13.9-31 31 0 17.2 13.9 31 31 31 17.1 0 31-13.8 31-31z"/>
				<path id="&lt;Path&gt;" class="s21" d="m33.5 0.3c0-18.3-14.8-33-33-33-18.2 0-33 14.7-33 33 0 18.2 14.8 33 33 33 18.2 0 33-14.8 33-33z"/>
			</g>
			<g id="&lt;Group&gt;" style="opacity: .6">
				<path id="&lt;Path&gt;" class="s22" d="m177.4 164.3l-144.4-164.2 0.2-0.2 144.3 164.3z"/>
				<path id="&lt;Path&gt;" class="s23" d="m177.4 164.4l-169.9-164.3 0.2-0.2 169.8 164.3z"/>
				<path id="&lt;Path&gt;" class="s24" d="m177.4 164.3l-150.7-164.2 0.1-0.2 150.7 164.3z"/>
				<path id="&lt;Path&gt;" class="s25" d="m177.5 164.4l-177.5-27.6v-0.2l177.5 27.6z"/>
				<path id="&lt;Path&gt;" class="s26" d="m177.4 164.4l-156.5-164.3 0.2-0.2 156.4 164.3z"/>
				<path id="&lt;Path&gt;" class="s27" d="m177.4 164.4l-163.2-164.3 0.1-0.2 163.2 164.3z"/>
				<path id="&lt;Path&gt;" class="s28" d="m177.4 164.3l-16.7-164.3h0.2l16.7 164.3z"/>
				<path id="&lt;Path&gt;" class="s29" d="m177.5 164.4l-177.5-23.7v-0.2l177.5 23.7z"/>
				<path id="&lt;Path&gt;" class="s30" d="m177.4 164.3l-13.4-164.3h0.2l13.4 164.3z"/>
				<path id="&lt;Path&gt;" class="s31" d="m177.5 164.4l-177.5-20.3v-0.2l177.5 20.3z"/>
				<path id="&lt;Path&gt;" class="s32" d="m177.4 164.3l-9.9-164.3h0.2l9.9 164.3z"/>
				<path id="&lt;Path&gt;" class="s33" d="m177.5 164.4l-177.5-16.5v-0.2l177.5 16.5z"/>
				<path id="&lt;Path&gt;" class="s34" d="m177.6 164.3l-0.2-0.1 111.9-164.3 0.1 0.2z"/>
				<path id="&lt;Path&gt;" class="s35" d="m177.5 164.4l-177.5-13v-0.2l177.5 13z"/>
				<path id="&lt;Path&gt;" class="s36" d="m177.5 164.3l-0.1-0.1 116.7-164.3 0.2 0.2z"/>
				<path id="&lt;Path&gt;" class="s37" d="m177.4 164.3l-3.3-164.3h0.2l3.3 164.3z"/>
				<path id="&lt;Path&gt;" class="s38" d="m177.5 164.4l-0.1-0.2 582.7-164.3 0.1 0.2z"/>
				<path id="&lt;Path&gt;" class="s39" d="m177.4 164.3l-6.8-164.3h0.2l6.8 164.3z"/>
				<path id="&lt;Path&gt;" class="s40" d="m177.5 164.4l-0.1-0.2 630.6-164.3 0.1 0.2z"/>
				<path id="&lt;Path&gt;" class="s41" d="m177.5 164.3l-0.1-0.1 132.6-164.3 0.1 0.2z"/>
				<path id="&lt;Path&gt;" class="s42" d="m177.5 164.4l-0.1-0.2 690-164.3v0.2z"/>
				<path id="&lt;Path&gt;" class="s43" d="m177.5 164.3l-0.1-0.1 126.8-164.3 0.2 0.2z"/>
				<path id="&lt;Path&gt;" class="s44" d="m1000 533l-822.6-368.6 0.1-0.2 822.5 368.6z"/>
				<path id="&lt;Path&gt;" class="s45" d="m177.5 164.3l-0.1-0.1 122-164.3 0.2 0.2z"/>
				<path id="&lt;Path&gt;" class="s46" d="m1000 552.9l-822.6-388.5 0.1-0.2 822.5 388.5z"/>
				<path id="&lt;Path&gt;" class="s47" d="m177.5 164.4l-0.1-0.2 822.6-161.3v0.2z"/>
				<path id="&lt;Path&gt;" class="s48" d="m503 1000l-325.6-835.7 0.2-0.1 325.6 835.8z"/>
				<path id="&lt;Path&gt;" class="s49" d="m177.5 164.4l-0.1-0.2 751.8-164.3 0.1 0.2z"/>
				<path id="&lt;Path&gt;" class="s50" d="m542.3 1000l-364.9-835.7 0.2-0.1 364.9 835.8z"/>
				<path id="&lt;Path&gt;" class="s51" d="m1000 616.4l-822.6-452 0.1-0.2 822.5 452z"/>
				<path id="&lt;Path&gt;" class="s52" d="m523.9 1000l-346.5-835.7 0.2-0.1 346.5 835.8z"/>
				<path id="&lt;Path&gt;" class="s53" d="m1000 593.6l-822.6-429.2 0.1-0.2 822.5 429.3z"/>
				<path id="&lt;Path&gt;" class="s54" d="m583.9 1000l-406.5-835.7 0.2-0.1 406.5 835.8z"/>
				<path id="&lt;Path&gt;" class="s55" d="m1000 574.3l-822.6-409.9 0.1-0.2 822.5 410z"/>
				<path id="&lt;Path&gt;" class="s56" d="m0.1 820.5l-0.2-0.1 177.5-656.1h0.2z"/>
				<path id="&lt;Path&gt;" class="s57" d="m563.5 1000l-386.1-835.7 0.2-0.1 386.1 835.8z"/>
				<path id="&lt;Path&gt;" class="s58" d="m0.1 730.3l-0.2-0.1 177.5-565.9h0.2z"/>
				<path id="&lt;Path&gt;" class="s59" d="m0.1 690.4l-0.2-0.1 177.5-526.1 0.2 0.1z"/>
				<path id="&lt;Path&gt;" class="s60" d="m0.1 271.4l-0.2-0.2 177.5-107 0.1 0.2z"/>
				<path id="&lt;Path&gt;" class="s61" d="m0.1 769.5l-0.2-0.1 177.5-605.1h0.2z"/>
				<path id="&lt;Path&gt;" class="s62" d="m0.1 281.3l-0.2-0.2 177.5-116.9 0.1 0.2z"/>
				<path id="&lt;Path&gt;" class="s63" d="m0.1 876.5h-0.2l177.5-712.2h0.2z"/>
				<path id="&lt;Path&gt;" class="s64" d="m0.1 292l-0.2-0.1 177.5-127.7 0.1 0.2z"/>
				<path id="&lt;Path&gt;" class="s65" d="m0.1 276.6l-0.2-0.1 177.5-112.3 0.1 0.2z"/>
				<path id="&lt;Path&gt;" class="s66" d="m0.1 286.8l-0.2-0.2 177.5-122.4 0.1 0.2z"/>
			</g>
		</g>
	</g>
</svg>