<?xml version="1.0" encoding="utf-8"?>
<!-- Generator: Adobe Illustrator 24.3.0, SVG Export Plug-In . SVG Version: 6.00 Build 0)  -->
<svg version="1.1" id="Layer_1" xmlns="http://www.w3.org/2000/svg" xmlns:xlink="http://www.w3.org/1999/xlink" x="0px" y="0px"
	 viewBox="0 0 4000 392.4" style="enable-background:new 0 0 4000 392.4;" xml:space="preserve">
<style type="text/css">
	.st0{fill:#7367F0;}
</style>
<path class="st0" d="M4000,4.5c-0.8,0.1-2.5,0.5-2.5,0.5l-3.9,0.3l-2.4-0.1l-2.5,0.5l-0.4,1.3c-1.5,0.4-3.9,3.9-3.9,3.9l-2.9-0.7
	l-3.2-0.2l-4.3-0.9c-0.7,0-1.3-0.2-1.9-0.4c-0.7-0.3-3.7,0.9-3.7,0.9l-1.7-0.1h-5.9l-3.2-2.2l-3.8-1.8c0,0-3.4-0.3-5.1-0.2l-7.1,0.4
	l-2.7,0.2l-2.7-0.1l-2.2,0.4l-3.1,2l-3.7,0.5l-3,0.8c-1,0.3-11.7-1.3-11.7-1.3l-3.2,0l-1.9-0.1l-1,0.9l-2,0.4l-2.2-0.5l-2.2-0.5
	l-4.3,0.9l-2.2,0.4l-2.9-0.4l-13-4.5c0,0-0.6-2-5.6,0c-2.4,1-5,1.7-7.5,2.1l-2.4-0.8l-4.3-0.8l-7.3-0.3l-2.5,0.1l-3.2,0.5l-2.8,0.7
	l-2,0.2l-4-0.9l-1.7-0.2l-2.5,0.2l-3.7,0.3l-4.9-3.7l-5.3-1.1l-0.6,0.9l-3.4,1.8c-1.8,0.8-3.6,1.3-5.5,1.7l-5.9,0.7l-6.1-0.1
	l-1.4-0.4l-4.5-0.5l-2.2,0.4l-2.8,1.1l-1.8,1l-1.5,0.7l-1.7,0.8l-3.1,0.3l-3.3,0.6l-5.4,0.7l-4.9-0.2l-3.7-0.1l-1.6-0.8l-4.1-0.2
	l-4.5,0.6l-4.4,1.7l-2.5,0.1l-4.9-0.3l-2.4-0.1l-5.9-0.2l-2.9-0.1l-3.5-2.3l-5.4,0.7l-3.4,0.2l-3.4-0.3l-5.1-0.2l-3.9,1.1l-6.9,1.1
	l-2.8-0.1l-1.9-0.4L3684,7l-6.2,3.2l-5.8-1.1l-2.2-0.7l-5.7-0.6l-5.2,0.2l-8.1,3l-4.8-1.2l0.2-1.6l-1.3-0.2h-5.1l-1.5,0.9l-3.2,0.1
	l-0.6,1.2l-2.5-1.7l-4.2,0.6l-4.4,0.1l-8.1,0.2l-5.3-1.1l-1.2,0.1l-6,2.8l-4.7-1.7l-11.1-1.1c0,0-0.7-0.5-2.9-0.1
	c-2.2,0.4-11.4,1.2-11.4,1.2l-4.3,1.9l-3.7-0.1l-2.7-0.2c0,0-3,0.4-3.7,0.1c-0.7-0.3-2.6-1.2-3.9-1.2c-1,0-2,0-2.9,0l-11.3-0.3
	l-4.6-2.3l-6.9,0.4l-3.1-0.8l-2.1-1l-2.4-1l-3.5,0.7l-5,0.9l-8.6,0.4c0,0-2.1-1-2.7-0.4s-2.2,0.7-4.5,1.2c-1.1,0.3-2.2,0.6-3.3,1.1
	c-1.2,0.4-2.5,0.6-3.8,0.8c0,0-0.7,0.1-2,0.2c-1.8,0-3.6-0.2-5.3-0.5l-1.6-0.2l-2.8-4.7l-3.9-0.1l-8.5-1l-8.8-0.3
	c-0.7,0-10.6,0.5-10.6,0.5l-6.3-1.6V4l-1.7,3.3l-3.6,1.3l-1.7-1.4l-8.7-1.3l-3.4-0.1l-3,1l-5.4-1.2l-4.6-1.2l-2.8-0.7l-4.4-0.1
	l-1.6,0.7l-1.6,0.1l-7.5-0.5l-2-0.7l-5.7-0.2l-2.9-0.1l-1.8,2.2l-2.6,0.4l-6.2,3.4l-5.1-1.1l-2.2,1h-5.5h-1.3l-2.3-0.1l-4.8-1.2
	l-3.6-0.6l-1.8-0.7l-2.8-1l-2-0.8l0.4-1.8l-2.8-1.1c-1.5,1.4-2.2,1.6-2.3,2c0,0.4,0.7,1.1-0.1,1.2c-0.8,0.1-2.7,0.5-2.7,0.5
	l-4.2,0.3l-2.6-0.1l-2.7,0.5l-0.4,1.3c-1.6,0.4-4.2,3.9-4.2,3.9l-3-0.7l-3.4-0.3L3305,9c-0.7,0-1.4-0.1-2-0.4c-0.7-0.3-4,0.9-4,0.9
	l-1.8-0.1l-6.3,0l-3.4-2.2l-4-1.8c0,0-3.6-0.3-5.5-0.2l-7.6,0.3l-2.9,0.2l-2.9-0.1l-2.4,0.4l-3.3,2l-4,0.5l-3.2,0.8
	c-1.1,0.3-12.4-1.3-12.4-1.3h-3.4l-2.1-0.1l-1.1,0.8l-2.1,0.4l-2.3-0.5l-2.3-0.4l-4.5,0.9l-2.4,0.4l-3-0.4l-13.8-4.4
	c0,0-0.6-1.9-6,0c-2.6,1-5.3,1.7-8.1,2.1l-2.5-0.8l-4.6-0.8l-7.8-0.3l-2.6,0.1l-3.4,0.5l-2.9,0.7l-2.1,0.2l-4.3-0.9l-1.8-0.2
	l-2.6,0.2l-3.9,0.3l-5.2-3.7l-5.6-1.1l-0.6,0.9l-3.6,1.8c-1.9,0.8-3.9,1.3-5.9,1.7l-6.3,0.7l-6.5-0.1l-1.5-0.3l-4.7-0.4l-2.3,0.4
	l-2.9,1.1l-1.9,1l-1.6,0.7l-1.8,0.8l-3.3,0.3l-3.5,0.6l-5.8,0.7l-5.2-0.2l-3.9-0.1l-1.7-0.8l-4.4-0.1l-4.7,0.5l-4.6,1.7l-2.6,0.1
	l-5.2-0.3l-2.6-0.1l-6.3-0.2l-3-0.1l-3.8-2.4l-5.8,0.7l-3.7,0.2l-3.7-0.3l-5.4-0.2l-4.1,1.1l-7.3,1.1l-3-0.1l-2-0.4l-7.2-4.2
	l-6.6,3.2l-6.3-1.1l-2.3-0.7l-6.1-0.6L2969,8l-8.6,3l-5.1-1.2l0.2-1.6l-1.3-0.2h-5.5l-1.5,0.9l-3.4,0.1l-0.6,1.2l-2.7-1.7l-4.5,0.6
	l-4.7,0.2l-8.6,0.2l-5.6-1.1l-1.3,0.1l-6.4,2.8l-5.1-1.7l-11.9-1.1c0,0-0.7-0.5-3.1-0.1c-2.4,0.4-12.1,1.2-12.1,1.2l-4.5,1.9
	l-3.9-0.1l-2.8-0.2c0,0-3.2,0.4-4,0.1c-0.7-0.3-2.7-1.3-4-1.2c-1.3,0.1-3.1,0-3.1,0l-12.1-0.3l-4.9-2.2l-7.3,0.4l-3.3-0.8l-2.2-1
	l-2.5-0.9l-3.8,0.7l-5.3,0.9l-9.2,0.4c0,0-2.3-1-2.8-0.4c-0.6,0.6-2.4,0.7-4.8,1.2c-1.2,0.3-2.3,0.6-3.5,1.1c-1.3,0.4-2.6,0.6-4,0.8
	c0,0-0.8,0.1-2.1,0.2c-1.9-0.1-3.8-0.2-5.7-0.5l-1.8-0.2l-3-4.7l-4.2-0.1l-9-1l-9.4-0.3c-0.8,0-11.3,0.5-11.3,0.5l-7.4-1.8l-8.2-1.9
	l-1.6,0.4c0,0-4.3,0.9-8.5,2c-2.8,0.7-5.6,1.2-8.5,1.5c-4.5,0.6-6.6,0.7-6.6,0.7l-5.5,0.6l-8.5,1.4l-3.3,1.7l-2.3,2l-1.4,3.1h-10.8
	l4-0.4l4.1-4.8l-9.1,0.9l-3.5,0.9l0.9-1.5l-4.2-0.3l-1.5,0.7l-4.6-0.2l-1.6-1.4l-8.2-1.3l-3.2-0.1l-2.8,0.9l-5.1-1.2l-4.3-1.2
	l-2.6-0.7l-4.2-0.2l-1.5,0.7l-1.5,0.1l-7.1-0.5l-1.9-0.7l-5.4-0.2l-2.7-0.1l-1.7,2.2l-2.5,0.4l-5.9,3.4l-4.8-1.1l-2,1h-5.1h-1.2
	l-2.2-0.1l-4.5-1.2l-3.4-0.6l-1.6-0.7l-2.6-1l-1.9-0.8l0.4-1.8l-2.6-1.1c-1.4,1.4-2.1,1.6-2.2,2s0.6,1.1-0.1,1.2
	c-0.7,0.1-2.5,0.5-2.5,0.5l-3.9,0.3l-2.4-0.1l-2.5,0.5l-0.4,1.3c-1.5,0.4-3.9,3.9-3.9,3.9l-2.9-0.7l-3.2-0.2l-4.3-0.9
	c-0.7,0-1.3-0.2-1.9-0.4c-0.7-0.3-3.7,0.9-3.7,0.9l-1.7-0.1h-5.9l-3.2-2.2l-3.8-1.8c0,0-3.4-0.3-5.1-0.2l-7.1,0.4l-2.7,0.2l-2.7-0.1
	l-2.2,0.4l-3.1,2l-3.7,0.5l-3,0.8c-1,0.3-11.7-1.3-11.7-1.3l-3.2,0l-1.9-0.1l-1,0.9l-2,0.4l-2.2-0.5l-2.2-0.5l-4.3,0.9l-2.2,0.4
	l-2.9-0.4l-13-4.5c0,0-0.6-2-5.6,0c-2.4,1-5,1.7-7.5,2.1l-2.4-0.8l-4.3-0.8l-7.3-0.3l-2.5,0.1l-3.2,0.5l-2.8,0.7l-2,0.2l-4-0.9
	l-1.7-0.2l-2.5,0.2l-3.7,0.3l-4.9-3.7l-5.3-1.1l-0.6,0.9l-3.4,1.8c-1.8,0.8-3.6,1.3-5.5,1.7l-5.9,0.7l-6.1-0.1l-1.4-0.4l-4.5-0.5
	l-2.2,0.4l-2.8,1.1l-1.8,1l-1.5,0.7l-1.7,0.8l-3.1,0.3l-3.3,0.6l-5.4,0.7l-4.9-0.2l-3.7-0.1l-1.6-0.8l-4.1-0.2l-4.5,0.6l-4.4,1.7
	l-2.5,0.1l-4.9-0.3l-2.4-0.1l-5.9-0.2l-2.9-0.1l-3.5-2.3l-5.4,0.7l-3.4,0.2l-3.4-0.3l-5.1-0.2l-3.9,1.1l-6.9,1.1l-2.8-0.1l-1.9-0.4
	L2244,7l-6.2,3.2l-5.8-1.1l-2.2-0.7l-5.7-0.6l-5.2,0.2l-8.1,3l-4.8-1.2l0.2-1.6l-1.3-0.2h-5.1l-1.5,0.9l-3.2,0.1l-0.6,1.2l-2.5-1.7
	l-4.2,0.6l-4.4,0.1l-8.1,0.2l-5.3-1.1l-1.2,0.1l-6,2.8l-4.7-1.7l-11.1-1.1c0,0-0.7-0.5-2.9-0.1c-2.2,0.4-11.4,1.2-11.4,1.2l-4.3,1.9
	l-3.7-0.1l-2.7-0.2c0,0-3,0.4-3.7,0.1c-0.7-0.3-2.6-1.2-3.9-1.2c-1,0-2,0-2.9,0l-11.3-0.3l-4.6-2.3l-6.9,0.4l-3.1-0.8l-2.1-1l-2.4-1
	l-3.5,0.7l-5,0.9l-8.6,0.4c0,0-2.1-1-2.7-0.4s-2.2,0.7-4.5,1.2c-1.1,0.3-2.2,0.6-3.3,1.1c-1.2,0.4-2.5,0.6-3.8,0.8
	c0,0-0.7,0.1-2,0.2c-1.8,0-3.6-0.2-5.3-0.5l-1.6-0.2l-2.8-4.7l-3.9-0.1l-8.5-1l-8.8-0.3c-0.7,0-10.6,0.5-10.6,0.5l-6.3-1.6V4
	l-1.7,3.3l-3.6,1.3l-1.7-1.4l-8.7-1.3l-3.4-0.1l-3,1l-5.4-1.2l-4.6-1.2l-2.8-0.7l-4.4-0.1l-1.6,0.7l-1.6,0.1l-7.5-0.5l-2-0.7
	l-5.7-0.2l-2.9-0.1l-1.8,2.2l-2.6,0.4l-6.2,3.4l-5.1-1.1l-2.2,1h-5.5h-1.3l-2.3-0.1l-4.8-1.2l-3.6-0.6l-1.8-0.7l-2.8-1l-2-0.8
	l0.4-1.8l-2.8-1.1c-1.5,1.4-2.2,1.6-2.3,2c0,0.4,0.7,1.1-0.1,1.2c-0.8,0.1-2.7,0.5-2.7,0.5l-4.2,0.3l-2.6-0.1l-2.7,0.5l-0.4,1.3
	c-1.6,0.4-4.2,3.9-4.2,3.9l-3-0.7l-3.4-0.3L1865,9c-0.7,0-1.4-0.1-2-0.4c-0.7-0.3-4,0.9-4,0.9l-1.8-0.1l-6.3,0l-3.4-2.2l-4-1.8
	c0,0-3.6-0.3-5.5-0.2l-7.6,0.3l-2.9,0.2l-2.9-0.1l-2.4,0.4l-3.3,2l-4,0.5l-3.2,0.8c-1.1,0.3-12.4-1.3-12.4-1.3h-3.4l-2.1-0.1
	l-1.1,0.8l-2.1,0.4l-2.3-0.5l-2.3-0.4l-4.5,0.9l-2.4,0.4l-3-0.4l-13.8-4.4c0,0-0.6-1.9-6,0c-2.6,1-5.3,1.7-8.1,2.1l-2.5-0.8
	l-4.6-0.8l-7.8-0.3l-2.6,0.1l-3.4,0.5l-2.9,0.7l-2.1,0.2l-4.3-0.9l-1.8-0.2l-2.6,0.2l-3.9,0.3l-5.2-3.7l-5.6-1.1l-0.6,0.9l-3.6,1.8
	c-1.9,0.8-3.9,1.3-5.9,1.7l-6.3,0.7l-6.5-0.1l-1.5-0.3l-4.7-0.4l-2.3,0.4l-2.9,1.1l-1.9,1l-1.6,0.7l-1.8,0.8l-3.3,0.3l-3.5,0.6
	l-5.8,0.7l-5.2-0.2l-3.9-0.1l-1.7-0.8l-4.4-0.1l-4.7,0.5l-4.6,1.7l-2.6,0.1l-5.2-0.3l-2.6-0.1l-6.3-0.2l-3-0.1l-3.8-2.4l-5.8,0.7
	l-3.7,0.2l-3.7-0.3l-5.4-0.2l-4.1,1.1l-7.3,1.1l-3-0.1l-2-0.4l-7.2-4.2l-6.6,3.2l-6.3-1.1l-2.3-0.7l-6.1-0.6L1529,8l-8.6,3l-5.1-1.2
	l0.2-1.6l-1.3-0.2h-5.5l-1.5,0.9l-3.4,0.1l-0.6,1.2l-2.7-1.7l-4.5,0.6l-4.7,0.2l-8.6,0.2l-5.6-1.1l-1.3,0.1l-6.4,2.8l-5.1-1.7
	l-11.9-1.1c0,0-0.7-0.5-3.1-0.1c-2.4,0.4-12.1,1.2-12.1,1.2l-4.5,1.9l-3.9-0.1l-2.8-0.2c0,0-3.2,0.4-4,0.1c-0.7-0.3-2.7-1.3-4-1.2
	c-1.3,0.1-3.1,0-3.1,0l-12.1-0.3l-4.9-2.2l-7.3,0.4l-3.3-0.8l-2.2-1l-2.5-0.9l-3.8,0.7l-5.3,0.9l-9.2,0.4c0,0-2.3-1-2.8-0.4
	c-0.6,0.6-2.4,0.7-4.8,1.2c-1.2,0.3-2.3,0.6-3.5,1.1c-1.3,0.4-2.6,0.6-4,0.8c0,0-0.8,0.1-2.1,0.2c-1.9-0.1-3.8-0.2-5.7-0.5l-1.8-0.2
	l-3-4.7l-4.2-0.1l-9-1l-9.4-0.3c-0.8,0-11.3,0.5-11.3,0.5l-7.4-1.8l-8.2-1.9l-1.6,0.4c0,0-4.3,0.9-8.5,2c-2.8,0.7-5.6,1.2-8.5,1.5
	c-4.5,0.6-6.6,0.7-6.6,0.7l-5.5,0.6l-8.5,1.4l-3.3,1.7l-2.3,2l-1.4,3.1h-10.8l4-0.4l4.1-4.8l-9.1,0.9l-3.5,0.9l0.9-1.5l-4.2-0.3
	l-1.5,0.7l-4.6-0.2l-1.6-1.4l-8.2-1.3l-3.2-0.1l-2.8,0.9l-5.1-1.2l-4.3-1.2l-2.6-0.7l-4.2-0.2l-1.5,0.7l-1.5,0.1l-7.1-0.5l-1.9-0.7
	l-5.4-0.2l-2.7-0.1l-1.7,2.2l-2.5,0.4l-5.9,3.4l-4.8-1.1l-2,1h-5.1h-1.2l-2.2-0.1l-4.5-1.2l-3.4-0.6l-1.6-0.7l-2.6-1l-1.9-0.8
	l0.4-1.8l-2.6-1.1c-1.4,1.4-2.1,1.6-2.2,2c0,0.4,0.6,1.1-0.1,1.2c-0.7,0.1-2.5,0.5-2.5,0.5l-3.9,0.3l-2.4-0.1l-2.5,0.5l-0.4,1.3
	c-1.5,0.4-3.9,3.9-3.9,3.9l-2.9-0.7l-3.2-0.2l-4.3-0.9c-0.7,0-1.3-0.2-1.9-0.4c-0.7-0.3-3.7,0.9-3.7,0.9l-1.7-0.1h-5.9l-3.2-2.2
	l-3.8-1.8c0,0-3.4-0.3-5.1-0.2l-7.1,0.4l-2.7,0.2l-2.7-0.1l-2.2,0.4l-3.1,2l-3.7,0.5l-3,0.8c-1,0.3-11.7-1.3-11.7-1.3l-3.2,0
	l-1.9-0.1l-1,0.9l-2,0.4l-2.2-0.5l-2.2-0.5l-4.3,0.9l-2.2,0.4l-2.9-0.4l-13-4.5c0,0-0.6-2-5.6,0c-2.4,1-5,1.7-7.5,2.1L982,6.1
	l-4.3-0.8L970.4,5l-2.5,0.1l-3.2,0.5l-2.8,0.7l-2,0.2l-4-0.9l-1.7-0.2l-2.5,0.2l-3.7,0.3l-4.9-3.7l-5.3-1.1L937.3,2l-3.4,1.8
	c-1.8,0.8-3.6,1.3-5.5,1.7l-5.9,0.7l-6.1-0.1l-1.4-0.4l-4.5-0.5l-2.2,0.4l-2.8,1.1l-1.8,1l-1.5,0.7l-1.7,0.8l-3.1,0.3l-3.3,0.6
	l-5.4,0.7l-4.9-0.2l-3.7-0.1l-1.6-0.8l-4.1-0.2l-4.5,0.6l-4.4,1.7l-2.5,0.1l-4.9-0.3l-2.4-0.1l-5.9-0.2l-2.9-0.1L843.5,9l-5.4,0.7
	l-3.4,0.2l-3.4-0.3l-5.1-0.2l-3.9,1.1l-6.9,1.1l-2.8-0.1l-1.9-0.4L804,7l-6.2,3.2L792,9.1l-2.2-0.7l-5.7-0.6L778.9,8l-8.1,3L766,9.8
	l0.2-1.6L764.9,8h-5.1l-1.5,0.9L755.1,9l-0.6,1.2L752,8.5L747.8,9l-4.4,0.1l-8.1,0.2L730,8.3l-1.2,0.1l-6,2.8l-4.7-1.7l-11.1-1.1
	c0,0-0.7-0.5-2.9-0.1c-2.2,0.4-11.4,1.2-11.4,1.2l-4.3,1.9l-3.7-0.1l-2.7-0.2c0,0-3,0.4-3.7,0.1c-0.7-0.3-2.6-1.2-3.9-1.2
	c-1,0-2,0-2.9,0l-11.3-0.3l-4.6-2.3l-6.9,0.4L645.6,7l-2.1-1l-2.4-1l-3.5,0.7l-5,0.9L624,7.1c0,0-2.1-1-2.7-0.4s-2.2,0.7-4.5,1.2
	c-1.1,0.3-2.2,0.6-3.3,1.1c-1.2,0.4-2.5,0.6-3.8,0.8c0,0-0.7,0.1-2,0.2c-1.8,0-3.6-0.2-5.3-0.5l-1.6-0.2L598,4.6l-3.9-0.1l-8.5-1
	l-8.8-0.3c-0.7,0-10.6,0.5-10.6,0.5L560,2.1V4l-1.7,3.3l-3.6,1.3l-1.7-1.4l-8.7-1.3l-3.4-0.1l-3,1l-5.4-1.2L528,4.3l-2.8-0.7
	l-4.4-0.1l-1.6,0.7l-1.6,0.1l-7.5-0.5l-2-0.7l-5.7-0.2l-2.9-0.1l-1.8,2.2l-2.6,0.4l-6.2,3.4l-5.1-1.1l-2.2,1H476h-1.3l-2.3-0.1
	l-4.8-1.2L464,6.7L462.2,6l-2.8-1l-2-0.8l0.4-1.8l-2.8-1.1c-1.5,1.4-2.2,1.6-2.3,2c0,0.4,0.7,1.1-0.1,1.2C451.9,4.6,450,5,450,5
	l-4.2,0.3l-2.6-0.1l-2.7,0.5L440.2,7c-1.6,0.4-4.2,3.9-4.2,3.9l-3-0.7l-3.4-0.3L425,9c-0.7,0-1.4-0.1-2-0.4c-0.7-0.3-4,0.9-4,0.9
	l-1.8-0.1l-6.3,0l-3.4-2.2l-4-1.8c0,0-3.6-0.3-5.5-0.2l-7.6,0.3l-2.9,0.2l-2.9-0.1l-2.4,0.4l-3.3,2l-4,0.5l-3.2,0.8
	c-1.1,0.3-12.4-1.3-12.4-1.3h-3.4L353.8,8l-1.1,0.8l-2.1,0.4l-2.3-0.5l-2.3-0.4l-4.5,0.9L339,9.6l-3-0.4l-13.8-4.4c0,0-0.6-1.9-6,0
	c-2.6,1-5.3,1.7-8.1,2.1l-2.5-0.8L301,5.3L293.2,5l-2.6,0.1l-3.4,0.5l-2.9,0.7l-2.1,0.2l-4.3-0.9l-1.8-0.2l-2.6,0.2l-3.9,0.3
	l-5.2-3.7L258.5,1l-0.6,0.9l-3.6,1.8c-1.9,0.8-3.9,1.3-5.9,1.7l-6.3,0.7l-6.5-0.1L234,5.8l-4.7-0.4L227,5.7l-2.9,1.1l-1.9,1
	l-1.6,0.7l-1.8,0.8l-3.3,0.3l-3.5,0.6l-5.8,0.7l-5.2-0.2l-3.9-0.1l-1.7-0.8l-4.4-0.1l-4.7,0.5l-4.6,1.7l-2.6,0.1l-5.2-0.3l-2.6-0.1
	l-6.3-0.2l-3-0.1L157.9,9l-5.8,0.7l-3.7,0.2l-3.7-0.3l-5.4-0.2l-4.1,1.1l-7.3,1.1l-3-0.1l-2-0.4l-7.2-4.2l-6.6,3.2L102.9,9l-2.3-0.7
	l-6.1-0.6L89,8l-8.6,3l-5.1-1.2l0.2-1.6L74.2,8h-5.5l-1.5,0.9L63.7,9l-0.6,1.2l-2.7-1.7L55.9,9l-4.7,0.2l-8.6,0.2l-5.6-1.1l-1.3,0.1
	l-6.4,2.8l-5.1-1.7L12.3,8.4c0,0-0.7-0.5-3.1-0.1C7.6,8.5,3.1,9,0,9.3v373.6l4.1,0.2l3.2,2.2L11,387c0,0,3.4,0.3,5.1,0.2l7.1-0.3
	l2.7-0.2l2.7,0.1l2.2-0.4l3.1-2l3.7-0.5l3-0.8c1-0.3,11.7,1.3,11.7,1.3h3.2l1.9,0.1l1-0.9l2-0.4l2.2,0.5l2.2,0.4l4.3-0.9l2.2-0.4
	l2.8,0.4l12.9,4.5c0,0,0.6,2,5.6,0c2.4-1,5-1.7,7.5-2.1l2.4,0.8l4.3,0.8l7.3,0.3l2.5-0.1l3.2-0.5l2.8-0.7l2-0.2l4,0.9l1.7,0.2
	l2.5-0.2l3.7-0.3l4.9,3.7l5.3,1.1l0.6-0.9l3.4-1.8c1.8-0.7,3.6-1.3,5.5-1.7l5.9-0.7l6.1,0.1l1.4,0.3l4.4,0.5l2.2-0.4l2.8-1.1l1.8-1
	l1.5-0.7l1.7-0.8l3.1-0.3l3.3-0.6l5.4-0.7l4.9,0.2l3.7,0.1l1.6,0.8l4.2,0.2l4.5-0.6l4.3-1.7l2.4-0.1l4.9,0.3l2.4,0.1l5.9,0.2
	l2.9,0.1l3.5,2.4l5.5-0.7l3.4-0.2l3.4,0.3l5.1,0.2l3.8-1.1l6.9-1.1l2.8,0.1l1.9,0.4l6.7,4.2l6.2-3.2l5.8,1.1l2.2,0.7l5.7,0.6
	l5.2-0.3l8.1-3l4.8,1.2l-0.2,1.6l1.2,0.2h5.1l1.5-0.9l3.2-0.2l0.6-1.2l2.5,1.7l4.2-0.6l4.4-0.1l8.1-0.2l5.3,1.1l1.2-0.1l6-2.8
	l4.7,1.7l11.1,1.1c0,0,0.7,0.5,2.9,0.1s11.4-1.2,11.4-1.2l4.3-1.9l3.7,0.1l2.7,0.2c0,0,3-0.4,3.7-0.1c0.7,0.3,2.6,1.3,3.8,1.2
	c1,0,2,0,2.9,0l11.3,0.3l4.6,2.3l6.9-0.4l3.1,0.8l2.1,1l2.4,0.9l3.5-0.7l5-0.9l8.6-0.5c0,0,2.1,1,2.7,0.4c0.5-0.6,2.3-0.7,4.5-1.2
	c1.1-0.3,2.2-0.6,3.3-1.1c1.2-0.4,2.5-0.6,3.7-0.8c0,0,0.7-0.1,2-0.2c1.8,0,3.6,0.2,5.3,0.5l1.7,0.2l2.8,4.7l3.9,0.1l8.5,1l8.8,0.3
	c0.7,0,10.6-0.5,10.6-0.5l6.9,1.7l7.7,1.9l1.5-0.4c0,0,4-0.9,8-2c2.6-0.7,5.3-1.2,8-1.5c4.2-0.6,6.2-0.7,6.2-0.7l3.3,0.8v0.3
	l3.9,0.1l1.6-0.7l1.6-0.1l7.5,0.5l2,0.7l5.7,0.2l2.9,0.1l1.8-2.2l2.6-0.4l6.3-3.4l5.1,1.1l2.2-1h5.5h1.3l2.3,0.1l4.8,1.2l3.6,0.6
	l1.8,0.7l2.8,1l2,0.8l-0.4,1.8l2.7,1.1c1.5-1.5,2.3-1.6,2.3-2s-0.7-1.1,0.1-1.2c0.8-0.1,2.7-0.5,2.7-0.5l4.2-0.3l2.6,0.1l2.7-0.5
	l0.4-1.3c1.6-0.4,4.2-3.9,4.2-3.9l3,0.7l3.4,0.3l4.6,0.9c0.7,0,1.4,0.2,2,0.4c0.7,0.3,4-0.9,4-0.9l1.8,0.1l6.3,0l3.4,2.2l4,1.8
	c0,0,3.6,0.3,5.5,0.2l7.6-0.3l2.9-0.2l2.9,0.1l2.4-0.4l3.3-2l4-0.5l3.2-0.8c1.1-0.3,12.4,1.3,12.4,1.3h3.4l2.1,0.1l1.1-0.9l2.1-0.4
	l2.3,0.5l2.3,0.4l4.5-0.9l2.4-0.4l3,0.4l13.8,4.5c0,0,0.6,2,6,0c2.6-1,5.3-1.7,8.1-2.1l2.5,0.8l4.6,0.8l7.8,0.3l2.6-0.1l3.4-0.5
	l2.9-0.7l2.1-0.1l4.3,0.9l1.8,0.2l2.6-0.2l3.9-0.3l5.2,3.7l5.6,1.1l0.6-0.9l3.6-1.8c1.9-0.8,3.9-1.3,5.9-1.7l6.3-0.7l6.5,0.1
	l1.5,0.3l4.7,0.5l2.3-0.4l3-1.1l1.9-1l1.6-0.6l1.8-0.8l3.3-0.3l3.5-0.6l5.8-0.7l5.2,0.2l3.9,0.1l1.7,0.8l4.4,0.1l4.8-0.5l4.6-1.7
	l2.6-0.1l5.2,0.3l2.6,0.1l6.3,0.2l3,0.1l3.8,2.3l5.8-0.7l3.7-0.2l3.7,0.3l5.4,0.2l4.1-1.1l7.3-1.1l3,0.1l2,0.4l7.2,4.2l6.6-3.2
	l6.2,1.1l2.3,0.7l6.1,0.6l5.5-0.3l8.7-3l5.1,1.2l-0.2,1.6l1.3,0.2h5.5l1.6-0.9l3.4-0.2l0.6-1.2l2.7,1.7l4.5-0.6l4.7-0.1l8.6-0.2
	l5.6,1.1l1.3-0.1l6.4-2.8l5.1,1.7l12,1.1c0,0,0.7,0.5,3.1,0.1c2.4-0.4,12.1-1.2,12.1-1.2l4.5-1.9l3.9,0.1l2.8,0.2c0,0,3.2-0.4,4-0.1
	s2.7,1.3,4,1.2c1.3-0.1,3.1,0,3.1,0l12.1,0.3l4.9,2.3l7.3-0.4l3.3,0.9l2.3,1l2.5,0.9l3.7-0.7l5.3-0.9l9.2-0.4c0,0,2.3,1,2.8,0.4
	c0.6-0.6,2.4-0.7,4.8-1.2c1.2-0.3,2.4-0.6,3.5-1.1c1.3-0.4,2.7-0.6,4-0.8c0,0,0.8-0.1,2.1-0.2c1.9,0.1,3.8,0.2,5.7,0.5l1.8,0.2
	l3,4.7l4.2,0.1l9.1,1l9.4,0.3c0.8,0,11.3-0.5,11.3-0.5l7.4,1.7l8.2,1.9l1.6-0.4c0,0,4.3-0.9,8.5-2c2.8-0.7,5.6-1.2,8.5-1.5
	c4.5-0.6,6.6-0.7,6.6-0.7l5.5-0.6l8.5-1.4l3.3-1.7l2.3-2l1.6-3.6h15.2l-8.6,0.9l-4.1,4.9l9.1-0.9l3.5-0.9l-0.9,1.5l4.1,0.3l1.5-0.7
	l4.6,0.2l1.6,1.4l8.2,1.3l3.2,0.1l2.8-0.9l5.1,1.2l4.3,1.2l2.6,0.7l4.1,0.1l1.5-0.7l1.5-0.1l7.1,0.5l1.9,0.7l5.4,0.2l2.7,0.1
	l1.7-2.2l2.5-0.4l5.9-3.4l4.8,1.1l2-1h5.1h1.2l2.2,0.1l4.5,1.2l3.4,0.6l1.7,0.7l2.6,1l1.9,0.8l-0.4,1.8l2.6,1.1
	c1.4-1.5,2.1-1.6,2.2-2s-0.6-1.1,0.1-1.2c0.7-0.1,2.5-0.5,2.5-0.5l3.9-0.3l2.4,0.1l2.5-0.5l0.4-1.3c1.5-0.4,3.9-3.9,3.9-3.9l2.9,0.7
	l3.2,0.3l4.3,0.9c0.7,0,1.3,0.2,1.9,0.4c0.7,0.3,3.7-0.9,3.7-0.9l1.7,0.1l5.8,0.2l3.2,2.2l3.7,1.8c0,0,3.4,0.3,5.1,0.2l7.1-0.3
	l2.7-0.2l2.7,0.1l2.2-0.4l3.1-2l3.7-0.5l3-0.8c1-0.3,11.7,1.3,11.7,1.3h3.2l1.9,0.1l1-0.9l2-0.4l2.2,0.5l2.2,0.4l4.3-0.9l2.2-0.4
	l2.8,0.4l12.9,4.5c0,0,0.6,2,5.6,0c2.4-1,5-1.7,7.5-2.1l2.4,0.8l4.3,0.8l7.3,0.3l2.5-0.1l3.2-0.5l2.8-0.7l2-0.2l4,0.9l1.7,0.2
	l2.5-0.2l3.7-0.3l4.9,3.7l5.3,1.1l0.6-0.9l3.4-1.8c1.8-0.7,3.6-1.3,5.5-1.7l5.9-0.7l6.1,0.1l1.4,0.3l4.4,0.5l2.2-0.4l2.8-1.1l1.8-1
	l1.5-0.7l1.7-0.8l3.1-0.3l3.3-0.6l5.4-0.7l4.9,0.2l3.7,0.1l1.6,0.8l4.2,0.2l4.5-0.6l4.3-1.7l2.4-0.1l4.9,0.3l2.4,0.1l5.9,0.2
	l2.9,0.1l3.5,2.4l5.5-0.7l3.4-0.2l3.4,0.3l5,0.2l3.8-1.1l6.9-1.1l2.8,0.1l1.9,0.4l6.7,4.2l6.2-3.2l5.8,1.1l2.2,0.7l5.7,0.6l5.2-0.3
	l8.1-3l4.8,1.2l-0.2,1.6l1.2,0.2h5.1l1.5-0.9l3.2-0.2l0.6-1.2l2.5,1.7l4.2-0.6l4.4-0.1l8.1-0.2l5.3,1.1l1.2-0.1l6-2.8l4.7,1.7
	l11.1,1.1c0,0,0.7,0.5,2.9,0.1s11.4-1.2,11.4-1.2l4.3-1.9l3.7,0.1l2.7,0.2c0,0,3-0.4,3.7-0.1s2.6,1.3,3.8,1.2c1,0,2,0,2.9,0
	l11.3,0.3l4.6,2.3l6.9-0.4l3.1,0.8l2.1,1l2.4,0.9l3.5-0.7l5-0.9l8.6-0.5c0,0,2.1,1,2.7,0.4c0.5-0.6,2.3-0.7,4.5-1.2
	c1.1-0.3,2.2-0.6,3.3-1.1c1.2-0.4,2.5-0.6,3.7-0.8c0,0,0.7-0.1,2-0.2c1.8,0,3.6,0.2,5.3,0.5l1.7,0.2l2.8,4.7l3.9,0.1l8.5,1l8.8,0.3
	c0.7,0,10.6-0.5,10.6-0.5l6.9,1.7l7.7,1.9l1.5-0.4c0,0,4-0.9,8-2c2.6-0.7,5.3-1.2,8-1.5c4.2-0.6,6.2-0.7,6.2-0.7l3.3,0.8v0.3
	l3.9,0.1l1.6-0.7l1.6-0.1l7.5,0.5l2,0.7l5.7,0.2l2.9,0.1l1.8-2.2l2.6-0.4l6.3-3.4l5.1,1.1l2.2-1h5.5h1.3l2.3,0.1l4.8,1.2l3.6,0.6
	l1.8,0.7l2.8,1l2,0.8l-0.4,1.8l2.7,1.1c1.5-1.5,2.3-1.6,2.3-2c0-0.4-0.7-1.1,0.1-1.2c0.8-0.1,2.7-0.5,2.7-0.5l4.2-0.3l2.6,0.1
	l2.7-0.5l0.4-1.3c1.6-0.4,4.2-3.9,4.2-3.9l3,0.7l3.4,0.3l4.6,0.9c0.7,0,1.4,0.2,2,0.4c0.7,0.3,4-0.9,4-0.9l1.8,0.1l6.3,0l3.4,2.2
	l4,1.8c0,0,3.6,0.3,5.5,0.2l7.6-0.3l2.9-0.2l2.9,0.1l2.4-0.4l3.3-2l4-0.5l3.2-0.8c1.1-0.3,12.4,1.3,12.4,1.3h3.4l2.1,0.1l1.1-0.9
	l2.1-0.4l2.3,0.5l2.3,0.4l4.5-0.9l2.4-0.4l3,0.4l13.8,4.5c0,0,0.6,2,6,0c2.6-1,5.3-1.7,8.1-2.1l2.5,0.8l4.6,0.8l7.8,0.3l2.6-0.1
	l3.4-0.5l2.9-0.7l2.1-0.1l4.3,0.9l1.8,0.2l2.6-0.2l3.9-0.3l5.2,3.7l5.6,1.1l0.6-0.9l3.6-1.8c1.9-0.8,3.9-1.3,5.9-1.7l6.3-0.7
	l6.5,0.1l1.5,0.3l4.7,0.5l2.3-0.4l3-1.1l1.9-1l1.6-0.6l1.8-0.8l3.3-0.3l3.5-0.6l5.8-0.7l5.2,0.2l3.9,0.1l1.7,0.8l4.4,0.1l4.8-0.5
	l4.6-1.7l2.6-0.1l5.2,0.3l2.6,0.1l6.3,0.2l3,0.1l3.8,2.3l5.8-0.7l3.7-0.2l3.7,0.3l5.4,0.2l4.1-1.1l7.3-1.1l3,0.1l2,0.4l7.2,4.2
	l6.6-3.2l6.2,1.1l2.3,0.7l6.1,0.6l5.5-0.3l8.7-3l5.1,1.2l-0.2,1.6l1.3,0.2h5.5l1.6-0.9l3.4-0.2l0.6-1.2l2.7,1.7l4.5-0.6l4.7-0.1
	l8.6-0.2l5.6,1.1l1.3-0.1l6.4-2.8l5.1,1.7l12,1.1c0,0,0.7,0.5,3.1,0.1c2.4-0.4,12.1-1.2,12.1-1.2l4.5-1.9l3.9,0.1l2.8,0.2
	c0,0,3.2-0.4,4-0.1c0.7,0.3,2.7,1.3,4,1.2c1.3-0.1,3.1,0,3.1,0l12.1,0.3l4.9,2.3l7.3-0.4l3.3,0.9l2.3,1l2.5,0.9l3.7-0.7l5.3-0.9
	l9.2-0.4c0,0,2.3,1,2.8,0.4c0.6-0.6,2.4-0.7,4.8-1.2c1.2-0.3,2.4-0.6,3.5-1.1c1.3-0.4,2.7-0.6,4-0.8c0,0,0.8-0.1,2.1-0.2
	c1.9,0.1,3.8,0.2,5.7,0.5l1.8,0.2l3,4.7l4.2,0.1l9.1,1l9.4,0.3c0.8,0,11.3-0.5,11.3-0.5l7.4,1.7l8.2,1.9l1.6-0.4c0,0,4.3-0.9,8.5-2
	c2.8-0.7,5.6-1.2,8.5-1.5c4.5-0.6,6.6-0.7,6.6-0.7l5.5-0.6l8.5-1.4l3.3-1.7l2.3-2l1.6-3.6h15.2l-8.6,0.9l-4.1,4.9l9.1-0.9l3.5-0.9
	l-0.9,1.5l4.1,0.3l1.5-0.7l4.6,0.2l1.6,1.4l8.2,1.3l3.2,0.1l2.8-0.9l5.1,1.2l4.3,1.2l2.6,0.7l4.1,0.1l1.5-0.7l1.5-0.1l7.1,0.5
	l1.9,0.7l5.4,0.2l2.7,0.1l1.7-2.2l2.5-0.4l5.9-3.4l4.8,1.1l2-1h5.1h1.2l2.2,0.1l4.5,1.2l3.4,0.6l1.7,0.7l2.6,1l1.9,0.8l-0.4,1.8
	l2.6,1.1c1.4-1.5,2.1-1.6,2.2-2c0-0.4-0.6-1.1,0.1-1.2c0.7-0.1,2.5-0.5,2.5-0.5l3.9-0.3l2.4,0.1l2.5-0.5l0.4-1.3
	c1.5-0.4,3.9-3.9,3.9-3.9l2.9,0.7l3.2,0.3l4.3,0.9c0.7,0,1.3,0.2,1.9,0.4c0.7,0.3,3.7-0.9,3.7-0.9l1.7,0.1l5.8,0.2l3.2,2.2l3.7,1.8
	c0,0,3.4,0.3,5.1,0.2l7.1-0.3l2.7-0.2l2.7,0.1l2.2-0.4l3.1-2l3.7-0.5l3-0.8c1-0.3,11.7,1.3,11.7,1.3h3.2l1.9,0.1l1-0.9l2-0.4
	l2.2,0.5l2.2,0.4l4.3-0.9l2.2-0.4l2.8,0.4l12.9,4.5c0,0,0.6,2,5.6,0c2.4-1,5-1.7,7.5-2.1l2.4,0.8l4.3,0.8l7.3,0.3l2.5-0.1l3.2-0.5
	l2.8-0.7l2-0.2l4,0.9l1.7,0.2l2.5-0.2l3.7-0.3l4.9,3.7l5.3,1.1l0.6-0.9l3.4-1.8c1.8-0.7,3.6-1.3,5.5-1.7l5.9-0.7l6.1,0.1l1.4,0.3
	l4.4,0.5l2.2-0.4l2.8-1.1l1.8-1l1.5-0.7l1.7-0.8l3.1-0.3l3.3-0.6l5.4-0.7l4.9,0.2l3.7,0.1l1.6,0.8l4.2,0.2l4.5-0.6l4.3-1.7l2.4-0.1
	l4.9,0.3l2.4,0.1l5.9,0.2l2.9,0.1l3.5,2.4l5.5-0.7l3.4-0.2l3.4,0.3l5,0.2l3.8-1.1l6.9-1.1l2.8,0.1l1.9,0.4l6.7,4.2l6.2-3.2l5.8,1.1
	l2.2,0.7l5.7,0.6l5.2-0.3l8.1-3l4.8,1.2l-0.2,1.6l1.2,0.2h5.1l1.5-0.9l3.2-0.2l0.6-1.2l2.5,1.7l4.2-0.6l4.4-0.1l8.1-0.2l5.3,1.1
	l1.2-0.1l6-2.8l4.7,1.7l11.1,1.1c0,0,0.7,0.5,2.9,0.1s11.4-1.2,11.4-1.2l4.3-1.9l3.7,0.1l2.7,0.2c0,0,3-0.4,3.7-0.1s2.6,1.3,3.8,1.2
	c1,0,2,0,2.9,0l11.3,0.3l4.6,2.3l6.9-0.4l3.1,0.8l2.1,1l2.4,0.9l3.5-0.7l5-0.9l8.6-0.5c0,0,2.1,1,2.7,0.4c0.5-0.6,2.3-0.7,4.5-1.2
	c1.1-0.3,2.2-0.6,3.3-1.1c1.2-0.4,2.5-0.6,3.7-0.8c0,0,0.7-0.1,2-0.2c1.8,0,3.6,0.2,5.3,0.5l1.7,0.2l2.8,4.7l3.9,0.1l8.5,1l8.8,0.3
	c0.7,0,10.6-0.5,10.6-0.5l6.9,1.7l7.7,1.9l1.5-0.4c0,0,4-0.9,8-2c2.6-0.7,5.3-1.2,8-1.5c4.2-0.6,6.2-0.7,6.2-0.7l3.3,0.8v0.3
	l3.9,0.1l1.6-0.7l1.6-0.1l7.5,0.5l2,0.7l5.7,0.2l2.9,0.1l1.8-2.2l2.6-0.4l6.3-3.4l5.1,1.1l2.2-1h5.5h1.3l2.3,0.1l4.8,1.2l3.6,0.6
	l1.8,0.7l2.8,1l2,0.8l-0.4,1.8l2.7,1.1c1.5-1.5,2.3-1.6,2.3-2s-0.7-1.1,0.1-1.2c0.8-0.1,2.7-0.5,2.7-0.5l4.2-0.3l2.6,0.1l2.7-0.5
	l0.4-1.3c1.6-0.4,4.2-3.9,4.2-3.9l3,0.7l3.4,0.3l4.6,0.9c0.7,0,1.4,0.2,2,0.4c0.7,0.3,4-0.9,4-0.9l1.8,0.1l6.3,0l3.4,2.2l4,1.8
	c0,0,3.6,0.3,5.5,0.2l7.6-0.3l2.9-0.2l2.9,0.1l2.4-0.4l3.3-2l4-0.5l3.2-0.8c1.1-0.3,12.4,1.3,12.4,1.3h3.4l2.1,0.1l1.1-0.9l2.1-0.4
	l2.3,0.5l2.3,0.4l4.5-0.9l2.4-0.4l3,0.4l13.8,4.5c0,0,0.6,2,6,0c2.6-1,5.3-1.7,8.1-2.1l2.5,0.8l4.6,0.8l7.8,0.3l2.6-0.1l3.4-0.5
	l2.9-0.7l2.1-0.1l4.3,0.9l1.8,0.2l2.6-0.2l3.9-0.3l5.2,3.7l5.6,1.1l0.6-0.9l3.6-1.8c1.9-0.8,3.9-1.3,5.9-1.7l6.3-0.7l6.5,0.1
	l1.5,0.3l4.7,0.5l2.3-0.4l3-1.1l1.9-1l1.6-0.6l1.8-0.8l3.3-0.3l3.5-0.6l5.8-0.7l5.2,0.2l3.9,0.1l1.7,0.8l4.4,0.1l4.8-0.5l4.6-1.7
	l2.6-0.1l5.2,0.3l2.6,0.1l6.3,0.2l3,0.1l3.8,2.3l5.8-0.7l3.7-0.2l3.7,0.3l5.4,0.2l4.1-1.1l7.3-1.1l3,0.1l2,0.4l7.2,4.2l6.6-3.2
	l6.2,1.1l2.3,0.7l6.1,0.6l5.5-0.3l8.7-3l5,1.2l-0.2,1.6l1.3,0.2h5.5l1.6-0.9l3.4-0.2l0.6-1.2l2.7,1.7l4.5-0.6l4.7-0.1l8.6-0.2
	l5.6,1.1l1.3-0.1l6.4-2.8l5,1.7l12,1.1c0,0,0.7,0.5,3.1,0.1c2.4-0.4,12.1-1.2,12.1-1.2l4.5-1.9l3.9,0.1l2.8,0.2c0,0,3.2-0.4,4-0.1
	c0.7,0.3,2.7,1.3,4,1.2c1.3-0.1,3.1,0,3.1,0l9.8,0.3V4.5z M128.1,379.4l0.1-0.7h1.2L128.1,379.4z M256.2,378.8l-0.3-0.1h1.2
	L256.2,378.8z M278.6,13.3h-0.4l0.4-0.2L278.6,13.3z M391.3,378.7h1.1C392,378.7,391.6,378.7,391.3,378.7z M466,378.9l-7.7-0.3h8.5
	L466,378.9z M806.2,379.4l0.1-0.7h1.3L806.2,379.4z M942.7,378.8l-0.3-0.1h1.3L942.7,378.8z M956.6,13.3h-0.3l0.4-0.2L956.6,13.3z
	 M1052.8,379.1l-0.5-0.4h0.8L1052.8,379.1z M1086.6,378.7h1.3C1087.5,378.7,1087.1,378.7,1086.6,378.7z M1109.7,13.3l0.2-0.2l1,0.2
	H1109.7z M1166.4,378.9l-8.2-0.3h8.5L1166.4,378.9z M1414.9,379.4l-3.4-0.7h4L1414.9,379.4z M1568.1,379.4l0.1-0.7h1.2L1568.1,379.4
	z M1696.2,378.8l-0.3-0.1h1.2L1696.2,378.8z M1718.6,13.3h-0.4l0.4-0.2L1718.6,13.3z M1831.3,378.7h1.1
	C1832,378.7,1831.6,378.7,1831.3,378.7z M1906,378.9l-7.7-0.3h8.5L1906,378.9z M2246.2,379.4l0.1-0.7h1.3L2246.2,379.4z
	 M2382.7,378.8l-0.3-0.1h1.3L2382.7,378.8z M2396.6,13.3h-0.3l0.4-0.2L2396.6,13.3z M2492.8,379.1l-0.5-0.4h0.8L2492.8,379.1z
	 M2526.6,378.7h1.3C2527.5,378.7,2527.1,378.7,2526.6,378.7z M2549.7,13.3l0.2-0.2l1,0.2H2549.7z M2606.4,378.9l-8.2-0.3h8.5
	L2606.4,378.9z M2854.9,379.4l-3.4-0.7h4L2854.9,379.4z M3008.1,379.4l0.1-0.7h1.2L3008.1,379.4z M3136.2,378.8l-0.3-0.1h1.2
	L3136.2,378.8z M3158.6,13.3h-0.4l0.4-0.2L3158.6,13.3z M3271.3,378.7h1.1C3272,378.7,3271.6,378.7,3271.3,378.7z M3346,378.9
	l-7.7-0.3h8.5L3346,378.9z M3686.2,379.4l0.1-0.7h1.3L3686.2,379.4z M3822.7,378.8l-0.3-0.1h1.3L3822.7,378.8z M3836.6,13.3h-0.3
	l0.4-0.2L3836.6,13.3z M3932.8,379.1l-0.5-0.4h0.8L3932.8,379.1z M3966.6,378.7h1.3C3967.5,378.7,3967.1,378.7,3966.6,378.7z
	 M3989.7,13.3l0.2-0.2l1,0.2H3989.7z"/>
</svg>
