<?xml version="1.0" standalone="no"?>
<svg xmlns:xlink="http://www.w3.org/1999/xlink" id="wave" style="transform:rotate(0deg); transition: 0.3s" viewBox="0 0 1440 230" version="1.1" xmlns="http://www.w3.org/2000/svg"><defs><linearGradient id="sw-gradient-0" x1="0" x2="0" y1="1" y2="0"><stop stop-color="rgba(255, 255, 255, 1)" offset="0%"/><stop stop-color="rgba(255, 255, 255, 1)" offset="100%"/></linearGradient></defs><path style="transform:translate(0, 0px); opacity:1" fill="url(#sw-gradient-0)" d="M0,115L40,103.5C80,92,160,69,240,80.5C320,92,400,138,480,145.7C560,153,640,123,720,103.5C800,84,880,77,960,92C1040,107,1120,146,1200,145.7C1280,146,1360,107,1440,103.5C1520,100,1600,130,1680,149.5C1760,169,1840,176,1920,149.5C2000,123,2080,61,2160,34.5C2240,8,2320,15,2400,49.8C2480,84,2560,146,2640,172.5C2720,199,2800,192,2880,172.5C2960,153,3040,123,3120,115C3200,107,3280,123,3360,115C3440,107,3520,77,3600,72.8C3680,69,3760,92,3840,107.3C3920,123,4000,130,4080,134.2C4160,138,4240,138,4320,122.7C4400,107,4480,77,4560,61.3C4640,46,4720,46,4800,42.2C4880,38,4960,31,5040,57.5C5120,84,5200,146,5280,157.2C5360,169,5440,130,5520,107.3C5600,84,5680,77,5720,72.8L5760,69L5760,230L5720,230C5680,230,5600,230,5520,230C5440,230,5360,230,5280,230C5200,230,5120,230,5040,230C4960,230,4880,230,4800,230C4720,230,4640,230,4560,230C4480,230,4400,230,4320,230C4240,230,4160,230,4080,230C4000,230,3920,230,3840,230C3760,230,3680,230,3600,230C3520,230,3440,230,3360,230C3280,230,3200,230,3120,230C3040,230,2960,230,2880,230C2800,230,2720,230,2640,230C2560,230,2480,230,2400,230C2320,230,2240,230,2160,230C2080,230,2000,230,1920,230C1840,230,1760,230,1680,230C1600,230,1520,230,1440,230C1360,230,1280,230,1200,230C1120,230,1040,230,960,230C880,230,800,230,720,230C640,230,560,230,480,230C400,230,320,230,240,230C160,230,80,230,40,230L0,230Z"/><defs><linearGradient id="sw-gradient-1" x1="0" x2="0" y1="1" y2="0"><stop stop-color="rgba(255, 255, 255, 0.49)" offset="0%"/><stop stop-color="rgba(255, 255, 255, 0.44)" offset="100%"/></linearGradient></defs><path style="transform:translate(0, 50px); opacity:0.9" fill="url(#sw-gradient-1)" d="M0,184L40,187.8C80,192,160,199,240,180.2C320,161,400,115,480,115C560,115,640,161,720,176.3C800,192,880,176,960,145.7C1040,115,1120,69,1200,65.2C1280,61,1360,100,1440,111.2C1520,123,1600,107,1680,88.2C1760,69,1840,46,1920,42.2C2000,38,2080,54,2160,49.8C2240,46,2320,23,2400,46C2480,69,2560,138,2640,149.5C2720,161,2800,115,2880,103.5C2960,92,3040,115,3120,115C3200,115,3280,92,3360,92C3440,92,3520,115,3600,111.2C3680,107,3760,77,3840,76.7C3920,77,4000,107,4080,130.3C4160,153,4240,169,4320,176.3C4400,184,4480,184,4560,164.8C4640,146,4720,107,4800,107.3C4880,107,4960,146,5040,134.2C5120,123,5200,61,5280,65.2C5360,69,5440,138,5520,168.7C5600,199,5680,192,5720,187.8L5760,184L5760,230L5720,230C5680,230,5600,230,5520,230C5440,230,5360,230,5280,230C5200,230,5120,230,5040,230C4960,230,4880,230,4800,230C4720,230,4640,230,4560,230C4480,230,4400,230,4320,230C4240,230,4160,230,4080,230C4000,230,3920,230,3840,230C3760,230,3680,230,3600,230C3520,230,3440,230,3360,230C3280,230,3200,230,3120,230C3040,230,2960,230,2880,230C2800,230,2720,230,2640,230C2560,230,2480,230,2400,230C2320,230,2240,230,2160,230C2080,230,2000,230,1920,230C1840,230,1760,230,1680,230C1600,230,1520,230,1440,230C1360,230,1280,230,1200,230C1120,230,1040,230,960,230C880,230,800,230,720,230C640,230,560,230,480,230C400,230,320,230,240,230C160,230,80,230,40,230L0,230Z"/></svg>