<svg version="1.2" xmlns="http://www.w3.org/2000/svg" viewBox="0 0 1440 230" width="1440" height="230">
	<title>wave-svg</title>
	<defs>
		<linearGradient id="g1" x1="0" y1="230" x2="0" y2="18.4" gradientUnits="userSpaceOnUse">
			<stop offset="0" stop-color="#ffffff"/>
			<stop offset="1" stop-color="#ffffff"/>
		</linearGradient>
	</defs>
	<style>
		.s0 { fill: url(#g1) } 
	</style>
	<path id="Layer" class="s0" d="m0 115l40-11.5c40-11.5 120-34.5 200-23 80 11.5 160 57.5 240 65.2 80 7.3 160-22.7 240-42.2 80-19.5 160-26.5 240-11.5 80 15 160 54 240 53.7 80 0.3 160-38.7 240-42.2 80-3.5 160 26.5 240 46 80 19.5 160 26.5 240 0 80-26.5 160-88.5 240-115 80-26.5 160-19.5 240 15.3 80 34.2 160 96.2 240 122.7 80 26.5 160 19.5 240 0 80-19.5 160-49.5 240-57.5 80-8 160 8 240 0 80-8 160-38 240-42.2 80-3.8 160 19.2 240 34.5 80 15.7 160 22.7 240 26.9 80 3.8 160 3.8 240-11.5 80-15.7 160-45.7 240-61.4 80-15.3 160-15.3 240-19.1 80-4.2 160-11.2 240 15.3 80 26.5 160 88.5 240 99.7 80 11.8 160-27.2 240-49.9 80-23.3 160-30.3 200-34.5l40-3.8v161h-40c-40 0-120 0-200 0q-120 0-240 0-120 0-240 0-120 0-240 0-120 0-240 0-120 0-240 0-120 0-240 0-120 0-240 0-120 0-240 0-120 0-240 0-120 0-240 0-120 0-240 0-120 0-240 0-120 0-240 0-120 0-240 0-120 0-240 0-120 0-240 0-120 0-240 0-120 0-240 0-120 0-240 0-120 0-240 0-120 0-240 0-120 0-240 0c-80 0-160 0-200 0h-40z"/>
</svg>