<?xml version="1.0" encoding="UTF-8" standalone="no"?>
<svg
   id="Layer_1"
   data-name="Layer 1"
   viewBox="0 0 1600 1050"
   version="1.1"
   sodipodi:docname="beach.svg"
   inkscape:version="1.2.2 (732a01da63, 2022-12-09)"
   width="1600"
   height="1050"
   xmlns:inkscape="http://www.inkscape.org/namespaces/inkscape"
   xmlns:sodipodi="http://sodipodi.sourceforge.net/DTD/sodipodi-0.dtd"
   xmlns:xlink="http://www.w3.org/1999/xlink"
   xmlns="http://www.w3.org/2000/svg"
   xmlns:svg="http://www.w3.org/2000/svg">
  <sodipodi:namedview
     id="namedview12061"
     pagecolor="#ffffff"
     bordercolor="#000000"
     borderopacity="0.25"
     inkscape:showpageshadow="2"
     inkscape:pageopacity="0.0"
     inkscape:pagecheckerboard="0"
     inkscape:deskcolor="#d1d1d1"
     showgrid="false"
     inkscape:zoom="0.44266667"
     inkscape:cx="1500"
     inkscape:cy="841.49096"
     inkscape:window-width="1920"
     inkscape:window-height="1051"
     inkscape:window-x="-9"
     inkscape:window-y="-9"
     inkscape:window-maximized="1"
     inkscape:current-layer="Layer_1" />
  <defs
     id="defs12023">
    <style
       id="style12007">.cls-1,.cls-10{fill:none;}.cls-2{fill:#8fbbc3;}.cls-3{fill:#a8cfcf;}.cls-4{fill:url(#linear-gradient);}.cls-5{fill:url(#linear-gradient-3);}.cls-6{fill:#f8964b;opacity:0.3;}.cls-11,.cls-6{isolation:isolate;}.cls-7{fill:#ffd486;}.cls-8{clip-path:url(#clip-path);}.cls-11,.cls-9{fill:#faeff9;}.cls-10{stroke:#faeff9;}.cls-11{opacity:0.5;}</style>
    <linearGradient
       id="linear-gradient"
       x1="3581.9871"
       y1="8071.666"
       x2="3590.2209"
       y2="7322.9058"
       gradientTransform="matrix(1.141,0,0,-1.092,-2597.141,9739.092)"
       gradientUnits="userSpaceOnUse">
      <stop
         offset="0"
         stop-color="#c2f8d0"
         id="stop12009" />
      <stop
         offset="0.5"
         stop-color="#39d4df"
         id="stop12011" />
      <stop
         offset="1"
         stop-color="#0069ff"
         id="stop12013" />
    </linearGradient>
    <linearGradient
       id="linear-gradient-3"
       x1="3383.7661"
       y1="7907.2021"
       x2="3724.51"
       y2="6916.1538"
       gradientTransform="matrix(1.141,0,0,-1.092,-2597.141,9739.092)"
       gradientUnits="userSpaceOnUse">
      <stop
         offset="0"
         stop-color="#ffce86"
         id="stop12016" />
      <stop
         offset="1"
         stop-color="#ffb04e"
         id="stop12018" />
    </linearGradient>
    <clipPath
       id="clip-path">
      <rect
         id="SVGID"
         class="cls-1"
         y="1406.202"
         width="2998.8479"
         height="199.95399"
         x="0" />
    </clipPath>
    <linearGradient
       inkscape:collect="always"
       xlink:href="#linear-gradient"
       id="linearGradient13952"
       gradientUnits="userSpaceOnUse"
       gradientTransform="matrix(1.141,0,0,-1.092,-2597.141,9739.092)"
       x1="3581.9871"
       y1="8071.666"
       x2="3590.2209"
       y2="7322.9058" />
    <linearGradient
       inkscape:collect="always"
       xlink:href="#linear-gradient"
       id="linearGradient13954"
       gradientUnits="userSpaceOnUse"
       gradientTransform="matrix(1.141,0,0,-1.092,-2597.141,9739.092)"
       x1="3581.9871"
       y1="8071.666"
       x2="3590.2209"
       y2="7322.9058" />
  </defs>
  <g
     id="g3414"
     transform="matrix(0.42761746,0,0,0.44894197,321.83512,-42.988013)">
    <path
       id="path3410"
       class="cls-2"
       d="m 1575.6,1427.3893 c 0,0 185.729,-31.7461 235.309,-44.2403 49.581,-12.6987 167.136,-82.5452 210.52,-76.1921 43.384,6.3531 136.147,-44.4459 173.333,-44.4459 37.186,0 160.938,114.2892 210.519,114.2892 49.581,0 92.765,-25.3985 123.753,-25.3985 30.988,0 86.766,12.6998 86.766,12.6998 0,0 86.567,-44.4459 136.148,-50.7958 49.581,-6.3499 92.964,44.4459 123.952,50.7958 30.789,6.3488 117.555,69.6377 117.555,69.6377 H 1637.571 Z"
       style="stroke-width:1.03471" />
    <path
       id="path3412"
       class="cls-3"
       d="m 1771.72,1430.862 c 0,0 -117.555,-18.749 -148.943,-26.21 -31.388,-7.461 -105.96,-48.783 -133.349,-44.957 -27.39,3.635 -86.167,-26.4 -109.758,-26.4 -23.591,0 -101.961,67.531 -133.349,67.531 -31.188,0 -58.777,-14.922 -78.37,-14.922 -19.593,0 -54.779,7.461 -54.779,7.461 0,0 -54.979,-26.209 -86.367,-30.035 -31.388,-3.635 -58.777,26.209 -78.369,30.035 -19.592,3.826 -74.372,41.323 -74.372,41.323 h 858.47 z"
       style="fill:#8fbbc3;fill-opacity:1" />
  </g>
  <g
     id="g3518"
     transform="matrix(0.53353821,0,0,0.73957479,2.2590361,-430.2038)">
    <path
       id="path3416"
       class="cls-4"
       d="M 2998.848,2000 H 0 v -607.209 h 2998.848 z"
       style="fill:url(#linearGradient13952)" />
    <g
       id="g3516">
      <path
         id="path3418"
         class="cls-4"
         d="M 2998.848,2000 H 0 v -607.209 h 2998.848 z"
         style="fill:url(#linearGradient13954)" />
      <path
         id="path3420"
         class="cls-5"
         d="M 2998.848,2000 H 0 v -482.668 h 2998.848 z"
         style="fill:url(#linear-gradient-3)" />
      <path
         id="path3422"
         class="cls-6"
         d="m 0,1920.225 h 2998.848 v -157.446 c -161.338,-1.339 -333.872,-36.348 -465.621,-32.139 -191.926,5.93 111.357,76.9 -191.926,88.766 C 2079.4,1829.737 502.607,1831.267 0,1690.656 Z" />
      <g
         id="g3472">
        <path
           id="path3468"
           class="cls-7"
           d="m 2774.734,1579.507 c 123.153,12.435 169.535,16.07 224.114,8.226 v -70.4 h -474.817 c 74.169,17.791 74.169,44.383 250.703,62.174 z" />
        <path
           id="path3470"
           class="cls-7"
           d="m 350.865,1623.89 c 222.915,0 204.322,-70.975 399.247,-79.966 195.125,-8.8 362.261,35.583 473.618,26.592 111.557,-8.8 74.371,-26.592 204.321,-17.6 130.15,8.8 92.965,26.592 334.272,44.384 241.507,17.791 195.125,-17.792 334.472,-44.384 139.346,-26.782 213.518,-26.782 278.493,-8.991 47.382,13.009 65.175,-16.644 100.161,-26.592 H 0 v 62.558 c 127.951,26.399 129.15,43.999 350.865,43.999 z" />
      </g>
      <g
         class="cls-8"
         clip-path="url(#clip-path)"
         id="g12056">
        <g
           id="g3514">
          <g
             id="g3512">
            <path
               id="path3474"
               class="cls-9"
               d="m 1230.927,1564.776 c 0,5.357 -15.194,9.757 -33.987,9.757 -18.793,0 -33.987,-4.4 -33.987,-9.757 0,-5.548 15.194,-9.948 33.987,-9.948 18.793,0 33.987,4.4 33.987,9.948 z" />
            <path
               id="path3476"
               class="cls-9"
               d="m 2551.82,1560.759 c 0,2.1 -6,3.826 -13.395,3.826 -7.395,0 -13.395,-1.722 -13.395,-3.826 0,-2.104 6,-3.826 13.395,-3.826 7.395,0 13.395,1.722 13.395,3.826 z" />
            <g
               id="g3510">
              <g
                 id="g3506">
                <path
                   id="path3478"
                   class="cls-9"
                   d="m 3029.437,1511.593 c -28.989,-4.017 -21.992,-14.348 -72.373,-14.348 -51.98,0 -18.792,14.731 -56.778,11.1 -37.785,-3.635 -146.743,7.461 -198.923,7.461 -52.18,0 -104.16,-7.461 -184.729,-7.461 -80.569,0 -161.139,7.461 -222.715,3.635 -61.576,-3.635 18.993,-3.635 18.993,-22.192 0,-18.365 -232.111,-11.1 -284.291,-3.635 -51.98,7.461 61.576,36.923 23.791,29.653 -37.986,-7.461 -156.34,7.27 -312.68,-7.461 -156.34,-14.731 -85.368,-11.1 -161.138,-3.635 -75.771,7.27 -104.16,7.27 -198.924,0 -94.764,-7.461 -132.549,0 -170.534,7.27 -37.786,7.461 -326.875,0 -459.424,-7.27 -132.749,-7.461 0,-18.557 -213.318,-26.018 -213.118,-7.269 -232.111,3.826 -184.729,14.922 47.382,11.096 -23.591,18.366 -217.916,3.635 -81.569,-6.313 -132.35,-12.435 -163.538,-17.6 v 74.227 c 65.575,2.3 136.948,-13.392 211.519,-20.47 86.367,-8.226 117.955,4.974 157.94,8.226 39.985,3.252 -44.184,11.479 29.388,19.705 73.772,8.226 69.574,-18.174 105.36,-24.679 35.786,-6.505 82.168,0 189.527,0 107.359,0 159.939,-6.5 187.328,-8.226 27.39,-1.53 111.557,4.974 147.343,6.5 35.787,1.722 -79.969,-1.53 -69.373,18.175 10.4,19.7 239.908,17.983 275.694,3.252 35.786,-14.731 -29.389,-17.983 -29.389,-17.983 l 98.962,-3.444 c 98.962,-3.252 117.755,-8.034 170.535,-3.252 52.58,4.974 31.588,4.974 81.968,11.479 50.581,6.695 84.368,-3.253 181.131,-9.757 96.763,-6.504 195.725,0 195.725,0 0,0 23.191,3.252 -8.4,13.2 -31.588,9.757 101.161,17.983 136.947,16.261 35.786,-1.53 29.389,-26.209 50.381,-21.235 21.192,4.974 10.6,24.679 94.764,21.235 84.367,-3.252 82.168,-29.461 98.962,-32.713 16.993,-3.252 46.382,-1.722 73.771,0 27.39,1.53 -23.191,3.252 -48.381,14.731 -25.39,11.478 189.327,19.7 216.717,4.974 27.389,-14.922 -52.58,-16.453 6.4,-19.7 58.98,-3.247 166.936,7.652 280.493,18.748 102.36,10.139 181.53,8.035 223.914,7.652 z" />
                <path
                   id="path3480"
                   class="cls-9"
                   d="m 577.578,1559.8 c 0,5.547 -15.594,10.139 -34.786,10.139 -19.192,0 -34.787,-4.592 -34.787,-10.139 0,-5.547 15.594,-9.948 34.787,-9.948 19.193,0 34.786,4.403 34.786,9.948 z" />
                <path
                   id="path3482"
                   class="cls-9"
                   d="m 245.906,1477.158 c 0,5.739 -15.594,10.139 -34.787,10.139 -18.993,0 -34.587,-4.4 -34.587,-10.139 0,-5.548 15.594,-9.948 34.587,-9.948 19.193,0 34.787,4.4 34.787,9.948 z" />
                <path
                   id="path3484"
                   class="cls-9"
                   d="m 944.837,1505.471 c 0,5.548 -15.394,10.14 -34.587,10.14 -19.193,0 -34.786,-4.592 -34.786,-10.14 0,-5.548 15.594,-10.139 34.786,-10.139 19.192,0 34.587,4.591 34.587,10.139 z" />
                <path
                   id="path3486"
                   class="cls-9"
                   d="m 622.761,1551.768 c 0,2.3 -6,4.017 -13.595,4.017 -7.595,0 -13.8,-1.722 -13.8,-4.017 0,-2.105 6.2,-3.827 13.8,-3.827 7.6,0 13.595,1.722 13.595,3.827 z" />
                <path
                   id="path3488"
                   class="cls-9"
                   d="m 887.059,1547.75 c 0,2.3 -6.2,4.017 -13.794,4.017 -7.4,0 -13.6,-1.721 -13.6,-4.017 0,-2.1 6.2,-4.017 13.6,-4.017 7.597,0 13.794,1.913 13.794,4.017 z" />
                <path
                   id="path3490"
                   class="cls-9"
                   d="m 1769.121,1497.436 c 0,2.105 -6,4.018 -13.6,4.018 -7.6,0 -13.8,-1.913 -13.8,-4.018 0,-2.295 6.2,-4.017 13.8,-4.017 7.6,0 13.6,1.722 13.6,4.017 z" />
                <path
                   id="path3492"
                   class="cls-10"
                   d="m 2833.512,1493.228 c 0,2.295 -6.2,4.017 -13.8,4.017 -7.6,0 -13.6,-1.722 -13.6,-4.017 0,-2.105 6,-3.827 13.6,-3.827 7.6,0 13.8,1.722 13.8,3.827 z" />
                <path
                   id="path3494"
                   class="cls-10"
                   d="m 2899.686,1503.367 c 0,2.3 -6,4.017 -13.6,4.017 -7.6,0 -13.594,-1.721 -13.594,-4.017 0,-2.1 6,-3.826 13.594,-3.826 7.594,0 13.6,1.722 13.6,3.826 z" />
                <path
                   id="path3496"
                   class="cls-9"
                   d="m 1678.755,1491.314 c 0,8.227 -23.191,14.922 -51.58,14.922 -28.589,0 -51.78,-6.7 -51.78,-14.922 0,-8.222 23.191,-14.921 51.78,-14.921 28.389,0 51.58,6.695 51.58,14.921 z" />
                <path
                   id="path3498"
                   class="cls-9"
                   d="m 296.486,1487.3 c 0,2.1 -6.2,4.017 -13.595,4.017 -7.6,0 -13.794,-1.913 -13.794,-4.017 0,-2.3 6.2,-4.017 13.794,-4.017 7.398,0 13.595,1.717 13.595,4.017 z" />
                <path
                   id="path3500"
                   class="cls-9"
                   d="m 2516.634,1506.428 c 0,7.269 -26.99,13.2 -59.977,13.2 -33.188,0 -59.977,-5.93 -59.977,-13.2 0,-7.27 26.789,-13.009 59.977,-13.009 32.987,0 59.977,5.739 59.977,13.009 z" />
                <path
                   id="path3502"
                   class="cls-9"
                   d="m 2788.129,1506.428 c 0,4.974 -18.393,8.991 -40.984,8.991 -22.591,0 -40.984,-4.017 -40.984,-8.991 0,-4.974 18.392,-8.992 40.984,-8.992 22.592,0 40.984,4.018 40.984,8.992 z" />
                <path
                   id="path3504"
                   class="cls-10"
                   d="m 1072.388,1492.271 c 0,6.122 -21.192,11.1 -47.382,11.1 -26.19,0 -47.381,-4.974 -47.381,-11.1 0,-6.126 21.191,-10.9 47.381,-10.9 26.19,0 47.382,4.778 47.382,10.9 z" />
              </g>
              <path
                 id="path3508"
                 class="cls-11"
                 d="m 1058.194,1520.2 c -97.763,0 -192.926,-4.209 -237.709,-10.713 -34.387,-4.974 -39.185,-8.609 -39.385,-11.67 -0.2,-4.4 11.4,-7.461 31.788,-12.626 20.192,-4.974 45.382,-11.1 47.981,-19.322 a 1.29,1.29 0 0 0 -0.4,-1.339 c -9,-10.713 -119.554,-3.444 -236.509,4.4 -62.576,4.017 -127.151,8.226 -182.13,10.33 -90.565,3.253 -155.54,-12.052 -207.52,-24.3 -44.583,-10.522 -79.769,-18.939 -114.556,-12.052 -12.8,2.678 -19.792,5.739 -20.392,9.374 -0.8,5.357 11.8,12.435 22.991,18.366 12,6.695 22.191,12.243 21.192,17.6 -1,4.4 -9.4,7.269 -26.99,9.183 -74.771,7.843 -164.936,-29.844 -194.525,-42.279 -4,-1.531 -6.8,-2.87 -8,-3.252 l 0.6,-1.722 c 1.2,0.382 4,1.53 8.2,3.252 29.588,12.244 119.354,49.931 193.525,41.9 19.793,-2.1 24.591,-5.165 25.191,-7.461 0.8,-4.017 -10.4,-10.139 -20.193,-15.5 -12.795,-6.887 -24.99,-13.582 -23.99,-20.278 0.8,-4.783 7.8,-8.226 21.991,-11.1 35.187,-6.887 70.573,1.339 115.356,12.052 51.98,12.244 116.755,27.549 206.92,24.3 54.979,-2.1 119.554,-6.313 182.13,-10.33 122.753,-8.226 228.713,-15.113 238.309,-3.826 a 3.258,3.258 0 0 1 0.6,3.252 c -2.6,9.183 -27.39,15.3 -49.182,20.661 -13.594,3.444 -30.588,7.652 -30.388,10.713 0,1.531 5.2,4.974 37.786,9.757 48.381,6.887 156.539,11.287 262.7,10.522 111.957,-0.957 186.928,-7.079 190.926,-16.07 3.2,-6.887 -3.6,-13.392 -9.2,-18.748 -4,-3.635 -7.2,-6.7 -5.8,-9.374 1.6,-3.635 12.195,-5.357 60.177,-2.679 47.782,2.679 94.364,11.1 139.546,19.322 56.179,10.14 104.56,18.94 141.346,13.966 24.391,-3.253 42.784,-7.844 60.577,-12.244 30.988,-7.652 60.377,-14.922 116.355,-14.922 43.583,0 77.57,8.035 102.561,13.965 25.39,6.122 42.383,10.14 51.58,1.34 q 3.6,-3.444 3.6,-6.505 c 0,-2.869 -2.6,-4.974 -4.8,-6.887 -2,-1.722 -3.8,-3.252 -3.2,-4.974 1,-2.869 7.6,-4.974 42.784,-8.991 35.786,-4.209 71.173,3.252 112.357,11.861 49.581,10.139 105.759,21.809 175.133,15.3 43.783,-4.208 79.769,-11.669 111.557,-18.365 60.777,-12.626 108.758,-22.574 173.133,-2.87 88.766,27.549 230.512,41.514 324.876,45.34 45.982,1.913 88.365,-14.157 122.553,-26.974 21.791,-8.226 40.584,-15.305 54.379,-15.305 v 1.913 c -13.395,0 -32.188,7.079 -53.78,15.114 -34.187,13.009 -76.77,29.078 -123.152,27.165 -94.564,-3.826 -236.51,-17.791 -325.476,-45.339 -63.775,-19.705 -111.557,-9.757 -172.133,2.869 -31.788,6.7 -67.974,14.157 -111.758,18.366 -69.773,6.695 -125.951,-4.974 -175.732,-15.305 -40.984,-8.609 -76.371,-16.07 -111.557,-11.861 -18.793,2.1 -40.385,4.974 -41.184,7.652 -0.2,0.574 1.2,1.913 2.6,2.87 2.4,2.1 5.4,4.783 5.4,8.417 0.2,2.487 -1.2,5.166 -4.2,7.844 -10,9.757 -27.389,5.548 -53.579,-0.765 -24.791,-5.931 -58.578,-13.966 -101.961,-13.966 -55.779,0 -84.967,7.27 -115.955,14.922 -17.794,4.4 -36.187,8.992 -60.577,12.244 -37.186,4.974 -85.767,-3.826 -142.146,-13.965 -44.982,-8.227 -91.564,-16.644 -139.146,-19.322 -26.19,-1.34 -56.378,-2.487 -58.378,1.53 -0.6,1.53 2.4,4.4 5.4,7.27 5.6,5.356 13.395,12.626 9.8,20.852 -6.6,14.731 -149.343,16.835 -192.926,17.218 q -12.6,0.19 -25.391,0.191 z" />
            </g>
          </g>
        </g>
      </g>
    </g>
  </g>
</svg>
