<svg version="1.2" xmlns="http://www.w3.org/2000/svg" viewBox="0 0 900 456" width="900" height="456">
	<title>1215614_78-ai</title>
	<defs>
		<linearGradient id="g1" x1="148.6" y1="304.7" x2="383.6" y2="-3.5" gradientUnits="userSpaceOnUse">
			<stop offset="0" stop-color="#82a5ef"/>
			<stop offset=".7" stop-color="#fae4c5"/>
			<stop offset="1" stop-color="#fef7f7"/>
		</linearGradient>
		<linearGradient id="g2" x1="451.4" y1="140.8" x2="415.3" y2="103" gradientUnits="userSpaceOnUse">
			<stop offset="0" stop-color="#77a3c8"/>
			<stop offset="1" stop-color="#8bb5d6"/>
		</linearGradient>
		<linearGradient id="g3" x1="482.1" y1="143.9" x2="428.3" y2="174.2" gradientUnits="userSpaceOnUse">
			<stop offset="0" stop-color="#f4e8e2"/>
			<stop offset="1" stop-color="#8bb5d6"/>
		</linearGradient>
		<linearGradient id="g4" x1="439.1" y1="153.9" x2="423.4" y2="136.1" gradientUnits="userSpaceOnUse">
			<stop offset="0" stop-color="#77a3c8"/>
			<stop offset="1" stop-color="#92b4cf"/>
		</linearGradient>
		<radialGradient id="g5" cx="457.8" cy="149.8" r="17.3" gradientUnits="userSpaceOnUse">
			<stop offset="0" stop-color="#77a3c8"/>
			<stop offset="1" stop-color="#8bb5d6"/>
		</radialGradient>
		<linearGradient id="g6" x1="438.6" y1="141" x2="458.1" y2="145.2" gradientUnits="userSpaceOnUse">
			<stop offset="0" stop-color="#f1e9e5"/>
			<stop offset="1" stop-color="#8bb5d6"/>
		</linearGradient>
		<linearGradient id="g7" x1="848.6" y1="300.3" x2="253.6" y2="283.3" gradientUnits="userSpaceOnUse">
			<stop offset="0" stop-color="#5a91c3"/>
			<stop offset=".5" stop-color="#76a4d0"/>
			<stop offset="1" stop-color="#98bce1"/>
		</linearGradient>
		<linearGradient id="g8" x1="737.2" y1="160.7" x2="868.5" y2="162.1" gradientUnits="userSpaceOnUse">
			<stop offset="0" stop-color="#5d8fbe"/>
			<stop offset="1" stop-color="#4e85b8"/>
		</linearGradient>
		<linearGradient id="g9" x1="324.7" y1="71" x2="404.2" y2="28.7" gradientUnits="userSpaceOnUse">
			<stop offset="0" stop-color="#dfd1d1"/>
			<stop offset="1" stop-color="#6698cf"/>
		</linearGradient>
		<linearGradient id="g10" x1="480.3" y1="226.2" x2="440.9" y2="243.4" gradientUnits="userSpaceOnUse">
			<stop offset="0" stop-color="#6698cf"/>
			<stop offset="1" stop-color="#9fbdd7"/>
		</linearGradient>
		<linearGradient id="g11" x1="144.6" y1="179.1" x2="238.2" y2="183.3" gradientUnits="userSpaceOnUse">
			<stop offset="0" stop-color="#5481be"/>
			<stop offset="1" stop-color="#4473b3"/>
		</linearGradient>
		<linearGradient id="g12" x1="289.1" y1="266.3" x2="200.8" y2="240.8" gradientUnits="userSpaceOnUse">
			<stop offset="0" stop-color="#dfdbd2"/>
			<stop offset=".5" stop-color="#d3c9c8"/>
			<stop offset="1" stop-color="#bab7cd"/>
		</linearGradient>
		<linearGradient id="g13" x1="305.3" y1="233.7" x2="698.3" y2="257.5" gradientUnits="userSpaceOnUse">
			<stop offset="0" stop-color="#93b248"/>
			<stop offset="1" stop-color="#c5cb3a"/>
		</linearGradient>
		<linearGradient id="g14" x1="404.9" y1="261.8" x2="578.4" y2="213.7" gradientUnits="userSpaceOnUse">
			<stop offset="0" stop-color="#b1ca3b"/>
			<stop offset="1" stop-color="#cee273"/>
		</linearGradient>
		<linearGradient id="g15" x1="281.9" y1="262.7" x2="411.6" y2="221.6" gradientUnits="userSpaceOnUse">
			<stop offset="0" stop-color="#a7bf34"/>
			<stop offset="1" stop-color="#b9d242"/>
		</linearGradient>
		<linearGradient id="g16" x1="444.9" y1="266.3" x2="651.5" y2="245.8" gradientUnits="userSpaceOnUse">
			<stop offset="0" stop-color="#b1ca3b"/>
			<stop offset="1" stop-color="#e2d973"/>
		</linearGradient>
		<linearGradient id="g17" x1="552.8" y1="304.5" x2="286.8" y2="306.9" gradientUnits="userSpaceOnUse">
			<stop offset="0" stop-color="#86a63b"/>
			<stop offset="1" stop-color="#718d2d"/>
		</linearGradient>
	</defs>
	<style>
		.s0 { fill: url(#g1) } 
		.s1 { fill: #434a7d } 
		.s2 { fill: #8bb5d6 } 
		.s3 { fill: #f4e8e2 } 
		.s4 { fill: #f3e8e3 } 
		.s5 { fill: url(#g2) } 
		.s6 { fill: #709fc6 } 
		.s7 { fill: url(#g3) } 
		.s8 { fill: url(#g4) } 
		.s9 { fill: #f1e9e5 } 
		.s10 { fill: url(#g5) } 
		.s11 { fill: url(#g6) } 
		.s12 { fill: url(#g7) } 
		.s13 { fill: #7fa9d1 } 
		.s14 { fill: #feead3 } 
		.s15 { fill: #71a1ce } 
		.s16 { fill: #88b0d5 } 
		.s17 { fill: #9cc6dd } 
		.s18 { fill: #90bcd9 } 
		.s19 { fill: #6393c0 } 
		.s20 { fill: #729dc7 } 
		.s21 { fill: #7dacd3 } 
		.s22 { fill: #93bdda } 
		.s23 { fill: #82b3d4 } 
		.s24 { fill: url(#g8) } 
		.s25 { fill: #5481be } 
		.s26 { fill: #6997c2 } 
		.s27 { fill: #6698cf } 
		.s28 { fill: #6692bf } 
		.s29 { fill: #84aacb } 
		.s30 { fill: #cec0c4 } 
		.s31 { fill: #c9c8ca } 
		.s32 { fill: #e7e0e2 } 
		.s33 { fill: #ddd3d6 } 
		.s34 { fill: #d9cec8 } 
		.s35 { fill: url(#g9) } 
		.s36 { fill: #5d8cd0 } 
		.s37 { fill: #628fbe } 
		.s38 { fill: #618fbe } 
		.s39 { fill: url(#g10) } 
		.s40 { fill: #6490bf } 
		.s41 { fill: #5d8bbc } 
		.s42 { fill: #5481ac } 
		.s43 { fill: #6e94b2 } 
		.s44 { fill: url(#g11) } 
		.s45 { fill: url(#g12) } 
		.s46 { fill: #5f8bcb } 
		.s47 { fill: #7da4cd } 
		.s48 { fill: #95a9c4 } 
		.s49 { fill: #598abd } 
		.s50 { fill: url(#g13) } 
		.s51 { fill: #64913b } 
		.s52 { fill: url(#g14) } 
		.s53 { fill: url(#g15) } 
		.s54 { fill: #a7bf34 } 
		.s55 { fill: #90b23f } 
		.s56 { fill: #8caa45 } 
		.s57 { fill: #94b63d } 
		.s58 { fill: url(#g16) } 
		.s59 { fill: #e2e173 } 
		.s60 { fill: url(#g17) } 
		.s61 { fill: #bdd645 } 
		.s62 { fill: #718d2d } 
		.s63 { fill: #7c983e } 
		.s64 { fill: #c0c93b } 
		.s65 { fill: #e1d972 } 
	</style>
	<g id="svg11772">
		<g id="layer1">
			<path id="rect12320" class="s0" d="m0 0v299.7 40.3 12.6h900v-12.6-37.7-302.3z"/>
			<g id="g9845">
			</g>
			<path id="path5696" fill-rule="evenodd" class="s1" d="m864.6 160.2c0.6-0.1 0.4 2.4-0.2 4-0.2 2.9-0.6 5.9-0.6 8.9 2.8-0.4 1.9 0.4 1.2 1.4 0 0.9-0.1 2.8-0.2 3.3 2.4 0.6 4.7 0 5.5 2.1-1.2 1.4-2.8 1.2-4.1 1.1-2.3 0.2-0.7 1.7-3.2 1.9 0.4 2.5 0 4.9-0.1 7.3 0.8 0.3 2.4 0.7 3.1 0.9 0.6 0.2 0 1.3 0 1.4 3.7-2.4 10.6 5.7 5.3 5.7 1.5 2 1.2 2.7-0.9 3.8-0.1 2.2 0.7 2.5 1.4 3.3 1.6-0.5 3.3-0.6 5-0.7-0.7-2.3-0.3-3 1.5-4.3-2.2-1.5-3.2-4.2-0.1-3.9 0.2-1.3 0.7-2.9 1-3.9-0.2-9.5 3.2-8.7 2.3 0.4 3.4-0.9 1.4 2.6 0.6 4.1 3.1 0.5 3.9 2.7 3.6 5.3-0.3 0.6-0.5 1.3-0.7 1.9 0.2 0.7 0.1 1.5 0.1 2.2 4.2-1.2 9.4 3.1 3.8 5.6 1.8 0.2 3.2 1.6 4.3 2.5 0.1-1 1-1.4 1.6-1.9 0.1-2.9-1.2-7.1 0.8-8.8 2-0.3-1.4-3.3 0.6-5.3-0.1-2.9 0-3.9 2-3 0.5 1.2 0.3 1.9 0.1 3 0.8 0 1.3 0.2 1.7 0.5v9.3q0 0.1 0 0.2 0 0 0 0v42.9c-4-0.9-8.8-1.9-11.4-2.2-3.4-0.4-10.3 5.9-11.5 2.8-7.1 0.6-16-0.8-23.9-0.6q0.1 1.5 0 3.2c-8.8 1.7-21.9-2.6-28.8-7.5-0.1 0.4-0.2 0.9-0.5 1.4-5.6 1.2-19.1 4.6-22.2-0.6-0.2-2-0.3-4 0-6.1-0.7 1-1.4 2.1-2.6 2.6-3.7-0.7-2.4-4.6 0.7-5.4-1-2.4-0.7-3.5 3.2-2.8 1.5-0.7 2.9-1.3 4.4-2-0.2-1.7-0.5-4.1 0-6.1-0.6 0.2-1.5 1-2.4 0.9-1.7 0.5-2.7 1-4.6 0.2-4.1-1.1-3.4-5.1 0.9-5-2.5-2.5-2-3.6 1.3-4.6-0.5-3.5 0.6-3.9 2.6-5-2.2-2-0.5-3.3-0.4-3.9 0.5-0.4 1.2-0.1 1.7-0.2 0.6-0.9-0.1-1.6-0.2-2.4-2.2-0.5-2.7-2.5-3-3 0.2-2 1.5-1 2.4-1.6-0.8-0.5-0.3-1.3-0.5-1.9-0.1-1.3 1.1-0.9 1.5-1.3 1-1.1 0.9-2.4 1.1-3.7-1.4-1.5-0.7-3-0.4-4.4-0.6-4.7 0.3-9.7 1.7-11.1 2.7 2.8 1.6 7.1 1.6 10.9 2.5-0.2 2.8 0 3 2.4 0.1 1.2-1.3 1-1.7 1.3-0.6 1.1 0.5 2.5 0.6 3.1 1.6-0.1 3.8 1.3 4.2 1.5 1.2 2.9-0.7 2.8-3.1 2.6-0.2 1.1 0.1 2.5 0.2 3.5 2.7-1.8 2.9-0.5 4.2 0.2 0.6 2.7-0.9 1.1-1.8 2.2 3.1 2.4 1.7 5.6-1.9 3.2 0.5 1 0.3 2 0.4 3.1 2.4-0.3 4.8 2.1 5.7 4.3-0.7 1.7-2.2 1.4-4 1.8 4.1 0.2 2.5 2.3 2.7 2.8 2.4-0.9 3.1 0.7 3.4 2.8 1-1.7 3.1-3 3.8-3.3q0 0 0 0c0.3-0.2 0.3-0.2 0 0-0.2-1.3-0.8-3.3 2.1-4.7-1.4 0.4-2.5 1-4 0.7-1.3-6.4 0.8-5 4.6-5.3 0.4 0 1 0 1.7-0.2q-0.9 0.1-1.7 0.2c-1.9-0.1-1.4-2-0.9-5.1-0.8 0.5-1.1 1.4-2.5 1.6-2.9 0.5-3.9 0.3-4.7-3 0.7-3.5 3.2-1.6 6.1-4.2-3.2 0.3-4-1.1-3.3-4.2 0.1 0 1.8-0.3 2.8-0.7 0.4-0.2 2.4-0.9 3.5-1.8-0.9-3.4 0.1-5.8 1.4-7.9-0.9-0.9-0.7-2.6-0.2-3.8 0.1-2.4 0.8-11.4 2.5-11.4 0.4 0 0.9 0.5 1.4 1.7 1.3 2.7 0.5 4.9-0.2 7.6 2.3-0.3 1.9 0.7 1.9 2.8q-0.3 1.9-0.3 3.5c2.1 1.3 1.9 2.2 2.1 4.2 4.2 1.1 6.2 4 0.5 4-0.4 0.9-0.2 1.8-0.2 2.7 3.4-1.9 9.8 2.8 3.7 2.8 1.4 1.1 2 2.2 2 3.1 1.4 0.1 2.2 1 3.2 1.5 1.1 0.3 1.7 0.6 2.1 0.9-0.4-0.4-0.5-1-0.3-2 2.3-1.7 5.2-4.3 6.5-7.1-1.8 0.1-3.7 0.5-3.8-2 1.5-0.5 3.5-1.5 4.7-3-2.8 1.1-5.5 0.3-3.5-2.6-2.4 0.2-5-0.6-3-3.3 2.9-0.5 5.8-1.5 8.5-2.7 0.5-3.5 0.7-7.1 1-10.6 0.3-3.1-0.2-12.6 3.2-13 0.6-1.4 1-2 1.3-2zm-14.4 48.5c0.9 1-1.6 1.6-1.6 1.7 0.3 1.3 0.5 2.5 0.7 3.8 1.4-0.6 2.3 0.1 3.1 1q0.1-0.1 0.3-0.2c0-2.6 0.2-5.2 1.8-7.3-1.3 0.9-3.3 1.7-4.3 1zm-0.2-0.2q0.1 0.1 0.2 0.2-0.1-0.1-0.2-0.2zm-31.7 20.7c1 0.4 1.9 0.8 2.7 1.4q0.4-1 0.9-2.1c-0.9 0.8-2 0.7-3.6 0.7z"/>
			<g id="g9930">
				<g id="g4945">
					<g id="g5166">
						<path id="path4863" class="s2" d="m539.3 145.7c-40.8-19-29.3-24.7-40.8-19-5.6-1-11.5-3.2-16.7-4.4-1.7-1.7-3-3.3-4.3-4.7-2.5-0.7-4.5 0.2-6.8 0.9-2-1.7-1.8-0.9-3.7-1.8-0.5-1.4-1.4-0.4-2.1-0.7-1.1-0.7-1.2-2.3-1.5-3-1.1-0.8-2 0.2-2.9 0.2-4.1-5.2-5.4-7.3-11.2-5.8-2.5-4.6-2.2-5.7-6.7-4.9-7.6-0.8-7.4-5.4-14.7-7-1.5-1.2-2.5 0.7-3.7 1.1-12 6.3-28.1 14.4-33.9 17.8-9.6-0.4-18 8.5-25.5 14.1 14.3 59.9 109.8 125.6 147.2 54.8 6.4-12.1 51.2-11.7 41.5-20.4z"/>
						<path id="path4888" class="s3" d="m463 112.5c-2.6 1-2.9 0.5-3.6 0.7 1.2 2.4 2.2 5 3.3 7.5 1.5-0.6 2.6 0.9 3.8 1.3 3.7 5 5.5 9.5 10.3 12.9-3.7-6.5-6.7-8.9-6-17.9-1.2-1.3-5.5 0-5.5 0-2.4-0.7-1.2-3-2.3-4.5z"/>
						<path id="path4884" class="s4" d="m479.7 121.2c1.2 3.7 2.9 5.5 5 8.1 1.4 0.5 2.8 1.2 4.1 1.8 3.6 3.6 5.8 6.3 9.6 9.1-2.7-4-4.7-7.9-6.8-12.7-3-0.9-2.8-3.1-3.2-3.6-3.4 0.2-5.9-0.7-8.7-2.7z"/>
						<path id="path4927" class="s5" d="m447.2 105.2c0.9 3.5 2.3 6.7 3.1 10.1 1.7-1.2 2.3-3.3 2.8-5.1 2.5-0.7 3.3 0.6 5 2.1 1.8 6.5 6.2 8.6 9.8 11.9 4 7.2 10.5 10 16.9 19.5-11.3 5.2-56.8-26.5-37.6-38.5z"/>
						<path id="path4900" class="s6" d="m488.2 134.4c-0.4 2.6 4.3 13.8 3.9 16.3-2.5 1.3-14.3-8.5-15-9.3 5.7-4.2 8-6.8 11.1-7z"/>
						<path id="path4902" class="s6" d="m426.8 95.9c0.1 2.7 0.9 4.2 0.9 6.9 8.8 6.1 13.1 17.1 19.8 25.2 1 2.9 7.2 12.3 7.8 13.9-4.1-5.7-15.3-12.9-20.1-16.4 6.5-8.8-1.7-11.9-6.6-13.6 0.2-2.3-1.2-0.8-1.7-1.1-1.5-0.3-1.9-2.7-2.5-3.6-12.5-0.9-24 7-35.2 7.5 11.7-3.1 26.8-19.8 37.6-18.8z"/>
						<path id="path4904" class="s6" d="m417.2 120.1c3.1-0.9 8.9-4.1 10.5-5.3 5.5 13.2 7.1 10.7 12.3 21.2-3.7 2.6-10.8-1.1-39.4 19.9-1.6-1 22.5-23.6 21.3-24.8l0.2-2.4c-5.9 0.9-10.3 5.9-15.4 9.7 3.2-8.6 8-9.8 13.6-13.2 0.9-0.6 0.4-1.6 0.6-2.4-10.2 1.1-19 6.9-28.1 12 7.5-7.8 15-15.5 24.4-14.7z"/>
						<path id="path4890" class="s7" d="m426.3 96c-0.6 4.7 5.4 17 17.9 28.8 4.5 8.5 11.4 20.7 18.8 20.5 0.5-0.3 5.6 1.3 7.3 1.5l2.1-4.3c-9.3-8.3-23.1-19.9-33.3-28.7-1.1-3.4-0.4-7.8-2.7-10.4z"/>
						<path id="path4906" class="s8" d="m439.5 135.2c9.1 4.2 10.9 6.9 13.6 13.5-6.6 0.4-17.4-2.3-30.6-6.6 8.1-1.7 12.2-2.8 17-6.9z"/>
						<path id="path4886" class="s9" d="m427.6 115.2c0.4 5.4-0.3 10.9-0.7 16.3 0.8-1.5 2-1.1 3-1.6q1.4 2 2.8 4.1c2.2 1 4.7 1.5 6.9 2 4.4 2.6 8.9 6.5 12.5 11.7l4.3 0.4c-6-9.7-13.8-15.3-20.3-21.1-1.7 0.8-2.2-1.6-3-2.2-1.8-5.1-3.1-6.6-5.5-9.6z"/>
						<path id="path4878" class="s10" d="m452 149.6c7-0.7 14.8-7.5 19.4-10.3 2 0.5 2.7 2.1 3.5 4.1 3.5 6.6 8.8 9.9 13.2 16.1-11 1.6-17.2-3.1-28.2-2.9-6.8-2.4-6.8-2.4-7.9-7z"/>
						<path id="path4882" class="s3" d="m488.8 135.9c-3.3 2.2 2.7 10.5 3.5 12.9-9.4-5.4-14.7-5.9-19.5-9.4l1.3 1.1c4.3 7.4 11 14.3 15.8 18.7 5.5-1.5 11.3-5.7 16.1-8.7-2.1-8.1-7.6-7.9-11.8-11.7-1.8-1.6-3.6-2-5.4-2.9z"/>
						<path id="path4865" class="s11" d="m435.3 144.1q-1.3-0.1-2.8 0l-11.6-1.1c3.1 3.8 5.1 8.2 9.5 9.5 3.5 4.3 8.7 5.4 13.1 8.9 3 5 6.3 8 9.5 12.9 0.6-3.9 1.6-9.8 1.3-14.4-4.5-3.5 5.9-9.3-11.7-13.5-2.4-0.9-4.7-1.9-7.3-2.3z"/>
					</g>
				</g>
				<g id="g4734">
					<path id="path4685" class="s12" d="m820.9 123.5c-14.1 0-27.6 15.6-40.8 21.9-9.3-4.7-18.1-4.4-22.4-11.6-11.7 4.6-18.6 21.1-46.5 30.9-8.5-1.3-20.1 0.2-29.7 2.6-3.8-1.6-11.5-4.5-16.2-7.8-9 1.1-18 0.1-26.4 5.2-18.3-4.4-34.9-16.8-57.1-25.6-4.2 2.9-4.6-2.3-8.6 2.3-3.8 5.7-7.6 9.7-14 14.8-2.4-1.6-20.4-3.5-20.4-3.5-13.6-2-20.8 17.3-35.9 18.4-5.3 0.8-10.2 0.8-15.3 6.5-2.6-2.6-7.2-7.4-11.1-10.3-7.4 2.5-14.5 6.9-22.1 9-3.2-2.7-5-8.7-9.3-7.7-6.5 0.9-13.7 1.1-20.4 2.5-5.2 0.7-17.1 23.5-23.3 20.9 0 0-7.1-5.6-13.6-3.9-11.5 0-21.4-13.5-35.4-11.8-2-0.5-4.1 1.3-6-1.3-11.9 0-24.3-1.8-34 6.4-6.2-2.8-10.4-4-15.3-7.7-6.6-2-12.9-3.6-19.5 2.6-5.6-2.6-9.2-6.1-15.3-1.3-5.3 1.3-19 8.4-27.2 3.8-4.8 18.8-15.7 36.9-23 51.5 111.5-12.1 200.5 32 311.9 32 50.4 0 141.6-2.2 182.7 12.1 12.8-0.9 24.2-13.4 36.8-11.9 11.9 1.4 134.3 31.2 156.5 28.7v-128.4c-25.7-11.6-53.2-29.7-79.1-39.3z"/>
					<path id="path4742" class="s3" d="m583.1 143.6c0.3 3.7 5 19.9 5.8 23 0.6 2.2 15.1-8.1 15.4-5.8 0.9-1.1-5.2 12.2-4.8 10.7l35.5-5.5c-6.9-5.3-46.4-24-51.9-22.4z"/>
					<path id="path4754" class="s13" d="m821.9 139.9c1.4 3.2 2.5 6.8 3.5 10.4 6 6.7 1.2-0.5 1.7-0.8 1.2 4.1 3.2 4.8 5 7.5-0.1 6.1-1.1 11.8-1.5 17.8 1.4-3.8 4.3-6.1 6.5-7.8 2.6-0.5 5.1-3.7 7.6-5.2 3.2 0.8 6.1 3.3 9 5.2 0.8-1 1.3-2.2 2-3.3 14-1.4 31.1-2.7 44.3-0.8-10.8-3-76.6-41.5-79.2-38.7-0.9 2.8-1.5 8.6 1.1 15.7z"/>
					<path id="path4756" class="s14" d="m770.4 151.7c-2.4 3.2-5.5 5-8 7.3-2.3 3.7-5.2 5.9-8 7 0.8-1.5 1.2-3.5 1.7-5.1 0.7-3.7 0.4-7.8 0.4-11.6 2-2.7 1.8-6.4 2-10.3-0.2-1.2 0.2-4.2 0.2-4.3 2.5-1.2 4.4-0.7 6.6 0.9 1.8 0.5 3.4 1.4 5.1 1.8 1.8-0.2 3.5 1.2 5.1 2.2 3 1.8 4.3 4.9 4.3 5.9-3.4 2.1-6.5 4.2-9.4 6.2z"/>
					<path id="path4758" class="s15" d="m721.9 163.1c3.9-1.7 7.9-5.6 11.4-8.9 5-4.4 10-8.6 14.9-12-1.9 4.6-2.5 9.8-2.5 15.4-1.9 0.5-4.1 1.3-5.6 2.1-0.9 1-2 1.8-2.9 2.6 1.6-3.4-0.8-1.4-1-1.7-1.2-0.2-2.5 0.4-3.6 0.8-3.7 3.2-7.1 3.6-10.7 1.7z"/>
					<path id="path4762" class="s15" d="m715.1 164.4c-1.5 0.6-2.9 2.2-4.3 3.4-2 0.5-3.7 3.4-5.2 5.2-3.4 6.9-8.9 10.3-13.7 14.6-1.5 0.8-3.2 1.5-4.5 2.1-3.2 5.3-6.2 11.5-9.5 16.5 2-1.4 4.1-3.4 5.9-4.9 1.7-0.7 3.4-2.6 5-3.6 1.4 3.1 1.6 7 2.1 10.3 1.9-1.6 2.1-5.4 2.1-7.2 0.3-3.1 1.1-3.7 2.7-4.7 0.9-2 2.5-4.2 3.5-5.9 1-2.3 2.8-2.6 4.5-2.8 1.9 1 3.3 4.2 4.5 6.7 2.2-4.1 4-9 5.4-13.7 0.5-2.8 1.9-5.7 2.7-8.5 2.9-3.2 6-4.9 8.7-6.9-3.4 0.1-6.6-0.1-9.9-0.6z"/>
					<path id="path4764" class="s16" d="m753.9 165.5c-2.4 1.7-5.1 1.2-7.8 1.4q-3 0-6.1 0c-2.2 1.9-3.4 2.9-5.1 4.4-1.5 2.4-2.7 3.7-4.2 5.7-2.4 3.6-4.4 7.7-6.5 11.5 3.1-2.2 6.1-5.2 9.1-7.2 1.7-2.3 5.8-3.5 7-3.8 6.6-1.4 10.1-6.1 13.6-12z"/>
					<path id="path4768" class="s17" d="m477 168.3c1.4 1.6 0.5 3.7 0.8 5.6 0.3 3.8-0.2 7.5-0.8 10.4-0.1 3.1-0.5 8.7-0.6 10.4 0.1-3.5 1.6-6.2 3-8.8 4.2-4.2 5.3-6.7 8.9-9.6-3.9-3-8.7-6.9-11.3-8z"/>
					<path id="path4770" class="s18" d="m538.5 153.4l2.9 8.3 4.2 13c1.8-2.7 4.1-5.9 5.4-9.1 0.6-1.6 7.7-8.3 8-9.7-2.3-2.6-17.7-2.1-20.5-2.5z"/>
					<path id="path4772" class="s19" d="m634.5 245.2c3.4-6.4 7.5-11.9 11-17.9 4.5-4.7 10.1-7.4 14.8-10.2 3.9-2.3 8.5-6.6 12.1-8.2 3.8-5.1 8-9.8 11.8-14.7 1.8-6.3 6.8-10.6 9.6-13.8-2.4 1.2-5 2.6-7.4 4.1-3 1.9-1.3-14.4-4.3-13.5-1.1 2.2-5.6 21-5.6 23.7-2.8 3.5-6.1 6.5-9 8.9-1.9 3.6-0.6-4.5-3.2-2.7-2.3-2.6-8.8 2.8-10.3-0.5-0.2-1.8-5-13-5-13-0.1 4.2-39 19-39.6 22.7l24.5 2.5c-4.5 2.6 1.6 8.2-2.4 10.9-4 5.4-3.6 10.7-7.4 15.6-6 2.2-11.7 7.1-18.1 9 9-4.5 19.7 1.1 28.5-2.9z"/>
					<path id="path4774" class="s20" d="m542.6 179.8c-7.9 5.7-2.5 4.3-4.3 7.4-5.2 6.2-10.7 12.7-15.3 19.6-5.9 4.2-11.8 9.2-16.8 14.3-3 1-5.8 1.7-8.9 2.2-6.8 6.2-12 13.7-17.1 19.5-3.3-0.1-6.4 0.1-9.6 0.6 2.9-4.1 5.4-6.9 8.6-8.5 2.2-2.1 5-4.8 6.7-6.4h-4.6c3.6-6.5 10.6-6.9 16-10.5 2.2-0.5 14.4-9.4 16.4-9.7 8.2-7.2-1.1-20.4-1.1-20.4 0 0 23.9-3.1 30-8.1z"/>
					<path id="path4810" class="s18" d="m497.1 173.7c3.6-0.5 6.2 1.7 7.9 4 1.3 1.4 2.4 3 3.4 4.7 1.6 2.2 3.7 3.3 5.6 4.3 1-1.8 2.7-2.1 4-2.9 5.7-6.1 12.7-1.1 19.1-0.6-5.1-2.4-10.4-4.6-15.4-6.9q-3.5 0-7.1 0c-6-1.2-12.1-1.9-17.5-2.6z"/>
					<path id="path4836" class="s21" d="m594.4 184.1c-2.9 13.9 1.3 8.1 2.8 17 4.9-0.3 7.7 5.2 11.3 7.6-0.3-6.1-2.3-13.4-2.9-17.1 0.4-8.8 6.8-14.4 9.9-20.8-10 3.3-12.8 7-21.1 13.3z"/>
					<path id="path4838" class="s22" d="m447.8 224.5c-0.1-0.3-3.6-6.5-5.2-7.1-1.2 1.1-2 2.4-3 3.6-1.3-0.2-2.6-0.6-3.9-0.9-6.1 3.3-12 10.4-16.8 15.5-2.5 2.5-5.9 3.7-8.5 5.3 3.8-1.2 7.4-3.2 11.1-4.5 3.6 0.3 6.3-2.8 8.6-5.3 1.9-1.1 3 0.3 4.6 0.9 1 0.2 2-0.6 2.9-0.9 1.1 5.6-1.1 10.8-2.3 16.4 1.4-4.4 3.7-8 5.6-11.5 1.1-1.6 1.4-3.6 2-5.3 2.6-2.1 3.2-3.6 4.9-6.2z"/>
					<path id="path4847" class="s23" d="m533.8 220.1c8.4 7.2 10.2 14.1 14.1 24.7 4.6 4.4 10.7-3.2 12.7-3.8-3.5-2.7-1-6.3-1.4-9.5-11.5-5.6-15.8-6.2-25.4-11.4z"/>
					<path id="path4887" class="s24" d="m781.5 161.2l-51.4 40.5-5.4-6.6 1.6 16.1-0.5 23.3-9.2 1.4-12.4-14.5 0.5 20.3-9.9 6.7q1.2-1.7 2.4-3.6c-0.4-0.8-9.1-19.2-16.9-20.9-2.9 1.1-20.1 11.7-28.2 11.4-5 7.7-9.3 16.4-15.5 22.8 19.6 5.3 43.3 9.9 57.8-9.1l37.9-1.4 146.4 7 2.2-70-41.5 22.5 3.7-31.4-53 42.3-15.8-16.2z"/>
					<path id="path5294" class="s25" d="m815.6 169.2l-11.4 33.8 38.2-24.9-3.2 30.1 41.9-23.1 7.6 53.4-74.6 4.4-16.9 3.8-20.9-20.8 12.6-9.1-12.2-6.6 17.6-18.7-0.4 14.6z"/>
					<path id="path5364" class="s26" d="m560.6 250.5c3.5-6 0.9-12.7 1.4-19 3.3-4-3.9-10.5-4.2-11.4q9.1 0 18.3 0c3.1 13.2-7.7 18.8-8.5 20.9 7-0.2 9.2 3.7 14.1 5.7 6.8-5 5.4-12.2 8.4-19 6 18 11.8 20.1 21.2 28.5-19.3 8.6-36.9 2.6-50.7-5.7z"/>
					<path id="path5465" class="s14" d="m821.1 123.3c12.8 9.8 27.2 25.1 38.1 36.1 9.2-0.8 17.1-1.9 26.7-1.9-22.3-16.3-41.5-27.9-64.8-34.2z"/>
				</g>
				<g id="g9880">
					<g id="g5408">
						<path id="path4931" class="s27" d="m534.3 307.9h-534.3l0.9-193.4c8.4 0 14-1 21.1-7.3 4.2-1.2 7.3-3.4 12.1-1.8 7.9 2 13 5.8 21.2 7.3 3.3-2.6 4.6-5 9.1-4.3h2.6c1.3-1.8 2.9-4.4 5.1-4.8 1.2 1.8 0.5 3.6 2.6 4.2 3.7-3.4 7.3-8.2 11.7-10.9 0.8 0 3.6 1.5 5.6 0 2.9-0.9 5.6-1.5 8.2-4.2 5-5.2 9.5-9 15.1-12.7 2.8-2.6 5.4-4.8 9.1-5.4 1.7 0.2 3.5 0.2 5.2 0.6 5.8 0.8 11.9 3.4 17.7 1.2 4.1-4.3 8.7-10.8 13.4-13.9h9.1c0.6 0.7 2.9 4.2 5.2 6 6.5 0 12.6-2.2 19.4-1.2 2.1-2.9 3.8-5.6 6.5-8.5 4.6-0.1 4.8 3.3 9 7 3-2.8 3.4-3.5 7-5.8 4.3-4.7 7.7-7.2 11.6-10.8 5.6-1.3 8.7 1.8 12.6 4.2 0.1 2.1 1.4 3.3 2.1 4.8 3 1 8.2 0 10 0 2.7-0.5 3.5 1.6 5.6 2.5 3.2 0.5 6.6 0.7 9.9 1.2 2.4 1.3 2.7 3.4 4.3 5.4h5.2c3.2 0.2 4.8 2 6.9 3.6h8.2c3.5 5.2 7.5 8.3 10.8 9.7 1.4 0.9 6 0.6 6.1 0.6 4 1.5 9.6 7.8 12.5 10.3 9.5 6 8.1 6 9.5 6 9.3 7 12.5 13.1 22.1 20.6 12.8 10.7 25.3 17.8 34.9 20.5 7.5 15.9 26.7 28 39.4 33.3 42.8 44.8 117.4 69.5 148.1 95.3z"/>
						<path id="path5074" class="s28" d="m289.5 144c5.8-2.8 12.5-16.4 13.2-17.2 12.5-12.6 24.1 5.3 34.2 14.7 14.4 10.9 24.1 6.9 29.9 27.1-11.1 1.8-16.8-5.5-25.5-12.3-1.1 3.5 0.6 6.6 0.9 9.8-5.8-6.6-9.3-12.5-14.9-18.4-1.8 8.6 0.2 11.5 1.7 18.4-4.8-4.9-6.9-11.9-8.8-18.4 12.1 67.3-30.7 8.3-30.7-3.7z"/>
						<path id="path5076" class="s28" d="m177 66.5c5.2-0.5 9.9 0.5 14.9 1.2 4.2-7.4 6.2-5.3 12.3-6.1 1 12.8 11.1 12.6 18.5 17.2 0.6 7-1.5 3.5-2.7 6.1 5.3 6.8 9.3 7.7 15.9 8.7 8.3 8.6 17 13.7 24.6 14.7 3 1.2 5.7 7 7.9 11.1 3.4 4.4 11.1 7.9 12.3 8.6-1.9 1.6-4.1 2.5-6.2 3.7 8.2 11.5 11.9 13.7 21.1 20.9 14.1 10.7 15.9 16.5 22 35.7-6.7 5.8-13.1 3.2-20.2 1.2-8.3-15.9-14-20.6-25.5-27.1 0.1-7.5-3.3-15.9-4.4-20.9-5.6-5.2-12-7-17.6-8.6 2.8 11.3 5.4 21.9 11.4 33.2-11.9 0.7-17.7-13.6-23.7-20.9-1.1-7-7.6-16.2-8.8-18.4-11.7-14.9 8.7 3.6 16.7 8.6-11.8-11-15.3-16.3-22.8-32-3.3-33.9-31.8-14.6-45.7-36.9z"/>
						<path id="path5078" class="s28" d="m184 105.9c6.3 11.8 15.5 22.9 20.2 31.9 4.1 7.5 11.4 12.8 14.1 14.8 6.6 7.6 12.4 9.8 18.4 13.5 10 17.2 27.6 21.9 36.9 39.4-7.7 0.7-15.7 1.7-22.8 3.7-11.6-9.2-21.7-25.2-31.6-34.5-16.3-21.6-25.4-44-35.2-68.8z"/>
						<path id="path5080" class="s29" d="m230.5 48.9q-0.9 0-2 0.3c-3.9 3.6-7.3 6.1-11.6 10.9-3.6 2.2-4 2.9-7 5.7-0.3-0.3-0.5-0.5-0.8-0.8q-0.5 0.9-0.9 1.5c13.5-0.7 20.5 12.3 28.5 22.1 1.8 12.4 8 14.9 15.9 22.2 4.9-2.4 6.7-1.5 11.4-2.5 6.9 4.9 14.4 16 16.7 19.7 8.1 4 16-0.3 21.1-2.5 5.1-1.3 9.5 0.7 14 1.3 19.7 20.5 41.6 33.2 65.1 43 12-1.9 21.5-4.8 29-8.4-8.5-6-16.5-13.8-20.7-22.8-9.6-2.7-22.1-9.8-34.9-20.5-9.6-7.5-12.8-13.6-22.1-20.6-1.4 0 0 0-9.5-6-2.9-2.5-8.5-8.8-12.5-10.3-0.1 0-4.7 0.3-6.1-0.6-3.3-1.4-7.3-4.5-10.8-9.7h-8.2c-2.1-1.6-3.7-3.4-6.9-3.6h-5.2c-1.6-2-1.9-4.1-4.3-5.4-3.3-0.5-6.7-0.7-9.9-1.2-2.1-0.9-2.9-3-5.6-2.5-1.8 0-7 1-10 0-0.7-1.5-2-2.7-2.1-4.8-3.4-2.1-6.2-4.7-10.6-4.5z"/>
						<g id="g5017">
							<path id="path4960" class="s30" d="m163.1 90.1c2.5 1.2 4 3.5 5.6 5.9-0.7 0.6-1.2 1.1-1.7 1.5-0.3 1.7-0.2 3.4-0.2 5.2 1 2.2 2.1 3.3 3.9 4.7-1.2 1.4-2.6 1.3-4.1 1.7-0.7-1.2-1-2.4-1.2-3.7-0.4-1.1-1.1-1-1.6-1.5-0.2-1.6 0.2-2.8 0.5-4.2 0.6-4.4 0.2-7.1-1.8-9.9z"/>
							<path id="path4962" class="s30" d="m185.1 135.5c-1.8-3.8-3.6-8.3-6.2-12.4-0.7-0.1-1.5-0.3-2.3-0.5-0.4-3.6-1.4-6.7-3.7-9.3-2.1 0.4-3.7 0.7-5.8 1.7 1.8 2.1 2.1 4.3 2.5 7.4 1.9 0.5 2.9 2 3.7 3.4 1.4 1 1.8 1.7 2.6 3.3q0 4 0 8.1c4.9 1.8 9-1.4 9.2-1.7z"/>
							<path id="path4966" class="s30" d="m185.6 146.8c-0.6-2.5-1.2-4.9-2.6-6.9 0.8-1.6 1.4-1.4 2.6-1.7 2.8 2.4 4.7 6.8 6.5 9.1 5.3 6.3 9 14.3 13.1 21.7-2.8-3.6-5.3-5.4-8.8-6.4-1-3.6-3.1-6.9-5.1-9.4-0.2 2.4-0.2 4.7-0.2 7.2-2.7-2.2-5.4-4-7.8-6.2-1.5-5.8-4.5-11.6-6.8-16 1.6 1.4 2.8 2.3 4.5 3.4 1.8 2.1 2.6 3.9 4.6 5.2z"/>
							<path id="path4968" class="s30" d="m178.4 77c3.4 2.8 5.8 7.9 8.3 11.4-1.1 0.1-2.4-0.2-3.2-0.3-2-2.7-3.4-6.1-4.6-8.4 0-1.3-0.4-2.4-0.7-3.7z"/>
							<path id="path4970" class="s30" d="m177.2 89.5c1.9-4.1 3 1.7 4.2 4.7 2.6 2.4 4.8 8.9 6.5 15.6q-2.5 0-5.1 0c-2.8-3.8-3.9-11.6-5.6-20.3z"/>
							<path id="path4976" class="s30" d="m193.9 125.6c2-0.3 4.2 1.6 6 2.7 6.3 4.8 11.5 14.8 16 22-1.8-0.3-4.2-3.4-5.1-4.2-2.3-1.4-4-3-6-4.7-1.5-2.5-2.9-5.7-4.2-7.7-2.1-4-3.9-6.1-6.7-8.1z"/>
							<path id="path4978" class="s30" d="m215.6 124.4c1.8 0.6 3.3 1.7 4.9 2.7 2.7 3.1 4.6 7.1 7.2 10.8 3.2 3.1 6.6 5.3 9.2 8.2-3.1-3-7-3.6-10.4-4.5-1.6-2.6-3.6-4.7-5.1-6.9-0.3-1.6-1.1-3-1.8-4.2-1.4-2.6-2.5-4.1-4-6.1z"/>
							<path id="path4980" class="s30" d="m204.8 92.6c2.1 3.8 3.6 6.1 6.6 8.6 6.1 14 14.1 25.4 22.6 34.7-4.2 0.6-9.3-2.9-11.7-4.1-4.2-3.5-7.2-8.8-9.8-13.8-0.5-4.9-2.4-10.1-3.7-14.2-0.5-4.3-2.5-7.6-4-11.2z"/>
							<path id="path4982" class="s31" d="m201.1 60.5l5.3 7.4c3.4 4.4 7.9 6.8 10.6 10.6-0.1 1.4 0.7 2.4 1.2 3.2 4 1.4 7.8 3.7 11.5 4.2-1.1-4-4.7-5.9-7.1-7.4-2.3-2.6-4.9-4.9-6.8-6.9-1.7-2.7-3.9-4.3-5.9-6.2-2.9-3.2-7.6-4.9-8.8-4.9z"/>
							<path id="path4984" class="s30" d="m229.8 91.3c1.8 1.8 5 4.4 6.2 5.7 1.9 1 4.1 1 6 1.2-1.1-1.8-2.4-2.5-3.5-3.7-1.3-2.3-2.5-3.2-3.7-4.9-1.8 0-3.4 0.8-5 1.7z"/>
							<path id="path4986" class="s30" d="m227.2 106.9c2.5 2.2 5 4.2 7.8 5.4 1.4 1.4 1.8 2.7 2.4 4.7 2.2 0.5 3.8 1.9 5.5 2.9 2.4 4.3 4.3 9 5.8 12.8-2.9-3.3-5.9-6.3-9.2-8.6-2.7-1-4.7-4.2-5.9-6.6-3.1-2.8-4.2-7.5-6.4-10.6z"/>
							<path id="path4988" class="s30" d="m241.7 154.9c1.9 1.1 3.8 3.6 5.4 5.2 0.7 1.5 1 2.8 1.6 4.2 1.9 1.2 4.2 3.5 6 5.9-2.9-1.4-5.6-2.5-8.1-3.9-0.5-2-1.9-5.4-2.1-5.9-1-2.1-2-3.6-2.8-5.5z"/>
							<path id="path4990" class="s32" d="m258.2 174.2c0.6 2.4 1.8 4.8 3.2 7.1-2.2-1.7-4.2-2.3-6.9-2.4-3-1.7-7.1-6.4-10.7-8.7-4.2-2.6-7.5-9.2-12-11.6-3.5-2-7.4-3-11.1-3.4 4.2 4.7 8 7.7 12.7 10.1 2.8 6.5 7.2 9.7 10.9 13.6 3.6-0.4 7.3 2.2 9.9 4.4 3.5 2.4 7.5 6.4 10.9 9.4 3.3 3 7 7.7 9.9 9.8 4.1-1.5 8.4-3.6 12.5-5.6-4.3-2-8.4-2.6-12.7-5-2.2-2.5-3.9-4.5-5.2-6.5-3.1-3.5-6.5-9.6-11.4-11.2z"/>
							<path id="path4992" class="s33" d="m225.8 52.1c1.8 2.3 3.4 4.8 5.1 7.2 1.7 1.6 3.5 2.9 5.1 3.9 2.7 3.6 5.4 7.3 7.8 10.6l3.1 1c-3-7.2-8.2-15.7-13.5-19 1.2-0.8 3.8-0.5 4.6-0.5 1.9 1.8 4 4.4 5.4 5.9 1.7 3.7 4.5 5.5 7.2 7.2 3.5 2.7 6.8 3.1 10.6 5.2 3 3 5.5 5.9 8.5 7.6-1.8-3.9-3.9-7.3-6-9.4-1.5-0.5-3.6-2.1-4.6-2.9-2.3-2.2-3.8-6.3-5.1-9.6-3.5 0.2-6.9-0.3-10.4-0.3-1.3-2.2-2.3-4.2-3-6.1-3.7-3.2-7-4.4-10.9-5-3.7 0.3-3.7 2.8-3.9 4.2z"/>
							<path id="path4994" class="s34" d="m294.3 124.6c-7.1-5.5-11.6-13.9-19-20.9-1.7-1.4-2.8-2.2-4.8-2.3-0.9-1.7-1.9-3.9-2.4-6.6-0.9 0.1-2.2 0.5-3.4 0-0.8-1.6-2.2-3.3-3.5-5 1.3-2.1 2.9-3.1 2.3-6.6-1-1.6-2.6-4.4-4.4-4.7-0.7 0.1-1.3 0-1.9 0.2 0.8 2.1 2.5 4.6 3.3 7.4-0.3 0.8-0.3 1.8-1.1 2.3-1.8-2.3-4.1-6.2-6.8-6.9-2.3-1.2-4.5-2.3-6.7-3 4.4 4.5 8.1 9.6 11.6 14.5 2.2 2.9 5 5.5 6.9 7.4 9.6 8 20.5 19.8 29.6 26.2 1.2 0 0.7 1.4 1 2 2.8 0.5 5-1 7.3-2 0.5-1.5 1.2-2.5 1.9-3.7 3.1 0.2 6.5 0.4 9.7 0-0.8-4.8-6-5.6-8.5-8.2-0.2-1.1-0.3-2.1-0.5-3.2-6.2-3.6-11.7-11.7-16.2-18-3.1-4.7-5.5-10.6-7.9-15.7-4.4-3.7-7.5-9.1-11.5-12.9 3.1 7.4 5.7 15.9 9.9 21.7 2.5 0.2 3.7 3.3 5.3 5 2 4.4 5.4 8.2 7.2 12.8-2.7-2-5.1-4.8-7.2-7.2-2.9-4.6-6-8.7-10.3-11.3 1.5 2.4 2.2 5.4 3.2 8.1 6.3 6.3 12.4 12.4 17.1 21.7-1.5-0.1-2.2-1.2-3.3-1.9-3-9.3-9.5-12.2-14.7-17.1 1.8 8.4 7.4 10.1 10.6 14.6 2.1 3.5 5 7.1 7.2 8.9q0 2.2 0 4.4z"/>
							<path id="path4996" class="s30" d="m257.9 104.9c2.1 0.1 6.6 2.6 7.5 2.9 1.6 3.3 3.8 5.1 5.7 7.2 3.9 5.1 8.6 6.4 12.1 11.3-4.3 0-7.7-2.2-10.9-4.2-1.4-0.8-2.8-1.3-4-1.4-1.5-2.2-3.6-4-5.2-5.7-1.8-4.7-3.1-7.1-5.2-10.1z"/>
							<path id="path5002" class="s30" d="m267 122.9c1-0.2 3.5 0.5 3.5 0.5 3 1 5.7 3.2 8 4.9q1 1.7 1.9 3.5c-2.1-0.8-4.9-2.3-6-2.7-1.1-0.7-0.9 0.4-1.4 0.7-1.4-0.9-2.3-2-3.3-3-1.2-1.7-1.7-2.4-2.7-3.9z"/>
							<path id="path5004" class="s30" d="m250.6 112.5c2.2 2.5 4.1 6.3 5.1 9.6 2.9 3.6 5.8 4.6 7.3 8.2-2.1-2.1-4.3-2.4-6.5-3-1.2-3.5-3.1-5.5-4.5-8.1-1.8-2.5-3.9-4.9-5.3-6.7z"/>
							<path id="path5006" class="s30" d="m270.4 159.6c3.6 1.2 6.6 4.5 10 5.9 0.8 4.9 4.7 8 7.2 10.6-2.3-0.2-4.3-0.8-6.5-1.4-2.4-2.8-4-5.8-5.3-8.9-1.6-2.4-3.5-4.2-5.4-6.2z"/>
							<path id="path5008" class="s30" d="m287.1 179.4c1.2 0.3 3.5 1.7 3.9 1.9 1.8 2.4 3 4.9 4.4 6.9 1.9 0.9 3.8 2.8 5.1 4-1.6 1-3.7 0.3-4.9 0-3-2.6-4.4-5.2-5.3-9.4-1.3-1.5-2-2.2-3.2-3.4z"/>
							<path id="path5010" class="s35" d="m288.9 70.9c-0.6 0.6-1.2 1.1-1.7 1.7 2.9 3.1 6 5 9.4 6.5 2.8 9.5 10.8 14.6 15.9 21.8 5.3 3.4 10.1 4.3 15.6 3.6 1.4-0.5 2.8 0.6 4.1 1.4 0.9 3.8 2.9 6.7 4.6 9.3 6.9 6.4 16.1 7.9 21.7 16.8 1.8 1 3.5 1.4 5.4 2.2 1.4 5.3 5.5 8.3 7.9 12.1-6.1 0-12 1.1-17.9 1.1-3.9-4.4-8.6-6.1-12.5-9.3-10.1-2.1-17.6-10.2-27.1-14.7 3.7 8.4 11 9 15.8 14 0.3 4.2 1.2 7.7 2.3 10.4 5.1 0.1 10.3 0.9 14.8 2.8 3.7 0.5 7.7 0.1 10.8 1.5 1.6 2.1 3 5.2 4.1 7.1 2.7-0.4 6.6 0.3 8.2 0.7-3 1-6 2.1-9 2.5-5.8-4.3-9.3-8.1-16.1-10 4.7 1.6 7.3 8.4 10.5 12.9 5.4 0.8 11.3 0.3 16.3-0.4 2.5 0.5 4.7 3 6.4 4.3-3.5-0.6-3.7-0.4-8.9 1.8 10.9 2.6 20.8-2.7 30.2-5.4 0.7 0.1 45.1 26.1 51.5 25.6-10-6.3-57-41.9-62-52.5-9.6-2.8-22.1-9.9-34.9-20.6-9.6-7.5-12.8-13.6-22.1-20.6-1.4 0 0 0-9.5-6-2.9-2.5-8.5-8.8-12.5-10.3-0.1 0-4.7 0.3-6.1-0.6-3.3-1.4-7.3-4.5-10.8-9.7z"/>
							<path id="path5015" class="s30" d="m270.8 134.9c2.2 6.6 7.3 6.9 10.4 10.2 0.8-1.8 0.4-1.8 0.7-3.4 4.1 1.6 7 5.5 11.2 7.8-1.2 0.5-2 1-3.2 1.5 1.5 6.4 4.7 8.4 8.1 11.2q0.1-1 0.3-2c3.3 0.3 3.8 3 6.3 6.4 0.9-1 1.4-2.6 2.1-3.9 6.7 7.3 13.2 14.3 19.5 20.9-3.6 1.4 47.8 39.6 45.8 42-5.1-0.5-63-41.7-66.4-45.9-1.9-1.7-1.5-3.7-2.4-5.8-4.9-1.6-6.8-5.9-9.1-11.7-2.9-4.2-5.8-5.2-8.3-5.8-0.3-1.8-1-3.3-1.4-4.9-0.7 1.1-1.2 2.3-1.8 3.4-6.9-3.3-10-10.8-11.8-20z"/>
						</g>
						<g id="g5394">
							<g id="g5380">
								<path id="path5336" class="s36" d="m30.8 104.8c-3.1 0-5.7 1.5-8.8 2.4-7.1 6.3-12.7 7.3-21.1 7.3l-0.9 193.4h8.2c6.6-6.3 11.6-18.8 18-28.7 13.4-20.9 20.4-15.9 6.7-37.6 3.6-16.8 11.9-31.5 21.1-44.6-12.7 9.9-27.7 24.1-43.9 26.4 9.3-13 18-29.7 25.1-46.4-2.3 1.1-4.6 1.5-6.7 2.5 3-6.3 6.7-13 11.6-17 4.4-7.1 9.4-12 14.4-18.8-7.8 3.3-19.2 5-9-10.6 7.8-3.7 12.1-1.7 15.2-12.6 5.3-4.9 12.3-7 18.4-12.5-1.1-0.4-2.3-0.7-3.5-1.1-0.3 0.3-0.6 0.6-0.9 0.9-1-0.3-1.4-0.9-1.6-1.7q-1.7-0.5-3.4-1.1c-1.1 1-2 2.3-2.7 3.4h-2.6c-4.5-0.7-5.8 1.7-9.1 4.3-8.2-1.5-13.3-5.3-21.2-7.3-1.2-0.4-2.3-0.6-3.3-0.6z"/>
								<g id="g5064">
									<g id="g5053">
										<path id="path5043" class="s36" d="m52.1 171.9c5.4-8 6-14.2 7.3-16.5 2.4-9.2 7.6-10.3 12.5-15.6 1.6-6.1 5.7-14.1 7.4-17.1h3.4c5.7-5.5 9.9-11 11.2-20 5.1-14.2 15.4-15.8 24.4-21.4-4.3 4.4-8.8 11.2-11.2 15.6 0 1.4 0.5 1.9 0.7 2.9 1.8 0.6 2.8-0.6 4.2-1 0.3 3.1 0.2 6.2 0 9.3-3.6 1-6.6 1.5-9.8 1.9-6.3 2-11.4 6.2-16.3 12.2 2.3 2.1 1.7 4.2 1.7 7.8-2.4 5.5-5.9 10.9-9.4 15.1-0.5 3.3 1.5 6.8 1.7 7.4-1.9 10.8-8.7 19.4-11.4 29.2-0.4-8.3-1-18.8 0.7-26.3-2.1-1.1-3.8 0-5.6 0.5-1.8 7.9-7.9 11-11.5 16z"/>
										<path id="path5045" class="s36" d="m140.9 150.5c3.9-3.6 7.2-9.6 9.7-14.1 2.6-5.5 5.3-11 7.4-16.1 3.4-2.7 6.2-5.2 8.7-8.3-3.4 7.7-5.7 14.9-9.1 22.4-6.7 11-12 23.1-18.1 36.6 1.3-8.3 4.5-13.1 6.3-21.5-2.4 2.6-2.4 1.4-4.9 1z"/>
										<path id="path5047" class="s36" d="m144 175.4c4.5-5.7 9.1-13.5 12.6-19.5 3.6-3.8 5.4-8.7 7.6-14.2 3.3-3.6 5.9-6.2 8.4-9.7-2 4.2-3 8-4.5 11.2 3.2-1.9 4.7-3.7 7.3-5.4-0.2 1.6-0.5 3-0.7 4.4-11.3 7.7-25.7 31.8-30.7 33.2z"/>
										<path id="path5049" class="s36" d="m162.1 64.7c0.1 4.9-0.1 9.8-0.3 14.6 0.7 2.4 1.2 4.5 1.7 6.9-12.9 10.7-19.2 25-24 35.1-1.7 5.2-3.4 9.3-4.5 14.6-10 9.5-13.9 25.7-22 37-5 5.4-7.4 9.6-9.7 17.6 0.5 2.7 2.2 3.4 3.1 4.8 7.4 5.3-16.9 21.4-21.9 24.9 4.1-8.1 8.2-15.8 11.5-21.9 1.9-5.2 4.2-9.3 5.9-14.7 1.9-0.6 0.7-2.6 1-3.9 4.9-6.1 9-12.3 11.5-19.5 6.6-8.4 10.4-22.5 12.9-34.1-4 2.3-7.1 6.7-9.4 10.8 3.7-14.1 16.4-18.5 21.9-28.8-0.8-3.7-2.9-5.4-4.8-7.8-6.5 9.9-22.9 22.9-28.6 33.1 8.4-16 20.7-28.8 25.1-36 11.8-5.8 19.1-37.5 30.6-32.7z"/>
										<path id="path5051" class="s36" d="m88.3 154.9c5-6.2 9.2-15.7 15.3-19.5-2 5.6-3.8 11-6.2 15.6-8.1 10.4-14.9 23.2-21.8 32.4 4-11.2 7.3-21.7 12.7-28.5z"/>
									</g>
									<path id="path5060" class="s36" d="m78.2 189.5c8.2-8.6 14.5-17.9 21.6-27.8-1.6 6.5-4 10.7-5.2 16.6 2.8-2.4 5.3-5.3 8-7.3-7.6 14.4-8.8 30.6-19.5 39-0.6 3.8 0.4 6.4 1 9.2-11.2 13.4-25.8 17.9-36.2 29.3 8.3-8.7 16.6-19.1 23.7-26.8 3.8-6.2 6.7-12.2 9.7-18.6-0.6-2.2-0.2-4.5-0.3-6.8-5.1 3.7-9.9 11.1-11.2 14.2 3.7-6.9 5.6-14.4 8.4-21z"/>
									<path id="path5062" class="s36" d="m57.7 201.7c7.1-3.9 10.5-11.8 15.6-19 0.7 5.9-1.3 10.1-2.8 15.1-4.6 3.5-6.3 7-8.3 13.1-4.9 3.4-8 9.3-11.9 14.7 2.1-8.2 5.2-17.2 7.4-23.9z"/>
								</g>
							</g>
							<path id="path5392" class="s36" d="m105.2 145.3c0.6 6.4 2.3 5.2 5.5 7.7-4.9 11.2-8.3 25.6-11 34.4 12.2-25.8 32.9-42.4 24.2-63.5-6 9.3-13 13.4-18.7 21.4z"/>
						</g>
					</g>
					<g id="g5100">
						<path id="path5484" class="s37" d="m392.8 183.6c5.3-0.5 10.3-2.3 15.5-3.5 6.3 21.5-5 30.8-6.9 53.6-3.7 3-8.1 1.2-12.1 1.8-3.1-5.5-1.2-11.6-1.7-17.3q4.3 0 8.6 0c0.8-14.3-2.2-22-3.4-34.6z"/>
						<path id="path5486" class="s38" d="m385.8 176.1c-0.7 6.9 2.6 8.9 4 13.5-3 9.5-4.9 19.1-6.7 28.3q0-11.4 0-22.9c-0.2-12.7-4.1-13.5-12.2-20.9z"/>
						<path id="path5488" class="s39" d="m422.3 181.5c6.6 2.1 16.1 9.7 17.5 10.8 6.1 4.5 12.1 4.6 17.6 6.7 5.9 12.3 4.3 18.6 6.8 31.1-11.6-4-14.1-9.6-20.3-18.9-9.9-8.2-15.7-20.8-21.6-29.7z"/>
						<path id="path7340" class="s40" d="m327 231.4c5.3 0.4 10.9 1 16.2 2.1 1.4-0.2 2.7 0.1 4.1 0.2 0.8-11.1-5.9-21-12.2-29.6-0.1-2.3 1.3-3.7 2.3-5.6 4.3 1.9 8.2 5.9 12.2 8.5 4.9 3.3 7.9 8.7 12.8 12.4 7.7 5.7 18.9 7.3 26.3 12.8-0.9 6.3 1.3 12.4 1.9 18.6-13.9-10.5-29.4-22.4-40.6-35.2-1.8-1.4-3-2.1-4.9-3q-0.4 0.4-0.8 0.8c7 13.7 15 27.9 23.5 40.6-11.6-8.9-26.5-20-40.8-22.6z"/>
						<path id="path7342" class="s41" d="m436.7 205c-2.1-3.2-4.8-6.3-7.4-9.4-3.4-3.8-6.1-9.9-9.9-12.4 2.2 16.7-8.8 33-8.8 49.1 6.1-8.4 6.3-21.6 13-29.3 3.4-0.3 6 1.5 9.1 2.4 0.3 14.9-8.1 29-9.5 43 9.2-8.4 14.7-19 20.5-29.5 5.7 2.7 9.3 6.4 13.9 10 0.4 7.2 0.2 14.5 0.2 21.7 2.2-2.6 4.8-4.5 7.4-6.4 0.2-5.3-1.6-9.4-1.6-14.5-2.8-1.3-4.9-2.3-7-3.2-7.9-5.6-12.8-15.3-19.9-21.5z"/>
					</g>
				</g>
			</g>
			<g id="g5508">
				<g id="g5324">
					<path id="path5248" class="s42" d="m150.5 194.8c16.9-15 15-13.6 23.8-20.8 16.5-8.3 22.9-5.4 30.8-8.3 3.3 1 6.5 2.6 9.3 5.7-5.1 0.6-6.1 2.4-10.6 3.8-7.6-0.2-17.3 1.3-21.8 4-8.6 5.1-10.9 9.6-17.6 10.6z"/>
					<path id="path5085" class="s43" d="m0 306.9c13.3-13.3 28.7-26 42.1-35.5 24.9-12 45.8-33.7 72.2-46.4 10.2-7.1 16.6-16.3 25.2-22.4 4-5.6 7.9-6.9 12.1-9.3 6.4-0.4 10.4-5.3 15-8.5 4.6-2.3 8.7-6.7 12-10 3.5 0.9 6.2-0.9 9-1.6 5.3-1.4 9.4-2.3 15.1-2.3 3.5-0.3 4-1.9 6.6-3.1 8.7 4.4 14.5 9.7 24.7 12.4 7.8 8.3 16.7 11.7 24 17 2.5 2.4 5.4 4.6 7.8 6.9 13.2 13.6 23 25.9 35.5 37.9-9.6 2.6-20 2.2-27.1 6.2-3.4-2.6-7-1.9-10.8-2.3-12.4-0.9-23.1-2.4-36.1-2.4-4.6 0.8-10.5 5.9-12 7-2.6-0.8-4.8 1-7.2 1.5-2 4.6-6.9 6.2-10.2 8.5-6.9 3.2-13.8 4.1-19.3 6.2-4.8 1.4-9.5 5.9-13.2 8.5-14.3-0.4-29.7-0.1-42.7 1.6-15.2 3.8-32 10-43.9 18.5-3.7 6-7.5 8.4-13.2 10.8-9.4-0.5-17.7 3.1-27.1 3.1-12.7-0.6-27.3 2-38.5-2.3z"/>
					<path id="path5105" class="s44" d="m173.7 179.6c-2.2 2-4.6 3.9-7.1 5.2-4.6 3.3-8.6 8.1-15 8.5-4.2 2.4-8 3.7-12.1 9.3-8.6 6.1-15 15.3-25.2 22.4-26.4 12.7-47.3 34.4-72.2 46.4-13.4 9.5-28.8 22.2-42.1 35.5 11.2 4.3 25.8 1.7 38.5 2.3 9.4 0 17.7-3.6 27.1-3.1 5.7-2.4 9.5-4.8 13.2-10.8 11.9-8.5 28.7-14.7 43.9-18.5 13-1.7 28.4-2 42.7-1.6 3.4-2.4 7.6-6.4 12.1-8.1 1.2-3.4 2.2-6.9 2.9-10.4 7.1-2.8 12.2-7.1 20.5-5.4 8.5-11 23.8-15.6 39.1-15.5l-9.1-22.4c0.7 0 6.9 0.6 9.1-1.5-0.1-0.3-4-6.8-4.8-10.1-2.8-0.3-5.9-0.8-8.5-2.3-1-1.9-4.7-4.3-4.8-8.5h-6.6c3.1 8.8 1.1-4.2 3 8.5h-9.6c-10.1-7.2-17.5-17.8-30.7-18.6-1.4-0.4-2.8-0.9-4.3-1.3z"/>
					<path id="path5100" class="s45" d="m232.8 179.8c-0.5 4.7-2.9 8.3-4.9 12.7 7.5 3.6 14.6 12.6 19.3 17.8 6.3 5.2 13.7 10.3 17.4 12.4-7.1 2-13.3 0.7-18.6-3.1-2.5 0-4.1-1.6-6-2.3 1.4 8.4 7.6 10.4 15 12.3 3.8 3.7 4.9 7.4 6.6 12.4-12.1-4-20.7-6.2-33.1-6.2-11.8-1.5-20.6 5.6-28.8 10.8 1.1 3.3 3 6.4 5.4 9.3 1.2-1 2.3-2.2 3-3.9 2.4-0.5 4.6-2.3 7.2-1.5 1.5-1.1 7.4-6.2 12-7 13 0 23.7 1.5 36.1 2.4 3.8 0.4 7.4-0.3 10.8 2.3 7.1-4 76.6 11.9 86.3 9.3-12.5-12.1-81.5-39.8-94.7-53.4-2.4-2.3-5.3-4.5-7.8-6.9-7.3-5.3-16.2-8.7-24-17-0.5-0.1-0.8-0.3-1.2-0.4z"/>
					<path id="path5110" class="s46" d="m157 245.9c11.8-1.6 13.6-9.7 16.2-20.9 6.4-0.1 12.1-2.7 16.8-5.4 7.7-6.9 12.9-11.3 18.7-15.5 3.3 0.3 5.8 0.8 9 1.6-4.5 3.8-8.8 8.2-12.6 13.1-0.2 3.6-0.7 7.3-1.2 10.8-1.7-0.5-3.5 1.2-4.8 1.6-2.7-3.3-1.1-6-1.8-10.1-3 2.6-5.9 4-8.5 6.2 1.1 5.1-1.1 8.8-1.8 11.6-3.3 3.7-11.8 5.7-13.8 6.2-5.3 1.2-10.8 0.8-16.2 0.8z"/>
					<path id="path5087" class="s47" d="m218.3 244.3c-13.9 3.6-29.4-0.4-43.3 4.7h-22.8c-20.2 4.7-44.3 17.9-58.4 37.1q0.5 0.1 0.9 0.3c9-4.1 18.7-7.3 28-9.6 13-1.7 28.4-2 42.7-1.6 3.7-2.6 8.4-7.1 13.2-8.5 5.5-2.1 12.4-3 19.3-6.2 3.3-2.3 8.2-3.9 10.2-8.5 1.1-0.2 2.2-0.7 3.4-1.2q0.1-0.1 0.2-0.3c2.3-2.2 3.7-4.1 6.6-6.2z"/>
					<g id="g5096">
						<path id="path5092" class="s48" d="m205.7 187.1c-0.9-5-3-9.6-4.8-13.9-8.5-2.1-17 3.9-24.1 3.9 9.7 0.1 24.9 7.7 28.9 10z"/>
						<path id="path5094" class="s48" d="m209.3 169.3c0.1 4.9 2.6 9.4 4.2 14q1.5-2 3-3.9c5.3 0.2 8.4 7.9 11.4 13.1 4.8 1.2 8.1 3.2 12.1 5.4 7.7 4.3 15.1 10.4 21 17 3.3-0.1 4.7-1.5 7.2-2.3-8.8-3.6-14.9-11.8-21-16.2-6.2-4.4-9.9-10.4-13.9-16.2-8.1-4.2-16.6-5.6-24-10.9z"/>
					</g>
					<path id="path5112" class="s49" d="m70.6 295.9c1.7-9.8 2.9-13.3 4.7-22.9 9.5-3.7 16.3-12.4 23.4-20.4-11.4 2-18 10.4-29 13.2-12.4 0-18.6 7.5-27.1 15.6-13.3 8.1-20.9 16.1-29 26.5 10.1 2.9 22.6-0.8 29-2.4 12.7 2.3 18.7-3 28-9.6z"/>
				</g>
				<path id="path5506" class="s25" d="m190.5 251.8c6.2-5.8 20.6-9 27.9-12.2 2 0.2 2.6 2.3 3.6 4.1-1 2.2-1.5 6.6-3.6 8.3-1.5 0.2-15.1 4.9-12.8 0.8-4.5-3.6-10.5-1.9-15.1-1z"/>
			</g>
			<g id="g4815">
				<path id="path4692" class="s50" d="m0 421.6h900v-170.5c-15.3-2.8-35.6-6.2-53-5.4-8.3 0.4-12.1 3.5-21.5 4.7-77.3-1.2-144.6-2.4-228.5-6.9-19.7-0.1-68.7 5.2-89 9.4-35-3.6-56.1-3.1-84-1.9l-74.7-0.4-16-6.2-67.1 8.7c-27.7-1.8-44.4 3-44.4 3-15.7-3.2-21.8-0.2-32 0.1l-92.8 1-97 8.9z"/>
				<g id="g4755">
					<path id="path5203" class="s51" d="m93.8 259.5c-6.9 0-13.7 0.1-20.6 0.3-24.3 4-49-12.2-73.2-9.4v39.4c26.3-3.7 53.2-4.6 78.9-12.8-0.3 0-13.7-2-18.3-3.4 18.4-1.5 33.8-3.3 52.1-8.1 12.9-0.9 27.4-1 40.8-2.3-18.6-3-39.1-3.7-59.7-3.7z"/>
					<path id="path5284" class="s52" d="m267.6 254c15.5-3.1 40.6-0.1 56.3-2.3h22.6c21.9 2 53.9 5.8 71.8 5.8 40.8 3.2 164.2 25.2 201.4 41.4-20.4-1.9-110.2-17.4-160.5-27.6-16.2 1.4-33.5-0.3-46.5-3.5-39.5-11.2-113.7-11.2-145.1-13.8z"/>
					<path id="path5288" class="s53" d="m223.2 256.4c13.3-2.7 26.3-4.7 37.4-2.4 12.7-1.1 24 3 35.2 4.6 8.8 5 101.5 28.1 109.8 31.1-12.8 1-110.9-22.3-122.5-24.2-22.3-7.8-37.2-5.8-59.9-9.1z"/>
					<path id="path5290" class="s54" d="m208.5 256.3c15.7-0.8 29.5 9.4 39.4 13.8 13.9 5.7 35 15.3 39.4 17.3-15.6-4.5-29.4-10.3-43.6-13.8-17.4-3.9-27.2-8.4-35.2-17.3z"/>
					<path id="path5292" class="s54" d="m174.6 258.6c3.6-2 7.6-0.7 11.3-1.1 7.9 0.4 9.4 6.1 14.1 9.2 9.9 7.6 14.3 16.1 19.7 24.1-6.4-5.1-11.1-9.3-18.3-13.8-12.2-5.4-18.5-9.7-26.8-18.4z"/>
					<path id="path5308" class="s55" d="m342.3 267.8c19 1.1 38.3 4.8 56.3 9.2 38.2 8.9 73.8 14.3 107 24.2-11.6-0.5-21.9-1.2-33.8-1.2-10.4 1.8-19.2-0.8-28.1-2.3-33.7-13.1-71.1-22.4-101.4-29.9z"/>
					<path id="path5310" class="s56" d="m252.1 267.8c13.8 1.1 25.3 4.8 35.2 9.2 21.4 8.9 44 14.3 60.6 24.2-8.6-0.5-15.9-1.2-25.2-1.2-9.7 1.8-14.1-0.8-19.7-2.3-14-13.1-34.2-22.4-50.9-29.9z"/>
					<path id="path5312" class="s56" d="m198.6 267.8c8.5 1.1 15.6 4.8 21.7 9.2 13.2 8.9 27.2 14.3 37.4 24.2-5.2-0.5-9.8-1.2-15.5-1.2-6 1.8-8.7-0.8-12.2-2.3-8.6-13.1-21.1-22.4-31.4-29.9z"/>
					<path id="path5314" class="s57" d="m422.5 257.5c34.3 1.3 69.1 6.3 101.5 12 68.9 11.7 133.1 18.8 192.9 31.7-20.9-0.6-39.5-1.5-60.9-1.5-18.8 2.3-34.6-1.1-50.8-3-60.7-17.2-128-29.5-182.7-39.2z"/>
					<path id="path5316" class="s58" d="m360.6 254c20-3.1 52.5-0.1 72.8-2.3h29.2c28.3 2 69.8 5.8 92.9 5.8 28.5-1.9 87.4 21.3 125.9 15.1 49.8-8 130.3 20.7 146.8 21.7-26.4-1.9-154.7-12.8-219.8-23-20.9 1.4-43.3-0.3-60.2-3.5-51-11.2-147-11.2-187.6-13.8z"/>
					<path id="path5318" class="s59" d="m700 264.4c3.5-2 38.5-0.8 42.3-1.2 5.4-1.6 26.7-4.6 28.1-4.6 17.1 0.5 43.2 0.9 59.2 3.5 17.4 0.5 51.7 14.9 66.2 18.4-11.6-0.7-32.2-7.2-43.7-8.1-5.7 7.3-23.6 0.9-56.3-2.3-65.2-6.4-77.4-3.5-95.8-5.7z"/>
					<path id="path5378" class="s56" d="m163.4 266.7c-0.8 12 1.9 23.9 4.2 33.3-6.9 4.1-12.9-0.8-16.9-1.1-2.5-13.5 8-19.5 12.7-32.2z"/>
					<path id="path5582" fill-rule="evenodd" class="s60" d="m548.1 290.2c0.2-0.6 0.5-1.1 0.8-1.6q-0.4 0.8-0.8 1.6zm0 0q0 0 0 0 0 0 0 0zm0 0c-1.1 2.6-1 6.1-1 7.9 1.7 0.3 2-2.1 2.6-2.8-0.4 2.8 0.5 4.6 1.3 6.5 5.8-1 11 0.9 15.8 2.4-5.5 0.9-11.1 0-16.5 0-1 0.1-1.6-0.4-2.4-0.6-3.2-1.5-4.2-0.6-6.1 0.6-2.4 1.4-5.6 0.9-8.4 0.6-2.8-0.8-6.1-1-8.7-1.8-3.1 1-6.2 0.9-9.2 2.4-5.2-0.4-11.5-2-14.7-2.4q0.5-0.4 1.1-0.8c-5.1 1.6-9.6 4.8-15.5 1.3-3.2 0.4-6.4-0.2-9.7-0.2-2.1 1.1-4 1-6.3 0-1.1 0.1-2.4 0.3-3.5 0.2-1.5 0-2.9 0.2-4.1-0.5-1.2-0.6-4.1-1.3-5.4-3.3 1.2-0.4 2.4-0.5 3.7-0.5 1.8 0.5 2.2 1 3.4 2.3 1.1-0.5 2.2-1.2 3.1-1.8 1.4-0.1 1.6 0.9 2.4 2.2 1-2.1 2.1-2.4 3.8-2.9 0.7 1 0.8 2.2 1 3.4 3.8 0.2 7.3-1.5 11-1.8 1.3 0 0.7 1.2 1 1.8 2.6-1.3 5-2.6 7.7-3 0.7 0.6 1 1.7 2 1.8 2.5-0.9 6.2-2.7 8.8-0.8 1.8-0.9 3.6-2 5.2-2.9 2.6 0.2 4 2.1 5.6 3.7 2.2-0.7 4.4-1.1 6.8-1.3 2.4 0.2 4.7 1.1 7.1 1.6 4-0.2 8.3-1.1 11.8-1.9v-6.4c2.5 2.3 2.5 4.6 2.9 7.6 0.1-3.8 1.6-7.3 3.4-10.6zm-148.6 8.8c0.6-2.6-0.6-4-0.9-4.9 2.8 0.9 4.4 2.4 6.1 5.2 0.4-2.2 1.4-3.5 2.4-4.9 2.1 0.6 3.1 2.6 4.1 4.3 1-0.3 1.5-1.6 2.2-2.4 2.3-0.7 3.6 0.7 5.7 1.9 1.1-0.5 2.1-2.1 2.6-2.7 3.2 0 5.2 3.9 7 7.1 4.1-1 7.1-5.6 11.1-7.1 0.8 1.5 0.9 2.8 1.3 4.1 1.2 0.1 2.7-0.5 3.7-0.9 3.1 2 5.9 3.1 9.4 4.4-3.3 0.3-6.5 0.3-9.8 0.3-1-0.9-2.1-1.4-3.1-1.9-2.2 1.7-4.1 1.6-6.7 1.6-3.5 0.4-7.1 0.3-10.7 0.3-0.8-0.7-1.7-0.7-2.4-1.1-3.5 1.1-6.9 1.1-10.5 1.1-5.5 0.4-9.4-1.1-14.8-1.1-3-0.1-6.1 0-9 0.3 2-3.2 4.2-2.7 7-3 0.1-2.1 0.4-4.1 0.7-6.1 1.5 2.2 2.6 4.2 4.6 5.5zm-80 2.6c0.7 0.1 1.6 0.8 2.6 0.4 0.7-0.9 1.9-0.8 1.4-2.7-0.1-0.9-0.2-1.7-0.5-2.7 1.3 1.6 2.1 3.5 4.7 3.2 0.2-0.3 1.2-2.9 1.4-4.3 0.2 1.5 0.2 3 0.8 4.6 5.1-0.7 10.2-0.7 15.2-1.2 2-0.4 3.8-1.4 5.5-2.3 2.1-2.2 1.2-2.1 4.8 0 0 1.6 0.9 2.2 1.7 3.4-0.3-1.6 1.3-1.3 1.8-1.9 0.8 0.8 1.8 1.9 2.6 2.7 1.9 0.3 3.8 0.2 5.7 0.2 0.3-0.9 1.3-1.1 1.9-1.7 0.3 0.9 1 1.1 1.6 1.7 4.7 0 9.3-1 14.1-1-1.7 1.3-2.6 2.4-3.7 3.5-2.8-0.4-7.8-0.6-9.6-0.6-1.4-0.5-2.8-0.1-4.1 0-3.3 0.8-7.6 0.9-11.1 0.2-1.3-0.4-2.6-0.8-4-1.4 0.5 0.6 0 1.5 0 2.3-24.5-0.5-25.8-1.5-24.4-2.5q-0.2 0.1-0.4 0.1c-0.7 1.1-1.5 1.7-1.6 3.1-0.9-0.3-1.8-0.9-2.9-1.1-3.5-0.3-7.3-0.2-10.9-0.2-3.5 0-6.5 0.6-9.9 1.3-2.3-0.4-5.1-0.7-7.7-0.9-1.8-0.3-4.6-0.6-6.3-1.3-2.1 0.5-4.5 1.4-6.8 2-4.5-0.9-9.2-1.9-14.2-1.8 3.8-0.6 8-0.2 11.9-1.1 2.6 0.2 5.3 0.4 7.9 0 2.5-1.1 4.1-2.3 6.8-2.5 1.3 1.1 2.5 1.9 4 2.7 1.6 0.6 3.2 1.4 4.9 1.4 1.4-0.6 2.6-1.1 4.2-2.3 1.1 0.1 2 0.2 3.1 0.2 2 0 4.2 0.2 6-0.6v-6.3c0 3.4 0.5 5.1 3.5 7.4zm250.9-6c0.3 2.5 1.8 5 2.4 7 0.7-1.3 2.2-2.5 3.1-3.5-1.2 1.5 0.8 2.1 0.9 2.4 1.3 0.8 2.7 1 3.9 1.4 0.5-0.9 1.4-1.1 2.2-1.7 0.8 0.7 1.1 0.7 1.8 1.2 4.4 0.8 9.1 0.5 13.6 0.5-8.2 3.5-19.7 3.2-28.5 1.5-3.7-0.6-6.7-1.2-9.4-3.2 1.8-0.4 3.7-0.5 5.5-0.9 0.4 1.6 0.8 0.8 1.5 1.5 0.8-2 2-4.2 3-6.2z"/>
					<path id="path5664" class="s61" d="m596.8 301.5c9.2 0.5 19.1-0.8 27.2-1.9 2.6-0.5 3.2 0.8 4.7 1.2 2 0.5 3.2-0.7 4.2-0.9 1.7-0.7 3.2 0.7 3.8 0.9 2.9-1.9 3.2-4.2 4.7-6.2 2.9 1 3.5 3.1 4.7 4.8 2.8 0 5.2-0.3 8-0.4 1.2 0.2 2 0.3 3 0.4 3.4-0.7 6.4-2.3 8.5-3.4 2.3 0.6 4.2 2.2 5.5 3.2 1.7-0.5 3.4-0.8 5.1-1.2 4.2-0.3 8.5-0.2 12.8-0.2 3.1-0.1 4.4-1.5 5.9-2.3 3.2 0.3 4.9 1.8 6.8 2.8 3.3 0.1 6.3-0.7 9.4-1.2 3.4 0.3 5.9 1.5 8.5 2.5q5.3 0 10.6 0c2.9-1.3 1.7-2.5 1.7-3.6 1.9 1 2.1 2.1 3 3.2 2.4-0.2 4-1.4 5.5-2.1-0.4 1.2 0.2 2.6 0.4 3.7 6.1-0.4 12.5-0.2 18.7-0.2 1.8 0.4 3.8 1.2 5.1 1.6-9.6 2.2-19 0.9-28.1-0.5-2.9 0.3-6.1 0.2-9.3 0.2-7-1.2-14.9-0.9-21.7-1.6-3.9 0.2-7.7 0-11.4-0.2 1.7 0 1.5 1 2.1 1.4-6.2 0.5-10.7-0.7-16.6-0.7-4.6 0.2-9.2 0.2-14 0.2-3.5 0.4-7.1 0.3-10.6 0.3-3.2-1.6-1.4 0.5-1.7 0.6-2.5 0.4-8.4-0.1-9.3-0.2-2.3-0.3-3.7 0.5-5.6 0.7q-6.6 0-13.1 0c-11.1-1.2-21.4 2.9-28.5-0.9z"/>
					<path id="path5670" class="s57" d="m763.9 301.3c2.6-0.4 7.6-1.6 9.1-2 1.8 0 1.7 0.9 2.9 1.4 0.9-0.9 1.3-3.8 1.4-4 1.5 0.9 1.8 2.1 2.8 3.2 1.3-0.8 2.7-2.5 3.2-3.2-0.8 1.2 0.6 2.6 0.7 3.2 2.7 0.3 5-0.4 7-0.9q3 0 6 0c1.9-0.5 1.7-2.2 2.5-3.2 0.9 0.1 1.2 0.8 1.8 1.2 1.7 0.8 3.7 0.6 5.6 0.6 1.4-0.4 2.8-0.8 4.2-1.2 2.6-0.5 1.2 1.6 1.8 2.3 6.4 0.1 12.5 0.5 18.3 0.9 2.1-2.1 1.3-4.1 1.1-6.3 0.5 1.9 1.5 5.5 1.8 6.3 0.8-2.5 3.1-4.5 4.5-6.1 0.6 1.8 0.4 3.7 0.4 5.5 1.4-0.6 2.1-1.1 3.2-1.7 0.3 1.1 1.2 1.7 1.7 2.6 4.2-0.9 5.1-2.8 6.7-5.8 1.1 1.9 0 4.1-0.3 5.5 1.7-0.8 3.3-1.6 4.9-2.3q0 1 0 2c3.4-0.5 6.4-0.9 9.9-1.2 10.7 3.6 22 2.7 33.1 3.5-7.5 2.9-19.1 1.9-26.4 0.3q-4.4 0-8.8 0c-1.8-0.2-3.3 0.2-5 0.3-3 0.3-6.8-0.2-9.1-0.6-4 0.3-8.2-0.1-11.3-0.9 1.1 1.2-0.6 1.5-0.7 1.8-3.2 0.3-6.5-0.3-8.8-0.9-5.5-0.8-11-0.6-16.6-0.6q0 1 0 2c-4.7 0.6-6.8-1.2-10.6-2.6-3 0.3-5.4 1-8.5 1.2-3.5-0.2-6.8 0.7-10.2 1.2-1.9 0.9-2.9-0.8-3.5-0.9-5 0-10.2 0.2-14.8-0.6z"/>
					<path id="path5672" class="s62" d="m273.9 302.2c-2.3-1.2-2.4-2.1-2.4-4.2-1 1.1-1.2 2.3-1.5 3.3-2.4-3.2-3.4-7-4.9-10.6 0.2 2.9 0.2 5.8 0.2 8.8-1.1-1.3-2.5-2.5-3.5-3.6 0.2 1.3 0.2 2.6 0.2 3.9-1.2 0.1-2.3-0.4-3.3-0.8 0.3 1.1-0.3 1.7-0.6 2.6-2.2-0.7-3.2-2.1-3.6-3.9-0.3 0.9-0.6 1.7-0.9 2.5-1.5-1.3-2.2-3.2-3.1-4.6-0.4 1.9-1.9 3.6-2.8 5.2-0.9-0.7-0.6-1.5-0.7-2.4-0.5 1.3-1.4 1.7-2.6 2.6-0.9 0-1.4-0.6-2-1.1-0.8 1.2-1.5 1.5-2.7 2.3-2.4-4-6.9-5.5-10.8-8.1 1.1 2.9 2.4 5.1 3.1 7.9-1.1-2.3-4.2-3.6-6.2-4.6 1.7 1.4 2.8 3 3.6 4.6-2.2-1.5-3.9-1.6-6.6-1.6 1 0.2 1.5 1 2 1.5-3.8 0.5-7.6 0.3-11.3-0.2-0.4-2.2 0.9-4 2-5.6-2.9 0.7-3.3 3-4.4 4.7-0.9-3.7 0.6-6.3 2.8-9.4-3.6 2.1-4.8 6-6.1 8.4-0.8-1.8-1.7-3-2.9-4.3 0.3 1.8 0.2 3.5-0.4 5.2-1.7 0.2-3.4 0.1-5.1 0.1 0.9 1-0.7 1-0.9 1.2-3.1 0-5.7-1.5-8.1-2.8q0 1.3 0 2.7c-3.5 0.2-7.2-0.3-10 1 4.1-0.5 7.6 1.2 11.5 1.2 4-1.4 8.7-1.2 12.6-1.8 5.2 1.1 10.6 1.4 15.9 1.4-0.1 0.7 0.1 0.5 0.2 1 2.9-1.5 5.9-2.1 9.2-2.4 2 0.1 4 0.9 5.8 1.4 0.5-0.5 0.8-1 1.1-1.5 2 1.1 3.3 1.8 5.5 1.8-0.4-0.7 0.7-1.3 0.9-1.7 1 2.7 4.7 3.2 7.9 2.4 0.2-0.5-0.1-1-0.2-1.5 2.9 0.8 6.3 0.8 9.2 0.3 4.8 0.5 11.2 1.1 13.9-1.3z"/>
					<path id="path5674" class="s63" d="m182.9 300.9c-0.9-2.6-1-5.7-0.3-8.6-1.3 2.4-3.6 4.3-4.6 6.6-1.1-0.4-2.3-0.9-2.9-1.3-0.2 1.1-0.3 2.2-0.4 3.2-2 0.2-3.9-0.4-5.6-1-0.3-1.2-0.2-2.6-0.2-3.9-1.4 1-2 3-2.8 4.4-2-2-4.8-3.2-6.9-4.4 1.7 2 1.8 4.1 2.1 6.3-4.6-1.7-9.2-3.9-14-5.2 3 0.7 5.7 3.6 6.7 5-1.4 0.5-2.9 0.3-4.4 0.3-1.1-1-1-2-1.2-3.2 0.2 1.2-0.2 2.1-0.6 3.1-2.8-3.2-5.4-6.2-10.1-7.4 2.9 1.8 4.4 4.2 4.8 7.2-1-0.3-1.8-0.6-2.5-0.9-0.4-0.6-0.1-1.3-0.2-1.9-1.9 0.7-3.1 2.3-4.2 3.5-2-1.5-3.7-3.1-5.8-4.4 0.1 1.3 0.2 2.4 0.2 3.7-2.9 0.3-5.7-0.3-8.6-0.3-0.4 0.8-0.1 1.5 0 2.2-3.4-1-6.2-1.4-9.6-1.4-1 0.6-2.1 1-2.9 1.4-0.6-2 0.1-4 0.8-5.6-2.6 1-4.7 2-6.3 3.7-2.1 0.2-4.6 0.7-6.4 1-1.2-1.9-2.8-2.5-4.8-3 0.6 1.6 0.8 3.1 0.8 4.8 3 0.7 6.2 0.7 9.4 1 1-0.1 1.2-0.7 1.9-1.1 1.6 0.7 2.7 1.6 4 2.3 1.9-1.1 3.8-1.4 5.8-1.7 3.3 0.5 6.8 1.6 10 2.4 1.4-0.3 2.4-1.4 3-1.9 2 0.1 3.7 0.5 5.6 0.5 2.5 0.2 4.9-0.5 7.1-1.3 1.1 1 2.3 1.2 3.6 1.4 0.4-0.5 0.9-1.2 1.2-1.6 1.9 0.2 3.6 0.9 5.4 1.3 1-0.1 2-0.9 2.8-1.4 3.4 0.8 7.1 0.6 10.4 1.1 0.9-0.8 0.8-1.3 0.9-2.4 1.4 0.4 1.8 0.8 2.9 1.4 1.2-0.1 4.4-1.3 4.6-1.4 1.6 0.5 3.1 1.6 4.2 2.2 1.2-1.3 2.1-2.1 2.9-3.6 1.9 1.3 4 2.1 6 2.5-0.2-1.5-1.1-2.4-1.8-3.6z"/>
					<path id="path5676" class="s51" d="m95.1 305.1c-1.2-5.9-2.9-6.1-7.6-8.8 0.7 1.8 0.2 3.6 0.4 5.4-2.4-2.3-2.1-5.4-2.1-8.8-4.1 1.9-7.4 6.2-9.8 9.3-1.3-0.7-1.9-2.3-2.9-3.4-1.8 0.7-3.2 2-4.7 2.9-5.3 0.1-9.8-1.9-14.8-2.9-2 1.3-0.3 2.4-0.4 3.8-6.4 0.1-12.1-1.8-17.8-3-0.1 4.2-2 0.9-3 1.3-0.9-3.9-0.1-6.6 1.3-10.1-2.3 2.6-3.3 5.4-5.1 8-0.6-3.1-0.9-6.5-1.2-9.6-2.1 3.9-2.9 7.3-4.3 10.4-2.4-0.4-0.5-1.6-0.8-2.5-1.5-1.3-4-3.2-4.2-3.3 1.4 2.5 1.3 4.1 2.1 6.7-1.8-0.5-3.5-1.6-4.7-2.1-1.6-2.1-2.2 1.5-2.5 1.7-4-1.1-7.9 1.2-8.9 1.6 3.1 3.2 8.9 2.5 11.8 2.5-1.4 2.5 1.8 2.9 2.2 3.4 2.9 0.1 5.5-1.5 8-2.5 1.8 3 3.9 2 6.3 2.9 1.4 0.1 1.7-1.3 2.2-1.7 2.2-1.2 5.2-1.3 7.6-1.6 2.4-0.6 4.6 0.5 6.3 0.8-0.7 2.7 1.4 2.2 2.1 3.4 3.6-0.1 6.6-2.2 9.8-3.4 2.2-0.6 4.5-0.4 6.7-0.4 2.4-0.3 4 0.9 6 1.7 2.1 0.1 4.3-0.8 5-0.9 2.3-0.3 3.4 0.6 5.1 0.9 0.1-1.1 1.2-1.4 1.7-2.1 4.1 1.4 6.8 0.7 10.2 0.4z"/>
				</g>
			</g>
			<g id="g5729">
				<g id="g5629">
					<g id="g5683">
						<path id="path5623" class="s57" d="m657.8 242.1c-19.9-1.1 0.4-20.2-19-16.1-45.8 3.1-130.8 32.2-169.4 46.8 16.3 2.8 39.7 9.9 51.2 13.8 46.8-13.5 88.9-40.4 137.2-44.5z"/>
						<path id="path5625" class="s64" d="m555.6 279.7c16.6-10.7 33.1-17.5 50.5-25.7 25.9-26.8 45-39.9 86.2-6.9 19.5 8 44.7-1.5 77.5-3.7 17.8-1.2 30.5 3.1 58.9 15.9 35.3 40.9 26.6 20.7 23.4 21.1-19.1 2-87.8-11.2-116.7 7-45.9-18-95.6-18.6-99.8-16.8-27.8 8.8-55.7 20.3-80 9.1z"/>
						<path id="path5627" class="s65" d="m639 227.1c42.4-2.4 67.1 13.7 84.3 20.9 15.9-2.3 19-3.1 41-9.2 16.7 1.9 51.9 11.1 78 28.5-15.1-11.2-73.4-24.8-92.9-14.8-5.4 2.8 8.3 20 7.2 24.3-14.1-6.9-61.9-10.4-77.2-11.9 16.9-21-18.3-38.3-40.4-37.8z"/>
					</g>
				</g>
			</g>
		</g>
	</g>
</svg>