<svg id="Layer_1" data-name="Layer 1" xmlns="http://www.w3.org/2000/svg" viewBox="0 0 3201.92 2750.25"><defs><style>.cls-1{opacity:0.2;}.cls-2{fill:#191919;}.cls-3{fill:#fff;}.cls-4{fill:#06a9e4;}.cls-5{opacity:0.25;}.cls-6{opacity:0.6;}.cls-7{fill:#616184;}.cls-8{fill:#39a1ff;}.cls-9{fill:#9595c1;}.cls-10{opacity:0.5;}.cls-11{fill:#5ac8ff;}.cls-12{fill:#545470;}.cls-13{fill:#75759b;}</style></defs><g class="cls-1"><path class="cls-2" d="M2415.49,3399.38c0,42.73-349.47,77.38-780.58,77.38s-780.57-34.65-780.57-77.38S1203.81,3322,1634.91,3322s780.58,34.65,780.58,77.39" transform="translate(-491.19 -726.51)"/></g><path class="cls-3" d="M1236.32,1783s-237.23,16-331.8,96.17S806.74,2554,806.74,2554l328.68,11.23Z" transform="translate(-491.19 -726.51)"/><path class="cls-2" d="M892.56,1876.05a220,220,0,0,1,22.63-2.5c7.4-.4,14.78-.61,22.15-.45a314.29,314.29,0,0,1,43.92,3.7,288.63,288.63,0,0,1,42.81,9.58,248.45,248.45,0,0,1,40.46,16.2,1.54,1.54,0,0,1-.91,2.91h-.06c-14.25-2.12-28.19-4.34-42.23-5.57-14-1.55-27.94-2.23-41.84-2.58s-27.79.07-41.57.94c-6.89.45-13.74,1-20.56,1.71s-13.82,1.66-19.85,2.6l-.49.08a13.49,13.49,0,0,1-4.46-26.61" transform="translate(-491.19 -726.51)"/><path class="cls-2" d="M1135.42,2578.72H1135L806.28,2567.5a13.49,13.49,0,0,1-13-13.56c.33-61.5,6-603.25,102.55-685,96.84-82.07,329.75-98.68,339.61-99.34a13.48,13.48,0,0,1,14.29,15.19L1148.8,2567A13.49,13.49,0,0,1,1135.42,2578.72ZM820.34,2541l303.26,10.35,97.2-753.43c-54.74,5.34-231.54,27.15-307.55,91.58C841.45,1950.32,822.1,2368.18,820.34,2541Z" transform="translate(-491.19 -726.51)"/><path class="cls-3" d="M1014,2575.91H840.9A51.44,51.44,0,0,1,790,2531.26c-11.33-83.29-9.35-153.08-3.23-206.15a597.1,597.1,0,0,1,15.51-84.31A51.5,51.5,0,0,1,844.86,2203c75.68-11.07,163.83-2.16,163.83-2.16l2,137.2Z" transform="translate(-491.19 -726.51)"/><g class="cls-1"><path class="cls-2" d="M1014,2575.91H867.88a51.42,51.42,0,0,1-50.9-44.65c-10.71-78.52-9.54-145.08-4.28-196.88,80.28,25.09,154.34,14.75,198,3.68Z" transform="translate(-491.19 -726.51)"/></g><path class="cls-2" d="M1014.05,2589.41H840.9a65.22,65.22,0,0,1-64.3-56.32c-19.35-142.51-.39-246.47,12.63-295.75a65,65,0,0,1,53.67-47.69c76.47-11.17,163.5-2.6,167.16-2.23a13.48,13.48,0,0,1,12.14,13.23l5.34,375.08a13.49,13.49,0,0,1-13.49,13.68ZM931.54,2211c-26.48,0-56.61,1.27-84.74,5.38a38.09,38.09,0,0,0-31.48,27.89c-12.51,47.34-30.7,147.34-12,285.22a38.13,38.13,0,0,0,37.56,33h159.47l-5-349.15C982,2212.31,958.72,2211,931.54,2211Z" transform="translate(-491.19 -726.51)"/><path class="cls-3" d="M2084.84,3418.39c-9.09.46-18.35.68-27.84.68-80.81,0-132.89-7-165.85-14.71a95.47,95.47,0,0,1-67.05-58.1l-189.2-480.74s-101.49,456.28-164.54,519.33c-43.85,43.84-195.36,58.5-306.44,40.56h0c-48.7-7.87-89.62-22-110.31-42.67-59.09-59.14,47-149.62,47-149.62,15.87-143,34.13-395.84,42.45-516.18,2.88-41.51,4.59-67.27,4.59-67.27l19-340.88,127.94-328.33,39.48-101.28h517.76a202.25,202.25,0,0,1,46.68,42.14c29.54,36.83,33.45,70.56,33.45,70.56,64.67,191.22,100.1,392.68,117.42,515.18,10.12,71.37,14,115.89,14,115.89l118.63,580.26c186.36,108.43,87.34,206.28-97.22,215.18" transform="translate(-491.19 -726.51)"/><g class="cls-1"><path class="cls-2" d="M2084.84,3418.39c-9.09.46-18.35.68-27.84.68-30.9,0-57.56-1-80.59-2.69-83.87-29-110.67-72.14-110.67-72.14l-221.12-536.41,3.06-18.13-30.94-3.46s-59.82,305.8-125,485.33c-28.56,78.7-66.2,123.13-99.43,148.17-65.79,15.2-155.73,17.41-228.37,5.67,4.1.05,221.49,1.17,276.49-349.29,53.87-342.86,3.32-381.49.18-383.55,6.74,1.93,199.89,57.29,478.58-15.11a404.84,404.84,0,0,1-34.08,57.6c-31.42,44.53-44.62,99.37-35.35,153.08,25.29,146.49,90.2,418.42,235.1,530.25" transform="translate(-491.19 -726.51)"/></g><path class="cls-2" d="M1541.55,2767.54a744.85,744.85,0,0,0,102.36,9.28c33.69.6,67.06-1.51,99.34-8.07a334,334,0,0,0,47.51-12.9,318.56,318.56,0,0,0,45.29-19.6c29.52-15.19,56.4-35.76,83.12-58.81-8.12,15.6-17.85,30.69-29.79,44-5.72,6.95-12.32,13-18.83,19.32-3.28,3.1-6.91,5.79-10.37,8.72l-5.28,4.3c-1.81,1.38-3.7,2.61-5.55,3.92-29.56,21.19-64.28,35.4-100,42.15-35.7,7.09-72.32,7.05-107.61,1.78-35.23-5.57-69.75-15.75-100.58-33.21a.49.49,0,0,1-.19-.68.51.51,0,0,1,.52-.25Z" transform="translate(-491.19 -726.51)"/><path class="cls-2" d="M1634.93,2879.57a13.58,13.58,0,0,1-2.52-.23,14.06,14.06,0,0,1-11.33-16.33l12.78-70.52a14.06,14.06,0,0,1,27.66,5L1648.75,2868A14.06,14.06,0,0,1,1634.93,2879.57Z" transform="translate(-491.19 -726.51)"/><path class="cls-2" d="M1386.23,3091.51c-159.17,0-265.88-35.17-272-37.22a13.49,13.49,0,0,1,8.63-25.57c2,.66,201.74,66.28,459.13,17.42a13.5,13.5,0,0,1,5,26.52A1078,1078,0,0,1,1386.23,3091.51Z" transform="translate(-491.19 -726.51)"/><path class="cls-2" d="M1854.09,3089.86c-90,0-142.9-16.08-146.82-17.31a13.49,13.49,0,0,1,8.09-25.74c1.91.59,171.72,51.57,426.05-34.11a13.5,13.5,0,0,1,8.61,25.58C2030.15,3078.66,1929.2,3089.86,1854.09,3089.86Z" transform="translate(-491.19 -726.51)"/><path class="cls-2" d="M1093.09,3221.91c2.09-1.36,3.27-2,4.82-2.86l4.35-2.25c2.87-1.42,5.77-2.65,8.66-3.8a184.54,184.54,0,0,1,17.51-5.87,226.09,226.09,0,0,1,35.53-7,302.4,302.4,0,0,1,35.64-1.83c5.94-.16,11.82.41,17.72.59,6,.45,12.18,1.23,18.2,2a176,176,0,0,1,35,9.89,171.15,171.15,0,0,1,31.9,16.37c19.81,13.1,37.24,29.61,49.53,49.49a.5.5,0,0,1-.16.66.48.48,0,0,1-.55,0l0,0a306.41,306.41,0,0,0-56.74-36.08c-19.74-9.62-40.66-16.09-61.86-18.11-5.34-.27-10.53-.59-15.95-.64-5.52.19-11.06.11-16.54.5a318,318,0,0,0-32.65,3.22,258.8,258.8,0,0,0-31.51,7,156.9,156.9,0,0,0-14.92,5.14c-2.39,1-4.74,2-7,3.05l-3.29,1.62c-1,.5-2.28,1.24-2.59,1.43l-.85.5a13.48,13.48,0,0,1-14.19-22.91" transform="translate(-491.19 -726.51)"/><path class="cls-2" d="M2180.17,3216.56c-5.6-.7-12.28-1.43-18.55-1.76s-12.79-.63-19.22-.71a325.31,325.31,0,0,0-38.56,2.19c-12.87,1.3-25.48,4.14-38.09,7.42l-9.45,2.65-9.33,3.14c-6.43,1.85-12.32,4.82-18.84,7l-.09,0a.9.9,0,0,1-.91-1.51c9.95-9.33,21.27-17.79,33.8-23.81a197.84,197.84,0,0,1,39.18-14.46,249.26,249.26,0,0,1,41.27-7c7-.57,14-1.06,21-1a182.54,182.54,0,0,1,21.55,1.06,13.49,13.49,0,1,1-3.1,26.8h-.11Z" transform="translate(-491.19 -726.51)"/><path class="cls-2" d="M1934.74,1991c5.13,12.48,9.85,25.13,14.77,37.72l7.13,19,6.49,19.18c4.31,12.8,8.57,25.62,12.63,38.5l11.36,38.89c14.48,52,27.58,104.49,38.78,157.33,2.89,13.19,5.66,26.41,8.21,39.67s5.39,26.47,7.77,39.77l7.11,39.88,6.58,40c8.44,53.42,15.78,106.75,21.3,160.9l-.23-1.51,59.65,290.06,29.45,145.1,29,145.2-6.17-8.6h0c22.06,13,43.74,27.31,63.14,45.39a186.5,186.5,0,0,1,26.63,30.49c7.55,11.63,13.87,25,15.77,40.15a70.63,70.63,0,0,1-8.92,44.11c-7.44,13-17.92,23.08-29,31.21-22.3,16.22-47.17,25.88-72.17,32.92-50.08,14.06-102.12,16.63-152.52,15.47-25.28-.48-50.6-1.73-75.94-4.19-12.67-1.25-25.34-2.82-38-4.85-6.33-1.05-12.67-2.15-19-3.48-3.16-.62-6.32-1.33-9.49-2.05s-6.85-1.67-10.17-2.86a107.91,107.91,0,0,1-62.81-54.3c-1.66-3.1-3-6.53-4.32-9.63l-3.43-8.72-6.88-17.46-13.73-34.92-55-139.68-109.93-279.35,24.7-1.94c-21.51,94.52-44.87,188.34-71.35,281.63-13.39,46.6-27.44,93-44.08,139-8.39,23-17.26,45.77-28.5,68.23-5.68,11.24-11.68,22.36-21.06,33.35-9.69,11-21.76,18.14-33.41,23.83a222.32,222.32,0,0,1-36,13.33c-12.09,3.62-24.29,6.11-36.49,8.54a602.19,602.19,0,0,1-73.55,8.49c-49.13,2.68-98.44.8-147.35-7.55-24.44-4.21-48.81-10.33-72.56-20.36-11.79-5.31-23.52-11.61-34.2-20.78-10.53-9.07-19.8-21.39-23.66-36-4.22-14.47-2.87-29.53.74-42.7a141.4,141.4,0,0,1,16.45-36.19,236.81,236.81,0,0,1,22.82-30.72,281.93,281.93,0,0,1,26.8-27.13l-4.47,8.42c8.27-76.52,14.92-153.43,21.15-230.35s12-153.9,17.44-230.91l8-115.51,6.52-115.58,12.91-231.29a13.47,13.47,0,0,1,.87-4L1322,1874.48a13,13,0,0,1,12.06-8.24h517.74a12.95,12.95,0,1,1,0,25.9H1334.1l12.07-8.25-167.44,429.58.86-4-12.92,231.38-6.53,115.76-8,115.64q-8.2,115.61-17.46,231.17c-6.25,77-12.9,154-21.23,231.1a12.79,12.79,0,0,1-4.26,8.24l-.21.19a262.92,262.92,0,0,0-24,24.4,211.14,211.14,0,0,0-20.36,27.36c-11.8,18.81-19.46,40.47-14.29,58.28,2.29,8.9,8.12,16.86,15.75,23.45s17.34,12,27.54,16.57c20.78,8.78,43.54,14.63,66.66,18.59,46.33,7.92,94.17,9.81,141.44,7.2a577.35,577.35,0,0,0,70.29-8.1c11.48-2.29,23-4.64,34-8a196.28,196.28,0,0,0,31.91-11.78c9.94-4.83,19-10.45,25.26-17.69s12.22-17.54,17.33-27.85c10.38-20.73,19.09-43,27.27-65.39,16.28-44.92,30.23-91,43.51-137.21,26.28-92.57,49.61-186.28,71-280.14l0-.06a13,13,0,0,1,15.5-9.76,13.12,13.12,0,0,1,9.18,7.89l109.92,279.35,55,139.68,13.74,34.92,6.87,17.46,3.43,8.73c1.14,2.65,2.06,5.07,3.36,7.48a82.36,82.36,0,0,0,47.81,41.34c2.57.93,5.1,1.49,7.88,2.22l8.84,1.92c5.92,1.23,11.92,2.27,17.92,3.27,12,1.93,24.2,3.44,36.43,4.65,24.46,2.36,49.15,3.59,73.9,4.06s49.25.3,73.56-1.93,48.37-6,71.48-12.58,45.51-15.46,63.74-28.79c9-6.63,16.91-14.45,21.88-23.25a44.39,44.39,0,0,0,5.7-28.1c-1.21-9.78-5.6-19.67-11.62-29a161.68,161.68,0,0,0-22.71-25.86c-17.21-16.1-37.58-29.61-58.53-42h0l-.14-.09a13.11,13.11,0,0,1-6-8.51L2139,3060.86l-29.85-145-59-290.2a12,12,0,0,1-.21-1.43v-.08c-5-53-11.91-106.38-19.87-159.35l-6.23-39.73-6.7-39.65c-2.11-13.24-4.67-26.4-7-39.61s-4.81-26.38-7.44-39.53-5-26.34-7.79-39.45l-8.21-39.38c-2.74-13.13-5.91-26.15-8.85-39.24s-6-26.14-9.23-39.14c-12.18-52.27-26.39-103.94-39.45-156.24v0a2.91,2.91,0,0,1,5.51-1.81" transform="translate(-491.19 -726.51)"/><rect class="cls-3" x="706.65" y="1502.91" width="275.7" height="145.07"/><g class="cls-1"><rect class="cls-2" x="706.64" y="1576.03" width="275.72" height="44.97"/></g><path class="cls-2" d="M1473.55,2387.35h-275.7a12.87,12.87,0,0,1-12.87-12.86V2229.42a12.87,12.87,0,0,1,12.87-12.86h275.7a12.87,12.87,0,0,1,12.87,12.86v145.07A12.87,12.87,0,0,1,1473.55,2387.35Zm-262.83-25.73h250V2242.29h-250Z" transform="translate(-491.19 -726.51)"/><path class="cls-3" d="M2028.17,2150.63v262.85a46,46,0,0,1-46,46H1486.37a46,46,0,0,1-46-46V2150.63a46,46,0,0,1,46-46h495.84a46,46,0,0,1,46,46" transform="translate(-491.19 -726.51)"/><g class="cls-1"><path class="cls-2" d="M2028.17,2302V2382a46,46,0,0,1-46,46h-496a19.06,19.06,0,0,1-18.81-18.81V2278.74c17.09,15.29,42,27.44,74,16.42l7-23.52s69.48,94.85,268.25,110.85S2028.17,2302,2028.17,2302" transform="translate(-491.19 -726.51)"/></g><path class="cls-2" d="M1594.31,2472.93a59.51,59.51,0,0,1-59.44-59.44V2150.61a59.51,59.51,0,0,1,59.44-59.44,13.49,13.49,0,0,1,0,27,32.49,32.49,0,0,0-32.46,32.46v262.88a32.49,32.49,0,0,0,32.46,32.46,13.49,13.49,0,0,1,0,27Z" transform="translate(-491.19 -726.51)"/><path class="cls-2" d="M1824.06,2472.93a13.49,13.49,0,0,1-13.49-13.49V2331.55l-88.65-66.49a13.51,13.51,0,0,1-5.39-10.79V2104.66a13.49,13.49,0,0,1,27,0v142.86l88.64,66.48a13.5,13.5,0,0,1,5.4,10.8v134.64A13.49,13.49,0,0,1,1824.06,2472.93Z" transform="translate(-491.19 -726.51)"/><path class="cls-2" d="M1982.22,2472.93H1486.38a59.51,59.51,0,0,1-59.44-59.44V2150.61a59.51,59.51,0,0,1,59.44-59.44h495.84a59.51,59.51,0,0,1,59.44,59.44v262.88A59.51,59.51,0,0,1,1982.22,2472.93Zm-495.84-354.78a32.49,32.49,0,0,0-32.46,32.46v262.88a32.49,32.49,0,0,0,32.46,32.46h495.84a32.49,32.49,0,0,0,32.45-32.46V2150.61a32.49,32.49,0,0,0-32.45-32.46Z" transform="translate(-491.19 -726.51)"/><path class="cls-4" d="M1920.43,2303.66a46.55,46.55,0,0,0,23.92,6.7H1896.5c-32.47,0-58.77-34.45-58.77-76.94s26.3-77,58.77-77h47.85a46.65,46.65,0,0,0-23.92,6.7c-20.51,12-34.86,38.9-34.86,70.25s14.35,58.28,34.86,70.24" transform="translate(-491.19 -726.51)"/><g class="cls-5"><path class="cls-2" d="M1888.05,2255.51c-21.47-4.05-39.14-23.24-46.54-49.08a97.94,97.94,0,0,0-3.78,27c0,42.49,26.3,76.94,58.77,76.94h47.85a46.62,46.62,0,0,1-23.93-6.7c-15.48-9-27.43-26.6-32.37-48.15" transform="translate(-491.19 -726.51)"/></g><g class="cls-6"><path class="cls-3" d="M1896.5,2188h.49c6-10.7,14.07-19.32,23.43-24.78a46.71,46.71,0,0,1,23.93-6.7H1896.5c-32.47,0-58.78,34.45-58.78,77a101.34,101.34,0,0,0,1.24,15.74c5.55-34.95,29.2-61.21,57.54-61.21" transform="translate(-491.19 -726.51)"/></g><path class="cls-2" d="M1944.35,2323.86H1896.5c-39.85,0-72.27-40.57-72.27-90.44s32.42-90.44,72.27-90.44h47.85a13.49,13.49,0,1,1,0,27,33.11,33.11,0,0,0-17,4.82c-17.18,10-28.23,33-28.23,58.64s11,48.61,28.15,58.59l.08,0a33.2,33.2,0,0,0,17,4.81,13.5,13.5,0,0,1,0,27Zm-51.7-153.67c-23.17,2.75-41.43,30.06-41.43,63.23s18.26,60.48,41.43,63.22c-12.92-16.61-20.57-39.24-20.57-63.22S1879.73,2186.8,1892.65,2170.19Z" transform="translate(-491.19 -726.51)"/><path class="cls-4" d="M2003.13,2233.42c0,42.49-26.31,76.94-58.78,76.94a46.62,46.62,0,0,1-23.93-6.7c-20.5-12-34.85-38.9-34.85-70.24s14.35-58.29,34.85-70.25a46.71,46.71,0,0,1,23.93-6.7c32.47,0,58.78,34.45,58.78,77" transform="translate(-491.19 -726.51)"/><g class="cls-5"><path class="cls-2" d="M2003.13,2233.42c0,37.46-20.46,68.67-47.58,75.51a47.91,47.91,0,0,1-12.64-5.27c-19-11.11-32.74-35.07-34.58-63.5a57.44,57.44,0,0,0,12.09,9.53,46.63,46.63,0,0,0,23.93,6.71c25.19,0,46.64-20.78,55-50a99.07,99.07,0,0,1,3.78,27" transform="translate(-491.19 -726.51)"/></g><g class="cls-6"><path class="cls-3" d="M1915.93,2199.15a46.58,46.58,0,0,1,23.92-6.7c31,0,56.3,31.39,58.56,71.19a97.47,97.47,0,0,0,4.72-30.22c0-42.5-26.31-77-58.78-77a46.71,46.71,0,0,0-23.93,6.7c-20.5,12-34.85,38.9-34.85,70.25,0,2,.07,4,.18,6,5.81-17.91,16.64-32.36,30.18-40.26" transform="translate(-491.19 -726.51)"/></g><path class="cls-2" d="M1944.35,2323.86a59.64,59.64,0,0,1-30.81-8.6c-25.15-14.67-41.46-46.81-41.46-81.84s16.31-67.19,41.55-81.9a59.62,59.62,0,0,1,30.72-8.54c39.85,0,72.27,40.57,72.27,90.44S1984.2,2323.86,1944.35,2323.86Zm0-153.9a33.09,33.09,0,0,0-17,4.82c-17.18,10-28.24,33-28.24,58.64s11.06,48.61,28.16,58.58a33.16,33.16,0,0,0,17.13,4.87c25,0,45.29-28.46,45.29-63.45S1969.32,2170,1944.35,2170Z" transform="translate(-491.19 -726.51)"/><path class="cls-7" d="M2187.39,3046.42l3.61,38c-125.29,58-221.47,85.73-280.71,98.86-44.28,9.79-68,11.42-68,11.42l-9.63-70.05L1669.41,1939l37.43-11.82,185.35-58.49c162.36,136.09,281.71,445.7,357.59,704,65.79,224.05,98.91,409.54,98.91,409.54-71,37.08-161.3,64.16-161.3,64.16" transform="translate(-491.19 -726.51)"/><path class="cls-8" d="M1910.29,3183.22v.05c-44.28,9.79-68,11.42-68,11.42L1669.41,1939l37.43-11.82,18.26,6.59Z" transform="translate(-491.19 -726.51)"/><g class="cls-1"><path class="cls-2" d="M2318.26,2992.4c-41,21.46-88.52,39.52-121.33,51-.66.2-1.37.46-2.08.71-4.77,1.48-7.46,2.28-7.46,2.28v.26l3.6,37.73c-70.45,32.62-131.73,55.64-182.39,71.93-.36.1-.77.25-1.12.35-38.91,12.49-71.52,20.9-97.19,26.58-44.28,9.79-68,11.42-68,11.42l-9.64-70.06v-.14s255.25-73.55,280.55-138.63-46.05-392.5-46.05-392.5l150.24-17c.66,2.18,1.32,4.36,1.93,6.49,65.78,224,98.91,409.54,98.91,409.54" transform="translate(-491.19 -726.51)"/></g><path class="cls-2" d="M2174.18,3049.21c-11.83-55.34-24.6-110.74-37.82-165.9s-27.15-110.22-41.63-165.07-29.92-109.44-46-163.79c-16.35-54.27-33.64-108.21-52.37-161.58v-.06a13.48,13.48,0,0,1,8.26-17.19,13.65,13.65,0,0,1,6.07-.67l75.27,9h0l-14.59,17c-10.25-34.68-21.94-69.62-34.08-104.08s-25.57-68.59-39.58-102.39Q1976.38,2144,1951.5,2095c-17.07-32.38-35.2-63.88-52.51-96.82v0a1.17,1.17,0,0,1,1.87-1.36c26.12,26.67,47.19,57.7,66,89.72,18.57,32.19,35.87,65.13,51.58,98.79s29.85,68,43.21,102.64c6.71,17.31,12.91,34.8,18.85,52.4s11.66,35.17,16.81,53.35a13.47,13.47,0,0,1-9.28,16.63,13.3,13.3,0,0,1-5.22.42h-.1l-75.27-9,14.33-17.91c18.92,53.93,36.34,108.28,52.79,162.89q24.29,82,46.24,164.6T2162.6,2877c13.28,55.41,26.05,110.82,38,166.67a13.49,13.49,0,1,1-26.39,5.65Z" transform="translate(-491.19 -726.51)"/><path class="cls-2" d="M1910.28,3196.74a13.51,13.51,0,0,1-13.33-11.52L1711.76,1935.78a13.49,13.49,0,1,1,26.69-4l185.2,1249.45a13.52,13.52,0,0,1-13.37,15.47Z" transform="translate(-491.19 -726.51)"/><path class="cls-2" d="M1842.32,3208.18a13.49,13.49,0,0,1-13.35-11.65L1656,1940.85a13.48,13.48,0,0,1,9.31-14.7l222.76-70.29a13.51,13.51,0,0,1,12.73,2.52C2028.62,1965.5,2145.09,2187,2247,2516.83c75.61,244.58,114.57,460.9,115,463.06a13.51,13.51,0,0,1-7,14.33c-57.79,30.17-127,53.48-153.11,61.84l2.58,27.07a13.46,13.46,0,0,1-7.76,13.52c-218.51,101.13-348,111.13-353.4,111.5C1843,3208.17,1842.64,3208.18,1842.32,3208.18Zm-158-1259.73L1853.9,3179.79c36.63-5,151.95-25.66,322.76-103.64l-2.71-28.43a13.51,13.51,0,0,1,9.55-14.21c.86-.25,82.59-25,150.11-58.68-18.1-95.21-169.37-851.86-444.51-1091Z" transform="translate(-491.19 -726.51)"/><path class="cls-9" d="M2124.09,2052.66c-9,46.4-50.27,62.38-50.27,62.38-1.36-2.78-2.78-5.68-4.31-8.62-23.38-45.4-65.58-108.9-65.58-108.9l-45.55-11.16c-34.24-38.7-72.44-77.55-93.58-98.71-10.15-10.14-16.39-16.18-16.39-16.18l110-53.21c43.37,33.74,174.79,188,165.71,234.4" transform="translate(-491.19 -726.51)"/><g class="cls-1"><path class="cls-2" d="M2093.72,2075.15c-1.11,6.26-4.28,18.27-13,25.67a10.42,10.42,0,0,1-15.83-3.16c-20.36-37.8-50.27-83.87-58.69-96.69a10.46,10.46,0,0,0-6.28-4.43l-38.37-9.4a10.56,10.56,0,0,1-5.34-3.22c-31.71-35.68-66.41-71.18-87.64-92.49a10.5,10.5,0,0,1,9.39-17.72l36.29,6.8a10.54,10.54,0,0,1,6.18,3.64l49.81,60.43a10.57,10.57,0,0,0,6.49,3.7l42.64,6.63a10.43,10.43,0,0,1,7.36,4.93l65.61,108.06a10.47,10.47,0,0,1,1.38,7.25" transform="translate(-491.19 -726.51)"/></g><path class="cls-2" d="M2073.8,2128.55a13.48,13.48,0,0,1-12.15-7.62c-18.25-37.79-55.48-95.35-66.09-111.55l-40.39-9.89a13.54,13.54,0,0,1-6.9-4.17c-49.69-56.19-108.66-113.6-109.26-114.17a13.5,13.5,0,0,1,3.53-21.82l110-53.23a13.5,13.5,0,0,1,14.16,1.49c39.74,30.91,181.86,190.32,170.69,247.66-10.34,53.11-56.71,71.63-58.68,72.39A13.38,13.38,0,0,1,2073.8,2128.55Zm-108.12-154.27,41.45,10.15a13.47,13.47,0,0,1,8,5.63c1.81,2.71,40.8,61.46,64.43,106.53,10.77-7.24,26.45-21.7,31.29-46.5,6.74-34.64-103.42-172-154.39-215.94l-85,41.14C1891.6,1895.32,1930.57,1934.8,1965.68,1974.28Z" transform="translate(-491.19 -726.51)"/><path class="cls-7" d="M1598.24,1943.09,1458.15,3192.81l-7.26,64.57s-31.75-2.44-74.71-11.06l0,0c-48.8-9.8-112.05-27.55-159.63-58.8l13.34-85.87-42.4,56s-287.35-132.85-420.2-331.68l0,0L900.14,2469.7,776.58,2263.26s46.87-77.81,121.23-173.88c72.38-93.43,170.78-204.21,277.35-277.61,5.13-3.55,10.35-7,15.52-10.4,146.79-95.26,277-3.6,348.77,70.1,37.23,38.25,58.79,71.62,58.79,71.62" transform="translate(-491.19 -726.51)"/><path class="cls-9" d="M1347.27,1900.18c-45.86,92.37-116.82,115.34-148.42,121.08a63.64,63.64,0,0,0-30.84,14.91l-102.77,90.95c-108.49,7.5-167.38-37.69-167.38-37.69l-.05,0c72.38-93.43,170.78-204.21,277.35-277.61,137.82-3.65,172.11,88.41,172.11,88.41" transform="translate(-491.19 -726.51)"/><path class="cls-8" d="M1598.24,1943.09,1450.89,3257.38s-31.75-2.44-74.71-11.06l0,0,163.32-1374.81c37.23,38.25,58.79,71.62,58.79,71.62" transform="translate(-491.19 -726.51)"/><g class="cls-1"><path class="cls-2" d="M1458.15,3192.81l-7.26,64.57s-31.75-2.44-74.71-11.06l0-.05c-48.8-9.79-112.05-27.54-159.63-58.79l13.34-85.87-42.4,56s-287.35-132.85-420.2-331.68c4.83,3.14,297.54,203.84,351.36,186.29,94.7-30.86,169.06-354.33,172-366l-49.36,400.2s26.18,104.9,94.45,123c48.74,12.93,98.2,20.28,122.45,23.43" transform="translate(-491.19 -726.51)"/></g><g class="cls-6"><path class="cls-3" d="M792.56,2846.17,925.5,2490,801.94,2283.55s46.87-77.81,121.23-173.88c72.38-93.43,170.78-204.22,277.36-277.61,5.11-3.55,10.34-7,15.51-10.4,113.33-73.54,216.74-35.65,291,19.35-75.07-64.66-189.53-122-316.41-39.64-5.17,3.35-10.39,6.85-15.52,10.4-106.57,73.4-205,184.18-277.35,277.61-74.36,96.07-121.23,173.88-121.23,173.88L900.14,2469.7,767.19,2825.88c46,68.83,110.47,129.74,175.15,180-55.89-46.06-109.83-99.88-149.78-159.7" transform="translate(-491.19 -726.51)"/></g><path class="cls-2" d="M1376.17,3259.78a14.61,14.61,0,0,1-1.61-.09,13.5,13.5,0,0,1-11.81-15L1527.49,1858a13.49,13.49,0,0,1,26.8,3.19L1389.55,3247.88A13.49,13.49,0,0,1,1376.17,3259.78Z" transform="translate(-491.19 -726.51)"/><path class="cls-2" d="M1041,2141.44c-96.29,0-149-39.5-151.35-41.31A13.49,13.49,0,0,1,906,2078.69c.68.5,55.33,40.74,153.77,35.24l99.29-87.87a77.18,77.18,0,0,1,37.38-18.09c26.58-4.81,92.13-25,135.87-108.12-9.45-18.54-49.63-80.24-164.25-74.3a13.5,13.5,0,0,1-1.38-27c152.39-7.67,191.65,92.62,193.24,96.9a13.47,13.47,0,0,1-.56,10.72c-49.13,98.87-126.93,122.67-158.1,128.32a50.13,50.13,0,0,0-24.32,11.74l-102.76,90.93a13.53,13.53,0,0,1-8,3.36Q1053.13,2141.46,1041,2141.44Z" transform="translate(-491.19 -726.51)"/><path class="cls-2" d="M1216.48,3099.6c4.28-25.54,9.32-51,14.68-76.36,2.56-12.7,5.48-25.36,8.38-38s6.18-25.25,9.86-37.8a3.34,3.34,0,0,1,6.55,1c-.14,13.06-.79,26.06-1.57,39s-1.79,25.91-3.05,38.81c-2.24,25.85-4.82,51.64-8.16,77.33a13.49,13.49,0,0,1-26.76-3.47l.07-.5" transform="translate(-491.19 -726.51)"/><path class="cls-2" d="M1450.93,3270.86c-.35,0-.69,0-1,0-6.05-.46-149.42-12.1-240.77-72.08a13.49,13.49,0,0,1-5.93-13.34l5.12-33-10.13,13.38a13.49,13.49,0,0,1-16.42,4.11c-11.87-5.49-292.36-136.78-425.78-336.51a13.47,13.47,0,0,1-1.42-12.21l130.67-350.09L765,2270.18a13.49,13.49,0,0,1,0-13.9c7.87-13.06,195.41-321.56,418.33-466.24,59.52-38.62,121.93-51.3,185.48-37.68,140.5,30.12,236.73,177.17,240.75,183.41a13.45,13.45,0,0,1,2.07,8.82L1464.33,3258.87A13.5,13.5,0,0,1,1450.93,3270.86Zm-219.72-90.08c70.2,42.6,172.06,57.66,207.79,61.8l145.29-1296c-16-23.15-103.8-142.7-221.22-167.81-56.25-12-111.77-.6-165,34-199.68,129.58-376.39,403.84-405.68,450.68L911.7,2462.78a13.48,13.48,0,0,1,1.07,11.64l-130.5,349.65c116.87,170,350.55,291.65,401.06,316.6l35.74-47.22a13.49,13.49,0,0,1,24.09,10.2Z" transform="translate(-491.19 -726.51)"/><g class="cls-1"><path class="cls-2" d="M1972.77,1860.07a615.23,615.23,0,0,1-428.48,173,614.08,614.08,0,0,1-249.68-52.57c-58.37-25.86-135.54-70.3-182.71-112,33.46-46.59,78.83-65.1,78.83-65.1l169.9,75.86h456.05l111.84-54.64s15.74,10,44.25,35.53" transform="translate(-491.19 -726.51)"/></g><polygon class="cls-8" points="1534.72 472.44 1453.34 212.1 1555.16 63.85 1685.67 457.52 1534.72 472.44"/><g class="cls-1"><polygon class="cls-2" points="1648.04 461.24 1685.67 457.52 1555.16 63.85 1528.94 102.02 1648.04 461.24"/></g><path class="cls-2" d="M2025.9,1212.68a13.72,13.72,0,0,1-13.08-9.63L1931.44,942.7a13.71,13.71,0,0,1,1.78-11.86L2035,782.59a13.72,13.72,0,0,1,24.34,3.45l130.51,393.67a13.72,13.72,0,0,1-11.68,18l-151,14.93A12.39,12.39,0,0,1,2025.9,1212.68Zm-66.28-271.8,76.05,243.32,122.77-12.14L2042,820.9Z" transform="translate(-491.19 -726.51)"/><path class="cls-3" d="M2202.06,1357.29c0,340.92-276.37,617.29-617.29,617.29s-617.29-276.37-617.29-617.29S1243.85,740,1584.77,740s617.29,276.37,617.29,617.29" transform="translate(-491.19 -726.51)"/><g class="cls-1"><path class="cls-2" d="M2202.07,1357.3a616.42,616.42,0,0,1-43.16,227.28c-97.9,211.63-312.15,358.51-560.65,358.51-340.93,0-617.27-276.35-617.27-617.27a620.73,620.73,0,0,1,13.67-129.88C1003,1508.85,1259.22,1760,1574.15,1760c320.19,0,579.72-259.57,579.72-579.72a582.38,582.38,0,0,0-4.59-73,614.8,614.8,0,0,1,52.79,250" transform="translate(-491.19 -726.51)"/></g><path class="cls-2" d="M2202.07,1346s1.76,210.24-82.87,320.42c-99.21,129.2-269.42,248.56-577.83,183.93-121.16-25.36-203.94-91.83-259.8-163.15-.4-.54-.85-1.08-1.26-1.62-100.06-129.11-116.65-304.23-48.12-452.63,65.89-142.69,204.8-301.58,496.75-301.58,403.61,0,463.15,287,471.75,383.43a286.11,286.11,0,0,1,1.38,31.2" transform="translate(-491.19 -726.51)"/><path d="M2202.07,1346s1.76,210.24-82.87,320.42c-99.21,129.2-269.42,248.56-577.83,183.93-121.16-25.36-203.94-91.83-259.8-163.15-.4-.54-.85-1.08-1.26-1.62,733,214.51,911.6-373.17,911.6-373.17s3.06.81,8.78,2.39a286.11,286.11,0,0,1,1.38,31.2" transform="translate(-491.19 -726.51)"/><g class="cls-10"><path class="cls-3" d="M1872.46,1021.76s173.11,126.09,156,493.7c0,0,238.3-376.15-156-493.7" transform="translate(-491.19 -726.51)"/></g><g class="cls-6"><path class="cls-3" d="M1486.76,1319.54a69.84,69.84,0,1,1-69.84-69.84,69.84,69.84,0,0,1,69.84,69.84" transform="translate(-491.19 -726.51)"/></g><g class="cls-6"><path class="cls-3" d="M1494.17,1540.75a53.74,53.74,0,1,1-53.74-53.74,53.75,53.75,0,0,1,53.74,53.74" transform="translate(-491.19 -726.51)"/></g><path class="cls-2" d="M1707.65,1880.47c-51.14,0-107.21-5.73-168.7-18.62-107.59-22.54-197.3-78.89-266.63-167.46-103.27-131.92-122.74-310.64-50.82-466.41,65-140.71,205.74-308.42,507.45-308.42,159.57,0,283.38,44.16,368,131.27,120.43,124,117.08,288.51,116.87,295.46a11.56,11.56,0,0,1-12.09,11.41,11.76,11.76,0,0,1-11.43-12.09c0-1.6,3.08-161.91-110.44-278.59-80-82.23-198.07-123.93-350.91-123.93-289.27,0-424,160.29-486.08,294.75-68.2,147.73-49.82,317.11,48,442,65.82,84.08,150.92,137.56,252.93,158.94,314.25,65.82,481.16-61.16,565.85-179.28a11.77,11.77,0,1,1,19.13,13.71C2056.7,1773.75,1928.2,1880.46,1707.65,1880.47Z" transform="translate(-491.19 -726.51)"/><path class="cls-2" d="M1692.9,1933.28q-15,0-30.05-.92c-169-10.35-309.5-68.86-406.36-169.22-93.67-97.05-143.18-228.8-143.18-381,0-302.37,254-557.85,554.73-558.1,14.32-1,226.74-13.84,392.51,122a11.77,11.77,0,0,1-14.92,18.21c-160.49-131.56-374.11-116.91-376.25-116.74l-.9,0c-288.18,0-531.63,244.81-531.63,534.57,0,305,202.1,506.82,527.44,526.75,130.37,8,256.76-38.9,355.78-132,108.18-101.75,170.22-245.62,170.22-394.71a11.77,11.77,0,0,1,23.54,0c0,155.56-64.74,305.67-177.63,411.85C1940,1884.44,1819.1,1933.28,1692.9,1933.28Z" transform="translate(-491.19 -726.51)"/><path class="cls-2" d="M1584.77,1988.07c-347.81,0-630.78-283-630.78-630.78s283-630.78,630.78-630.78,630.78,283,630.78,630.78S1932.59,1988.07,1584.77,1988.07Zm0-1234.58c-332.94,0-603.8,270.86-603.8,603.8s270.86,603.8,603.8,603.8,603.8-270.87,603.8-603.8S1917.71,753.49,1584.77,753.49Z" transform="translate(-491.19 -726.51)"/><polygon class="cls-8" points="530.34 546.94 302.86 434.84 322.15 599.8 481.25 680.72 530.34 546.94"/><g class="cls-6"><polygon class="cls-3" points="322.15 599.8 346.55 492.09 479.85 557.78 472.33 524.23 307.68 434.84 322.15 599.8"/></g><path class="cls-2" d="M972.44,1421a13.76,13.76,0,0,1-6.22-1.49l-159.1-80.92a13.7,13.7,0,0,1-7.4-10.64l-19.29-165a13.72,13.72,0,0,1,19.69-13.9l227.48,112.1a13.71,13.71,0,0,1,6.81,17L985.33,1412a13.74,13.74,0,0,1-12.89,9ZM826.12,1317.42,964.89,1388l39.51-107.69-193.79-95.5Z" transform="translate(-491.19 -726.51)"/><polygon class="cls-8" points="483.06 568.03 401.68 307.69 503.5 159.43 634.01 553.1 483.06 568.03"/><g class="cls-1"><polygon class="cls-2" points="472.33 204.82 582.75 532.47 624.1 523.2 505.36 154.01 472.33 204.82"/></g><g class="cls-6"><polygon class="cls-3" points="437.19 317.83 517.33 201.14 503.5 159.43 401.68 307.69 483.06 568.03 514.42 564.93 437.19 317.83"/></g><path class="cls-2" d="M974.24,1308.26a13.72,13.72,0,0,1-13.08-9.63l-81.38-260.34a13.71,13.71,0,0,1,1.78-11.86L983.38,878.17a13.72,13.72,0,0,1,24.34,3.45l130.51,393.67a13.72,13.72,0,0,1-11.67,18l-151,14.93A12.39,12.39,0,0,1,974.24,1308.26ZM908,1036.46l76,243.32,122.78-12.14L990.36,916.48Z" transform="translate(-491.19 -726.51)"/><path class="cls-3" d="M1211.87,1432.49c0,106.85-50.73,193.42-113.28,193.42h-86.66c15.33,0,30-5.22,43.3-14.67,41.11-29,70-98.12,70-178.75q0-12.62-1-24.82c-5.21-69.75-32.2-127.9-69-153.9-13.35-9.49-28-14.7-43.3-14.7h86.66c49.15,0,91,53.47,106.66,128.17a318.7,318.7,0,0,1,6.62,65.25" transform="translate(-491.19 -726.51)"/><g class="cls-5"><path class="cls-2" d="M1011.93,1625.91c.89,0,1.75,0,2.65-.05a0,0,0,0,0-.05.05Z" transform="translate(-491.19 -726.51)"/></g><g class="cls-1"><path class="cls-2" d="M1211.87,1432.49c0,40.15-7.15,77.44-19.43,108.33-40.3,48.79-110,49.56-110,49.56s-3.28,1.49-8.5,4c30.89-34.55,51.27-94.18,51.27-161.9q0-12.62-1-24.82c74.29,2.15,73.58-41.42,73.58-41.42s2.6.31,7.41,1a318.7,318.7,0,0,1,6.62,65.25" transform="translate(-491.19 -726.51)"/></g><path class="cls-2" d="M1098.58,1639.63h-86.65v-27.44c12.09,0,24-4.09,35.38-12.15,38.39-27.13,64.18-94.46,64.18-167.55s-25.79-140.42-64.17-167.51c-11.4-8.1-23.3-12.19-35.39-12.19v-27.44h86.65c71.22,0,127,91,127,207.14S1169.8,1639.63,1098.58,1639.63Zm-22.89-27.44h22.89c54,0,99.57-82.29,99.57-179.7s-45.6-179.7-99.57-179.7h-22.92c38.83,36.3,63.27,104.57,63.27,179.7S1114.51,1575.82,1075.69,1612.19Z" transform="translate(-491.19 -726.51)"/><path class="cls-3" d="M1125.21,1432.49c0,80.63-28.87,149.71-70,178.75-13.35,9.45-28,14.67-43.3,14.67-62.56,0-113.29-86.57-113.29-193.42s50.73-193.42,113.29-193.42c15.33,0,30,5.21,43.3,14.7,41.11,29,70,98.13,70,178.72" transform="translate(-491.19 -726.51)"/><g class="cls-1"><path class="cls-2" d="M1124.85,1416.93c-3.55,73.71-31.26,135.72-69.62,162.83-13.35,9.45-28,14.67-43.31,14.67-59.45,0-108.19-78.21-112.87-177.69,0-1.38.09-2.73.18-4.09,20.23,52.62,55.09,87.34,94.71,87.34,15.33,0,29.95-5.22,43.3-14.66,37.69-26.67,65-87,69.31-159,10.2,26.4,16.72,57.34,18.3,90.62" transform="translate(-491.19 -726.51)"/></g><path class="cls-2" d="M1011.93,1639.63c-71.22,0-127-91-127-207.14s55.79-207.14,127-207.14c17.9,0,35.14,5.8,51.25,17.24,46,32.46,75.75,107,75.75,189.9s-29.74,157.43-75.78,190C1047,1633.85,1029.8,1639.63,1011.93,1639.63Zm0-386.84c-54,0-99.57,82.29-99.57,179.7s45.6,179.7,99.57,179.7c12.08,0,24-4.09,35.38-12.15,38.39-27.13,64.18-94.46,64.18-167.55s-25.79-140.42-64.17-167.51C1035.92,1256.88,1024,1252.79,1011.93,1252.79Z" transform="translate(-491.19 -726.51)"/><path class="cls-8" d="M1308.12,1475.93H1205.06a31.34,31.34,0,0,1-31.33-31.34v-27.11a31.34,31.34,0,0,1,31.33-31.34h103.06a31.34,31.34,0,0,1,31.34,31.34v27.11a31.34,31.34,0,0,1-31.34,31.34" transform="translate(-491.19 -726.51)"/><g class="cls-1"><path class="cls-2" d="M1339.45,1417.5v1.73a31.36,31.36,0,0,1-31.34,31.34h-103a31.33,31.33,0,0,1-31.35-31.34v-1.73a31.49,31.49,0,0,1,2.28-11.82,31.37,31.37,0,0,0,29.07,19.53h103a31.27,31.27,0,0,0,29-19.53,30.57,30.57,0,0,1,2.33,11.82" transform="translate(-491.19 -726.51)"/></g><path class="cls-2" d="M1308.12,1489.65H1205.06a45.1,45.1,0,0,1-45-45.06v-27.12a45.1,45.1,0,0,1,45-45h103.06a45.11,45.11,0,0,1,45.06,45v27.12A45.11,45.11,0,0,1,1308.12,1489.65Zm-103.06-89.79a17.63,17.63,0,0,0-17.61,17.61v27.12a17.63,17.63,0,0,0,17.61,17.62h103.06a17.64,17.64,0,0,0,17.62-17.62v-27.12a17.64,17.64,0,0,0-17.62-17.61Z" transform="translate(-491.19 -726.51)"/><path class="cls-3" d="M1629.68,1599.74a1257.06,1257.06,0,0,1-223.23,0c-48.25-4.3-85-45.17-85-93.62v-156.8c0-48.44,36.77-89.32,85-93.62a1257.06,1257.06,0,0,1,223.23,0c48.25,4.3,85,45.18,85,93.62v156.8c0,48.45-36.77,89.32-85,93.62" transform="translate(-491.19 -726.51)"/><g class="cls-1"><path class="cls-2" d="M1689.34,1349.33v156.78c0,35.26-27.19,65.29-61.93,68.38-36.22,3.24-73,4.87-109.36,4.87s-73.14-1.63-109.36-4.87c-34.69-3.09-61.88-33.12-61.88-68.38V1503c1.27.15,2.53.31,3.85.41q26.71,2.36,53.41,3.6c129.4,6,239-90.14,253.26-215.78a69.13,69.13,0,0,1,32,58.13" transform="translate(-491.19 -726.51)"/></g><path class="cls-2" d="M1518.07,1543.84c-35.31,0-71-1.59-106.21-4.73-16.58-1.47-29.57-16-29.57-33v-156.8c0-17,13-31.51,29.57-33,35.17-3.14,70.9-4.73,106.21-4.73s71,1.59,106.2,4.73c16.58,1.48,29.57,16,29.57,33v156.8c0,17-13,31.52-29.57,33-35.16,3.14-70.9,4.73-106.2,4.73" transform="translate(-491.19 -726.51)"/><path d="M1653.84,1349.33v156.78c0,17.05-13,31.5-29.58,33-35.14,3.1-70.91,4.72-106.21,4.72s-71-1.62-106.21-4.72c-16.54-1.52-29.53-16-29.53-33V1506c196.15,12.28,231.71-114,235.51-190.21,2.13.21,4.32.36,6.44.56,16.59,1.52,29.58,16,29.58,33" transform="translate(-491.19 -726.51)"/><path class="cls-2" d="M1518.07,1557.56c-35.75,0-71.9-1.6-107.43-4.78-23.59-2.1-42.07-22.6-42.07-46.66v-156.8c0-24.06,18.48-44.56,42.07-46.66a1213.94,1213.94,0,0,1,214.85,0c23.59,2.1,42.07,22.6,42.07,46.66v156.8c0,24.06-18.48,44.56-42.07,46.66C1590,1556,1553.81,1557.56,1518.07,1557.56Zm0-232.24c-34.89,0-70.21,1.57-105,4.67-9.57.86-17.06,9.35-17.06,19.33v156.8c0,10,7.49,18.47,17.06,19.33a1187.47,1187.47,0,0,0,210,0c9.57-.86,17.07-9.34,17.07-19.33v-156.8c0-10-7.5-18.47-17.07-19.33C1588.27,1326.89,1553,1325.32,1518.07,1325.32Z" transform="translate(-491.19 -726.51)"/><path class="cls-11" d="M1518.07,1471.11a43.39,43.39,0,1,1,43.38-43.39A43.45,43.45,0,0,1,1518.07,1471.11Zm0-73.27a29.89,29.89,0,1,0,29.88,29.88A29.92,29.92,0,0,0,1518.07,1397.84Z" transform="translate(-491.19 -726.51)"/><path class="cls-11" d="M1518.07,1397.84a6.75,6.75,0,0,1-6.75-6.75v-39.3a6.75,6.75,0,0,1,13.5,0v39.3A6.76,6.76,0,0,1,1518.07,1397.84Z" transform="translate(-491.19 -726.51)"/><path class="cls-11" d="M1518.07,1510.4a6.75,6.75,0,0,1-6.75-6.74v-39.31a6.75,6.75,0,0,1,13.5,0v39.31A6.75,6.75,0,0,1,1518.07,1510.4Z" transform="translate(-491.19 -726.51)"/><path class="cls-11" d="M1594,1434.47h-39.3a6.75,6.75,0,1,1,0-13.49H1594a6.75,6.75,0,1,1,0,13.49Z" transform="translate(-491.19 -726.51)"/><path class="cls-11" d="M1481.43,1434.47h-39.3a6.75,6.75,0,1,1,0-13.49h39.3a6.75,6.75,0,1,1,0,13.49Z" transform="translate(-491.19 -726.51)"/><path class="cls-2" d="M1518.06,1618.41c-37.69,0-75.39-1.66-112.83-5-54.68-4.88-97.52-52-97.52-107.29v-156.8c0-55.28,42.84-102.41,97.52-107.29a1276,1276,0,0,1,225.67,0c54.69,4.88,97.53,52,97.53,107.29v156.8c0,55.29-42.84,102.41-97.53,107.29h0C1593.46,1616.75,1555.76,1618.41,1518.06,1618.41Zm111.62-18.66h0Zm-111.62-335.28c-36.88,0-73.76,1.63-110.39,4.89-40.67,3.63-72.52,38.75-72.52,80v156.8c0,41.21,31.85,76.33,72.52,80a1248.57,1248.57,0,0,0,220.79,0h0c40.67-3.63,72.52-38.75,72.52-80v-156.8c0-41.21-31.85-76.33-72.52-80C1591.84,1266.1,1554.94,1264.47,1518.06,1264.47Z" transform="translate(-491.19 -726.51)"/><path class="cls-12" d="M3677.74,2956.9l-32,95.46a52.65,52.65,0,0,1-66.66,33.17l-318.64-106.87-.5-.16-59.2-19.88a52.61,52.61,0,0,1-33.17-66.65l32-95.51a52.71,52.71,0,0,1,66.65-33.18l58.84,19.73h.05l319.5,107.19a52.66,52.66,0,0,1,33.13,66.7" transform="translate(-491.19 -726.51)"/><path class="cls-8" d="M3358.39,2849.62l-31.86,95.56a52.66,52.66,0,0,1-66.09,33.48l-.51-.16-59.19-19.88a52.61,52.61,0,0,1-33.18-66.65l32-95.51a52.68,52.68,0,0,1,66.64-33.17l58.84,19.72h.05a52.73,52.73,0,0,1,33.28,66.61" transform="translate(-491.19 -726.51)"/><g class="cls-1"><path class="cls-2" d="M3680.43,2938.33a51.74,51.74,0,0,1-2.28,17.2l-22.27,66.39a52.64,52.64,0,0,1-66.65,33.18l-318.65-106.88-.5-.15-59.2-19.88a52.61,52.61,0,0,1-33.48-65.64l12.84-38.29a52.67,52.67,0,0,0,35.86,48.13l59.19,19.89.51.14,318.65,106.88a52.63,52.63,0,0,0,66.64-33.17Z" transform="translate(-491.19 -726.51)"/></g><g class="cls-6"><path class="cls-3" d="M3644.62,2890.2,3325.11,2783h-.05l-58.84-19.74a52.7,52.7,0,0,0-66.65,33.18l-32,95.51a51.94,51.94,0,0,0-2.68,18.22l29.61-88.37a52.7,52.7,0,0,1,66.65-33.17l58.84,19.73h.05l319.51,107.18a52.63,52.63,0,0,1,35.79,48.47l2.4-7.13a52.66,52.66,0,0,0-33.12-66.7" transform="translate(-491.19 -726.51)"/></g><path class="cls-2" d="M3276.65,2993.84a65.42,65.42,0,0,1-20.7-3.39,12.61,12.61,0,1,1,8-23.93,40,40,0,0,0,50.63-25.33l31.85-95.55a40.09,40.09,0,0,0-25.33-50.63,12.62,12.62,0,0,1,8-23.94,65.35,65.35,0,0,1,41.29,82.55l-31.84,95.55a65.4,65.4,0,0,1-61.85,44.67Z" transform="translate(-491.19 -726.51)"/><path class="cls-2" d="M3674.31,2974.76a7.6,7.6,0,0,1-2.46-.41l-248.49-85a7.61,7.61,0,0,1,4.93-14.4l248.49,85a7.61,7.61,0,0,1-2.47,14.8Z" transform="translate(-491.19 -726.51)"/><path class="cls-2" d="M3572.27,3018.5a7.5,7.5,0,0,1-2.4-.4L3329,2937.81a7.61,7.61,0,0,1,4.81-14.44l240.88,80.3a7.61,7.61,0,0,1-2.41,14.83Z" transform="translate(-491.19 -726.51)"/><path class="cls-2" d="M3595.76,3100.88a65,65,0,0,1-20.7-3.39l-378.35-126.93a65.27,65.27,0,0,1-41.12-82.62l32-95.49a65.33,65.33,0,0,1,82.63-41.12l378.34,126.93a65.33,65.33,0,0,1,41.12,82.63l-32,95.49A65.39,65.39,0,0,1,3595.76,3100.88Zm-346.22-327.72a40.13,40.13,0,0,0-38,27.31l-32,95.49a40,40,0,0,0,25.22,50.68l378.35,126.93h0a40.07,40.07,0,0,0,50.69-25.22l32-95.49a40.09,40.09,0,0,0-25.22-50.69l-378.35-126.93A40.1,40.1,0,0,0,3249.54,2773.16Z" transform="translate(-491.19 -726.51)"/><path class="cls-13" d="M3238.77,2895.42a33,33,0,0,1-11.46-2.06l-839.89-311a33,33,0,0,1,22.89-61.84l839.9,311a33,33,0,0,1-11.44,63.9" transform="translate(-491.19 -726.51)"/><g class="cls-6"><path class="cls-3" d="M2410.31,2545.92l839.9,311a32.92,32.92,0,0,1,18.93,18.19c.17-.41.39-.77.54-1.18a33,33,0,0,0-19.47-42.36l-839.9-311a32.94,32.94,0,0,0-41.84,43.61,32.93,32.93,0,0,1,41.84-18.25" transform="translate(-491.19 -726.51)"/></g><path class="cls-2" d="M3184.09,2890.85a13.49,13.49,0,0,1-6.86-25.12c29-17.07,21.34-43.63,21-44.75a13.49,13.49,0,1,1,25.82-7.84c5,16.54,4.54,53.67-33.13,75.84A13.5,13.5,0,0,1,3184.09,2890.85Z" transform="translate(-491.19 -726.51)"/><path class="cls-2" d="M3238.78,2908.92h0a46.24,46.24,0,0,1-16.14-2.91l-839.9-311A46.46,46.46,0,0,1,2415,2507.9l839.91,311a46.48,46.48,0,0,1,27.44,59.71A46.68,46.68,0,0,1,3238.78,2908.92ZM2398.89,2532a19.48,19.48,0,0,0-6.79,37.75l839.9,311a19.48,19.48,0,0,0,13.53-36.54l-839.9-311A19.43,19.43,0,0,0,2398.89,2532Z" transform="translate(-491.19 -726.51)"/><path class="cls-8" d="M2339.35,2566.7l116.74,48.05a18.48,18.48,0,0,0,21.18-5.18l31.44-37.34a18.48,18.48,0,0,0-7.4-29.12l-100.12-39.23Z" transform="translate(-491.19 -726.51)"/><g class="cls-6"><path class="cls-3" d="M2501.32,2543.11l-100.13-39.23-61.84,62.82,14.1,5.8,37.6-38.18,100.12,39.23a18.23,18.23,0,0,1,9.42,8.32l8.12-9.64a18.49,18.49,0,0,0-7.39-29.12" transform="translate(-491.19 -726.51)"/></g><path class="cls-2" d="M2463.18,2631.29a33.64,33.64,0,0,1-12.86-2.56l-116.73-48a15.13,15.13,0,0,1-5-24.6l61.85-62.82a15.12,15.12,0,0,1,16.29-3.47L2506.83,2529a33.59,33.59,0,0,1,13.44,52.93l-31.44,37.34A33.49,33.49,0,0,1,2463.18,2631.29Zm-97.28-70,95.94,39.49a3.33,3.33,0,0,0,3.86-.94l31.44-37.35a3.36,3.36,0,0,0-1.34-5.29L2405,2521.6Z" transform="translate(-491.19 -726.51)"/><path class="cls-12" d="M1959.65,2560.8l-30.94,30.48-48.09,47.33a25.48,25.48,0,0,1-26.58,5.83l-309.66-111.79a25.56,25.56,0,0,1-8.78-42.66l71.93-67.31a25.66,25.66,0,0,1,25.21-5.68l69.43,22.22,247.33,79.07a25.57,25.57,0,0,1,10.15,42.51" transform="translate(-491.19 -726.51)"/><g class="cls-1"><path class="cls-2" d="M1928.71,2591.29l-48.09,47.32a25.48,25.48,0,0,1-26.58,5.83l-309.66-111.79a25.56,25.56,0,0,1-8.78-42.66l71.92-67.31a25.67,25.67,0,0,1,25.21-5.68l69.45,22.22a98.65,98.65,0,0,1-2.33,16.08s-56.06,53.56-3.61,78.87,163.89,66.91,163.89,66.91Z" transform="translate(-491.19 -726.51)"/></g><path class="cls-2" d="M1584.87,2559.76a13.49,13.49,0,0,1-1.86-26.85l9.34-1.31a56.13,56.13,0,0,0,32.89-17l64.78-68.56a13.49,13.49,0,1,1,19.61,18.53l-64.78,68.57a83.1,83.1,0,0,1-48.75,25.16l-9.34,1.32A13.44,13.44,0,0,1,1584.87,2559.76Z" transform="translate(-491.19 -726.51)"/><path class="cls-2" d="M1862.63,2659.42a38.48,38.48,0,0,1-13.14-2.29l-309.67-111.78a39,39,0,0,1-13.42-65.19l71.92-67.31a39,39,0,0,1,38.54-8.69l316.74,101.3a39,39,0,0,1,15.5,65l-79,77.81A39.25,39.25,0,0,1,1862.63,2659.42ZM1625,2429.3a12.07,12.07,0,0,0-8.23,3.24h0l-71.92,67.32A12,12,0,0,0,1549,2520l309.66,111.78a12.11,12.11,0,0,0,12.53-2.75l79-77.8a12,12,0,0,0-4.78-20l-316.73-101.29A12.1,12.1,0,0,0,1625,2429.3Zm-17.45-6.61h0Z" transform="translate(-491.19 -726.51)"/><polygon class="cls-8" points="825.37 1734.04 1003.85 1632.91 1049.7 1668.89 891.97 1758.35 825.37 1734.04"/><path class="cls-2" d="M1383.16,2498.35a13.4,13.4,0,0,1-4.62-.82L998.4,2358.8a13.49,13.49,0,0,1,9.26-25.35L1381.93,2470l152.31-86.38a13.5,13.5,0,0,1,13.31,23.48l-157.73,89.46A13.53,13.53,0,0,1,1383.16,2498.35Z" transform="translate(-491.19 -726.51)"/><path class="cls-2" d="M1316.57,2474.05a13.5,13.5,0,0,1-6.66-25.24l178.48-101.13a13.49,13.49,0,1,1,13.3,23.48l-178.48,101.13A13.42,13.42,0,0,1,1316.57,2474.05Z" transform="translate(-491.19 -726.51)"/><path class="cls-8" d="M725.53,1936.22l425.3,158.59,60.26-56,1217.35,466.45L2276,2663.15,1167.38,2263.24l-213,114.26L553.12,2215.05l-15.57-2.3c-29.66-4.39-43.08-39.56-23.87-62.59L682.62,1947.6a38.42,38.42,0,0,1,42.91-11.38" transform="translate(-491.19 -726.51)"/><polygon class="cls-12" points="61.92 1488.54 241.88 1271.03 1857.52 1861.32 1784.78 1936.65 313.11 1400.59 124.44 1513.85 61.92 1488.54"/><polygon class="cls-13" points="671.91 1356.89 722.11 1388.73 745.81 1383.44 1897.66 1819.76 1937.25 1778.75 719.89 1312.3 671.91 1356.89"/><g class="cls-6"><path class="cls-3" d="M518.75,2185.66l168.94-202.55a38.39,38.39,0,0,1,42.91-11.38l405.9,151.35a33.57,33.57,0,0,0,34.57-6.86l45.1-41.9,1188.62,455.44,23.66-24.5L1211.09,2038.81l-60.27,56L725.53,1936.22a38.41,38.41,0,0,0-42.91,11.39L513.68,2150.16a38.27,38.27,0,0,0-1.57,47.18,38.63,38.63,0,0,1,6.64-11.68" transform="translate(-491.19 -726.51)"/></g><g class="cls-1"><polygon class="cls-2" points="153.4 1524.38 315.54 1435.24 576.46 1528.65 579.38 1500.61 313.11 1400.59 106.4 1507.56 153.4 1524.38"/></g><path class="cls-2" d="M553.11,2228.54a13.49,13.49,0,0,1-10.46-22l214.08-263.29a13.49,13.49,0,1,1,20.93,17L563.59,2223.56A13.48,13.48,0,0,1,553.11,2228.54Z" transform="translate(-491.19 -726.51)"/><path class="cls-2" d="M1209.66,2128.71a42.31,42.31,0,0,1-15.11-2.78L1146,2107.42a13.5,13.5,0,0,1,9.62-25.22l48.53,18.52a15.77,15.77,0,0,0,16.37-3.27l45.94-43.64a13.5,13.5,0,1,1,18.59,19.57l-46,43.63A42.84,42.84,0,0,1,1209.66,2128.71Z" transform="translate(-491.19 -726.51)"/><path class="cls-2" d="M1167.38,2276.74a13.49,13.49,0,0,1-4.72-.85l-359.12-134L609.62,2247.17a13.49,13.49,0,1,1-12.87-23.71l199.31-108.22a13.47,13.47,0,0,1,11.15-.78L1172.1,2250.6a13.5,13.5,0,0,1-4.72,26.14Z" transform="translate(-491.19 -726.51)"/><path class="cls-2" d="M2348.71,2595.44a7.54,7.54,0,0,1-2.61-.47L730.46,2004.68a7.61,7.61,0,1,1,5.22-14.29l1615.64,590.29a7.61,7.61,0,0,1-2.61,14.76Z" transform="translate(-491.19 -726.51)"/><path class="cls-2" d="M2388.85,2553.88a7.54,7.54,0,0,1-2.7-.5l-1159-439a7.61,7.61,0,0,1,5.4-14.23l1159,439a7.61,7.61,0,0,1-2.69,14.73Z" transform="translate(-491.19 -726.51)"/><polygon class="cls-2" points="912.62 1386.15 955.94 1463.04 1243.51 1571.97 1357.22 1556.51 912.62 1386.15"/><path class="cls-2" d="M1101.69,2306.09a7.57,7.57,0,0,1-2.78-.53l-292.3-114.94-134.29,72.44a7.61,7.61,0,1,1-7.22-13.39l137.4-74.12a7.61,7.61,0,0,1,6.39-.38l295.59,116.23a7.61,7.61,0,0,1-2.79,14.69Z" transform="translate(-491.19 -726.51)"/><path class="cls-2" d="M2276,2676.64a13.27,13.27,0,0,1-4.58-.8L1168.46,2278,960.74,2389.39a13.49,13.49,0,0,1-11.44.62L549.55,2228.16l-14-2.06a51.9,51.9,0,0,1-32.26-84.58L672.26,1939a52,52,0,0,1,58-15.38h0l417.5,155.68,54.16-50.33a13.48,13.48,0,0,1,14-2.71l1217.35,466.44a13.5,13.5,0,0,1,4.88,22l-152.47,157.89A13.5,13.5,0,0,1,2276,2676.64ZM1167.38,2249.76a13.39,13.39,0,0,1,4.58.8L2272.33,2647.5l132.24-136.94L1214.11,2054.42l-54.1,50.27a13.51,13.51,0,0,1-13.9,2.76L720.82,1948.86a25,25,0,0,0-27.84,7.38L524,2158.8a24.92,24.92,0,0,0,15.49,40.6l15.56,2.3a13.72,13.72,0,0,1,3.09.84l395.38,160.08L1161,2251.36A13.45,13.45,0,0,1,1167.38,2249.76Z" transform="translate(-491.19 -726.51)"/><path class="cls-13" d="M1699.84,2127.42s-42,23.18-42,82.53l-52.19-20-35.91-13.74s47.58-38.09,20.49-81.41l59.65,17.75Z" transform="translate(-491.19 -726.51)"/><g class="cls-1"><path class="cls-2" d="M1699.84,2127.42s-42,23.18-42,82.53l-52.19-20c.76-.5,1.52-1.11,2.33-1.67,33.48-23.79,27.54-73.25,27.54-73.25s5.63-1.06,14.36-2.48Z" transform="translate(-491.19 -726.51)"/></g><path class="cls-2" d="M1657.77,2223.45a13.49,13.49,0,0,1-4.83-.89l-88.1-33.76a13.49,13.49,0,0,1-3.6-23.13c1.52-1.24,37.81-31.22,17.48-63.7a13.5,13.5,0,0,1,15.28-20.1l109.68,32.59a13.49,13.49,0,0,1,2.75,24.71c-1.63.93-35.17,20.8-35.17,70.79a13.47,13.47,0,0,1-13.49,13.49Zm-64.22-52.55,52.09,20c3.94-26.74,15.72-45.49,26.59-57.59l-60.66-18C1614.08,2136.89,1604.66,2156.65,1593.55,2170.9Z" transform="translate(-491.19 -726.51)"/><path class="cls-13" d="M1889.15,2202.2s-42.05,23.18-42.05,82.53l-52.2-20L1759,2251s47.58-38.09,20.49-81.41l59.65,17.76Z" transform="translate(-491.19 -726.51)"/><g class="cls-1"><path class="cls-2" d="M1889.15,2202.2s-42.05,23.18-42.05,82.53l-52.2-20c.76-.5,1.52-1.11,2.34-1.67,33.47-23.79,27.54-73.25,27.54-73.25s5.63-1.06,14.35-2.48Z" transform="translate(-491.19 -726.51)"/></g><path class="cls-2" d="M1847.08,2298.23a13.45,13.45,0,0,1-4.83-.89l-88.11-33.76a13.49,13.49,0,0,1-3.59-23.13c1.52-1.24,37.81-31.22,17.48-63.71a13.49,13.49,0,0,1,15.28-20.09L1893,2189.24a13.49,13.49,0,0,1,2.74,24.71c-1.6.92-35.16,20.79-35.16,70.79a13.49,13.49,0,0,1-13.49,13.49Zm-64.23-52.55,52.1,20c3.93-26.74,15.71-45.49,26.59-57.59l-60.67-18C1803.38,2211.67,1794,2231.43,1782.85,2245.68Z" transform="translate(-491.19 -726.51)"/><path class="cls-13" d="M1800.87,2111.15l-79.51-23.38a36.76,36.76,0,0,1-24.89-45.65l10.37-35.26a36.76,36.76,0,0,1,45.64-24.9l79.51,23.39a36.76,36.76,0,0,1,24.9,45.64l-10.37,35.26a36.77,36.77,0,0,1-45.65,24.9" transform="translate(-491.19 -726.51)"/><g class="cls-1"><path class="cls-2" d="M1826.45,2045.91l-10.35,35.25a36.9,36.9,0,0,1-29.06,25.92l-51.54-15.16a36.8,36.8,0,0,0,29.88-26l10.35-35.26a36.7,36.7,0,0,0-21-44.18l46.76,13.75a36.78,36.78,0,0,1,24.91,45.65" transform="translate(-491.19 -726.51)"/></g><path class="cls-2" d="M1811.31,2126.17a50.43,50.43,0,0,1-14.24-2.07h0l-79.52-23.39a50.32,50.32,0,0,1-34-62.4l10.37-35.26a50.25,50.25,0,0,1,62.4-34l79.51,23.39a50.24,50.24,0,0,1,34,62.39l-10.37,35.26a50.34,50.34,0,0,1-48.15,36.11Zm-6.63-28a23.28,23.28,0,0,0,28.89-15.76l10.38-35.27a23.27,23.27,0,0,0-15.76-28.88l-79.52-23.39a23.27,23.27,0,0,0-28.89,15.76l-10.37,35.26a23.3,23.3,0,0,0,15.76,28.89Z" transform="translate(-491.19 -726.51)"/><path class="cls-12" d="M2085.54,2270.72a32.33,32.33,0,0,1-43,14.85l-41.44-19.83-192.76-92.41-7.86-3.76-131.06-47-.36,0-236.92-52.85-60.77-13.55a67.18,67.18,0,0,1-50.72-49.29c-11-44.74,1.82-79.34,18.71-103.53,18.47-26.38,57.73-34.9,86.13-19.84l56.3,29.93,218.31,116,.06,0,139.18,41.59,5,.91,181.09,34,55.69,10.45a32.63,32.63,0,0,1,26.07,26.88c8.57,52.39-7.81,99.26-21.66,127.42" transform="translate(-491.19 -726.51)"/><path class="cls-8" d="M1808.34,2173.33l-7.86-3.76-131.07-47-.36,0c33.33-25.31,35.15-64.77,31-93.13l.05.06,139.18,41.59,5,.91c5.07,56.66-20,87.65-36,101.35" transform="translate(-491.19 -726.51)"/><path class="cls-13" d="M2085.54,2270.72a32.33,32.33,0,0,1-43,14.85l-41.44-19.83c55-78.11,38.69-133.76,24.35-159.77l55.69,10.45a32.63,32.63,0,0,1,26.07,26.88c8.57,52.39-7.81,99.26-21.66,127.42" transform="translate(-491.19 -726.51)"/><path class="cls-13" d="M1432.12,2069.7l-60.76-13.54a67.19,67.19,0,0,1-50.72-49.31c-11-44.74,1.82-79.33,18.71-103.52,18.47-26.38,57.73-34.9,86.13-19.83l56.3,29.92c16,41.65,33.07,121.18-49.66,156.28" transform="translate(-491.19 -726.51)"/><g class="cls-6"><path class="cls-3" d="M1339.35,1933.76c18.47-26.37,57.73-34.9,86.13-19.83l56.3,29.92,218.32,116,.05,0,139.18,41.59,5,.92,181.08,34,55.7,10.45a32.64,32.64,0,0,1,26.07,26.89c.81,4.9,1.32,9.74,1.71,14.53a185.69,185.69,0,0,0-1.71-45,32.66,32.66,0,0,0-26.07-26.89l-55.7-10.44-181.08-34-5-.91-139.18-41.59-.05-.06-218.32-116-56.3-29.92c-28.4-15.07-67.66-6.55-86.13,19.83-14.65,21-26.19,49.83-21.83,86.31a123.79,123.79,0,0,1,21.83-55.88" transform="translate(-491.19 -726.51)"/></g><path class="cls-8" d="M1456.7,1979.84c-9.52,48.3-48.42,81.31-86.87,73.73s-61.91-52.89-52.38-101.19,48.42-81.3,86.87-73.72,61.9,52.88,52.38,101.18" transform="translate(-491.19 -726.51)"/><path class="cls-2" d="M1381.07,2068.85a71.94,71.94,0,0,1-14-1.38c-22.92-4.51-42.11-19.68-54-42.71-11.36-22-14.74-48.63-9.51-75.12s18.47-49.89,37.32-65.88c19.77-16.78,43.29-23.53,66.19-19s42.11,19.68,54,42.71c11.36,21.94,14.74,48.62,9.52,75.11s-18.48,49.9-37.33,65.89C1417.53,2061.84,1399.39,2068.85,1381.07,2068.85Zm12.17-177.09c-11.68,0-23.5,4.68-34,13.62-14,11.85-23.87,29.52-27.85,49.74s-1.55,40.33,6.88,56.61c7.86,15.2,20.06,25.12,34.33,27.93s29.32-1.73,42.37-12.81c14-11.85,23.87-29.52,27.85-49.75s1.55-40.33-6.88-56.6c-7.86-15.2-20.06-25.12-34.33-27.93A43.41,43.41,0,0,0,1393.24,1891.76Z" transform="translate(-491.19 -726.51)"/><g class="cls-1"><path class="cls-2" d="M2109.48,2175.4a192.17,192.17,0,0,1-2,25.11,244.5,244.5,0,0,1-16.9,44.84,32.34,32.34,0,0,1-43,14.87l-41.44-19.84L1813.41,2148l-7.86-3.75-131.07-47-.35,0-236.93-52.85-60.77-13.54a67.22,67.22,0,0,1-50.72-49.31,132,132,0,0,1-3.6-43.37,122.26,122.26,0,0,1,5.12-13.54,142.23,142.23,0,0,0,3.55,21.4,67.2,67.2,0,0,0,50.72,49.31l60.77,13.54,236.93,52.85.35.05,131.07,47,7.86,3.76,192.75,92.41,41.44,19.84a32.35,32.35,0,0,0,43-14.87,245.16,245.16,0,0,0,13.79-34.44" transform="translate(-491.19 -726.51)"/></g><path class="cls-2" d="M1669.42,2136.07a13.49,13.49,0,0,1-8.68-23.83c39.06-32.76,27-77.14,26.45-79a13.49,13.49,0,0,1,25.89-7.6c.75,2.55,17.88,62.94-35,107.28A13.44,13.44,0,0,1,1669.42,2136.07Z" transform="translate(-491.19 -726.51)"/><path class="cls-2" d="M1800.5,2183.08a13.49,13.49,0,0,1-5.84-25.66c46.87-22.46,32.29-80.45,31.65-82.91a13.5,13.5,0,0,1,26.08-7c7.56,28.24,7.68,88.44-46.07,114.19A13.47,13.47,0,0,1,1800.5,2183.08Z" transform="translate(-491.19 -726.51)"/><path class="cls-2" d="M2003.94,2277.24a10.15,10.15,0,0,1-7.17-17.32c59.26-59.27,31.32-140.42,30.1-143.85a10.15,10.15,0,0,1,19.1-6.85c1.4,3.91,33.64,96.55-34.86,165A10.11,10.11,0,0,1,2003.94,2277.24Z" transform="translate(-491.19 -726.51)"/><path class="cls-2" d="M1443.36,2082.35a10.15,10.15,0,0,1-6.34-18.07c71-56.77,44-140,42.86-143.5a10.14,10.14,0,0,1,19.21-6.53c.34,1,32.9,100.07-49.4,165.88A10.08,10.08,0,0,1,1443.36,2082.35Z" transform="translate(-491.19 -726.51)"/><path class="cls-2" d="M2056.43,2302.24a45.57,45.57,0,0,1-19.74-4.5l-241.41-115.69-129.63-46.48-297.2-66.23c-29.8-6.64-53.71-29.9-60.91-59.29-10.06-41-2.87-80.56,20.77-114.44,22.19-31.78,68.64-42.53,103.52-24l273.46,145.32,137.25,41,241.09,45.25a46.25,46.25,0,0,1,36.89,38c9,55.1-7.44,104.12-22.84,135.54A45.93,45.93,0,0,1,2056.43,2302.24ZM1394.55,1889.5c-17.22,0-34.48,7.77-44.11,21.56-19.35,27.72-25,58.86-16.7,92.57a54,54,0,0,0,40.57,39.37h0l298,66.41a15,15,0,0,1,1.62.47l131.08,47c.43.16.86.34,1.28.54l242,116a18.93,18.93,0,0,0,25.1-8.62c13.67-27.89,28.32-71.22,20.44-119.29a19.19,19.19,0,0,0-15.24-15.81l-241.78-45.37a12.63,12.63,0,0,1-1.38-.34l-139.21-41.58a14,14,0,0,1-2.47-1l-274.64-146A52.5,52.5,0,0,0,1394.55,1889.5Z" transform="translate(-491.19 -726.51)"/><path class="cls-3" d="M2396.07,2703.94c-11.11,6.6-24.55,12-39.92,15.88-61.73,15.62-161.2,8.92-234.14-35.26v0c-39.61-23.94-71.42-59-85.06-107.58l57.72,20.85s97.24-91.51,237.33-37.74c117.48,45,121.84,110,64.07,143.9" transform="translate(-491.19 -726.51)"/><g class="cls-1"><path class="cls-2" d="M2396.07,2703.94c25-37-35.86-85.62-137-96.83-139.69-15.47-137.21,74.92-137.11,77.4-39.61-23.94-71.42-59-85.06-107.58l57.72,20.85s97.24-91.51,237.33-37.74c117.48,45,121.84,110,64.07,143.9" transform="translate(-491.19 -726.51)"/></g><path class="cls-2" d="M2289.46,2740.74C2188,2740.74,2057,2698,2024,2580.59a13.48,13.48,0,0,1,17.56-16.34l50.35,18.16c24.8-20,117.67-83.82,245-35,98.05,37.61,110.29,83.67,108.86,107.78-2.1,35.5-34.35,64.54-86.27,77.69C2339.47,2737.94,2315.43,2740.74,2289.46,2740.74Zm-229.65-141.21c51.59,107.72,210.43,128.12,293,107.19,39.33-9.95,64.6-30.3,66-53.11,1.66-28.08-32.58-58.36-91.59-81-130.12-49.91-219.53,31.51-223.27,35a13.52,13.52,0,0,1-13.81,2.84Z" transform="translate(-491.19 -726.51)"/><path class="cls-3" d="M1393.68,2391.49c-.1,17-5,35.81-22.47,48.18-14.06,9.89-32.16,11.87-48.49,6.65-21.16-6.75-58.08-18.67-85.72-28.46,0,0-13.86,165.76-175.36,105.5,0,0-11.1,8.12-29.42,19.73-49.76,31.56-152.88,88.92-232.16,79.69-91.34-10.7-138.11-134.31-82.93-256.56a1.61,1.61,0,0,1,.1-.3,309.29,309.29,0,0,1,41.95-67.46l88.77,36s88.56-71.21,182.29-83.49c3.61-.5,7.26-.91,10.91-1.22,88.56-7.1,228.26,49.31,319.1,90.44a56.18,56.18,0,0,1,18.21,13,55.5,55.5,0,0,1,15.22,38.3" transform="translate(-491.19 -726.51)"/><path class="cls-7" d="M1032.22,2543.1c-15.37,9.74-35.75,22-59,33.88-52.09,26.74-118.28,52.19-173.12,45.8C691.62,2610.1,646,2438.2,759.18,2298.46l88.77,36s37.53-30.18,89.57-54.63a.05.05,0,0,0,.06-.05c27.89-13.08,59.95-24.55,92.67-28.81-2.34,1.27-81.77,44.94-72.28,146.44,9.63,103.07,74.25,145.73,74.25,145.73" transform="translate(-491.19 -726.51)"/><path class="cls-8" d="M1032.22,2543.1c-15.37,9.74-35.75,22-59,33.88-154.6-164.59-39-293.48-35.66-297.19a.05.05,0,0,0,.06-.05c27.89-13.08,59.95-24.55,92.67-28.81-2.34,1.27-81.77,44.94-72.28,146.44,9.63,103.07,74.25,145.73,74.25,145.73" transform="translate(-491.19 -726.51)"/><g class="cls-1"><path class="cls-2" d="M1393.68,2391.49c-.1,17-5,35.81-22.47,48.18-14.06,9.89-32.16,11.87-48.49,6.65-21.16-6.75-58.08-18.67-85.72-28.46,0,0-13.7,163.69-172.36,106.62a67.57,67.57,0,0,0-21.1-23.69c-260.31,168.4-330.67,56.41-333.15,52.25h0v-.1c-23-49.25-24.15-118.19,6.79-186.72-3.3,10-79.89,250.88,272,51.75a25.32,25.32,0,0,1,26.63,1c44.43,29.92,190.52,116.71,197.47-32.41A16.8,16.8,0,0,1,1234.1,2371c18.46,4.62,46.51,12,72.79,20,39.11,11.92,72.64-9.13,71.57-37.89a55.5,55.5,0,0,1,15.22,38.3" transform="translate(-491.19 -726.51)"/></g><path class="cls-2" d="M855.21,2345.77a172.81,172.81,0,0,1-17.41,14.63q-9.18,6.88-18.75,13.35c-6.42,4.29-12.84,8.6-19.58,12.75s-13.42,8.47-21.05,12.39l-.07,0a2.55,2.55,0,0,1-3.44-1.11,2.58,2.58,0,0,1-.17-1.94,94.67,94.67,0,0,1,11-23A138.66,138.66,0,0,1,801,2353.06a151.38,151.38,0,0,1,18.21-16.88,102.29,102.29,0,0,1,21.41-13.13,13.65,13.65,0,0,1,15.17,22.11Z" transform="translate(-491.19 -726.51)"/><path class="cls-2" d="M1032.17,2556.59a13.42,13.42,0,0,1-7.41-2.24c-2.85-1.88-70.09-47.46-80.22-155.71C934.18,2287.9,1020.31,2240.92,1024,2239a13.49,13.49,0,0,1,12.67,23.82h0c-3,1.63-73.89,40.92-65.24,133.34,8.87,94.78,65.85,134.11,68.27,135.73a13.51,13.51,0,0,1-7.51,24.73Z" transform="translate(-491.19 -726.51)"/><path class="cls-2" d="M1223.53,2418.45a30.06,30.06,0,0,0,.41-4.06c.1-1.57.18-3.17.19-4.79a90.47,90.47,0,0,0-.3-10,87.12,87.12,0,0,0-1.24-10.27c-.56-3.49-1.4-7-2.32-10.59l0-.17a2.89,2.89,0,0,1,2.08-3.51,3,3,0,0,1,2.51.53,62.64,62.64,0,0,1,8.75,8.2,77.61,77.61,0,0,1,7.32,9.78,82.44,82.44,0,0,1,5.73,11q1.2,2.9,2.23,5.92a45.36,45.36,0,0,1,1.64,6.78l.38,2.7a14,14,0,0,1-27.65,3.93,14.15,14.15,0,0,1,.31-5.48" transform="translate(-491.19 -726.51)"/><path class="cls-2" d="M973.19,2590.46a13.48,13.48,0,0,1-9.84-4.25c-163.57-174.16-37-314.25-35.67-315.64a13.49,13.49,0,0,1,19.78,18.36h0c-4.58,5-110.34,123.45,35.56,278.8a13.5,13.5,0,0,1-9.83,22.73Z" transform="translate(-491.19 -726.51)"/><path class="cls-2" d="M817.76,2637.26a167.14,167.14,0,0,1-19.24-1.08c-46.1-5.38-84-36.57-103.95-85.59C662.65,2472.26,683.9,2370,748.7,2290a13.5,13.5,0,0,1,15.55-4l81.58,33c23.45-17.55,107.09-75.72,194.23-82.71,69.58-5.62,179.19,25.22,325.78,91.58a69.87,69.87,0,0,1,41.31,63.69c-.11,25.73-9.85,46.18-28.18,59.12-17,12-39.53,15.14-60.36,8.49-16.62-5.3-45.43-14.6-70.79-23.26C1242.65,2461,1228,2507.67,1188,2533c-32.68,20.72-74.45,22.53-124.24,5.39C1035.67,2558,916.19,2637.26,817.76,2637.26Zm-54.23-322.47c-65.18,85.66-64.8,174.51-44,225.62,16.14,39.63,46.06,64.76,82.09,69,101.91,12,250.53-95.83,252-96.92a13.48,13.48,0,0,1,12.68-1.75c44.47,16.59,80.52,16.43,107.16-.46,44.08-27.95,50-92.84,50-93.49a13.5,13.5,0,0,1,17.93-11.6c27.78,9.81,65.38,21.95,85.32,28.32,12.82,4.08,26.51,2.28,36.6-4.84,11.2-7.91,16.69-20.07,16.76-37.19a42.87,42.87,0,0,0-25.46-39c-142.37-64.45-247.52-94.48-312.49-89.26-92.22,7.4-184.91,81-185.84,81.74a13.48,13.48,0,0,1-13.51,2Z" transform="translate(-491.19 -726.51)"/></svg>