<svg width="445" height="352" viewBox="0 0 445 352" fill="none" xmlns="http://www.w3.org/2000/svg">
<rect x="42.5" y="30.5" width="364" height="193" fill="#aaaaaa" stroke="black"/>
<rect x="47.5" y="35.5" width="354" height="184" fill="white" stroke="black"/>
<rect x="54.5" y="41.5" width="341" height="172" stroke="black"/>
<path d="M178 224H267V250H178V224Z" fill="white"/>
<rect x="134.5" y="250.5" width="175" height="5" fill="#aaaaaa" stroke="black"/>
<path d="M190.508 234C190.211 234.002 189.92 233.915 189.672 233.751C189.424 233.586 189.23 233.352 189.116 233.078C189.001 232.803 188.971 232.501 189.028 232.209C189.086 231.918 189.229 231.65 189.439 231.439C189.65 231.229 189.918 231.086 190.209 231.028C190.501 230.971 190.803 231.001 191.078 231.116C191.352 231.23 191.586 231.424 191.751 231.672C191.915 231.92 192.002 232.211 192 232.508C191.996 232.902 191.837 233.279 191.558 233.558C191.279 233.837 190.902 233.996 190.508 234ZM190.508 231.823C190.372 231.822 190.239 231.861 190.125 231.935C190.012 232.009 189.923 232.115 189.87 232.24C189.817 232.365 189.802 232.503 189.827 232.637C189.853 232.77 189.917 232.893 190.013 232.989C190.108 233.086 190.23 233.152 190.363 233.179C190.496 233.206 190.635 233.193 190.76 233.142C190.886 233.09 190.993 233.002 191.069 232.889C191.144 232.777 191.185 232.644 191.185 232.508C191.183 232.329 191.111 232.157 190.985 232.029C190.859 231.901 190.688 231.828 190.508 231.823Z" fill="black"/>
<path d="M239.508 234C239.211 234.002 238.92 233.915 238.672 233.751C238.424 233.586 238.23 233.352 238.116 233.078C238.001 232.803 237.971 232.501 238.028 232.209C238.086 231.918 238.229 231.65 238.439 231.439C238.65 231.229 238.918 231.086 239.209 231.028C239.501 230.971 239.803 231.001 240.078 231.116C240.352 231.23 240.586 231.424 240.751 231.672C240.915 231.92 241.002 232.211 241 232.508C240.996 232.902 240.837 233.279 240.558 233.558C240.279 233.837 239.902 233.996 239.508 234ZM239.508 231.823C239.372 231.822 239.239 231.861 239.125 231.935C239.012 232.009 238.923 232.115 238.87 232.24C238.817 232.365 238.802 232.503 238.827 232.637C238.853 232.77 238.917 232.893 239.013 232.989C239.108 233.086 239.23 233.152 239.363 233.179C239.496 233.206 239.635 233.193 239.76 233.142C239.886 233.09 239.993 233.002 240.069 232.889C240.144 232.777 240.185 232.644 240.185 232.508C240.183 232.329 240.111 232.157 239.985 232.029C239.859 231.901 239.688 231.828 239.508 231.823Z" fill="black"/>
<path d="M202.508 234C202.211 234.002 201.92 233.915 201.672 233.751C201.424 233.586 201.23 233.352 201.116 233.078C201.001 232.803 200.971 232.501 201.028 232.209C201.086 231.918 201.229 231.65 201.439 231.439C201.65 231.229 201.918 231.086 202.209 231.028C202.501 230.971 202.803 231.001 203.078 231.116C203.352 231.23 203.586 231.424 203.751 231.672C203.915 231.92 204.002 232.211 204 232.508C203.996 232.902 203.837 233.279 203.558 233.558C203.279 233.837 202.902 233.996 202.508 234ZM202.508 231.823C202.372 231.822 202.239 231.861 202.125 231.935C202.012 232.009 201.923 232.115 201.87 232.24C201.817 232.365 201.802 232.503 201.827 232.637C201.853 232.77 201.917 232.893 202.013 232.989C202.108 233.086 202.23 233.152 202.363 233.179C202.496 233.206 202.635 233.193 202.76 233.142C202.886 233.09 202.993 233.002 203.069 232.889C203.144 232.777 203.185 232.644 203.185 232.508C203.183 232.329 203.111 232.157 202.985 232.029C202.859 231.901 202.688 231.828 202.508 231.823Z" fill="black"/>
<path d="M251.508 234C251.211 234.002 250.92 233.915 250.672 233.751C250.424 233.586 250.23 233.352 250.116 233.078C250.001 232.803 249.971 232.501 250.028 232.209C250.086 231.918 250.229 231.65 250.439 231.439C250.65 231.229 250.918 231.086 251.209 231.028C251.501 230.971 251.803 231.001 252.078 231.116C252.352 231.23 252.586 231.424 252.751 231.672C252.915 231.92 253.002 232.211 253 232.508C252.996 232.902 252.837 233.279 252.558 233.558C252.279 233.837 251.902 233.996 251.508 234ZM251.508 231.823C251.372 231.822 251.239 231.861 251.125 231.935C251.012 232.009 250.923 232.115 250.87 232.24C250.817 232.365 250.802 232.503 250.827 232.637C250.853 232.77 250.917 232.893 251.013 232.989C251.108 233.086 251.23 233.152 251.363 233.179C251.496 233.206 251.635 233.193 251.76 233.142C251.886 233.09 251.993 233.002 252.069 232.889C252.144 232.777 252.185 232.644 252.185 232.508C252.183 232.329 252.111 232.157 251.985 232.029C251.859 231.901 251.688 231.828 251.508 231.823Z" fill="black"/>
<path d="M208.5 234C208.203 234 207.913 233.912 207.666 233.747C207.419 233.581 207.227 233.347 207.113 233.072C207 232.798 206.971 232.496 207.029 232.204C207.088 231.913 207.232 231.646 207.442 231.436C207.653 231.227 207.921 231.085 208.212 231.028C208.504 230.971 208.806 231.002 209.08 231.117C209.354 231.231 209.587 231.425 209.751 231.673C209.915 231.92 210.002 232.211 210 232.508C209.998 232.905 209.839 233.284 209.558 233.564C209.277 233.843 208.896 234 208.5 234ZM208.5 231.823C208.365 231.823 208.232 231.864 208.12 231.939C208.007 232.014 207.919 232.121 207.867 232.246C207.815 232.371 207.802 232.509 207.828 232.642C207.855 232.775 207.92 232.897 208.016 232.992C208.112 233.088 208.234 233.153 208.366 233.18C208.499 233.206 208.637 233.193 208.762 233.141C208.887 233.089 208.994 233.001 209.069 232.889C209.145 232.776 209.185 232.644 209.185 232.508C209.185 232.327 209.113 232.152 208.984 232.024C208.856 231.896 208.682 231.823 208.5 231.823Z" fill="black"/>
<path d="M257.5 234C257.203 234 256.913 233.912 256.666 233.747C256.419 233.581 256.227 233.347 256.113 233.072C256 232.798 255.971 232.496 256.029 232.204C256.088 231.913 256.232 231.646 256.442 231.436C256.653 231.227 256.921 231.085 257.212 231.028C257.504 230.971 257.806 231.002 258.08 231.117C258.354 231.231 258.587 231.425 258.751 231.673C258.915 231.92 259.002 232.211 259 232.508C258.998 232.905 258.839 233.284 258.558 233.564C258.277 233.843 257.896 234 257.5 234ZM257.5 231.823C257.365 231.823 257.232 231.864 257.12 231.939C257.007 232.014 256.919 232.121 256.867 232.246C256.815 232.371 256.802 232.509 256.828 232.642C256.855 232.775 256.92 232.897 257.016 232.992C257.112 233.088 257.234 233.153 257.366 233.18C257.499 233.206 257.637 233.193 257.762 233.141C257.887 233.089 257.994 233.001 258.069 232.889C258.145 232.776 258.185 232.644 258.185 232.508C258.185 232.327 258.113 232.152 257.984 232.024C257.856 231.896 257.682 231.823 257.5 231.823Z" fill="black"/>
<path d="M196.5 234C196.203 234 195.913 233.912 195.666 233.747C195.419 233.581 195.227 233.347 195.113 233.072C195 232.798 194.971 232.496 195.029 232.204C195.088 231.913 195.232 231.646 195.442 231.436C195.653 231.227 195.921 231.085 196.212 231.028C196.504 230.971 196.806 231.002 197.08 231.117C197.354 231.231 197.587 231.425 197.751 231.673C197.915 231.92 198.002 232.211 198 232.508C197.998 232.905 197.839 233.284 197.558 233.564C197.277 233.843 196.896 234 196.5 234ZM196.5 231.823C196.365 231.823 196.232 231.864 196.12 231.939C196.007 232.014 195.919 232.121 195.867 232.246C195.815 232.371 195.802 232.509 195.828 232.642C195.855 232.775 195.92 232.897 196.016 232.992C196.112 233.088 196.234 233.153 196.366 233.18C196.499 233.206 196.637 233.193 196.762 233.141C196.887 233.089 196.994 233.001 197.069 232.889C197.145 232.776 197.185 232.644 197.185 232.508C197.185 232.327 197.113 232.152 196.984 232.024C196.856 231.896 196.682 231.823 196.5 231.823Z" fill="black"/>
<path d="M245.5 234C245.203 234 244.913 233.912 244.666 233.747C244.419 233.581 244.227 233.347 244.113 233.072C244 232.798 243.971 232.496 244.029 232.204C244.088 231.913 244.232 231.646 244.442 231.436C244.653 231.227 244.921 231.085 245.212 231.028C245.504 230.971 245.806 231.002 246.08 231.117C246.354 231.231 246.587 231.425 246.751 231.673C246.915 231.92 247.002 232.211 247 232.508C246.998 232.905 246.839 233.284 246.558 233.564C246.277 233.843 245.896 234 245.5 234ZM245.5 231.823C245.365 231.823 245.232 231.864 245.12 231.939C245.007 232.014 244.919 232.121 244.867 232.246C244.815 232.371 244.802 232.509 244.828 232.642C244.855 232.775 244.92 232.897 245.016 232.992C245.112 233.088 245.234 233.153 245.366 233.18C245.499 233.206 245.637 233.193 245.762 233.141C245.887 233.089 245.994 233.001 246.069 232.889C246.145 232.776 246.185 232.644 246.185 232.508C246.185 232.327 246.113 232.152 245.984 232.024C245.856 231.896 245.682 231.823 245.5 231.823Z" fill="black"/>
<path d="M190.508 239C190.211 239.002 189.92 238.915 189.672 238.751C189.424 238.586 189.23 238.352 189.116 238.078C189.001 237.803 188.971 237.501 189.028 237.209C189.086 236.918 189.229 236.65 189.439 236.439C189.65 236.229 189.918 236.086 190.209 236.028C190.501 235.971 190.803 236.001 191.078 236.116C191.352 236.23 191.586 236.424 191.751 236.672C191.915 236.92 192.002 237.211 192 237.508C191.998 237.903 191.84 238.281 191.561 238.561C191.281 238.84 190.903 238.998 190.508 239ZM190.508 236.823C190.327 236.825 190.154 236.898 190.026 237.026C189.898 237.154 189.825 237.327 189.823 237.508C189.823 237.644 189.864 237.776 189.939 237.889C190.014 238.001 190.121 238.089 190.246 238.141C190.371 238.193 190.509 238.206 190.642 238.18C190.775 238.153 190.897 238.088 190.992 237.992C191.088 237.897 191.153 237.775 191.18 237.642C191.206 237.509 191.193 237.371 191.141 237.246C191.089 237.121 191.001 237.014 190.889 236.939C190.776 236.864 190.644 236.823 190.508 236.823Z" fill="black"/>
<path d="M239.508 239C239.211 239.002 238.92 238.915 238.672 238.751C238.424 238.586 238.23 238.352 238.116 238.078C238.001 237.803 237.971 237.501 238.028 237.209C238.086 236.918 238.229 236.65 238.439 236.439C238.65 236.229 238.918 236.086 239.209 236.028C239.501 235.971 239.803 236.001 240.078 236.116C240.352 236.23 240.586 236.424 240.751 236.672C240.915 236.92 241.002 237.211 241 237.508C240.998 237.903 240.84 238.281 240.561 238.561C240.281 238.84 239.903 238.998 239.508 239ZM239.508 236.823C239.327 236.825 239.154 236.898 239.026 237.026C238.898 237.154 238.825 237.327 238.823 237.508C238.823 237.644 238.864 237.776 238.939 237.889C239.014 238.001 239.121 238.089 239.246 238.141C239.371 238.193 239.509 238.206 239.642 238.18C239.775 238.153 239.897 238.088 239.992 237.992C240.088 237.897 240.153 237.775 240.18 237.642C240.206 237.509 240.193 237.371 240.141 237.246C240.089 237.121 240.001 237.014 239.889 236.939C239.776 236.864 239.644 236.823 239.508 236.823Z" fill="black"/>
<path d="M202.508 239C202.211 239.002 201.92 238.915 201.672 238.751C201.424 238.586 201.23 238.352 201.116 238.078C201.001 237.803 200.971 237.501 201.028 237.209C201.086 236.918 201.229 236.65 201.439 236.439C201.65 236.229 201.918 236.086 202.209 236.028C202.501 235.971 202.803 236.001 203.078 236.116C203.352 236.23 203.586 236.424 203.751 236.672C203.915 236.92 204.002 237.211 204 237.508C203.998 237.903 203.84 238.281 203.561 238.561C203.281 238.84 202.903 238.998 202.508 239ZM202.508 236.823C202.327 236.825 202.154 236.898 202.026 237.026C201.898 237.154 201.825 237.327 201.823 237.508C201.823 237.644 201.864 237.776 201.939 237.889C202.014 238.001 202.121 238.089 202.246 238.141C202.371 238.193 202.509 238.206 202.642 238.18C202.775 238.153 202.897 238.088 202.992 237.992C203.088 237.897 203.153 237.775 203.18 237.642C203.206 237.509 203.193 237.371 203.141 237.246C203.089 237.121 203.001 237.014 202.889 236.939C202.776 236.864 202.644 236.823 202.508 236.823Z" fill="black"/>
<path d="M251.508 239C251.211 239.002 250.92 238.915 250.672 238.751C250.424 238.586 250.23 238.352 250.116 238.078C250.001 237.803 249.971 237.501 250.028 237.209C250.086 236.918 250.229 236.65 250.439 236.439C250.65 236.229 250.918 236.086 251.209 236.028C251.501 235.971 251.803 236.001 252.078 236.116C252.352 236.23 252.586 236.424 252.751 236.672C252.915 236.92 253.002 237.211 253 237.508C252.998 237.903 252.84 238.281 252.561 238.561C252.281 238.84 251.903 238.998 251.508 239ZM251.508 236.823C251.327 236.825 251.154 236.898 251.026 237.026C250.898 237.154 250.825 237.327 250.823 237.508C250.823 237.644 250.864 237.776 250.939 237.889C251.014 238.001 251.121 238.089 251.246 238.141C251.371 238.193 251.509 238.206 251.642 238.18C251.775 238.153 251.897 238.088 251.992 237.992C252.088 237.897 252.153 237.775 252.18 237.642C252.206 237.509 252.193 237.371 252.141 237.246C252.089 237.121 252.001 237.014 251.889 236.939C251.776 236.864 251.644 236.823 251.508 236.823Z" fill="black"/>
<path d="M208.5 239C208.203 239 207.913 238.912 207.666 238.747C207.419 238.581 207.227 238.347 207.113 238.072C207 237.798 206.971 237.496 207.029 237.204C207.088 236.913 207.232 236.646 207.442 236.436C207.653 236.227 207.921 236.085 208.212 236.028C208.504 235.971 208.806 236.002 209.08 236.117C209.354 236.231 209.587 236.425 209.751 236.673C209.915 236.92 210.002 237.211 210 237.508C210 237.705 209.961 237.899 209.886 238.081C209.81 238.262 209.7 238.427 209.56 238.566C209.421 238.705 209.255 238.814 209.073 238.889C208.891 238.963 208.697 239.001 208.5 239ZM208.5 236.823C208.32 236.826 208.148 236.899 208.021 237.027C207.894 237.155 207.823 237.328 207.823 237.508C207.842 237.676 207.921 237.831 208.047 237.943C208.173 238.056 208.335 238.118 208.504 238.118C208.673 238.118 208.836 238.056 208.961 237.943C209.087 237.831 209.166 237.676 209.185 237.508C209.183 237.327 209.11 237.154 208.982 237.026C208.854 236.898 208.681 236.825 208.5 236.823Z" fill="black"/>
<path d="M257.5 239C257.203 239 256.913 238.912 256.666 238.747C256.419 238.581 256.227 238.347 256.113 238.072C256 237.798 255.971 237.496 256.029 237.204C256.088 236.913 256.232 236.646 256.442 236.436C256.653 236.227 256.921 236.085 257.212 236.028C257.504 235.971 257.806 236.002 258.08 236.117C258.354 236.231 258.587 236.425 258.751 236.673C258.915 236.92 259.002 237.211 259 237.508C259 237.705 258.961 237.899 258.886 238.081C258.81 238.262 258.7 238.427 258.56 238.566C258.421 238.705 258.255 238.814 258.073 238.889C257.891 238.963 257.697 239.001 257.5 239ZM257.5 236.823C257.32 236.826 257.148 236.899 257.021 237.027C256.894 237.155 256.823 237.328 256.823 237.508C256.842 237.676 256.921 237.831 257.047 237.943C257.173 238.056 257.335 238.118 257.504 238.118C257.673 238.118 257.836 238.056 257.961 237.943C258.087 237.831 258.166 237.676 258.185 237.508C258.183 237.327 258.11 237.154 257.982 237.026C257.854 236.898 257.681 236.825 257.5 236.823Z" fill="black"/>
<path d="M196.5 239C196.203 239 195.913 238.912 195.666 238.747C195.419 238.581 195.227 238.347 195.113 238.072C195 237.798 194.971 237.496 195.029 237.204C195.088 236.913 195.232 236.646 195.442 236.436C195.653 236.227 195.921 236.085 196.212 236.028C196.504 235.971 196.806 236.002 197.08 236.117C197.354 236.231 197.587 236.425 197.751 236.673C197.915 236.92 198.002 237.211 198 237.508C198 237.705 197.961 237.899 197.886 238.081C197.81 238.262 197.7 238.427 197.56 238.566C197.421 238.705 197.255 238.814 197.073 238.889C196.891 238.963 196.697 239.001 196.5 239ZM196.5 236.823C196.32 236.826 196.148 236.899 196.021 237.027C195.894 237.155 195.823 237.328 195.823 237.508C195.842 237.676 195.921 237.831 196.047 237.943C196.173 238.056 196.335 238.118 196.504 238.118C196.673 238.118 196.836 238.056 196.961 237.943C197.087 237.831 197.166 237.676 197.185 237.508C197.183 237.327 197.11 237.154 196.982 237.026C196.854 236.898 196.681 236.825 196.5 236.823Z" fill="black"/>
<path d="M245.5 239C245.203 239 244.913 238.912 244.666 238.747C244.419 238.581 244.227 238.347 244.113 238.072C244 237.798 243.971 237.496 244.029 237.204C244.088 236.913 244.232 236.646 244.442 236.436C244.653 236.227 244.921 236.085 245.212 236.028C245.504 235.971 245.806 236.002 246.08 236.117C246.354 236.231 246.587 236.425 246.751 236.673C246.915 236.92 247.002 237.211 247 237.508C247 237.705 246.961 237.899 246.886 238.081C246.81 238.262 246.7 238.427 246.56 238.566C246.421 238.705 246.255 238.814 246.073 238.889C245.891 238.963 245.697 239.001 245.5 239ZM245.5 236.823C245.32 236.826 245.148 236.899 245.021 237.027C244.894 237.155 244.823 237.328 244.823 237.508C244.842 237.676 244.921 237.831 245.047 237.943C245.173 238.056 245.335 238.118 245.504 238.118C245.673 238.118 245.836 238.056 245.961 237.943C246.087 237.831 246.166 237.676 246.185 237.508C246.183 237.327 246.11 237.154 245.982 237.026C245.854 236.898 245.681 236.825 245.5 236.823Z" fill="black"/>
<path d="M190.5 244C190.203 244 189.913 243.912 189.667 243.747C189.42 243.582 189.228 243.348 189.114 243.074C189.001 242.8 188.971 242.498 189.029 242.207C189.087 241.916 189.23 241.649 189.439 241.439C189.649 241.23 189.916 241.087 190.207 241.029C190.498 240.971 190.8 241.001 191.074 241.114C191.348 241.228 191.582 241.42 191.747 241.667C191.912 241.913 192 242.203 192 242.5C191.998 242.897 191.839 243.277 191.558 243.558C191.277 243.839 190.897 243.998 190.5 244ZM190.5 241.82C190.365 241.82 190.234 241.86 190.122 241.934C190.01 242.009 189.923 242.115 189.871 242.24C189.82 242.364 189.806 242.501 189.833 242.633C189.859 242.765 189.924 242.886 190.019 242.981C190.114 243.076 190.235 243.141 190.367 243.167C190.499 243.193 190.636 243.18 190.76 243.129C190.885 243.077 190.991 242.99 191.066 242.878C191.14 242.766 191.18 242.635 191.18 242.5C191.183 242.409 191.167 242.318 191.133 242.233C191.1 242.148 191.051 242.071 190.987 242.005C190.924 241.94 190.848 241.887 190.765 241.851C190.681 241.815 190.591 241.796 190.5 241.795V241.82Z" fill="black"/>
<path d="M239.5 244C239.203 244 238.913 243.912 238.667 243.747C238.42 243.582 238.228 243.348 238.114 243.074C238.001 242.8 237.971 242.498 238.029 242.207C238.087 241.916 238.23 241.649 238.439 241.439C238.649 241.23 238.916 241.087 239.207 241.029C239.498 240.971 239.8 241.001 240.074 241.114C240.348 241.228 240.582 241.42 240.747 241.667C240.912 241.913 241 242.203 241 242.5C240.998 242.897 240.839 243.277 240.558 243.558C240.277 243.839 239.897 243.998 239.5 244ZM239.5 241.82C239.365 241.82 239.234 241.86 239.122 241.934C239.01 242.009 238.923 242.115 238.871 242.24C238.82 242.364 238.806 242.501 238.833 242.633C238.859 242.765 238.924 242.886 239.019 242.981C239.114 243.076 239.235 243.141 239.367 243.167C239.499 243.193 239.636 243.18 239.76 243.129C239.885 243.077 239.991 242.99 240.066 242.878C240.14 242.766 240.18 242.635 240.18 242.5C240.183 242.409 240.167 242.318 240.133 242.233C240.1 242.148 240.051 242.071 239.987 242.005C239.924 241.94 239.848 241.887 239.765 241.851C239.681 241.815 239.591 241.796 239.5 241.795V241.82Z" fill="black"/>
<path d="M202.5 244C202.203 244 201.913 243.912 201.667 243.747C201.42 243.582 201.228 243.348 201.114 243.074C201.001 242.8 200.971 242.498 201.029 242.207C201.087 241.916 201.23 241.649 201.439 241.439C201.649 241.23 201.916 241.087 202.207 241.029C202.498 240.971 202.8 241.001 203.074 241.114C203.348 241.228 203.582 241.42 203.747 241.667C203.912 241.913 204 242.203 204 242.5C203.998 242.897 203.839 243.277 203.558 243.558C203.277 243.839 202.897 243.998 202.5 244ZM202.5 241.82C202.365 241.82 202.234 241.86 202.122 241.934C202.01 242.009 201.923 242.115 201.871 242.24C201.82 242.364 201.806 242.501 201.833 242.633C201.859 242.765 201.924 242.886 202.019 242.981C202.114 243.076 202.235 243.141 202.367 243.167C202.499 243.193 202.636 243.18 202.76 243.129C202.885 243.077 202.991 242.99 203.066 242.878C203.14 242.766 203.18 242.635 203.18 242.5C203.183 242.409 203.167 242.318 203.133 242.233C203.1 242.148 203.051 242.071 202.987 242.005C202.924 241.94 202.848 241.887 202.765 241.851C202.681 241.815 202.591 241.796 202.5 241.795V241.82Z" fill="black"/>
<path d="M251.5 244C251.203 244 250.913 243.912 250.667 243.747C250.42 243.582 250.228 243.348 250.114 243.074C250.001 242.8 249.971 242.498 250.029 242.207C250.087 241.916 250.23 241.649 250.439 241.439C250.649 241.23 250.916 241.087 251.207 241.029C251.498 240.971 251.8 241.001 252.074 241.114C252.348 241.228 252.582 241.42 252.747 241.667C252.912 241.913 253 242.203 253 242.5C252.998 242.897 252.839 243.277 252.558 243.558C252.277 243.839 251.897 243.998 251.5 244ZM251.5 241.82C251.365 241.82 251.234 241.86 251.122 241.934C251.01 242.009 250.923 242.115 250.871 242.24C250.82 242.364 250.806 242.501 250.833 242.633C250.859 242.765 250.924 242.886 251.019 242.981C251.114 243.076 251.235 243.141 251.367 243.167C251.499 243.193 251.636 243.18 251.76 243.129C251.885 243.077 251.991 242.99 252.066 242.878C252.14 242.766 252.18 242.635 252.18 242.5C252.183 242.409 252.167 242.318 252.133 242.233C252.1 242.148 252.051 242.071 251.987 242.005C251.924 241.94 251.848 241.887 251.765 241.851C251.681 241.815 251.591 241.796 251.5 241.795V241.82Z" fill="black"/>
<path d="M208.492 244C208.195 243.998 207.906 243.909 207.661 243.743C207.415 243.577 207.224 243.343 207.112 243.068C207 242.794 206.971 242.493 207.03 242.202C207.089 241.912 207.232 241.645 207.442 241.436C207.652 241.227 207.92 241.085 208.21 241.028C208.501 240.971 208.802 241.001 209.076 241.115C209.35 241.229 209.583 241.421 209.748 241.667C209.912 241.914 210 242.204 210 242.5C210 242.698 209.961 242.893 209.885 243.076C209.809 243.258 209.698 243.424 209.558 243.564C209.418 243.703 209.251 243.813 209.068 243.888C208.885 243.963 208.689 244.001 208.492 244ZM208.492 241.82C208.358 241.821 208.227 241.863 208.116 241.938C208.005 242.014 207.919 242.121 207.869 242.245C207.819 242.37 207.807 242.506 207.834 242.638C207.861 242.769 207.926 242.89 208.022 242.984C208.117 243.078 208.239 243.142 208.37 243.168C208.502 243.193 208.638 243.179 208.762 243.128C208.886 243.076 208.992 242.989 209.066 242.877C209.141 242.765 209.18 242.634 209.18 242.5C209.184 242.408 209.168 242.316 209.135 242.23C209.102 242.144 209.052 242.066 208.987 242C208.923 241.934 208.846 241.882 208.76 241.847C208.675 241.811 208.584 241.794 208.492 241.795V241.82Z" fill="black"/>
<path d="M257.492 244C257.195 243.998 256.906 243.909 256.661 243.743C256.415 243.577 256.224 243.343 256.112 243.068C256 242.794 255.971 242.493 256.03 242.202C256.089 241.912 256.232 241.645 256.442 241.436C256.652 241.227 256.92 241.085 257.21 241.028C257.501 240.971 257.802 241.001 258.076 241.115C258.35 241.229 258.583 241.421 258.748 241.667C258.912 241.914 259 242.204 259 242.5C259 242.698 258.961 242.893 258.885 243.076C258.809 243.258 258.698 243.424 258.558 243.564C258.418 243.703 258.251 243.813 258.068 243.888C257.885 243.963 257.689 244.001 257.492 244ZM257.492 241.82C257.358 241.821 257.227 241.863 257.116 241.938C257.005 242.014 256.919 242.121 256.869 242.245C256.819 242.37 256.807 242.506 256.834 242.638C256.861 242.769 256.926 242.89 257.022 242.984C257.117 243.078 257.239 243.142 257.37 243.168C257.502 243.193 257.638 243.179 257.762 243.128C257.886 243.076 257.992 242.989 258.066 242.877C258.141 242.765 258.18 242.634 258.18 242.5C258.184 242.408 258.168 242.316 258.135 242.23C258.102 242.144 258.052 242.066 257.987 242C257.923 241.934 257.846 241.882 257.76 241.847C257.675 241.811 257.584 241.794 257.492 241.795V241.82Z" fill="black"/>
<path d="M196.492 244C196.195 243.998 195.906 243.909 195.661 243.743C195.415 243.577 195.224 243.343 195.112 243.068C195 242.794 194.971 242.493 195.03 242.202C195.089 241.912 195.232 241.645 195.442 241.436C195.652 241.227 195.92 241.085 196.21 241.028C196.501 240.971 196.802 241.001 197.076 241.115C197.35 241.229 197.583 241.421 197.748 241.667C197.912 241.914 198 242.204 198 242.5C198 242.698 197.961 242.893 197.885 243.076C197.809 243.258 197.698 243.424 197.558 243.564C197.418 243.703 197.251 243.813 197.068 243.888C196.885 243.963 196.689 244.001 196.492 244ZM196.492 241.82C196.358 241.821 196.227 241.863 196.116 241.938C196.005 242.014 195.919 242.121 195.869 242.245C195.819 242.37 195.807 242.506 195.834 242.638C195.861 242.769 195.926 242.89 196.022 242.984C196.117 243.078 196.239 243.142 196.37 243.168C196.502 243.193 196.638 243.179 196.762 243.128C196.886 243.076 196.992 242.989 197.066 242.877C197.141 242.765 197.18 242.634 197.18 242.5C197.184 242.408 197.168 242.316 197.135 242.23C197.102 242.144 197.052 242.066 196.987 242C196.923 241.934 196.846 241.882 196.761 241.847C196.675 241.811 196.584 241.794 196.492 241.795V241.82Z" fill="black"/>
<path d="M245.492 244C245.195 243.998 244.906 243.909 244.661 243.743C244.415 243.577 244.224 243.343 244.112 243.068C244 242.794 243.971 242.493 244.03 242.202C244.089 241.912 244.232 241.645 244.442 241.436C244.652 241.227 244.92 241.085 245.21 241.028C245.501 240.971 245.802 241.001 246.076 241.115C246.35 241.229 246.583 241.421 246.748 241.667C246.912 241.914 247 242.204 247 242.5C247 242.698 246.961 242.893 246.885 243.076C246.809 243.258 246.698 243.424 246.558 243.564C246.418 243.703 246.251 243.813 246.068 243.888C245.885 243.963 245.689 244.001 245.492 244ZM245.492 241.82C245.358 241.821 245.227 241.863 245.116 241.938C245.005 242.014 244.919 242.121 244.869 242.245C244.819 242.37 244.807 242.506 244.834 242.638C244.861 242.769 244.926 242.89 245.022 242.984C245.117 243.078 245.239 243.142 245.37 243.168C245.502 243.193 245.638 243.179 245.762 243.128C245.886 243.076 245.992 242.989 246.066 242.877C246.141 242.765 246.18 242.634 246.18 242.5C246.184 242.408 246.168 242.316 246.135 242.23C246.102 242.144 246.052 242.066 245.987 242C245.923 241.934 245.846 241.882 245.761 241.847C245.675 241.811 245.584 241.794 245.492 241.795V241.82Z" fill="black"/>
<path d="M224.507 231C223.023 230.999 221.573 231.437 220.338 232.261C219.104 233.084 218.142 234.255 217.573 235.625C217.004 236.995 216.855 238.504 217.143 239.959C217.432 241.414 218.146 242.751 219.194 243.801C220.243 244.85 221.579 245.565 223.034 245.855C224.489 246.145 225.998 245.997 227.369 245.43C228.739 244.862 229.911 243.901 230.736 242.667C231.56 241.434 232 239.984 232 238.5C231.996 236.513 231.206 234.609 229.802 233.203C228.397 231.798 226.494 231.005 224.507 231Z" fill="black" fill-opacity="0.3"/>
<path d="M231 236.5C231 240.09 228.09 243 224.5 243C220.91 243 218 240.09 218 236.5C218 232.91 220.91 230 224.5 230C228.09 230 231 232.91 231 236.5Z" fill="#926868" stroke="black" stroke-width="2"/>
<mask id="path-32-inside-1_37_2" fill="white">
<path d="M224.507 244C223.023 244.001 221.572 243.562 220.338 242.739C219.103 241.915 218.141 240.744 217.572 239.373C217.004 238.003 216.855 236.494 217.144 235.039C217.433 233.583 218.147 232.246 219.197 231.197C220.246 230.147 221.583 229.433 223.039 229.144C224.494 228.855 226.003 229.004 227.373 229.572C228.744 230.141 229.915 231.103 230.739 232.338C231.562 233.572 232.001 235.023 232 236.507C231.996 238.493 231.206 240.397 229.801 241.801C228.397 243.206 226.493 243.996 224.507 244ZM224.507 229.484C223.113 229.483 221.751 229.894 220.592 230.668C219.432 231.441 218.529 232.54 217.994 233.827C217.46 235.114 217.32 236.531 217.591 237.898C217.862 239.264 218.532 240.52 219.517 241.506C220.502 242.492 221.757 243.163 223.123 243.436C224.49 243.708 225.906 243.569 227.194 243.036C228.481 242.503 229.582 241.6 230.356 240.442C231.13 239.283 231.544 237.921 231.544 236.528C231.542 234.661 230.8 232.872 229.481 231.551C228.162 230.231 226.373 229.488 224.507 229.484Z"/>
</mask>
<path d="M224.507 244C223.023 244.001 221.572 243.562 220.338 242.739C219.103 241.915 218.141 240.744 217.572 239.373C217.004 238.003 216.855 236.494 217.144 235.039C217.433 233.583 218.147 232.246 219.197 231.197C220.246 230.147 221.583 229.433 223.039 229.144C224.494 228.855 226.003 229.004 227.373 229.572C228.744 230.141 229.915 231.103 230.739 232.338C231.562 233.572 232.001 235.023 232 236.507C231.996 238.493 231.206 240.397 229.801 241.801C228.397 243.206 226.493 243.996 224.507 244ZM224.507 229.484C223.113 229.483 221.751 229.894 220.592 230.668C219.432 231.441 218.529 232.54 217.994 233.827C217.46 235.114 217.32 236.531 217.591 237.898C217.862 239.264 218.532 240.52 219.517 241.506C220.502 242.492 221.757 243.163 223.123 243.436C224.49 243.708 225.906 243.569 227.194 243.036C228.481 242.503 229.582 241.6 230.356 240.442C231.13 239.283 231.544 237.921 231.544 236.528C231.542 234.661 230.8 232.872 229.481 231.551C228.162 230.231 226.373 229.488 224.507 229.484Z" fill="#6E3638"/>
<path d="M224.507 244L224.509 246L224.511 246L224.507 244ZM232 236.507L234 236.511L234 236.509L232 236.507ZM224.507 229.484L224.511 227.484L224.509 227.484L224.507 229.484ZM231.544 236.528L233.544 236.528L233.544 236.526L231.544 236.528ZM224.505 242C223.417 242.001 222.353 241.679 221.448 241.075L219.228 244.403C220.791 245.446 222.629 246.002 224.509 246L224.505 242ZM221.448 241.075C220.542 240.471 219.837 239.612 219.42 238.607L215.725 240.14C216.445 241.876 217.664 243.359 219.228 244.403L221.448 241.075ZM219.42 238.607C219.003 237.602 218.893 236.496 219.105 235.428L215.182 234.649C214.816 236.492 215.005 238.403 215.725 240.14L219.42 238.607ZM219.105 235.428C219.318 234.361 219.841 233.38 220.611 232.611L217.782 229.782C216.453 231.112 215.548 232.805 215.182 234.649L219.105 235.428ZM220.611 232.611C221.38 231.841 222.361 231.317 223.428 231.105L222.649 227.182C220.805 227.548 219.112 228.453 217.782 229.782L220.611 232.611ZM223.428 231.105C224.496 230.893 225.602 231.003 226.607 231.42L228.14 227.725C226.403 227.005 224.492 226.816 222.649 227.182L223.428 231.105ZM226.607 231.42C227.612 231.837 228.471 232.542 229.075 233.448L232.403 231.228C231.359 229.664 229.876 228.445 228.14 227.725L226.607 231.42ZM229.075 233.448C229.679 234.353 230.001 235.417 230 236.505L234 236.509C234.002 234.629 233.446 232.791 232.403 231.228L229.075 233.448ZM230 236.503C229.997 237.96 229.417 239.357 228.387 240.387L231.215 243.216C232.994 241.437 233.995 239.026 234 236.511L230 236.503ZM228.387 240.387C227.357 241.417 225.96 241.997 224.503 242L224.511 246C227.026 245.995 229.437 244.994 231.215 243.216L228.387 240.387ZM224.509 227.484C222.72 227.482 220.97 228.011 219.482 229.004L221.701 232.331C222.531 231.778 223.507 231.483 224.505 231.484L224.509 227.484ZM219.482 229.004C217.994 229.996 216.833 231.408 216.147 233.061L219.842 234.594C220.224 233.672 220.871 232.885 221.701 232.331L219.482 229.004ZM216.147 233.061C215.461 234.713 215.281 236.532 215.629 238.287L219.553 237.509C219.358 236.53 219.459 235.516 219.842 234.594L216.147 233.061ZM215.629 238.287C215.977 240.041 216.838 241.654 218.102 242.919L220.932 240.092C220.227 239.386 219.747 238.487 219.553 237.509L215.629 238.287ZM218.102 242.919C219.366 244.185 220.978 245.047 222.732 245.397L223.514 241.474C222.536 241.279 221.637 240.798 220.932 240.092L218.102 242.919ZM222.732 245.397C224.487 245.747 226.306 245.568 227.959 244.884L226.429 241.188C225.507 241.57 224.493 241.669 223.514 241.474L222.732 245.397ZM227.959 244.884C229.612 244.2 231.025 243.04 232.019 241.553L228.693 239.33C228.139 240.16 227.351 240.806 226.429 241.188L227.959 244.884ZM232.019 241.553C233.013 240.066 233.544 238.317 233.544 236.528L229.544 236.528C229.544 237.525 229.248 238.501 228.693 239.33L232.019 241.553ZM233.544 236.526C233.541 234.13 232.589 231.833 230.896 230.138L228.066 232.965C229.011 233.911 229.542 235.193 229.544 236.53L233.544 236.526ZM230.896 230.138C229.203 228.443 226.907 227.489 224.511 227.484L224.503 231.484C225.84 231.486 227.121 232.019 228.066 232.965L230.896 230.138Z" fill="black" mask="url(#path-32-inside-1_37_2)"/>
<mask id="path-34-inside-2_37_2" fill="white">
<path d="M223.197 230.309C223.527 230.26 223.859 230.235 224.191 230.234C225.935 230.236 227.606 230.93 228.838 232.162C230.07 233.395 230.762 235.066 230.762 236.809C230.764 237.139 230.739 237.47 230.687 237.796L230.891 238C230.962 237.607 230.998 237.208 231 236.809C231 235.814 230.783 234.831 230.362 233.93C229.941 233.028 229.328 232.229 228.565 231.59C227.803 230.951 226.909 230.487 225.948 230.23C224.986 229.974 223.98 229.931 223 230.105L223.197 230.309Z"/>
</mask>
<path d="M223.197 230.309C223.527 230.26 223.859 230.235 224.191 230.234C225.935 230.236 227.606 230.93 228.838 232.162C230.07 233.395 230.762 235.066 230.762 236.809C230.764 237.139 230.739 237.47 230.687 237.796L230.891 238C230.962 237.607 230.998 237.208 231 236.809C231 235.814 230.783 234.831 230.362 233.93C229.941 233.028 229.328 232.229 228.565 231.59C227.803 230.951 226.909 230.487 225.948 230.23C224.986 229.974 223.98 229.931 223 230.105L223.197 230.309Z" fill="#F1F2F2"/>
<path d="M223.197 230.309L221.76 231.699L222.475 232.439L223.493 232.287L223.197 230.309ZM224.191 230.234L224.194 228.234L224.188 228.234L224.191 230.234ZM230.762 236.809L228.762 236.809L228.762 236.817L228.762 236.825L230.762 236.809ZM230.687 237.796L228.712 237.478L228.55 238.488L229.273 239.21L230.687 237.796ZM230.891 238L229.477 239.415L232.183 242.119L232.86 238.354L230.891 238ZM231 236.809L233 236.818L233 236.81L231 236.809ZM223 230.105L222.65 228.136L218.95 228.793L221.562 231.495L223 230.105ZM223.493 232.287C223.726 232.252 223.96 232.235 224.195 232.234L224.188 228.234C223.757 228.235 223.327 228.268 222.902 228.331L223.493 232.287ZM224.189 232.234C225.403 232.236 226.566 232.718 227.423 233.576L230.252 230.749C228.646 229.141 226.467 228.237 224.194 228.234L224.189 232.234ZM227.423 233.576C228.28 234.434 228.762 235.597 228.762 236.809L232.762 236.809C232.762 234.536 231.859 232.356 230.252 230.749L227.423 233.576ZM228.762 236.825C228.764 237.044 228.747 237.262 228.712 237.478L232.661 238.114C232.732 237.677 232.765 237.235 232.762 236.793L228.762 236.825ZM229.273 239.21L229.477 239.415L232.305 236.585L232.101 236.381L229.273 239.21ZM232.86 238.354C232.951 237.847 232.998 237.333 233 236.818L229 236.8C228.999 237.084 228.973 237.367 228.923 237.646L232.86 238.354ZM233 236.81C233.001 235.522 232.719 234.251 232.175 233.084L228.55 234.775C228.847 235.412 229 236.106 229 236.808L233 236.81ZM232.175 233.084C231.63 231.917 230.837 230.884 229.85 230.057L227.281 233.123C227.82 233.575 228.253 234.138 228.55 234.775L232.175 233.084ZM229.85 230.057C228.863 229.23 227.707 228.63 226.463 228.298L225.432 232.163C226.111 232.344 226.742 232.672 227.281 233.123L229.85 230.057ZM226.463 228.298C225.219 227.966 223.918 227.911 222.65 228.136L223.35 232.074C224.042 231.951 224.753 231.981 225.432 232.163L226.463 228.298ZM221.562 231.495L221.76 231.699L224.635 228.919L224.438 228.715L221.562 231.495Z" fill="black" mask="url(#path-34-inside-2_37_2)"/>
<mask id="path-36-inside-3_37_2" fill="white">
<path d="M225.797 242.682C225.46 242.736 225.12 242.763 224.78 242.763C223.044 242.763 221.379 242.074 220.151 240.849C218.923 239.623 218.232 237.96 218.231 236.226C218.23 235.883 218.257 235.541 218.312 235.203L218.108 235C218.038 235.405 218.002 235.815 218 236.226C218 238.023 218.714 239.746 219.986 241.016C221.257 242.286 222.982 243 224.78 243C225.189 242.999 225.598 242.961 226 242.885L225.797 242.682Z"/>
</mask>
<path d="M225.797 242.682C225.46 242.736 225.12 242.763 224.78 242.763C223.044 242.763 221.379 242.074 220.151 240.849C218.923 239.623 218.232 237.96 218.231 236.226C218.23 235.883 218.257 235.541 218.312 235.203L218.108 235C218.038 235.405 218.002 235.815 218 236.226C218 238.023 218.714 239.746 219.986 241.016C221.257 242.286 222.982 243 224.78 243C225.189 242.999 225.598 242.961 226 242.885L225.797 242.682Z" fill="#F1F2F2"/>
<path d="M225.797 242.682L227.21 241.267L226.486 240.544L225.476 240.707L225.797 242.682ZM224.78 242.763L224.782 240.763L224.78 240.763L224.78 242.763ZM218.231 236.226L220.231 236.224L220.231 236.222L218.231 236.226ZM218.312 235.203L220.286 235.523L220.45 234.512L219.725 233.788L218.312 235.203ZM218.108 235L219.522 233.585L216.8 230.865L216.138 234.656L218.108 235ZM218 236.226L216 236.218V236.226L218 236.226ZM224.78 243L224.78 245L224.783 245L224.78 243ZM226 242.885L226.371 244.85L230.094 244.148L227.414 241.47L226 242.885ZM225.476 240.707C225.247 240.745 225.015 240.763 224.782 240.763L224.777 244.763C225.226 244.763 225.674 244.728 226.117 244.656L225.476 240.707ZM224.78 240.763C223.573 240.763 222.417 240.284 221.564 239.433L218.738 242.264C220.341 243.864 222.514 244.763 224.78 244.763L224.78 240.763ZM221.564 239.433C220.711 238.582 220.232 237.428 220.231 236.224L216.231 236.228C216.233 238.493 217.135 240.664 218.738 242.264L221.564 239.433ZM220.231 236.222C220.23 235.988 220.249 235.754 220.286 235.523L216.338 234.883C216.265 235.329 216.23 235.779 216.231 236.23L220.231 236.222ZM219.725 233.788L219.522 233.585L216.695 236.415L216.898 236.618L219.725 233.788ZM216.138 234.656C216.048 235.172 216.002 235.695 216 236.218L220 236.234C220.001 235.935 220.027 235.638 220.079 235.344L216.138 234.656ZM216 236.226C216 238.554 216.925 240.786 218.572 242.431L221.399 239.601C220.503 238.706 220 237.492 220 236.226L216 236.226ZM218.572 242.431C220.219 244.076 222.452 245 224.78 245V241C223.511 241 222.296 240.497 221.399 239.601L218.572 242.431ZM224.783 245C225.316 244.999 225.847 244.949 226.371 244.85L225.629 240.919C225.348 240.973 225.062 240.999 224.776 241L224.783 245ZM227.414 241.47L227.21 241.267L224.383 244.096L224.586 244.3L227.414 241.47Z" fill="black" mask="url(#path-36-inside-3_37_2)"/>
<path d="M228 236.5C228 238.433 226.433 240 224.5 240C222.567 240 221 238.433 221 236.5C221 234.567 222.567 233 224.5 233C226.433 233 228 234.567 228 236.5Z" fill="#FDC756" stroke="black" stroke-width="2"/>
<path d="M282.688 282.614L262.972 271.232L265.994 265.998C267.649 263.131 271.314 262.149 274.181 263.804L283.516 269.194C286.383 270.849 287.365 274.514 285.71 277.38L282.688 282.614Z" fill="#aaaaaa" stroke="black" stroke-miterlimit="10"/>
<path d="M264.76 270.753C265.17 269.826 265.625 268.925 266.095 268.033C266.326 267.585 266.574 267.146 266.813 266.702C267.054 266.254 267.37 265.799 267.753 265.436C268.522 264.699 269.54 264.23 270.591 264.143C271.639 264.045 272.709 264.336 273.527 264.937C272.601 264.528 271.594 264.388 270.641 264.548C269.691 264.708 268.799 265.149 268.116 265.813C267.761 266.139 267.493 266.52 267.241 266.95C266.977 267.379 266.721 267.813 266.448 268.237C265.91 269.09 265.357 269.934 264.76 270.753Z" fill="#F1F8D1"/>
<path d="M168.313 282.614L188.029 271.232L185.007 265.998C183.352 263.131 179.687 262.149 176.82 263.804L167.485 269.194C164.618 270.849 163.637 274.514 165.291 277.38L168.313 282.614Z" fill="#aaaaaa" stroke="black" stroke-miterlimit="10"/>
<path d="M177.474 264.937C178.293 264.337 179.362 264.045 180.41 264.143C181.461 264.231 182.48 264.7 183.248 265.436C183.632 265.799 183.947 266.255 184.189 266.702C184.428 267.145 184.676 267.584 184.907 268.033C185.377 268.924 185.832 269.826 186.242 270.753C185.644 269.935 185.09 269.091 184.553 268.237C184.28 267.813 184.025 267.379 183.76 266.95C183.509 266.52 183.24 266.139 182.886 265.813C182.204 265.148 181.31 264.707 180.36 264.547C179.407 264.387 178.4 264.528 177.474 264.937Z" fill="#F1F8D1"/>
<path d="M274.953 332.407C269.879 332.407 264.977 330.575 261.147 327.247L255.169 322.051C252.952 320.124 250.112 319.062 247.174 319.062H203.827C200.889 319.062 198.049 320.124 195.831 322.051L189.853 327.246C186.024 330.574 181.121 332.407 176.047 332.407C164.423 332.407 155 322.984 155 311.359V300.326C155 280.471 171.096 264.376 190.95 264.376H260.05C279.905 264.376 296 280.471 296 300.326V311.359C296 322.983 286.577 332.407 274.953 332.407H274.953V332.407Z" fill="#aaaaaa" stroke="black" stroke-miterlimit="10"/>
<path d="M274.953 330.052C270.448 330.052 266.093 328.424 262.692 325.469L256.714 320.274C254.068 317.974 250.68 316.708 247.174 316.708H203.827C200.321 316.708 196.933 317.974 194.287 320.274L188.309 325.469C184.908 328.425 180.553 330.052 176.048 330.052C165.741 330.052 157.356 321.667 157.356 311.36V300.327C157.356 281.803 172.426 266.732 190.951 266.732H260.051C278.575 266.732 293.646 281.803 293.646 300.327V311.36C293.646 321.667 285.26 330.052 274.953 330.052Z" fill="white"/>
<path d="M256.714 320.274C255.123 318.922 253.242 317.93 251.245 317.365C250.246 317.082 249.218 316.906 248.184 316.844C247.667 316.809 247.15 316.817 246.627 316.822L245.063 316.836L232.547 316.932L207.515 317.063L204.385 317.074C203.341 317.06 202.342 317.118 201.336 317.306C199.335 317.668 197.425 318.475 195.75 319.623C195.332 319.911 194.93 320.222 194.545 320.553L193.361 321.575L190.991 323.618L188.622 325.662C187.824 326.358 186.963 326.992 186.059 327.546C182.44 329.786 178.049 330.684 173.864 330.147C169.669 329.63 165.708 327.6 162.837 324.571C164.351 326.006 166.085 327.198 167.966 328.071C169.847 328.941 171.866 329.489 173.915 329.706C175.966 329.92 178.048 329.792 180.048 329.321C182.048 328.853 183.961 328.046 185.701 326.968C186.571 326.425 187.392 325.813 188.161 325.132L190.516 323.071L192.87 321.01L194.048 319.979C194.451 319.627 194.873 319.296 195.311 318.99C197.062 317.754 199.097 316.932 201.204 316.563C202.251 316.373 203.345 316.319 204.386 316.341L207.515 316.353L232.547 316.483L245.063 316.579L246.627 316.593C247.147 316.597 247.675 316.598 248.198 316.643C249.245 316.725 250.282 316.922 251.285 317.226C253.293 317.831 255.156 318.887 256.714 320.274Z" fill="#F1F8D1"/>
<path d="M291.001 287.262C292.203 289.884 293.029 292.682 293.497 295.542C293.724 296.974 293.852 298.422 293.887 299.873L293.946 304.199C293.966 305.639 293.983 307.08 293.985 308.521L293.994 310.683C293.999 311.397 294.002 312.14 293.942 312.87C293.725 315.799 292.814 318.678 291.299 321.201C289.769 323.715 287.652 325.863 285.169 327.431C282.688 328.998 279.84 330 276.919 330.252C274.003 330.52 271.033 330.103 268.321 329.041C266.969 328.502 265.682 327.808 264.494 326.977C263.901 326.562 263.331 326.113 262.791 325.632L261.198 324.17C262.319 325.076 263.394 326.043 264.61 326.804C265.817 327.577 267.111 328.207 268.456 328.681C271.14 329.649 274.039 329.983 276.857 329.652C279.67 329.314 282.41 328.37 284.785 326.829C287.163 325.3 289.178 323.216 290.628 320.795C292.101 318.388 293 315.632 293.232 312.814C293.295 312.108 293.298 311.409 293.299 310.682L293.308 308.521C293.309 307.08 293.326 305.639 293.346 304.198L293.394 299.879C293.397 298.448 293.3 297.017 293.118 295.596C292.782 292.748 292.039 289.951 291.001 287.262Z" fill="#F1F8D1"/>
<path d="M158.827 318.629C158.227 317.437 157.8 316.159 157.489 314.852C157.192 313.543 157.054 312.182 157.05 310.847C156.987 308.187 156.971 305.527 156.963 302.867C156.977 301.537 156.951 300.211 157.017 298.862C157.093 297.52 157.237 296.181 157.491 294.862C157.735 293.542 158.065 292.239 158.483 290.967C158.918 289.702 159.401 288.454 159.999 287.262C159.107 289.773 158.466 292.35 158.096 294.96C157.918 296.266 157.791 297.578 157.759 298.894C157.718 300.202 157.748 301.538 157.747 302.867C157.739 305.527 157.723 308.187 157.66 310.847C157.55 313.477 157.927 316.116 158.827 318.629Z" fill="#F1F8D1"/>
<path d="M215.25 312.695H209.877C207.93 312.695 206.352 311.768 206.352 310.625C206.352 309.481 207.93 308.554 209.877 308.554H215.25C217.197 308.554 218.776 309.481 218.776 310.625C218.776 311.768 217.197 312.695 215.25 312.695Z" fill="#aaaaaa" stroke="black" stroke-width="1.3" stroke-miterlimit="10"/>
<path d="M243.41 312.695H238.038C236.091 312.695 234.512 311.768 234.512 310.625C234.512 309.481 236.091 308.554 238.038 308.554H243.41C245.358 308.554 246.936 309.481 246.936 310.625C246.936 311.768 245.358 312.695 243.41 312.695Z" fill="#aaaaaa" stroke="black" stroke-width="1.3" stroke-miterlimit="10"/>
<path d="M269.885 312.424C279.645 312.424 287.557 304.512 287.557 294.752C287.557 284.992 279.645 277.08 269.885 277.08C260.125 277.08 252.213 284.992 252.213 294.752C252.213 304.512 260.125 312.424 269.885 312.424Z" fill="#aaaaaa" stroke="black" stroke-miterlimit="10"/>
<path d="M253.606 294.752C253.606 293.155 253.783 291.551 254.223 290.001C254.689 288.464 255.347 286.982 256.215 285.618C257.116 284.278 258.198 283.064 259.425 282.005C260.678 280.977 262.072 280.129 263.556 279.47C265.054 278.836 266.645 278.446 268.261 278.255C269.882 278.118 271.518 278.181 273.122 278.478C274.714 278.818 276.267 279.348 277.712 280.108C279.141 280.893 280.462 281.866 281.637 283C282.772 284.174 283.744 285.495 284.53 286.924C285.289 288.37 285.82 289.922 286.159 291.515C286.457 293.118 286.52 294.755 286.383 296.376C286.192 297.992 285.804 299.584 285.168 301.081C284.509 302.566 283.661 303.96 282.633 305.213C281.574 306.44 280.359 307.521 279.02 308.423C277.655 309.29 276.173 309.948 274.636 310.415C273.087 310.854 271.483 311.031 269.885 311.031C270.682 310.958 271.483 310.959 272.263 310.784L272.852 310.683L273.146 310.634L273.434 310.555L274.583 310.238C276.087 309.728 277.523 309.032 278.83 308.139C280.121 307.226 281.288 306.148 282.294 304.934C283.27 303.694 284.065 302.324 284.675 300.876L285.069 299.766L285.166 299.489L285.236 299.203L285.377 298.632L285.521 298.062C285.569 297.872 285.584 297.675 285.617 297.482C285.672 297.094 285.74 296.707 285.785 296.319C285.905 294.755 285.834 293.179 285.539 291.639C285.201 290.111 284.683 288.623 283.944 287.24C283.181 285.873 282.239 284.613 281.146 283.493C280.027 282.399 278.766 281.457 277.399 280.694C276.017 279.956 274.529 279.437 272.999 279.1C271.46 278.804 269.884 278.733 268.32 278.854C266.764 279.037 265.224 279.381 263.761 279.963C262.313 280.573 260.943 281.368 259.703 282.344C258.488 283.35 257.412 284.517 256.498 285.808C255.605 287.115 254.91 288.551 254.399 290.055L254.083 291.205L254.004 291.493L253.954 291.787L253.853 292.375C253.678 293.155 253.679 293.956 253.606 294.752Z" fill="#F1F8D1"/>
<path d="M260.839 299.342C263.374 299.342 265.429 297.287 265.429 294.752C265.429 292.217 263.374 290.162 260.839 290.162C258.304 290.162 256.249 292.217 256.249 294.752C256.249 297.287 258.304 299.342 260.839 299.342Z" fill="#377993" stroke="black" stroke-miterlimit="10"/>
<path d="M256.946 294.752C256.85 293.731 257.221 292.647 257.96 291.873C258.686 291.087 259.758 290.626 260.839 290.627C261.92 290.626 262.992 291.087 263.719 291.872C264.457 292.646 264.828 293.731 264.732 294.752C264.643 293.731 264.173 292.793 263.463 292.128C262.751 291.465 261.8 291.085 260.839 291.091C259.878 291.084 258.927 291.465 258.215 292.128C257.505 292.792 257.034 293.731 256.946 294.752Z" fill="#F1F8D1"/>
<path d="M278.932 299.342C281.466 299.342 283.521 297.287 283.521 294.752C283.521 292.217 281.466 290.162 278.932 290.162C276.397 290.162 274.342 292.217 274.342 294.752C274.342 297.287 276.397 299.342 278.932 299.342Z" fill="#EB5C48" stroke="black" stroke-miterlimit="10"/>
<path d="M275.038 294.752C275.022 294.37 275.051 293.982 275.148 293.605C275.25 293.23 275.4 292.866 275.602 292.527C275.814 292.196 276.075 291.896 276.37 291.631C276.673 291.374 277.011 291.16 277.374 290.992C277.74 290.829 278.131 290.727 278.53 290.676C278.931 290.638 279.335 290.65 279.734 290.719C280.13 290.799 280.514 290.933 280.873 291.12C281.228 291.314 281.556 291.555 281.847 291.836C282.129 292.127 282.37 292.456 282.564 292.811C282.751 293.169 282.885 293.554 282.965 293.95C283.035 294.348 283.046 294.754 283.008 295.153C282.957 295.552 282.855 295.944 282.692 296.31C282.524 296.673 282.309 297.011 282.052 297.314C281.788 297.61 281.487 297.869 281.156 298.082C280.818 298.284 280.453 298.434 280.079 298.536C279.702 298.633 279.313 298.662 278.931 298.645C280.466 298.564 281.849 297.547 282.362 296.173C282.901 294.81 282.558 293.173 281.518 292.165C280.51 291.125 278.873 290.782 277.51 291.32C276.136 291.833 275.119 293.217 275.038 294.752Z" fill="#F1F8D1"/>
<path d="M269.885 308.388C272.42 308.388 274.475 306.333 274.475 303.798C274.475 301.263 272.42 299.209 269.885 299.209C267.35 299.209 265.295 301.263 265.295 303.798C265.295 306.333 267.35 308.388 269.885 308.388Z" fill="#42BA46" stroke="black" stroke-miterlimit="10"/>
<path d="M269.885 299.905C270.395 299.809 270.939 299.862 271.444 300.036C271.951 300.206 272.417 300.504 272.801 300.882C273.18 301.266 273.478 301.732 273.648 302.239C273.822 302.744 273.875 303.288 273.778 303.798C273.68 303.289 273.532 302.814 273.314 302.378C273.094 301.945 272.814 301.547 272.473 301.21C272.136 300.868 271.739 300.588 271.305 300.368C270.869 300.151 270.394 300.003 269.885 299.905Z" fill="#F1F8D1"/>
<path d="M269.885 290.295C272.42 290.295 274.475 288.24 274.475 285.706C274.475 283.171 272.42 281.116 269.885 281.116C267.35 281.116 265.295 283.171 265.295 285.706C265.295 288.24 267.35 290.295 269.885 290.295Z" fill="#F7B54A" stroke="black" stroke-miterlimit="10"/>
<path d="M265.992 285.706C265.896 284.685 266.267 283.6 267.006 282.826C267.732 282.041 268.804 281.58 269.885 281.58C270.966 281.58 272.039 282.04 272.765 282.826C273.504 283.6 273.874 284.685 273.778 285.706C273.689 284.685 273.219 283.746 272.509 283.082C271.797 282.419 270.846 282.038 269.885 282.044C268.925 282.038 267.973 282.418 267.261 283.082C266.551 283.746 266.081 284.685 265.992 285.706Z" fill="#F1F8D1"/>
<path d="M180.126 312.424C189.886 312.424 197.798 304.512 197.798 294.752C197.798 284.992 189.886 277.08 180.126 277.08C170.366 277.08 162.454 284.992 162.454 294.752C162.454 304.512 170.366 312.424 180.126 312.424Z" fill="#aaaaaa" stroke="black" stroke-miterlimit="10"/>
<path d="M163.847 294.752C163.772 292.62 164.16 290.468 164.934 288.46C165.721 286.456 166.915 284.604 168.429 283.055C169.939 281.501 171.773 280.263 173.773 279.413C175.776 278.567 177.951 278.136 180.126 278.126C182.301 278.135 184.476 278.568 186.48 279.412C188.479 280.262 190.314 281.501 191.824 283.055C193.338 284.604 194.533 286.456 195.319 288.46C196.093 290.468 196.481 292.62 196.405 294.752C196.281 290.483 194.447 286.363 191.44 283.439C188.444 280.502 184.304 278.803 180.126 278.821C175.949 278.802 171.808 280.501 168.812 283.438C165.805 286.362 163.971 290.483 163.847 294.752Z" fill="#F1F8D1"/>
<path d="M172.14 299.342H169.289C168.294 299.342 167.488 298.535 167.488 297.541V294.752V291.963C167.488 290.969 168.294 290.162 169.289 290.162H172.14C172.572 290.162 172.989 290.318 173.316 290.599L176.549 293.388C177.382 294.106 177.382 295.397 176.549 296.115L173.316 298.904C172.989 299.187 172.572 299.342 172.14 299.342Z" fill="#8D615F" stroke="black" stroke-miterlimit="10"/>
<path d="M169.289 290.859C170.106 290.769 170.923 290.709 171.74 290.678C171.947 290.677 172.135 290.64 172.39 290.68C172.626 290.719 172.862 290.836 173.035 290.987L173.971 291.778C174.587 292.315 175.199 292.856 175.794 293.417C175.945 293.561 176.088 293.69 176.244 293.846C176.402 294.016 176.512 294.228 176.553 294.45C176.633 294.895 176.445 295.363 176.095 295.589C176.372 295.284 176.464 294.855 176.333 294.507C176.275 294.332 176.169 294.179 176.033 294.066L175.557 293.692C174.914 293.186 174.289 292.66 173.668 292.13L172.748 291.319C172.619 291.195 172.478 291.118 172.312 291.079C172.165 291.044 171.941 291.055 171.74 291.04C170.923 291.009 170.106 290.949 169.289 290.859Z" fill="#F1F8D1"/>
<path d="M188.113 290.162H190.964C191.958 290.162 192.765 290.969 192.765 291.963V294.752V297.541C192.765 298.535 191.958 299.342 190.964 299.342H188.113C187.681 299.342 187.263 299.187 186.936 298.905L183.703 296.116C182.87 295.398 182.87 294.107 183.703 293.389L186.936 290.6C187.263 290.317 187.681 290.162 188.113 290.162Z" fill="#8D615F" stroke="black" stroke-miterlimit="10"/>
<path d="M184.158 295.588C183.869 295.376 183.692 295.003 183.72 294.625C183.733 294.437 183.791 294.25 183.891 294.085C183.992 293.915 184.144 293.792 184.267 293.672L185.845 292.226C186.108 291.984 186.371 291.744 186.639 291.508L187.038 291.152L187.238 290.975C187.312 290.907 187.404 290.842 187.496 290.792C187.684 290.689 187.898 290.636 188.112 290.635L188.647 290.632L189.717 290.627L190.787 290.632C190.948 290.631 191.188 290.628 191.387 290.705C191.589 290.776 191.777 290.891 191.921 291.05C192.065 291.207 192.176 291.396 192.228 291.603C192.256 291.706 192.272 291.811 192.274 291.917C192.276 292.02 192.272 292.099 192.271 292.192C192.268 292.548 192.258 292.905 192.247 293.261L192.182 295.401C192.143 296.114 192.12 296.827 192.068 297.54C192.015 296.827 191.992 296.114 191.954 295.401L191.889 293.261C191.877 292.905 191.868 292.548 191.864 292.192C191.862 292.106 191.863 292.006 191.858 291.931C191.856 291.859 191.842 291.788 191.821 291.719C191.782 291.58 191.702 291.456 191.603 291.354C191.503 291.251 191.377 291.175 191.244 291.129C191.105 291.08 190.98 291.084 190.787 291.085L189.717 291.091L188.648 291.085L188.113 291.082C187.97 291.082 187.829 291.116 187.7 291.179C187.636 291.213 187.579 291.249 187.519 291.3L187.314 291.472L186.904 291.815C186.631 292.045 186.355 292.27 186.077 292.494L184.415 293.842C184.271 293.957 184.131 294.05 184.036 294.182C183.937 294.313 183.87 294.471 183.842 294.637C183.788 294.971 183.902 295.337 184.158 295.588Z" fill="#F1F8D1"/>
<path d="M184.716 302.738V305.589C184.716 306.584 183.909 307.39 182.915 307.39H180.126H177.337C176.343 307.39 175.536 306.584 175.536 305.589V302.738C175.536 302.307 175.692 301.889 175.973 301.562L178.762 298.329C179.48 297.496 180.771 297.496 181.489 298.329L184.278 301.562C184.561 301.889 184.716 302.306 184.716 302.738Z" fill="#8D615F" stroke="black" stroke-miterlimit="10"/>
<path d="M175.537 286.766V283.915C175.537 282.92 176.343 282.114 177.338 282.114H180.127H182.915C183.91 282.114 184.716 282.92 184.716 283.915V286.766C184.716 287.198 184.561 287.615 184.279 287.942L181.491 291.175C180.772 292.008 179.482 292.008 178.763 291.175L175.975 287.942C175.692 287.615 175.537 287.198 175.537 286.766Z" fill="#8D615F" stroke="black" stroke-miterlimit="10"/>
<path d="M176.233 286.766C176.181 286.151 176.158 285.537 176.12 284.922L176.082 284C176.049 283.676 176.164 283.292 176.405 283.033C176.639 282.764 177.005 282.603 177.361 282.607L178.283 282.591L180.126 282.578L181.97 282.59L182.892 282.607C183.248 282.603 183.615 282.763 183.849 283.033C184.09 283.292 184.205 283.676 184.172 284L184.134 284.922C184.095 285.537 184.073 286.151 184.02 286.766C183.967 286.151 183.945 285.537 183.906 284.922L183.868 284C183.869 283.711 183.773 283.467 183.586 283.282C183.401 283.099 183.151 283.004 182.892 283.014L181.97 283.03L180.127 283.042L178.283 283.029L177.362 283.013C177.102 283.004 176.853 283.098 176.668 283.281C176.481 283.467 176.384 283.711 176.385 284.001L176.347 284.922C176.308 285.537 176.285 286.151 176.233 286.766Z" fill="#F1F8D1"/>
<path d="M180.963 298.783C181.962 299.662 182.854 300.633 183.72 301.626C183.823 301.755 183.936 301.86 184.049 302.042C184.151 302.212 184.217 302.405 184.232 302.602C184.24 302.706 184.233 302.793 184.231 302.871L184.223 303.118C184.218 303.283 184.21 303.448 184.2 303.613C184.166 304.272 184.116 304.931 184.019 305.589C183.922 304.93 183.872 304.271 183.838 303.613C183.828 303.448 183.82 303.283 183.815 303.118L183.807 302.871C183.804 302.785 183.804 302.707 183.794 302.647C183.776 302.517 183.733 302.389 183.662 302.279C183.601 302.179 183.473 302.054 183.368 301.929C182.514 300.926 181.685 299.901 180.963 298.783Z" fill="#F1F8D1"/>
<rect x="178" y="224" width="1" height="26" fill="black"/>
<rect x="267" y="224" width="1" height="26" fill="black"/>
</svg>
