<svg width="400" height="400" viewBox="0 0 400 400" fill="none" xmlns="http://www.w3.org/2000/svg">
<path d="M0 200C4.63719e-06 146.957 21.0714 96.0859 58.5786 58.5786C96.0859 21.0714 146.957 5.69072e-06 200 0C253.043 -5.69072e-06 303.914 21.0714 341.421 58.5786C378.929 96.0859 400 146.957 400 200L200 200L0 200Z" fill="#B84038"/>
<path d="M400 200C400 253.043 378.929 303.914 341.421 341.421C303.914 378.929 253.043 400 200 400C146.957 400 96.0859 378.929 58.5786 341.421C21.0714 303.914 -6.32535e-07 253.043 0 200L200 200L400 200Z" fill="white"/>
<circle cx="199.815" cy="199.815" r="92.8151" fill="#575656"/>
<rect y="193.179" width="400" height="16.553" fill="#575656"/>
<circle cx="200" cy="200" r="67" fill="white"/>
<path d="M98.2016 318.099L103.57 327.885C96.9708 333.439 89.306 335.051 80.5755 332.719C66.698 328.97 61.3852 320.778 64.637 308.142C68.4594 294.392 76.5585 289.175 88.9344 292.491C98.7168 295.323 103.376 301.141 102.913 309.944L81.1468 319.521C88.1951 322.288 93.88 321.814 98.2016 318.099ZM76.3673 313.698L91.9263 307.178C88.9213 302.725 85.0693 301.307 80.3704 302.924C75.8584 305.346 74.5241 308.938 76.3673 313.698Z" fill="#B84038"/>
<path d="M149.276 304.215L130.612 348.64L120.321 347.924L113.405 299.202L126.047 298.596L126.81 328.121L141.873 301.79L149.276 304.215Z" fill="#B84038"/>
<path d="M187.542 330.618L194.805 339.092C189.488 345.883 182.317 349.035 173.294 348.546C158.942 347.727 152.06 340.801 152.647 327.766C153.564 313.524 160.419 306.755 173.213 307.459C183.368 308.221 189.123 312.958 190.478 321.669L171.142 335.512C178.609 336.772 184.075 335.141 187.542 330.618ZM165.269 330.795L179.157 321.219C175.302 317.477 171.24 316.88 166.974 319.428C163.056 322.726 162.487 326.515 165.269 330.795Z" fill="#B84038"/>
<path d="M204.889 354.31L203.852 313.803L200.762 313.803L200.422 307.093L213.831 306.961L224.921 332.839L225.521 303.787L235.915 302.047L235.276 361.179L224.21 359.706L213.799 334.107L214.849 354.822L204.889 354.31Z" fill="#B84038"/>
<path d="M242.174 317.238L240.24 305.205L283.1 295.191L284.855 308.321L268.333 312.361L277.263 348.472L262.312 352.932L256.981 314.344L242.174 317.238Z" fill="#B84038"/>
<path d="M302.808 341.114L306.881 330.535C315.333 333.131 320.842 332.139 323.407 327.561C325.633 323.32 323.04 319.973 315.628 317.52C309.172 316.369 303.728 314.437 299.297 311.722C294.925 309.803 293.362 305.251 294.608 298.066C297.044 292.442 302.637 289.372 311.387 288.858C317.851 288.385 323.246 289.709 327.574 292.831L324.616 301.438C315.277 298.278 309.276 297.987 306.615 300.565C306.023 303.784 311.373 306.594 322.663 308.995C334.523 312.374 337.887 321.02 332.756 334.935C328.72 344.139 318.738 346.199 302.808 341.114Z" fill="#B84038"/>
<path d="M126.535 57.5889L122.419 105.599L112.405 108.079L90.8583 63.8362L102.703 59.3769L112.497 87.2397L118.745 57.5554L126.535 57.5889Z" fill="white"/>
<path d="M151.389 68.4735L162.905 68.3461L166.833 101.726L154.863 102.951L151.389 68.4735ZM155.187 53.3661C157.035 52.972 158.712 53.1677 160.217 53.9531C161.748 54.7363 162.655 55.8607 162.938 57.3262C163.247 58.7895 162.842 60.1704 161.726 61.4687C160.635 62.7648 159.151 63.5981 157.275 63.9685C155.425 64.3366 153.735 64.1421 152.206 63.3848C150.701 62.5994 149.794 61.475 149.486 60.0117C149.203 58.5461 149.607 57.1653 150.698 55.8692C151.815 54.5709 153.311 53.7365 155.187 53.3661Z" fill="white"/>
<path d="M218.507 74.5706L226.282 82.5775C221.397 89.6861 214.436 93.2766 205.4 93.3492C191.025 93.4231 183.726 86.9372 183.503 73.8913C183.534 59.6201 189.955 52.4385 202.767 52.3466C212.95 52.4765 218.988 56.8465 220.882 65.4566L202.443 80.4736C209.973 81.2682 215.328 79.3005 218.507 74.5706ZM196.288 76.1302L209.555 65.7102C205.474 62.2156 201.384 61.872 197.284 64.6796C193.578 68.2144 193.246 72.0312 196.288 76.1302Z" fill="white"/>
<path d="M280.437 80.596L274.406 100.791L264.106 101.017L252.729 53.1334L265.265 51.3723L268.736 80.6889L277.602 52.4992L285.763 53.0326L291.464 83.0964L299.895 49.8152L312.101 53.2875L295.822 104.257L285.635 102.608L280.437 80.596Z" fill="white"/>
</svg>
