<svg width="2491" height="1082" viewBox="0 0 2491 1082" fill="none" xmlns="http://www.w3.org/2000/svg">
<g clip-path="url(#clip0_896_89)">
<path d="M0 80C0 35.8172 35.8172 0 80 0H2411C2455.18 0 2491 35.8172 2491 80V1082H0V80Z" fill="#8D061A"/>
<g filter="url(#filter0_d_896_89)">
<path d="M75 169C75 124.817 110.817 89 155 89H2336C2380.18 89 2416 124.817 2416 169V1027H75V169Z" fill="#88091B"/>
</g>
<g filter="url(#filter1_i_896_89)">
<path d="M2490.5 376C2441.19 376 2392.36 366.287 2346.8 347.417C2301.24 328.546 2259.85 300.887 2224.98 266.019C2190.11 231.15 2162.45 189.755 2143.58 144.198C2124.71 98.6398 2115 49.8113 2115 0.499969H2159.2C2159.2 44.0063 2167.77 87.0865 2184.42 127.281C2201.07 167.476 2225.48 203.997 2256.24 234.761C2287 265.525 2323.52 289.928 2363.72 306.577C2403.91 323.226 2446.99 331.795 2490.5 331.795L2490.5 376Z" fill="#4E0D15"/>
</g>
<g filter="url(#filter2_i_896_89)">
<path d="M375 0.500031C375 49.8114 365.287 98.6399 346.417 144.198C327.546 189.755 299.887 231.15 265.019 266.019C230.15 300.887 188.755 328.546 143.198 347.417C97.6398 366.287 48.8113 376 -0.500031 376V331.795C43.0063 331.795 86.0865 323.226 126.281 306.577C166.476 289.928 202.997 265.525 233.761 234.761C264.525 203.997 288.928 167.476 305.577 127.281C322.226 87.0866 330.795 44.0063 330.795 0.5L375 0.500031Z" fill="#4E0D15"/>
</g>
<g filter="url(#filter3_i_896_89)">
<path d="M2491 712C2397.5 712 2304.91 693.583 2218.53 657.802C2132.15 622.021 2053.65 569.575 1987.54 503.46C1921.42 437.344 1868.98 358.854 1833.2 272.47C1797.42 186.086 1779 93.5003 1779 -0.000915527L1826.49 -0.000854492C1826.49 87.2641 1843.68 173.675 1877.07 254.297C1910.47 334.919 1959.41 408.174 2021.12 469.88C2082.82 531.586 2156.08 580.533 2236.7 613.928C2317.32 647.323 2403.74 664.511 2491 664.511L2491 712Z" fill="#4E0D15"/>
</g>
<g filter="url(#filter4_i_896_89)">
<path d="M712 6.10352e-05C712 93.5013 693.583 186.087 657.802 272.471C622.021 358.855 569.575 437.345 503.46 503.46C437.344 569.576 358.854 622.021 272.47 657.802C186.086 693.584 93.5003 712 -0.000915527 712L-0.000854492 664.511C87.2641 664.511 173.675 647.323 254.297 613.929C334.919 580.534 408.174 531.586 469.88 469.881C531.586 408.175 580.533 334.92 613.928 254.298C647.323 173.675 664.511 87.265 664.511 0L712 6.10352e-05Z" fill="#4E0D15"/>
</g>
<path d="M807.327 496.489L901.972 456.998L919.393 495.642L787.555 550.14L717.416 420.408L706.102 428.463L688.468 385.489L787.895 318.887L808.271 356.241L752.301 395.042L766.746 421.915L821.968 383.36L839.211 414.094L783.952 454.395L807.327 496.489Z" fill="#450C13"/>
<path d="M822.414 367.012L874.052 352.767L915.136 404.24L918.79 340.036L967.371 329.346L958.57 465.832L913.956 478.626L822.414 367.012Z" fill="#450C13"/>
<path d="M1087.21 366.967L1115.66 390.462C1114.83 396.188 1111.36 401.955 1105.25 407.763C1099.2 413.559 1091.62 418.653 1082.52 423.044C1073.49 427.487 1064.21 430.619 1054.68 432.44C1046.24 434.054 1038.48 434.377 1031.41 433.41C1024.39 432.43 1018.66 430.013 1014.21 426.157C1006.52 419.541 1001.51 410.158 999.188 398.008C997.354 388.416 997.278 378.654 998.959 368.722C1000.69 358.714 1003.15 351.482 1006.35 347.028C1010.17 341.723 1014.52 337.081 1019.39 333.1C1024.33 329.108 1029.6 325.814 1035.2 323.218C1040.8 320.623 1046.71 318.733 1052.91 317.547C1061.03 315.995 1068.99 315.833 1076.78 317.062C1084.62 318.214 1091.76 320.727 1098.2 324.6L1057.55 397.492C1062.22 396.6 1066.45 394.797 1070.24 392.084C1074.08 389.295 1077.42 385.774 1080.25 381.521C1083.07 377.204 1085.39 372.353 1087.21 366.967ZM1056.37 349.696C1052.93 348.696 1049.58 348.508 1046.32 349.131C1042.87 349.791 1039.64 351.136 1036.65 353.166C1033.72 355.184 1031.77 357.281 1030.79 359.456C1027.81 365.329 1026.9 371.336 1028.07 377.475C1028.5 379.713 1029.13 381.812 1029.97 383.773C1030.81 385.734 1032.12 388.401 1033.89 391.774L1056.37 349.696Z" fill="#450C13"/>
<path d="M1145.53 301.294C1152.55 298.353 1158.62 296.072 1163.72 294.45C1168.82 292.763 1173.73 291.742 1178.47 291.388C1184.84 290.912 1190.52 291.89 1195.54 294.323C1201.56 297.201 1208.22 302.384 1215.5 309.869C1222.79 317.354 1227.49 324.445 1229.63 331.14C1234.1 344.712 1236.73 356.659 1237.5 366.981C1237.91 372.435 1237.98 378.207 1237.72 384.298C1237.45 390.325 1236.92 398.101 1236.13 407.626L1195.61 413.105C1195.49 409.849 1195.21 405.17 1194.75 399.067C1192.85 373.618 1187.72 352.228 1179.38 334.899C1176.15 328.415 1173.24 325.271 1170.64 325.465C1167.27 325.718 1163.88 330.671 1160.49 340.326C1159.69 342.671 1159.07 345.329 1158.64 348.299C1158.27 351.264 1158.06 354.577 1158.01 358.237C1158.02 361.892 1158.21 366.186 1158.58 371.121C1159.33 381.119 1160.86 393.767 1163.18 409.067L1115.78 418.194C1114.58 412.539 1113.44 406.911 1112.37 401.312C1111.29 395.712 1110.38 390.525 1109.64 385.749C1108.95 380.904 1108.39 375.69 1107.98 370.107C1107.8 367.705 1107.67 364.222 1107.59 359.658L1101.59 303.014L1139.49 295.282L1145.53 301.294Z" fill="#450C13"/>
<path d="M1264.21 237.722L1307.82 220.724L1303.74 286.225L1335.49 288.657L1333.54 326.204L1300.55 324.882C1298.9 334.053 1297.87 342.703 1297.45 350.83C1297.09 357.592 1297.19 363.203 1297.74 367.665C1298.21 371.34 1299.69 374.22 1302.18 376.305C1304.68 378.391 1307.66 379.523 1311.1 379.702C1314.94 379.902 1318.35 378.938 1321.33 376.811C1324.37 374.687 1325.99 371.642 1326.2 367.676C1326.23 367.091 1326.16 365.947 1325.99 364.243L1358.96 345.127C1360.19 347.734 1361.66 352.08 1363.36 358.166C1365.13 364.256 1365.84 370.844 1365.47 377.931C1365.02 386.448 1362.38 394.036 1357.54 400.695C1352.69 407.353 1344.75 412.188 1333.71 415.2C1325.97 417.276 1318.72 418.138 1311.96 417.786C1301.75 417.256 1292.86 414.545 1285.3 409.654C1277.79 404.765 1271.64 399.035 1266.83 392.461C1264.57 389.411 1262.94 384.469 1261.92 377.636C1260.98 370.807 1260.5 363.709 1260.49 356.342C1260.48 348.974 1260.67 341.617 1261.05 334.271L1261.62 323.25L1232.81 322.633L1227.87 278.275L1264.12 282.603L1264.21 237.722Z" fill="#450C13"/>
<path d="M1475.04 298.835C1470.07 295.993 1466.02 294.281 1462.88 293.699C1458.53 292.892 1454.07 293.554 1449.5 295.687L1438.1 383.954C1449.78 381.288 1457.84 378.015 1462.27 374.135C1466.77 370.203 1469.68 366.804 1471.01 363.937C1471.91 362.648 1473.2 359.278 1474.87 353.828C1476.61 348.389 1478.11 342.245 1479.38 335.396C1481.05 326.434 1481.63 318.631 1481.14 311.985C1480.73 305.287 1478.7 300.903 1475.04 298.835ZM1515.98 288.551C1517.88 295.126 1519.21 301.831 1520 308.664C1520.86 315.445 1521.15 322.119 1520.85 328.687C1520.63 335.266 1519.94 341.66 1518.79 347.87C1516.72 359.008 1513.23 369.419 1508.32 379.103C1503.48 388.798 1497.52 397.195 1490.44 404.291C1483.38 411.323 1475.41 416.632 1466.53 420.217C1457.72 423.813 1448.41 425.297 1438.59 424.668L1397.23 424.346L1406.69 298.373C1406.25 298.29 1404.36 299.695 1401.05 302.589C1397.73 305.483 1395.84 306.889 1395.4 306.805C1394.17 305.584 1393.42 302.632 1393.17 297.949C1392.97 293.278 1392.76 286.022 1392.54 276.18C1392.37 266.35 1392 260.322 1391.42 258.095C1407.1 256.037 1421.74 254.747 1435.34 254.225C1448.96 253.639 1461.4 254.391 1472.67 256.48C1496.86 260.969 1511.3 271.659 1515.98 288.551Z" fill="#450C13"/>
<path d="M1601.61 415.753L1615.61 449.893C1612.18 454.551 1606.39 457.998 1598.26 460.234C1590.19 462.489 1581.11 463.404 1571.01 462.981C1560.95 462.638 1551.3 461.022 1542.04 458.131C1533.83 455.571 1526.84 452.194 1521.06 448.002C1515.33 443.829 1511.42 438.993 1509.32 433.494C1505.66 424.03 1505.67 413.394 1509.35 401.587C1512.26 392.264 1516.8 383.622 1522.97 375.658C1529.22 367.651 1534.81 362.437 1539.72 360.016C1545.6 357.144 1551.62 355.103 1557.8 353.893C1564.03 352.703 1570.23 352.285 1576.4 352.64C1582.56 352.996 1588.66 354.114 1594.69 355.996C1602.58 358.459 1609.67 362.071 1615.96 366.83C1622.33 371.547 1627.44 377.132 1631.29 383.586L1561.05 428.671C1565.59 430.087 1570.17 430.493 1574.79 429.889C1579.49 429.243 1584.1 427.713 1588.6 425.3C1593.13 422.825 1597.46 419.642 1601.61 415.753ZM1582.57 385.973C1580.01 383.469 1577.14 381.722 1573.97 380.733C1570.62 379.685 1567.14 379.35 1563.54 379.728C1560.01 380.125 1557.3 381.053 1555.41 382.51C1550.01 386.279 1546.37 391.146 1544.51 397.112C1543.83 399.288 1543.4 401.437 1543.21 403.562C1543.03 405.686 1542.92 408.654 1542.89 412.464L1582.57 385.973Z" fill="#450C13"/>
<path d="M1671.25 482.829L1637.09 500.875L1590.57 481.445L1661.73 442.887L1641.04 355.067L1688.79 379.346L1698.57 422.731L1737.6 401.532L1787.38 421.584L1707.61 463.739L1725.34 542.71L1680.03 520.394L1671.25 482.829Z" fill="#450C13"/>
<g clip-path="url(#clip1_896_89)">
<g filter="url(#filter5_d_896_89)">
<path d="M2067.65 1077.28C2009.26 906.26 1898.73 757.712 1751.51 652.413C1604.3 547.113 1427.75 490.329 1246.57 490.001C1065.4 489.674 888.647 545.82 741.047 650.587C593.446 755.354 482.377 903.502 423.374 1074.31L462.074 1087.6C518.298 924.839 624.136 783.67 764.784 683.837C905.432 584.005 1073.86 530.503 1246.5 530.815C1419.14 531.127 1587.37 585.237 1727.66 685.577C1867.94 785.916 1973.27 927.468 2028.9 1090.43L2067.65 1077.28Z" fill="#E6DCCF"/>
</g>
<path d="M2063 1408C2063 1184.16 1976.87 969.483 1823.56 811.202C1670.25 652.921 1462.31 564 1245.5 564C1028.69 564 820.751 652.921 667.44 811.202C514.129 969.482 428 1184.16 428 1408H631.273C631.274 1239.82 695.987 1078.52 811.176 959.597C926.366 840.673 1082.6 773.863 1245.5 773.863C1408.4 773.863 1564.63 840.673 1679.82 959.597C1795.01 1078.52 1859.73 1239.82 1859.73 1408H2063Z" fill="#2B2A2A"/>
<g filter="url(#filter6_d_896_89)">
<rect y="1045" width="462" height="46" fill="#E6DCCF"/>
</g>
<g filter="url(#filter7_d_896_89)">
<rect x="2029" y="1045" width="462" height="46" fill="#E6DCCF"/>
</g>
<ellipse cx="1236.5" cy="1391.5" rx="624.5" ry="620.5" fill="#E1FDFA"/>
</g>
</g>
<defs>
<filter id="filter0_d_896_89" x="27" y="45" width="2437" height="1034" filterUnits="userSpaceOnUse" color-interpolation-filters="sRGB">
<feFlood flood-opacity="0" result="BackgroundImageFix"/>
<feColorMatrix in="SourceAlpha" type="matrix" values="0 0 0 0 0 0 0 0 0 0 0 0 0 0 0 0 0 0 127 0" result="hardAlpha"/>
<feMorphology radius="24" operator="dilate" in="SourceAlpha" result="effect1_dropShadow_896_89"/>
<feOffset dy="4"/>
<feGaussianBlur stdDeviation="12"/>
<feComposite in2="hardAlpha" operator="out"/>
<feColorMatrix type="matrix" values="0 0 0 0 0.996078 0 0 0 0 0.054902 0 0 0 0 0.168627 0 0 0 1 0"/>
<feBlend mode="normal" in2="BackgroundImageFix" result="effect1_dropShadow_896_89"/>
<feBlend mode="normal" in="SourceGraphic" in2="effect1_dropShadow_896_89" result="shape"/>
</filter>
<filter id="filter1_i_896_89" x="2115" y="0.5" width="375.5" height="379.5" filterUnits="userSpaceOnUse" color-interpolation-filters="sRGB">
<feFlood flood-opacity="0" result="BackgroundImageFix"/>
<feBlend mode="normal" in="SourceGraphic" in2="BackgroundImageFix" result="shape"/>
<feColorMatrix in="SourceAlpha" type="matrix" values="0 0 0 0 0 0 0 0 0 0 0 0 0 0 0 0 0 0 127 0" result="hardAlpha"/>
<feMorphology radius="17" operator="erode" in="SourceAlpha" result="effect1_innerShadow_896_89"/>
<feOffset dy="4"/>
<feGaussianBlur stdDeviation="7.65"/>
<feComposite in2="hardAlpha" operator="arithmetic" k2="-1" k3="1"/>
<feColorMatrix type="matrix" values="0 0 0 0 0 0 0 0 0 0 0 0 0 0 0 0 0 0 0.25 0"/>
<feBlend mode="normal" in2="shape" result="effect1_innerShadow_896_89"/>
</filter>
<filter id="filter2_i_896_89" x="-0.5" y="0.5" width="375.5" height="379.5" filterUnits="userSpaceOnUse" color-interpolation-filters="sRGB">
<feFlood flood-opacity="0" result="BackgroundImageFix"/>
<feBlend mode="normal" in="SourceGraphic" in2="BackgroundImageFix" result="shape"/>
<feColorMatrix in="SourceAlpha" type="matrix" values="0 0 0 0 0 0 0 0 0 0 0 0 0 0 0 0 0 0 127 0" result="hardAlpha"/>
<feMorphology radius="17" operator="erode" in="SourceAlpha" result="effect1_innerShadow_896_89"/>
<feOffset dy="4"/>
<feGaussianBlur stdDeviation="7.65"/>
<feComposite in2="hardAlpha" operator="arithmetic" k2="-1" k3="1"/>
<feColorMatrix type="matrix" values="0 0 0 0 0 0 0 0 0 0 0 0 0 0 0 0 0 0 0.25 0"/>
<feBlend mode="normal" in2="shape" result="effect1_innerShadow_896_89"/>
</filter>
<filter id="filter3_i_896_89" x="1779" y="-0.000976562" width="712" height="716.001" filterUnits="userSpaceOnUse" color-interpolation-filters="sRGB">
<feFlood flood-opacity="0" result="BackgroundImageFix"/>
<feBlend mode="normal" in="SourceGraphic" in2="BackgroundImageFix" result="shape"/>
<feColorMatrix in="SourceAlpha" type="matrix" values="0 0 0 0 0 0 0 0 0 0 0 0 0 0 0 0 0 0 127 0" result="hardAlpha"/>
<feMorphology radius="17" operator="erode" in="SourceAlpha" result="effect1_innerShadow_896_89"/>
<feOffset dy="4"/>
<feGaussianBlur stdDeviation="7.65"/>
<feComposite in2="hardAlpha" operator="arithmetic" k2="-1" k3="1"/>
<feColorMatrix type="matrix" values="0 0 0 0 0 0 0 0 0 0 0 0 0 0 0 0 0 0 0.25 0"/>
<feBlend mode="normal" in2="shape" result="effect1_innerShadow_896_89"/>
</filter>
<filter id="filter4_i_896_89" x="-0.000976562" y="0" width="712.001" height="716" filterUnits="userSpaceOnUse" color-interpolation-filters="sRGB">
<feFlood flood-opacity="0" result="BackgroundImageFix"/>
<feBlend mode="normal" in="SourceGraphic" in2="BackgroundImageFix" result="shape"/>
<feColorMatrix in="SourceAlpha" type="matrix" values="0 0 0 0 0 0 0 0 0 0 0 0 0 0 0 0 0 0 127 0" result="hardAlpha"/>
<feMorphology radius="17" operator="erode" in="SourceAlpha" result="effect1_innerShadow_896_89"/>
<feOffset dy="4"/>
<feGaussianBlur stdDeviation="7.65"/>
<feComposite in2="hardAlpha" operator="arithmetic" k2="-1" k3="1"/>
<feColorMatrix type="matrix" values="0 0 0 0 0 0 0 0 0 0 0 0 0 0 0 0 0 0 0.25 0"/>
<feBlend mode="normal" in2="shape" result="effect1_innerShadow_896_89"/>
</filter>
<filter id="filter5_d_896_89" x="419.374" y="490" width="1652.27" height="608.432" filterUnits="userSpaceOnUse" color-interpolation-filters="sRGB">
<feFlood flood-opacity="0" result="BackgroundImageFix"/>
<feColorMatrix in="SourceAlpha" type="matrix" values="0 0 0 0 0 0 0 0 0 0 0 0 0 0 0 0 0 0 127 0" result="hardAlpha"/>
<feOffset dy="4"/>
<feGaussianBlur stdDeviation="2"/>
<feComposite in2="hardAlpha" operator="out"/>
<feColorMatrix type="matrix" values="0 0 0 0 0 0 0 0 0 0 0 0 0 0 0 0 0 0 0.25 0"/>
<feBlend mode="normal" in2="BackgroundImageFix" result="effect1_dropShadow_896_89"/>
<feBlend mode="normal" in="SourceGraphic" in2="effect1_dropShadow_896_89" result="shape"/>
</filter>
<filter id="filter6_d_896_89" x="-4" y="1045" width="470" height="54" filterUnits="userSpaceOnUse" color-interpolation-filters="sRGB">
<feFlood flood-opacity="0" result="BackgroundImageFix"/>
<feColorMatrix in="SourceAlpha" type="matrix" values="0 0 0 0 0 0 0 0 0 0 0 0 0 0 0 0 0 0 127 0" result="hardAlpha"/>
<feOffset dy="4"/>
<feGaussianBlur stdDeviation="2"/>
<feComposite in2="hardAlpha" operator="out"/>
<feColorMatrix type="matrix" values="0 0 0 0 0 0 0 0 0 0 0 0 0 0 0 0 0 0 0.25 0"/>
<feBlend mode="normal" in2="BackgroundImageFix" result="effect1_dropShadow_896_89"/>
<feBlend mode="normal" in="SourceGraphic" in2="effect1_dropShadow_896_89" result="shape"/>
</filter>
<filter id="filter7_d_896_89" x="2025" y="1045" width="470" height="54" filterUnits="userSpaceOnUse" color-interpolation-filters="sRGB">
<feFlood flood-opacity="0" result="BackgroundImageFix"/>
<feColorMatrix in="SourceAlpha" type="matrix" values="0 0 0 0 0 0 0 0 0 0 0 0 0 0 0 0 0 0 127 0" result="hardAlpha"/>
<feOffset dy="4"/>
<feGaussianBlur stdDeviation="2"/>
<feComposite in2="hardAlpha" operator="out"/>
<feColorMatrix type="matrix" values="0 0 0 0 0 0 0 0 0 0 0 0 0 0 0 0 0 0 0.25 0"/>
<feBlend mode="normal" in2="BackgroundImageFix" result="effect1_dropShadow_896_89"/>
<feBlend mode="normal" in="SourceGraphic" in2="effect1_dropShadow_896_89" result="shape"/>
</filter>
<clipPath id="clip0_896_89">
<rect width="2491" height="1082" fill="white"/>
</clipPath>
<clipPath id="clip1_896_89">
<rect width="2491" height="601" fill="white" transform="translate(0 490)"/>
</clipPath>
</defs>
</svg>
