<?xml version="1.0" encoding="UTF-8" standalone="no"?>
<svg
   xmlns:dc="http://purl.org/dc/elements/1.1/"
   xmlns:cc="http://creativecommons.org/ns#"
   xmlns:rdf="http://www.w3.org/1999/02/22-rdf-syntax-ns#"
   xmlns:svg="http://www.w3.org/2000/svg"
   xmlns="http://www.w3.org/2000/svg"
   viewBox="0 0 500 500"
   height="500"
   width="500"
   xml:space="preserve"
   id="svg2"
   version="1.1"><metadata
     id="metadata8"><rdf:RDF><cc:Work
         rdf:about=""><dc:format>image/svg+xml</dc:format><dc:type
           rdf:resource="http://purl.org/dc/dcmitype/StillImage" /></cc:Work></rdf:RDF></metadata><defs
     id="defs6" /><g
     transform="matrix(1.3333333,0,0,-1.3333333,0,600)"
     id="g10"><g
       transform="scale(0.1)"
       id="g12"><path
         id="path14"
         style="fill:#364849;fill-opacity:1;fill-rule:nonzero;stroke:none"
         d="m 2403.18,3184.64 c 14.78,0.89 69.52,-19.31 114.16,-39.23 17.33,-7.73 25.38,-26.64 19.11,-45.37 l -25.87,-77.35 c -84.43,8.34 -147.76,71.27 -143.16,86.48 4.61,15.24 17.82,74.39 35.76,75.47" /><path
         id="path16"
         style="fill:#364849;fill-opacity:1;fill-rule:nonzero;stroke:none"
         d="m 2463.03,3244.36 c 5.97,-4.01 15.05,-54.65 69.43,-107.01 l -72.77,-1.32 c -13.98,14.18 -34.62,87.47 -29.86,99.37 5.32,13.3 24.54,14.78 33.2,8.96" /><path
         id="path18"
         style="fill:#364849;fill-opacity:1;fill-rule:nonzero;stroke:none"
         d="m 2359.95,3239.85 c 5.47,-2.59 59.3,-40.17 99.99,-78.72 l -44.45,-13.54 c 0,0 -74.86,65.1 -75.98,76.2 -1.1,11.06 12.51,19.82 20.44,16.06" /><path
         id="path20"
         style="fill:#364849;fill-opacity:1;fill-rule:nonzero;stroke:none"
         d="m 2325.18,3197.63 c 6.43,1.02 53.64,-30.81 99.68,-63.09 l -41.69,-17.57 c 0,0 -70.07,48.85 -72.82,59.22 -2.72,10.31 8.44,20.43 14.83,21.44" /><path
         id="path22"
         style="fill:#364849;fill-opacity:1;fill-rule:nonzero;stroke:none"
         d="m 2444.56,3040.55 c -76.02,15.95 -143.67,85.15 -144.4,92.67 -0.74,7.49 3.28,26.56 12.68,21.55 9.53,-5.07 52.01,-40.23 65.29,-42.31 13.49,-2.11 101.25,-6.34 101.92,-8.42 0.66,-2.08 -35.49,-63.49 -35.49,-63.49" /><path
         id="path24"
         style="fill:#384142;fill-opacity:1;fill-rule:nonzero;stroke:none"
         d="m 3121.71,3879.27 c 77.63,36.07 161.85,36.14 232.07,-16.28 65.24,-48.69 86.91,-105.19 46.97,-183.88 -8.94,-17.6 13.22,-1.38 17.17,6.39 38.33,75.51 30.9,137.14 -32.07,191.32 -73.15,62.93 -169.42,72.82 -254.84,33.11 -6.94,-3.22 -17.97,-34.7 -9.3,-30.66" /><path
         id="path26"
         style="fill:#384142;fill-opacity:1;fill-rule:nonzero;stroke:none"
         d="m 2829.76,3642.33 c 38.2,110.19 245.2,221.55 330.34,97.69 3.67,-5.34 24.66,16.02 18.91,24.38 -52.64,76.58 -155.23,57.46 -227.53,22.1 -66.44,-32.5 -117.66,-86.01 -141.96,-156.09 -5.11,-14.74 17.68,4.55 20.24,11.92" /><path
         id="path28"
         style="fill:#384142;fill-opacity:1;fill-rule:nonzero;stroke:none"
         d="m 3200.01,3897.8 -21.08,-10.81 24.61,-47.6 21.07,10.82 -24.6,47.59" /><path
         id="path30"
         style="fill:#384142;fill-opacity:1;fill-rule:nonzero;stroke:none"
         d="m 2976.23,3801.77 -21.58,-9.77 22.27,-48.74 21.58,9.78 -22.27,48.73" /><path
         id="path32"
         style="fill:#5b6666;fill-opacity:1;fill-rule:nonzero;stroke:none"
         d="m 3005.34,3820.39 c 4.79,-27.9 -12.98,-53.33 -39.68,-56.8 -26.71,-3.46 -52.23,16.34 -57.02,44.24 -4.79,27.9 12.98,53.33 39.68,56.8 26.71,3.47 52.23,-16.33 57.02,-44.24" /><path
         id="path34"
         style="fill:#dbd2af;fill-opacity:1;fill-rule:nonzero;stroke:none"
         d="m 2993.59,3819.76 c 3,-17.52 -6.54,-33.28 -21.32,-35.2 -14.77,-1.92 -29.18,10.73 -32.18,28.25 -3,17.52 6.55,33.28 21.32,35.2 14.77,1.92 29.18,-10.73 32.18,-28.25" /><path
         id="path36"
         style="fill:#384142;fill-opacity:1;fill-rule:nonzero;stroke:none"
         d="m 2989.97,3808.79 c -3.13,18.33 -18.2,31.55 -33.65,29.55 -7.11,-0.93 -12.97,-5 -17.02,-10.82 2.66,11.62 10.81,20.51 21.86,21.94 15.45,2.01 30.52,-11.21 33.66,-29.54 1.69,-9.9 -0.53,-19.17 -5.29,-26 1.06,4.63 1.34,9.65 0.44,14.87" /><path
         id="path38"
         style="fill:#384142;fill-opacity:1;fill-rule:nonzero;stroke:none"
         d="m 2972.06,3812.87 c 0.75,-4.36 -1.63,-8.28 -5.31,-8.76 -3.67,-0.48 -7.26,2.67 -8.01,7.03 -0.75,4.36 1.63,8.28 5.3,8.76 3.68,0.48 7.27,-2.67 8.02,-7.03" /><path
         id="path40"
         style="fill:#364849;fill-opacity:1;fill-rule:nonzero;stroke:none"
         d="m 4343.22,1692.45 c -8.18,33.82 -22.41,69.31 -57.54,84.23 -11.75,-11.73 -12.6,-26.35 -7,-34.37 6.47,-9.26 30.18,-14.22 64.54,-49.86" /><path
         id="path42"
         style="fill:#364849;fill-opacity:1;fill-rule:nonzero;stroke:none"
         d="m 4372.13,1727.61 c -31.81,5 -66.22,15.68 -86.01,48.29 8.37,12.33 21.32,14.4 29.53,9.69 9.48,-5.45 18.26,-27.88 56.48,-57.98" /><path
         id="path44"
         style="fill:#364849;fill-opacity:1;fill-rule:nonzero;stroke:none"
         d="m 4432.05,2167.5 c -27.21,-30.66 -58.39,-46.49 -95.78,-39.14 9.34,19.18 14.1,41.12 23.5,45.97 10.85,5.59 28.26,-7.48 72.28,-6.83" /><path
         id="path46"
         style="fill:#5e787a;fill-opacity:1;fill-rule:nonzero;stroke:none"
         d="m 2764.56,3411.91 c 13.18,-257.86 60.44,-429.63 60.44,-429.63 l 158.52,-195.78 c 0,0 135.65,267.08 22.08,510.19 -62.3,133.34 -248.33,257.86 -241.04,115.22" /><path
         id="path48"
         style="fill:#485e60;fill-opacity:1;fill-rule:nonzero;stroke:none"
         d="m 2855.54,3459.6 c 29.9,-53.85 51.83,-148.05 55.78,-255.98 4.31,-117.62 -13.85,-220.58 -44.11,-273.48 l 116.31,-143.64 c 0,0 135.65,267.08 22.07,510.19 -31.82,68.12 -95.91,133.84 -150.05,162.91" /><path
         id="path50"
         style="fill:#5e787a;fill-opacity:1;fill-rule:nonzero;stroke:none"
         d="m 2983.52,2786.5 c -223.46,5.48 -510.19,249.25 -510.19,249.25 l 18.31,104.88 c 0,0 305.82,-23.68 422.66,-88.41 116.83,-64.74 69.22,-265.72 69.22,-265.72" /><path
         id="path52"
         style="fill:#485e60;fill-opacity:1;fill-rule:nonzero;stroke:none"
         d="m 2926.96,3062.07 c -3.2,1.77 -19.25,-6.36 -22.72,-4.65 4.55,-10.13 6.2,-20.1 4.09,-29.59 -12.16,-54.84 -137.56,-73.69 -280.09,-42.1 -59.82,13.26 -112.98,33.33 -153.83,56.17 l -1.08,-6.15 c 0,0 286.73,-243.77 510.19,-249.25 0,0 60.27,210.83 -56.56,275.57" /><path
         id="path54"
         style="fill:#364849;fill-opacity:1;fill-rule:nonzero;stroke:none"
         d="m 2578.33,3151.73 -83.84,25.6 -37.94,-132.6 90.74,-74.46 31.04,181.46" /><path
         id="path56"
         style="fill:#ffc85a;fill-opacity:1;fill-rule:nonzero;stroke:none"
         d="m 3019.7,3401.2 c -79.57,91.06 -186.28,141.16 -238.34,111.91 -52.07,-29.25 -29.77,-126.78 49.8,-217.84 79.57,-91.05 186.28,-141.16 238.34,-111.91 52.06,29.25 29.77,126.78 -49.8,217.84" /><path
         id="path58"
         style="fill:#ffb64d;fill-opacity:1;fill-rule:nonzero;stroke:none"
         d="m 2944.49,3740.11 c -76.34,-41.25 -108.4,-136.59 -71.6,-212.97 l 284.25,-589.9 c 36.8,-76.37 128.52,-104.84 204.87,-63.6 76.34,41.25 108.4,136.6 71.6,212.97 l -284.25,589.9 c -36.8,76.37 -128.52,104.84 -204.87,63.6" /><path
         id="path60"
         style="fill:#ffc85a;fill-opacity:1;fill-rule:nonzero;stroke:none"
         d="m 3187.67,3846.13 c -76.34,-41.25 -106.09,-135.08 -66.45,-209.57 l 306.23,-575.41 c 39.64,-74.5 133.67,-101.45 210.01,-60.21 76.35,41.25 106.1,135.07 66.45,209.57 l -306.23,575.41 c -39.64,74.49 -133.67,101.45 -210.01,60.21" /><path
         id="path62"
         style="fill:#ffb64d;fill-opacity:1;fill-rule:nonzero;stroke:none"
         d="m 3633,3317.2 c -76.34,-41.24 -170.37,-14.29 -210.01,60.21 l -246.01,462.24 c -68.28,-43.94 -93.48,-132.21 -55.76,-203.09 l 306.23,-575.41 c 39.64,-74.5 133.67,-101.45 210.01,-60.21 76.35,41.25 106.1,135.07 66.45,209.57 l -60.22,113.16 c -3.48,-2.24 -6.98,-4.47 -10.69,-6.47" /><path
         id="path64"
         style="fill:#ffdb76;fill-opacity:1;fill-rule:nonzero;stroke:none"
         d="m 3259.63,3805.96 143.91,-270.42 c 25.05,-47.07 76.02,-71.42 127,-65.73 l -143.91,270.42 c -25.05,47.07 -76.03,71.43 -127,65.73" /><path
         id="path66"
         style="fill:#384142;fill-opacity:1;fill-rule:nonzero;stroke:none"
         d="m 3625.18,3341.82 -225.19,-115.99 25.3,-49.16 226.35,117.12 c 7.21,3.73 9.8,12.74 5.68,19.73 l -13.5,22.91 c -3.8,6.45 -11.98,8.82 -18.64,5.39" /><path
         id="path68"
         style="fill:#384142;fill-opacity:1;fill-rule:nonzero;stroke:none"
         d="M 3453.18,3680.99 3227.99,3565 l 25.3,-49.16 226.35,117.12 c 7.21,3.73 9.8,12.74 5.68,19.73 l -13.5,22.91 c -3.8,6.45 -11.98,8.82 -18.64,5.39" /><path
         id="path70"
         style="fill:#556c70;fill-opacity:1;fill-rule:nonzero;stroke:none"
         d="m 3459.94,2086.78 c -194.3,234.63 -332.05,760.26 -332.05,760.26 0,0 225.94,178.73 320.25,49.82 98.08,-134.05 177.85,-649.15 177.85,-649.15 0,0 508.71,-134.7 765.24,-111.78 l 10.35,-13.62 c -301.67,-32.92 -689.26,-176.9 -941.64,-35.53" /><path
         id="path72"
         style="fill:#435b5e;fill-opacity:1;fill-rule:nonzero;stroke:none"
         d="m 3625.99,2247.71 c 0,0 -79.77,515.1 -177.85,649.16 -44.94,61.43 -107.73,57.4 -173.76,31.73 28.44,-158.37 275.84,-774.37 283.93,-881.58 247.63,-67.97 578.52,46.4 843.27,75.29 l -10.35,13.62 c -256.53,-22.92 -765.24,111.78 -765.24,111.78" /><path
         id="path74"
         style="fill:#3e4f4f;fill-opacity:1;fill-rule:nonzero;stroke:none"
         d="m 4379.63,2148.3 c 46.12,23.72 326.32,149.54 606.75,-134.04 0,0 -112.96,-106.4 -120.42,-242.54 0,0 -303.64,387.68 -463.55,350.83 -80.61,-18.58 -33.23,20.37 -22.78,25.75" /><path
         id="path76"
         style="fill:#556c70;fill-opacity:1;fill-rule:nonzero;stroke:none"
         d="m 3553.39,3005.46 c 171.45,-341.56 299.46,-664.17 299.46,-664.17 0,0 282.35,-358.6 472.52,-590.18 l -8.45,-17.16 c 0,0 -530.94,377.67 -680.52,564.8 -89.03,111.38 -279.58,343.45 -385.47,596.06 -102.58,244.72 242.32,230.47 302.46,110.65" /><path
         id="path78"
         style="fill:#435b5e;fill-opacity:1;fill-rule:nonzero;stroke:none"
         d="m 3383.9,3089.09 c 37.01,-187.47 198.23,-494.36 436.42,-808.02 172.52,-227.19 352.47,-414.53 503.44,-533.24 l 1.61,3.28 c -190.17,231.58 -472.52,590.18 -472.52,590.18 0,0 -128.01,322.61 -299.46,664.17 -24.94,49.68 -98.84,81.19 -169.49,83.63" /><path
         id="path80"
         style="fill:#3e4f4f;fill-opacity:1;fill-rule:nonzero;stroke:none"
         d="m 4304.16,1777 -5.99,-29.5 c 170.3,-248.94 361.88,-303.11 611.55,-391.31 0,0 48.2,184.18 224.87,305.32 0,0 -660.02,-32.93 -830.43,115.49" /><path
         id="path82"
         style="fill:#556c70;fill-opacity:1;fill-rule:nonzero;stroke:none"
         d="m 3176.2,3694.76 c -106.11,41.37 -423.42,-188.21 -395.77,-268.25 27.26,-78.89 285.41,-376.6 346.56,-561.25 123.12,96.07 204.85,142.91 391.18,176.52 -85.73,261.36 -238.5,612.65 -341.97,652.98" /><path
         id="path84"
         style="fill:#485e60;fill-opacity:1;fill-rule:nonzero;stroke:none"
         d="m 2827.68,3521.3 c -35.07,-37.23 -55.1,-72.05 -47.25,-94.79 8.95,-25.88 42.79,-75.37 86.31,-136.62 l 14.26,17.65 c -50.26,61.27 -58.55,150.42 -53.32,213.76" /><path
         id="path86"
         style="fill:#485e60;fill-opacity:1;fill-rule:nonzero;stroke:none"
         d="m 2863.09,3279.4 25.16,-21.79 c 163.29,156.29 302.77,193.72 302.77,193.72 l -19.24,36.66 c 0,0 -191.11,-91.31 -308.69,-208.59" /><path
         id="path88"
         style="fill:#435b5e;fill-opacity:1;fill-rule:nonzero;stroke:none"
         d="m 3185.47,3690.36 c -12.72,0.47 -23.89,-2.11 -33.05,-8.23 -66.1,-44.23 -5.52,-250.71 135.31,-461.2 51.12,-76.4 105.77,-142.74 157.82,-194.25 22.47,5.34 46.42,10.37 72.62,15.1 -83.21,253.67 -229.56,592.01 -332.7,648.58" /><path
         id="path90"
         style="fill:#ffc85a;fill-opacity:1;fill-rule:nonzero;stroke:none"
         d="m 2851.49,3297.5 25.16,-21.79 c 163.3,156.29 302.77,193.72 302.77,193.72 l -19.23,36.66 c 0,0 -191.11,-91.31 -308.7,-208.59" /><path
         id="path92"
         style="fill:#323f3f;fill-opacity:1;fill-rule:nonzero;stroke:none"
         d="m 2827.43,3293.47 21.55,16.06 c 3.43,2.55 9,1.32 12.44,-2.75 l 23.22,-27.46 c 3.43,-4.06 3.45,-9.4 0.03,-11.95 l -21.55,-16.05 c -3.42,-2.55 -9,-1.32 -12.44,2.75 l -23.22,27.46 c -3.43,4.06 -3.44,9.4 -0.03,11.94" /><path
         id="path94"
         style="fill:#ffb64d;fill-opacity:1;fill-rule:nonzero;stroke:none"
         d="m 2836.82,3287.78 12.89,9.63 c 2.05,1.53 5.53,0.6 7.78,-2.06 l 15.13,-17.99 c 2.23,-2.65 2.39,-6.04 0.35,-7.57 l -12.89,-9.62 c -2.05,-1.53 -5.53,-0.61 -7.78,2.06 l -15.13,17.98 c -2.23,2.66 -2.39,6.05 -0.35,7.57" /><path
         id="path96"
         style="fill:#323f3f;fill-opacity:1;fill-rule:nonzero;stroke:none"
         d="m 2843.73,3285.83 7.48,5.58 c 1.18,0.89 2.94,0.67 3.91,-0.49 l 6.54,-7.79 c 0.96,-1.15 0.79,-2.8 -0.4,-3.68 l -7.47,-5.58 c -1.19,-0.89 -2.94,-0.67 -3.91,0.49 l -6.54,7.79 c -0.97,1.15 -0.79,2.8 0.39,3.68" /><path
         id="path98"
         style="fill:#435b5e;fill-opacity:1;fill-rule:nonzero;stroke:none"
         d="m 3121.31,2852.73 20.38,-55.06 c 118.65,133.59 419.45,166.53 419.45,166.53 l -34.39,65.52 c -62.57,-12.33 -291.74,-63.92 -405.44,-176.99" /><path
         id="path100"
         style="fill:#ffc85a;fill-opacity:1;fill-rule:nonzero;stroke:none"
         d="m 3108.47,2860.42 17.12,-40.03 c 1.67,-3.89 6.67,-4.76 9.61,-1.71 130,134.7 425.17,183.68 425.17,183.68 l -33.83,65.94 c -62.83,-13.78 -287.09,-69.07 -411.46,-179.25 -8.12,-7.18 -10.87,-18.67 -6.61,-28.63" /><path
         id="path102"
         style="fill:#ffb64d;fill-opacity:1;fill-rule:nonzero;stroke:none"
         d="m 3265.97,2982.75 c 15.75,-0.99 31.76,-3.03 47.91,-6.4 23.24,-4.85 45.11,-12.08 65.51,-21 97.63,33.18 180.99,47.01 180.99,47.01 l -33.84,65.94 c -41.51,-9.1 -153.49,-36.35 -260.57,-85.55" /><path
         id="path104"
         style="fill:#415456;fill-opacity:1;fill-rule:nonzero;stroke:none"
         d="m 3013.1,3657.73 c -113.42,41.04 -109.84,121.16 -150.14,187.95 l -126.75,-139.25 c 0,0 97.28,-32.7 101.66,-174.93 65,9.82 120.03,44.82 175.23,126.23" /><path
         id="path106"
         style="fill:#556c70;fill-opacity:1;fill-rule:nonzero;stroke:none"
         d="m 2838.41,3597.08 c -70.25,-43.64 -271.76,122.3 -288.1,185.28 -21.95,84.58 110.36,250.83 232.07,158.63 89.26,-67.62 117,-166.24 108.13,-242.14 -5.45,-46.69 -24.75,-84.78 -52.1,-101.77" /><path
         id="path108"
         style="fill:#384142;fill-opacity:1;fill-rule:nonzero;stroke:none"
         d="m 2828.17,3900.8 -38.33,-70.01 55.89,-56.58 25.35,60.15 c -8.7,29.67 -42.91,66.44 -42.91,66.44" /><path
         id="path110"
         style="fill:#edb984;fill-opacity:1;fill-rule:nonzero;stroke:none"
         d="m 2825.56,3605.85 c -49.3,-28.18 -205.42,81.78 -217.69,117.03 -15.33,44.01 59.41,123.64 140.6,82.29 109.89,-55.97 126.61,-171.03 77.09,-199.32" /><path
         id="path112"
         style="fill:#e79b69;fill-opacity:1;fill-rule:nonzero;stroke:none"
         d="m 2803.05,3659.87 c 17.34,6.86 34.45,9.72 48.66,8.96 -3.38,45.19 -35.67,101.92 -103.24,136.34 -81.19,41.35 -155.93,-38.28 -140.6,-82.29 8.17,-23.47 80.15,-80.05 141.88,-106.93 6.48,16.07 26.45,33.29 53.3,43.92" /><path
         id="path114"
         style="fill:#e0dabf;fill-opacity:1;fill-rule:nonzero;stroke:none"
         d="m 2526.82,3701.9 c 6.11,22.34 189.44,170.44 212.18,177.27 22.73,6.83 146.33,-129.44 143.38,-146.26 -2.95,-16.82 -109.52,-56.6 -125.66,-66.76 -16.15,-10.17 -60.44,-81.72 -70.13,-87.81 -9.68,-6.1 -166.7,98.24 -159.77,123.56" /><path
         id="path116"
         style="fill:#384142;fill-opacity:1;fill-rule:nonzero;stroke:none"
         d="m 2779.12,3608.57 c -39.47,-52.53 -55.17,-126.61 -15.79,-185.72 41.91,-62.91 114.61,-59.82 171.38,-25.16 70.04,42.75 110.47,121.83 129.79,204.38 10.94,46.73 16.44,253.39 78.47,282.31 11.5,5.37 7.95,35.65 -11.04,25.85 -17.98,-9.27 -33.73,-25.74 -44.95,-44.44 -33.69,-56.14 -31.03,-130.56 -39.71,-194.44 -12.54,-92.33 -42.91,-189.26 -119.46,-240.73 -42.16,-28.35 -100.89,-43.27 -137.83,5.74 -36.48,48.41 -19.34,110.65 13.1,153.83 11.8,15.7 -12.18,34.06 -23.96,18.38" /><path
         id="path118"
         style="fill:#384142;fill-opacity:1;fill-rule:nonzero;stroke:none"
         d="m 2926.34,3400.45 c 21.26,40.87 -3.68,95.62 -23.66,129.13 -27.64,46.34 -69.68,79.3 -120.95,99.17 -17.18,6.66 -29.91,-20.65 -12.71,-27.32 39.31,-15.23 73.22,-38.86 97.31,-72.43 19.93,-27.77 52.07,-82.21 33.04,-118.78 -8.98,-17.28 17.99,-27.03 26.97,-9.77" /><path
         id="path120"
         style="fill:#384142;fill-opacity:1;fill-rule:nonzero;stroke:none"
         d="m 2828.19,3643.91 c -23.93,16.97 -58.34,15.33 -76.85,-3.68 -18.51,-19 -14.11,-48.17 9.82,-65.15 23.93,-16.97 58.34,-15.33 76.85,3.68 18.51,19.01 14.12,48.17 -9.82,65.15" /><path
         id="path122"
         style="fill:#5b6666;fill-opacity:1;fill-rule:nonzero;stroke:none"
         d="m 2812.68,3616.04 c -17.64,11.57 -41.94,10.87 -54.27,-1.54 -12.33,-12.42 -8.01,-31.86 9.64,-43.42 17.65,-11.57 41.95,-10.87 54.27,1.55 12.33,12.41 8.01,31.85 -9.64,43.41" /><path
         id="path124"
         style="fill:#384142;fill-opacity:1;fill-rule:nonzero;stroke:none"
         d="m 2807.89,3598.5 c -9.34,6.11 -22.17,5.75 -28.67,-0.81 -6.5,-6.55 -4.2,-16.82 5.14,-22.94 9.33,-6.11 22.17,-5.75 28.67,0.8 6.49,6.56 4.19,16.83 -5.14,22.95" /><path
         id="path126"
         style="fill:#5b6666;fill-opacity:1;fill-rule:nonzero;stroke:none"
         d="m 2804.02,3597.09 c -5.67,3.71 -13.46,3.49 -17.41,-0.49 -3.94,-3.98 -2.54,-10.21 3.12,-13.92 5.67,-3.72 13.46,-3.5 17.41,0.48 3.94,3.98 2.54,10.21 -3.12,13.93" /><path
         id="path128"
         style="fill:#598a99;fill-opacity:1;fill-rule:nonzero;stroke:none"
         d="m 2555.81,3688.37 c 4.99,16.29 144.78,126.06 161.91,131.3 17.12,5.24 106.99,-92.19 104.47,-104.44 -2.52,-12.25 -82.93,-42.43 -95.18,-50.01 -12.26,-7.57 -46.7,-60.06 -54.05,-64.61 -7.35,-4.54 -122.8,69.29 -117.15,87.76" /><path
         id="path130"
         style="fill:#ffc85a;fill-opacity:1;fill-rule:nonzero;stroke:none"
         d="m 3351.55,3544.48 c -76.98,121.02 -179.73,193.47 -229.51,161.81 -49.77,-31.66 -27.72,-155.44 49.26,-276.47 76.98,-121.02 179.73,-193.47 229.51,-161.81 49.78,31.66 27.72,155.44 -49.26,276.47" /><path
         id="path132"
         style="fill:#323f3f;fill-opacity:1;fill-rule:nonzero;stroke:none"
         d="m 3126.91,3503.46 27.09,13.68 c 4.31,2.18 10.28,-0.27 13.32,-5.47 l 20.51,-35.07 c 3.03,-5.18 2,-11.13 -2.29,-13.29 l -27.1,-13.69 c -4.3,-2.17 -10.27,0.28 -13.31,5.48 l -20.51,35.07 c -3.03,5.18 -2.01,11.13 2.29,13.29" /><path
         id="path134"
         style="fill:#ffb64d;fill-opacity:1;fill-rule:nonzero;stroke:none"
         d="m 3136.25,3495.31 16.21,8.21 c 2.58,1.3 6.28,-0.4 8.26,-3.81 l 13.35,-22.95 c 1.97,-3.39 1.48,-7.19 -1.08,-8.49 l -16.21,-8.21 c -2.58,-1.3 -6.28,0.4 -8.26,3.81 l -13.34,22.95 c -1.98,3.39 -1.5,7.19 1.07,8.49" /><path
         id="path136"
         style="fill:#323f3f;fill-opacity:1;fill-rule:nonzero;stroke:none"
         d="m 3143.56,3491.79 9.4,4.76 c 1.5,0.76 3.41,0.18 4.26,-1.3 l 5.77,-9.94 c 0.85,-1.47 0.33,-3.27 -1.15,-4.02 l -9.41,-4.76 c -1.49,-0.75 -3.4,-0.17 -4.25,1.3 l -5.77,9.94 c -0.85,1.47 -0.34,3.27 1.15,4.02" /><path
         id="path138"
         style="fill:#5e787a;fill-opacity:1;fill-rule:nonzero;stroke:none"
         d="m 3134.82,3626.84 c 20.07,-254.69 72.67,-424.01 72.67,-424.01 l 173.3,-191.88 c 0,0 124.78,264.98 2.73,504.2 -66.93,131.2 -259.81,252.58 -248.7,111.69" /><path
         id="path140"
         style="fill:#435b5e;fill-opacity:1;fill-rule:nonzero;stroke:none"
         d="m 3144.66,3676.25 c 74.84,16.61 165.61,-105.07 202.75,-271.84 31.45,-141.17 14.38,-269.38 -36.98,-315.56 l 70.36,-77.9 c 0,0 136.12,258.7 14.07,497.92 -55.86,109.49 -210.67,218.28 -250.2,167.38" /><path
         id="path142"
         style="fill:#5e787a;fill-opacity:1;fill-rule:nonzero;stroke:none"
         d="m 3380.77,3010.21 c -220.09,-39.02 -549.53,142.93 -549.53,142.93 l -2.9,106.43 c 0,0 304.44,37.55 431.8,-2.69 127.37,-40.23 120.63,-246.67 120.63,-246.67" /><path
         id="path144"
         style="fill:#435b5e;fill-opacity:1;fill-rule:nonzero;stroke:none"
         d="m 3067.09,3111.07 c -101.77,8.5 -189.23,36.79 -236.67,72.27 l 0.82,-30.2 c 0,0 329.44,-181.95 549.53,-142.93 0,0 15.89,94.67 -18.39,167.26 -34.3,-45.71 -161.88,-77.55 -295.29,-66.4" /><path
         id="path146"
         style="fill:#d1c099;fill-opacity:1;fill-rule:nonzero;stroke:none"
         d="M 2577.02,3297.29 2432.3,3145.57 c -11.03,-11.56 -7.45,-29.96 7.31,-37.57 l 141.2,-72.82 c 10.58,-5.46 23.64,-3.46 31.55,4.83 l 144.73,151.72 c 11.02,11.56 7.44,29.96 -7.32,37.58 l -141.2,72.82 c -10.58,5.45 -23.64,3.46 -31.55,-4.84" /><path
         id="path148"
         style="fill:#dbcba9;fill-opacity:1;fill-rule:nonzero;stroke:none"
         d="m 2674.47,3105.12 72.66,76.17 -245.68,36.78 -69.16,-72.5 c -1.12,-1.18 -1.99,-2.47 -2.82,-3.77 l 245,-36.68" /><path
         id="path150"
         style="fill:#e0dabf;fill-opacity:1;fill-rule:nonzero;stroke:none"
         d="m 2749.77,3229.31 -141.2,72.82 c -10.58,5.45 -23.64,3.46 -31.55,-4.84 l -144.73,-151.72 c -7.03,-7.38 -8.07,-17.52 -4.09,-25.89 0.69,0.98 1.31,2 2.18,2.91 l 144.72,151.72 c 7.91,8.29 20.97,10.29 31.55,4.83 l 141.2,-72.82 c 5.34,-2.75 9.16,-6.94 11.41,-11.68 8.06,11.54 4.11,27.65 -9.49,34.67" /><path
         id="path152"
         style="fill:#846d61;fill-opacity:1;fill-rule:nonzero;stroke:none"
         d="m 2480.8,3151.7 -22.66,-23.77 c -1.73,-1.81 -1.16,-4.69 1.15,-5.88 l 22.12,-11.41 c 1.66,-0.85 3.7,-0.54 4.94,0.76 l 22.66,23.76 c 1.73,1.81 1.17,4.7 -1.14,5.89 l -22.13,11.4 c -1.65,0.86 -3.7,0.55 -4.94,-0.75" /><path
         id="path154"
         style="fill:#e9e4cf;fill-opacity:1;fill-rule:nonzero;stroke:none"
         d="m 2717.09,3655.69 c 0,0.01 0,0.01 0.01,0.01 -0.01,0 -0.01,0 -0.01,-0.01 m 0.21,0.24 c 0.02,0.02 0.03,0.04 0.05,0.06 -0.02,-0.02 -0.03,-0.04 -0.05,-0.06 m 0.11,0.13 c 0.02,0.01 0.03,0.03 0.04,0.05 -0.01,-0.02 -0.02,-0.04 -0.04,-0.05 m 0.11,0.12 c 0.02,0.02 0.04,0.05 0.06,0.07 -0.02,-0.02 -0.04,-0.05 -0.06,-0.07 m 0.1,0.12 c 0.02,0.01 0.03,0.03 0.05,0.05 -0.02,-0.02 -0.03,-0.04 -0.05,-0.05 m 0.12,0.13 c 0.02,0.02 0.04,0.05 0.07,0.08 -0.03,-0.03 -0.05,-0.06 -0.07,-0.08 m 0.07,0.08 c 3.45,3.9 6.48,6.9 8.79,8.45 -2.31,-1.55 -5.34,-4.56 -8.79,-8.45 m 8.8,8.45 c 0.02,0.02 0.05,0.04 0.07,0.06 -0.02,-0.02 -0.05,-0.04 -0.07,-0.06 m 0.09,0.07 c 0.01,0.01 0.02,0.01 0.03,0.02 -0.01,-0.01 -0.02,-0.02 -0.03,-0.02 m 0.07,0.04 c 0.01,0.01 0.03,0.02 0.04,0.03 -0.01,-0.01 -0.03,-0.02 -0.04,-0.03 m 0.08,0.05 c 0.01,0.01 0.01,0.01 0.02,0.02 -0.01,-0.01 -0.01,-0.01 -0.02,-0.02 m 0.08,0.05 c 0,0.01 0.01,0.01 0.02,0.01 -0.01,0 -0.02,0 -0.02,-0.01 m 0.08,0.05 v 0 c 0.01,0.01 0.03,0.02 0.04,0.03 -0.01,-0.01 -0.03,-0.02 -0.04,-0.03 v 0 m 0.07,0.05 v 0 0" /><path
         id="path156"
         style="fill:#72aab2;fill-opacity:1;fill-rule:nonzero;stroke:none"
         d="M 2690.83,3622.07 2638,3732.53 c 20.47,17.36 45.05,36.95 66.64,53.3 l 51.3,-107.27 c -13.45,-5.88 -24.78,-10.79 -28.86,-13.29 v 0 c -0.01,-0.01 -0.02,-0.02 -0.03,-0.02 -0.01,-0.01 -0.03,-0.02 -0.04,-0.03 v 0 c -0.02,-0.01 -0.04,-0.02 -0.06,-0.04 -0.01,0 -0.02,0 -0.02,-0.01 -0.02,-0.01 -0.04,-0.02 -0.06,-0.03 -0.01,-0.01 -0.01,-0.01 -0.02,-0.02 -0.01,-0.01 -0.03,-0.01 -0.04,-0.02 -0.01,-0.01 -0.03,-0.02 -0.04,-0.03 -0.01,0 -0.02,-0.01 -0.04,-0.02 -0.01,-0.01 -0.02,-0.01 -0.03,-0.02 -0.01,-0.01 -0.01,-0.01 -0.02,-0.01 -0.02,-0.02 -0.05,-0.04 -0.07,-0.06 h -0.01 c -2.31,-1.55 -5.34,-4.55 -8.79,-8.45 v 0 c -0.03,-0.03 -0.05,-0.06 -0.07,-0.08 -0.03,-0.03 -0.05,-0.05 -0.07,-0.08 -0.02,-0.02 -0.03,-0.04 -0.05,-0.05 -0.01,-0.02 -0.02,-0.03 -0.04,-0.05 -0.02,-0.02 -0.04,-0.05 -0.06,-0.07 -0.03,-0.03 -0.05,-0.05 -0.07,-0.07 -0.01,-0.02 -0.02,-0.04 -0.04,-0.05 -0.02,-0.02 -0.04,-0.05 -0.06,-0.07 -0.02,-0.02 -0.03,-0.04 -0.05,-0.06 -0.07,-0.07 -0.14,-0.15 -0.2,-0.23 -0.01,0 -0.01,0 -0.01,-0.01 -7.86,-9 -17.72,-22.3 -26.26,-33.62" /><path
         id="path158"
         style="fill:#4e7673;fill-opacity:1;fill-rule:nonzero;stroke:none"
         d="m 2672.02,3600.41 c -12.46,0.01 -110.09,62.58 -116.12,84.57 6.03,-21.99 103.67,-84.57 116.12,-84.57 v 0 m -116.12,84.57 c 0,0 0,0.01 0,0.01 0,0 0,-0.01 0,-0.01 m -0.04,0.16 c -0.01,0.06 -0.03,0.11 -0.04,0.17 0.01,-0.06 0.03,-0.11 0.04,-0.17 m -0.04,0.18 c -0.01,0.03 -0.02,0.06 -0.03,0.09 0.01,-0.03 0.02,-0.06 0.03,-0.09 m -0.05,0.2 c -0.01,0.04 -0.02,0.08 -0.02,0.12 0,-0.04 0.01,-0.08 0.02,-0.12 m -0.03,0.13 c -0.02,0.13 -0.04,0.25 -0.06,0.37 0.02,-0.12 0.04,-0.24 0.06,-0.37 m -0.07,0.45 c -0.01,0.05 -0.01,0.1 -0.02,0.15 0.01,-0.05 0.01,-0.1 0.02,-0.15 m -0.05,0.5 c 0,0.03 0,0.05 0,0.08 0,-0.03 0,-0.05 0,-0.08 m -0.01,0.36 c 0,0.12 0.01,0.23 0.01,0.34 0,-0.11 -0.01,-0.22 -0.01,-0.34 m 0.03,0.53 c 0,0.01 0,0.03 0,0.04 0,-0.01 0,-0.03 0,-0.04 m 0,0.06 c 0.01,0.01 0.01,0.02 0.01,0.03 0,-0.01 0,-0.02 -0.01,-0.03 m 0.01,0.06 c 0.01,0.1 0.03,0.21 0.05,0.32 -0.02,-0.11 -0.04,-0.22 -0.05,-0.32 m 0.05,0.33 c 0,0 0.01,0 0.01,0 0,0 -0.01,0 -0.01,0 m 0.06,0.24 c 0.01,0.03 0.01,0.05 0.02,0.08 -0.01,-0.03 -0.01,-0.05 -0.02,-0.08 m 0.05,0.19 c 4.99,16.29 144.78,126.06 161.91,131.3 -17.13,-5.24 -156.92,-115.01 -161.91,-131.3 m 161.91,131.3 c 0.16,0.05 0.34,0.09 0.52,0.12 -0.18,-0.03 -0.36,-0.07 -0.52,-0.12 m 0.55,0.13 c 0,0 0.01,0 0.02,0 -0.01,0 -0.02,0 -0.02,0" /><path
         id="path160"
         style="fill:#1f4b5c;fill-opacity:1;fill-rule:nonzero;stroke:none"
         d="m 2672.02,3600.41 c -12.45,0 -110.09,62.58 -116.12,84.57 0,0 0,0 0,0 0,0 0,0.01 0,0.01 -0.01,0.05 -0.03,0.1 -0.04,0.15 -0.01,0.06 -0.03,0.11 -0.04,0.17 v 0.01 c -0.01,0.03 -0.02,0.06 -0.03,0.09 0,0.04 -0.01,0.07 -0.02,0.11 -0.01,0.04 -0.02,0.08 -0.02,0.12 0,0 0,0 -0.01,0.01 -0.02,0.13 -0.04,0.25 -0.06,0.37 0,0.03 -0.01,0.05 -0.01,0.08 -0.01,0.05 -0.01,0.1 -0.02,0.15 -0.01,0.12 -0.02,0.23 -0.03,0.35 0,0.03 0,0.05 0,0.08 -0.01,0.09 -0.01,0.19 -0.01,0.28 0,0.12 0.01,0.23 0.01,0.34 0.01,0.07 0.01,0.13 0.02,0.19 0,0.01 0,0.03 0,0.04 0,0.01 0,0.01 0,0.02 0.01,0.01 0.01,0.02 0.01,0.03 0,0.01 0,0.02 0,0.03 0.01,0.1 0.03,0.21 0.05,0.32 0,0 0,0 0,0.01 0,0 0.01,0 0.01,0 0.01,0.08 0.03,0.17 0.05,0.24 0.01,0.03 0.01,0.05 0.02,0.08 0.01,0.04 0.02,0.07 0.03,0.11 v 0 c 4.99,16.29 144.78,126.06 161.91,131.3 v 0 0 c 0.16,0.05 0.34,0.09 0.52,0.12 0.01,0.01 0.02,0.01 0.03,0.01 0,0 0.01,0 0.02,0 0.28,0.05 0.59,0.08 0.91,0.08 4.07,0 10.74,-3.74 18.79,-9.79 -9.14,-6.25 -20.74,-14.71 -33.35,-24.26 l -9.54,19.95 c -17.95,-12.55 -43.32,-31.86 -67.56,-51.37 l 10.46,-21.88 c -23.59,-20.01 -41.71,-37.05 -43.45,-42.73 -4.06,-13.24 54.14,-54.94 90.12,-75.81 -5.32,-6.88 -9.62,-12.09 -11.71,-13.38 -0.22,-0.13 -0.53,-0.2 -0.94,-0.2" /><path
         id="path162"
         style="fill:#285c6b;fill-opacity:1;fill-rule:nonzero;stroke:none"
         d="m 2638,3732.53 -10.46,21.88 c 24.24,19.51 49.61,38.82 67.56,51.37 l 9.54,-19.95 c -21.59,-16.35 -46.17,-35.94 -66.64,-53.3" /><path
         id="path164"
         style="fill:#dbd2af;fill-opacity:1;fill-rule:nonzero;stroke:none"
         d="m 2685.27,3578.08 1.33,0.26 c 5.86,3.69 24.41,31.36 41.72,54.89 -10.47,-9.21 -28.19,-34.39 -43.05,-55.15" /><path
         id="path166"
         style="fill:#dbd2af;fill-opacity:1;fill-rule:nonzero;stroke:none"
         d="m 2739,3879.17 c -22.74,-6.83 -206.07,-154.93 -212.18,-177.27 l -0.09,-1.29 c 52.36,50.3 169.14,142.7 186.99,148.06 20.35,6.12 121.41,-102.31 140.32,-137.24 15.8,8.36 27.4,16.1 28.34,21.48 2.95,16.82 -120.65,153.09 -143.38,146.26" /><path
         id="path168"
         style="fill:#364849;fill-opacity:1;fill-rule:nonzero;stroke:none"
         d="m 4876.43,1379.62 c -199.36,51.22 -346.38,149.57 -328.37,219.67 14.14,55.01 315.14,54.46 540.47,26.94 14.28,12.17 29.61,24 46.06,35.28 0,0 -660.02,-32.93 -830.43,115.49 l -5.99,-29.5 c 170.3,-248.94 361.88,-303.11 611.55,-391.31 0,0 1.39,5.27 4.48,14.46 -12.47,2.73 -25.07,5.71 -37.77,8.97" /><path
         id="path170"
         style="fill:#364849;fill-opacity:1;fill-rule:nonzero;stroke:none"
         d="m 4595.7,2140.43 c 33.99,41.7 186.93,20.52 381.2,-135.83 5.88,6.26 9.48,9.66 9.48,9.66 -280.43,283.58 -560.63,157.76 -606.75,134.04 -10.45,-5.38 -57.83,-44.33 22.78,-25.75 159.91,36.85 463.55,-350.83 463.55,-350.83 0.81,14.79 2.92,29.2 5.94,43.19 -162.91,169.02 -311.49,282.23 -276.2,325.52" /><path
         id="path172"
         style="fill:#364849;fill-opacity:1;fill-rule:nonzero;stroke:none"
         d="m 4304.66,1741.05 -64.84,48.81 c 25.28,-12.66 42,8.91 27.77,32.01 l 50.9,-50.14 -13.83,-30.68" /><path
         id="path174"
         style="fill:#364849;fill-opacity:1;fill-rule:nonzero;stroke:none"
         d="m 4301.72,2108.36 c 18.19,14.64 10.68,21.77 -8.43,25.49 l 57.59,5.53 c 19.87,1.78 24.46,-8.99 26.87,-21.56 l -76.03,-9.46" /><path
         id="path176"
         style="fill:#415456;fill-opacity:1;fill-rule:nonzero;stroke:none"
         d="m 2796.75,3826.13 -13.22,-12.18 39.09,-41.08 13.22,12.18 -39.09,41.08" /><path
         id="path178"
         style="fill:#5b6666;fill-opacity:1;fill-rule:nonzero;stroke:none"
         d="m 3228.3,3917.11 c 5.72,-27.73 -11.17,-53.75 -37.75,-58.11 -26.57,-4.37 -52.75,14.55 -58.47,42.28 -5.73,27.72 11.17,53.74 37.74,58.11 26.57,4.37 52.75,-14.56 58.48,-42.28" /><path
         id="path180"
         style="fill:#dbd2af;fill-opacity:1;fill-rule:nonzero;stroke:none"
         d="m 3216.58,3916.07 c 3.59,-17.4 -5.42,-33.48 -20.12,-35.89 -14.7,-2.42 -29.53,9.73 -33.12,27.14 -3.59,17.41 5.42,33.48 20.12,35.9 14.7,2.42 29.53,-9.74 33.12,-27.15" /><path
         id="path182"
         style="fill:#384142;fill-opacity:1;fill-rule:nonzero;stroke:none"
         d="m 3213.33,3904.99 c -3.75,18.21 -19.26,30.92 -34.63,28.39 -7.08,-1.17 -12.79,-5.43 -16.64,-11.38 2.26,11.7 10.11,20.86 21.1,22.66 15.38,2.53 30.88,-10.18 34.64,-28.39 2.02,-9.83 0.12,-19.17 -4.41,-26.16 0.91,4.67 1.01,9.69 -0.06,14.88" /><path
         id="path184"
         style="fill:#384142;fill-opacity:1;fill-rule:nonzero;stroke:none"
         d="m 3195.29,3908.46 c 0.9,-4.33 -1.35,-8.33 -5,-8.94 -3.66,-0.6 -7.36,2.43 -8.25,6.76 -0.9,4.33 1.34,8.33 5,8.93 3.66,0.61 7.36,-2.42 8.25,-6.75" /><path
         id="path186"
         style="fill:#364849;fill-opacity:1;fill-rule:nonzero;stroke:none"
         d="m 2692.07,3249 c 12.75,7.53 70.67,14.52 119.48,17.16 18.96,1.03 34.74,-12.13 37.71,-31.65 l 12.25,-80.64 c -78.94,-31.09 -164,-3.98 -166.84,11.66 -2.85,15.67 -18.07,74.32 -2.6,83.47" /><path
         id="path188"
         style="fill:#364849;fill-opacity:1;fill-rule:nonzero;stroke:none"
         d="m 2718.09,3329.45 c 7.14,-0.85 38.33,-41.78 110.6,-63.57 l -64.16,-34.37 c -18.91,6.25 -70.7,62.06 -71.9,74.82 -1.33,14.26 15.1,24.35 25.46,23.12" /><path
         id="path190"
         style="fill:#364849;fill-opacity:1;fill-rule:nonzero;stroke:none"
         d="m 2628.42,3278.42 c 6.05,0.19 71.09,-8.71 124.89,-24.46 l -33.38,-32.32 c 0,0 -96.32,23.79 -102.37,33.16 -6.03,9.34 2.08,23.35 10.86,23.62" /><path
         id="path192"
         style="fill:#364849;fill-opacity:1;fill-rule:nonzero;stroke:none"
         d="m 2616.73,3224.99 c 5.26,3.84 61.79,-2.96 117.48,-10.68 l -29.08,-34.66 c 0,0 -84.64,11.51 -91.81,19.49 -7.13,7.93 -1.82,22.03 3.41,25.85" /><path
         id="path194"
         style="fill:#364849;fill-opacity:1;fill-rule:nonzero;stroke:none"
         d="m 2794.62,3139.64 c -74.93,-20.47 -166.7,10.26 -170.78,16.61 -4.07,6.33 -9.19,25.13 1.46,24.97 10.79,-0.17 64.64,-12.09 77.4,-7.88 12.97,4.27 93,40.54 94.54,38.99 1.54,-1.54 -2.62,-72.69 -2.62,-72.69" /><path
         id="path196"
         style="fill:#364849;fill-opacity:1;fill-rule:nonzero;stroke:none"
         d="m 2906.78,3267.38 -81.85,-0.81 -1.81,-127.29 100.02,-40.29 -16.36,168.39" /><path
         id="path198"
         style="fill:#95ad7d;fill-opacity:1;fill-rule:nonzero;stroke:none"
         d="m 1891.74,1673.98 c -48.14,57.96 -108.45,108.33 -180.26,134.41 -32.48,11.79 -66.76,18.46 -99.07,30.67 -49.2,18.6 -92.3,49.45 -134.75,79.95 -70.94,50.97 -142.85,102.85 -196.77,170.7 -31.01,39.01 -56.07,83.28 -94.58,115.37 -64.4,53.68 -158.16,66.42 -218.81,124.08 43.51,-71.42 125.01,-112.1 181.32,-174.5 52.16,-57.81 81.14,-132.55 132.95,-190.66 102.13,-114.57 270.54,-143.8 405.46,-219.9 87.44,-49.32 162.03,-119.94 215.03,-203.59 5.77,-9.11 13.14,-19.49 24.14,-19.8 l 87.38,-35.73 c -36.81,65.33 -73.89,131.04 -122.04,189" /><path
         id="path200"
         style="fill:#95ad7d;fill-opacity:1;fill-rule:nonzero;stroke:none"
         d="m 1344.7,741.289 c -16.01,45 -44.51,84.082 -90.91,101.633 -21.28,8.047 -45.77,11.359 -67.16,19.906 -32.95,13.192 -57.95,38.594 -83.09,64.274 -43.28,44.23 -88.81,91.018 -116.544,158.408 -16.601,40.34 -27.043,88.45 -53.16,122.64 -45.234,59.22 -129.207,66.99 -174.363,134.97 26.332,-86.44 92.316,-128.69 128.402,-196.53 31.898,-59.97 38.727,-136.88 67.934,-191.461 54.121,-101.16 178.331,-114.27 259.151,-170.688 50.12,-34.992 82.33,-86.992 93.69,-148.269 1.2,-6.481 3.12,-13.774 10.74,-13.16 l 49.38,-20.032 c -4.21,46.391 -8.66,94.969 -24.07,138.309" /><path
         id="path202"
         style="fill:#95ad7d;fill-opacity:1;fill-rule:nonzero;stroke:none"
         d="m 2911.74,1304.46 c -60,62.07 -132.88,114.15 -216.12,137.02 -37.64,10.35 -76.78,14.59 -114.29,25.43 -57.11,16.53 -108.65,47.81 -159.42,78.74 -84.85,51.7 -170.88,104.36 -238.39,177.25 -38.82,41.92 -71.52,90.51 -118.03,123.68 -77.8,55.49 -184.28,60.76 -258.28,121.21 56.2,-78.07 151.82,-116.82 221.45,-183.2 64.5,-61.49 104.75,-144.86 168.88,-206.73 126.43,-121.99 318.34,-138.78 477.55,-213.05 103.19,-48.13 194.17,-122.15 262.28,-213.39 7.41,-9.93 16.76,-21.17 29.13,-20.43 l 101.71,-32.44 c -48.07,71.71 -96.47,143.85 -156.47,205.91" /><path
         id="path204"
         style="fill:#809668;fill-opacity:1;fill-rule:nonzero;stroke:none"
         d="m 2701.36,707.82 c -217.57,-14.769 -450.9,29.051 -602.46,167.328 -129.58,118.231 -182.82,288.072 -294.62,420.162 -34.75,41.07 -76.06,78.96 -127.47,102.18 -45.52,20.55 -96.78,28.69 -147.41,35.36 -74.69,9.83 -152.62,16.6 -226.92,6.87 99.76,21.18 202.39,30.76 304.46,28.26 52.63,-1.28 105.76,-5.88 155.08,-21.76 130.13,-41.89 213.08,-153.88 277.96,-263.18 64.88,-109.29 125.06,-227.368 236.13,-300.681 61.94,-40.879 135.97,-64.918 210.97,-81.3 114.63,-25.028 233.16,-33.27 351.08,-41.418 92.23,-6.379 184.47,-12.75 276.7,-19.129 l -23.39,-6.082 c -129.87,9.531 -259.86,-17.77 -390.11,-26.61" /><path
         id="path206"
         style="fill:#809668;fill-opacity:1;fill-rule:nonzero;stroke:none"
         d="m 2016.19,694.469 c -256.67,-17.418 -531.94,34.281 -710.74,197.422 -152.88,139.479 -215.68,339.839 -347.579,495.679 -41.008,48.46 -89.738,93.15 -150.387,120.54 -53.707,24.26 -114.179,33.85 -173.914,41.72 -88.109,11.61 -180.047,19.59 -267.707,8.11 117.696,24.99 238.774,36.29 359.188,33.34 62.094,-1.52 124.769,-6.93 182.965,-25.67 153.514,-49.42 251.384,-181.55 327.924,-310.49 76.54,-128.94 147.53,-268.249 278.57,-354.741 73.07,-48.219 160.41,-76.578 248.89,-95.899 135.24,-29.539 275.07,-39.261 414.19,-48.871 108.81,-7.527 217.63,-15.05 326.44,-22.57 l -27.6,-7.18 c -153.21,11.25 -306.57,-20.961 -460.24,-31.39" /><path
         id="path208"
         style="fill:#95ad7d;fill-opacity:1;fill-rule:nonzero;stroke:none"
         d="m 3366.9,1207.18 c -14.23,221.62 -96.75,450.94 -274.15,584.52 -151.69,114.21 -350.72,144.14 -515.51,238.46 -51.24,29.33 -99.82,65.71 -133.29,114.33 -29.63,43.06 -46.08,93.65 -60.78,143.81 -21.69,73.99 -40.39,151.68 -39.96,228.02 -9.72,-103.64 -5.95,-208.54 11.35,-311.19 8.92,-52.93 21.64,-105.9 46.54,-153.46 65.7,-125.45 203.73,-193.47 336.16,-243.63 132.43,-50.17 274.1,-94.36 372.52,-196.18 54.87,-56.77 92.48,-128.11 121.59,-201.51 44.49,-112.17 70.6,-230.62 96.53,-348.48 20.28,-92.179 40.55,-184.37 60.83,-276.55 l 3.54,24.461 C 3363.09,939.5 3375.42,1074.5 3366.9,1207.18" /><path
         id="path210"
         style="fill:#a7c191;fill-opacity:1;fill-rule:nonzero;stroke:none"
         d="m 2603.65,996.16 c -52.57,121.97 -126.25,235.45 -220.85,328.67 -189.13,186.37 -449.7,281.71 -708.65,340.42 -171.4,38.87 -349.52,65.38 -502.96,151.07 -131.97,73.69 -237.768,187.38 -324.456,311.2 -42.496,60.7 -95.574,132.07 -169.5,127.12 70.606,-87.41 141.215,-174.82 211.821,-262.24 48.008,-59.43 96.675,-119.51 157.695,-165.49 88.96,-67.04 198.22,-99.86 303.54,-136.13 322.55,-111.1 630,-265.92 911.3,-458.91 135.39,-92.88 273.15,-207.07 311.25,-366.768 20.71,-86.782 13.33,-188.383 75.8,-252.082 l 33.42,2.98 c 5.04,130.371 -26.76,260.352 -78.41,380.16" /><path
         id="path212"
         style="fill:#809668;fill-opacity:1;fill-rule:nonzero;stroke:none"
         d="m 3972.93,1218.22 c 29.77,83.94 39.31,174.37 -2.64,257.75 l -25.97,66.44 c 15.7,-63.98 -35.17,-124.15 -83.78,-178.34 C 3753.86,1245.16 3647.33,1122.62 3606.69,984.898 3575.74,880 3584.41,770.621 3564.07,664.27 c 134.01,-5.461 267.86,-15.79 400.78,-30.95 -31.05,49.59 -92.26,89.211 -121.17,139.34 -36.99,64.149 -15.72,135.121 13.28,199.469 37.13,82.421 86.21,162.141 115.97,246.091" /><path
         id="path214"
         style="fill:#95ad7d;fill-opacity:1;fill-rule:nonzero;stroke:none"
         d="m 3234.09,1203.11 c -90.68,189.1 -232.52,372.94 -414.91,502.24 -150.69,106.83 -316.34,168.29 -468.6,251.74 -157.57,86.34 -304.44,198.63 -433.55,330.72 -41.7,42.65 -82.59,88.74 -110.41,143.26 -26.29,51.51 -39.62,107.99 -50.77,163.86 -26.62,133.27 -43.39,270.35 -49.63,409.39 -22.16,-200.19 -13.12,-403.4 24.54,-598.72 17.07,-88.53 40.94,-178.2 87.01,-258.16 76.48,-132.78 204.71,-223.32 329.38,-300.8 127.65,-79.33 260.14,-153.77 397.26,-222.97 134.71,-67.99 279.47,-134.68 392.52,-246.78 188.39,-186.8 226.34,-429.66 250.76,-638.281 l 190.48,-79.539 c -15.39,173.039 -55.13,358.54 -144.08,544.04" /><path
         id="path216"
         style="fill:#a7c191;fill-opacity:1;fill-rule:nonzero;stroke:none"
         d="m 2350.58,1957.08 c -157.57,86.35 -304.44,198.64 -433.55,330.73 -41.7,42.65 -82.59,88.74 -110.41,143.26 -26.29,51.51 -39.62,107.99 -50.77,163.86 -26.62,133.27 -43.39,270.35 -49.63,409.39 -22.16,-200.19 -13.12,-403.4 24.54,-598.72 17.07,-88.53 40.94,-178.2 87.01,-258.16 76.48,-132.78 204.71,-223.32 329.38,-300.8 127.65,-79.33 260.14,-153.77 397.26,-222.98 34.27,-17.29 69.19,-34.51 104.07,-52.41 18.83,65.85 29.02,140.16 30.38,220.55 -109.54,59.6 -222.15,107.13 -328.28,165.28" /><path
         id="path218"
         style="fill:#a3b7b2;fill-opacity:1;fill-rule:nonzero;stroke:none"
         d="m 4403.33,1623.81 -13.31,14.69 c 0,0 -210.95,-326.53 -232.25,-949.75 l 157.44,32.059 c -43.44,599.781 88.12,903.001 88.12,903.001" /><path
         id="path220"
         style="fill:#819992;fill-opacity:1;fill-rule:nonzero;stroke:none"
         d="m 4321.44,1246.92 c 27.2,250.53 81.89,376.89 81.89,376.89 l -13.31,14.69 c 0,0 -122.3,-189.61 -190.05,-555.22 36.56,66.28 78.2,122.09 121.47,163.64" /><path
         id="path222"
         style="fill:#d3af79;fill-opacity:1;fill-rule:nonzero;stroke:none"
         d="M 4598.65,952.512 C 4424.39,1009.46 3374.96,571.391 3374.96,571.391 h 1274.03 l -50.34,381.121" /><path
         id="path224"
         style="fill:#a06955;fill-opacity:1;fill-rule:nonzero;stroke:none"
         d="M 3465,1435.49 C 3767.05,1228.5 4045.86,581.25 4045.86,581.25 H 1969.28 c 0,0 69.7,660.39 281.71,781.96 183.5,105.21 1214.01,72.28 1214.01,72.28" /><path
         id="path226"
         style="fill:#af725f;fill-opacity:1;fill-rule:nonzero;stroke:none"
         d="m 2843.19,581.25 h 450.23 c 48.67,120.648 77.09,265.672 77.09,421.71 0,162.38 -30.83,312.74 -83.19,436.22 -83.7,1.13 -189.85,1.76 -302.53,0.46 34.47,-177.53 23.05,-392.79 -43.08,-612.46 -26.46,-87.891 -59.89,-170.321 -98.52,-245.93" /><path
         id="path228"
         style="fill:#6d554e;fill-opacity:1;fill-rule:nonzero;stroke:none"
         d="m 3826.09,1004.36 -1177.92,13.93 61.27,-77.63 1139.08,27.262 -22.43,36.438" /><path
         id="path230"
         style="fill:#6d554e;fill-opacity:1;fill-rule:nonzero;stroke:none"
         d="m 2804.19,806.711 1100.3,60.019 -0.39,0.692 -1105.51,-34.543 5.6,-26.168" /><path
         id="path232"
         style="fill:#6d554e;fill-opacity:1;fill-rule:nonzero;stroke:none"
         d="m 3978.39,724.809 c -3.81,7.671 -7.77,15.601 -11.86,23.711 l -855.81,-68.899 867.67,45.188" /><path
         id="path234"
         style="fill:#6d554e;fill-opacity:1;fill-rule:nonzero;stroke:none"
         d="m 2525.71,1141.27 1187.56,32.89 -1.14,1.58 -1213.09,-13.14 26.67,-21.33" /><path
         id="path236"
         style="fill:#6d554e;fill-opacity:1;fill-rule:nonzero;stroke:none"
         d="m 3591.94,1323.33 c -11.54,12.35 -23.19,24.2 -34.91,35.58 l -973.38,-83.07 1008.29,47.49" /><path
         id="path238"
         style="fill:#6d554e;fill-opacity:1;fill-rule:nonzero;stroke:none"
         d="m 1943.14,581.238 h 1062.98 c -181.16,238.473 -521.06,766.002 -755.74,781.592 -211.4,-94.9 -307.24,-781.592 -307.24,-781.592" /><path
         id="path240"
         style="fill:#54413d;fill-opacity:1;fill-rule:nonzero;stroke:none"
         d="m 2018.14,619.242 h 868.11 C 2738.31,814 2460.72,1244.82 2269.06,1257.54 2096.42,1180.04 2018.14,619.242 2018.14,619.242" /><path
         id="path242"
         style="fill:#604842;fill-opacity:1;fill-rule:nonzero;stroke:none"
         d="m 2046.18,583.73 h 868.11 c -147.95,194.75 -425.54,625.58 -617.19,638.3 -172.65,-77.5 -250.92,-638.3 -250.92,-638.3" /><path
         id="path244"
         style="fill:#e0c29b;fill-opacity:1;fill-rule:nonzero;stroke:none"
         d="M 5024.61,531.961 H 3305.26 c 0,0 546.01,205.898 797.72,188.367 251.71,-17.519 449.2,118.281 495.67,232.184 0,0 247.83,-127.043 425.96,-420.551" /><path
         id="path246"
         style="fill:#d8b46c;fill-opacity:1;fill-rule:nonzero;stroke:none"
         d="m 3850.62,1016 -1213.67,26.59 61.28,-77.629 1135.63,25.23 16.76,25.809" /><path
         id="path248"
         style="fill:#edcb7e;fill-opacity:1;fill-rule:nonzero;stroke:none"
         d="m 3806.9,1093.48 -1170.88,-29.4 61.91,-77.408 1152.69,29.328 -43.72,77.48" /><path
         id="path250"
         style="fill:#ffe0a1;fill-opacity:1;fill-rule:nonzero;stroke:none"
         d="m 3080.57,996.398 396.84,10.102 45,79.84 -396.77,-9.96 -45.07,-79.982" /><path
         id="path252"
         style="fill:#967f5a;fill-opacity:1;fill-rule:nonzero;stroke:none"
         d="m 2723.92,963.32 -619.58,-283.64 -25.17,116.09 618.12,190.679 26.63,-23.129" /><path
         id="path254"
         style="fill:#aa956f;fill-opacity:1;fill-rule:nonzero;stroke:none"
         d="m 2697.29,986.449 -619.59,-283.64 -25.17,116.089 583.49,245.182 61.27,-77.631" /><path
         id="path256"
         style="fill:#6d554e;fill-opacity:1;fill-rule:nonzero;stroke:none"
         d="m 2172.85,797.84 -4.52,10.269 499.26,219.971 1.1,0.04 1157.12,32.31 6.73,-12.4 -1162.46,-31.1 -497.23,-219.09" /><path
         id="path258"
         style="fill:#ddb47f;fill-opacity:1;fill-rule:nonzero;stroke:none"
         d="M 4478.6,531.961 H 888.871 c 0,0 232.349,72.281 307.859,328.559 75.51,256.27 302.05,578.26 302.05,578.26 0,0 471.38,-475.3 958.42,-657.12 580.86,-216.84 575.06,59.149 575.06,59.149 0,0 336.9,39.421 621.52,-177.43 122.84,-93.59 244.92,-70.981 343.04,-48.379 57.02,13.129 105.95,26.262 142.23,16.602 98.75,-26.282 339.55,-99.641 339.55,-99.641" /><path
         id="path260"
         style="fill:#c9a67b;fill-opacity:1;fill-rule:nonzero;stroke:none"
         d="m 1503.96,1433.63 c -3.4,3.35 -5.18,5.15 -5.18,5.15 0,0 -226.54,-321.99 -302.05,-578.26 C 1121.22,604.242 888.871,531.961 888.871,531.961 H 2325.82 C 1886.3,790.77 1574.95,1140.34 1503.96,1433.63" /><path
         id="path262"
         style="fill:#c9a67b;fill-opacity:1;fill-rule:nonzero;stroke:none"
         d="m 2606.87,732.699 c 39.91,-34.82 89.74,-66.801 146.18,-91.89 165.22,-73.45 324.46,-60.11 355.69,29.781 17.31,49.832 -8.4,112.711 -62.84,171.379 -8.79,-0.61 -13.64,-1.168 -13.64,-1.168 0,0 4.73,-226.192 -425.39,-108.102" /><path
         id="path264"
         style="fill:#95ad7d;fill-opacity:1;fill-rule:nonzero;stroke:none"
         d="m 4006.98,1496.75 c -22.18,70.55 -101.18,144.04 -209.09,167.17 -123.49,26.46 -240.2,-20.2 -302,-82.73 -61.8,-62.54 -86.38,-139.94 -138.16,-206.82 -58.17,-75.12 -154.07,-137.35 -280.5,-162.77 -96.46,-19.4 -211.32,-14.97 -313.49,14.85 156.07,-82.42 379.64,-103.93 527.02,-45.4 131.47,52.21 248.54,367.33 466,332.48 39.47,-6.33 141.06,3.37 217.79,-218.85 24.34,-70.49 54.59,131.51 32.43,202.07" /><path
         id="path266"
         style="fill:#a7c191;fill-opacity:1;fill-rule:nonzero;stroke:none"
         d="m 3797.89,1663.92 c -123.49,26.46 -240.2,-20.2 -302,-82.73 -39.23,-39.7 -63.47,-85.39 -89.19,-130.57 7.95,-42.06 23.27,-81.55 44.64,-117.11 82.42,97.85 176.19,200.73 305.42,180.02 39.47,-6.33 141.06,3.37 217.79,-218.85 24.34,-70.49 54.59,131.51 32.43,202.07 -22.17,70.55 -101.18,144.04 -209.09,167.17" /><path
         id="path268"
         style="fill:#c6c1a8;fill-opacity:1;fill-rule:nonzero;stroke:none"
         d="m 1900.17,756.211 c -15.04,27.051 -29.91,53.801 -44.63,80.258 -3.49,6.293 15.35,56.09 7.79,82.992 -7.51,26.719 -26.69,48.359 -45.92,68.277 -26.28,27.222 -56.18,54.002 -95.14,58.442 -25.22,2.88 -51.26,-4.1 -75.71,-12.27 -59.94,-20.04 -122.32,-55.16 -139.7,-112.058 -5.24,-17.161 -16.7,-69.543 -14.34,-86.821 5.53,-40.5 44.52,-89.332 78.61,-112.929 34.91,-24.172 68.64,-30.153 113.43,-21.641 l 6.69,20.961 c 8.91,13.066 28.29,17.957 43.77,12.68 15.64,-5.332 27.2,0.007 30.84,-15.422 4.09,-17.328 12.43,-38.879 7.94,-56.11 45.29,11.719 88,35.219 122.03,67.59 3.88,3.692 7.83,7.852 8.43,12.899 0.55,4.613 -1.8,9.031 -4.09,13.152" /><path
         id="path270"
         style="fill:#b8976c;fill-opacity:1;fill-rule:nonzero;stroke:none"
         d="m 1773.8,662.57 v 0 c 45.29,11.719 88,35.219 122.03,67.59 3.88,3.692 7.83,7.852 8.43,12.899 0.55,4.582 -1.77,8.972 -4.04,13.062 2.27,-4.09 4.59,-8.48 4.04,-13.062 -0.6,-5.047 -4.55,-9.207 -8.43,-12.899 -34.03,-32.371 -76.74,-55.871 -122.03,-67.59 m -124.92,34.231 v 0 c 11.19,0 22.99,1.25 35.68,3.66 l 6.69,20.961 c 6.53,9.59 18.7,14.769 30.83,14.769 v 0 c -12.13,0 -24.3,-5.179 -30.83,-14.769 l -6.69,-20.961 c -12.69,-2.41 -24.49,-3.66 -35.68,-3.66 m 251.29,59.41 c -14.52,26.109 -28.88,51.937 -43.09,77.5 v 0 c 14.22,-25.57 28.57,-51.379 43.09,-77.5 m -393.31,165.641 c 0.04,0.097 0.07,0.199 0.1,0.296 -0.03,-0.097 -0.07,-0.199 -0.1,-0.296 m 0.13,0.386 c 0.02,0.082 0.04,0.153 0.06,0.223 -0.02,-0.07 -0.04,-0.141 -0.06,-0.223 m 0.1,0.321 c 0.02,0.07 0.04,0.152 0.06,0.222 -0.02,-0.07 -0.04,-0.152 -0.06,-0.222 m 0.09,0.312 c 0.04,0.109 0.07,0.199 0.1,0.301 -0.03,-0.102 -0.07,-0.203 -0.1,-0.301 m 0.11,0.328 c 0.02,0.09 0.06,0.18 0.08,0.27 -0.03,-0.09 -0.05,-0.18 -0.08,-0.27 m 0.12,0.383 c 0.02,0.066 0.04,0.129 0.06,0.188 -0.02,-0.059 -0.04,-0.122 -0.06,-0.188 m 0.1,0.316 c 0.02,0.063 0.04,0.122 0.06,0.18 -0.02,-0.058 -0.04,-0.117 -0.06,-0.18 m 0.1,0.301 c 0.03,0.09 0.07,0.192 0.1,0.289 -0.04,-0.097 -0.07,-0.187 -0.1,-0.289 m 0.13,0.383 c 0.02,0.059 0.04,0.129 0.07,0.199 -0.03,-0.07 -0.05,-0.14 -0.07,-0.199 m 0.11,0.34 c 0.02,0.047 0.04,0.098 0.05,0.148 -0.01,-0.05 -0.03,-0.101 -0.05,-0.148 m 0.11,0.297 c 0.01,0.051 0.03,0.09 0.04,0.14 -0.01,-0.05 -0.03,-0.089 -0.04,-0.14 m 0.26,0.769 c 0.01,0.032 0.02,0.051 0.03,0.071 -0.01,-0.02 -0.02,-0.047 -0.03,-0.071 m 0.1,0.282 c 0.01,0.019 0.02,0.039 0.03,0.07 -0.01,-0.031 -0.02,-0.051 -0.03,-0.07 m 0.1,0.281 c 0,0.008 0.01,0.027 0.01,0.039 0,-0.012 -0.01,-0.031 -0.01,-0.039" /><path
         id="path272"
         style="fill:#b6b093;fill-opacity:1;fill-rule:nonzero;stroke:none"
         d="m 1773.8,662.57 c 4.49,17.231 -3.85,38.782 -7.94,56.11 v 0 c -3.64,15.429 -15.2,10.09 -30.84,15.422 -0.25,0.089 -0.51,0.168 -0.77,0.257 -3.91,1.231 -8.03,1.832 -12.17,1.832 v 0 0 c -12.13,0 -24.3,-5.179 -30.83,-14.769 l -6.69,-20.961 c -12.69,-2.41 -24.49,-3.66 -35.68,-3.66 -28.31,0 -52.73,7.98 -77.75,25.301 v 0 c -34.09,23.597 -73.08,72.429 -78.61,112.929 -0.22,1.578 -0.32,3.469 -0.32,5.59 0.01,21.008 9.9,65.641 14.66,81.231 v 0 c 0.03,0.097 0.07,0.199 0.1,0.296 0.01,0.032 0.02,0.063 0.03,0.09 0.02,0.082 0.04,0.153 0.06,0.223 0.01,0.039 0.02,0.07 0.04,0.098 0.02,0.07 0.04,0.152 0.06,0.222 0.01,0.028 0.02,0.059 0.03,0.09 0.03,0.098 0.07,0.199 0.1,0.301 0,0.008 0,0.019 0.01,0.027 0.03,0.09 0.05,0.18 0.08,0.27 0.02,0.043 0.03,0.082 0.04,0.113 0.02,0.066 0.04,0.129 0.06,0.188 0.02,0.05 0.03,0.089 0.04,0.128 0.02,0.063 0.04,0.122 0.06,0.18 0.02,0.043 0.03,0.082 0.04,0.121 0.03,0.102 0.06,0.192 0.1,0.289 0.01,0.032 0.02,0.063 0.03,0.094 0.02,0.059 0.04,0.129 0.07,0.199 0.01,0.051 0.03,0.09 0.04,0.141 0.02,0.047 0.04,0.098 0.05,0.148 0.02,0.051 0.04,0.102 0.06,0.149 0.01,0.051 0.03,0.09 0.04,0.14 0.07,0.211 0.15,0.422 0.22,0.629 0.01,0.024 0.02,0.051 0.03,0.071 0.02,0.07 0.04,0.14 0.07,0.211 0.01,0.019 0.02,0.039 0.03,0.07 0.02,0.07 0.05,0.14 0.07,0.211 0,0.008 0.01,0.027 0.01,0.039 15.23,42.66 56.1,72.601 101.25,92.93 -18.64,-23.95 -29.71,-53.161 -29.71,-84.782 0,-81.027 71.97,-146.718 160.74,-146.718 45.84,0 87.09,17.601 116.37,45.691 14.21,-25.563 28.57,-51.391 43.09,-77.5 v 0 c 0.01,-0.031 0.03,-0.063 0.05,-0.09 2.27,-4.09 4.59,-8.48 4.04,-13.062 -0.6,-5.047 -4.55,-9.207 -8.43,-12.899 -34.03,-32.371 -76.74,-55.871 -122.03,-67.59 m -256.23,240.489 c -0.41,-1.161 -0.9,-2.278 -1.26,-3.469 -4.13,-13.539 -13.18,-54.879 -11.32,-68.52 4.37,-31.961 35.14,-70.511 62.04,-89.129 7.66,-5.3 15.26,-9.382 22.97,-12.531 12.21,22.981 11.87,60.77 -3.28,98.711 -15.88,39.738 -43.44,68.258 -69.15,74.938" /><path
         id="path274"
         style="fill:#594e4b;fill-opacity:1;fill-rule:nonzero;stroke:none"
         d="m 1739.34,863.859 c -3.7,18.661 -13.59,35.512 -24.63,51.012 -5.56,7.789 -11.55,15.449 -19.31,21.051 -7.75,5.598 -17.57,8.949 -26.97,7.18 -6.99,-1.313 -13.21,-5.321 -18.62,-9.942 -20.27,-17.289 -31.25,-47.64 -19.59,-71.59 6.61,-13.57 19.1,-23.109 29.94,-33.621 10.84,-10.519 20.87,-23.969 20.03,-39.039 18.04,4.949 34.2,16.52 44.69,32.012 l 2.05,-10.66 c 12.79,14.09 16.11,34.937 12.41,53.597" /><path
         id="path276"
         style="fill:#594e4b;fill-opacity:1;fill-rule:nonzero;stroke:none"
         d="m 1835.56,913.012 c -6.39,17.437 -13,35.179 -24.5,49.758 -5.08,6.441 -11.19,12.269 -18.62,15.73 -6.22,2.891 -13.12,4.02 -19.97,4.379 -6.68,0.359 -13.57,-0.02 -19.71,-2.688 -6.13,-2.671 -11.43,-7.972 -12.67,-14.55 -1.12,-5.969 1.13,-12.051 3.96,-17.442 10.94,-20.859 30.66,-36.551 39.37,-58.437 1.76,-4.422 3.08,-9.121 5.89,-12.961 2.8,-3.852 7.63,-6.731 12.24,-5.563 l 8.51,3.692 c 11.14,1.89 24.18,5.269 28.11,15.871 2.65,7.148 0.02,15.058 -2.61,22.211" /><path
         id="path278"
         style="fill:#443b39;fill-opacity:1;fill-rule:nonzero;stroke:none"
         d="m 1754.97,871.609 c -0.28,-9.379 2.06,-19.738 4.36,-29.82 2.23,-9.758 4.46,-19.508 6.7,-29.269 0.75,-3.278 1.59,-6.782 3.44,-9.5 1.85,-2.731 5.03,-4 5.98,-1.622 l 6.23,-5.796 c 2.36,0.277 3.43,3.668 3.11,7.226 -0.31,3.563 -1.7,7.254 -3.09,10.781 -7.83,19.903 -16.79,39.34 -26.73,58" /><path
         id="path280"
         style="fill:#443b39;fill-opacity:1;fill-rule:nonzero;stroke:none"
         d="m 1808.08,827.762 c -2.32,3.238 -4.01,7.16 -5.92,10.828 -7,13.48 -17.51,24.101 -27.85,28.14 8.8,-15.832 17.59,-31.66 26.39,-47.488 l 3.68,-5.012 c 2.78,2.008 5.55,4.032 8.33,6.04 -0.81,2.929 -2.93,5.121 -4.63,7.492" /><path
         id="path282"
         style="fill:#443b39;fill-opacity:1;fill-rule:nonzero;stroke:none"
         d="m 1631.32,859.809 c 14.33,12.41 31.82,19.793 50.75,19.793 22.55,0 43.04,-10.442 58.56,-27.461 -0.14,3.949 -0.53,7.879 -1.29,11.718 -3.7,18.661 -13.59,35.512 -24.63,51.012 -5.56,7.789 -11.55,15.449 -19.31,21.051 -7.75,5.598 -17.57,8.949 -26.97,7.18 -6.99,-1.313 -13.21,-5.321 -18.62,-9.942 -20.27,-17.289 -31.25,-47.64 -19.59,-71.59 l 1.1,-1.761" /><path
         id="path284"
         style="fill:#443b39;fill-opacity:1;fill-rule:nonzero;stroke:none"
         d="m 1759.05,926.27 c 4.36,0.628 8.84,0.992 13.44,0.992 29.54,0 54.92,-13.543 66.37,-32.981 0.93,6.188 -1.09,12.719 -3.3,18.731 -6.39,17.437 -13,35.179 -24.5,49.758 -5.08,6.441 -11.19,12.269 -18.62,15.73 -6.22,2.891 -13.12,4.02 -19.97,4.379 -6.68,0.359 -13.57,-0.02 -19.71,-2.688 -6.13,-2.671 -11.43,-7.972 -12.67,-14.55 -1.12,-5.969 1.13,-12.051 3.96,-17.442 4.11,-7.84 9.46,-14.949 15,-21.929" /><path
         id="path286"
         style="fill:#bfba9f;fill-opacity:1;fill-rule:nonzero;stroke:none"
         d="m 1590,729.41 c -7.71,3.149 -15.31,7.231 -22.97,12.531 -26.9,18.618 -57.67,57.168 -62.04,89.129 -1.86,13.641 7.19,54.981 11.32,68.52 0.36,1.191 0.85,2.308 1.26,3.469 25.71,-6.68 53.27,-35.2 69.15,-74.938 15.15,-37.941 15.49,-75.73 3.28,-98.711" /><path
         id="path288"
         style="fill:#443b39;fill-opacity:1;fill-rule:nonzero;stroke:none"
         d="m 1878.35,795.461 -2.55,0.07 c -4.35,-0.781 -7.99,-2.511 -10.67,-5 -6.01,8.36 -13.14,15.5 -23.64,15.27 -2.01,-0.051 -4.65,-0.34 -5.51,-2.539 -2.9,-7.383 1.1,-15.223 6.37,-21.84 -9.6,-2.973 -17.86,-12.422 -30.93,-14.883 -2.97,-0.559 -4.22,-2.43 -3.54,-5.258 0.73,-3.07 1.51,-3.59 2.85,-5.929 1.56,-1.274 3.28,-2.301 5.16,-3.082 2.7,-0.758 2.68,-1.321 -0.06,-1.68 -0.02,-0.149 -1.91,-1.828 -3.75,-3.731 -1.04,1.321 -2.05,2.653 -2.94,4.039 -2.89,4.551 -3.36,8.762 -5.82,13.454 -1.76,3.359 -4.23,6.867 -7.79,8.628 -9.73,4.801 -16.63,-0.25 -21.97,-8.039 -0.85,-1.242 0.33,-3.32 0.93,-4.281 10.76,-17.34 -3.69,-22.89 -14.98,-32.32 2.91,-1.68 5.12,-4.418 6.35,-9.66 0.38,-1.578 0.81,-3.231 1.24,-4.879 l 1.01,0.66 c 10.23,12.281 32.82,13.66 28.55,31.379 4.57,-5.289 9.85,-10.219 13.58,-14.578 2.87,-3.364 17.22,-8.051 14.57,0.808 -2.58,8.621 9.47,11.641 8.31,19.5 -0.36,2.418 -2.38,3.891 -4.49,5.09 4.95,0.672 9.99,1.559 13.88,3.899 2.13,1.293 6.37,12.98 9.08,10.972 3.44,-2.531 10.45,-2.992 12.86,-0.91 4.61,-2.551 13.93,-4.91 12.59,1.039 -2.37,6.629 -0.01,10.871 7.08,12.711 l 0.32,0.117 c -2.04,3.672 -4.06,7.313 -6.09,10.973" /><path
         id="path290"
         style="fill:#a06955;fill-opacity:1;fill-rule:nonzero;stroke:none"
         d="m 4436.91,1716.54 c -4.34,12.59 -16.55,22.08 -29.82,23.17 -13.28,1.09 -26.87,-6.27 -33.21,-17.98 -8.08,-14.93 -4.22,-33.23 -0.16,-49.71 3.95,-16.07 7.91,-32.15 11.87,-48.22 l 13.85,25.9 c 11.78,-0.78 21.19,9.44 27.45,19.45 8.86,14.16 15.46,31.59 10.02,47.39" /><path
         id="path292"
         style="fill:#635559;fill-opacity:1;fill-rule:nonzero;stroke:none"
         d="m 4404.96,1631.9 -40.53,11.8 -58.8,-169.85 56.53,-16.45 42.8,174.5" /><path
         id="path294"
         style="fill:#514247;fill-opacity:1;fill-rule:nonzero;stroke:none"
         d="m 4334.03,1513.62 c 15.57,7.36 31.16,13.62 46.56,18.91 l 24.37,99.37 -40.53,11.8 -48.13,-139.03 c 5.81,3.06 11.67,6.08 17.73,8.95" /><path
         id="path296"
         style="fill:#a3b7b2;fill-opacity:1;fill-rule:nonzero;stroke:none"
         d="m 4362.83,1673.55 c -58.69,21.67 -126.19,24.89 -182.74,-1.88 -10.47,-4.95 -20.67,-11.04 -28.22,-19.82 -15.92,-18.51 -17.28,-45.71 -12.1,-69.56 13.11,-60.27 62.26,-108.05 118.62,-133.09 56.37,-25.03 119.43,-30.32 181.11,-30.62 l 6.1,-8.37 c 11.39,20.59 13.79,45.95 6.48,68.32 -33.03,-5.65 -66.68,-7.61 -100.13,-5.84 -12.78,0.67 -26.81,2.49 -35.39,11.99 -6.17,6.83 -8.26,16.36 -9.5,25.49 -3.62,26.52 -2.1,53.73 4.46,79.67 2.01,7.97 4.83,16.31 11.29,21.38 7.64,6 18.3,5.87 27.97,5.02 46.02,-4.03 91.15,-18.04 131.36,-40.78 11.38,-6.45 26.53,-13.34 36.3,-4.64 -45.95,42.46 -96.92,81.06 -155.61,102.73" /><path
         id="path298"
         style="fill:#c17b65;fill-opacity:1;fill-rule:nonzero;stroke:none"
         d="m 4407.62,1733.53 c -7.64,0.63 -15.37,-2.15 -21.19,-7.11 0.36,-26.31 15.08,-48.4 35.2,-55.51 0.89,1.22 1.74,2.46 2.52,3.7 7.4,11.83 12.91,26.38 8.37,39.57 -3.62,10.52 -13.82,18.44 -24.9,19.35" /><path
         id="path300"
         style="fill:#8ba59e;fill-opacity:1;fill-rule:nonzero;stroke:none"
         d="m 4288.68,1535.63 c 0,58.16 22.35,109.9 57.12,143.55 -54.45,16.32 -114.55,16.71 -165.71,-7.51 -10.47,-4.95 -20.67,-11.04 -28.22,-19.82 -15.92,-18.51 -17.28,-45.71 -12.1,-69.56 13.11,-60.27 62.26,-108.05 118.62,-133.09 18.57,-8.24 37.91,-14.18 57.65,-18.67 -17.2,29.79 -27.36,65.98 -27.36,105.1" /><path
         id="path302"
         style="fill:#b7cec8;fill-opacity:1;fill-rule:nonzero;stroke:none"
         d="m 4351.19,1634.03 c 63.45,-12.23 118.7,-36.74 158.2,-67.1 3.29,0.38 6.38,1.51 9.05,3.89 -45.95,42.46 -96.92,81.06 -155.61,102.73 -58.69,21.67 -126.19,24.89 -182.74,-1.88 -10.47,-4.95 -20.67,-11.04 -28.22,-19.82 -9.04,-10.51 -13.27,-23.85 -14.39,-37.76 51.48,27 129.91,36.09 213.71,19.94" /><path
         id="path304"
         style="fill:#c1d3ce;fill-opacity:1;fill-rule:nonzero;stroke:none"
         d="m 4212.07,1144.59 c -8.41,-39.55 -16.18,-81.56 -23.16,-125.73 l 120.28,64.96 c 1.81,41.48 10.09,136.43 13.36,173.15 l -110.48,-112.38" /><path
         id="path306"
         style="fill:#819992;fill-opacity:1;fill-rule:nonzero;stroke:none"
         d="m 4504.56,1568.45 c -23.28,13.17 -48.24,23.31 -74.04,30.38 17.84,-6.3 35.15,-14.06 51.62,-23.37 7.69,-4.36 17.06,-8.79 25.37,-8.61 -0.99,0.53 -2,1.06 -2.95,1.6" /><path
         id="path308"
         style="fill:#819992;fill-opacity:1;fill-rule:nonzero;stroke:none"
         d="m 4280.82,1442.19 c -56.37,25.04 -105.51,72.82 -118.62,133.09 -5.19,23.85 -3.82,51.05 12.09,69.56 7.56,8.78 17.76,14.87 28.23,19.82 48.64,23.03 105.37,23.82 157.64,9.82 -58.07,20.79 -124.38,23.56 -180.07,-2.81 -10.47,-4.95 -20.67,-11.04 -28.22,-19.82 -15.92,-18.51 -17.28,-45.71 -12.1,-69.56 13.11,-60.27 62.26,-108.05 118.62,-133.09 14.04,-6.23 28.49,-11.24 43.24,-15.25 -7.02,2.48 -13.97,5.21 -20.81,8.24" /><path
         id="path310"
         style="fill:#819992;fill-opacity:1;fill-rule:nonzero;stroke:none"
         d="m 4452.08,1478.53 c -33.03,-5.65 -66.68,-7.61 -100.13,-5.84 -2.56,0.13 -5.16,0.34 -7.76,0.62 8.46,-5.68 19.72,-7.08 30.19,-7.63 26.75,-1.42 53.61,-0.33 80.2,3 -0.65,3.33 -1.45,6.63 -2.5,9.85" /><path
         id="path312"
         style="fill:#819992;fill-opacity:1;fill-rule:nonzero;stroke:none"
         d="m 4444.4,1411.86 1.2,-1.65 0.79,1.61 z" /><path
         id="path314"
         style="fill:#c9a67b;fill-opacity:1;fill-rule:nonzero;stroke:none"
         d="m 1326.72,719.801 c 372.87,148.59 756.96,-61.68 756.96,-61.68 l -585.94,-70.09 -171.02,131.77" /><path
         id="path316"
         style="fill:#a3825b;fill-opacity:1;fill-rule:nonzero;stroke:none"
         d="m 1279.06,602.98 c 245.1,170.809 614.91,130.84 614.91,130.84 -132.17,34.641 -258.01,52.789 -369.84,34.371 -26.24,33.649 -40.18,68.02 -28.44,103.879 -360.72,-57.941 -330.64,-336.371 -216.63,-269.09" /><path
         id="path318"
         style="fill:#677752;fill-opacity:1;fill-rule:nonzero;stroke:none"
         d="m 1625.5,881.031 c 34.38,-13.582 59.39,13.199 59.39,13.199 l -19.1,-50.898 c 0,0 -6.76,-5.652 -18.95,-2.91 -26.68,19.558 -21.34,40.609 -21.34,40.609" /><path
         id="path320"
         style="fill:#809668;fill-opacity:1;fill-rule:nonzero;stroke:none"
         d="m 1684.89,894.23 c 3.49,35.141 -24.85,78.54 -34.03,93.61 -19.02,31.22 -52.49,51.05 -86.99,63.13 -34.49,12.08 -70.91,17.59 -106.09,27.5 -32.08,9.03 -63.01,21.93 -92.21,37.96 10.35,-11.88 20.46,-24.11 31.98,-34.74 34.87,-32.14 81.19,-48.09 125.34,-65.42 44.15,-17.321 89.5,-38.43 117.43,-76.77 19.98,-27.43 29.26,-62.449 25.47,-96.168 l 19.1,50.898" /><path
         id="path322"
         style="fill:#a06955;fill-opacity:1;fill-rule:nonzero;stroke:none"
         d="m 3192.14,975.621 10.86,24.539 -0.69,79.2 23.82,1.75 140.88,-74.3 8.76,-26.798 -133.87,-3.332 -49.76,-1.059" /><path
         id="path324"
         style="fill:#d8b46c;fill-opacity:1;fill-rule:nonzero;stroke:none"
         d="m 3346.05,1112.05 -126.53,18.06 -14.63,-24.87 22.12,-124.06 149.11,2.711 14.63,24.869 -44.7,103.29" /><path
         id="path326"
         style="fill:#edcb7e;fill-opacity:1;fill-rule:nonzero;stroke:none"
         d="m 3360.68,1136.93 -141.16,-6.82 22.12,-124.06 149.11,2.71 -30.07,128.17" /><path
         id="path328"
         style="fill:#6d554e;fill-opacity:1;fill-rule:nonzero;stroke:none"
         d="m 3314.41,1052.28 c -0.85,1.5 -1.65,3.09 -1.82,4.69 -0.13,1.34 0.17,2.59 0.53,3.78 2.06,6.98 5.77,13.14 7.11,20.43 1.35,7.28 -0.38,16.56 -6.84,21.94 -1.72,1.43 -3.67,2.49 -5.65,3.31 -8.95,3.7 -19.17,1.95 -23.69,-5.15 -4.52,-7.1 -1.92,-19.28 6.15,-25.25 1.34,-0.99 2.86,-1.88 3.74,-3.32 0.65,-1.06 0.84,-2.27 1.02,-3.43 2.03,-13.38 4.07,-26.76 6.1,-40.15 l 5.59,-0.66 c 11.9,-0.61 23.64,-0.13 35.04,1.43 -10.96,3.44 -21.24,11.88 -27.28,22.38" /><path
         id="path330"
         style="fill:#7a4131;fill-opacity:1;fill-rule:nonzero;stroke:none"
         d="m 2967.45,1072.4 c -40.91,22.53 -80.17,48.83 -115.82,77.9 l 33.85,0.93 c 36.68,-18.11 74.59,-32.9 112.08,-43.87 -1.11,-11.39 -2.37,-22.8 -3.78,-34.29 l -26.33,-0.67 m -134.67,93.82 c -16.21,14.19 -31.55,28.96 -45.8,44.2 22.06,-15.97 45.34,-30.67 69.36,-43.95 l -23.56,-0.25" /><path
         id="path332"
         style="fill:#854737;fill-opacity:1;fill-rule:nonzero;stroke:none"
         d="m 2993.78,1073.07 c 1.41,11.49 2.67,22.9 3.78,34.29 25.81,-7.56 51.42,-13.3 76.31,-17.07 27.38,-4.15 53.87,-6.11 79.35,-6.11 18.87,0 37.17,1.08 54.87,3.15 l 1.32,-7.45 -7.1,-0.52 0.01,-1.06 -76.68,-1.92 -131.86,-3.31" /><path
         id="path334"
         style="fill:#53352d;fill-opacity:1;fill-rule:nonzero;stroke:none"
         d="m 2851.63,1150.3 c -6.4,5.22 -12.69,10.52 -18.85,15.92 l 23.56,0.25 c 9.6,-5.31 19.33,-10.39 29.14,-15.24 l -33.85,-0.93" /><path
         id="path336"
         style="fill:#a5703e;fill-opacity:1;fill-rule:nonzero;stroke:none"
         d="m 3199.57,992.41 c -12.12,1.531 -24.38,3.57 -36.78,6.09 l 39.93,1.012 -3.15,-7.102" /><path
         id="path338"
         style="fill:#b57f48;fill-opacity:1;fill-rule:nonzero;stroke:none"
         d="m 3092.41,1017.41 c -9.4,3.12 -18.84,6.48 -28.24,10.06 l 34.43,0.93 -6.19,-10.99 m -55.3,20.99 c -23.51,10.05 -46.85,21.44 -69.66,34 l 26.33,0.67 131.86,3.31 -20.33,-36.07 -68.2,-1.91" /><path
         id="path340"
         style="fill:#c28c5d;fill-opacity:1;fill-rule:nonzero;stroke:none"
         d="m 3162.79,998.5 c -23.16,4.69 -46.73,11.06 -70.38,18.91 l 6.19,10.99 104.13,2.78 0.27,-31.02 -0.28,-0.648 -39.93,-1.012 m -57.48,41.81 20.33,36.07 76.68,1.92 0.31,-35.27 -97.32,-2.72" /><path
         id="path342"
         style="fill:#53352d;fill-opacity:1;fill-rule:nonzero;stroke:none"
         d="m 3064.17,1027.47 c -9.04,3.45 -18.06,7.09 -27.06,10.93 l 68.2,1.91 97.32,2.72 0.1,-11.85 -104.13,-2.78 -34.43,-0.93" /><path
         id="path344"
         style="fill:#7a4131;fill-opacity:1;fill-rule:nonzero;stroke:none"
         d="m 3225.46,989.891 c -8.52,0.57 -17.17,1.41 -25.89,2.519 l 3.15,7.102 0.28,0.648 -0.27,31.02 -0.1,11.85 -0.31,35.27 -0.01,1.06 7.1,0.52 16.05,-89.989" /><path
         id="path346"
         style="fill:#a5703e;fill-opacity:1;fill-rule:nonzero;stroke:none"
         d="m 3251.46,989 c -8.54,0 -17.21,0.301 -26,0.891 l -16.05,89.989 -1.32,7.45 c 6.27,0.73 12.48,1.59 18.6,2.57 l 14.95,-83.85 90.4,1.65 c -24.12,-10.802 -47,-17.759 -68.42,-18.489 -4.03,-0.141 -8.06,-0.211 -12.16,-0.211" /><path
         id="path348"
         style="fill:#c29f92;fill-opacity:1;fill-rule:nonzero;stroke:none"
         d="m 3708.4,1180.91 c -33.95,46.54 -69.38,90.89 -105.84,130.94 2.32,0.71 4.67,1.39 7.05,2.05 34.1,-40.93 67.28,-85.79 99.08,-132.58 -0.1,-0.14 -0.19,-0.28 -0.29,-0.41" /><path
         id="path350"
         style="fill:#615e3c;fill-opacity:1;fill-rule:nonzero;stroke:none"
         d="m 3716.76,1169.36 c -2.77,3.85 -5.57,7.72 -8.36,11.55 0.1,0.13 0.19,0.27 0.29,0.41 2.7,-3.98 5.39,-7.96 8.07,-11.96" /><path
         id="path352"
         style="fill:#7a4131;fill-opacity:1;fill-rule:nonzero;stroke:none"
         d="m 3373.43,1082.6 -8.05,34.31 c -0.66,7.2 -1.37,14.35 -2.15,21.48 5.54,3.32 10.94,6.78 16.18,10.36 7.84,5.36 15.38,10.98 22.69,16.79 l 311.17,8.62 -1.14,1.58 -301.52,-3.26 c 50.76,42.25 91.97,92.63 154.43,124.42 11.47,5.83 24.07,10.84 37.52,14.95 36.46,-40.05 71.89,-84.4 105.84,-130.94 2.79,-3.83 5.59,-7.7 8.36,-11.55 0.14,-0.21 0.28,-0.42 0.42,-0.63 -9.16,1.24 -18.31,1.82 -27.44,1.82 -77.33,0 -153.54,-42.04 -224.43,-85.65 l -91.88,-2.3" /><path
         id="path354"
         style="fill:#854737;fill-opacity:1;fill-rule:nonzero;stroke:none"
         d="m 3365.38,1116.91 -4.69,19.97 c 0.85,0.5 1.69,1 2.54,1.51 0.78,-7.13 1.49,-14.28 2.15,-21.48" /><path
         id="path356"
         style="fill:#53352d;fill-opacity:1;fill-rule:nonzero;stroke:none"
         d="m 3402.1,1165.54 c 2.87,2.29 5.71,4.6 8.51,6.94 l 301.52,3.26 1.14,-1.58 -311.17,-8.62" /><path
         id="path358"
         style="fill:#c28c5d;fill-opacity:1;fill-rule:nonzero;stroke:none"
         d="m 3384.53,1035.28 -0.18,0.76 1.55,0.04 c -0.46,-0.27 -0.91,-0.53 -1.37,-0.8 m -2.99,12.74 -8.11,34.58 91.88,2.3 c -19.89,-12.23 -39.35,-24.58 -58.31,-36.17 l -25.46,-0.71" /><path
         id="path360"
         style="fill:#53352d;fill-opacity:1;fill-rule:nonzero;stroke:none"
         d="m 3384.35,1036.04 -2.81,11.98 25.46,0.71 c -7.1,-4.33 -14.15,-8.58 -21.1,-12.65 l -1.55,-0.04" /><path
         id="path362"
         style="fill:#b57f48;fill-opacity:1;fill-rule:nonzero;stroke:none"
         d="m 3241.64,1006.05 -14.95,83.85 c 20.83,3.34 40.71,8.07 59.58,14.05 -0.84,-0.78 -1.59,-1.67 -2.22,-2.67 -4.52,-7.1 -1.92,-19.28 6.15,-25.25 1.34,-0.99 2.86,-1.88 3.74,-3.32 0.65,-1.06 0.84,-2.27 1.02,-3.43 2.03,-13.38 4.07,-26.76 6.1,-40.15 l 5.59,-0.66 c 3.35,-0.17 6.69,-0.26 10.01,-0.26 8.48,0 16.84,0.57 25.03,1.69 -10.96,3.44 -21.24,11.88 -27.28,22.38 -0.85,1.5 -1.65,3.09 -1.82,4.69 -0.13,1.34 0.17,2.59 0.53,3.78 2.06,6.98 5.77,13.14 7.11,20.43 1.35,7.28 -0.38,16.56 -6.84,21.94 -1.72,1.43 -3.67,2.49 -5.65,3.31 -2.79,1.15 -5.71,1.78 -8.53,1.88 22.07,7.86 42.63,17.48 61.48,28.57 l 4.69,-19.97 8.05,-34.31 8.11,-34.58 2.81,-11.98 0.18,-0.76 c -18.05,-10.54 -35.57,-20.01 -52.49,-27.58 l -90.4,-1.65" /><path
         id="path364"
         style="fill:#53352d;fill-opacity:1;fill-rule:nonzero;stroke:none"
         d="m 3316.66,1028.21 c -3.32,0 -6.66,0.09 -10.01,0.26 l -5.59,0.66 c -2.03,13.39 -4.07,26.77 -6.1,40.15 -0.18,1.16 -0.37,2.37 -1.02,3.43 -0.88,1.44 -2.4,2.33 -3.74,3.32 -8.07,5.97 -10.67,18.15 -6.15,25.25 0.63,1 1.38,1.89 2.22,2.67 4.37,1.39 8.68,2.84 12.94,4.36 2.82,-0.1 5.74,-0.73 8.53,-1.88 1.98,-0.82 3.93,-1.88 5.65,-3.31 6.46,-5.38 8.19,-14.66 6.84,-21.94 -1.34,-7.29 -5.05,-13.45 -7.11,-20.43 -0.36,-1.19 -0.66,-2.44 -0.53,-3.78 0.17,-1.6 0.97,-3.19 1.82,-4.69 6.04,-10.5 16.32,-18.94 27.28,-22.38 -8.19,-1.12 -16.55,-1.69 -25.03,-1.69" /></g></g></svg>