<svg width="261" height="376" viewBox="0 0 261 376" fill="none" xmlns="http://www.w3.org/2000/svg">
<g filter="url(#filter0_d_9_97)">
<g clip-path="url(#clip0_9_97)">
<path d="M240.876 1.5H19.1237C15.3778 1.5 11.7854 3.00337 9.13673 5.67937C6.48803 8.35538 5 11.9848 5 15.7693V355.221C5 359.006 6.48771 362.636 9.13612 365.314C11.7845 367.992 15.3769 369.497 19.1237 369.5H240.876C244.621 369.497 248.212 367.993 250.86 365.318C253.509 362.642 254.997 359.014 255 355.231V15.7693C255 11.9848 253.512 8.35538 250.863 5.67937C248.215 3.00337 244.622 1.5 240.876 1.5ZM223.48 215.46C223.491 217.684 221.684 219.49 219.46 219.479L128 219H40.4885C38.2839 219 36.4949 217.216 36.4885 215.011L36.0116 49.0215C36.0052 46.804 37.804 45.0045 40.0215 45.01L218.685 45.4559C220.883 45.4614 222.665 47.2389 222.675 49.4365L223.48 215.46Z" fill="#D5D5D5"/>
<path d="M241.65 367.44H19.17C15.1483 367.435 11.2928 365.835 8.44904 362.991C5.60526 360.147 4.00529 356.292 4 352.27V15.17C4.00529 11.1483 5.60526 7.29282 8.44904 4.44904C11.2928 1.60526 15.1483 0.00529173 19.17 0H241.65C245.672 0.00529173 249.527 1.60526 252.371 4.44904C255.215 7.29282 256.815 11.1483 256.82 15.17V352.26C256.817 356.283 255.219 360.141 252.374 362.987C249.53 365.833 245.673 367.435 241.65 367.44ZM19.17 2C15.6787 2.00529 12.332 3.39454 9.86325 5.86325C7.39454 8.33196 6.00529 11.6787 6 15.17V352.26C6.00264 355.753 7.39072 359.102 9.85972 361.573C12.3287 364.044 15.677 365.435 19.17 365.44H241.65C245.141 365.435 248.488 364.045 250.957 361.577C253.425 359.108 254.815 355.761 254.82 352.27V15.17C254.815 11.6787 253.425 8.33196 250.957 5.86325C248.488 3.39454 245.141 2.00529 241.65 2H19.17Z" fill="black"/>
<path d="M235.84 1H24.98C21.2219 1 17.6177 2.49291 14.9603 5.1503C12.3029 7.80769 10.81 11.4119 10.81 15.17V352.26C10.81 356.019 12.3026 359.624 14.9597 362.283C17.6168 364.942 21.221 366.437 24.98 366.44H235.84C239.597 366.437 243.2 364.944 245.857 362.287C248.514 359.63 250.007 356.027 250.01 352.27V15.17C250.01 13.3092 249.643 11.4666 248.931 9.74738C248.219 8.02819 247.176 6.46611 245.86 5.1503C244.544 3.83449 242.982 2.79074 241.263 2.07863C239.543 1.36652 237.701 1 235.84 1ZM223.37 218.5H130H37.23V44.17H223.37V218.5Z" fill="#D5D5D5"/>
<path d="M235.84 367.44H24.98C20.9583 367.435 17.1028 365.835 14.259 362.991C11.4152 360.147 9.81529 356.292 9.81 352.27V15.17C9.81529 11.1483 11.4152 7.29282 14.259 4.44904C17.1028 1.60526 20.9583 0.00529173 24.98 0H235.84C239.862 0.00529173 243.717 1.60526 246.561 4.44904C249.405 7.29282 251.005 11.1483 251.01 15.17V352.26C251.007 356.283 249.409 360.141 246.564 362.987C243.72 365.833 239.863 367.435 235.84 367.44ZM24.98 2C21.4887 2.00529 18.1419 3.39454 15.6732 5.86325C13.2045 8.33196 11.8153 11.6787 11.81 15.17V352.26C11.8126 355.753 13.2007 359.102 15.6697 361.573C18.1387 364.044 21.487 365.435 24.98 365.44H235.84C239.331 365.435 242.678 364.045 245.147 361.577C247.615 359.108 249.005 355.761 249.01 352.27V15.17C249.005 11.6787 247.615 8.33196 245.147 5.86325C242.678 3.39454 239.331 2.00529 235.84 2H24.98Z" fill="black"/>
<path d="M221.22 13.25H39.38C36.1327 13.2447 33.02 11.9524 30.7238 9.65622C28.4276 7.36004 27.1353 4.24728 27.13 1V0H233.47V1C233.467 4.24809 232.176 7.36239 229.879 9.65913C227.582 11.9559 224.468 13.2474 221.22 13.25ZM29.22 2C29.4727 4.53129 30.6558 6.87875 32.5402 8.58764C34.4246 10.2965 36.8761 11.2452 39.42 11.25H221.22C223.764 11.2452 226.215 10.2965 228.1 8.58764C229.984 6.87875 231.167 4.53129 231.42 2H29.22Z" fill="black"/>
<path d="M170.14 13.25H90.46C87.2137 13.2447 84.1019 11.9521 81.8073 9.65561C79.5127 7.35915 78.2226 4.24636 78.22 1V0H182.38V1C182.377 4.24636 181.087 7.35915 178.793 9.65561C176.498 11.9521 173.386 13.2447 170.14 13.25ZM80.27 2C80.5203 4.53044 81.7014 6.87778 83.5841 8.58687C85.4669 10.296 87.9172 11.245 90.46 11.25H170.14C172.684 11.2452 175.135 10.2965 177.02 8.58764C178.904 6.87875 180.087 4.53129 180.34 2H80.27Z" fill="black"/>
<path d="M122.35 6.62H138.25" stroke="black" stroke-width="3" stroke-linecap="round" stroke-linejoin="round"/>
<path d="M204.08 367.44H56.53V366.44C56.5326 363.192 57.8241 360.078 60.1209 357.781C62.4176 355.484 65.5319 354.193 68.78 354.19H191.78C193.393 354.185 194.99 354.498 196.482 355.111C197.973 355.724 199.329 356.625 200.471 357.763C201.614 358.901 202.521 360.253 203.14 361.742C203.759 363.231 204.079 364.827 204.08 366.44V367.44ZM58.58 365.44H202.02C201.77 362.908 200.587 360.559 198.702 358.85C196.817 357.14 194.365 356.193 191.82 356.19H68.82C66.2692 356.185 63.8078 357.129 61.915 358.839C60.0221 360.549 58.8333 362.902 58.58 365.44Z" fill="black"/>
<path d="M55 230.75L202.55 230.75V231.75C202.547 234.998 201.256 238.112 198.959 240.409C196.662 242.706 193.548 243.997 190.3 244L67.3 244C65.6874 244.005 64.0897 243.692 62.5983 243.079C61.1069 242.466 59.7511 241.565 58.6085 240.427C57.466 239.289 56.5591 237.937 55.9399 236.448C55.3207 234.959 55.0013 233.362 55 231.75V230.75ZM200.5 232.75L57.06 232.75C57.3105 235.282 58.4929 237.631 60.3778 239.34C62.2627 241.049 64.7155 241.997 67.26 242L190.26 242C192.811 242.005 195.272 241.061 197.165 239.351C199.058 237.641 200.247 235.288 200.5 232.75Z" fill="black"/>
<path d="M20 32V231H240V32H20ZM223.028 217.5H130.5L37.5 218.5L38 46.5L222.5 46L223.028 217.5Z" fill="#FFD401"/>
<path d="M20 32V231H240V32H20ZM223.028 217.5H130.5L37.5 218.5L38 46.5L222.5 46L223.028 217.5Z" fill="#AEAEAE"/>
<path d="M241 233H19V31H241V233ZM20.9991 230.606H239.001V33.3942H20.9991V230.606Z" fill="black"/>
<path d="M224 220H36V44H224V220ZM37.9985 217.541H222.001V46.4595H37.9985V217.541Z" fill="black"/>
<path d="M75.7443 287.414C78.3472 276.386 71.5171 265.335 60.4888 262.732C49.4606 260.129 38.4103 266.96 35.8074 277.988C33.2045 289.016 40.0346 300.066 51.0629 302.669C62.0911 305.272 73.1414 298.442 75.7443 287.414Z" fill="#AEAEAE"/>
<path d="M56 304C51.8466 304 47.7865 302.768 44.333 300.461C40.8796 298.153 38.188 294.874 36.5985 291.036C35.0091 287.199 34.5932 282.977 35.4035 278.903C36.2138 274.83 38.2139 271.088 41.1508 268.151C44.0877 265.214 47.8295 263.214 51.9031 262.404C55.9767 261.593 60.1991 262.009 64.0364 263.599C67.8736 265.188 71.1534 267.88 73.4609 271.333C75.7684 274.786 77 278.847 77 283C76.9866 288.565 74.7698 293.899 70.8345 297.834C66.8991 301.77 61.5654 303.987 56 304ZM56 263.398C52.133 263.398 48.3529 264.544 45.1376 266.693C41.9224 268.841 39.4164 271.895 37.9366 275.467C36.4567 279.04 36.0696 282.971 36.824 286.764C37.5784 290.556 39.4405 294.04 42.1749 296.774C44.9092 299.509 48.393 301.371 52.1856 302.125C55.9783 302.88 59.9095 302.493 63.4821 301.013C67.0547 299.533 70.1083 297.027 72.2567 293.812C74.405 290.596 75.5517 286.816 75.5517 282.949C75.5383 277.768 73.4741 272.803 69.8104 269.139C66.1466 265.475 61.1813 263.411 56 263.398Z" fill="black"/>
<path d="M61.1845 257H54.8155C52.156 257 50 259.141 50 261.782V305.218C50 307.859 52.156 310 54.8155 310H61.1845C63.844 310 66 307.859 66 305.218V261.782C66 259.141 63.844 257 61.1845 257Z" fill="black"/>
<path d="M61.2793 310H54.7207C53.2035 310 51.7484 309.424 50.6756 308.398C49.6027 307.372 49 305.981 49 304.531V261.469C49.002 260.019 49.6054 258.629 50.6778 257.604C51.7502 256.579 53.2041 256.002 54.7207 256H61.2793C62.7959 256.002 64.2498 256.579 65.3222 257.604C66.3946 258.629 66.998 260.019 67 261.469V304.531C67 305.981 66.3973 307.372 65.3245 308.398C64.2516 309.424 62.7965 310 61.2793 310ZM54.7207 257.457C53.6075 257.457 52.5399 257.879 51.7528 258.632C50.9657 259.384 50.5235 260.405 50.5235 261.469V304.531C50.5235 305.595 50.9657 306.616 51.7528 307.368C52.5399 308.121 53.6075 308.543 54.7207 308.543H61.2793C62.3925 308.543 63.4601 308.121 64.2472 307.368C65.0343 306.616 65.4765 305.595 65.4765 304.531V261.469C65.4765 260.405 65.0343 259.384 64.2472 258.632C63.4601 257.879 62.3925 257.457 61.2793 257.457H54.7207Z" fill="black"/>
<path d="M84 286.184V279.816C84 277.156 81.859 275 79.2179 275H35.7821C33.141 275 31 277.156 31 279.816V286.184C31 288.844 33.141 291 35.7821 291H79.2179C81.859 291 84 288.844 84 286.184Z" fill="black"/>
<path d="M79.5454 292H36.4692C35.0193 291.998 33.6293 291.428 32.604 290.413C31.5788 289.399 31.0019 288.024 31 286.59V280.395C31.0058 278.964 31.5843 277.592 32.6091 276.581C33.634 275.57 35.0218 275.002 36.4692 275H79.5308C80.982 275.002 82.3731 275.573 83.3986 276.589C84.424 277.605 85 278.982 85 280.417V286.612C84.9923 288.04 84.415 289.407 83.3935 290.416C82.372 291.425 80.989 291.994 79.5454 292ZM36.4692 276.441C35.4043 276.443 34.3837 276.862 33.6314 277.608C32.879 278.353 32.4565 279.364 32.4565 280.417V286.612C32.4623 287.661 32.8876 288.665 33.6395 289.404C34.3914 290.144 35.4087 290.559 36.4692 290.559H79.5308C80.595 290.559 81.6157 290.141 82.3682 289.397C83.1207 288.652 83.5435 287.643 83.5435 286.59V280.395C83.5435 279.342 83.121 278.332 82.3686 277.586C81.6163 276.841 80.5957 276.421 79.5308 276.419L36.4692 276.441Z" fill="black"/>
<path d="M77.2179 274.182H63.4445V260.695C63.4455 260.078 63.3224 259.467 63.0824 258.897C62.8425 258.327 62.4902 257.809 62.046 257.373C61.6017 256.937 61.0742 256.591 60.4935 256.355C59.9129 256.12 59.2906 255.999 58.6624 256H52.3376C51.0693 256 49.853 256.495 48.9562 257.375C48.0593 258.256 47.5555 259.45 47.5555 260.695V274.182H33.7821C33.1539 274.181 32.5316 274.302 31.9509 274.537C31.3703 274.773 30.8427 275.119 30.3985 275.555C29.9542 275.991 29.602 276.509 29.3621 277.079C29.1221 277.649 28.999 278.26 29 278.877V285.087C29 286.332 29.5038 287.526 30.4006 288.407C31.2975 289.287 32.5138 289.782 33.7821 289.782H47.5555V303.305C47.5555 304.55 48.0593 305.744 48.9562 306.625C49.853 307.505 51.0693 308 52.3376 308H58.6624C59.2906 308.001 59.9129 307.88 60.4935 307.645C61.0742 307.409 61.6017 307.063 62.046 306.627C62.4902 306.191 62.8425 305.673 63.0824 305.103C63.3224 304.533 63.4455 303.922 63.4445 303.305V289.782H77.2179C78.4862 289.782 79.7025 289.287 80.5993 288.407C81.4962 287.526 82 286.332 82 285.087V278.877C82.001 278.26 81.8779 277.649 81.638 277.079C81.398 276.509 81.0458 275.991 80.6015 275.555C80.1572 275.119 79.6297 274.773 79.0491 274.537C78.4684 274.302 77.8461 274.181 77.2179 274.182Z" fill="white"/>
<path d="M58.1351 309H51.8649C50.4149 308.998 49.0249 308.421 47.9997 307.395C46.9744 306.369 46.3976 304.978 46.3957 303.527V290.592H33.4692C32.0193 290.59 30.6293 290.013 29.604 288.987C28.5788 287.961 28.0019 286.57 28 285.119V278.845C28.0019 277.394 28.5788 276.003 29.604 274.977C30.6293 273.951 32.0193 273.374 33.4692 273.372H46.3957V260.473C46.3957 259.021 46.9719 257.629 47.9976 256.603C49.0232 255.577 50.4143 255 51.8649 255H58.1351C59.5856 255 60.9768 255.577 62.0024 256.603C63.0281 257.629 63.6043 259.021 63.6043 260.473V273.372H76.5308C77.9807 273.374 79.3707 273.951 80.396 274.977C81.4212 276.003 81.9981 277.394 82 278.845V285.119C81.9981 286.57 81.4212 287.961 80.396 288.987C79.3707 290.013 77.9807 290.59 76.5308 290.592H63.6043V303.527C63.6024 304.978 63.0256 306.369 62.0003 307.395C60.975 308.421 59.5851 308.998 58.1351 309ZM33.4692 274.829C32.405 274.829 31.3843 275.252 30.6318 276.005C29.8793 276.758 29.4565 277.78 29.4565 278.845V285.119C29.4584 286.183 29.8818 287.204 30.6339 287.956C31.386 288.709 32.4055 289.132 33.4692 289.134H47.8522V303.527C47.8541 304.591 48.2775 305.612 49.0296 306.364C49.7817 307.117 50.8012 307.541 51.8649 307.543H58.1351C59.1994 307.543 60.22 307.119 60.9725 306.366C61.725 305.613 62.1478 304.592 62.1478 303.527V289.134H76.5308C77.5945 289.132 78.614 288.709 79.3661 287.956C80.1182 287.204 80.5416 286.183 80.5435 285.119V278.845C80.5435 277.78 80.1207 276.758 79.3682 276.005C78.6157 275.252 77.595 274.829 76.5308 274.829H62.1478V260.473C62.1478 259.408 61.725 258.387 60.9725 257.634C60.22 256.881 59.1994 256.457 58.1351 256.457H51.8649C50.8012 256.459 49.7817 256.883 49.0296 257.636C48.2775 258.388 47.8541 259.409 47.8522 260.473V274.829H33.4692Z" fill="black"/>
<path d="M52 264L55.018 261L58 263.957" fill="white"/>
<path d="M53.0123 264L52 263.106L55.5179 260L59 263.074L57.9877 263.968L55.5179 261.794L53.0123 264Z" fill="black"/>
<path d="M58 300L54.982 303L52 300.036" fill="white"/>
<path d="M55.4821 304L52 300.157L53.0123 299.04L55.4821 301.758L57.9877 299L59 300.117L55.4821 304Z" fill="black"/>
<path d="M73 279L76 282.018L73.0357 285" fill="white"/>
<path d="M73.9255 285L73.0317 283.988L75.206 281.518L73 279.012L73.8938 278L77 281.518L73.9255 285Z" fill="black"/>
<path d="M37 285L34 281.982L36.9714 279" fill="white"/>
<path d="M36.8827 285L33 281.482L36.8431 278L37.9604 279.012L35.2425 281.482L38 283.988L36.8827 285Z" fill="black"/>
<path d="M55 288C57.7614 288 60 285.538 60 282.5C60 279.462 57.7614 277 55 277C52.2386 277 50 279.462 50 282.5C50 285.538 52.2386 288 55 288Z" fill="white"/>
<path d="M55.0073 288C53.82 288.001 52.659 287.651 51.6712 286.992C50.6833 286.333 49.9132 285.396 49.4581 284.299C49.0031 283.203 48.8837 281.996 49.1149 280.831C49.3462 279.667 49.9178 278.597 50.7574 277.757C51.5969 276.918 52.6667 276.346 53.8313 276.115C54.9958 275.884 56.2028 276.003 57.2995 276.458C58.3961 276.913 59.3331 277.683 59.9919 278.671C60.6506 279.659 61.0014 280.82 61 282.007C60.9961 283.595 60.3635 285.118 59.2405 286.241C58.1175 287.364 56.5955 287.996 55.0073 288ZM55.0073 277.474C54.1105 277.473 53.2334 277.737 52.4869 278.235C51.7405 278.732 51.1584 279.439 50.8142 280.268C50.4699 281.096 50.3791 282.007 50.5532 282.887C50.7273 283.767 51.1584 284.575 51.7921 285.21C52.4257 285.845 53.2334 286.277 54.1129 286.453C54.9925 286.628 55.9043 286.539 56.733 286.196C57.5617 285.853 58.2701 285.272 58.7685 284.526C59.267 283.781 59.533 282.904 59.533 282.007C59.534 281.412 59.4177 280.822 59.1908 280.272C58.9638 279.722 58.6308 279.221 58.2105 278.8C57.7903 278.378 57.2911 278.044 56.7415 277.815C56.1919 277.586 55.6026 277.468 55.0073 277.467V277.474Z" fill="black"/>
<path d="M182.5 291C186.642 291 190 287.642 190 283.5C190 279.358 186.642 276 182.5 276C178.358 276 175 279.358 175 283.5C175 287.642 178.358 291 182.5 291Z" fill="black"/>
<path d="M182.521 292C180.839 292.004 179.194 291.509 177.793 290.578C176.393 289.647 175.3 288.321 174.654 286.769C174.007 285.216 173.835 283.507 174.16 281.857C174.485 280.207 175.293 278.69 176.48 277.499C177.667 276.308 179.181 275.496 180.83 275.166C182.479 274.835 184.189 275.001 185.743 275.643C187.298 276.285 188.627 277.373 189.563 278.771C190.498 280.168 190.999 281.811 191 283.493C190.998 285.744 190.105 287.903 188.516 289.497C186.927 291.091 184.771 291.991 182.521 292ZM182.521 276.376C181.109 276.372 179.727 276.787 178.552 277.568C177.376 278.35 176.459 279.463 175.916 280.767C175.374 282.07 175.23 283.505 175.504 284.89C175.778 286.276 176.457 287.548 177.455 288.547C178.453 289.546 179.725 290.226 181.11 290.501C182.494 290.776 183.93 290.634 185.234 290.093C186.538 289.552 187.652 288.636 188.435 287.461C189.217 286.286 189.634 284.905 189.631 283.493C189.626 281.608 188.875 279.802 187.543 278.469C186.211 277.135 184.405 276.383 182.521 276.376Z" fill="black"/>
<path d="M184.739 288.367C188.587 286.773 190.414 282.361 188.821 278.513C187.227 274.665 182.815 272.838 178.967 274.432C175.119 276.026 173.292 280.437 174.886 284.285C176.48 288.133 180.891 289.961 184.739 288.367Z" fill="#AEAEAE"/>
<path d="M182 290C180.418 290 178.871 289.501 177.555 288.567C176.24 287.634 175.214 286.306 174.609 284.753C174.003 283.2 173.845 281.491 174.154 279.842C174.462 278.193 175.224 276.678 176.343 275.49C177.462 274.301 178.887 273.491 180.439 273.163C181.991 272.835 183.6 273.004 185.061 273.647C186.523 274.29 187.773 275.38 188.652 276.778C189.531 278.175 190 279.819 190 281.5C189.998 283.754 189.155 285.915 187.655 287.508C186.155 289.102 184.121 289.998 182 290ZM182 274.369C180.673 274.369 179.375 274.787 178.271 275.571C177.167 276.354 176.307 277.468 175.799 278.771C175.291 280.074 175.158 281.508 175.417 282.891C175.676 284.275 176.315 285.545 177.254 286.543C178.193 287.54 179.389 288.219 180.691 288.494C181.993 288.769 183.342 288.628 184.568 288.088C185.795 287.549 186.843 286.635 187.581 285.462C188.318 284.289 188.712 282.91 188.712 281.5C188.703 279.613 187.993 277.807 186.735 276.475C185.478 275.143 183.776 274.393 182 274.389V274.369Z" fill="black"/>
<path d="M186.346 280C186.236 280.001 186.129 279.968 186.032 279.906C185.936 279.844 185.854 279.754 185.793 279.645C185.444 278.894 184.968 278.239 184.396 277.721C183.825 277.203 183.17 276.833 182.473 276.635C181.272 276.43 180.05 276.771 179.047 277.591C178.906 277.715 178.729 277.766 178.557 277.733C178.384 277.701 178.229 277.587 178.126 277.417C178.023 277.248 177.981 277.036 178.008 276.828C178.035 276.621 178.13 276.435 178.271 276.311C179.569 275.246 181.154 274.806 182.71 275.079C184.327 275.427 185.734 276.659 186.892 278.776C186.957 278.895 186.994 279.032 186.999 279.174C187.005 279.316 186.978 279.458 186.922 279.583C186.866 279.708 186.783 279.813 186.682 279.887C186.58 279.96 186.464 279.999 186.346 280Z" fill="white"/>
<path d="M199.5 275C203.642 275 207 271.642 207 267.5C207 263.358 203.642 260 199.5 260C195.358 260 192 263.358 192 267.5C192 271.642 195.358 275 199.5 275Z" fill="black"/>
<path d="M199.5 276C197.819 276 196.175 275.501 194.778 274.567C193.38 273.634 192.29 272.306 191.647 270.753C191.004 269.2 190.835 267.491 191.163 265.842C191.491 264.193 192.301 262.678 193.49 261.49C194.678 260.301 196.193 259.491 197.842 259.163C199.491 258.835 201.2 259.004 202.753 259.647C204.306 260.29 205.634 261.38 206.567 262.778C207.501 264.175 208 265.819 208 267.5C207.996 269.753 207.1 271.913 205.506 273.506C203.913 275.1 201.753 275.996 199.5 276ZM199.5 260.369C198.09 260.369 196.711 260.787 195.538 261.571C194.365 262.354 193.451 263.468 192.912 264.771C192.372 266.074 192.231 267.508 192.506 268.891C192.781 270.275 193.46 271.545 194.457 272.543C195.455 273.54 196.725 274.219 198.109 274.494C199.492 274.769 200.926 274.628 202.229 274.088C203.532 273.549 204.646 272.635 205.429 271.462C206.213 270.289 206.631 268.91 206.631 267.5C206.629 265.609 205.878 263.796 204.541 262.459C203.204 261.122 201.391 260.371 199.5 260.369Z" fill="black"/>
<path d="M199.5 273C203.642 273 207 269.642 207 265.5C207 261.358 203.642 258 199.5 258C195.358 258 192 261.358 192 265.5C192 269.642 195.358 273 199.5 273Z" fill="#FFD401"/>
<path d="M199 273C197.418 273 195.871 272.531 194.555 271.652C193.24 270.773 192.214 269.523 191.609 268.061C191.003 266.6 190.845 264.991 191.154 263.439C191.462 261.887 192.224 260.462 193.343 259.343C194.462 258.224 195.887 257.462 197.439 257.154C198.991 256.845 200.6 257.003 202.061 257.609C203.523 258.214 204.773 259.24 205.652 260.555C206.531 261.871 207 263.418 207 265C206.998 267.121 206.155 269.155 204.655 270.655C203.155 272.155 201.121 272.998 199 273ZM199 258.288C197.673 258.288 196.375 258.682 195.271 259.419C194.167 260.157 193.307 261.205 192.799 262.432C192.291 263.658 192.158 265.007 192.417 266.309C192.676 267.611 193.315 268.807 194.254 269.746C195.193 270.685 196.389 271.324 197.691 271.583C198.993 271.842 200.342 271.709 201.568 271.201C202.795 270.693 203.843 269.833 204.581 268.729C205.318 267.625 205.712 266.327 205.712 265C205.708 263.221 205 261.516 203.742 260.258C202.484 259 200.779 258.292 199 258.288Z" fill="black"/>
<path d="M204.346 263C204.238 262.999 204.132 262.973 204.037 262.924C203.942 262.874 203.861 262.803 203.802 262.716C202.852 261.335 201.739 260.521 200.487 260.307C199.291 260.147 198.075 260.419 197.074 261.07C197.006 261.125 196.926 261.166 196.84 261.19C196.754 261.215 196.664 261.222 196.575 261.211C196.487 261.201 196.401 261.173 196.324 261.13C196.247 261.086 196.18 261.028 196.127 260.958C196.074 260.889 196.036 260.81 196.016 260.726C195.997 260.642 195.995 260.555 196.011 260.47C196.027 260.385 196.062 260.305 196.112 260.233C196.162 260.162 196.226 260.101 196.301 260.054C197.592 259.197 199.172 258.843 200.723 259.064C202.335 259.348 203.737 260.326 204.89 262.016C204.937 262.085 204.971 262.163 204.988 262.244C205.004 262.326 205.004 262.41 204.987 262.491C204.97 262.573 204.936 262.65 204.888 262.719C204.84 262.788 204.778 262.847 204.706 262.893C204.6 262.962 204.474 262.999 204.346 263Z" fill="white"/>
<path d="M215.5 291C219.642 291 223 287.642 223 283.5C223 279.358 219.642 276 215.5 276C211.358 276 208 279.358 208 283.5C208 287.642 211.358 291 215.5 291Z" fill="black"/>
<path d="M216 292C214.418 292 212.872 291.502 211.556 290.568C210.241 289.634 209.215 288.307 208.61 286.754C208.004 285.202 207.845 283.493 208.153 281.844C208.461 280.196 209.223 278.681 210.341 277.492C211.459 276.303 212.884 275.493 214.435 275.164C215.987 274.835 217.595 275.003 219.057 275.645C220.519 276.287 221.769 277.376 222.649 278.773C223.528 280.17 223.999 281.812 224 283.493C224 285.748 223.157 287.911 221.657 289.506C220.157 291.101 218.122 291.998 216 292ZM216 276.376C214.672 276.376 213.374 276.794 212.27 277.578C211.166 278.363 210.306 279.477 209.798 280.781C209.29 282.085 209.158 283.519 209.418 284.903C209.678 286.287 210.319 287.557 211.259 288.554C212.199 289.551 213.396 290.229 214.699 290.503C216.001 290.776 217.351 290.633 218.577 290.091C219.804 289.549 220.851 288.633 221.587 287.459C222.323 286.284 222.714 284.904 222.712 283.493C222.708 281.604 222 279.794 220.741 278.459C219.483 277.125 217.778 276.376 216 276.376Z" fill="black"/>
<path d="M218.153 288.371C222.001 286.777 223.828 282.365 222.234 278.518C220.64 274.67 216.229 272.842 212.381 274.436C208.533 276.03 206.705 280.441 208.299 284.289C209.893 288.137 214.305 289.965 218.153 288.371Z" fill="#AEAEAE"/>
<path d="M215 290C213.418 290 211.871 289.501 210.555 288.567C209.24 287.634 208.214 286.306 207.609 284.753C207.003 283.2 206.845 281.491 207.154 279.842C207.462 278.193 208.224 276.678 209.343 275.49C210.462 274.301 211.887 273.491 213.439 273.163C214.991 272.835 216.6 273.004 218.061 273.647C219.523 274.29 220.773 275.38 221.652 276.778C222.531 278.175 223 279.819 223 281.5C222.998 283.754 222.155 285.915 220.655 287.508C219.155 289.102 217.121 289.998 215 290ZM215 274.369C213.673 274.369 212.375 274.787 211.271 275.571C210.167 276.354 209.307 277.468 208.799 278.771C208.291 280.074 208.158 281.508 208.417 282.891C208.676 284.275 209.315 285.545 210.254 286.543C211.193 287.54 212.389 288.219 213.691 288.494C214.993 288.769 216.342 288.628 217.568 288.088C218.795 287.549 219.843 286.635 220.581 285.462C221.318 284.289 221.712 282.91 221.712 281.5C221.705 279.613 220.995 277.805 219.737 276.473C218.479 275.14 216.776 274.391 215 274.389V274.369Z" fill="black"/>
<path d="M220.337 280C220.228 280.001 220.12 279.969 220.024 279.907C219.927 279.846 219.845 279.756 219.785 279.647C218.832 277.931 217.715 276.928 216.466 276.661C215.27 276.449 214.051 276.773 213.043 277.57C212.902 277.691 212.727 277.74 212.556 277.708C212.385 277.676 212.232 277.564 212.129 277.398C212.078 277.315 212.04 277.221 212.02 277.121C211.999 277.021 211.994 276.917 212.007 276.815C212.02 276.713 212.05 276.615 212.094 276.527C212.139 276.439 212.198 276.362 212.267 276.301C213.565 275.244 215.148 274.808 216.703 275.078C218.32 275.423 219.733 276.645 220.889 278.746C220.937 278.832 220.971 278.928 220.988 279.029C221.004 279.131 221.004 279.235 220.987 279.336C220.97 279.438 220.936 279.534 220.888 279.619C220.839 279.705 220.777 279.778 220.705 279.835C220.599 279.934 220.471 279.991 220.337 280Z" fill="white"/>
<path d="M198.5 307C202.642 307 206 303.642 206 299.5C206 295.358 202.642 292 198.5 292C194.358 292 191 295.358 191 299.5C191 303.642 194.358 307 198.5 307Z" fill="black"/>
<path d="M199 308C197.418 308 195.871 307.531 194.555 306.652C193.24 305.773 192.214 304.523 191.609 303.061C191.003 301.6 190.845 299.991 191.154 298.439C191.462 296.887 192.224 295.462 193.343 294.343C194.462 293.224 195.887 292.462 197.439 292.154C198.991 291.845 200.6 292.003 202.061 292.609C203.523 293.214 204.773 294.24 205.652 295.555C206.531 296.871 207 298.418 207 300C206.998 302.121 206.155 304.155 204.655 305.655C203.155 307.155 201.121 307.998 199 308ZM199 293.288C197.673 293.288 196.375 293.682 195.271 294.419C194.167 295.157 193.307 296.205 192.799 297.432C192.291 298.658 192.158 300.007 192.417 301.309C192.676 302.611 193.315 303.807 194.254 304.746C195.193 305.685 196.389 306.324 197.691 306.583C198.993 306.842 200.342 306.709 201.568 306.201C202.795 305.693 203.843 304.833 204.581 303.729C205.318 302.625 205.712 301.327 205.712 300C205.71 298.22 205.002 296.514 203.744 295.256C202.486 293.998 200.78 293.29 199 293.288Z" fill="black"/>
<path d="M198.5 305C202.642 305 206 301.642 206 297.5C206 293.358 202.642 290 198.5 290C194.358 290 191 293.358 191 297.5C191 301.642 194.358 305 198.5 305Z" fill="#FFD401"/>
<path d="M198 306C196.418 306 194.871 305.501 193.555 304.567C192.24 303.634 191.214 302.306 190.609 300.753C190.003 299.2 189.845 297.491 190.154 295.842C190.462 294.193 191.224 292.678 192.343 291.49C193.462 290.301 194.887 289.491 196.439 289.163C197.991 288.835 199.6 289.004 201.061 289.647C202.523 290.29 203.773 291.38 204.652 292.778C205.531 294.175 206 295.819 206 297.5C205.997 299.753 205.153 301.913 203.653 303.506C202.154 305.1 200.121 305.996 198 306ZM198 290.369C196.673 290.369 195.375 290.787 194.271 291.571C193.167 292.354 192.307 293.468 191.799 294.771C191.291 296.074 191.158 297.508 191.417 298.891C191.676 300.275 192.315 301.545 193.254 302.543C194.193 303.54 195.389 304.219 196.691 304.494C197.993 304.769 199.342 304.628 200.568 304.088C201.795 303.549 202.843 302.635 203.581 301.462C204.318 300.289 204.712 298.91 204.712 297.5C204.71 295.609 204.002 293.796 202.744 292.459C201.486 291.122 199.78 290.371 198 290.369Z" fill="black"/>
<path d="M202.32 295.999C202.211 295.999 202.105 295.972 202.01 295.923C201.914 295.873 201.833 295.802 201.774 295.715C201.423 295.121 200.951 294.602 200.386 294.188C199.821 293.774 199.174 293.475 198.485 293.308C197.279 293.151 196.056 293.423 195.045 294.072C194.974 294.121 194.895 294.156 194.81 294.175C194.726 294.194 194.638 294.197 194.553 294.184C194.467 294.17 194.385 294.141 194.312 294.097C194.238 294.052 194.174 293.995 194.124 293.927C194.023 293.792 193.981 293.624 194.008 293.459C194.035 293.295 194.129 293.147 194.268 293.049C195.567 292.196 197.152 291.845 198.709 292.063C200.327 292.341 201.734 293.327 202.892 295.02C202.987 295.159 203.021 295.329 202.987 295.492C202.952 295.656 202.852 295.799 202.708 295.892C202.595 295.968 202.458 296.006 202.32 295.999Z" fill="white"/>
<path d="M106.94 351.16C106.547 351.16 106.17 351.006 105.89 350.731C105.609 350.456 105.448 350.083 105.44 349.69L105.08 333.21C105.071 332.812 105.22 332.427 105.495 332.139C105.769 331.851 106.147 331.684 106.545 331.675C106.943 331.666 107.328 331.815 107.616 332.09C107.904 332.364 108.071 332.742 108.08 333.14L108.45 349.62C108.455 349.817 108.422 350.013 108.351 350.197C108.281 350.381 108.175 350.55 108.039 350.693C107.904 350.836 107.741 350.95 107.561 351.031C107.381 351.111 107.187 351.155 106.99 351.16H106.94Z" fill="black"/>
<path d="M118.2 351.16C117.807 351.16 117.43 351.006 117.15 350.731C116.869 350.456 116.708 350.083 116.7 349.69L116.33 333.21C116.321 332.812 116.47 332.427 116.745 332.139C117.019 331.851 117.397 331.684 117.795 331.675C118.193 331.666 118.578 331.815 118.866 332.09C119.154 332.364 119.321 332.742 119.33 333.14L119.7 349.62C119.705 349.817 119.672 350.013 119.601 350.197C119.531 350.381 119.425 350.55 119.289 350.693C119.154 350.836 118.991 350.95 118.811 351.031C118.631 351.111 118.437 351.155 118.24 351.16H118.2Z" fill="black"/>
<path d="M128.9 351.16C128.504 351.16 128.124 351.003 127.843 350.724C127.562 350.445 127.403 350.066 127.4 349.67L127.32 333.96C127.319 333.763 127.356 333.568 127.43 333.385C127.505 333.203 127.614 333.037 127.752 332.896C127.891 332.756 128.055 332.645 128.237 332.568C128.418 332.491 128.613 332.451 128.81 332.45C129.205 332.453 129.584 332.61 129.864 332.889C130.145 333.167 130.305 333.545 130.31 333.94L130.39 349.65C130.39 350.047 130.234 350.428 129.955 350.711C129.676 350.993 129.297 351.155 128.9 351.16Z" fill="black"/>
<path d="M139.13 351.16C138.738 351.16 138.362 351.006 138.083 350.731C137.805 350.456 137.645 350.082 137.64 349.69L137.26 333.21C137.251 332.812 137.4 332.427 137.675 332.139C137.949 331.851 138.327 331.684 138.725 331.675C139.123 331.666 139.508 331.815 139.796 332.09C140.084 332.364 140.251 332.742 140.26 333.14L140.64 349.62C140.648 350.019 140.498 350.405 140.223 350.693C139.947 350.982 139.569 351.15 139.17 351.16H139.13Z" fill="black"/>
<path d="M151.7 351.16C151.307 351.16 150.93 351.006 150.65 350.731C150.369 350.456 150.208 350.083 150.2 349.69L149.83 333.21C149.821 332.812 149.97 332.427 150.245 332.139C150.519 331.851 150.897 331.684 151.295 331.675C151.693 331.666 152.078 331.815 152.366 332.09C152.654 332.364 152.821 332.742 152.83 333.14L153.2 349.62C153.208 350.017 153.059 350.401 152.786 350.69C152.513 350.978 152.137 351.147 151.74 351.16H151.7Z" fill="black"/>
<path d="M26.08 344.85C25.7153 344.852 25.3581 344.745 25.054 344.544C24.7499 344.343 24.5125 344.055 24.372 343.719C24.2315 343.382 24.1942 343.011 24.2649 342.653C24.3356 342.296 24.511 341.967 24.769 341.709C25.0269 341.451 25.3557 341.276 25.7135 341.205C26.0714 341.134 26.4422 341.171 26.7788 341.312C27.1154 341.453 27.4027 341.69 27.6041 341.994C27.8055 342.298 27.912 342.655 27.91 343.02C27.9048 343.504 27.7103 343.966 27.3683 344.308C27.0262 344.65 26.5638 344.845 26.08 344.85ZM26.08 342.18C25.9135 342.178 25.7501 342.226 25.6106 342.317C25.4712 342.408 25.362 342.538 25.2969 342.692C25.2317 342.845 25.2137 343.014 25.245 343.178C25.2762 343.341 25.3554 343.492 25.4725 343.61C25.5896 343.729 25.7392 343.81 25.9024 343.843C26.0656 343.876 26.235 343.86 26.3891 343.797C26.5432 343.734 26.675 343.626 26.7677 343.488C26.8605 343.349 26.91 343.187 26.91 343.02C26.9075 342.8 26.8195 342.589 26.6647 342.432C26.5099 342.276 26.3002 342.185 26.08 342.18Z" fill="black"/>
<path d="M41.27 344.85C40.9053 344.852 40.5481 344.745 40.244 344.544C39.9399 344.343 39.7025 344.055 39.562 343.719C39.4215 343.382 39.3842 343.011 39.4549 342.653C39.5256 342.296 39.701 341.967 39.959 341.709C40.2169 341.451 40.5457 341.276 40.9035 341.205C41.2614 341.134 41.6322 341.171 41.9688 341.312C42.3054 341.453 42.5927 341.69 42.7941 341.994C42.9955 342.298 43.102 342.655 43.1 343.02C43.0948 343.504 42.9003 343.966 42.5583 344.308C42.2162 344.65 41.7538 344.845 41.27 344.85ZM41.27 342.18C41.1035 342.178 40.9401 342.226 40.8006 342.317C40.6612 342.408 40.552 342.538 40.4869 342.692C40.4218 342.845 40.4037 343.014 40.435 343.178C40.4662 343.341 40.5454 343.492 40.6625 343.61C40.7796 343.729 40.9292 343.81 41.0924 343.843C41.2556 343.876 41.425 343.86 41.5791 343.797C41.7332 343.734 41.865 343.626 41.9577 343.488C42.0505 343.349 42.1 343.187 42.1 343.02C42.0975 342.8 42.0095 342.589 41.8547 342.432C41.6999 342.276 41.4903 342.185 41.27 342.18Z" fill="black"/>
<path d="M48.08 344.85C47.7157 344.85 47.3595 344.742 47.0567 344.539C46.7539 344.337 46.5181 344.049 46.3792 343.712C46.2402 343.375 46.2043 343.005 46.2761 342.647C46.348 342.29 46.5242 341.962 46.7825 341.705C47.0409 341.448 47.3696 341.274 47.7272 341.204C48.0848 341.134 48.4551 341.172 48.7911 341.313C49.1271 341.454 49.4138 341.691 49.6148 341.995C49.8158 342.299 49.922 342.656 49.92 343.02C49.9174 343.506 49.7224 343.972 49.3776 344.315C49.0328 344.658 48.5663 344.85 48.08 344.85ZM48.08 342.18C47.9139 342.18 47.7515 342.229 47.6133 342.322C47.4752 342.414 47.3675 342.545 47.304 342.699C47.2404 342.852 47.2238 343.021 47.2562 343.184C47.2886 343.347 47.3686 343.496 47.4861 343.614C47.6035 343.731 47.7532 343.811 47.9161 343.844C48.0791 343.876 48.248 343.86 48.4015 343.796C48.555 343.732 48.6862 343.625 48.7785 343.487C48.8708 343.349 48.92 343.186 48.92 343.02C48.92 342.797 48.8315 342.584 48.674 342.426C48.5165 342.268 48.3028 342.18 48.08 342.18Z" fill="black"/>
<path d="M33.53 344.85C33.1657 344.85 32.8095 344.742 32.5067 344.539C32.2039 344.337 31.9681 344.049 31.8291 343.712C31.6902 343.375 31.6543 343.005 31.7261 342.647C31.7979 342.29 31.9742 341.962 32.2325 341.705C32.4908 341.448 32.8196 341.274 33.1772 341.204C33.5348 341.134 33.9051 341.172 34.2411 341.313C34.5771 341.454 34.8638 341.691 35.0648 341.995C35.2658 342.299 35.372 342.656 35.37 343.02C35.3674 343.506 35.1723 343.972 34.8276 344.315C34.4828 344.658 34.0163 344.85 33.53 344.85ZM33.53 342.18C33.3639 342.18 33.2015 342.229 33.0633 342.322C32.9252 342.414 32.8175 342.545 32.7539 342.699C32.6904 342.852 32.6737 343.021 32.7062 343.184C32.7386 343.347 32.8186 343.496 32.936 343.614C33.0535 343.731 33.2032 343.811 33.3661 343.844C33.5291 343.876 33.698 343.86 33.8515 343.796C34.005 343.732 34.1361 343.625 34.2284 343.487C34.3207 343.349 34.37 343.186 34.37 343.02C34.37 342.797 34.2815 342.584 34.124 342.426C33.9665 342.268 33.7528 342.18 33.53 342.18Z" fill="black"/>
<path d="M26.08 350.96C25.7153 350.962 25.3581 350.855 25.054 350.654C24.7499 350.453 24.5125 350.165 24.372 349.829C24.2315 349.492 24.1942 349.121 24.2649 348.764C24.3356 348.406 24.511 348.077 24.769 347.819C25.0269 347.561 25.3557 347.386 25.7135 347.315C26.0714 347.244 26.4422 347.281 26.7788 347.422C27.1154 347.562 27.4027 347.8 27.6041 348.104C27.8055 348.408 27.912 348.765 27.91 349.13C27.9074 349.615 27.7138 350.078 27.3711 350.421C27.0285 350.764 26.5646 350.957 26.08 350.96ZM26.08 348.29C25.858 348.293 25.6459 348.382 25.4889 348.539C25.332 348.696 25.2426 348.908 25.24 349.13C25.24 349.296 25.2893 349.459 25.3816 349.597C25.4739 349.735 25.6051 349.842 25.7586 349.906C25.9121 349.97 26.081 349.986 26.2439 349.954C26.4068 349.921 26.5565 349.841 26.674 349.724C26.7915 349.606 26.8715 349.457 26.9039 349.294C26.9363 349.131 26.9197 348.962 26.8561 348.809C26.7925 348.655 26.6848 348.524 26.5467 348.432C26.4086 348.339 26.2462 348.29 26.08 348.29Z" fill="black"/>
<path d="M41.27 350.96C40.9053 350.962 40.5481 350.855 40.244 350.654C39.9399 350.453 39.7025 350.165 39.562 349.829C39.4215 349.492 39.3842 349.121 39.4549 348.764C39.5256 348.406 39.701 348.077 39.959 347.819C40.2169 347.561 40.5457 347.386 40.9035 347.315C41.2614 347.244 41.6322 347.281 41.9688 347.422C42.3054 347.562 42.5927 347.8 42.7941 348.104C42.9955 348.408 43.102 348.765 43.1 349.13C43.0974 349.615 42.9038 350.078 42.5611 350.421C42.2185 350.764 41.7546 350.957 41.27 350.96ZM41.27 348.29C41.048 348.293 40.8359 348.382 40.6789 348.539C40.522 348.696 40.4326 348.908 40.43 349.13C40.43 349.296 40.4793 349.459 40.5716 349.597C40.6639 349.735 40.7951 349.842 40.9486 349.906C41.1021 349.97 41.271 349.986 41.4339 349.954C41.5968 349.921 41.7465 349.841 41.864 349.724C41.9815 349.606 42.0615 349.457 42.0939 349.294C42.1263 349.131 42.1097 348.962 42.0461 348.809C41.9825 348.655 41.8748 348.524 41.7367 348.432C41.5986 348.339 41.4362 348.29 41.27 348.29Z" fill="black"/>
<path d="M48.08 350.96C47.7157 350.96 47.3595 350.852 47.0567 350.649C46.7539 350.447 46.5181 350.159 46.3792 349.822C46.2402 349.485 46.2043 349.115 46.2761 348.757C46.348 348.4 46.5242 348.072 46.7825 347.815C47.0409 347.558 47.3696 347.384 47.7272 347.314C48.0848 347.244 48.4551 347.282 48.7911 347.423C49.1271 347.564 49.4138 347.801 49.6148 348.105C49.8158 348.409 49.922 348.766 49.92 349.13C49.92 349.371 49.8724 349.61 49.7798 349.833C49.6872 350.055 49.5515 350.257 49.3805 350.428C49.2095 350.598 49.0066 350.732 48.7834 350.824C48.5602 350.915 48.3212 350.961 48.08 350.96ZM48.08 348.29C47.859 348.293 47.6479 348.382 47.4925 348.54C47.3371 348.697 47.25 348.909 47.25 349.13C47.2726 349.336 47.3703 349.526 47.5243 349.664C47.6784 349.802 47.8781 349.878 48.085 349.878C48.292 349.878 48.4916 349.802 48.6457 349.664C48.7998 349.526 48.8975 349.336 48.92 349.13C48.9174 348.908 48.8281 348.696 48.6711 348.539C48.5141 348.382 48.302 348.293 48.08 348.29Z" fill="black"/>
<path d="M33.53 350.96C33.1657 350.96 32.8095 350.852 32.5067 350.649C32.2039 350.447 31.9681 350.159 31.8291 349.822C31.6902 349.485 31.6543 349.115 31.7261 348.757C31.7979 348.4 31.9742 348.072 32.2325 347.815C32.4908 347.558 32.8196 347.384 33.1772 347.314C33.5348 347.244 33.9051 347.282 34.2411 347.423C34.5771 347.564 34.8638 347.801 35.0648 348.105C35.2658 348.409 35.372 348.766 35.37 349.13C35.37 349.371 35.3223 349.61 35.2298 349.833C35.1372 350.055 35.0015 350.257 34.8305 350.428C34.6595 350.598 34.4566 350.732 34.2334 350.824C34.0102 350.915 33.7712 350.961 33.53 350.96ZM33.53 348.29C33.309 348.293 33.0979 348.382 32.9425 348.54C32.7871 348.697 32.7 348.909 32.7 349.13C32.7225 349.336 32.8202 349.526 32.9743 349.664C33.1284 349.802 33.3281 349.878 33.535 349.878C33.7419 349.878 33.9416 349.802 34.0957 349.664C34.2498 349.526 34.3475 349.336 34.37 349.13C34.3674 348.908 34.2781 348.696 34.1211 348.539C33.9641 348.382 33.752 348.293 33.53 348.29Z" fill="black"/>
<path d="M26.08 358.13C25.7181 358.13 25.3642 358.023 25.0633 357.822C24.7624 357.621 24.5278 357.335 24.3893 357C24.2508 356.666 24.2146 356.298 24.2852 355.943C24.3558 355.588 24.5301 355.262 24.786 355.006C25.0419 354.75 25.368 354.576 25.723 354.505C26.078 354.435 26.4459 354.471 26.7803 354.609C27.1147 354.748 27.4005 354.982 27.6016 355.283C27.8027 355.584 27.91 355.938 27.91 356.3C27.9074 356.785 27.7137 357.248 27.3711 357.591C27.0285 357.934 26.5645 358.127 26.08 358.13ZM26.08 355.47C25.9158 355.47 25.7554 355.519 25.6189 355.61C25.4824 355.701 25.376 355.831 25.3132 355.982C25.2504 356.134 25.2339 356.301 25.2659 356.462C25.298 356.623 25.377 356.771 25.4931 356.887C25.6092 357.003 25.7571 357.082 25.9181 357.114C26.0791 357.146 26.246 357.13 26.3976 357.067C26.5493 357.004 26.6789 356.898 26.7701 356.761C26.8613 356.625 26.91 356.464 26.91 356.3C26.9127 356.189 26.8932 356.078 26.8528 355.975C26.8124 355.871 26.7519 355.777 26.6746 355.697C26.5974 355.617 26.5051 355.553 26.4031 355.509C26.301 355.465 26.1912 355.441 26.08 355.44V355.47Z" fill="black"/>
<path d="M41.27 358.13C40.9081 358.13 40.5543 358.023 40.2533 357.822C39.9524 357.621 39.7178 357.335 39.5793 357C39.4408 356.666 39.4046 356.298 39.4752 355.943C39.5458 355.588 39.7201 355.262 39.976 355.006C40.2319 354.75 40.558 354.576 40.913 354.505C41.268 354.435 41.6359 354.471 41.9703 354.609C42.3047 354.748 42.5905 354.982 42.7916 355.283C42.9927 355.584 43.1 355.938 43.1 356.3C43.0974 356.785 42.9037 357.248 42.5611 357.591C42.2185 357.934 41.7545 358.127 41.27 358.13ZM41.27 355.47C41.1059 355.47 40.9454 355.519 40.8089 355.61C40.6724 355.701 40.566 355.831 40.5032 355.982C40.4404 356.134 40.4239 356.301 40.456 356.462C40.488 356.623 40.567 356.771 40.6831 356.887C40.7992 357.003 40.9471 357.082 41.1081 357.114C41.2691 357.146 41.436 357.13 41.5876 357.067C41.7393 357.004 41.8689 356.898 41.9601 356.761C42.0513 356.625 42.1 356.464 42.1 356.3C42.1027 356.189 42.0832 356.078 42.0428 355.975C42.0024 355.871 41.9419 355.777 41.8647 355.697C41.7875 355.617 41.6951 355.553 41.5931 355.509C41.491 355.465 41.3812 355.441 41.27 355.44V355.47Z" fill="black"/>
<path d="M48.08 358.13C47.7185 358.128 47.3657 358.019 47.0661 357.817C46.7664 357.614 46.5334 357.328 46.3965 356.993C46.2595 356.659 46.2247 356.291 46.2964 355.937C46.3681 355.583 46.5432 355.257 46.7995 355.003C47.0559 354.748 47.382 354.574 47.7367 354.504C48.0914 354.435 48.4588 354.472 48.7926 354.61C49.1264 354.749 49.4116 354.984 49.6123 355.284C49.8129 355.585 49.92 355.938 49.92 356.3C49.92 356.541 49.8724 356.78 49.7798 357.003C49.6872 357.225 49.5515 357.428 49.3805 357.598C49.2095 357.768 49.0066 357.902 48.7834 357.994C48.5602 358.085 48.3212 358.131 48.08 358.13ZM48.08 355.47C47.9163 355.472 47.7568 355.522 47.6216 355.615C47.4865 355.707 47.3816 355.837 47.3204 355.989C47.2591 356.141 47.2441 356.308 47.2772 356.468C47.3103 356.628 47.3902 356.775 47.5066 356.89C47.6231 357.005 47.771 357.084 47.9317 357.115C48.0925 357.146 48.2588 357.129 48.4099 357.066C48.561 357.003 48.69 356.896 48.7808 356.76C48.8716 356.624 48.92 356.464 48.92 356.3C48.9241 356.188 48.9053 356.076 48.8648 355.971C48.8243 355.866 48.7629 355.77 48.6843 355.69C48.6058 355.61 48.5117 355.546 48.4078 355.503C48.3039 355.46 48.1924 355.439 48.08 355.44V355.47Z" fill="black"/>
<path d="M33.53 358.13C33.1685 358.128 32.8157 358.019 32.5161 357.817C32.2164 357.614 31.9834 357.328 31.8465 356.993C31.7095 356.659 31.6747 356.291 31.7464 355.937C31.8182 355.583 31.9932 355.257 32.2495 355.003C32.5059 354.748 32.832 354.574 33.1867 354.504C33.5414 354.435 33.9088 354.472 34.2426 354.61C34.5764 354.749 34.8616 354.984 35.0623 355.284C35.2629 355.585 35.37 355.938 35.37 356.3C35.37 356.541 35.3224 356.78 35.2298 357.003C35.1372 357.225 35.0015 357.428 34.8305 357.598C34.6595 357.768 34.4566 357.902 34.2334 357.994C34.0102 358.085 33.7712 358.131 33.53 358.13ZM33.53 355.47C33.3663 355.472 33.2068 355.522 33.0717 355.615C32.9365 355.707 32.8317 355.837 32.7704 355.989C32.7091 356.141 32.6941 356.308 32.7272 356.468C32.7603 356.628 32.8402 356.775 32.9567 356.89C33.0731 357.005 33.221 357.084 33.3817 357.115C33.5425 357.146 33.7088 357.129 33.8599 357.066C34.011 357.003 34.14 356.896 34.2308 356.76C34.3216 356.624 34.37 356.464 34.37 356.3C34.3741 356.188 34.3553 356.076 34.3148 355.971C34.2743 355.866 34.2129 355.77 34.1343 355.69C34.0558 355.61 33.9617 355.546 33.8578 355.503C33.754 355.46 33.6424 355.439 33.53 355.44V355.47Z" fill="black"/>
<path d="M214.19 344.85C213.825 344.852 213.468 344.745 213.164 344.544C212.86 344.343 212.623 344.055 212.482 343.719C212.342 343.382 212.304 343.011 212.375 342.653C212.446 342.296 212.621 341.967 212.879 341.709C213.137 341.451 213.466 341.276 213.824 341.205C214.181 341.134 214.552 341.171 214.889 341.312C215.225 341.453 215.513 341.69 215.714 341.994C215.915 342.298 216.022 342.655 216.02 343.02C216.017 343.505 215.824 343.968 215.481 344.311C215.138 344.654 214.675 344.847 214.19 344.85ZM214.19 342.18C214.023 342.178 213.86 342.226 213.721 342.317C213.581 342.408 213.472 342.538 213.407 342.692C213.342 342.845 213.324 343.014 213.355 343.178C213.386 343.341 213.465 343.492 213.582 343.61C213.7 343.729 213.849 343.81 214.012 343.843C214.176 343.876 214.345 343.86 214.499 343.797C214.653 343.734 214.785 343.626 214.878 343.488C214.97 343.349 215.02 343.187 215.02 343.02C215.02 342.799 214.933 342.587 214.778 342.43C214.622 342.272 214.411 342.183 214.19 342.18Z" fill="black"/>
<path d="M229.38 344.85C229.015 344.852 228.658 344.745 228.354 344.544C228.05 344.343 227.813 344.055 227.672 343.719C227.532 343.382 227.494 343.011 227.565 342.653C227.636 342.296 227.811 341.967 228.069 341.709C228.327 341.451 228.656 341.276 229.014 341.205C229.371 341.134 229.742 341.171 230.079 341.312C230.415 341.453 230.703 341.69 230.904 341.994C231.105 342.298 231.212 342.655 231.21 343.02C231.207 343.505 231.014 343.968 230.671 344.311C230.328 344.654 229.865 344.847 229.38 344.85ZM229.38 342.18C229.213 342.178 229.05 342.226 228.911 342.317C228.771 342.408 228.662 342.538 228.597 342.692C228.532 342.845 228.514 343.014 228.545 343.178C228.576 343.341 228.655 343.492 228.772 343.61C228.89 343.729 229.039 343.81 229.202 343.843C229.366 343.876 229.535 343.86 229.689 343.797C229.843 343.734 229.975 343.626 230.068 343.488C230.16 343.349 230.21 343.187 230.21 343.02C230.21 342.799 230.123 342.587 229.968 342.43C229.812 342.272 229.601 342.183 229.38 342.18Z" fill="black"/>
<path d="M236.17 344.85C235.805 344.852 235.448 344.745 235.144 344.544C234.84 344.343 234.602 344.055 234.462 343.719C234.321 343.382 234.284 343.011 234.355 342.653C234.426 342.296 234.601 341.967 234.859 341.709C235.117 341.451 235.446 341.276 235.803 341.205C236.161 341.134 236.532 341.171 236.869 341.312C237.205 341.453 237.493 341.69 237.694 341.994C237.895 342.298 238.002 342.655 238 343.02C237.995 343.504 237.8 343.966 237.458 344.308C237.116 344.65 236.654 344.845 236.17 344.85ZM236.17 342.18C236.053 342.167 235.934 342.179 235.822 342.215C235.709 342.251 235.606 342.311 235.518 342.39C235.43 342.468 235.36 342.565 235.311 342.672C235.263 342.78 235.238 342.897 235.238 343.015C235.238 343.133 235.263 343.25 235.311 343.358C235.36 343.465 235.43 343.562 235.518 343.64C235.606 343.719 235.709 343.779 235.822 343.815C235.934 343.851 236.053 343.863 236.17 343.85C236.376 343.827 236.566 343.73 236.704 343.576C236.842 343.422 236.918 343.222 236.918 343.015C236.918 342.808 236.842 342.608 236.704 342.454C236.566 342.3 236.376 342.203 236.17 342.18Z" fill="black"/>
<path d="M221.65 344.85C221.285 344.852 220.928 344.745 220.624 344.544C220.32 344.343 220.082 344.055 219.942 343.719C219.801 343.382 219.764 343.011 219.835 342.653C219.906 342.296 220.081 341.967 220.339 341.709C220.597 341.451 220.926 341.276 221.283 341.205C221.641 341.134 222.012 341.171 222.349 341.312C222.685 341.453 222.973 341.69 223.174 341.994C223.375 342.298 223.482 342.655 223.48 343.02C223.475 343.504 223.28 343.966 222.938 344.308C222.596 344.65 222.134 344.845 221.65 344.85ZM221.65 342.18C221.533 342.167 221.414 342.179 221.302 342.215C221.189 342.251 221.086 342.311 220.998 342.39C220.91 342.468 220.84 342.565 220.791 342.672C220.743 342.78 220.718 342.897 220.718 343.015C220.718 343.133 220.743 343.25 220.791 343.358C220.84 343.465 220.91 343.562 220.998 343.64C221.086 343.719 221.189 343.779 221.302 343.815C221.414 343.851 221.533 343.863 221.65 343.85C221.856 343.827 222.046 343.73 222.184 343.576C222.322 343.422 222.398 343.222 222.398 343.015C222.398 342.808 222.322 342.608 222.184 342.454C222.046 342.3 221.856 342.203 221.65 342.18Z" fill="black"/>
<path d="M214.19 350.96C213.825 350.962 213.468 350.855 213.164 350.654C212.86 350.453 212.623 350.165 212.482 349.829C212.342 349.492 212.304 349.121 212.375 348.764C212.446 348.406 212.621 348.077 212.879 347.819C213.137 347.561 213.466 347.386 213.824 347.315C214.181 347.244 214.552 347.281 214.889 347.422C215.225 347.562 215.513 347.8 215.714 348.104C215.915 348.408 216.022 348.765 216.02 349.13C216.02 349.615 215.827 350.081 215.484 350.424C215.141 350.767 214.675 350.96 214.19 350.96ZM214.19 348.29C213.969 348.293 213.758 348.382 213.602 348.54C213.447 348.697 213.36 348.909 213.36 349.13C213.36 349.35 213.447 349.561 213.603 349.717C213.759 349.873 213.97 349.96 214.19 349.96C214.41 349.96 214.621 349.873 214.777 349.717C214.933 349.561 215.02 349.35 215.02 349.13C215.02 348.909 214.933 348.697 214.778 348.54C214.622 348.382 214.411 348.293 214.19 348.29Z" fill="black"/>
<path d="M229.38 350.96C229.015 350.962 228.658 350.855 228.354 350.654C228.05 350.453 227.813 350.165 227.672 349.829C227.532 349.492 227.494 349.121 227.565 348.764C227.636 348.406 227.811 348.077 228.069 347.819C228.327 347.561 228.656 347.386 229.014 347.315C229.371 347.244 229.742 347.281 230.079 347.422C230.415 347.562 230.703 347.8 230.904 348.104C231.105 348.408 231.212 348.765 231.21 349.13C231.21 349.615 231.017 350.081 230.674 350.424C230.331 350.767 229.865 350.96 229.38 350.96ZM229.38 348.29C229.159 348.293 228.948 348.382 228.792 348.54C228.637 348.697 228.55 348.909 228.55 349.13C228.55 349.35 228.637 349.561 228.793 349.717C228.949 349.873 229.16 349.96 229.38 349.96C229.6 349.96 229.811 349.873 229.967 349.717C230.123 349.561 230.21 349.35 230.21 349.13C230.21 348.909 230.123 348.697 229.968 348.54C229.812 348.382 229.601 348.293 229.38 348.29Z" fill="black"/>
<path d="M236.17 350.96C235.805 350.962 235.448 350.855 235.144 350.654C234.84 350.453 234.602 350.165 234.462 349.829C234.321 349.492 234.284 349.121 234.355 348.764C234.426 348.406 234.601 348.077 234.859 347.819C235.117 347.561 235.446 347.386 235.803 347.315C236.161 347.244 236.532 347.281 236.869 347.422C237.205 347.562 237.493 347.8 237.694 348.104C237.895 348.408 238.002 348.765 238 349.13C237.997 349.615 237.804 350.078 237.461 350.421C237.118 350.764 236.655 350.957 236.17 350.96ZM236.17 348.29C235.948 348.293 235.736 348.382 235.579 348.539C235.422 348.696 235.333 348.908 235.33 349.13C235.333 349.351 235.422 349.562 235.58 349.718C235.737 349.873 235.949 349.96 236.17 349.96C236.39 349.96 236.601 349.873 236.757 349.717C236.913 349.561 237 349.35 237 349.13C237 348.909 236.913 348.697 236.758 348.54C236.602 348.382 236.391 348.293 236.17 348.29Z" fill="black"/>
<path d="M221.65 350.96C221.285 350.962 220.928 350.855 220.624 350.654C220.32 350.453 220.082 350.165 219.942 349.829C219.801 349.492 219.764 349.121 219.835 348.764C219.906 348.406 220.081 348.077 220.339 347.819C220.597 347.561 220.926 347.386 221.283 347.315C221.641 347.244 222.012 347.281 222.349 347.422C222.685 347.562 222.973 347.8 223.174 348.104C223.375 348.408 223.482 348.765 223.48 349.13C223.477 349.615 223.284 350.078 222.941 350.421C222.598 350.764 222.135 350.957 221.65 350.96ZM221.65 348.29C221.428 348.293 221.216 348.382 221.059 348.539C220.902 348.696 220.813 348.908 220.81 349.13C220.813 349.351 220.902 349.562 221.06 349.718C221.217 349.873 221.429 349.96 221.65 349.96C221.87 349.96 222.081 349.873 222.237 349.717C222.393 349.561 222.48 349.35 222.48 349.13C222.48 348.909 222.393 348.697 222.237 348.54C222.082 348.382 221.871 348.293 221.65 348.29Z" fill="black"/>
<path d="M214.19 358.13C213.828 358.13 213.474 358.023 213.173 357.822C212.872 357.621 212.638 357.335 212.499 357C212.361 356.666 212.325 356.298 212.395 355.943C212.466 355.588 212.64 355.262 212.896 355.006C213.152 354.75 213.478 354.576 213.833 354.505C214.188 354.435 214.556 354.471 214.89 354.609C215.225 354.748 215.51 354.982 215.712 355.283C215.913 355.584 216.02 355.938 216.02 356.3C216.02 356.785 215.827 357.251 215.484 357.594C215.141 357.937 214.675 358.13 214.19 358.13ZM214.19 355.47C214.026 355.47 213.865 355.519 213.729 355.61C213.592 355.701 213.486 355.831 213.423 355.982C213.36 356.134 213.344 356.301 213.376 356.462C213.408 356.623 213.487 356.771 213.603 356.887C213.719 357.003 213.867 357.082 214.028 357.114C214.189 357.146 214.356 357.13 214.508 357.067C214.659 357.004 214.789 356.898 214.88 356.761C214.971 356.625 215.02 356.464 215.02 356.3C215.024 356.188 215.006 356.077 214.966 355.973C214.926 355.869 214.865 355.774 214.788 355.694C214.71 355.613 214.617 355.549 214.515 355.506C214.412 355.462 214.302 355.44 214.19 355.44V355.47Z" fill="black"/>
<path d="M229.38 358.13C229.018 358.13 228.664 358.023 228.363 357.822C228.062 357.621 227.828 357.335 227.689 357C227.551 356.666 227.515 356.298 227.585 355.943C227.656 355.588 227.83 355.262 228.086 355.006C228.342 354.75 228.668 354.576 229.023 354.505C229.378 354.435 229.746 354.471 230.08 354.609C230.415 354.748 230.701 354.982 230.902 355.283C231.103 355.584 231.21 355.938 231.21 356.3C231.21 356.785 231.017 357.251 230.674 357.594C230.331 357.937 229.865 358.13 229.38 358.13ZM229.38 355.47C229.216 355.47 229.055 355.519 228.919 355.61C228.782 355.701 228.676 355.831 228.613 355.982C228.55 356.134 228.534 356.301 228.566 356.462C228.598 356.623 228.677 356.771 228.793 356.887C228.909 357.003 229.057 357.082 229.218 357.114C229.379 357.146 229.546 357.13 229.698 357.067C229.849 357.004 229.979 356.898 230.07 356.761C230.161 356.625 230.21 356.464 230.21 356.3C230.214 356.188 230.196 356.077 230.156 355.973C230.116 355.869 230.055 355.774 229.978 355.694C229.9 355.613 229.807 355.549 229.705 355.506C229.602 355.462 229.492 355.44 229.38 355.44V355.47Z" fill="black"/>
<path d="M236.17 358.13C235.808 358.13 235.454 358.023 235.153 357.822C234.852 357.621 234.618 357.335 234.479 357C234.341 356.666 234.305 356.298 234.375 355.943C234.446 355.588 234.62 355.262 234.876 355.006C235.132 354.75 235.458 354.576 235.813 354.505C236.168 354.435 236.536 354.471 236.87 354.609C237.205 354.748 237.491 354.982 237.692 355.283C237.893 355.584 238 355.938 238 356.3C237.997 356.785 237.804 357.248 237.461 357.591C237.119 357.934 236.655 358.127 236.17 358.13ZM236.17 355.47C235.95 355.47 235.739 355.557 235.583 355.713C235.427 355.869 235.34 356.08 235.34 356.3C235.34 356.52 235.427 356.731 235.583 356.887C235.739 357.043 235.95 357.13 236.17 357.13C236.39 357.13 236.601 357.043 236.757 356.887C236.913 356.731 237 356.52 237 356.3C237 356.08 236.913 355.869 236.757 355.713C236.601 355.557 236.39 355.47 236.17 355.47Z" fill="black"/>
<path d="M221.65 358.13C221.288 358.13 220.934 358.023 220.633 357.822C220.332 357.621 220.098 357.335 219.959 357C219.821 356.666 219.785 356.298 219.855 355.943C219.926 355.588 220.1 355.262 220.356 355.006C220.612 354.75 220.938 354.576 221.293 354.505C221.648 354.435 222.016 354.471 222.35 354.609C222.685 354.748 222.97 354.982 223.172 355.283C223.373 355.584 223.48 355.938 223.48 356.3C223.477 356.785 223.284 357.248 222.941 357.591C222.598 357.934 222.135 358.127 221.65 358.13ZM221.65 355.47C221.43 355.47 221.219 355.557 221.063 355.713C220.907 355.869 220.82 356.08 220.82 356.3C220.82 356.52 220.907 356.731 221.063 356.887C221.219 357.043 221.43 357.13 221.65 357.13C221.87 357.13 222.081 357.043 222.237 356.887C222.393 356.731 222.48 356.52 222.48 356.3C222.48 356.08 222.393 355.869 222.237 355.713C222.081 355.557 221.87 355.47 221.65 355.47Z" fill="black"/>
<path d="M34.47 43.53C34.2616 43.5287 34.0588 43.4622 33.89 43.34L21.64 34.66C21.4244 34.5071 21.2781 34.275 21.2332 34.0145C21.1882 33.7541 21.2482 33.4864 21.4 33.27C21.4758 33.1619 21.5722 33.0698 21.6838 32.9991C21.7953 32.9284 21.9198 32.8806 22.05 32.8583C22.1801 32.8359 22.3134 32.8396 22.4422 32.8691C22.5709 32.8986 22.6925 32.9533 22.8 33.03L35.08 41.71C35.255 41.8322 35.3864 42.0071 35.4548 42.2093C35.5233 42.4115 35.5253 42.6303 35.4604 42.8337C35.3956 43.0371 35.2674 43.2144 35.0946 43.3397C34.9218 43.4649 34.7134 43.5316 34.5 43.53H34.47Z" fill="black"/>
<path d="M226.34 43.53C226.127 43.5316 225.918 43.4649 225.745 43.3396C225.573 43.2143 225.444 43.037 225.38 42.8336C225.315 42.6303 225.317 42.4115 225.385 42.2093C225.454 42.0071 225.585 41.8322 225.76 41.71L238.02 33.03C238.237 32.8994 238.494 32.8558 238.742 32.9077C238.989 32.9596 239.208 33.1033 239.353 33.3099C239.499 33.5164 239.561 33.7705 239.527 34.021C239.493 34.2715 239.366 34.4998 239.17 34.66L226.92 43.34C226.751 43.4622 226.548 43.5286 226.34 43.53Z" fill="black"/>
<path d="M239.264 230.684C239.057 230.686 238.854 230.623 238.684 230.504L226.424 221.824C226.207 221.671 226.059 221.437 226.014 221.174C225.969 220.912 226.031 220.642 226.184 220.424C226.338 220.207 226.572 220.059 226.835 220.014C227.097 219.969 227.367 220.031 227.584 220.184L239.834 228.864C239.943 228.94 240.035 229.037 240.105 229.148C240.176 229.26 240.224 229.384 240.246 229.514C240.268 229.645 240.265 229.778 240.235 229.907C240.206 230.035 240.151 230.157 240.074 230.264C239.982 230.394 239.861 230.499 239.72 230.572C239.579 230.645 239.423 230.684 239.264 230.684Z" fill="black"/>
<path d="M20.0061 230.684C19.8458 230.685 19.6876 230.648 19.5449 230.574C19.4022 230.501 19.2791 230.395 19.1861 230.264C19.1094 230.157 19.0547 230.035 19.0252 229.907C18.9958 229.778 18.9921 229.645 19.0144 229.514C19.0367 229.384 19.0846 229.26 19.1552 229.148C19.2259 229.037 19.318 228.94 19.4261 228.864L31.6761 220.184C31.8936 220.031 32.1633 219.969 32.4258 220.014C32.6884 220.059 32.9223 220.207 33.0761 220.424C33.23 220.642 33.2911 220.912 33.2461 221.174C33.2011 221.437 33.0536 221.671 32.8361 221.824L20.5861 230.504C20.4161 230.623 20.2135 230.686 20.0061 230.684Z" fill="black"/>
</g>
</g>
<defs>
<filter id="filter0_d_9_97" x="0" y="0" width="260.81" height="375.43" filterUnits="userSpaceOnUse" color-interpolation-filters="sRGB">
<feFlood flood-opacity="0" result="BackgroundImageFix"/>
<feColorMatrix in="SourceAlpha" type="matrix" values="0 0 0 0 0 0 0 0 0 0 0 0 0 0 0 0 0 0 127 0" result="hardAlpha"/>
<feOffset dy="4"/>
<feGaussianBlur stdDeviation="2"/>
<feComposite in2="hardAlpha" operator="out"/>
<feColorMatrix type="matrix" values="0 0 0 0 0 0 0 0 0 0 0 0 0 0 0 0 0 0 0.25 0"/>
<feBlend mode="normal" in2="BackgroundImageFix" result="effect1_dropShadow_9_97"/>
<feBlend mode="normal" in="SourceGraphic" in2="effect1_dropShadow_9_97" result="shape"/>
</filter>
<clipPath id="clip0_9_97">
<rect x="4" width="252.81" height="367.43" rx="15" fill="white"/>
</clipPath>
</defs>
</svg>
