<svg width="277" height="392" viewBox="0 0 277 392" fill="none" xmlns="http://www.w3.org/2000/svg">
<g filter="url(#filter0_d_9_97)">
<g clip-path="url(#clip0_9_97)">
<path d="M248.876 6.5H27.1237C23.3778 6.5 19.7854 8.00337 17.1367 10.6794C14.488 13.3554 13 16.9848 13 20.7693V360.221C13 364.006 14.4877 367.636 17.1361 370.314C19.7845 372.992 23.3769 374.497 27.1237 374.5H248.876C252.621 374.497 256.212 372.993 258.86 370.318C261.509 367.642 262.997 364.014 263 360.231V20.7693C263 16.9848 261.512 13.3554 258.863 10.6794C256.215 8.00337 252.622 6.5 248.876 6.5ZM231.48 220.46C231.491 222.684 229.684 224.49 227.46 224.479L136 224H48.4885C46.2839 224 44.4949 222.216 44.4885 220.011L44.0116 54.0215C44.0052 51.804 45.804 50.0045 48.0215 50.01L226.685 50.4559C228.883 50.4614 230.665 52.2389 230.675 54.4365L231.48 220.46Z" fill="white"/>
<path d="M249.65 372.44H27.17C23.1483 372.435 19.2928 370.835 16.449 367.991C13.6053 365.147 12.0053 361.292 12 357.27V20.17C12.0053 16.1483 13.6053 12.2928 16.449 9.44904C19.2928 6.60526 23.1483 5.00529 27.17 5H249.65C253.672 5.00529 257.527 6.60526 260.371 9.44904C263.215 12.2928 264.815 16.1483 264.82 20.17V357.26C264.817 361.283 263.219 365.141 260.374 367.987C257.53 370.833 253.673 372.435 249.65 372.44ZM27.17 7C23.6787 7.00529 20.332 8.39454 17.8633 10.8633C15.3945 13.332 14.0053 16.6787 14 20.17V357.26C14.0026 360.753 15.3907 364.102 17.8597 366.573C20.3287 369.044 23.677 370.435 27.17 370.44H249.65C253.141 370.435 256.488 369.045 258.957 366.577C261.425 364.108 262.815 360.761 262.82 357.27V20.17C262.815 16.6787 261.425 13.332 258.957 10.8633C256.488 8.39454 253.141 7.00529 249.65 7H27.17Z" fill="black"/>
<path d="M243.84 6H32.98C29.2219 6 25.6177 7.49291 22.9603 10.1503C20.3029 12.8077 18.81 16.4119 18.81 20.17V357.26C18.81 361.019 20.3026 364.624 22.9597 367.283C25.6168 369.942 29.221 371.437 32.98 371.44H243.84C247.597 371.437 251.2 369.944 253.857 367.287C256.514 364.63 258.007 361.027 258.01 357.27V20.17C258.01 18.3092 257.643 16.4666 256.931 14.7474C256.219 13.0282 255.176 11.4661 253.86 10.1503C252.544 8.83449 250.982 7.79074 249.263 7.07863C247.543 6.36652 245.701 6 243.84 6ZM231.37 223.5H138H45.23V49.17H231.37V223.5Z" fill="white"/>
<path d="M243.84 372.44H32.98C28.9583 372.435 25.1028 370.835 22.259 367.991C19.4152 365.147 17.8153 361.292 17.81 357.27V20.17C17.8153 16.1483 19.4152 12.2928 22.259 9.44904C25.1028 6.60526 28.9583 5.00529 32.98 5H243.84C247.862 5.00529 251.717 6.60526 254.561 9.44904C257.405 12.2928 259.005 16.1483 259.01 20.17V357.26C259.007 361.283 257.409 365.141 254.564 367.987C251.72 370.833 247.863 372.435 243.84 372.44ZM32.98 7C29.4887 7.00529 26.1419 8.39454 23.6732 10.8633C21.2045 13.332 19.8153 16.6787 19.81 20.17V357.26C19.8126 360.753 21.2007 364.102 23.6697 366.573C26.1387 369.044 29.487 370.435 32.98 370.44H243.84C247.331 370.435 250.678 369.045 253.147 366.577C255.615 364.108 257.005 360.761 257.01 357.27V20.17C257.005 16.6787 255.615 13.332 253.147 10.8633C250.678 8.39454 247.331 7.00529 243.84 7H32.98Z" fill="black"/>
<path d="M229.22 18.25H47.38C44.1327 18.2447 41.02 16.9524 38.7238 14.6562C36.4276 12.36 35.1353 9.24728 35.13 6V5H241.47V6C241.467 9.24809 240.176 12.3624 237.879 14.6591C235.582 16.9559 232.468 18.2474 229.22 18.25ZM37.22 7C37.4727 9.53129 38.6558 11.8787 40.5402 13.5876C42.4246 15.2965 44.8761 16.2452 47.42 16.25H229.22C231.764 16.2452 234.215 15.2965 236.1 13.5876C237.984 11.8787 239.167 9.53129 239.42 7H37.22Z" fill="black"/>
<path d="M178.14 18.25H98.46C95.2137 18.2447 92.1019 16.9521 89.8073 14.6556C87.5127 12.3591 86.2226 9.24636 86.22 6V5H190.38V6C190.377 9.24636 189.087 12.3591 186.793 14.6556C184.498 16.9521 181.386 18.2447 178.14 18.25ZM88.27 7C88.5203 9.53044 89.7014 11.8778 91.5841 13.5869C93.4669 15.296 95.9172 16.245 98.46 16.25H178.14C180.684 16.2452 183.135 15.2965 185.02 13.5876C186.904 11.8787 188.087 9.53129 188.34 7H88.27Z" fill="black"/>
<path d="M130.35 11.62H146.25" stroke="black" stroke-width="3" stroke-linecap="round" stroke-linejoin="round"/>
<path d="M212.08 372.44H64.53V371.44C64.5326 368.192 65.8241 365.078 68.1209 362.781C70.4176 360.484 73.5319 359.193 76.78 359.19H199.78C201.393 359.185 202.99 359.498 204.482 360.111C205.973 360.724 207.329 361.625 208.471 362.763C209.614 363.901 210.521 365.253 211.14 366.742C211.759 368.231 212.079 369.827 212.08 371.44V372.44ZM66.58 370.44H210.02C209.77 367.908 208.587 365.559 206.702 363.85C204.817 362.14 202.365 361.193 199.82 361.19H76.82C74.2692 361.185 71.8078 362.129 69.915 363.839C68.0221 365.549 66.8333 367.902 66.58 370.44Z" fill="black"/>
<path d="M63 235.75L210.55 235.75V236.75C210.547 239.998 209.256 243.112 206.959 245.409C204.662 247.706 201.548 248.997 198.3 249L75.3 249C73.6875 249.005 72.0898 248.692 70.5983 248.079C69.1069 247.466 67.7511 246.565 66.6086 245.427C65.466 244.289 64.5591 242.937 63.9399 241.448C63.3207 239.959 63.0013 238.362 63 236.75V235.75ZM208.5 237.75L65.06 237.75C65.3105 240.282 66.4929 242.631 68.3778 244.34C70.2627 246.049 72.7155 246.997 75.26 247L198.26 247C200.811 247.005 203.272 246.061 205.165 244.351C207.058 242.641 208.247 240.288 208.5 237.75Z" fill="black"/>
<path d="M28 37V236H248V37H28ZM231.028 222.5H138.5L45.5 223.5L46 51.5L230.5 51L231.028 222.5Z" fill="#FFD401"/>
<path d="M28 37V236H248V37H28ZM231.028 222.5H138.5L45.5 223.5L46 51.5L230.5 51L231.028 222.5Z" fill="#aaaaaa"/>
<path d="M249 238H27V36H249V238ZM28.9991 235.606H247.001V38.3942H28.9991V235.606Z" fill="black"/>
<path d="M232 225H44V49H232V225ZM45.9985 222.541H230.001V51.4595H45.9985V222.541Z" fill="black"/>
<path d="M83.7443 292.414C86.3472 281.386 79.5171 270.335 68.4888 267.732C57.4606 265.129 46.4103 271.96 43.8074 282.988C41.2045 294.016 48.0346 305.066 59.0629 307.669C70.0911 310.272 81.1414 303.442 83.7443 292.414Z" fill="#aaaaaa"/>
<path d="M64 309C59.8466 309 55.7865 307.768 52.333 305.461C48.8796 303.153 46.188 299.874 44.5985 296.036C43.0091 292.199 42.5932 287.977 43.4035 283.903C44.2138 279.83 46.2139 276.088 49.1508 273.151C52.0877 270.214 55.8295 268.214 59.9031 267.404C63.9767 266.593 68.1991 267.009 72.0364 268.599C75.8736 270.188 79.1534 272.88 81.4609 276.333C83.7684 279.786 85 283.847 85 288C84.9866 293.565 82.7698 298.899 78.8345 302.834C74.8991 306.77 69.5654 308.987 64 309ZM64 268.398C60.133 268.398 56.3529 269.544 53.1376 271.693C49.9224 273.841 47.4164 276.895 45.9366 280.467C44.4567 284.04 44.0696 287.971 44.824 291.764C45.5784 295.556 47.4405 299.04 50.1749 301.774C52.9092 304.509 56.393 306.371 60.1856 307.125C63.9783 307.88 67.9095 307.493 71.4821 306.013C75.0547 304.533 78.1083 302.027 80.2567 298.812C82.405 295.596 83.5517 291.816 83.5517 287.949C83.5383 282.768 81.4741 277.803 77.8104 274.139C74.1466 270.475 69.1813 268.411 64 268.398Z" fill="black"/>
<path d="M69.1845 262H62.8155C60.156 262 58 264.141 58 266.782V310.218C58 312.859 60.156 315 62.8155 315H69.1845C71.844 315 74 312.859 74 310.218V266.782C74 264.141 71.844 262 69.1845 262Z" fill="black"/>
<path d="M69.2793 315H62.7207C61.2035 315 59.7484 314.424 58.6756 313.398C57.6027 312.372 57 310.981 57 309.531V266.469C57.002 265.019 57.6054 263.629 58.6778 262.604C59.7502 261.579 61.2041 261.002 62.7207 261H69.2793C70.7959 261.002 72.2498 261.579 73.3222 262.604C74.3946 263.629 74.998 265.019 75 266.469V309.531C75 310.981 74.3973 312.372 73.3245 313.398C72.2516 314.424 70.7965 315 69.2793 315ZM62.7207 262.457C61.6075 262.457 60.5399 262.879 59.7528 263.632C58.9657 264.384 58.5235 265.405 58.5235 266.469V309.531C58.5235 310.595 58.9657 311.616 59.7528 312.368C60.5399 313.121 61.6075 313.543 62.7207 313.543H69.2793C70.3925 313.543 71.4601 313.121 72.2472 312.368C73.0343 311.616 73.4765 310.595 73.4765 309.531V266.469C73.4765 265.405 73.0343 264.384 72.2472 263.632C71.4601 262.879 70.3925 262.457 69.2793 262.457H62.7207Z" fill="black"/>
<path d="M92 291.184V284.816C92 282.156 89.859 280 87.2179 280H43.7821C41.141 280 39 282.156 39 284.816V291.184C39 293.844 41.141 296 43.7821 296H87.2179C89.859 296 92 293.844 92 291.184Z" fill="black"/>
<path d="M87.5454 297H44.4692C43.0193 296.998 41.6293 296.428 40.604 295.413C39.5788 294.399 39.0019 293.024 39 291.59V285.395C39.0058 283.964 39.5843 282.592 40.6091 281.581C41.634 280.57 43.0218 280.002 44.4692 280H87.5308C88.982 280.002 90.3731 280.573 91.3986 281.589C92.424 282.605 93 283.982 93 285.417V291.612C92.9923 293.04 92.415 294.407 91.3935 295.416C90.372 296.425 88.989 296.994 87.5454 297ZM44.4692 281.441C43.4043 281.443 42.3837 281.862 41.6314 282.608C40.879 283.353 40.4565 284.364 40.4565 285.417V291.612C40.4623 292.661 40.8876 293.665 41.6395 294.404C42.3914 295.144 43.4087 295.559 44.4692 295.559H87.5308C88.595 295.559 89.6157 295.141 90.3682 294.397C91.1207 293.652 91.5435 292.643 91.5435 291.59V285.395C91.5435 284.342 91.121 283.332 90.3686 282.586C89.6163 281.841 88.5957 281.421 87.5308 281.419L44.4692 281.441Z" fill="black"/>
<path d="M85.2179 279.182H71.4445V265.695C71.4454 265.078 71.3224 264.467 71.0824 263.897C70.8424 263.327 70.4902 262.809 70.046 262.373C69.6017 261.937 69.0742 261.591 68.4935 261.355C67.9129 261.12 67.2906 260.999 66.6623 261H60.3376C59.0693 261 57.853 261.495 56.9561 262.375C56.0593 263.256 55.5555 264.45 55.5555 265.695V279.182H41.7821C41.1538 279.181 40.5316 279.302 39.9509 279.537C39.3703 279.773 38.8427 280.119 38.3985 280.555C37.9542 280.991 37.602 281.509 37.362 282.079C37.1221 282.649 36.999 283.26 37 283.877V290.087C37 291.332 37.5038 292.526 38.4006 293.407C39.2975 294.287 40.5138 294.782 41.7821 294.782H55.5555V308.305C55.5555 309.55 56.0593 310.744 56.9561 311.625C57.853 312.505 59.0693 313 60.3376 313H66.6623C67.2906 313.001 67.9129 312.88 68.4935 312.645C69.0742 312.409 69.6017 312.063 70.046 311.627C70.4902 311.191 70.8424 310.673 71.0824 310.103C71.3224 309.533 71.4454 308.922 71.4445 308.305V294.782H85.2179C86.4862 294.782 87.7025 294.287 88.5993 293.407C89.4961 292.526 90 291.332 90 290.087V283.877C90.0009 283.26 89.8779 282.649 89.6379 282.079C89.398 281.509 89.0457 280.991 88.6015 280.555C88.1572 280.119 87.6297 279.773 87.049 279.537C86.4684 279.302 85.8461 279.181 85.2179 279.182Z" fill="white"/>
<path d="M66.1351 314H59.8649C58.4149 313.998 57.0249 313.421 55.9997 312.395C54.9744 311.369 54.3976 309.978 54.3957 308.527V295.592H41.4692C40.0193 295.59 38.6293 295.013 37.604 293.987C36.5788 292.961 36.0019 291.57 36 290.119V283.845C36.0019 282.394 36.5788 281.003 37.604 279.977C38.6293 278.951 40.0193 278.374 41.4692 278.372H54.3957V265.473C54.3957 264.021 54.9719 262.629 55.9976 261.603C57.0232 260.577 58.4143 260 59.8649 260H66.1351C67.5856 260 68.9768 260.577 70.0024 261.603C71.0281 262.629 71.6043 264.021 71.6043 265.473V278.372H84.5308C85.9807 278.374 87.3707 278.951 88.396 279.977C89.4212 281.003 89.9981 282.394 90 283.845V290.119C89.9981 291.57 89.4212 292.961 88.396 293.987C87.3707 295.013 85.9807 295.59 84.5308 295.592H71.6043V308.527C71.6024 309.978 71.0256 311.369 70.0003 312.395C68.975 313.421 67.5851 313.998 66.1351 314ZM41.4692 279.829C40.405 279.829 39.3843 280.252 38.6318 281.005C37.8793 281.758 37.4565 282.78 37.4565 283.845V290.119C37.4584 291.183 37.8818 292.204 38.6339 292.956C39.386 293.709 40.4055 294.132 41.4692 294.134H55.8522V308.527C55.8541 309.591 56.2775 310.612 57.0296 311.364C57.7817 312.117 58.8012 312.541 59.8649 312.543H66.1351C67.1994 312.543 68.22 312.119 68.9725 311.366C69.725 310.613 70.1478 309.592 70.1478 308.527V294.134H84.5308C85.5945 294.132 86.614 293.709 87.3661 292.956C88.1182 292.204 88.5416 291.183 88.5435 290.119V283.845C88.5435 282.78 88.1207 281.758 87.3682 281.005C86.6157 280.252 85.595 279.829 84.5308 279.829H70.1478V265.473C70.1478 264.408 69.725 263.387 68.9725 262.634C68.22 261.881 67.1994 261.457 66.1351 261.457H59.8649C58.8012 261.459 57.7817 261.883 57.0296 262.636C56.2775 263.388 55.8541 264.409 55.8522 265.473V279.829H41.4692Z" fill="black"/>
<path d="M60 269L63.018 266L66 268.957" fill="white"/>
<path d="M61.0123 269L60 268.106L63.5179 265L67 268.074L65.9877 268.968L63.5179 266.794L61.0123 269Z" fill="black"/>
<path d="M66 305L62.982 308L60 305.036" fill="white"/>
<path d="M63.4821 309L60 305.157L61.0123 304.04L63.4821 306.758L65.9877 304L67 305.117L63.4821 309Z" fill="black"/>
<path d="M81 284L84 287.018L81.0357 290" fill="white"/>
<path d="M81.9255 290L81.0317 288.988L83.206 286.518L81 284.012L81.8938 283L85 286.518L81.9255 290Z" fill="black"/>
<path d="M45 290L42 286.982L44.9714 284" fill="white"/>
<path d="M44.8827 290L41 286.482L44.8431 283L45.9604 284.012L43.2425 286.482L46 288.988L44.8827 290Z" fill="black"/>
<path d="M63 293C65.7614 293 68 290.538 68 287.5C68 284.462 65.7614 282 63 282C60.2386 282 58 284.462 58 287.5C58 290.538 60.2386 293 63 293Z" fill="white"/>
<path d="M63.0073 293C61.82 293.001 60.659 292.651 59.6712 291.992C58.6833 291.333 57.9132 290.396 57.4581 289.299C57.0031 288.203 56.8837 286.996 57.1149 285.831C57.3462 284.667 57.9178 283.597 58.7574 282.757C59.5969 281.918 60.6667 281.346 61.8313 281.115C62.9958 280.884 64.2028 281.003 65.2995 281.458C66.3961 281.913 67.3331 282.683 67.9919 283.671C68.6506 284.659 69.0014 285.82 69 287.007C68.9961 288.595 68.3635 290.118 67.2405 291.241C66.1175 292.364 64.5955 292.996 63.0073 293ZM63.0073 282.474C62.1105 282.473 61.2334 282.737 60.4869 283.235C59.7405 283.732 59.1584 284.439 58.8142 285.268C58.4699 286.096 58.3791 287.007 58.5532 287.887C58.7273 288.767 59.1584 289.575 59.7921 290.21C60.4257 290.845 61.2334 291.277 62.1129 291.453C62.9925 291.628 63.9043 291.539 64.733 291.196C65.5617 290.853 66.2701 290.272 66.7685 289.526C67.267 288.781 67.533 287.904 67.533 287.007C67.534 286.412 67.4177 285.822 67.1908 285.272C66.9638 284.722 66.6308 284.221 66.2105 283.8C65.7903 283.378 65.2911 283.044 64.7415 282.815C64.1919 282.586 63.6026 282.468 63.0073 282.467V282.474Z" fill="black"/>
<path d="M190.5 296C194.642 296 198 292.642 198 288.5C198 284.358 194.642 281 190.5 281C186.358 281 183 284.358 183 288.5C183 292.642 186.358 296 190.5 296Z" fill="black"/>
<path d="M190.521 297C188.839 297.004 187.194 296.509 185.793 295.578C184.393 294.647 183.3 293.321 182.654 291.769C182.007 290.216 181.835 288.507 182.16 286.857C182.485 285.207 183.293 283.69 184.48 282.499C185.667 281.308 187.181 280.496 188.83 280.166C190.479 279.835 192.189 280.001 193.743 280.643C195.298 281.285 196.627 282.373 197.563 283.771C198.498 285.168 198.999 286.811 199 288.493C198.998 290.744 198.105 292.903 196.516 294.497C194.927 296.091 192.771 296.991 190.521 297ZM190.521 281.376C189.109 281.372 187.727 281.787 186.552 282.568C185.376 283.35 184.459 284.463 183.916 285.767C183.374 287.07 183.23 288.505 183.504 289.89C183.778 291.276 184.457 292.548 185.455 293.547C186.453 294.546 187.725 295.226 189.11 295.501C190.494 295.776 191.93 295.634 193.234 295.093C194.538 294.552 195.652 293.636 196.435 292.461C197.217 291.286 197.634 289.905 197.631 288.493C197.626 286.608 196.875 284.802 195.543 283.469C194.211 282.135 192.405 281.383 190.521 281.376Z" fill="black"/>
<path d="M192.739 293.367C196.587 291.773 198.414 287.361 196.821 283.513C195.227 279.665 190.815 277.838 186.967 279.432C183.119 281.026 181.292 285.437 182.886 289.285C184.48 293.133 188.891 294.961 192.739 293.367Z" fill="#aaaaaa"/>
<path d="M190 295C188.418 295 186.871 294.501 185.555 293.567C184.24 292.634 183.214 291.306 182.609 289.753C182.003 288.2 181.845 286.491 182.154 284.842C182.462 283.193 183.224 281.678 184.343 280.49C185.462 279.301 186.887 278.491 188.439 278.163C189.991 277.835 191.6 278.004 193.061 278.647C194.523 279.29 195.773 280.38 196.652 281.778C197.531 283.175 198 284.819 198 286.5C197.998 288.754 197.155 290.915 195.655 292.508C194.155 294.102 192.121 294.998 190 295ZM190 279.369C188.673 279.369 187.375 279.787 186.271 280.571C185.167 281.354 184.307 282.468 183.799 283.771C183.291 285.074 183.158 286.508 183.417 287.891C183.676 289.275 184.315 290.545 185.254 291.543C186.193 292.54 187.389 293.219 188.691 293.494C189.993 293.769 191.342 293.628 192.568 293.088C193.795 292.549 194.843 291.635 195.581 290.462C196.318 289.289 196.712 287.91 196.712 286.5C196.703 284.613 195.993 282.807 194.735 281.475C193.478 280.143 191.776 279.393 190 279.389V279.369Z" fill="black"/>
<path d="M194.346 285C194.236 285.001 194.129 284.968 194.032 284.906C193.936 284.844 193.854 284.754 193.793 284.645C193.444 283.894 192.968 283.239 192.396 282.721C191.825 282.203 191.17 281.833 190.473 281.635C189.272 281.43 188.05 281.771 187.047 282.591C186.906 282.715 186.729 282.766 186.557 282.733C186.384 282.701 186.229 282.587 186.126 282.417C186.023 282.248 185.981 282.036 186.008 281.828C186.035 281.621 186.13 281.435 186.271 281.311C187.569 280.246 189.154 279.806 190.71 280.079C192.327 280.427 193.734 281.659 194.892 283.776C194.957 283.895 194.994 284.032 194.999 284.174C195.005 284.316 194.978 284.458 194.922 284.583C194.866 284.708 194.783 284.813 194.682 284.887C194.58 284.96 194.464 284.999 194.346 285Z" fill="white"/>
<path d="M207.5 280C211.642 280 215 276.642 215 272.5C215 268.358 211.642 265 207.5 265C203.358 265 200 268.358 200 272.5C200 276.642 203.358 280 207.5 280Z" fill="black"/>
<path d="M207.5 281C205.819 281 204.175 280.501 202.778 279.567C201.38 278.634 200.29 277.306 199.647 275.753C199.004 274.2 198.835 272.491 199.163 270.842C199.491 269.193 200.301 267.678 201.49 266.49C202.678 265.301 204.193 264.491 205.842 264.163C207.491 263.835 209.2 264.004 210.753 264.647C212.306 265.29 213.634 266.38 214.567 267.778C215.501 269.175 216 270.819 216 272.5C215.996 274.753 215.1 276.913 213.506 278.506C211.913 280.1 209.753 280.996 207.5 281ZM207.5 265.369C206.09 265.369 204.711 265.787 203.538 266.571C202.365 267.354 201.451 268.468 200.912 269.771C200.372 271.074 200.231 272.508 200.506 273.891C200.781 275.275 201.46 276.545 202.457 277.543C203.455 278.54 204.725 279.219 206.109 279.494C207.492 279.769 208.926 279.628 210.229 279.088C211.532 278.549 212.646 277.635 213.429 276.462C214.213 275.289 214.631 273.91 214.631 272.5C214.629 270.609 213.878 268.796 212.541 267.459C211.204 266.122 209.391 265.371 207.5 265.369Z" fill="black"/>
<path d="M207.5 278C211.642 278 215 274.642 215 270.5C215 266.358 211.642 263 207.5 263C203.358 263 200 266.358 200 270.5C200 274.642 203.358 278 207.5 278Z" fill="#FFD401"/>
<path d="M207 278C205.418 278 203.871 277.531 202.555 276.652C201.24 275.773 200.214 274.523 199.609 273.061C199.003 271.6 198.845 269.991 199.154 268.439C199.462 266.887 200.224 265.462 201.343 264.343C202.462 263.224 203.887 262.462 205.439 262.154C206.991 261.845 208.6 262.003 210.061 262.609C211.523 263.214 212.773 264.24 213.652 265.555C214.531 266.871 215 268.418 215 270C214.998 272.121 214.155 274.155 212.655 275.655C211.155 277.155 209.121 277.998 207 278ZM207 263.288C205.673 263.288 204.375 263.682 203.271 264.419C202.167 265.157 201.307 266.205 200.799 267.432C200.291 268.658 200.158 270.007 200.417 271.309C200.676 272.611 201.315 273.807 202.254 274.746C203.193 275.685 204.389 276.324 205.691 276.583C206.993 276.842 208.342 276.709 209.568 276.201C210.795 275.693 211.843 274.833 212.581 273.729C213.318 272.625 213.712 271.327 213.712 270C213.708 268.221 213 266.516 211.742 265.258C210.484 264 208.779 263.292 207 263.288Z" fill="black"/>
<path d="M212.346 268C212.238 267.999 212.132 267.973 212.037 267.924C211.942 267.874 211.861 267.803 211.802 267.716C210.852 266.335 209.739 265.521 208.487 265.307C207.291 265.147 206.075 265.419 205.074 266.07C205.006 266.125 204.926 266.166 204.84 266.19C204.754 266.215 204.664 266.222 204.575 266.211C204.487 266.201 204.401 266.173 204.324 266.13C204.247 266.086 204.18 266.028 204.127 265.958C204.074 265.889 204.036 265.81 204.016 265.726C203.997 265.642 203.995 265.555 204.011 265.47C204.027 265.385 204.062 265.305 204.112 265.233C204.162 265.162 204.226 265.101 204.301 265.054C205.592 264.197 207.172 263.843 208.723 264.064C210.335 264.348 211.737 265.326 212.89 267.016C212.937 267.085 212.971 267.163 212.988 267.244C213.004 267.326 213.004 267.41 212.987 267.491C212.97 267.573 212.936 267.65 212.888 267.719C212.84 267.788 212.778 267.847 212.706 267.893C212.6 267.962 212.474 267.999 212.346 268Z" fill="white"/>
<path d="M223.5 296C227.642 296 231 292.642 231 288.5C231 284.358 227.642 281 223.5 281C219.358 281 216 284.358 216 288.5C216 292.642 219.358 296 223.5 296Z" fill="black"/>
<path d="M224 297C222.418 297 220.872 296.502 219.556 295.568C218.241 294.634 217.215 293.307 216.61 291.754C216.004 290.202 215.845 288.493 216.153 286.844C216.461 285.196 217.223 283.681 218.341 282.492C219.459 281.303 220.884 280.493 222.435 280.164C223.987 279.835 225.595 280.003 227.057 280.645C228.519 281.287 229.769 282.376 230.649 283.773C231.528 285.17 231.999 286.812 232 288.493C232 290.748 231.157 292.911 229.657 294.506C228.157 296.101 226.122 296.998 224 297ZM224 281.376C222.672 281.376 221.374 281.794 220.27 282.578C219.166 283.363 218.306 284.477 217.798 285.781C217.29 287.085 217.158 288.519 217.418 289.903C217.678 291.287 218.319 292.557 219.259 293.554C220.199 294.551 221.396 295.229 222.699 295.503C224.001 295.776 225.351 295.633 226.577 295.091C227.804 294.549 228.851 293.633 229.587 292.459C230.323 291.284 230.714 289.904 230.712 288.493C230.708 286.604 230 284.794 228.741 283.459C227.483 282.125 225.778 281.376 224 281.376Z" fill="black"/>
<path d="M226.153 293.371C230.001 291.777 231.828 287.365 230.234 283.518C228.64 279.67 224.229 277.842 220.381 279.436C216.533 281.03 214.705 285.441 216.299 289.289C217.893 293.137 222.305 294.965 226.153 293.371Z" fill="#aaaaaa"/>
<path d="M223 295C221.418 295 219.871 294.501 218.555 293.567C217.24 292.634 216.214 291.306 215.609 289.753C215.003 288.2 214.845 286.491 215.154 284.842C215.462 283.193 216.224 281.678 217.343 280.49C218.462 279.301 219.887 278.491 221.439 278.163C222.991 277.835 224.6 278.004 226.061 278.647C227.523 279.29 228.773 280.38 229.652 281.778C230.531 283.175 231 284.819 231 286.5C230.998 288.754 230.155 290.915 228.655 292.508C227.155 294.102 225.121 294.998 223 295ZM223 279.369C221.673 279.369 220.375 279.787 219.271 280.571C218.167 281.354 217.307 282.468 216.799 283.771C216.291 285.074 216.158 286.508 216.417 287.891C216.676 289.275 217.315 290.545 218.254 291.543C219.193 292.54 220.389 293.219 221.691 293.494C222.993 293.769 224.342 293.628 225.568 293.088C226.795 292.549 227.843 291.635 228.581 290.462C229.318 289.289 229.712 287.91 229.712 286.5C229.705 284.613 228.995 282.805 227.737 281.473C226.479 280.14 224.776 279.391 223 279.389V279.369Z" fill="black"/>
<path d="M228.337 285C228.228 285.001 228.12 284.969 228.024 284.907C227.927 284.846 227.845 284.756 227.785 284.647C226.832 282.931 225.715 281.928 224.466 281.661C223.27 281.449 222.051 281.773 221.043 282.57C220.902 282.691 220.727 282.74 220.556 282.708C220.385 282.676 220.232 282.564 220.129 282.398C220.078 282.315 220.04 282.221 220.02 282.121C219.999 282.021 219.994 281.917 220.007 281.815C220.02 281.713 220.05 281.615 220.094 281.527C220.139 281.439 220.198 281.362 220.267 281.301C221.565 280.244 223.148 279.808 224.703 280.078C226.32 280.423 227.733 281.645 228.889 283.746C228.937 283.832 228.971 283.928 228.988 284.029C229.004 284.131 229.004 284.235 228.987 284.336C228.97 284.438 228.936 284.534 228.888 284.619C228.839 284.705 228.777 284.778 228.705 284.835C228.599 284.934 228.471 284.991 228.337 285Z" fill="white"/>
<path d="M206.5 312C210.642 312 214 308.642 214 304.5C214 300.358 210.642 297 206.5 297C202.358 297 199 300.358 199 304.5C199 308.642 202.358 312 206.5 312Z" fill="black"/>
<path d="M207 313C205.418 313 203.871 312.531 202.555 311.652C201.24 310.773 200.214 309.523 199.609 308.061C199.003 306.6 198.845 304.991 199.154 303.439C199.462 301.887 200.224 300.462 201.343 299.343C202.462 298.224 203.887 297.462 205.439 297.154C206.991 296.845 208.6 297.003 210.061 297.609C211.523 298.214 212.773 299.24 213.652 300.555C214.531 301.871 215 303.418 215 305C214.998 307.121 214.155 309.155 212.655 310.655C211.155 312.155 209.121 312.998 207 313ZM207 298.288C205.673 298.288 204.375 298.682 203.271 299.419C202.167 300.157 201.307 301.205 200.799 302.432C200.291 303.658 200.158 305.007 200.417 306.309C200.676 307.611 201.315 308.807 202.254 309.746C203.193 310.685 204.389 311.324 205.691 311.583C206.993 311.842 208.342 311.709 209.568 311.201C210.795 310.693 211.843 309.833 212.581 308.729C213.318 307.625 213.712 306.327 213.712 305C213.71 303.22 213.002 301.514 211.744 300.256C210.486 298.998 208.78 298.29 207 298.288Z" fill="black"/>
<path d="M206.5 310C210.642 310 214 306.642 214 302.5C214 298.358 210.642 295 206.5 295C202.358 295 199 298.358 199 302.5C199 306.642 202.358 310 206.5 310Z" fill="#FFD401"/>
<path d="M206 311C204.418 311 202.871 310.501 201.555 309.567C200.24 308.634 199.214 307.306 198.609 305.753C198.003 304.2 197.845 302.491 198.154 300.842C198.462 299.193 199.224 297.678 200.343 296.49C201.462 295.301 202.887 294.491 204.439 294.163C205.991 293.835 207.6 294.004 209.061 294.647C210.523 295.29 211.773 296.38 212.652 297.778C213.531 299.175 214 300.819 214 302.5C213.997 304.753 213.153 306.913 211.653 308.506C210.154 310.1 208.121 310.996 206 311ZM206 295.369C204.673 295.369 203.375 295.787 202.271 296.571C201.167 297.354 200.307 298.468 199.799 299.771C199.291 301.074 199.158 302.508 199.417 303.891C199.676 305.275 200.315 306.545 201.254 307.543C202.193 308.54 203.389 309.219 204.691 309.494C205.993 309.769 207.342 309.628 208.568 309.088C209.795 308.549 210.843 307.635 211.581 306.462C212.318 305.289 212.712 303.91 212.712 302.5C212.71 300.609 212.002 298.796 210.744 297.459C209.486 296.122 207.78 295.371 206 295.369Z" fill="black"/>
<path d="M210.32 300.999C210.211 300.999 210.105 300.972 210.01 300.923C209.914 300.873 209.833 300.802 209.774 300.715C209.423 300.121 208.951 299.602 208.386 299.188C207.821 298.774 207.174 298.475 206.485 298.308C205.279 298.151 204.056 298.423 203.045 299.072C202.974 299.121 202.895 299.156 202.81 299.175C202.726 299.194 202.638 299.197 202.553 299.184C202.467 299.17 202.385 299.141 202.312 299.097C202.238 299.052 202.174 298.995 202.124 298.927C202.023 298.792 201.981 298.624 202.008 298.459C202.035 298.295 202.129 298.147 202.268 298.049C203.567 297.196 205.152 296.845 206.709 297.063C208.327 297.341 209.734 298.327 210.892 300.02C210.987 300.159 211.021 300.329 210.987 300.492C210.952 300.656 210.852 300.799 210.708 300.892C210.595 300.968 210.458 301.006 210.32 300.999Z" fill="white"/>
<path d="M114.94 356.16C114.547 356.16 114.17 356.006 113.89 355.731C113.609 355.456 113.448 355.083 113.44 354.69L113.08 338.21C113.071 337.812 113.22 337.427 113.495 337.139C113.769 336.851 114.147 336.684 114.545 336.675C114.943 336.666 115.328 336.815 115.616 337.09C115.904 337.364 116.071 337.742 116.08 338.14L116.45 354.62C116.455 354.817 116.422 355.013 116.351 355.197C116.281 355.381 116.175 355.55 116.039 355.693C115.904 355.836 115.741 355.95 115.561 356.031C115.381 356.111 115.187 356.155 114.99 356.16H114.94Z" fill="black"/>
<path d="M126.2 356.16C125.807 356.16 125.43 356.006 125.15 355.731C124.869 355.456 124.708 355.083 124.7 354.69L124.33 338.21C124.321 337.812 124.47 337.427 124.745 337.139C125.019 336.851 125.397 336.684 125.795 336.675C126.193 336.666 126.578 336.815 126.866 337.09C127.154 337.364 127.321 337.742 127.33 338.14L127.7 354.62C127.705 354.817 127.672 355.013 127.601 355.197C127.531 355.381 127.425 355.55 127.289 355.693C127.154 355.836 126.991 355.95 126.811 356.031C126.631 356.111 126.437 356.155 126.24 356.16H126.2Z" fill="black"/>
<path d="M136.9 356.16C136.504 356.16 136.124 356.003 135.843 355.724C135.562 355.445 135.403 355.066 135.4 354.67L135.32 338.96C135.319 338.763 135.356 338.568 135.43 338.385C135.505 338.203 135.614 338.037 135.752 337.896C135.891 337.756 136.055 337.645 136.237 337.568C136.418 337.491 136.613 337.451 136.81 337.45C137.205 337.453 137.584 337.61 137.864 337.889C138.145 338.167 138.305 338.545 138.31 338.94L138.39 354.65C138.39 355.047 138.234 355.428 137.955 355.711C137.676 355.993 137.297 356.155 136.9 356.16Z" fill="black"/>
<path d="M147.13 356.16C146.738 356.16 146.362 356.006 146.083 355.731C145.805 355.456 145.645 355.082 145.64 354.69L145.26 338.21C145.251 337.812 145.4 337.427 145.675 337.139C145.949 336.851 146.327 336.684 146.725 336.675C147.123 336.666 147.508 336.815 147.796 337.09C148.084 337.364 148.251 337.742 148.26 338.14L148.64 354.62C148.648 355.019 148.498 355.405 148.223 355.693C147.947 355.982 147.569 356.15 147.17 356.16H147.13Z" fill="black"/>
<path d="M159.7 356.16C159.307 356.16 158.93 356.006 158.65 355.731C158.369 355.456 158.208 355.083 158.2 354.69L157.83 338.21C157.821 337.812 157.97 337.427 158.245 337.139C158.519 336.851 158.897 336.684 159.295 336.675C159.693 336.666 160.078 336.815 160.366 337.09C160.654 337.364 160.821 337.742 160.83 338.14L161.2 354.62C161.208 355.017 161.059 355.401 160.786 355.69C160.513 355.978 160.137 356.147 159.74 356.16H159.7Z" fill="black"/>
<path d="M34.08 349.85C33.7152 349.852 33.3581 349.745 33.054 349.544C32.7499 349.343 32.5125 349.055 32.372 348.719C32.2315 348.382 32.1942 348.011 32.2649 347.653C32.3356 347.296 32.511 346.967 32.769 346.709C33.0269 346.451 33.3556 346.276 33.7135 346.205C34.0714 346.134 34.4422 346.171 34.7788 346.312C35.1154 346.453 35.4027 346.69 35.6041 346.994C35.8055 347.298 35.912 347.655 35.91 348.02C35.9048 348.504 35.7103 348.966 35.3683 349.308C35.0262 349.65 34.5637 349.845 34.08 349.85ZM34.08 347.18C33.9135 347.178 33.7501 347.226 33.6106 347.317C33.4712 347.408 33.362 347.538 33.2968 347.692C33.2317 347.845 33.2137 348.014 33.2449 348.178C33.2762 348.341 33.3554 348.492 33.4725 348.61C33.5896 348.729 33.7392 348.81 33.9024 348.843C34.0656 348.876 34.235 348.86 34.3891 348.797C34.5432 348.734 34.675 348.626 34.7677 348.488C34.8605 348.349 34.91 348.187 34.91 348.02C34.9075 347.8 34.8195 347.589 34.6647 347.432C34.5099 347.276 34.3002 347.185 34.08 347.18Z" fill="black"/>
<path d="M49.27 349.85C48.9052 349.852 48.5481 349.745 48.244 349.544C47.9399 349.343 47.7025 349.055 47.562 348.719C47.4215 348.382 47.3842 348.011 47.4549 347.653C47.5256 347.296 47.701 346.967 47.959 346.709C48.2169 346.451 48.5457 346.276 48.9035 346.205C49.2614 346.134 49.6321 346.171 49.9688 346.312C50.3054 346.453 50.5927 346.69 50.7941 346.994C50.9955 347.298 51.102 347.655 51.1 348.02C51.0948 348.504 50.9003 348.966 50.5583 349.308C50.2162 349.65 49.7537 349.845 49.27 349.85ZM49.27 347.18C49.1035 347.178 48.9401 347.226 48.8006 347.317C48.6612 347.408 48.552 347.538 48.4868 347.692C48.4217 347.845 48.4037 348.014 48.4349 348.178C48.4662 348.341 48.5454 348.492 48.6625 348.61C48.7796 348.729 48.9292 348.81 49.0924 348.843C49.2556 348.876 49.425 348.86 49.5791 348.797C49.7332 348.734 49.865 348.626 49.9577 348.488C50.0505 348.349 50.1 348.187 50.1 348.02C50.0975 347.8 50.0095 347.589 49.8547 347.432C49.6999 347.276 49.4902 347.185 49.27 347.18Z" fill="black"/>
<path d="M56.08 349.85C55.7157 349.85 55.3595 349.742 55.0567 349.539C54.7539 349.337 54.5181 349.049 54.3791 348.712C54.2402 348.375 54.2043 348.005 54.2761 347.647C54.3479 347.29 54.5242 346.962 54.7825 346.705C55.0408 346.448 55.3696 346.274 55.7272 346.204C56.0848 346.134 56.4551 346.172 56.7911 346.313C57.1271 346.454 57.4138 346.691 57.6148 346.995C57.8158 347.299 57.922 347.656 57.92 348.02C57.9174 348.506 57.7223 348.972 57.3776 349.315C57.0328 349.658 56.5663 349.85 56.08 349.85ZM56.08 347.18C55.9139 347.18 55.7515 347.229 55.6133 347.322C55.4752 347.414 55.3675 347.545 55.3039 347.699C55.2404 347.852 55.2237 348.021 55.2562 348.184C55.2886 348.347 55.3686 348.496 55.486 348.614C55.6035 348.731 55.7532 348.811 55.9161 348.844C56.0791 348.876 56.248 348.86 56.4015 348.796C56.555 348.732 56.6861 348.625 56.7784 348.487C56.8707 348.349 56.92 348.186 56.92 348.02C56.92 347.797 56.8315 347.584 56.674 347.426C56.5164 347.268 56.3028 347.18 56.08 347.18Z" fill="black"/>
<path d="M41.53 349.85C41.1657 349.85 40.8095 349.742 40.5067 349.539C40.2039 349.337 39.9681 349.049 39.8291 348.712C39.6902 348.375 39.6543 348.005 39.7261 347.647C39.7979 347.29 39.9742 346.962 40.2325 346.705C40.4908 346.448 40.8196 346.274 41.1772 346.204C41.5348 346.134 41.9051 346.172 42.2411 346.313C42.5771 346.454 42.8638 346.691 43.0648 346.995C43.2658 347.299 43.372 347.656 43.37 348.02C43.3674 348.506 43.1723 348.972 42.8276 349.315C42.4828 349.658 42.0163 349.85 41.53 349.85ZM41.53 347.18C41.3639 347.18 41.2015 347.229 41.0633 347.322C40.9252 347.414 40.8175 347.545 40.7539 347.699C40.6904 347.852 40.6737 348.021 40.7062 348.184C40.7386 348.347 40.8186 348.496 40.936 348.614C41.0535 348.731 41.2032 348.811 41.3661 348.844C41.5291 348.876 41.698 348.86 41.8515 348.796C42.005 348.732 42.1361 348.625 42.2284 348.487C42.3207 348.349 42.37 348.186 42.37 348.02C42.37 347.797 42.2815 347.584 42.124 347.426C41.9665 347.268 41.7528 347.18 41.53 347.18Z" fill="black"/>
<path d="M34.08 355.96C33.7152 355.962 33.3581 355.855 33.054 355.654C32.7499 355.453 32.5125 355.165 32.372 354.829C32.2315 354.492 32.1942 354.121 32.2649 353.764C32.3356 353.406 32.511 353.077 32.769 352.819C33.0269 352.561 33.3556 352.386 33.7135 352.315C34.0714 352.244 34.4422 352.281 34.7788 352.422C35.1154 352.562 35.4027 352.8 35.6041 353.104C35.8055 353.408 35.912 353.765 35.91 354.13C35.9074 354.615 35.7137 355.078 35.3711 355.421C35.0285 355.764 34.5645 355.957 34.08 355.96ZM34.08 353.29C33.858 353.293 33.6459 353.382 33.4889 353.539C33.3319 353.696 33.2426 353.908 33.24 354.13C33.24 354.296 33.2893 354.459 33.3816 354.597C33.4739 354.735 33.6051 354.842 33.7585 354.906C33.912 354.97 34.0809 354.986 34.2439 354.954C34.4068 354.921 34.5565 354.841 34.674 354.724C34.7914 354.606 34.8714 354.457 34.9039 354.294C34.9363 354.131 34.9196 353.962 34.8561 353.809C34.7925 353.655 34.6848 353.524 34.5467 353.432C34.4085 353.339 34.2461 353.29 34.08 353.29Z" fill="black"/>
<path d="M49.27 355.96C48.9052 355.962 48.5481 355.855 48.244 355.654C47.9399 355.453 47.7025 355.165 47.562 354.829C47.4215 354.492 47.3842 354.121 47.4549 353.764C47.5256 353.406 47.701 353.077 47.959 352.819C48.2169 352.561 48.5457 352.386 48.9035 352.315C49.2614 352.244 49.6321 352.281 49.9688 352.422C50.3054 352.562 50.5927 352.8 50.7941 353.104C50.9955 353.408 51.102 353.765 51.1 354.13C51.0974 354.615 50.9037 355.078 50.5611 355.421C50.2185 355.764 49.7545 355.957 49.27 355.96ZM49.27 353.29C49.048 353.293 48.8359 353.382 48.6789 353.539C48.5219 353.696 48.4326 353.908 48.43 354.13C48.43 354.296 48.4793 354.459 48.5716 354.597C48.6639 354.735 48.7951 354.842 48.9485 354.906C49.102 354.97 49.2709 354.986 49.4339 354.954C49.5968 354.921 49.7465 354.841 49.864 354.724C49.9814 354.606 50.0614 354.457 50.0939 354.294C50.1263 354.131 50.1096 353.962 50.0461 353.809C49.9825 353.655 49.8748 353.524 49.7367 353.432C49.5985 353.339 49.4361 353.29 49.27 353.29Z" fill="black"/>
<path d="M56.08 355.96C55.7157 355.96 55.3595 355.852 55.0567 355.649C54.7539 355.447 54.5181 355.159 54.3791 354.822C54.2402 354.485 54.2043 354.115 54.2761 353.757C54.3479 353.4 54.5242 353.072 54.7825 352.815C55.0408 352.558 55.3696 352.384 55.7272 352.314C56.0848 352.244 56.4551 352.282 56.7911 352.423C57.1271 352.564 57.4138 352.801 57.6148 353.105C57.8158 353.409 57.922 353.766 57.92 354.13C57.92 354.371 57.8724 354.61 57.7798 354.833C57.6872 355.055 57.5515 355.257 57.3805 355.428C57.2095 355.598 57.0066 355.732 56.7834 355.824C56.5602 355.915 56.3212 355.961 56.08 355.96ZM56.08 353.29C55.859 353.293 55.6479 353.382 55.4925 353.54C55.3371 353.697 55.25 353.909 55.25 354.13C55.2726 354.336 55.3702 354.526 55.5243 354.664C55.6784 354.802 55.8781 354.878 56.085 354.878C56.2919 354.878 56.4916 354.802 56.6457 354.664C56.7998 354.526 56.8975 354.336 56.92 354.13C56.9174 353.908 56.8281 353.696 56.6711 353.539C56.5141 353.382 56.302 353.293 56.08 353.29Z" fill="black"/>
<path d="M41.53 355.96C41.1657 355.96 40.8095 355.852 40.5067 355.649C40.2039 355.447 39.9681 355.159 39.8291 354.822C39.6902 354.485 39.6543 354.115 39.7261 353.757C39.7979 353.4 39.9742 353.072 40.2325 352.815C40.4908 352.558 40.8196 352.384 41.1772 352.314C41.5348 352.244 41.9051 352.282 42.2411 352.423C42.5771 352.564 42.8638 352.801 43.0648 353.105C43.2658 353.409 43.372 353.766 43.37 354.13C43.37 354.371 43.3223 354.61 43.2298 354.833C43.1372 355.055 43.0015 355.257 42.8305 355.428C42.6595 355.598 42.4566 355.732 42.2334 355.824C42.0102 355.915 41.7712 355.961 41.53 355.96ZM41.53 353.29C41.309 353.293 41.0979 353.382 40.9425 353.54C40.7871 353.697 40.7 353.909 40.7 354.13C40.7225 354.336 40.8202 354.526 40.9743 354.664C41.1284 354.802 41.3281 354.878 41.535 354.878C41.7419 354.878 41.9416 354.802 42.0957 354.664C42.2498 354.526 42.3475 354.336 42.37 354.13C42.3674 353.908 42.2781 353.696 42.1211 353.539C41.9641 353.382 41.752 353.293 41.53 353.29Z" fill="black"/>
<path d="M34.08 363.13C33.7181 363.13 33.3642 363.023 33.0633 362.822C32.7624 362.621 32.5278 362.335 32.3893 362C32.2508 361.666 32.2146 361.298 32.2852 360.943C32.3558 360.588 32.5301 360.262 32.786 360.006C33.0419 359.75 33.368 359.576 33.723 359.505C34.078 359.435 34.4459 359.471 34.7803 359.609C35.1147 359.748 35.4005 359.982 35.6016 360.283C35.8027 360.584 35.91 360.938 35.91 361.3C35.9074 361.785 35.7137 362.248 35.3711 362.591C35.0285 362.934 34.5645 363.127 34.08 363.13ZM34.08 360.47C33.9158 360.47 33.7554 360.519 33.6189 360.61C33.4824 360.701 33.376 360.831 33.3132 360.982C33.2504 361.134 33.2339 361.301 33.2659 361.462C33.298 361.623 33.377 361.771 33.4931 361.887C33.6092 362.003 33.7571 362.082 33.9181 362.114C34.0791 362.146 34.246 362.13 34.3976 362.067C34.5493 362.004 34.6789 361.898 34.7701 361.761C34.8613 361.625 34.91 361.464 34.91 361.3C34.9127 361.189 34.8932 361.078 34.8528 360.975C34.8124 360.871 34.7519 360.777 34.6746 360.697C34.5974 360.617 34.5051 360.553 34.4031 360.509C34.301 360.465 34.1912 360.441 34.08 360.44V360.47Z" fill="black"/>
<path d="M49.27 363.13C48.9081 363.13 48.5543 363.023 48.2533 362.822C47.9524 362.621 47.7178 362.335 47.5793 362C47.4408 361.666 47.4046 361.298 47.4752 360.943C47.5458 360.588 47.7201 360.262 47.976 360.006C48.2319 359.75 48.558 359.576 48.913 359.505C49.268 359.435 49.6359 359.471 49.9703 359.609C50.3047 359.748 50.5905 359.982 50.7916 360.283C50.9927 360.584 51.1 360.938 51.1 361.3C51.0974 361.785 50.9037 362.248 50.5611 362.591C50.2185 362.934 49.7545 363.127 49.27 363.13ZM49.27 360.47C49.1059 360.47 48.9454 360.519 48.8089 360.61C48.6724 360.701 48.566 360.831 48.5032 360.982C48.4404 361.134 48.4239 361.301 48.456 361.462C48.488 361.623 48.567 361.771 48.6831 361.887C48.7992 362.003 48.9471 362.082 49.1081 362.114C49.2691 362.146 49.436 362.13 49.5876 362.067C49.7393 362.004 49.8689 361.898 49.9601 361.761C50.0513 361.625 50.1 361.464 50.1 361.3C50.1027 361.189 50.0832 361.078 50.0428 360.975C50.0024 360.871 49.9419 360.777 49.8647 360.697C49.7875 360.617 49.6951 360.553 49.5931 360.509C49.491 360.465 49.3812 360.441 49.27 360.44V360.47Z" fill="black"/>
<path d="M56.08 363.13C55.7185 363.128 55.3657 363.019 55.066 362.817C54.7664 362.614 54.5334 362.328 54.3965 361.993C54.2595 361.659 54.2246 361.291 54.2964 360.937C54.3681 360.583 54.5432 360.257 54.7995 360.003C55.0559 359.748 55.3819 359.574 55.7366 359.504C56.0914 359.435 56.4588 359.472 56.7926 359.61C57.1264 359.749 57.4116 359.984 57.6123 360.284C57.8129 360.585 57.92 360.938 57.92 361.3C57.92 361.541 57.8723 361.78 57.7798 362.003C57.6872 362.225 57.5515 362.428 57.3805 362.598C57.2095 362.768 57.0066 362.902 56.7834 362.994C56.5602 363.085 56.3212 363.131 56.08 363.13ZM56.08 360.47C55.9163 360.472 55.7568 360.522 55.6216 360.615C55.4865 360.707 55.3816 360.837 55.3203 360.989C55.259 361.141 55.244 361.308 55.2772 361.468C55.3103 361.628 55.3902 361.775 55.5066 361.89C55.6231 362.005 55.771 362.084 55.9317 362.115C56.0924 362.146 56.2588 362.129 56.4099 362.066C56.561 362.003 56.69 361.896 56.7808 361.76C56.8716 361.624 56.92 361.464 56.92 361.3C56.9241 361.188 56.9053 361.076 56.8648 360.971C56.8242 360.866 56.7629 360.77 56.6843 360.69C56.6058 360.61 56.5117 360.546 56.4078 360.503C56.3039 360.46 56.1924 360.439 56.08 360.44V360.47Z" fill="black"/>
<path d="M41.53 363.13C41.1685 363.128 40.8157 363.019 40.5161 362.817C40.2164 362.614 39.9834 362.328 39.8465 361.993C39.7095 361.659 39.6747 361.291 39.7464 360.937C39.8181 360.583 39.9932 360.257 40.2495 360.003C40.5059 359.748 40.8319 359.574 41.1866 359.504C41.5414 359.435 41.9088 359.472 42.2426 359.61C42.5764 359.749 42.8616 359.984 43.0623 360.284C43.2629 360.585 43.37 360.938 43.37 361.3C43.37 361.541 43.3223 361.78 43.2298 362.003C43.1372 362.225 43.0015 362.428 42.8305 362.598C42.6595 362.768 42.4566 362.902 42.2334 362.994C42.0102 363.085 41.7712 363.131 41.53 363.13ZM41.53 360.47C41.3663 360.472 41.2068 360.522 41.0716 360.615C40.9365 360.707 40.8316 360.837 40.7704 360.989C40.7091 361.141 40.694 361.308 40.7272 361.468C40.7603 361.628 40.8402 361.775 40.9566 361.89C41.0731 362.005 41.221 362.084 41.3817 362.115C41.5424 362.146 41.7088 362.129 41.8599 362.066C42.011 362.003 42.14 361.896 42.2308 361.76C42.3216 361.624 42.37 361.464 42.37 361.3C42.3741 361.188 42.3553 361.076 42.3148 360.971C42.2743 360.866 42.2129 360.77 42.1343 360.69C42.0558 360.61 41.9617 360.546 41.8578 360.503C41.7539 360.46 41.6424 360.439 41.53 360.44V360.47Z" fill="black"/>
<path d="M222.19 349.85C221.825 349.852 221.468 349.745 221.164 349.544C220.86 349.343 220.622 349.055 220.482 348.719C220.341 348.382 220.304 348.011 220.375 347.653C220.446 347.296 220.621 346.967 220.879 346.709C221.137 346.451 221.466 346.276 221.823 346.205C222.181 346.134 222.552 346.171 222.889 346.312C223.225 346.453 223.513 346.69 223.714 346.994C223.915 347.298 224.022 347.655 224.02 348.02C224.017 348.505 223.824 348.968 223.481 349.311C223.138 349.654 222.675 349.847 222.19 349.85ZM222.19 347.18C222.023 347.178 221.86 347.226 221.721 347.317C221.581 347.408 221.472 347.538 221.407 347.692C221.342 347.845 221.324 348.014 221.355 348.178C221.386 348.341 221.465 348.492 221.582 348.61C221.7 348.729 221.849 348.81 222.012 348.843C222.176 348.876 222.345 348.86 222.499 348.797C222.653 348.734 222.785 348.626 222.878 348.488C222.97 348.349 223.02 348.187 223.02 348.02C223.02 347.799 222.933 347.587 222.777 347.43C222.622 347.272 222.411 347.183 222.19 347.18Z" fill="black"/>
<path d="M237.38 349.85C237.015 349.852 236.658 349.745 236.354 349.544C236.05 349.343 235.813 349.055 235.672 348.719C235.531 348.382 235.494 348.011 235.565 347.653C235.636 347.296 235.811 346.967 236.069 346.709C236.327 346.451 236.656 346.276 237.013 346.205C237.371 346.134 237.742 346.171 238.079 346.312C238.415 346.453 238.703 346.69 238.904 346.994C239.105 347.298 239.212 347.655 239.21 348.02C239.207 348.505 239.014 348.968 238.671 349.311C238.328 349.654 237.865 349.847 237.38 349.85ZM237.38 347.18C237.213 347.178 237.05 347.226 236.911 347.317C236.771 347.408 236.662 347.538 236.597 347.692C236.532 347.845 236.514 348.014 236.545 348.178C236.576 348.341 236.655 348.492 236.772 348.61C236.89 348.729 237.039 348.81 237.202 348.843C237.366 348.876 237.535 348.86 237.689 348.797C237.843 348.734 237.975 348.626 238.068 348.488C238.16 348.349 238.21 348.187 238.21 348.02C238.21 347.799 238.123 347.587 237.968 347.43C237.812 347.272 237.601 347.183 237.38 347.18Z" fill="black"/>
<path d="M244.17 349.85C243.805 349.852 243.448 349.745 243.144 349.544C242.84 349.343 242.602 349.055 242.462 348.719C242.321 348.382 242.284 348.011 242.355 347.653C242.426 347.296 242.601 346.967 242.859 346.709C243.117 346.451 243.446 346.276 243.804 346.205C244.161 346.134 244.532 346.171 244.869 346.312C245.205 346.453 245.493 346.69 245.694 346.994C245.895 347.298 246.002 347.655 246 348.02C245.995 348.504 245.8 348.966 245.458 349.308C245.116 349.65 244.654 349.845 244.17 349.85ZM244.17 347.18C244.053 347.167 243.934 347.179 243.822 347.215C243.709 347.251 243.606 347.311 243.518 347.39C243.43 347.468 243.36 347.565 243.311 347.672C243.263 347.78 243.238 347.897 243.238 348.015C243.238 348.133 243.263 348.25 243.311 348.358C243.36 348.465 243.43 348.562 243.518 348.64C243.606 348.719 243.709 348.779 243.822 348.815C243.934 348.851 244.053 348.863 244.17 348.85C244.376 348.827 244.566 348.73 244.704 348.576C244.842 348.422 244.918 348.222 244.918 348.015C244.918 347.808 244.842 347.608 244.704 347.454C244.566 347.3 244.376 347.203 244.17 347.18Z" fill="black"/>
<path d="M229.65 349.85C229.285 349.852 228.928 349.745 228.624 349.544C228.32 349.343 228.082 349.055 227.942 348.719C227.801 348.382 227.764 348.011 227.835 347.653C227.906 347.296 228.081 346.967 228.339 346.709C228.597 346.451 228.926 346.276 229.284 346.205C229.641 346.134 230.012 346.171 230.349 346.312C230.685 346.453 230.973 346.69 231.174 346.994C231.375 347.298 231.482 347.655 231.48 348.02C231.475 348.504 231.28 348.966 230.938 349.308C230.596 349.65 230.134 349.845 229.65 349.85ZM229.65 347.18C229.533 347.167 229.414 347.179 229.302 347.215C229.189 347.251 229.086 347.311 228.998 347.39C228.91 347.468 228.84 347.565 228.791 347.672C228.743 347.78 228.718 347.897 228.718 348.015C228.718 348.133 228.743 348.25 228.791 348.358C228.84 348.465 228.91 348.562 228.998 348.64C229.086 348.719 229.189 348.779 229.302 348.815C229.414 348.851 229.533 348.863 229.65 348.85C229.856 348.827 230.046 348.73 230.184 348.576C230.322 348.422 230.398 348.222 230.398 348.015C230.398 347.808 230.322 347.608 230.184 347.454C230.046 347.3 229.856 347.203 229.65 347.18Z" fill="black"/>
<path d="M222.19 355.96C221.825 355.962 221.468 355.855 221.164 355.654C220.86 355.453 220.622 355.165 220.482 354.829C220.341 354.492 220.304 354.121 220.375 353.764C220.446 353.406 220.621 353.077 220.879 352.819C221.137 352.561 221.466 352.386 221.823 352.315C222.181 352.244 222.552 352.281 222.889 352.422C223.225 352.562 223.513 352.8 223.714 353.104C223.915 353.408 224.022 353.765 224.02 354.13C224.02 354.615 223.827 355.081 223.484 355.424C223.141 355.767 222.675 355.96 222.19 355.96ZM222.19 353.29C221.969 353.293 221.758 353.382 221.602 353.54C221.447 353.697 221.36 353.909 221.36 354.13C221.36 354.35 221.447 354.561 221.603 354.717C221.759 354.873 221.97 354.96 222.19 354.96C222.41 354.96 222.621 354.873 222.777 354.717C222.933 354.561 223.02 354.35 223.02 354.13C223.02 353.909 222.933 353.697 222.777 353.54C222.622 353.382 222.411 353.293 222.19 353.29Z" fill="black"/>
<path d="M237.38 355.96C237.015 355.962 236.658 355.855 236.354 355.654C236.05 355.453 235.813 355.165 235.672 354.829C235.531 354.492 235.494 354.121 235.565 353.764C235.636 353.406 235.811 353.077 236.069 352.819C236.327 352.561 236.656 352.386 237.013 352.315C237.371 352.244 237.742 352.281 238.079 352.422C238.415 352.562 238.703 352.8 238.904 353.104C239.105 353.408 239.212 353.765 239.21 354.13C239.21 354.615 239.017 355.081 238.674 355.424C238.331 355.767 237.865 355.96 237.38 355.96ZM237.38 353.29C237.159 353.293 236.948 353.382 236.792 353.54C236.637 353.697 236.55 353.909 236.55 354.13C236.55 354.35 236.637 354.561 236.793 354.717C236.949 354.873 237.16 354.96 237.38 354.96C237.6 354.96 237.811 354.873 237.967 354.717C238.123 354.561 238.21 354.35 238.21 354.13C238.21 353.909 238.123 353.697 237.968 353.54C237.812 353.382 237.601 353.293 237.38 353.29Z" fill="black"/>
<path d="M244.17 355.96C243.805 355.962 243.448 355.855 243.144 355.654C242.84 355.453 242.602 355.165 242.462 354.829C242.321 354.492 242.284 354.121 242.355 353.764C242.426 353.406 242.601 353.077 242.859 352.819C243.117 352.561 243.446 352.386 243.804 352.315C244.161 352.244 244.532 352.281 244.869 352.422C245.205 352.562 245.493 352.8 245.694 353.104C245.895 353.408 246.002 353.765 246 354.13C245.997 354.615 245.804 355.078 245.461 355.421C245.118 355.764 244.655 355.957 244.17 355.96ZM244.17 353.29C243.948 353.293 243.736 353.382 243.579 353.539C243.422 353.696 243.333 353.908 243.33 354.13C243.333 354.351 243.422 354.562 243.58 354.718C243.737 354.873 243.949 354.96 244.17 354.96C244.39 354.96 244.601 354.873 244.757 354.717C244.913 354.561 245 354.35 245 354.13C245 353.909 244.913 353.697 244.758 353.54C244.602 353.382 244.391 353.293 244.17 353.29Z" fill="black"/>
<path d="M229.65 355.96C229.285 355.962 228.928 355.855 228.624 355.654C228.32 355.453 228.082 355.165 227.942 354.829C227.801 354.492 227.764 354.121 227.835 353.764C227.906 353.406 228.081 353.077 228.339 352.819C228.597 352.561 228.926 352.386 229.284 352.315C229.641 352.244 230.012 352.281 230.349 352.422C230.685 352.562 230.973 352.8 231.174 353.104C231.375 353.408 231.482 353.765 231.48 354.13C231.477 354.615 231.284 355.078 230.941 355.421C230.598 355.764 230.135 355.957 229.65 355.96ZM229.65 353.29C229.428 353.293 229.216 353.382 229.059 353.539C228.902 353.696 228.813 353.908 228.81 354.13C228.813 354.351 228.902 354.562 229.06 354.718C229.217 354.873 229.429 354.96 229.65 354.96C229.87 354.96 230.081 354.873 230.237 354.717C230.393 354.561 230.48 354.35 230.48 354.13C230.48 353.909 230.393 353.697 230.237 353.54C230.082 353.382 229.871 353.293 229.65 353.29Z" fill="black"/>
<path d="M222.19 363.13C221.828 363.13 221.474 363.023 221.173 362.822C220.872 362.621 220.638 362.335 220.499 362C220.361 361.666 220.325 361.298 220.395 360.943C220.466 360.588 220.64 360.262 220.896 360.006C221.152 359.75 221.478 359.576 221.833 359.505C222.188 359.435 222.556 359.471 222.89 359.609C223.225 359.748 223.511 359.982 223.712 360.283C223.913 360.584 224.02 360.938 224.02 361.3C224.02 361.785 223.827 362.251 223.484 362.594C223.141 362.937 222.675 363.13 222.19 363.13ZM222.19 360.47C222.026 360.47 221.865 360.519 221.729 360.61C221.592 360.701 221.486 360.831 221.423 360.982C221.36 361.134 221.344 361.301 221.376 361.462C221.408 361.623 221.487 361.771 221.603 361.887C221.719 362.003 221.867 362.082 222.028 362.114C222.189 362.146 222.356 362.13 222.508 362.067C222.659 362.004 222.789 361.898 222.88 361.761C222.971 361.625 223.02 361.464 223.02 361.3C223.024 361.188 223.006 361.077 222.966 360.973C222.926 360.869 222.865 360.774 222.788 360.694C222.71 360.613 222.617 360.549 222.515 360.506C222.412 360.462 222.302 360.44 222.19 360.44V360.47Z" fill="black"/>
<path d="M237.38 363.13C237.018 363.13 236.664 363.023 236.363 362.822C236.062 362.621 235.828 362.335 235.689 362C235.551 361.666 235.515 361.298 235.585 360.943C235.656 360.588 235.83 360.262 236.086 360.006C236.342 359.75 236.668 359.576 237.023 359.505C237.378 359.435 237.746 359.471 238.08 359.609C238.415 359.748 238.701 359.982 238.902 360.283C239.103 360.584 239.21 360.938 239.21 361.3C239.21 361.785 239.017 362.251 238.674 362.594C238.331 362.937 237.865 363.13 237.38 363.13ZM237.38 360.47C237.216 360.47 237.055 360.519 236.919 360.61C236.782 360.701 236.676 360.831 236.613 360.982C236.55 361.134 236.534 361.301 236.566 361.462C236.598 361.623 236.677 361.771 236.793 361.887C236.909 362.003 237.057 362.082 237.218 362.114C237.379 362.146 237.546 362.13 237.698 362.067C237.849 362.004 237.979 361.898 238.07 361.761C238.161 361.625 238.21 361.464 238.21 361.3C238.214 361.188 238.196 361.077 238.156 360.973C238.116 360.869 238.055 360.774 237.978 360.694C237.9 360.613 237.807 360.549 237.705 360.506C237.602 360.462 237.492 360.44 237.38 360.44V360.47Z" fill="black"/>
<path d="M244.17 363.13C243.808 363.13 243.454 363.023 243.153 362.822C242.852 362.621 242.618 362.335 242.479 362C242.341 361.666 242.305 361.298 242.375 360.943C242.446 360.588 242.62 360.262 242.876 360.006C243.132 359.75 243.458 359.576 243.813 359.505C244.168 359.435 244.536 359.471 244.87 359.609C245.205 359.748 245.491 359.982 245.692 360.283C245.893 360.584 246 360.938 246 361.3C245.997 361.785 245.804 362.248 245.461 362.591C245.118 362.934 244.655 363.127 244.17 363.13ZM244.17 360.47C243.95 360.47 243.739 360.557 243.583 360.713C243.427 360.869 243.34 361.08 243.34 361.3C243.34 361.52 243.427 361.731 243.583 361.887C243.739 362.043 243.95 362.13 244.17 362.13C244.39 362.13 244.601 362.043 244.757 361.887C244.913 361.731 245 361.52 245 361.3C245 361.08 244.913 360.869 244.757 360.713C244.601 360.557 244.39 360.47 244.17 360.47Z" fill="black"/>
<path d="M229.65 363.13C229.288 363.13 228.934 363.023 228.633 362.822C228.332 362.621 228.098 362.335 227.959 362C227.821 361.666 227.785 361.298 227.855 360.943C227.926 360.588 228.1 360.262 228.356 360.006C228.612 359.75 228.938 359.576 229.293 359.505C229.648 359.435 230.016 359.471 230.35 359.609C230.685 359.748 230.971 359.982 231.172 360.283C231.373 360.584 231.48 360.938 231.48 361.3C231.477 361.785 231.284 362.248 230.941 362.591C230.599 362.934 230.135 363.127 229.65 363.13ZM229.65 360.47C229.43 360.47 229.219 360.557 229.063 360.713C228.907 360.869 228.82 361.08 228.82 361.3C228.82 361.52 228.907 361.731 229.063 361.887C229.219 362.043 229.43 362.13 229.65 362.13C229.87 362.13 230.081 362.043 230.237 361.887C230.393 361.731 230.48 361.52 230.48 361.3C230.48 361.08 230.393 360.869 230.237 360.713C230.081 360.557 229.87 360.47 229.65 360.47Z" fill="black"/>
<path d="M42.47 48.53C42.2616 48.5287 42.0588 48.4622 41.89 48.34L29.64 39.66C29.4244 39.5071 29.2781 39.275 29.2332 39.0145C29.1882 38.7541 29.2482 38.4864 29.4 38.27C29.4758 38.1619 29.5722 38.0698 29.6838 37.9991C29.7954 37.9284 29.9198 37.8806 30.05 37.8583C30.1801 37.8359 30.3134 37.8396 30.4422 37.8691C30.5709 37.8986 30.6925 37.9533 30.8 38.03L43.08 46.71C43.255 46.8322 43.3864 47.0071 43.4549 47.2093C43.5233 47.4115 43.5253 47.6303 43.4605 47.8337C43.3956 48.0371 43.2675 48.2144 43.0946 48.3397C42.9218 48.4649 42.7134 48.5316 42.5 48.53H42.47Z" fill="black"/>
<path d="M234.34 48.53C234.127 48.5316 233.918 48.4649 233.745 48.3396C233.573 48.2143 233.444 48.037 233.38 47.8336C233.315 47.6303 233.317 47.4115 233.385 47.2093C233.454 47.0071 233.585 46.8322 233.76 46.71L246.02 38.03C246.236 37.8994 246.494 37.8558 246.742 37.9077C246.989 37.9596 247.208 38.1033 247.353 38.3099C247.499 38.5164 247.561 38.7705 247.527 39.021C247.493 39.2715 247.366 39.4998 247.17 39.66L234.92 48.34C234.751 48.4622 234.548 48.5286 234.34 48.53Z" fill="black"/>
<path d="M247.264 235.684C247.057 235.686 246.854 235.623 246.684 235.504L234.424 226.824C234.207 226.671 234.059 226.437 234.014 226.174C233.969 225.912 234.031 225.642 234.184 225.424C234.338 225.207 234.572 225.059 234.835 225.014C235.097 224.969 235.367 225.031 235.584 225.184L247.834 233.864C247.943 233.94 248.035 234.037 248.105 234.148C248.176 234.26 248.224 234.384 248.246 234.514C248.268 234.645 248.265 234.778 248.235 234.907C248.206 235.035 248.151 235.157 248.074 235.264C247.982 235.394 247.861 235.499 247.72 235.572C247.579 235.645 247.423 235.684 247.264 235.684Z" fill="black"/>
<path d="M28.0061 235.684C27.8458 235.685 27.6876 235.648 27.5449 235.574C27.4022 235.501 27.2791 235.395 27.1861 235.264C27.1094 235.157 27.0547 235.035 27.0252 234.907C26.9958 234.778 26.9921 234.645 27.0144 234.514C27.0367 234.384 27.0846 234.26 27.1552 234.148C27.2259 234.037 27.318 233.94 27.4261 233.864L39.6761 225.184C39.8936 225.031 40.1633 224.969 40.4258 225.014C40.6884 225.059 40.9223 225.207 41.0761 225.424C41.23 225.642 41.2911 225.912 41.2461 226.174C41.2011 226.437 41.0536 226.671 40.8361 226.824L28.5861 235.504C28.4161 235.623 28.2135 235.686 28.0061 235.684Z" fill="black"/>
</g>
</g>
<defs>
<filter id="filter0_d_9_97" x="0.4" y="0.4" width="276.01" height="390.63" filterUnits="userSpaceOnUse" color-interpolation-filters="sRGB">
<feFlood flood-opacity="0" result="BackgroundImageFix"/>
<feColorMatrix in="SourceAlpha" type="matrix" values="0 0 0 0 0 0 0 0 0 0 0 0 0 0 0 0 0 0 127 0" result="hardAlpha"/>
<feOffset dy="7"/>
<feGaussianBlur stdDeviation="5.8"/>
<feComposite in2="hardAlpha" operator="out"/>
<feColorMatrix type="matrix" values="0 0 0 0 0 0 0 0 0 0 0 0 0 0 0 0 0 0 0.5 0"/>
<feBlend mode="normal" in2="BackgroundImageFix" result="effect1_dropShadow_9_97"/>
<feBlend mode="normal" in="SourceGraphic" in2="effect1_dropShadow_9_97" result="shape"/>
</filter>
<clipPath id="clip0_9_97">
<rect x="12" y="5" width="252.81" height="367.43" rx="15" fill="white"/>
</clipPath>
</defs>
</svg>
