<svg width="539" height="255" viewBox="0 0 539 255" fill="none" xmlns="http://www.w3.org/2000/svg">
<g clip-path="url(#clip0_6_78)">
<path d="M0.659999 50.4709L0.659998 50.4699C0.653559 44.031 1.91625 37.6539 4.37585 31.7033C6.83545 25.7527 10.4437 20.3452 14.9944 15.7899C19.5452 11.2347 24.949 7.62099 30.8972 5.15544C36.8453 2.6899 43.2211 1.42083 49.66 1.42084H489.03C502.03 1.43395 514.493 6.60742 523.681 15.8046C532.869 25.0018 538.03 37.4705 538.03 50.4709V204.64C538.017 217.632 532.85 230.088 523.664 239.274C514.477 248.461 502.021 253.628 489.029 253.641H49.66C36.6644 253.641 24.2011 248.478 15.0118 239.289C5.82251 230.1 0.659998 217.636 0.659998 204.641L0.659999 50.4709ZM436 198.301H437V197.301V32V31.004L436.004 31L263.504 30.3213H263.5H105.5H104.5V31.3213V197.301V198.301H105.5H436Z" fill="white" stroke="black" stroke-width="2"/>
<g style="mix-blend-mode:darken">
<path d="M1 195.012C3.36491 203.708 7.76963 211.72 13.9063 218.244C18.6947 223.334 25.3349 227.889 32.4424 231.173C39.5465 234.455 47.1901 236.5 54 236.5H489.034C502.675 236.5 515.629 228.305 525.094 218.244C531.23 211.72 535.635 203.708 538 195.012V201.883C537.987 215.72 532.81 228.975 523.622 238.742C514.437 248.507 501.996 253.986 489.033 254H49.9657C36.9996 254 24.5512 248.525 15.363 238.757C6.17284 228.988 1 215.725 1 201.884V195.012Z" fill="#aaaaaa"/>
<path d="M1 195.012C3.36491 203.708 7.76963 211.72 13.9063 218.244C18.6947 223.334 25.3349 227.889 32.4424 231.173C39.5465 234.455 47.1901 236.5 54 236.5H489.034C502.675 236.5 515.629 228.305 525.094 218.244C531.23 211.72 535.635 203.708 538 195.012V201.883C537.987 215.72 532.81 228.975 523.622 238.742C514.437 248.507 501.996 253.986 489.033 254H49.9657C36.9996 254 24.5512 248.525 15.363 238.757C6.17284 228.988 1 215.725 1 201.884V195.012Z" stroke="black" stroke-width="2"/>
</g>
<g style="mix-blend-mode:plus-darker">
<path d="M104.274 197.12L104.274 198.12H105.274H435.771H436.771V197.12V31.8436V30.8436H435.771H105.263H104.262L104.263 31.8437L104.274 197.12ZM441 203H100V26H441V203Z" fill="white" stroke="black" stroke-width="2"/>
</g>
<path d="M53.42 10H486.08C486.312 10 486.5 10.1881 486.5 10.42V10.88C486.5 11.1119 486.312 11.3 486.08 11.3H53.42C53.188 11.3 53 11.112 53 10.88V10.42C53 10.188 53.188 10 53.42 10Z" fill="white" stroke="black" stroke-width="2"/>
<path d="M423.156 206.109C423.156 206.109 423.155 206.109 423.154 206.108C423.156 206.109 423.156 206.109 423.156 206.109ZM423.154 205.392C423.155 205.391 423.156 205.391 423.156 205.391C423.156 205.391 423.156 205.391 423.154 205.392ZM114.794 205.391C114.794 205.391 114.795 205.391 114.796 205.392C114.795 205.391 114.794 205.391 114.794 205.391ZM114.796 206.108C114.795 206.109 114.794 206.109 114.794 206.109C114.794 206.109 114.795 206.109 114.796 206.108Z" fill="white" stroke="black" stroke-width="2"/>
<g style="mix-blend-mode:multiply" opacity="0.23">
<path d="M83.8952 65.9098C89.6079 82.2778 80.9702 100.178 64.6022 105.89C48.2343 111.603 30.3344 102.965 24.6216 86.5975C18.9089 70.2295 27.5467 52.3296 43.9146 46.6169C60.2825 40.9041 78.1824 49.5419 83.8952 65.9098Z" fill="black" stroke="black" stroke-width="2"/>
<g style="mix-blend-mode:plus-darker">
<path d="M513.109 63.3754C520.188 79.2005 513.098 97.7678 497.273 104.847C481.448 111.926 462.881 104.835 455.802 89.0104C448.723 73.1853 455.813 54.6179 471.638 47.539C487.463 40.4601 506.03 47.5503 513.109 63.3754Z" fill="black"/>
<path d="M513.109 63.3754C520.188 79.2005 513.098 97.7678 497.273 104.847C481.448 111.926 462.881 104.835 455.802 89.0104C448.723 73.1853 455.813 54.6179 471.638 47.539C487.463 40.4601 506.03 47.5503 513.109 63.3754Z" stroke="black" stroke-width="2"/>
</g>
<path d="M78.3281 157.669C86.7622 171.135 82.6831 188.888 69.2171 197.323C55.7511 205.757 37.9975 201.678 29.5634 188.212C21.1293 174.746 25.2084 156.992 38.6744 148.558C52.1404 140.124 69.894 144.203 78.3281 157.669Z" fill="black" stroke="black" stroke-width="2"/>
<path d="M468.384 155.916C470.005 154.835 471.91 154.258 473.858 154.26C476.468 154.267 478.968 155.308 480.812 157.154C482.657 159 483.695 161.501 483.7 164.111C483.7 166.059 483.122 167.964 482.039 169.583C480.957 171.203 479.418 172.466 477.617 173.211C475.817 173.956 473.836 174.151 471.925 173.77C470.014 173.389 468.259 172.45 466.882 171.072C465.505 169.693 464.567 167.937 464.188 166.026C463.809 164.115 464.005 162.134 464.752 160.334C465.499 158.535 466.763 156.997 468.384 155.916Z" fill="black" stroke="black" stroke-width="2"/>
<path d="M497.211 177.787C498.831 176.704 500.735 176.127 502.684 176.127C505.295 176.127 507.799 177.163 509.646 179.008C511.493 180.854 512.532 183.357 512.534 185.967C512.536 187.916 511.96 189.821 510.878 191.442C509.797 193.063 508.259 194.327 506.46 195.074C504.66 195.821 502.679 196.017 500.768 195.638C498.857 195.259 497.101 194.322 495.722 192.945C494.344 191.568 493.405 189.813 493.024 187.902C492.643 185.991 492.838 184.01 493.583 182.209C494.328 180.409 495.591 178.87 497.211 177.787Z" fill="black" stroke="black" stroke-width="2"/>
</g>
<g style="mix-blend-mode:multiply" opacity="0.5">
<path d="M122.04 212H166.04C168.172 212 170.217 212.847 171.725 214.355C173.233 215.863 174.08 217.908 174.08 220.04C174.08 222.172 173.233 224.217 171.725 225.725C170.217 227.233 168.172 228.08 166.04 228.08H122.04C119.908 228.08 117.863 227.233 116.355 225.725C114.847 224.217 114 222.172 114 220.04C114 217.908 114.847 215.863 116.355 214.355C117.863 212.847 119.908 212 122.04 212Z" fill="#6E3638"/>
<path d="M122.04 212H166.04C168.172 212 170.217 212.847 171.725 214.355C173.233 215.863 174.08 217.908 174.08 220.04C174.08 222.172 173.233 224.217 171.725 225.725C170.217 227.233 168.172 228.08 166.04 228.08H122.04C119.908 228.08 117.863 227.233 116.355 225.725C114.847 224.217 114 222.172 114 220.04C114 217.908 114.847 215.863 116.355 214.355C117.863 212.847 119.908 212 122.04 212Z" stroke="black" stroke-width="2"/>
</g>
<path d="M167.02 212.97H121.04C117.666 212.97 114.93 215.706 114.93 219.08V221.02C114.93 224.394 117.666 227.13 121.04 227.13H167.02C170.394 227.13 173.13 224.394 173.13 221.02V219.08C173.13 215.706 170.394 212.97 167.02 212.97Z" fill="#FDC756"/>
<path d="M117.77 220.93C117.77 217.98 120.62 215.6 124.14 215.6H163.78C167.29 215.6 170.15 217.98 170.15 220.93H171.91C171.91 217.17 168.26 214.12 163.78 214.12H124.14C119.66 214.12 116.01 217.12 116.01 220.93H117.77Z" fill="white"/>
<g style="mix-blend-mode:multiply" opacity="0.5">
<path d="M371.33 212H415.33C417.462 212 419.507 212.847 421.015 214.355C422.523 215.863 423.37 217.908 423.37 220.04C423.37 222.172 422.523 224.217 421.015 225.725C419.507 227.233 417.462 228.08 415.33 228.08H371.33C369.198 228.08 367.153 227.233 365.645 225.725C364.137 224.217 363.29 222.172 363.29 220.04C363.29 217.908 364.137 215.863 365.645 214.355C367.153 212.847 369.198 212 371.33 212Z" fill="#6E3638"/>
<path d="M371.33 212H415.33C417.462 212 419.507 212.847 421.015 214.355C422.523 215.863 423.37 217.908 423.37 220.04C423.37 222.172 422.523 224.217 421.015 225.725C419.507 227.233 417.462 228.08 415.33 228.08H371.33C369.198 228.08 367.153 227.233 365.645 225.725C364.137 224.217 363.29 222.172 363.29 220.04C363.29 217.908 364.137 215.863 365.645 214.355C367.153 212.847 369.198 212 371.33 212Z" stroke="black" stroke-width="2"/>
</g>
<path d="M416.3 212.97H370.32C366.946 212.97 364.21 215.706 364.21 219.08V221.02C364.21 224.394 366.946 227.13 370.32 227.13H416.3C419.674 227.13 422.41 224.394 422.41 221.02V219.08C422.41 215.706 419.674 212.97 416.3 212.97Z" fill="#FDC756"/>
<path d="M367.06 220.93C367.06 217.98 369.91 215.6 373.43 215.6H413.06C416.58 215.6 419.43 217.98 419.43 220.93H421.2C421.2 217.17 417.55 214.12 413.06 214.12H373.43C368.94 214.12 365.29 217.12 365.29 220.93H367.06Z" fill="white"/>
<g style="mix-blend-mode:multiply" opacity="0.5">
</g>
<path d="M54.25 102.42C71.5973 102.42 85.66 88.3572 85.66 71.01C85.66 53.6627 71.5973 39.6 54.25 39.6C36.9028 39.6 22.84 53.6627 22.84 71.01C22.84 88.3572 36.9028 102.42 54.25 102.42Z" fill="#FDC756"/>
<mask id="path-19-inside-1_6_78" fill="white">
<path d="M54.25 103.37C47.8439 103.37 41.5816 101.47 36.2551 97.9113C30.9286 94.3522 26.7771 89.2936 24.3255 83.3751C21.874 77.4566 21.2326 70.944 22.4824 64.661C23.7321 58.3779 26.817 52.6066 31.3468 48.0768C35.8766 43.547 41.648 40.4621 47.931 39.2123C54.2141 37.9626 60.7266 38.604 66.6451 41.0555C72.5636 43.507 77.6222 47.6585 81.1813 52.9851C84.7403 58.3116 86.64 64.5738 86.64 70.98C86.6294 79.5671 83.2135 87.7995 77.1415 93.8715C71.0695 99.9435 62.8371 103.359 54.25 103.37ZM54.25 40.56C48.2307 40.558 42.3459 42.3412 37.3402 45.6842C32.3345 49.0271 28.4327 53.7795 26.1282 59.3403C23.8238 64.9011 23.2204 71.0203 24.3942 76.9241C25.568 82.8279 28.4664 88.2509 32.7227 92.5072C36.979 96.7635 42.4021 99.6619 48.3059 100.836C54.2096 102.01 60.3289 101.406 65.8897 99.1017C71.4504 96.7973 76.2029 92.8955 79.5458 87.8897C82.8887 82.884 84.672 76.9993 84.67 70.98C84.6568 62.918 81.4469 55.1903 75.7444 49.4915C70.0418 43.7926 62.312 40.5879 54.25 40.58V40.56Z"/>
</mask>
<path d="M54.25 103.37C47.8439 103.37 41.5816 101.47 36.2551 97.9113C30.9286 94.3522 26.7771 89.2936 24.3255 83.3751C21.874 77.4566 21.2326 70.944 22.4824 64.661C23.7321 58.3779 26.817 52.6066 31.3468 48.0768C35.8766 43.547 41.648 40.4621 47.931 39.2123C54.2141 37.9626 60.7266 38.604 66.6451 41.0555C72.5636 43.507 77.6222 47.6585 81.1813 52.9851C84.7403 58.3116 86.64 64.5738 86.64 70.98C86.6294 79.5671 83.2135 87.7995 77.1415 93.8715C71.0695 99.9435 62.8371 103.359 54.25 103.37ZM54.25 40.56C48.2307 40.558 42.3459 42.3412 37.3402 45.6842C32.3345 49.0271 28.4327 53.7795 26.1282 59.3403C23.8238 64.9011 23.2204 71.0203 24.3942 76.9241C25.568 82.8279 28.4664 88.2509 32.7227 92.5072C36.979 96.7635 42.4021 99.6619 48.3059 100.836C54.2096 102.01 60.3289 101.406 65.8897 99.1017C71.4504 96.7973 76.2029 92.8955 79.5458 87.8897C82.8887 82.884 84.672 76.9993 84.67 70.98C84.6568 62.918 81.4469 55.1903 75.7444 49.4915C70.0418 43.7926 62.312 40.5879 54.25 40.58V40.56Z" fill="#6E3638"/>
<path d="M54.25 103.37V105.37H54.2525L54.25 103.37ZM86.64 70.98L88.64 70.9824V70.98H86.64ZM54.25 40.56H56.25V38.5606L54.2507 38.56L54.25 40.56ZM84.67 70.98L86.67 70.9793L86.67 70.9767L84.67 70.98ZM54.25 40.58H52.25V42.578L54.248 42.58L54.25 40.58ZM54.25 101.37C48.2394 101.37 42.3638 99.5876 37.3662 96.2483L35.1439 99.5742C40.7993 103.353 47.4483 105.37 54.25 105.37V101.37ZM37.3662 96.2483C32.3686 92.909 28.4734 88.1628 26.1733 82.6097L22.4778 84.1405C25.0807 90.4244 29.4885 95.7954 35.1439 99.5742L37.3662 96.2483ZM26.1733 82.6097C23.8731 77.0567 23.2713 70.9463 24.4439 65.0512L20.5208 64.2708C19.1939 70.9418 19.8749 77.8565 22.4778 84.1405L26.1733 82.6097ZM24.4439 65.0512C25.6165 59.1561 28.5109 53.7411 32.761 49.491L29.9326 46.6626C25.1231 51.4721 21.8477 57.5998 20.5208 64.2708L24.4439 65.0512ZM32.761 49.491C37.0111 45.2409 42.4261 42.3465 48.3212 41.1739L47.5408 37.2508C40.8698 38.5777 34.7421 41.853 29.9326 46.6626L32.761 49.491ZM48.3212 41.1739C54.2163 40.0013 60.3267 40.6031 65.8797 42.9033L67.4105 39.2078C61.1265 36.6049 54.2118 35.9238 47.5408 37.2508L48.3212 41.1739ZM65.8797 42.9033C71.4328 45.2034 76.179 49.0986 79.5183 54.0962L82.8442 51.8739C79.0654 46.2185 73.6944 41.8107 67.4105 39.2078L65.8797 42.9033ZM79.5183 54.0962C82.8576 59.0938 84.64 64.9694 84.64 70.98H88.64C88.64 64.1782 86.623 57.5293 82.8442 51.8739L79.5183 54.0962ZM84.64 70.9775C84.6301 79.035 81.4248 86.7597 75.7273 92.4572L78.5557 95.2857C85.0022 88.8392 88.6288 80.0991 88.64 70.9824L84.64 70.9775ZM75.7273 92.4572C70.0297 98.1548 62.3051 101.36 54.2475 101.37L54.2525 105.37C63.3692 105.359 72.1092 101.732 78.5557 95.2857L75.7273 92.4572ZM54.2507 38.56C47.8357 38.5579 41.5642 40.4583 36.2295 44.021L38.4509 47.3474C43.1277 44.2242 48.6256 42.5581 54.2493 42.56L54.2507 38.56ZM36.2295 44.021C30.8948 47.5836 26.7365 52.6484 24.2806 58.5746L27.9759 60.106C30.1288 54.9107 33.7742 50.4706 38.4509 47.3474L36.2295 44.021ZM24.2806 58.5746C21.8247 64.5009 21.1816 71.0223 22.4326 77.3141L26.3558 76.5341C25.2591 71.0183 25.8229 65.3013 27.9759 60.106L24.2806 58.5746ZM22.4326 77.3141C23.6836 83.6059 26.7724 89.3854 31.3085 93.9215L34.1369 91.093C30.1604 87.1165 27.4525 82.0498 26.3558 76.5341L22.4326 77.3141ZM31.3085 93.9215C35.8446 98.4575 41.624 101.546 47.9158 102.797L48.6959 98.8742C43.1801 97.7775 38.1135 95.0696 34.1369 91.093L31.3085 93.9215ZM47.9158 102.797C54.2076 104.048 60.7291 103.405 66.6553 100.949L65.124 97.2541C59.9287 99.407 54.2116 99.9708 48.6959 98.8742L47.9158 102.797ZM66.6553 100.949C72.5816 98.4935 77.6463 94.3352 81.209 89.0005L77.8826 86.779C74.7593 91.4557 70.3193 95.1011 65.124 97.2541L66.6553 100.949ZM81.209 89.0005C84.7716 83.6658 86.6721 77.3942 86.67 70.9793L82.67 70.9806C82.6718 76.6043 81.0058 82.1023 77.8826 86.779L81.209 89.0005ZM86.67 70.9767C86.6559 62.3852 83.2352 54.1499 77.1581 48.0768L74.3306 50.9061C79.6586 56.2306 82.6576 63.4508 82.67 70.9832L86.67 70.9767ZM77.1581 48.0768C71.081 42.0037 62.8435 38.5884 54.252 38.58L54.248 42.58C61.7805 42.5874 69.0026 45.5816 74.3306 50.9061L77.1581 48.0768ZM56.25 40.58V40.56H52.25V40.58H56.25Z" fill="black" mask="url(#path-19-inside-1_6_78)"/>
<path d="M54.25 43.22C52.6202 43.2234 50.9939 43.3707 49.39 43.66L46.74 44.13L49.92 47.32L50.63 47.21C54.0572 46.6905 57.5562 46.9168 60.888 47.8734C64.2197 48.83 67.3058 50.4944 69.9355 52.7528C72.5651 55.0113 74.6764 57.8107 76.1252 60.9598C77.5739 64.1089 78.326 67.5336 78.33 71C78.3316 72.2154 78.238 73.4291 78.05 74.63L77.95 75.33L81.14 78.52L81.61 75.86C82.322 71.8628 82.1489 67.7582 81.1028 63.8352C80.0568 59.9123 78.1633 56.2664 75.5557 53.1544C72.9481 50.0424 69.6898 47.5401 66.0104 45.8236C62.331 44.1072 58.32 43.2185 54.26 43.22H54.25Z" fill="white"/>
<path d="M58 94.78C56.7592 94.9713 55.5056 95.0683 54.25 95.07C47.8696 95.0621 41.753 92.5232 37.2423 88.0107C32.7316 83.4981 30.1953 77.3804 30.19 71C30.1867 69.7443 30.2837 68.4903 30.48 67.25L30.59 66.55L27.41 63.37L26.93 66.01C26.6292 67.6598 26.4752 69.333 26.47 71.01C26.478 78.3753 29.4073 85.4366 34.6154 90.6447C39.8234 95.8527 46.8848 98.7821 54.25 98.79C55.9267 98.7882 57.6 98.6376 59.25 98.34L61.89 97.85L58.71 94.67L58 94.78Z" fill="white"/>
<g style="mix-blend-mode:overlay">
<path d="M54.25 91.37C65.4945 91.37 74.61 82.2545 74.61 71.01C74.61 59.7655 65.4945 50.65 54.25 50.65C43.0055 50.65 33.89 59.7655 33.89 71.01C33.89 82.2545 43.0055 91.37 54.25 91.37Z" fill="white"/>
</g>
<path d="M484.44 102.42C501.787 102.42 515.85 88.3572 515.85 71.01C515.85 53.6627 501.787 39.6 484.44 39.6C467.093 39.6 453.03 53.6627 453.03 71.01C453.03 88.3572 467.093 102.42 484.44 102.42Z" fill="#FDC756"/>
<mask id="path-25-inside-2_6_78" fill="white">
<path d="M484.44 103.37C478.034 103.37 471.772 101.47 466.445 97.9113C461.119 94.3522 456.967 89.2936 454.516 83.3751C452.064 77.4566 451.423 70.944 452.672 64.661C453.922 58.3779 457.007 52.6066 461.537 48.0768C466.067 43.547 471.838 40.4621 478.121 39.2123C484.404 37.9626 490.917 38.604 496.835 41.0555C502.754 43.507 507.812 47.6585 511.371 52.9851C514.93 58.3116 516.83 64.5738 516.83 70.98C516.819 79.5671 513.404 87.7995 507.332 93.8715C501.26 99.9435 493.027 103.359 484.44 103.37ZM484.44 40.56C478.421 40.558 472.536 42.3412 467.53 45.6842C462.525 49.0271 458.623 53.7795 456.318 59.3403C454.014 64.9011 453.41 71.0203 454.584 76.9241C455.758 82.8279 458.656 88.2509 462.913 92.5072C467.169 96.7635 472.592 99.6619 478.496 100.836C484.4 102.01 490.519 101.406 496.08 99.1017C501.64 96.7973 506.393 92.8955 509.736 87.8897C513.079 82.884 514.862 76.9993 514.86 70.98C514.847 62.918 511.637 55.1903 505.934 49.4915C500.232 43.7926 492.502 40.5879 484.44 40.58V40.56Z"/>
</mask>
<path d="M484.44 103.37C478.034 103.37 471.772 101.47 466.445 97.9113C461.119 94.3522 456.967 89.2936 454.516 83.3751C452.064 77.4566 451.423 70.944 452.672 64.661C453.922 58.3779 457.007 52.6066 461.537 48.0768C466.067 43.547 471.838 40.4621 478.121 39.2123C484.404 37.9626 490.917 38.604 496.835 41.0555C502.754 43.507 507.812 47.6585 511.371 52.9851C514.93 58.3116 516.83 64.5738 516.83 70.98C516.819 79.5671 513.404 87.7995 507.332 93.8715C501.26 99.9435 493.027 103.359 484.44 103.37ZM484.44 40.56C478.421 40.558 472.536 42.3412 467.53 45.6842C462.525 49.0271 458.623 53.7795 456.318 59.3403C454.014 64.9011 453.41 71.0203 454.584 76.9241C455.758 82.8279 458.656 88.2509 462.913 92.5072C467.169 96.7635 472.592 99.6619 478.496 100.836C484.4 102.01 490.519 101.406 496.08 99.1017C501.64 96.7973 506.393 92.8955 509.736 87.8897C513.079 82.884 514.862 76.9993 514.86 70.98C514.847 62.918 511.637 55.1903 505.934 49.4915C500.232 43.7926 492.502 40.5879 484.44 40.58V40.56Z" fill="#6E3638"/>
<path d="M484.44 103.37V105.37H484.442L484.44 103.37ZM516.83 70.98L518.83 70.9824V70.98H516.83ZM484.44 40.56H486.44V38.5606L484.441 38.56L484.44 40.56ZM514.86 70.98L516.86 70.9793L516.86 70.9767L514.86 70.98ZM484.44 40.58H482.44V42.578L484.438 42.58L484.44 40.58ZM484.44 101.37C478.429 101.37 472.554 99.5876 467.556 96.2483L465.334 99.5742C470.989 103.353 477.638 105.37 484.44 105.37V101.37ZM467.556 96.2483C462.559 92.909 458.663 88.1628 456.363 82.6097L452.668 84.1405C455.271 90.4244 459.679 95.7954 465.334 99.5742L467.556 96.2483ZM456.363 82.6097C454.063 77.0567 453.461 70.9462 454.634 65.0512L450.711 64.2708C449.384 70.9418 450.065 77.8565 452.668 84.1405L456.363 82.6097ZM454.634 65.0512C455.807 59.1561 458.701 53.7411 462.951 49.491L460.123 46.6626C455.313 51.4721 452.038 57.5998 450.711 64.2708L454.634 65.0512ZM462.951 49.491C467.201 45.2409 472.616 42.3465 478.511 41.1739L477.731 37.2508C471.06 38.5777 464.932 41.853 460.123 46.6626L462.951 49.491ZM478.511 41.1739C484.406 40.0013 490.517 40.6031 496.07 42.9033L497.601 39.2078C491.317 36.6049 484.402 35.9238 477.731 37.2508L478.511 41.1739ZM496.07 42.9033C501.623 45.2034 506.369 49.0986 509.708 54.0962L513.034 51.8739C509.255 46.2185 503.884 41.8107 497.601 39.2078L496.07 42.9033ZM509.708 54.0962C513.048 59.0938 514.83 64.9694 514.83 70.98H518.83C518.83 64.1783 516.813 57.5293 513.034 51.8739L509.708 54.0962ZM514.83 70.9775C514.82 79.035 511.615 86.7597 505.917 92.4572L508.746 95.2857C515.192 88.8392 518.819 80.0991 518.83 70.9824L514.83 70.9775ZM505.917 92.4572C500.22 98.1548 492.495 101.36 484.438 101.37L484.442 105.37C493.559 105.359 502.299 101.732 508.746 95.2857L505.917 92.4572ZM484.441 38.56C478.026 38.5579 471.754 40.4583 466.42 44.021L468.641 47.3474C473.318 44.2242 478.816 42.5581 484.439 42.56L484.441 38.56ZM466.42 44.021C461.085 47.5836 456.927 52.6484 454.471 58.5746L458.166 60.106C460.319 54.9107 463.964 50.4706 468.641 47.3474L466.42 44.021ZM454.471 58.5746C452.015 64.5009 451.372 71.0223 452.623 77.3141L456.546 76.5341C455.449 71.0183 456.013 65.3013 458.166 60.106L454.471 58.5746ZM452.623 77.3141C453.874 83.6059 456.963 89.3854 461.499 93.9215L464.327 91.093C460.35 87.1165 457.643 82.0498 456.546 76.5341L452.623 77.3141ZM461.499 93.9215C466.035 98.4575 471.814 101.546 478.106 102.797L478.886 98.8742C473.37 97.7775 468.304 95.0696 464.327 91.093L461.499 93.9215ZM478.106 102.797C484.398 104.048 490.919 103.405 496.845 100.949L495.314 97.2541C490.119 99.407 484.402 99.9708 478.886 98.8742L478.106 102.797ZM496.845 100.949C502.772 98.4935 507.836 94.3352 511.399 89.0005L508.073 86.779C504.949 91.4557 500.509 95.1011 495.314 97.2541L496.845 100.949ZM511.399 89.0005C514.962 83.6658 516.862 77.3943 516.86 70.9793L512.86 70.9806C512.862 76.6043 511.196 82.1023 508.073 86.779L511.399 89.0005ZM516.86 70.9767C516.846 62.3852 513.425 54.1499 507.348 48.0768L504.521 50.9061C509.849 56.2306 512.848 63.4508 512.86 70.9832L516.86 70.9767ZM507.348 48.0768C501.271 42.0037 493.033 38.5884 484.442 38.58L484.438 42.58C491.97 42.5874 499.193 45.5816 504.521 50.9061L507.348 48.0768ZM486.44 40.58V40.56H482.44V40.58H486.44Z" fill="black" mask="url(#path-25-inside-2_6_78)"/>
<path d="M484.44 43.22C482.81 43.2234 481.184 43.3707 479.58 43.66L476.93 44.13L480.11 47.32L480.82 47.21C484.246 46.6921 487.744 46.9196 491.075 47.8769C494.405 48.8342 497.49 50.4988 500.119 52.7571C502.747 55.0154 504.858 57.8142 506.306 60.9626C507.754 64.1109 508.506 67.5346 508.51 71C508.507 72.2152 508.413 73.4286 508.23 74.63L508.13 75.33L511.32 78.52L511.79 75.86C512.502 71.8628 512.329 67.7582 511.283 63.8352C510.237 59.9123 508.343 56.2664 505.736 53.1544C503.128 50.0424 499.87 47.5401 496.19 45.8236C492.511 44.1072 488.5 43.2185 484.44 43.22Z" fill="white"/>
<path d="M488.19 94.78C486.949 94.9713 485.696 95.0683 484.44 95.07C478.052 95.0727 471.924 92.5388 467.403 88.0254C462.882 83.512 460.338 77.3883 460.33 71C460.33 69.744 460.43 68.49 460.63 67.25L460.74 66.55L457.6 63.37L457.12 66.01C456.814 67.6591 456.66 69.3328 456.66 71.01C456.668 78.3753 459.597 85.4366 464.805 90.6447C470.013 95.8527 477.075 98.7821 484.44 98.79C486.117 98.7882 487.79 98.6376 489.44 98.34L492.08 97.85L488.9 94.67L488.19 94.78Z" fill="white"/>
<g style="mix-blend-mode:overlay">
<path d="M484.44 91.37C495.685 91.37 504.8 82.2545 504.8 71.01C504.8 59.7655 495.685 50.65 484.44 50.65C473.196 50.65 464.08 59.7655 464.08 71.01C464.08 82.2545 473.196 91.37 484.44 91.37Z" fill="white"/>
</g>
<path d="M81.82 167.64C81.82 183.027 69.3467 195.5 53.96 195.5C38.5734 195.5 26.1 183.027 26.1 167.64C26.1 152.253 38.5734 139.78 53.96 139.78C69.3467 139.78 81.82 152.253 81.82 167.64Z" fill="#926868" stroke="black" stroke-width="2"/>
<mask id="path-31-inside-3_6_78" fill="white">
<path d="M53.96 197.37C48.0712 197.372 42.3141 195.627 37.4169 192.357C32.5197 189.087 28.7025 184.437 26.448 178.997C24.1936 173.557 23.6032 167.57 24.7515 161.795C25.8999 156.019 28.7354 150.713 32.8994 146.549C37.0634 142.385 42.3689 139.55 48.1446 138.402C53.9204 137.253 59.907 137.844 65.3471 140.098C70.7873 142.353 75.4366 146.17 78.707 151.067C81.9774 155.964 83.722 161.721 83.72 167.61C83.7094 175.5 80.5706 183.063 74.9918 188.642C69.413 194.221 61.8496 197.359 53.96 197.37ZM53.96 139.65C48.4221 139.65 43.0086 141.292 38.404 144.369C33.7995 147.446 30.2106 151.819 28.0914 156.935C25.9721 162.051 25.4176 167.681 26.498 173.113C27.5784 178.544 30.2452 183.533 34.161 187.449C38.0769 191.365 43.066 194.032 48.4975 195.112C53.929 196.192 59.5588 195.638 64.6751 193.519C69.7915 191.399 74.1645 187.811 77.2412 183.206C80.3178 178.601 81.96 173.188 81.96 167.65C81.9521 160.229 78.9986 153.115 73.7484 147.87C68.4982 142.626 61.3809 139.68 53.96 139.68V139.65Z"/>
</mask>
<path d="M53.96 197.37C48.0712 197.372 42.3141 195.627 37.4169 192.357C32.5197 189.087 28.7025 184.437 26.448 178.997C24.1936 173.557 23.6032 167.57 24.7515 161.795C25.8999 156.019 28.7354 150.713 32.8994 146.549C37.0634 142.385 42.3689 139.55 48.1446 138.402C53.9204 137.253 59.907 137.844 65.3471 140.098C70.7873 142.353 75.4366 146.17 78.707 151.067C81.9774 155.964 83.722 161.721 83.72 167.61C83.7094 175.5 80.5706 183.063 74.9918 188.642C69.413 194.221 61.8496 197.359 53.96 197.37ZM53.96 139.65C48.4221 139.65 43.0086 141.292 38.404 144.369C33.7995 147.446 30.2106 151.819 28.0914 156.935C25.9721 162.051 25.4176 167.681 26.498 173.113C27.5784 178.544 30.2452 183.533 34.161 187.449C38.0769 191.365 43.066 194.032 48.4975 195.112C53.929 196.192 59.5588 195.638 64.6751 193.519C69.7915 191.399 74.1645 187.811 77.2412 183.206C80.3178 178.601 81.96 173.188 81.96 167.65C81.9521 160.229 78.9986 153.115 73.7484 147.87C68.4982 142.626 61.3809 139.68 53.96 139.68V139.65Z" fill="#6E3638"/>
<path d="M53.96 197.37L53.9607 199.37H53.9627L53.96 197.37ZM83.72 167.61L85.72 167.613V167.611L83.72 167.61ZM53.96 139.65H55.96V137.65H53.96V139.65ZM81.96 167.65H83.96V167.648L81.96 167.65ZM53.96 139.68H51.96V141.68L53.96 141.68L53.96 139.68ZM53.9593 195.37C48.4662 195.372 43.0958 193.744 38.5276 190.694L36.3062 194.02C41.5324 197.51 47.6763 199.372 53.9607 199.37L53.9593 195.37ZM38.5276 190.694C33.9594 187.643 30.3986 183.306 28.2956 178.231L24.6004 179.763C27.0063 185.568 31.08 190.53 36.3062 194.02L38.5276 190.694ZM28.2956 178.231C26.1926 173.157 25.6419 167.572 26.7131 162.185L22.7899 161.405C21.5644 167.568 22.1945 173.957 24.6004 179.763L28.2956 178.231ZM26.7131 162.185C27.7844 156.797 30.4294 151.848 34.3136 147.964L31.4852 145.135C27.0415 149.579 24.0155 155.241 22.7899 161.405L26.7131 162.185ZM34.3136 147.964C38.1979 144.079 43.1469 141.434 48.5346 140.363L47.7546 136.44C41.5908 137.665 35.929 140.691 31.4852 145.135L34.3136 147.964ZM48.5346 140.363C53.9224 139.292 59.5068 139.843 64.5814 141.946L66.1128 138.25C60.3072 135.844 53.9184 135.214 47.7546 136.44L48.5346 140.363ZM64.5814 141.946C69.6561 144.049 73.9931 147.609 77.0438 152.178L80.3702 149.956C76.8801 144.73 71.9184 140.656 66.1128 138.25L64.5814 141.946ZM77.0438 152.178C80.0945 156.746 81.7219 162.116 81.72 167.609L85.72 167.611C85.7221 161.326 83.8604 155.182 80.3702 149.956L77.0438 152.178ZM81.72 167.607C81.7101 174.967 78.782 182.023 73.5776 187.228L76.406 190.056C82.3592 184.103 85.7087 176.032 85.72 167.613L81.72 167.607ZM73.5776 187.228C68.3732 192.432 61.3174 195.36 53.9573 195.37L53.9627 199.37C62.3818 199.359 70.4528 196.009 76.406 190.056L73.5776 187.228ZM53.96 137.65C48.0266 137.65 42.2264 139.409 37.2929 142.706L39.5152 146.032C43.7908 143.175 48.8177 141.65 53.96 141.65V137.65ZM37.2929 142.706C32.3594 146.002 28.5143 150.688 26.2436 156.17L29.9391 157.7C31.907 152.949 35.2395 148.889 39.5152 146.032L37.2929 142.706ZM26.2436 156.17C23.973 161.651 23.3789 167.683 24.5364 173.503L28.4596 172.722C27.4564 167.679 27.9713 162.451 29.9391 157.7L26.2436 156.17ZM24.5364 173.503C25.694 179.322 28.5512 184.668 32.7468 188.863L35.5752 186.035C31.9391 182.399 29.4628 177.766 28.4596 172.722L24.5364 173.503ZM32.7468 188.863C36.9424 193.059 42.2879 195.916 48.1073 197.074L48.8877 193.15C43.8442 192.147 39.2114 189.671 35.5752 186.035L32.7468 188.863ZM48.1073 197.074C53.9267 198.231 59.9587 197.637 65.4405 195.366L63.9098 191.671C59.1589 193.639 53.9312 194.154 48.8877 193.15L48.1073 197.074ZM65.4405 195.366C70.9223 193.096 75.6077 189.251 78.9041 184.317L75.5782 182.095C72.7213 186.37 68.6606 189.703 63.9098 191.671L65.4405 195.366ZM78.9041 184.317C82.2006 179.384 83.96 173.583 83.96 167.65H79.96C79.96 172.792 78.4351 177.819 75.5782 182.095L78.9041 184.317ZM83.96 167.648C83.9515 159.697 80.787 152.075 75.1619 146.455L72.3349 149.285C77.2101 154.155 79.9526 160.761 79.96 167.652L83.96 167.648ZM75.1619 146.455C69.5367 140.836 61.9109 137.68 53.96 137.68L53.96 141.68C60.8508 141.68 67.4598 144.415 72.3349 149.285L75.1619 146.455ZM55.96 139.68V139.65H51.96V139.68H55.96Z" fill="black" mask="url(#path-31-inside-3_6_78)"/>
<mask id="path-33-inside-4_6_78" fill="white">
<path d="M49.9701 141.43C51.2943 141.233 52.6312 141.133 53.9701 141.13C57.7875 141.133 61.5594 141.96 65.0279 143.554C68.4964 145.149 71.5798 147.473 74.0673 150.369C76.5548 153.265 78.3878 156.664 79.441 160.333C80.4943 164.002 80.743 167.856 80.17 171.63L80.98 172.44C81.2655 170.856 81.4094 169.25 81.41 167.64C81.4131 163.629 80.5357 159.666 78.8399 156.031C77.1441 152.396 74.6711 149.177 71.5956 146.602C68.52 144.028 64.9167 142.159 61.0402 141.129C57.1636 140.099 53.1081 139.932 49.16 140.64L49.9701 141.43Z"/>
</mask>
<path d="M49.9701 141.43C51.2943 141.233 52.6312 141.133 53.9701 141.13C57.7875 141.133 61.5594 141.96 65.0279 143.554C68.4964 145.149 71.5798 147.473 74.0673 150.369C76.5548 153.265 78.3878 156.664 79.441 160.333C80.4943 164.002 80.743 167.856 80.17 171.63L80.98 172.44C81.2655 170.856 81.4094 169.25 81.41 167.64C81.4131 163.629 80.5357 159.666 78.8399 156.031C77.1441 152.396 74.6711 149.177 71.5956 146.602C68.52 144.028 64.9167 142.159 61.0402 141.129C57.1636 140.099 53.1081 139.932 49.16 140.64L49.9701 141.43Z" fill="#F1F2F2"/>
<path d="M49.9701 141.43L48.5737 142.862L49.2836 143.554L50.2644 143.408L49.9701 141.43ZM53.9701 141.13L53.9715 139.13L53.9661 139.13L53.9701 141.13ZM80.17 171.63L78.1927 171.33L78.041 172.329L78.7558 173.044L80.17 171.63ZM80.98 172.44L79.5658 173.854L82.27 176.558L82.9483 172.795L80.98 172.44ZM81.41 167.64L79.41 167.638V167.639L81.41 167.64ZM49.16 140.64L48.8069 138.671L44.9808 139.358L47.7637 142.072L49.16 140.64ZM50.2644 143.408C51.4926 143.225 52.7324 143.132 53.9741 143.13L53.9661 139.13C52.53 139.133 51.0961 139.24 49.6757 139.452L50.2644 143.408ZM53.9686 143.13C57.4982 143.133 60.9856 143.897 64.1925 145.372L65.8633 141.737C62.1332 140.022 58.0769 139.133 53.9715 139.13L53.9686 143.13ZM64.1925 145.372C67.3994 146.846 70.2503 148.995 72.5502 151.672L75.5844 149.066C72.9093 145.952 69.5934 143.452 65.8633 141.737L64.1925 145.372ZM72.5502 151.672C74.8501 154.35 76.5448 157.492 77.5187 160.885L81.3634 159.781C80.2307 155.835 78.2595 152.18 75.5844 149.066L72.5502 151.672ZM77.5187 160.885C78.4925 164.277 78.7224 167.84 78.1927 171.33L82.1474 171.93C82.7635 167.871 82.4961 163.727 81.3634 159.781L77.5187 160.885ZM78.7558 173.044L79.5658 173.854L82.3943 171.026L81.5843 170.216L78.7558 173.044ZM82.9483 172.795C83.2549 171.094 83.4094 169.369 83.41 167.641L79.41 167.639C79.4095 169.13 79.2762 170.618 79.0118 172.085L82.9483 172.795ZM83.41 167.642C83.4133 163.338 82.4719 159.086 80.6524 155.185L77.0274 156.876C78.5995 160.246 79.4128 163.92 79.41 167.638L83.41 167.642ZM80.6524 155.185C78.8328 151.285 76.1794 147.832 72.8794 145.069L70.3117 148.136C73.1628 150.523 75.4554 153.507 77.0274 156.876L80.6524 155.185ZM72.8794 145.069C69.5794 142.306 65.7133 140.301 61.5539 139.196L60.5265 143.062C64.1202 144.017 67.4605 145.749 70.3117 148.136L72.8794 145.069ZM61.5539 139.196C57.3944 138.091 53.0431 137.911 48.8069 138.671L49.5132 142.609C53.1732 141.952 56.9328 142.107 60.5265 143.062L61.5539 139.196ZM47.7637 142.072L48.5737 142.862L51.3664 139.998L50.5564 139.208L47.7637 142.072Z" fill="black" mask="url(#path-33-inside-4_6_78)"/>
<mask id="path-35-inside-5_6_78" fill="white">
<path d="M58.0901 193.82C56.7237 194.033 55.3429 194.14 53.9601 194.14C50.1283 194.147 46.3407 193.322 42.8591 191.722C39.3775 190.122 36.285 187.785 33.7954 184.872C31.3058 181.959 29.4785 178.54 28.4399 174.852C27.4013 171.164 27.1762 167.294 27.7801 163.51L26.9701 162.7C26.6642 164.329 26.5102 165.983 26.51 167.64C26.4997 171.666 27.3772 175.646 29.0801 179.294C30.783 182.943 33.2693 186.171 36.3621 188.749C39.4549 191.327 43.078 193.192 46.9736 194.21C50.8692 195.228 54.9413 195.375 58.9001 194.64L58.0901 193.82Z"/>
</mask>
<path d="M58.0901 193.82C56.7237 194.033 55.3429 194.14 53.9601 194.14C50.1283 194.147 46.3407 193.322 42.8591 191.722C39.3775 190.122 36.285 187.785 33.7954 184.872C31.3058 181.959 29.4785 178.54 28.4399 174.852C27.4013 171.164 27.1762 167.294 27.7801 163.51L26.9701 162.7C26.6642 164.329 26.5102 165.983 26.51 167.64C26.4997 171.666 27.3772 175.646 29.0801 179.294C30.783 182.943 33.2693 186.171 36.3621 188.749C39.4549 191.327 43.078 193.192 46.9736 194.21C50.8692 195.228 54.9413 195.375 58.9001 194.64L58.0901 193.82Z" fill="#F1F2F2"/>
<path d="M58.0901 193.82L59.5129 192.415L58.7936 191.686L57.7823 191.844L58.0901 193.82ZM53.9601 194.14L53.9598 192.14L53.9562 192.14L53.9601 194.14ZM27.7801 163.51L29.7551 163.825L29.9159 162.817L29.1943 162.096L27.7801 163.51ZM26.9701 162.7L28.3843 161.286L25.704 158.605L25.0044 162.331L26.9701 162.7ZM26.51 167.64L28.51 167.645L28.51 167.64L26.51 167.64ZM58.9001 194.64L59.2652 196.606L62.9735 195.918L60.3229 193.235L58.9001 194.64ZM57.7823 191.844C56.5176 192.041 55.2396 192.14 53.9598 192.14L53.9603 196.14C55.4462 196.14 56.9297 196.025 58.3979 195.796L57.7823 191.844ZM53.9562 192.14C50.4141 192.147 46.9128 191.384 43.6943 189.905L42.0238 193.539C45.7686 195.261 49.8425 196.148 53.9639 196.14L53.9562 192.14ZM43.6943 189.905C40.4759 188.426 37.6171 186.265 35.3157 183.572L32.275 186.171C34.9528 189.304 38.279 191.818 42.0238 193.539L43.6943 189.905ZM35.3157 183.572C33.0143 180.88 31.3251 177.719 30.365 174.31L26.5148 175.394C27.6319 179.361 29.5973 183.038 32.275 186.171L35.3157 183.572ZM30.365 174.31C29.4049 170.9 29.1968 167.323 29.7551 163.825L25.8051 163.195C25.1555 167.265 25.3977 171.427 26.5148 175.394L30.365 174.31ZM29.1943 162.096L28.3843 161.286L25.5558 164.114L26.3658 164.924L29.1943 162.096ZM25.0044 162.331C24.6757 164.081 24.5102 165.859 24.51 167.64L28.51 167.64C28.5102 166.107 28.6527 164.576 28.9357 163.069L25.0044 162.331ZM24.51 167.635C24.499 171.955 25.4406 176.225 27.2678 180.14L30.8924 178.448C29.3139 175.066 28.5005 171.378 28.51 167.645L24.51 167.635ZM27.2678 180.14C29.095 184.055 31.7629 187.519 35.0815 190.285L37.6427 187.213C34.7758 184.823 32.471 181.831 30.8924 178.448L27.2678 180.14ZM35.0815 190.285C38.4001 193.052 42.2878 195.052 46.4678 196.145L47.4794 192.275C43.8683 191.331 40.5097 189.603 37.6427 187.213L35.0815 190.285ZM46.4678 196.145C50.6478 197.238 55.0173 197.395 59.2652 196.606L58.535 192.674C54.8653 193.355 51.0905 193.219 47.4794 192.275L46.4678 196.145ZM60.3229 193.235L59.5129 192.415L56.6672 195.226L57.4772 196.046L60.3229 193.235Z" fill="black" mask="url(#path-35-inside-5_6_78)"/>
<g style="mix-blend-mode:multiply">
<path d="M58.63 161.75V162.75H59.63H72.58V172.09H59.63H58.63V173.09V186.04H49.29V173.09V172.09H48.29H35.34V162.75H48.29H49.29V161.75V148.79H58.63V161.75Z" fill="#FDC756"/>
<path d="M58.63 161.75V162.75H59.63H72.58V172.09H59.63H58.63V173.09V186.04H49.29V173.09V172.09H48.29H35.34V162.75H48.29H49.29V161.75V148.79H58.63V161.75Z" stroke="black" stroke-width="2"/>
</g>
<path d="M58.13 162.25V163.25H59.13H72.08V171.58H59.13H58.13V172.58V185.53H49.79V172.58V171.58H48.79H35.84V163.25H48.79H49.79V162.25V149.3H58.13V162.25Z" fill="#6E3638" stroke="black" stroke-width="2"/>
<g style="mix-blend-mode:multiply" opacity="0.45">
<path d="M51.2988 163.657C52.0863 163.131 53.0121 162.85 53.9592 162.85C55.229 162.852 56.4462 163.358 57.3442 164.256C58.2421 165.154 58.7476 166.371 58.7501 167.641C58.7499 168.588 58.469 169.514 57.9428 170.301C57.4165 171.089 56.6684 171.703 55.7931 172.065C54.9178 172.428 53.9547 172.523 53.0256 172.338C52.0964 172.153 51.2429 171.697 50.573 171.027C49.9031 170.357 49.4469 169.504 49.2621 168.575C49.0773 167.645 49.1721 166.682 49.5347 165.807C49.8972 164.932 50.5111 164.184 51.2988 163.657Z" fill="#6E3638"/>
<path d="M51.2988 163.657C52.0863 163.131 53.0121 162.85 53.9592 162.85C55.229 162.852 56.4462 163.358 57.3442 164.256C58.2421 165.154 58.7476 166.371 58.7501 167.641C58.7499 168.588 58.469 169.514 57.9428 170.301C57.4165 171.089 56.6684 171.703 55.7931 172.065C54.9178 172.428 53.9547 172.523 53.0256 172.338C52.0964 172.153 51.2429 171.697 50.573 171.027C49.9031 170.357 49.4469 169.504 49.2621 168.575C49.0773 167.645 49.1721 166.682 49.5347 165.807C49.8972 164.932 50.5111 164.184 51.2988 163.657Z" stroke="black" stroke-width="2"/>
</g>
<path d="M58.24 167.64C58.24 170.004 56.3238 171.92 53.96 171.92C51.5962 171.92 49.68 170.004 49.68 167.64C49.68 165.276 51.5962 163.36 53.96 163.36C56.3238 163.36 58.24 165.276 58.24 167.64Z" fill="#FDC756" stroke="black" stroke-width="2"/>
<g style="mix-blend-mode:multiply" opacity="0.45">
<path d="M55.066 154.52H52.8958L54.0081 152.579L55.066 154.52Z" fill="#6E3638"/>
<path d="M55.066 154.52H52.8958L54.0081 152.579L55.066 154.52Z" stroke="black" stroke-width="2"/>
</g>
<path d="M54.6361 154.24H53.3263L53.9978 153.069L54.6361 154.24Z" fill="#FDC756" stroke="black" stroke-width="2"/>
<g style="mix-blend-mode:multiply" opacity="0.45">
<path d="M52.854 180.85H55.0243L53.9119 182.791L52.854 180.85Z" fill="#6E3638"/>
<path d="M52.854 180.85H55.0243L53.9119 182.791L52.854 180.85Z" stroke="black" stroke-width="2"/>
</g>
<path d="M53.2839 181.13H54.5938L53.9222 182.301L53.2839 181.13Z" fill="#FDC756" stroke="black" stroke-width="2"/>
<g style="mix-blend-mode:multiply" opacity="0.45">
<path d="M67.13 166.574L69.0736 167.633L67.13 168.751V166.574Z" fill="#6E3638"/>
<path d="M67.13 166.574L69.0736 167.633L67.13 168.751V166.574Z" stroke="black" stroke-width="2"/>
</g>
<path d="M67.4 167.004L68.5744 167.644L67.4 168.32V167.004Z" fill="#FDC756" stroke="black" stroke-width="2"/>
<g style="mix-blend-mode:multiply" opacity="0.45">
<path d="M40.7901 168.796L38.8465 167.737L40.7901 166.619V168.796Z" fill="#6E3638"/>
<path d="M40.7901 168.796L38.8465 167.737L40.7901 166.619V168.796Z" stroke="black" stroke-width="2"/>
</g>
<path d="M40.5201 168.366L39.3457 167.726L40.5201 167.05V168.366Z" fill="#FDC756" stroke="black" stroke-width="2"/>
<mask id="path-49-inside-6_6_78" fill="white">
<path d="M50.25 165.37C50.6374 164.719 51.1871 164.181 51.8453 163.806C52.5036 163.432 53.2478 163.235 54.005 163.235C54.7622 163.235 55.5064 163.432 56.1647 163.806C56.8229 164.181 57.3727 164.719 57.76 165.37H58.24C57.8329 164.6 57.2235 163.955 56.4772 163.505C55.731 163.056 54.8763 162.818 54.005 162.818C53.1338 162.818 52.279 163.056 51.5328 163.505C50.7865 163.955 50.1771 164.6 49.77 165.37H50.25Z"/>
</mask>
<path d="M50.25 165.37C50.6374 164.719 51.1871 164.181 51.8453 163.806C52.5036 163.432 53.2478 163.235 54.005 163.235C54.7622 163.235 55.5064 163.432 56.1647 163.806C56.8229 164.181 57.3727 164.719 57.76 165.37H58.24C57.8329 164.6 57.2235 163.955 56.4772 163.505C55.731 163.056 54.8763 162.818 54.005 162.818C53.1338 162.818 52.279 163.056 51.5328 163.505C50.7865 163.955 50.1771 164.6 49.77 165.37H50.25Z" fill="white"/>
<path d="M50.25 165.37V167.37H51.387L51.9686 166.393L50.25 165.37ZM57.76 165.37L56.0415 166.393L56.6231 167.37H57.76V165.37ZM58.24 165.37V167.37H61.5591L60.0083 164.436L58.24 165.37ZM54.005 162.818V164.818V162.818ZM49.77 165.37L48.0018 164.436L46.451 167.37H49.77V165.37ZM51.9686 166.393C52.1786 166.04 52.4768 165.748 52.8337 165.545L50.8569 162.068C49.8974 162.613 49.0961 163.399 48.5315 164.347L51.9686 166.393ZM52.8337 165.545C53.1908 165.342 53.5944 165.235 54.005 165.235V161.235C52.9012 161.235 51.8164 161.522 50.8569 162.068L52.8337 165.545ZM54.005 165.235C54.4156 165.235 54.8192 165.342 55.1763 165.545L57.1531 162.068C56.1936 161.522 55.1088 161.235 54.005 161.235V165.235ZM55.1763 165.545C55.5333 165.748 55.8314 166.04 56.0415 166.393L59.4785 164.347C58.9139 163.399 58.1126 162.613 57.1531 162.068L55.1763 165.545ZM57.76 167.37H58.24V163.37H57.76V167.37ZM60.0083 164.436C59.4312 163.344 58.5673 162.43 57.5095 161.792L55.445 165.218C55.8797 165.48 56.2347 165.856 56.4718 166.304L60.0083 164.436ZM57.5095 161.792C56.4517 161.155 55.2401 160.818 54.005 160.818V164.818C54.5124 164.818 55.0103 164.956 55.445 165.218L57.5095 161.792ZM54.005 160.818C52.7699 160.818 51.5583 161.155 50.5005 161.792L52.565 165.218C52.9997 164.956 53.4976 164.818 54.005 164.818V160.818ZM50.5005 161.792C49.4427 162.43 48.5788 163.344 48.0018 164.436L51.5383 166.304C51.7754 165.856 52.1304 165.48 52.565 165.218L50.5005 161.792ZM49.77 167.37H50.25V163.37H49.77V167.37Z" fill="black" mask="url(#path-49-inside-6_6_78)"/>
<mask id="path-51-inside-7_6_78" fill="white">
<path d="M57.45 170.28C57.0414 170.804 56.5187 171.227 55.9218 171.519C55.3248 171.81 54.6693 171.961 54.005 171.961C53.3408 171.961 52.6853 171.81 52.0883 171.519C51.4914 171.227 50.9687 170.804 50.5601 170.28H50.04C50.479 170.928 51.0699 171.458 51.7611 171.824C52.4523 172.191 53.2227 172.382 54.005 172.382C54.7874 172.382 55.5578 172.191 56.249 171.824C56.9402 171.458 57.5311 170.928 57.9701 170.28H57.45Z"/>
</mask>
<path d="M57.45 170.28C57.0414 170.804 56.5187 171.227 55.9218 171.519C55.3248 171.81 54.6693 171.961 54.005 171.961C53.3408 171.961 52.6853 171.81 52.0883 171.519C51.4914 171.227 50.9687 170.804 50.5601 170.28H50.04C50.479 170.928 51.0699 171.458 51.7611 171.824C52.4523 172.191 53.2227 172.382 54.005 172.382C54.7874 172.382 55.5578 172.191 56.249 171.824C56.9402 171.458 57.5311 170.928 57.9701 170.28H57.45Z" fill="white"/>
<path d="M57.45 170.28V168.28H56.4739L55.8734 169.049L57.45 170.28ZM54.005 171.961V169.961V171.961ZM50.5601 170.28L52.1367 169.049L51.5362 168.28H50.5601V170.28ZM50.04 170.28V168.28H46.2683L48.3845 171.402L50.04 170.28ZM54.005 172.382V170.382V172.382ZM57.9701 170.28L59.6256 171.402L61.7418 168.28H57.9701V170.28ZM55.8734 169.049C55.6517 169.333 55.3683 169.563 55.0445 169.721L56.799 173.316C57.6691 172.891 58.431 172.274 59.0267 171.51L55.8734 169.049ZM55.0445 169.721C54.7207 169.879 54.3652 169.961 54.005 169.961V173.961C54.9734 173.961 55.9289 173.741 56.799 173.316L55.0445 169.721ZM54.005 169.961C53.6449 169.961 53.2894 169.879 52.9656 169.721L51.2111 173.316C52.0812 173.741 53.0367 173.961 54.005 173.961V169.961ZM52.9656 169.721C52.6418 169.563 52.3584 169.333 52.1367 169.049L48.9834 171.51C49.5791 172.274 50.341 172.891 51.2111 173.316L52.9656 169.721ZM50.5601 168.28H50.04V172.28H50.5601V168.28ZM48.3845 171.402C49.0067 172.32 49.8443 173.072 50.8241 173.591L52.698 170.057C52.2955 169.844 51.9513 169.535 51.6956 169.158L48.3845 171.402ZM50.8241 173.591C51.804 174.111 52.8961 174.382 54.005 174.382V170.382C53.5493 170.382 53.1006 170.271 52.698 170.057L50.8241 173.591ZM54.005 174.382C55.114 174.382 56.2061 174.111 57.186 173.591L55.3121 170.057C54.9095 170.271 54.4608 170.382 54.005 170.382V174.382ZM57.186 173.591C58.1658 173.072 59.0034 172.32 59.6256 171.402L56.3145 169.158C56.0588 169.535 55.7146 169.844 55.3121 170.057L57.186 173.591ZM57.9701 168.28H57.45V172.28H57.9701V168.28Z" fill="black" mask="url(#path-51-inside-7_6_78)"/>
<path d="M483.38 158.86C483.38 164.118 479.118 168.38 473.86 168.38C468.602 168.38 464.34 164.118 464.34 158.86C464.34 153.602 468.602 149.34 473.86 149.34C479.118 149.34 483.38 153.602 483.38 158.86Z" fill="#926868" stroke="black" stroke-width="2"/>
<mask id="path-54-inside-8_6_78" fill="white">
<path d="M473.86 169.7C471.713 169.702 469.614 169.067 467.828 167.876C466.043 166.684 464.65 164.99 463.828 163.007C463.005 161.024 462.79 158.841 463.208 156.736C463.626 154.63 464.66 152.696 466.178 151.178C467.696 149.66 469.63 148.626 471.736 148.208C473.841 147.79 476.024 148.005 478.007 148.828C479.99 149.65 481.684 151.042 482.876 152.828C484.067 154.614 484.702 156.713 484.7 158.86C484.695 161.733 483.551 164.487 481.519 166.519C479.487 168.551 476.733 169.695 473.86 169.7ZM473.86 148.7C471.844 148.698 469.873 149.294 468.196 150.412C466.519 151.531 465.211 153.122 464.439 154.984C463.666 156.845 463.463 158.894 463.855 160.872C464.247 162.849 465.216 164.666 466.641 166.092C468.066 167.518 469.881 168.489 471.858 168.883C473.835 169.277 475.885 169.076 477.747 168.305C479.61 167.534 481.202 166.228 482.322 164.552C483.442 162.876 484.04 160.906 484.04 158.89C484.037 156.19 482.964 153.601 481.056 151.691C479.148 149.781 476.56 148.705 473.86 148.7Z"/>
</mask>
<path d="M473.86 169.7C471.713 169.702 469.614 169.067 467.828 167.876C466.043 166.684 464.65 164.99 463.828 163.007C463.005 161.024 462.79 158.841 463.208 156.736C463.626 154.63 464.66 152.696 466.178 151.178C467.696 149.66 469.63 148.626 471.736 148.208C473.841 147.79 476.024 148.005 478.007 148.828C479.99 149.65 481.684 151.042 482.876 152.828C484.067 154.614 484.702 156.713 484.7 158.86C484.695 161.733 483.551 164.487 481.519 166.519C479.487 168.551 476.733 169.695 473.86 169.7ZM473.86 148.7C471.844 148.698 469.873 149.294 468.196 150.412C466.519 151.531 465.211 153.122 464.439 154.984C463.666 156.845 463.463 158.894 463.855 160.872C464.247 162.849 465.216 164.666 466.641 166.092C468.066 167.518 469.881 168.489 471.858 168.883C473.835 169.277 475.885 169.076 477.747 168.305C479.61 167.534 481.202 166.228 482.322 164.552C483.442 162.876 484.04 160.906 484.04 158.89C484.037 156.19 482.964 153.601 481.056 151.691C479.148 149.781 476.56 148.705 473.86 148.7Z" fill="#6E3638"/>
<path d="M473.86 169.7L473.862 171.7L473.864 171.7L473.86 169.7ZM484.7 158.86L486.7 158.864L486.7 158.862L484.7 158.86ZM473.86 148.7L473.864 146.7L473.862 146.7L473.86 148.7ZM484.04 158.89L486.04 158.89L486.04 158.888L484.04 158.89ZM473.858 167.7C472.107 167.702 470.395 167.184 468.938 166.212L466.718 169.539C468.833 170.95 471.319 171.702 473.862 171.7L473.858 167.7ZM468.938 166.212C467.482 165.24 466.346 163.858 465.675 162.241L461.98 163.773C462.955 166.122 464.603 168.128 466.718 169.539L468.938 166.212ZM465.675 162.241C465.004 160.623 464.829 158.843 465.17 157.125L461.246 156.346C460.751 158.84 461.006 161.424 461.98 163.773L465.675 162.241ZM465.17 157.125C465.511 155.408 466.354 153.83 467.592 152.592L464.764 149.764C462.966 151.562 461.742 153.852 461.246 156.346L465.17 157.125ZM467.592 152.592C468.83 151.354 470.408 150.511 472.126 150.17L471.346 146.246C468.852 146.742 466.562 147.966 464.764 149.764L467.592 152.592ZM472.126 150.17C473.843 149.828 475.623 150.004 477.241 150.675L478.773 146.98C476.424 146.006 473.84 145.751 471.346 146.246L472.126 150.17ZM477.241 150.675C478.858 151.346 480.24 152.482 481.212 153.938L484.539 151.718C483.128 149.603 481.121 147.954 478.773 146.98L477.241 150.675ZM481.212 153.938C482.184 155.395 482.702 157.107 482.7 158.858L486.7 158.862C486.702 156.319 485.95 153.833 484.539 151.718L481.212 153.938ZM482.7 158.856C482.696 161.2 481.763 163.447 480.105 165.105L482.933 167.933C485.339 165.528 486.694 162.266 486.7 158.864L482.7 158.856ZM480.105 165.105C478.447 166.763 476.201 167.696 473.856 167.7L473.864 171.7C477.266 171.694 480.528 170.339 482.933 167.933L480.105 165.105ZM473.862 146.7C471.451 146.698 469.093 147.411 467.086 148.749L469.306 152.076C470.654 151.177 472.238 150.698 473.858 150.7L473.862 146.7ZM467.086 148.749C465.08 150.087 463.516 151.99 462.591 154.217L466.286 155.75C466.907 154.254 467.958 152.975 469.306 152.076L467.086 148.749ZM462.591 154.217C461.667 156.444 461.424 158.895 461.893 161.261L465.816 160.483C465.501 158.894 465.665 157.247 466.286 155.75L462.591 154.217ZM461.893 161.261C462.362 163.626 463.522 165.799 465.226 167.505L468.056 164.678C466.911 163.532 466.132 162.072 465.816 160.483L461.893 161.261ZM465.226 167.505C466.931 169.211 469.103 170.374 471.467 170.845L472.249 166.922C470.66 166.605 469.201 165.825 468.056 164.678L465.226 167.505ZM471.467 170.845C473.832 171.316 476.284 171.076 478.512 170.153L476.982 166.457C475.485 167.077 473.838 167.239 472.249 166.922L471.467 170.845ZM478.512 170.153C480.74 169.231 482.645 167.669 483.985 165.664L480.659 163.441C479.759 164.788 478.479 165.838 476.982 166.457L478.512 170.153ZM483.985 165.664C485.325 163.659 486.04 161.301 486.04 158.89L482.04 158.89C482.04 160.51 481.559 162.094 480.659 163.441L483.985 165.664ZM486.04 158.888C486.037 155.659 484.753 152.562 482.471 150.278L479.641 153.105C481.175 154.64 482.038 156.721 482.04 158.892L486.04 158.888ZM482.471 150.278C480.189 147.993 477.093 146.706 473.864 146.7L473.856 150.7C476.027 150.704 478.107 151.569 479.641 153.105L482.471 150.278Z" fill="black" mask="url(#path-54-inside-8_6_78)"/>
<mask id="path-56-inside-9_6_78" fill="white">
<path d="M472.4 149.31C472.883 149.238 473.371 149.201 473.86 149.2C476.42 149.203 478.875 150.222 480.684 152.033C482.494 153.844 483.51 156.3 483.51 158.86C483.514 159.346 483.477 159.831 483.4 160.31L483.7 160.61C483.804 160.032 483.857 159.447 483.86 158.86C483.861 157.398 483.541 155.954 482.923 154.629C482.305 153.305 481.405 152.131 480.284 151.192C479.164 150.253 477.852 149.571 476.439 149.194C475.027 148.817 473.549 148.754 472.11 149.01L472.4 149.31Z"/>
</mask>
<path d="M472.4 149.31C472.883 149.238 473.371 149.201 473.86 149.2C476.42 149.203 478.875 150.222 480.684 152.033C482.494 153.844 483.51 156.3 483.51 158.86C483.514 159.346 483.477 159.831 483.4 160.31L483.7 160.61C483.804 160.032 483.857 159.447 483.86 158.86C483.861 157.398 483.541 155.954 482.923 154.629C482.305 153.305 481.405 152.131 480.284 151.192C479.164 150.253 477.852 149.571 476.439 149.194C475.027 148.817 473.549 148.754 472.11 149.01L472.4 149.31Z" fill="#F1F2F2"/>
<path d="M472.4 149.31L470.962 150.7L471.678 151.44L472.696 151.288L472.4 149.31ZM473.86 149.2L473.862 147.2L473.856 147.2L473.86 149.2ZM483.51 158.86L481.51 158.86V158.868L481.51 158.876L483.51 158.86ZM483.4 160.31L481.425 159.992L481.263 161.002L481.986 161.724L483.4 160.31ZM483.7 160.61L482.286 162.024L484.992 164.73L485.669 160.964L483.7 160.61ZM483.86 158.86L485.86 158.869L485.86 158.861L483.86 158.86ZM472.11 149.01L471.76 147.041L468.061 147.698L470.672 150.4L472.11 149.01ZM472.696 151.288C473.082 151.23 473.473 151.201 473.864 151.2L473.856 147.2C473.27 147.201 472.684 147.245 472.104 147.332L472.696 151.288ZM473.858 151.2C475.888 151.202 477.834 152.01 479.269 153.446L482.099 150.619C479.915 148.433 476.952 147.203 473.862 147.2L473.858 151.2ZM479.269 153.446C480.704 154.883 481.51 156.83 481.51 158.86L485.51 158.86C485.51 155.77 484.283 152.806 482.099 150.619L479.269 153.446ZM481.51 158.876C481.513 159.25 481.485 159.623 481.425 159.992L485.375 160.628C485.469 160.038 485.515 159.441 485.51 158.844L481.51 158.876ZM481.986 161.724L482.286 162.024L485.114 159.196L484.814 158.896L481.986 161.724ZM485.669 160.964C485.793 160.272 485.857 159.572 485.86 158.869L481.86 158.851C481.858 159.322 481.815 159.793 481.732 160.257L485.669 160.964ZM485.86 158.861C485.861 157.107 485.477 155.374 484.736 153.784L481.11 155.475C481.605 156.534 481.861 157.69 481.86 158.859L485.86 158.861ZM484.736 153.784C483.994 152.194 482.913 150.786 481.569 149.66L478.999 152.725C479.896 153.476 480.616 154.415 481.11 155.475L484.736 153.784ZM481.569 149.66C480.225 148.533 478.65 147.714 476.955 147.262L475.923 151.126C477.053 151.428 478.103 151.974 478.999 152.725L481.569 149.66ZM476.955 147.262C475.26 146.809 473.487 146.734 471.76 147.041L472.46 150.979C473.611 150.775 474.794 150.825 475.923 151.126L476.955 147.262ZM470.672 150.4L470.962 150.7L473.838 147.92L473.548 147.62L470.672 150.4Z" fill="black" mask="url(#path-56-inside-9_6_78)"/>
<mask id="path-58-inside-10_6_78" fill="white">
<path d="M475.36 168.39C474.864 168.471 474.362 168.511 473.86 168.51C471.3 168.51 468.844 167.494 467.033 165.684C465.222 163.875 464.203 161.42 464.2 158.86C464.199 158.354 464.239 157.849 464.32 157.35L464.02 157.05C463.916 157.648 463.862 158.253 463.86 158.86C463.86 161.512 464.914 164.056 466.789 165.931C468.664 167.806 471.208 168.86 473.86 168.86C474.464 168.859 475.067 168.802 475.66 168.69L475.36 168.39Z"/>
</mask>
<path d="M475.36 168.39C474.864 168.471 474.362 168.511 473.86 168.51C471.3 168.51 468.844 167.494 467.033 165.684C465.222 163.875 464.203 161.42 464.2 158.86C464.199 158.354 464.239 157.849 464.32 157.35L464.02 157.05C463.916 157.648 463.862 158.253 463.86 158.86C463.86 161.512 464.914 164.056 466.789 165.931C468.664 167.806 471.208 168.86 473.86 168.86C474.464 168.859 475.067 168.802 475.66 168.69L475.36 168.39Z" fill="#F1F2F2"/>
<path d="M475.36 168.39L476.774 166.976L476.05 166.252L475.04 166.416L475.36 168.39ZM473.86 168.51L473.863 166.51H473.86L473.86 168.51ZM464.2 158.86L466.2 158.858L466.2 158.856L464.2 158.86ZM464.32 157.35L466.294 157.67L466.458 156.66L465.734 155.936L464.32 157.35ZM464.02 157.05L465.434 155.636L462.711 152.912L462.05 156.707L464.02 157.05ZM463.86 158.86L461.86 158.852V158.86H463.86ZM473.86 168.86V170.86L473.864 170.86L473.86 168.86ZM475.66 168.69L476.031 170.655L479.752 169.953L477.074 167.276L475.66 168.69ZM475.04 166.416C474.65 166.479 474.257 166.511 473.863 166.51L473.858 170.51C474.468 170.511 475.078 170.462 475.68 170.364L475.04 166.416ZM473.86 166.51C471.83 166.51 469.883 165.704 468.446 164.269L465.619 167.099C467.806 169.283 470.77 170.51 473.86 170.51L473.86 166.51ZM468.446 164.269C467.01 162.834 466.202 160.888 466.2 158.858L462.2 158.862C462.203 161.952 463.433 164.915 465.619 167.099L468.446 164.269ZM466.2 158.856C466.199 158.459 466.231 158.062 466.294 157.67L462.346 157.03C462.248 157.637 462.199 158.25 462.2 158.864L466.2 158.856ZM465.734 155.936L465.434 155.636L462.606 158.464L462.906 158.764L465.734 155.936ZM462.05 156.707C461.926 157.415 461.863 158.133 461.86 158.852L465.86 158.868C465.862 158.373 465.905 157.88 465.99 157.393L462.05 156.707ZM461.86 158.86C461.86 162.043 463.124 165.095 465.375 167.345L468.203 164.517C466.703 163.017 465.86 160.982 465.86 158.86H461.86ZM465.375 167.345C467.625 169.596 470.677 170.86 473.86 170.86V166.86C471.738 166.86 469.703 166.017 468.203 164.517L465.375 167.345ZM473.864 170.86C474.591 170.859 475.316 170.79 476.031 170.655L475.289 166.725C474.817 166.814 474.337 166.859 473.856 166.86L473.864 170.86ZM477.074 167.276L476.774 166.976L473.946 169.804L474.246 170.104L477.074 167.276Z" fill="black" mask="url(#path-58-inside-10_6_78)"/>
<path d="M479.68 158.86C479.68 162.074 477.074 164.68 473.86 164.68C470.646 164.68 468.04 162.074 468.04 158.86C468.04 155.646 470.646 153.04 473.86 153.04C477.074 153.04 479.68 155.646 479.68 158.86Z" fill="#FDC756" stroke="black" stroke-width="2"/>
<path d="M510.406 175.115C513.484 179.377 512.523 185.328 508.26 188.406C503.998 191.484 498.047 190.523 494.969 186.26C491.891 181.997 492.852 176.047 497.115 172.969C501.377 169.891 507.328 170.852 510.406 175.115Z" fill="#926868" stroke="black" stroke-width="2"/>
<mask id="path-62-inside-11_6_78" fill="white">
<path d="M491.844 180.717C491.844 178.57 492.481 176.472 493.673 174.688C494.866 172.903 496.561 171.512 498.544 170.692C500.527 169.871 502.709 169.656 504.814 170.076C506.919 170.495 508.853 171.53 510.37 173.048C511.887 174.566 512.919 176.501 513.337 178.606C513.754 180.711 513.538 182.893 512.715 184.876C511.892 186.858 510.5 188.552 508.715 189.743C506.929 190.934 504.83 191.568 502.684 191.567C499.808 191.564 497.051 190.42 495.018 188.385C492.986 186.351 491.844 183.592 491.844 180.717ZM512.844 180.717C512.844 178.701 512.246 176.731 511.127 175.055C510.007 173.38 508.415 172.073 506.553 171.302C504.691 170.531 502.643 170.329 500.666 170.722C498.689 171.116 496.874 172.086 495.448 173.511C494.023 174.936 493.053 176.752 492.66 178.729C492.267 180.705 492.468 182.754 493.24 184.616C494.011 186.478 495.317 188.069 496.993 189.189C498.668 190.309 500.639 190.907 502.654 190.907C505.356 190.904 507.946 189.829 509.856 187.919C511.767 186.009 512.841 183.418 512.844 180.717Z"/>
</mask>
<path d="M491.844 180.717C491.844 178.57 492.481 176.472 493.673 174.688C494.866 172.903 496.561 171.512 498.544 170.692C500.527 169.871 502.709 169.656 504.814 170.076C506.919 170.495 508.853 171.53 510.37 173.048C511.887 174.566 512.919 176.501 513.337 178.606C513.754 180.711 513.538 182.893 512.715 184.876C511.892 186.858 510.5 188.552 508.715 189.743C506.929 190.934 504.83 191.568 502.684 191.567C499.808 191.564 497.051 190.42 495.018 188.385C492.986 186.351 491.844 183.592 491.844 180.717ZM512.844 180.717C512.844 178.701 512.246 176.731 511.127 175.055C510.007 173.38 508.415 172.073 506.553 171.302C504.691 170.531 502.643 170.329 500.666 170.722C498.689 171.116 496.874 172.086 495.448 173.511C494.023 174.936 493.053 176.752 492.66 178.729C492.267 180.705 492.468 182.754 493.24 184.616C494.011 186.478 495.317 188.069 496.993 189.189C498.668 190.309 500.639 190.907 502.654 190.907C505.356 190.904 507.946 189.829 509.856 187.919C511.767 186.009 512.841 183.418 512.844 180.717Z" fill="#6E3638"/>
<path d="M491.844 180.717L493.844 180.717L491.844 180.717ZM502.684 191.567L502.686 189.567L502.684 191.567ZM512.844 180.717L514.844 180.718V180.717H512.844ZM502.654 190.907V192.907L502.656 192.907L502.654 190.907ZM493.844 180.717C493.844 178.966 494.363 177.254 495.336 175.799L492.01 173.576C490.598 175.69 489.844 178.175 489.844 180.717L493.844 180.717ZM495.336 175.799C496.309 174.343 497.691 173.209 499.309 172.539L497.779 168.844C495.43 169.816 493.423 171.463 492.01 173.576L495.336 175.799ZM499.309 172.539C500.927 171.87 502.707 171.695 504.423 172.037L505.205 168.114C502.712 167.617 500.128 167.871 497.779 168.844L499.309 172.539ZM504.423 172.037C506.14 172.379 507.717 173.223 508.955 174.462L511.784 171.634C509.988 169.836 507.698 168.611 505.205 168.114L504.423 172.037ZM508.955 174.462C510.192 175.7 511.034 177.278 511.375 178.995L515.298 178.217C514.804 175.723 513.581 173.433 511.784 171.634L508.955 174.462ZM511.375 178.995C511.715 180.712 511.539 182.492 510.868 184.109L514.562 185.642C515.537 183.294 515.793 180.71 515.298 178.217L511.375 178.995ZM510.868 184.109C510.197 185.726 509.061 187.108 507.605 188.079L509.824 191.407C511.939 189.996 513.588 187.99 514.562 185.642L510.868 184.109ZM507.605 188.079C506.148 189.05 504.437 189.568 502.686 189.567L502.682 193.567C505.224 193.569 507.71 192.817 509.824 191.407L507.605 188.079ZM502.686 189.567C500.34 189.564 498.091 188.631 496.433 186.972L493.603 189.799C496.011 192.208 499.276 193.563 502.682 193.567L502.686 189.567ZM496.433 186.972C494.775 185.312 493.844 183.062 493.844 180.717L489.844 180.717C489.844 184.123 491.196 187.389 493.603 189.799L496.433 186.972ZM514.844 180.717C514.844 178.306 514.129 175.949 512.79 173.944L509.464 176.166C510.364 177.513 510.844 179.097 510.844 180.717H514.844ZM512.79 173.944C511.45 171.939 509.546 170.377 507.319 169.454L505.788 173.15C507.285 173.77 508.564 174.82 509.464 176.166L512.79 173.944ZM507.319 169.454C505.091 168.532 502.64 168.29 500.276 168.761L501.056 172.684C502.645 172.368 504.292 172.53 505.788 173.15L507.319 169.454ZM500.276 168.761C497.911 169.231 495.739 170.392 494.034 172.097L496.863 174.925C498.008 173.78 499.467 173 501.056 172.684L500.276 168.761ZM494.034 172.097C492.329 173.802 491.169 175.974 490.698 178.338L494.621 179.119C494.937 177.53 495.717 176.071 496.863 174.925L494.034 172.097ZM490.698 178.338C490.228 180.703 490.469 183.154 491.392 185.381L495.087 183.851C494.467 182.354 494.305 180.707 494.621 179.119L490.698 178.338ZM491.392 185.381C492.314 187.609 493.877 189.513 495.882 190.852L498.104 187.526C496.757 186.626 495.707 185.347 495.087 183.851L491.392 185.381ZM495.882 190.852C497.886 192.192 500.243 192.907 502.654 192.907V188.907C501.034 188.907 499.451 188.426 498.104 187.526L495.882 190.852ZM502.656 192.907C505.887 192.903 508.986 191.618 511.271 189.333L508.442 186.505C506.906 188.041 504.824 188.904 502.652 188.907L502.656 192.907ZM511.271 189.333C513.556 187.048 514.841 183.95 514.844 180.718L510.844 180.715C510.842 182.887 509.978 184.969 508.442 186.505L511.271 189.333Z" fill="black" mask="url(#path-62-inside-11_6_78)"/>
<mask id="path-64-inside-12_6_78" fill="white">
<path d="M512.234 179.267C512.306 179.747 512.343 180.231 512.344 180.717C512.341 183.278 511.323 185.733 509.512 187.544C507.701 189.355 505.245 190.374 502.684 190.377C502.199 190.375 501.714 190.339 501.234 190.267L500.934 190.557C501.511 190.666 502.097 190.719 502.684 190.717C504.146 190.717 505.59 190.397 506.915 189.78C508.239 189.162 509.413 188.261 510.352 187.141C511.291 186.021 511.973 184.708 512.35 183.296C512.727 181.884 512.79 180.406 512.534 178.967L512.234 179.267Z"/>
</mask>
<path d="M512.234 179.267C512.306 179.747 512.343 180.231 512.344 180.717C512.341 183.278 511.323 185.733 509.512 187.544C507.701 189.355 505.245 190.374 502.684 190.377C502.199 190.375 501.714 190.339 501.234 190.267L500.934 190.557C501.511 190.666 502.097 190.719 502.684 190.717C504.146 190.717 505.59 190.397 506.915 189.78C508.239 189.162 509.413 188.261 510.352 187.141C511.291 186.021 511.973 184.708 512.35 183.296C512.727 181.884 512.79 180.406 512.534 178.967L512.234 179.267Z" fill="#F1F2F2"/>
<path d="M512.234 179.267L510.82 177.852L510.106 178.566L510.256 179.564L512.234 179.267ZM512.344 180.717L514.344 180.719L514.344 180.712L512.344 180.717ZM502.684 190.377L502.68 192.377L502.686 192.377L502.684 190.377ZM501.234 190.267L501.531 188.289L500.554 188.142L499.844 188.829L501.234 190.267ZM500.934 190.557L499.544 189.119L496.767 191.804L500.562 192.522L500.934 190.557ZM502.684 190.717L502.685 188.717L502.675 188.717L502.684 190.717ZM512.534 178.967L514.503 178.617L513.832 174.84L511.12 177.552L512.534 178.967ZM510.256 179.564C510.314 179.947 510.343 180.334 510.344 180.721L514.344 180.712C514.343 180.129 514.298 179.546 514.212 178.969L510.256 179.564ZM510.344 180.714C510.342 182.746 509.534 184.694 508.097 186.13L510.926 188.958C513.111 186.773 514.341 183.81 514.344 180.719L510.344 180.714ZM508.097 186.13C506.661 187.567 504.713 188.374 502.682 188.377L502.686 192.377C505.777 192.373 508.74 191.144 510.926 188.958L508.097 186.13ZM502.688 188.377C502.301 188.376 501.914 188.346 501.531 188.289L500.937 192.244C501.514 192.331 502.096 192.375 502.68 192.377L502.688 188.377ZM499.844 188.829L499.544 189.119L502.324 191.994L502.624 191.704L499.844 188.829ZM500.562 192.522C501.265 192.655 501.978 192.72 502.693 192.717L502.675 188.717C502.215 188.719 501.757 188.677 501.306 188.591L500.562 192.522ZM502.683 192.717C504.437 192.717 506.17 192.333 507.76 191.592L506.069 187.967C505.009 188.461 503.854 188.717 502.685 188.717L502.683 192.717ZM507.76 191.592C509.35 190.851 510.758 189.77 511.884 188.426L508.819 185.856C508.068 186.752 507.129 187.473 506.069 187.967L507.76 191.592ZM511.884 188.426C513.011 187.081 513.83 185.506 514.282 183.812L510.418 182.78C510.116 183.91 509.57 184.96 508.819 185.856L511.884 188.426ZM514.282 183.812C514.735 182.117 514.81 180.344 514.503 178.617L510.565 179.317C510.769 180.468 510.719 181.65 510.418 182.78L514.282 183.812ZM511.12 177.552L510.82 177.852L513.648 180.681L513.948 180.381L511.12 177.552Z" fill="black" mask="url(#path-64-inside-12_6_78)"/>
<mask id="path-66-inside-13_6_78" fill="white">
<path d="M493.144 182.227C493.068 181.727 493.028 181.222 493.024 180.717C493.029 178.156 494.049 175.702 495.859 173.892C497.67 172.081 500.124 171.062 502.684 171.057C503.19 171.056 503.695 171.096 504.194 171.177L504.484 170.887C503.891 170.774 503.288 170.717 502.684 170.717C500.032 170.717 497.488 171.77 495.613 173.646C493.737 175.521 492.684 178.064 492.684 180.717C492.684 181.321 492.741 181.923 492.854 182.517L493.144 182.227Z"/>
</mask>
<path d="M493.144 182.227C493.068 181.727 493.028 181.222 493.024 180.717C493.029 178.156 494.049 175.702 495.859 173.892C497.67 172.081 500.124 171.062 502.684 171.057C503.19 171.056 503.695 171.096 504.194 171.177L504.484 170.887C503.891 170.774 503.288 170.717 502.684 170.717C500.032 170.717 497.488 171.77 495.613 173.646C493.737 175.521 492.684 178.064 492.684 180.717C492.684 181.321 492.741 181.923 492.854 182.517L493.144 182.227Z" fill="#F1F2F2"/>
<path d="M493.144 182.227L494.558 183.641L495.272 182.927L495.121 181.928L493.144 182.227ZM493.024 180.717L491.024 180.712L491.024 180.723L491.024 180.734L493.024 180.717ZM502.684 171.057L502.682 169.057L502.68 169.057L502.684 171.057ZM504.194 171.177L503.876 173.151L504.885 173.314L505.608 172.591L504.194 171.177ZM504.484 170.887L505.898 172.301L508.57 169.628L504.858 168.922L504.484 170.887ZM502.684 170.717L502.684 168.717H502.684V170.717ZM492.684 180.717H490.684L490.684 180.717L492.684 180.717ZM492.854 182.517L490.889 182.89L491.596 186.603L494.268 183.931L492.854 182.517ZM495.121 181.928C495.06 181.521 495.027 181.111 495.024 180.699L491.024 180.734C491.029 181.334 491.077 181.932 491.166 182.525L495.121 181.928ZM495.024 180.721C495.028 178.689 495.837 176.742 497.273 175.306L494.445 172.478C492.26 174.662 491.03 177.623 491.024 180.712L495.024 180.721ZM497.273 175.306C498.71 173.87 500.657 173.061 502.688 173.057L502.68 169.057C499.59 169.063 496.629 170.293 494.445 172.478L497.273 175.306ZM502.686 173.057C503.085 173.056 503.482 173.088 503.876 173.151L504.512 169.202C503.907 169.104 503.295 169.056 502.682 169.057L502.686 173.057ZM505.608 172.591L505.898 172.301L503.07 169.472L502.78 169.762L505.608 172.591ZM504.858 168.922C504.141 168.785 503.414 168.717 502.684 168.717L502.683 172.717C503.162 172.717 503.64 172.762 504.11 172.851L504.858 168.922ZM502.684 168.717C499.501 168.717 496.449 169.981 494.199 172.231L497.027 175.06C498.527 173.559 500.562 172.717 502.684 172.717V168.717ZM494.199 172.231C491.948 174.482 490.684 177.534 490.684 180.717H494.684C494.684 178.595 495.527 176.56 497.027 175.06L494.199 172.231ZM490.684 180.717C490.684 181.446 490.753 182.174 490.889 182.89L494.819 182.143C494.729 181.672 494.684 181.195 494.684 180.716L490.684 180.717ZM494.268 183.931L494.558 183.641L491.73 180.812L491.44 181.102L494.268 183.931Z" fill="black" mask="url(#path-66-inside-13_6_78)"/>
<path d="M502.685 186.537H502.684C501.533 186.537 500.408 186.195 499.451 185.556C498.493 184.916 497.747 184.007 497.307 182.944C496.866 181.88 496.751 180.71 496.976 179.581C497.2 178.452 497.755 177.415 498.569 176.601C499.383 175.787 500.42 175.233 501.548 175.008C502.677 174.784 503.848 174.899 504.911 175.34C505.975 175.78 506.884 176.526 507.523 177.483C508.163 178.44 508.504 179.565 508.504 180.717L508.504 180.718C508.505 181.482 508.355 182.24 508.063 182.946C507.771 183.652 507.343 184.294 506.802 184.835C506.262 185.375 505.62 185.804 504.913 186.096C504.207 186.388 503.45 186.538 502.685 186.537Z" fill="#FDC756" stroke="black" stroke-width="2"/>
</g>
<defs>
<clipPath id="clip0_6_78">
<rect width="539" height="255" fill="white"/>
</clipPath>
</defs>
</svg>
