<svg id="OBJECTS" xmlns="http://www.w3.org/2000/svg" xmlns:xlink="http://www.w3.org/1999/xlink" viewBox="0 0 248.81 367.43"><defs><style>.cls-1,.cls-4{fill:none;}.cls-2{fill:#09021c;}.cls-3{fill:#63aeef;}.cls-4{stroke:#000;stroke-linecap:round;stroke-linejoin:round;stroke-width:3px;}.cls-5{fill:#ffd401;}.cls-6{fill:#e18eba;}.cls-7{fill:#fff;}.cls-8{fill:url(#Unnamed_Pattern_4);}</style><pattern id="Unnamed_Pattern_4" data-name="Unnamed Pattern 4" width="15" height="15" patternUnits="userSpaceOnUse" viewBox="0 0 15 15"><rect class="cls-1" width="15" height="15"/><path class="cls-2" d="M15.37,15.08a.36.36,0,1,1-.36-.35A.36.36,0,0,1,15.37,15.08Z"/><circle class="cls-2" cx="0.01" cy="15.08" r="0.36"/><circle class="cls-2" cx="1.88" cy="15.08" r="0.36"/><circle class="cls-2" cx="1.88" cy="15.08" r="0.36"/><path class="cls-2" d="M4.11,15.08a.36.36,0,1,1-.35-.35A.36.36,0,0,1,4.11,15.08Z"/><path class="cls-2" d="M4.11,15.08a.36.36,0,1,1-.35-.35A.36.36,0,0,1,4.11,15.08Z"/><path class="cls-2" d="M6,15.08a.36.36,0,1,1-.36-.35A.36.36,0,0,1,6,15.08Z"/><path class="cls-2" d="M6,15.08a.36.36,0,1,1-.36-.35A.36.36,0,0,1,6,15.08Z"/><path class="cls-2" d="M7.86,15.08a.36.36,0,1,1-.71,0,.36.36,0,0,1,.71,0Z"/><circle class="cls-2" cx="7.5" cy="15.08" r="0.36"/><path class="cls-2" d="M9.73,15.08a.36.36,0,1,1-.35-.35A.36.36,0,0,1,9.73,15.08Z"/><path class="cls-2" d="M9.73,15.08a.36.36,0,1,1-.35-.35A.36.36,0,0,1,9.73,15.08Z"/><path class="cls-2" d="M11.61,15.08a.36.36,0,1,1-.36-.35A.36.36,0,0,1,11.61,15.08Z"/><path class="cls-2" d="M11.61,15.08a.36.36,0,1,1-.36-.35A.36.36,0,0,1,11.61,15.08Z"/><path class="cls-2" d="M13.48,15.08a.36.36,0,1,1-.35-.35A.36.36,0,0,1,13.48,15.08Z"/><path class="cls-2" d="M13.48,15.08a.36.36,0,1,1-.35-.35A.36.36,0,0,1,13.48,15.08Z"/><path class="cls-2" d="M15.36,15.08a.36.36,0,1,1-.36-.35A.36.36,0,0,1,15.36,15.08Z"/><path class="cls-2" d="M.36,15.08a.36.36,0,0,1-.36.36.36.36,0,0,1-.36-.36A.36.36,0,0,1,0,14.73.36.36,0,0,1,.36,15.08Z"/><path class="cls-2" d="M15.37,5.28A.36.36,0,1,1,15,4.92.36.36,0,0,1,15.37,5.28Z"/><path class="cls-2" d="M15.37,7.69A.36.36,0,1,1,15,7.33.36.36,0,0,1,15.37,7.69Z"/><path class="cls-2" d="M15.37,5.28A.36.36,0,1,1,15,4.92.36.36,0,0,1,15.37,5.28Z"/><path class="cls-2" d="M15.37.08a.36.36,0,1,1-.72,0,.36.36,0,0,1,.72,0Z"/><path class="cls-2" d="M15.37,2.89A.36.36,0,1,1,15,2.53.36.36,0,0,1,15.37,2.89Z"/><path class="cls-2" d="M15.37,15a.36.36,0,1,1-.36-.36A.36.36,0,0,1,15.37,15Z"/><path class="cls-2" d="M15.37,10.36A.36.36,0,1,1,15,10,.36.36,0,0,1,15.37,10.36Z"/><path class="cls-2" d="M15.37,12.63a.36.36,0,1,1-.36-.36A.36.36,0,0,1,15.37,12.63Z"/><path class="cls-2" d="M15.37,10.36A.36.36,0,1,1,15,10,.36.36,0,0,1,15.37,10.36Z"/><circle class="cls-2" cx="0.01" cy="5.28" r="0.36"/><circle class="cls-2" cx="1.88" cy="5.28" r="0.36"/><circle class="cls-2" cx="1.88" cy="5.28" r="0.36"/><path class="cls-2" d="M4.11,5.28a.36.36,0,0,1-.71,0,.36.36,0,1,1,.71,0Z"/><path class="cls-2" d="M4.11,5.28a.36.36,0,0,1-.71,0,.36.36,0,1,1,.71,0Z"/><path class="cls-2" d="M6,5.28a.36.36,0,1,1-.36-.36A.36.36,0,0,1,6,5.28Z"/><path class="cls-2" d="M6,5.28a.36.36,0,1,1-.36-.36A.36.36,0,0,1,6,5.28Z"/><path class="cls-2" d="M7.86,5.28a.36.36,0,1,1-.36-.36A.36.36,0,0,1,7.86,5.28Z"/><path class="cls-2" d="M.37,7.69A.36.36,0,0,1,0,8.05a.36.36,0,0,1,0-.72A.36.36,0,0,1,.37,7.69Z"/><path class="cls-2" d="M2.24,7.69a.36.36,0,1,1-.36-.36A.36.36,0,0,1,2.24,7.69Z"/><path class="cls-2" d="M2.24,7.69a.36.36,0,1,1-.36-.36A.36.36,0,0,1,2.24,7.69Z"/><path class="cls-2" d="M4.11,7.69a.36.36,0,1,1-.35-.36A.36.36,0,0,1,4.11,7.69Z"/><path class="cls-2" d="M4.11,7.69a.36.36,0,1,1-.35-.36A.36.36,0,0,1,4.11,7.69Z"/><path class="cls-2" d="M6,7.69a.36.36,0,1,1-.36-.36A.36.36,0,0,1,6,7.69Z"/><path class="cls-2" d="M6,7.69a.36.36,0,1,1-.36-.36A.36.36,0,0,1,6,7.69Z"/><path class="cls-2" d="M7.86,7.69a.36.36,0,1,1-.36-.36A.36.36,0,0,1,7.86,7.69Z"/><path class="cls-2" d="M.37,5.28A.36.36,0,0,1,0,5.63a.36.36,0,0,1-.36-.35A.36.36,0,0,1,0,4.92.36.36,0,0,1,.37,5.28Z"/><path class="cls-2" d="M2.24,5.28a.36.36,0,1,1-.36-.36A.36.36,0,0,1,2.24,5.28Z"/><path class="cls-2" d="M2.24,5.28a.36.36,0,1,1-.36-.36A.36.36,0,0,1,2.24,5.28Z"/><path class="cls-2" d="M4.11,5.28a.36.36,0,0,1-.71,0,.36.36,0,1,1,.71,0Z"/><path class="cls-2" d="M4.11,5.28a.36.36,0,0,1-.71,0,.36.36,0,1,1,.71,0Z"/><path class="cls-2" d="M6,5.28a.36.36,0,1,1-.36-.36A.36.36,0,0,1,6,5.28Z"/><path class="cls-2" d="M6,5.28a.36.36,0,1,1-.36-.36A.36.36,0,0,1,6,5.28Z"/><path class="cls-2" d="M7.86,5.28a.36.36,0,1,1-.36-.36A.36.36,0,0,1,7.86,5.28Z"/><path class="cls-2" d="M.37.08A.36.36,0,0,1,0,.44.36.36,0,0,1-.35.08.36.36,0,0,1,0-.27.36.36,0,0,1,.37.08Z"/><path class="cls-2" d="M2.24.08a.36.36,0,0,1-.72,0,.36.36,0,0,1,.72,0Z"/><path class="cls-2" d="M2.24.08a.36.36,0,0,1-.72,0,.36.36,0,0,1,.72,0Z"/><path class="cls-2" d="M4.11.08a.36.36,0,0,1-.35.36A.36.36,0,0,1,3.4.08a.36.36,0,0,1,.36-.35A.35.35,0,0,1,4.11.08Z"/><path class="cls-2" d="M4.11.08a.36.36,0,0,1-.35.36A.36.36,0,0,1,3.4.08a.36.36,0,0,1,.36-.35A.35.35,0,0,1,4.11.08Z"/><path class="cls-2" d="M6,.08a.36.36,0,0,1-.72,0A.36.36,0,0,1,6,.08Z"/><path class="cls-2" d="M6,.08a.36.36,0,0,1-.72,0A.36.36,0,0,1,6,.08Z"/><path class="cls-2" d="M7.86.08A.36.36,0,0,1,7.5.44a.36.36,0,0,1,0-.71A.36.36,0,0,1,7.86.08Z"/><circle class="cls-2" cx="0.01" cy="2.89" r="0.36"/><circle class="cls-2" cx="1.88" cy="2.89" r="0.36"/><circle class="cls-2" cx="1.88" cy="2.89" r="0.36"/><path class="cls-2" d="M4.11,2.89a.36.36,0,0,1-.71,0,.36.36,0,1,1,.71,0Z"/><path class="cls-2" d="M4.11,2.89a.36.36,0,0,1-.71,0,.36.36,0,1,1,.71,0Z"/><path class="cls-2" d="M6,2.89a.36.36,0,1,1-.36-.36A.36.36,0,0,1,6,2.89Z"/><path class="cls-2" d="M6,2.89a.36.36,0,1,1-.36-.36A.36.36,0,0,1,6,2.89Z"/><path class="cls-2" d="M7.86,2.89a.36.36,0,1,1-.36-.36A.36.36,0,0,1,7.86,2.89Z"/><circle class="cls-2" cx="7.5" cy="5.28" r="0.36"/><path class="cls-2" d="M9.73,5.28a.36.36,0,0,1-.71,0,.36.36,0,1,1,.71,0Z"/><path class="cls-2" d="M9.73,5.28a.36.36,0,0,1-.71,0,.36.36,0,1,1,.71,0Z"/><path class="cls-2" d="M11.61,5.28a.36.36,0,1,1-.36-.36A.36.36,0,0,1,11.61,5.28Z"/><path class="cls-2" d="M11.61,5.28a.36.36,0,1,1-.36-.36A.36.36,0,0,1,11.61,5.28Z"/><path class="cls-2" d="M13.48,5.28a.36.36,0,0,1-.71,0,.36.36,0,1,1,.71,0Z"/><path class="cls-2" d="M13.48,5.28a.36.36,0,0,1-.71,0,.36.36,0,1,1,.71,0Z"/><path class="cls-2" d="M15.36,5.28A.36.36,0,1,1,15,4.92.36.36,0,0,1,15.36,5.28Z"/><path class="cls-2" d="M7.86,7.69a.36.36,0,1,1-.36-.36A.36.36,0,0,1,7.86,7.69Z"/><path class="cls-2" d="M9.73,7.69a.36.36,0,1,1-.35-.36A.36.36,0,0,1,9.73,7.69Z"/><path class="cls-2" d="M9.73,7.69a.36.36,0,1,1-.35-.36A.36.36,0,0,1,9.73,7.69Z"/><path class="cls-2" d="M11.61,7.69a.36.36,0,1,1-.36-.36A.36.36,0,0,1,11.61,7.69Z"/><path class="cls-2" d="M11.61,7.69a.36.36,0,1,1-.36-.36A.36.36,0,0,1,11.61,7.69Z"/><path class="cls-2" d="M13.48,7.69a.36.36,0,1,1-.35-.36A.36.36,0,0,1,13.48,7.69Z"/><path class="cls-2" d="M13.48,7.69a.36.36,0,1,1-.35-.36A.36.36,0,0,1,13.48,7.69Z"/><path class="cls-2" d="M15.36,7.69A.36.36,0,1,1,15,7.33.36.36,0,0,1,15.36,7.69Z"/><path class="cls-2" d="M7.86,5.28a.36.36,0,1,1-.36-.36A.36.36,0,0,1,7.86,5.28Z"/><path class="cls-2" d="M9.73,5.28a.36.36,0,0,1-.71,0,.36.36,0,1,1,.71,0Z"/><path class="cls-2" d="M9.73,5.28a.36.36,0,0,1-.71,0,.36.36,0,1,1,.71,0Z"/><path class="cls-2" d="M11.61,5.28a.36.36,0,1,1-.36-.36A.36.36,0,0,1,11.61,5.28Z"/><path class="cls-2" d="M11.61,5.28a.36.36,0,1,1-.36-.36A.36.36,0,0,1,11.61,5.28Z"/><path class="cls-2" d="M13.48,5.28a.36.36,0,0,1-.71,0,.36.36,0,1,1,.71,0Z"/><path class="cls-2" d="M13.48,5.28a.36.36,0,0,1-.71,0,.36.36,0,1,1,.71,0Z"/><path class="cls-2" d="M15.36,5.28A.36.36,0,1,1,15,4.92.36.36,0,0,1,15.36,5.28Z"/><path class="cls-2" d="M.37,15a.36.36,0,0,1-.36.36.36.36,0,1,1,0-.72A.36.36,0,0,1,.37,15Z"/><path class="cls-2" d="M2.24,15a.36.36,0,1,1-.36-.36A.36.36,0,0,1,2.24,15Z"/><path class="cls-2" d="M2.24,15a.36.36,0,1,1-.36-.36A.36.36,0,0,1,2.24,15Z"/><path class="cls-2" d="M4.11,15a.36.36,0,1,1-.35-.36A.36.36,0,0,1,4.11,15Z"/><path class="cls-2" d="M4.11,15a.36.36,0,1,1-.35-.36A.36.36,0,0,1,4.11,15Z"/><path class="cls-2" d="M6,15a.36.36,0,1,1-.36-.36A.36.36,0,0,1,6,15Z"/><path class="cls-2" d="M6,15a.36.36,0,1,1-.36-.36A.36.36,0,0,1,6,15Z"/><path class="cls-2" d="M7.86,15a.36.36,0,1,1-.36-.36A.36.36,0,0,1,7.86,15Z"/><path class="cls-2" d="M.37,10.36a.36.36,0,0,1-.36.36A.36.36,0,1,1,0,10,.36.36,0,0,1,.37,10.36Z"/><path class="cls-2" d="M2.24,10.36A.36.36,0,1,1,1.88,10,.36.36,0,0,1,2.24,10.36Z"/><path class="cls-2" d="M2.24,10.36A.36.36,0,1,1,1.88,10,.36.36,0,0,1,2.24,10.36Z"/><path class="cls-2" d="M4.11,10.36A.36.36,0,1,1,3.76,10,.36.36,0,0,1,4.11,10.36Z"/><path class="cls-2" d="M4.11,10.36A.36.36,0,1,1,3.76,10,.36.36,0,0,1,4.11,10.36Z"/><path class="cls-2" d="M6,10.36A.36.36,0,1,1,5.63,10,.36.36,0,0,1,6,10.36Z"/><path class="cls-2" d="M6,10.36A.36.36,0,1,1,5.63,10,.36.36,0,0,1,6,10.36Z"/><path class="cls-2" d="M7.86,10.36A.36.36,0,1,1,7.5,10,.36.36,0,0,1,7.86,10.36Z"/><circle class="cls-2" cx="0.01" cy="12.63" r="0.36"/><circle class="cls-2" cx="1.88" cy="12.63" r="0.36"/><circle class="cls-2" cx="1.88" cy="12.63" r="0.36"/><path class="cls-2" d="M4.11,12.63a.36.36,0,1,1-.35-.36A.36.36,0,0,1,4.11,12.63Z"/><path class="cls-2" d="M4.11,12.63a.36.36,0,1,1-.35-.36A.36.36,0,0,1,4.11,12.63Z"/><path class="cls-2" d="M6,12.63a.36.36,0,1,1-.36-.36A.36.36,0,0,1,6,12.63Z"/><path class="cls-2" d="M6,12.63a.36.36,0,1,1-.36-.36A.36.36,0,0,1,6,12.63Z"/><path class="cls-2" d="M7.86,12.63a.36.36,0,1,1-.36-.36A.36.36,0,0,1,7.86,12.63Z"/><path class="cls-2" d="M.37,10.36a.36.36,0,0,1-.36.36A.36.36,0,1,1,0,10,.36.36,0,0,1,.37,10.36Z"/><path class="cls-2" d="M2.24,10.36A.36.36,0,1,1,1.88,10,.36.36,0,0,1,2.24,10.36Z"/><path class="cls-2" d="M2.24,10.36A.36.36,0,1,1,1.88,10,.36.36,0,0,1,2.24,10.36Z"/><path class="cls-2" d="M4.11,10.36A.36.36,0,1,1,3.76,10,.36.36,0,0,1,4.11,10.36Z"/><path class="cls-2" d="M4.11,10.36A.36.36,0,1,1,3.76,10,.36.36,0,0,1,4.11,10.36Z"/><path class="cls-2" d="M6,10.36A.36.36,0,1,1,5.63,10,.36.36,0,0,1,6,10.36Z"/><path class="cls-2" d="M6,10.36A.36.36,0,1,1,5.63,10,.36.36,0,0,1,6,10.36Z"/><path class="cls-2" d="M7.86,10.36A.36.36,0,1,1,7.5,10,.36.36,0,0,1,7.86,10.36Z"/><path class="cls-2" d="M7.86,15a.36.36,0,1,1-.36-.36A.36.36,0,0,1,7.86,15Z"/><path class="cls-2" d="M9.73,15a.36.36,0,1,1-.35-.36A.36.36,0,0,1,9.73,15Z"/><path class="cls-2" d="M9.73,15a.36.36,0,1,1-.35-.36A.36.36,0,0,1,9.73,15Z"/><path class="cls-2" d="M11.61,15a.36.36,0,1,1-.36-.36A.36.36,0,0,1,11.61,15Z"/><path class="cls-2" d="M11.61,15a.36.36,0,1,1-.36-.36A.36.36,0,0,1,11.61,15Z"/><path class="cls-2" d="M13.48,15a.36.36,0,1,1-.35-.36A.36.36,0,0,1,13.48,15Z"/><path class="cls-2" d="M13.48,15a.36.36,0,1,1-.35-.36A.36.36,0,0,1,13.48,15Z"/><path class="cls-2" d="M15.36,15a.36.36,0,1,1-.36-.36A.36.36,0,0,1,15.36,15Z"/><path class="cls-2" d="M7.86,10.36A.36.36,0,1,1,7.5,10,.36.36,0,0,1,7.86,10.36Z"/><path class="cls-2" d="M9.73,10.36A.36.36,0,1,1,9.38,10,.36.36,0,0,1,9.73,10.36Z"/><path class="cls-2" d="M9.73,10.36A.36.36,0,1,1,9.38,10,.36.36,0,0,1,9.73,10.36Z"/><path class="cls-2" d="M11.61,10.36a.36.36,0,1,1-.36-.36A.36.36,0,0,1,11.61,10.36Z"/><path class="cls-2" d="M11.61,10.36a.36.36,0,1,1-.36-.36A.36.36,0,0,1,11.61,10.36Z"/><path class="cls-2" d="M13.48,10.36a.36.36,0,1,1-.35-.36A.36.36,0,0,1,13.48,10.36Z"/><path class="cls-2" d="M13.48,10.36a.36.36,0,1,1-.35-.36A.36.36,0,0,1,13.48,10.36Z"/><path class="cls-2" d="M15.36,10.36A.36.36,0,1,1,15,10,.36.36,0,0,1,15.36,10.36Z"/><circle class="cls-2" cx="7.5" cy="12.63" r="0.36"/><path class="cls-2" d="M9.73,12.63a.36.36,0,1,1-.35-.36A.36.36,0,0,1,9.73,12.63Z"/><path class="cls-2" d="M9.73,12.63a.36.36,0,1,1-.35-.36A.36.36,0,0,1,9.73,12.63Z"/><path class="cls-2" d="M11.61,12.63a.36.36,0,1,1-.36-.36A.36.36,0,0,1,11.61,12.63Z"/><path class="cls-2" d="M11.61,12.63a.36.36,0,1,1-.36-.36A.36.36,0,0,1,11.61,12.63Z"/><path class="cls-2" d="M13.48,12.63a.36.36,0,1,1-.35-.36A.36.36,0,0,1,13.48,12.63Z"/><path class="cls-2" d="M13.48,12.63a.36.36,0,1,1-.35-.36A.36.36,0,0,1,13.48,12.63Z"/><path class="cls-2" d="M15.36,12.63a.36.36,0,1,1-.36-.36A.36.36,0,0,1,15.36,12.63Z"/><path class="cls-2" d="M7.86,10.36A.36.36,0,1,1,7.5,10,.36.36,0,0,1,7.86,10.36Z"/><path class="cls-2" d="M9.73,10.36A.36.36,0,1,1,9.38,10,.36.36,0,0,1,9.73,10.36Z"/><path class="cls-2" d="M9.73,10.36A.36.36,0,1,1,9.38,10,.36.36,0,0,1,9.73,10.36Z"/><path class="cls-2" d="M11.61,10.36a.36.36,0,1,1-.36-.36A.36.36,0,0,1,11.61,10.36Z"/><path class="cls-2" d="M11.61,10.36a.36.36,0,1,1-.36-.36A.36.36,0,0,1,11.61,10.36Z"/><path class="cls-2" d="M13.48,10.36a.36.36,0,1,1-.35-.36A.36.36,0,0,1,13.48,10.36Z"/><path class="cls-2" d="M13.48,10.36a.36.36,0,1,1-.35-.36A.36.36,0,0,1,13.48,10.36Z"/><path class="cls-2" d="M15.36,10.36A.36.36,0,1,1,15,10,.36.36,0,0,1,15.36,10.36Z"/><path class="cls-2" d="M7.86.08A.36.36,0,0,1,7.5.44a.36.36,0,0,1,0-.71A.36.36,0,0,1,7.86.08Z"/><path class="cls-2" d="M9.73.08a.36.36,0,0,1-.35.36A.36.36,0,0,1,9,.08a.36.36,0,0,1,.36-.35A.35.35,0,0,1,9.73.08Z"/><path class="cls-2" d="M9.73.08a.36.36,0,0,1-.35.36A.36.36,0,0,1,9,.08a.36.36,0,0,1,.36-.35A.35.35,0,0,1,9.73.08Z"/><path class="cls-2" d="M11.61.08a.36.36,0,1,1-.72,0,.36.36,0,0,1,.72,0Z"/><path class="cls-2" d="M11.61.08a.36.36,0,1,1-.72,0,.36.36,0,0,1,.72,0Z"/><path class="cls-2" d="M13.48.08a.36.36,0,0,1-.35.36.36.36,0,0,1-.36-.36.36.36,0,0,1,.36-.35A.35.35,0,0,1,13.48.08Z"/><path class="cls-2" d="M13.48.08a.36.36,0,0,1-.35.36.36.36,0,0,1-.36-.36.36.36,0,0,1,.36-.35A.35.35,0,0,1,13.48.08Z"/><path class="cls-2" d="M15.36.08a.36.36,0,1,1-.72,0,.36.36,0,0,1,.72,0Z"/><circle class="cls-2" cx="7.5" cy="2.89" r="0.36"/><path class="cls-2" d="M9.73,2.89a.36.36,0,0,1-.71,0,.36.36,0,1,1,.71,0Z"/><path class="cls-2" d="M9.73,2.89a.36.36,0,0,1-.71,0,.36.36,0,1,1,.71,0Z"/><path class="cls-2" d="M11.61,2.89a.36.36,0,1,1-.36-.36A.36.36,0,0,1,11.61,2.89Z"/><path class="cls-2" d="M11.61,2.89a.36.36,0,1,1-.36-.36A.36.36,0,0,1,11.61,2.89Z"/><path class="cls-2" d="M13.48,2.89a.36.36,0,0,1-.71,0,.36.36,0,1,1,.71,0Z"/><path class="cls-2" d="M13.48,2.89a.36.36,0,0,1-.71,0,.36.36,0,1,1,.71,0Z"/><path class="cls-2" d="M15.36,2.89A.36.36,0,1,1,15,2.53.36.36,0,0,1,15.36,2.89Z"/><path class="cls-2" d="M.36,5.28A.36.36,0,0,1,0,5.63a.36.36,0,0,1-.36-.35A.36.36,0,0,1,0,4.92.36.36,0,0,1,.36,5.28Z"/><path class="cls-2" d="M.36,7.69A.36.36,0,0,1,0,8.05a.36.36,0,0,1-.36-.36A.36.36,0,0,1,0,7.33.36.36,0,0,1,.36,7.69Z"/><path class="cls-2" d="M.36,5.28A.36.36,0,0,1,0,5.63a.36.36,0,0,1-.36-.35A.36.36,0,0,1,0,4.92.36.36,0,0,1,.36,5.28Z"/><path class="cls-2" d="M.36,15a.36.36,0,0,1-.36.36A.36.36,0,0,1-.36,15,.36.36,0,0,1,0,14.66.36.36,0,0,1,.36,15Z"/><path class="cls-2" d="M.36,10.36a.36.36,0,0,1-.36.36.36.36,0,0,1-.36-.36A.36.36,0,0,1,0,10,.36.36,0,0,1,.36,10.36Z"/><path class="cls-2" d="M.36,12.63A.36.36,0,0,1,0,13a.36.36,0,0,1-.36-.36A.36.36,0,0,1,0,12.27.36.36,0,0,1,.36,12.63Z"/><path class="cls-2" d="M.36,10.36a.36.36,0,0,1-.36.36.36.36,0,0,1-.36-.36A.36.36,0,0,1,0,10,.36.36,0,0,1,.36,10.36Z"/><path class="cls-2" d="M.36.08A.36.36,0,0,1,0,.44.36.36,0,0,1-.36.08.36.36,0,0,1,0-.27.36.36,0,0,1,.36.08Z"/><path class="cls-2" d="M.36,2.89A.36.36,0,0,1,0,3.24a.36.36,0,0,1-.36-.35A.36.36,0,0,1,0,2.53.36.36,0,0,1,.36,2.89Z"/><path class="cls-2" d="M15.37,0a.36.36,0,0,1-.72,0,.36.36,0,1,1,.72,0Z"/><path class="cls-2" d="M.37,0A.36.36,0,0,1,0,.38.36.36,0,0,1-.35,0,.36.36,0,0,1,0-.34.36.36,0,0,1,.37,0Z"/><path class="cls-2" d="M2.24,0a.36.36,0,0,1-.72,0,.36.36,0,1,1,.72,0Z"/><path class="cls-2" d="M2.24,0a.36.36,0,0,1-.72,0,.36.36,0,1,1,.72,0Z"/><path class="cls-2" d="M4.11,0a.36.36,0,0,1-.35.36A.36.36,0,0,1,3.4,0a.36.36,0,0,1,.36-.36A.36.36,0,0,1,4.11,0Z"/><path class="cls-2" d="M4.11,0a.36.36,0,0,1-.35.36A.36.36,0,0,1,3.4,0a.36.36,0,0,1,.36-.36A.36.36,0,0,1,4.11,0Z"/><path class="cls-2" d="M6,0a.36.36,0,0,1-.72,0A.36.36,0,0,1,6,0Z"/><path class="cls-2" d="M6,0a.36.36,0,0,1-.72,0A.36.36,0,0,1,6,0Z"/><path class="cls-2" d="M7.86,0A.36.36,0,0,1,7.5.38.36.36,0,0,1,7.15,0,.36.36,0,0,1,7.5-.34.36.36,0,0,1,7.86,0Z"/><path class="cls-2" d="M7.86,0A.36.36,0,0,1,7.5.38.36.36,0,0,1,7.15,0,.36.36,0,0,1,7.5-.34.36.36,0,0,1,7.86,0Z"/><path class="cls-2" d="M9.73,0a.36.36,0,0,1-.35.36A.36.36,0,0,1,9,0a.36.36,0,0,1,.36-.36A.36.36,0,0,1,9.73,0Z"/><path class="cls-2" d="M9.73,0a.36.36,0,0,1-.35.36A.36.36,0,0,1,9,0a.36.36,0,0,1,.36-.36A.36.36,0,0,1,9.73,0Z"/><path class="cls-2" d="M11.61,0a.36.36,0,0,1-.72,0,.36.36,0,1,1,.72,0Z"/><path class="cls-2" d="M11.61,0a.36.36,0,0,1-.72,0,.36.36,0,1,1,.72,0Z"/><path class="cls-2" d="M13.48,0a.36.36,0,0,1-.35.36A.36.36,0,0,1,12.77,0a.36.36,0,0,1,.36-.36A.36.36,0,0,1,13.48,0Z"/><path class="cls-2" d="M13.48,0a.36.36,0,0,1-.35.36A.36.36,0,0,1,12.77,0a.36.36,0,0,1,.36-.36A.36.36,0,0,1,13.48,0Z"/><path class="cls-2" d="M15.36,0a.36.36,0,0,1-.72,0,.36.36,0,1,1,.72,0Z"/><path class="cls-2" d="M.36,0A.36.36,0,0,1,0,.38.36.36,0,0,1-.36,0,.36.36,0,0,1,0-.34.36.36,0,0,1,.36,0Z"/></pattern></defs><path class="cls-3" d="M371.35,159.3H148.87a13.19,13.19,0,0,0-13.17,13.17V509.56a13.19,13.19,0,0,0,13.17,13.17H371.35a13.19,13.19,0,0,0,13.17-13.17V172.47A13.19,13.19,0,0,0,371.35,159.3ZM352.18,342.09H168V203H352.18Z" transform="translate(-135.7 -157.3)"/><path class="cls-3" d="M365.54,158.3H154.68a14.17,14.17,0,0,0-14.17,14.17V509.56a14.17,14.17,0,0,0,14.17,14.17H365.54a14.18,14.18,0,0,0,14.17-14.17V172.47A14.18,14.18,0,0,0,365.54,158.3ZM352.65,342.09H168.5V203H352.65Z" transform="translate(-135.7 -157.3)"/><path d="M365.54,524.73H154.68a15.19,15.19,0,0,1-15.17-15.17V172.47a15.19,15.19,0,0,1,15.17-15.17H365.54a15.19,15.19,0,0,1,15.17,15.17V509.56A15.19,15.19,0,0,1,365.54,524.73ZM154.68,159.3a13.19,13.19,0,0,0-13.17,13.17V509.56a13.19,13.19,0,0,0,13.17,13.17H365.54a13.19,13.19,0,0,0,13.17-13.17V172.47a13.19,13.19,0,0,0-13.17-13.17Z" transform="translate(-135.7 -157.3)"/><path d="M350.92,170.55H169.08a12.26,12.26,0,0,1-12.25-12.25v-1H363.17v1A12.26,12.26,0,0,1,350.92,170.55Zm-192-11.25a10.26,10.26,0,0,0,10.2,9.25H350.92a10.26,10.26,0,0,0,10.2-9.25Z" transform="translate(-135.7 -157.3)"/><path d="M299.84,170.55H220.16a12.25,12.25,0,0,1-12.24-12.25v-1H312.08v1A12.25,12.25,0,0,1,299.84,170.55ZM210,159.3a10.27,10.27,0,0,0,10.2,9.25h79.68A10.27,10.27,0,0,0,310,159.3Z" transform="translate(-135.7 -157.3)"/><line class="cls-4" x1="116.35" y1="6.62" x2="132.25" y2="6.62"/><path d="M333.77,524.73H186.23v-1a12.27,12.27,0,0,1,12.25-12.25h123a12.27,12.27,0,0,1,12.25,12.25Zm-145.49-2H331.72a10.27,10.27,0,0,0-10.2-9.25h-123A10.27,10.27,0,0,0,188.28,522.73Z" transform="translate(-135.7 -157.3)"/><path d="M321.52,368.14h-123a12.26,12.26,0,0,1-12.25-12.24v-1H333.77v1A12.26,12.26,0,0,1,321.52,368.14ZM188.28,356.9a10.27,10.27,0,0,0,10.2,9.24h123a10.27,10.27,0,0,0,10.2-9.24Z" transform="translate(-135.7 -157.3)"/><path class="cls-5" d="M150,189.15V355.9h220.1V189.15ZM352.18,342.09H168V203H352.18Z" transform="translate(-135.7 -157.3)"/><path d="M371.05,356.9H149V188.15h222.1Zm-220.1-2h218.1V190.15H151Z" transform="translate(-135.7 -157.3)"/><path d="M370.05,356.9H150a1,1,0,0,1-1-1V189.15a1,1,0,0,1,1-1h220.1a1,1,0,0,1,1,1V355.9A1,1,0,0,1,370.05,356.9Zm-219.1-2h218.1V190.15H151Z" transform="translate(-135.7 -157.3)"/><path d="M354.07,344.09H165.93V201H354.07Zm-186.14-2H352.07V203H167.93Z" transform="translate(-135.7 -157.3)"/><path class="cls-6" d="M260.57,481.23h0a8.66,8.66,0,0,1-8.66-8.66h0a8.67,8.67,0,0,1,8.66-8.67h0a8.67,8.67,0,0,1,8.67,8.67h0A8.67,8.67,0,0,1,260.57,481.23Z" transform="translate(-135.7 -157.3)"/><path d="M260.57,482.23a9.67,9.67,0,1,1,9.67-9.66A9.67,9.67,0,0,1,260.57,482.23Zm0-17.33a7.67,7.67,0,1,0,7.67,7.67A7.68,7.68,0,0,0,260.57,464.9Z" transform="translate(-135.7 -157.3)"/><circle class="cls-6" cx="193.48" cy="412.11" r="28.04" transform="translate(-387.76 348.43) rotate(-76.72)"/><path d="M193.48,441.14a29,29,0,1,1,29-29A29.07,29.07,0,0,1,193.48,441.14Zm0-56.07a27,27,0,1,0,27,27A27.07,27.07,0,0,0,193.48,385.07Z" transform="translate(-135.7 -157.3)"/><rect x="49.85" y="219.58" width="21.63" height="72.15" rx="6.51"/><path d="M200.67,450h-8.61a7.52,7.52,0,0,1-7.51-7.51V383.39a7.52,7.52,0,0,1,7.51-7.51h8.61a7.52,7.52,0,0,1,7.51,7.51v59.14A7.52,7.52,0,0,1,200.67,450Zm-8.61-72.16a5.52,5.52,0,0,0-5.51,5.51v59.14a5.51,5.51,0,0,0,5.51,5.51h8.61a5.51,5.51,0,0,0,5.51-5.51V383.39a5.52,5.52,0,0,0-5.51-5.51Z" transform="translate(-135.7 -157.3)"/><rect x="185.55" y="376.88" width="21.63" height="72.15" rx="6.51" transform="translate(473.62 59.29) rotate(90)"/><path d="M225.93,424.77H166.8a7.52,7.52,0,0,1-7.51-7.51v-8.6a7.52,7.52,0,0,1,7.51-7.51h59.13a7.52,7.52,0,0,1,7.51,7.51v8.6A7.52,7.52,0,0,1,225.93,424.77ZM166.8,403.15a5.51,5.51,0,0,0-5.51,5.51v8.6a5.51,5.51,0,0,0,5.51,5.51h59.13a5.51,5.51,0,0,0,5.51-5.51v-8.6a5.51,5.51,0,0,0-5.51-5.51Z" transform="translate(-135.7 -157.3)"/><path class="cls-7" d="M222.16,400.44H203.41V381.69a6.51,6.51,0,0,0-6.51-6.51h-8.61a6.51,6.51,0,0,0-6.51,6.51v18.75H163a6.51,6.51,0,0,0-6.51,6.51v8.61a6.51,6.51,0,0,0,6.51,6.51h18.75v18.75a6.51,6.51,0,0,0,6.51,6.51h8.61a6.51,6.51,0,0,0,6.51-6.51V422.07h18.75a6.51,6.51,0,0,0,6.51-6.51V407A6.51,6.51,0,0,0,222.16,400.44Z" transform="translate(-135.7 -157.3)"/><path d="M196.9,448.33h-8.61a7.52,7.52,0,0,1-7.51-7.51V423.07H163a7.52,7.52,0,0,1-7.51-7.51V407a7.52,7.52,0,0,1,7.51-7.51h17.75V381.69a7.52,7.52,0,0,1,7.51-7.51h8.61a7.52,7.52,0,0,1,7.51,7.51v17.75h17.75a7.52,7.52,0,0,1,7.51,7.51v8.61a7.52,7.52,0,0,1-7.51,7.51H204.41v17.75A7.52,7.52,0,0,1,196.9,448.33ZM163,401.44a5.51,5.51,0,0,0-5.51,5.51v8.61a5.51,5.51,0,0,0,5.51,5.51h19.75v19.75a5.51,5.51,0,0,0,5.51,5.51h8.61a5.51,5.51,0,0,0,5.51-5.51V421.07h19.75a5.51,5.51,0,0,0,5.51-5.51V407a5.51,5.51,0,0,0-5.51-5.51H202.41V381.69a5.51,5.51,0,0,0-5.51-5.51h-8.61a5.51,5.51,0,0,0-5.51,5.51v19.75Z" transform="translate(-135.7 -157.3)"/><polyline class="cls-7" points="52.73 228.87 56.92 224.67 61.06 228.81"/><polygon points="53.43 229.57 52.02 228.16 56.92 223.26 61.77 228.11 60.36 229.52 56.92 226.09 53.43 229.57"/><polyline class="cls-7" points="61.06 278.02 56.87 282.22 52.73 278.07"/><polygon points="56.87 283.63 52.02 278.78 53.43 277.37 56.87 280.8 60.36 277.32 61.77 278.73 56.87 283.63"/><polyline class="cls-7" points="81.47 249.28 85.67 253.47 81.53 257.61"/><polygon points="82.23 258.32 80.82 256.91 84.25 253.47 80.77 249.98 82.18 248.57 87.08 253.47 82.23 258.32"/><polyline class="cls-7" points="32.31 257.61 28.12 253.42 32.27 249.28"/><polygon points="31.61 258.32 26.71 253.42 31.56 248.57 32.97 249.98 29.54 253.42 33.02 256.91 31.61 258.32"/><circle class="cls-7" cx="56.79" cy="254.26" r="7.18"/><path d="M192.5,419.73a8.18,8.18,0,1,1,8.17-8.17A8.18,8.18,0,0,1,192.5,419.73Zm0-14.35a6.18,6.18,0,1,0,6.17,6.18A6.18,6.18,0,0,0,192.5,405.38Z" transform="translate(-135.7 -157.3)"/><circle cx="163.69" cy="261.45" r="11.42"/><path d="M299.39,431.18a12.42,12.42,0,1,1,12.42-12.42A12.44,12.44,0,0,1,299.39,431.18Zm0-22.84a10.42,10.42,0,1,0,10.42,10.42A10.43,10.43,0,0,0,299.39,408.34Z" transform="translate(-135.7 -157.3)"/><circle class="cls-6" cx="298.57" cy="415.35" r="11.42" transform="translate(-271.92 -11.43) rotate(-22.5)"/><path d="M298.57,427.77A12.42,12.42,0,1,1,311,415.35,12.43,12.43,0,0,1,298.57,427.77Zm0-22.83A10.42,10.42,0,1,0,309,415.35,10.43,10.43,0,0,0,298.57,404.94Z" transform="translate(-135.7 -157.3)"/><path class="cls-7" d="M306,412.7a1,1,0,0,1-.84-.45c-1.44-2.19-3.14-3.48-5.05-3.82a7.47,7.47,0,0,0-5.21,1.21,1,1,0,0,1-1.4-.22,1,1,0,0,1,.22-1.39,9.5,9.5,0,0,1,6.75-1.57c2.46.45,4.6,2,6.36,4.68a1,1,0,0,1-.28,1.39A1,1,0,0,1,306,412.7Z" transform="translate(-135.7 -157.3)"/><circle cx="189.81" cy="236.93" r="11.42"/><path d="M325.51,406.65a12.42,12.42,0,1,1,12.42-12.42A12.43,12.43,0,0,1,325.51,406.65Zm0-22.84a10.42,10.42,0,1,0,10.42,10.42A10.44,10.44,0,0,0,325.51,383.81Z" transform="translate(-135.7 -157.3)"/><circle class="cls-5" cx="188.99" cy="233.52" r="11.42"/><path d="M324.69,403.25a12.42,12.42,0,1,1,12.42-12.42A12.44,12.44,0,0,1,324.69,403.25Zm0-22.84a10.42,10.42,0,1,0,10.42,10.42A10.43,10.43,0,0,0,324.69,380.41Z" transform="translate(-135.7 -157.3)"/><path class="cls-7" d="M332,388.17a1,1,0,0,1-.83-.45c-1.45-2.19-3.15-3.47-5.06-3.81a7.49,7.49,0,0,0-5.21,1.2,1,1,0,1,1-1.18-1.61,9.52,9.52,0,0,1,6.75-1.56c2.46.44,4.6,2,6.36,4.68a1,1,0,0,1-.28,1.38A.94.94,0,0,1,332,388.17Z" transform="translate(-135.7 -157.3)"/><circle cx="214.29" cy="261.45" r="11.42"/><path d="M350,431.18a12.42,12.42,0,1,1,12.42-12.42A12.43,12.43,0,0,1,350,431.18Zm0-22.84a10.42,10.42,0,1,0,10.42,10.42A10.43,10.43,0,0,0,350,408.34Z" transform="translate(-135.7 -157.3)"/><circle class="cls-6" cx="349.17" cy="415.35" r="11.42" transform="translate(-268.07 7.93) rotate(-22.5)"/><path d="M349.17,427.77a12.42,12.42,0,1,1,12.42-12.42A12.43,12.43,0,0,1,349.17,427.77Zm0-22.83a10.42,10.42,0,1,0,10.42,10.41A10.42,10.42,0,0,0,349.17,404.94Z" transform="translate(-135.7 -157.3)"/><path class="cls-7" d="M356.88,412.7a1,1,0,0,1-.84-.45c-1.45-2.19-3.15-3.48-5.05-3.82a7.5,7.5,0,0,0-5.22,1.21,1,1,0,0,1-1.18-1.61,9.52,9.52,0,0,1,6.75-1.57,9.85,9.85,0,0,1,6.37,4.68,1,1,0,0,1-.28,1.39A1,1,0,0,1,356.88,412.7Z" transform="translate(-135.7 -157.3)"/><circle cx="188.55" cy="285.91" r="11.42"/><path d="M324.25,455.63a12.42,12.42,0,1,1,12.42-12.42A12.44,12.44,0,0,1,324.25,455.63Zm0-22.84a10.42,10.42,0,1,0,10.42,10.42A10.44,10.44,0,0,0,324.25,432.79Z" transform="translate(-135.7 -157.3)"/><circle class="cls-5" cx="187.73" cy="282.51" r="11.42"/><path d="M323.43,452.23a12.42,12.42,0,1,1,12.42-12.42A12.43,12.43,0,0,1,323.43,452.23Zm0-22.84a10.42,10.42,0,1,0,10.42,10.42A10.43,10.43,0,0,0,323.43,429.39Z" transform="translate(-135.7 -157.3)"/><path class="cls-7" d="M330.1,437.15a1,1,0,0,1-.83-.45,8,8,0,0,0-5-3.81A7.58,7.58,0,0,0,319,434.1a1,1,0,1,1-1.18-1.62,9.52,9.52,0,0,1,6.75-1.56c2.46.44,4.6,2,6.36,4.68a1,1,0,0,1-.83,1.55Z" transform="translate(-135.7 -157.3)"/><path d="M244.12,473.52h0a3.55,3.55,0,0,0-3.55-3.55H224.18a3.54,3.54,0,0,0-3.55,3.55h0a3.55,3.55,0,0,0,3.55,3.55h16.39A3.55,3.55,0,0,0,244.12,473.52Z" transform="translate(-135.7 -157.3)"/><path d="M224.18,478.08a4.55,4.55,0,0,1-3.22-7.77,4.51,4.51,0,0,1,3.21-1.33h16.4a4.55,4.55,0,1,1,0,9.1ZM240.57,471H224.18a2.5,2.5,0,0,0-1.81.75,2.53,2.53,0,0,0-.75,1.8,2.56,2.56,0,0,0,2.56,2.55h16.39a2.55,2.55,0,1,0,0-5.1Z" transform="translate(-135.7 -157.3)"/><path class="cls-5" d="M243.75,472.12h0a3.55,3.55,0,0,0-3.56-3.55H223.8a3.55,3.55,0,0,0-3.55,3.55h0a3.55,3.55,0,0,0,3.56,3.55H240.2A3.55,3.55,0,0,0,243.75,472.12Z" transform="translate(-135.7 -157.3)"/><path d="M223.8,476.68a4.55,4.55,0,1,1,0-9.1h16.4a4.55,4.55,0,1,1,0,9.1H223.8Zm16.4-7.11H223.8a2.55,2.55,0,1,0,0,5.1h16.4a2.55,2.55,0,1,0,0-5.1Z" transform="translate(-135.7 -157.3)"/><path class="cls-5" d="M224.32,470.26a2,2,0,0,0-2,2.31" transform="translate(-135.7 -157.3)"/><path class="cls-7" d="M222.35,473.57a1,1,0,0,1-1-1,3,3,0,0,1,3-3.35,1,1,0,0,1,0,2,1.14,1.14,0,0,0-.73.3,1.34,1.34,0,0,0-.25,1,1,1,0,0,1-1,1Z" transform="translate(-135.7 -157.3)"/><path d="M298.41,473.52h0a3.57,3.57,0,0,0-3.56-3.55H278.46a3.55,3.55,0,0,0-3.55,3.55h0a3.55,3.55,0,0,0,3.55,3.55h16.4A3.55,3.55,0,0,0,298.41,473.52Z" transform="translate(-135.7 -157.3)"/><path d="M278.46,478.08a4.55,4.55,0,1,1,0-9.1h16.39a4.55,4.55,0,1,1,0,9.1ZM294.85,471H278.46a2.56,2.56,0,0,0-2.55,2.55,2.55,2.55,0,0,0,2.55,2.55h16.39a2.55,2.55,0,1,0,0-5.1Z" transform="translate(-135.7 -157.3)"/><path class="cls-5" d="M298,472.12h0a3.55,3.55,0,0,0-3.55-3.55H278.09a3.54,3.54,0,0,0-3.55,3.55h0a3.55,3.55,0,0,0,3.55,3.55h16.39A3.55,3.55,0,0,0,298,472.12Z" transform="translate(-135.7 -157.3)"/><path d="M278.09,476.68a4.55,4.55,0,0,1,0-9.1h16.4a4.55,4.55,0,0,1,4.55,4.55h0a4.54,4.54,0,0,1-4.55,4.55Zm16.39-7.11H278.09a2.55,2.55,0,1,0,0,5.1h16.39a2.54,2.54,0,0,0,2.55-2.55h0A2.55,2.55,0,0,0,294.48,469.57Z" transform="translate(-135.7 -157.3)"/><path class="cls-5" d="M278.6,470.26a2,2,0,0,0-2,2.31" transform="translate(-135.7 -157.3)"/><path class="cls-7" d="M276.63,473.57a1,1,0,0,1-1-1,3,3,0,0,1,3-3.35,1,1,0,0,1,0,2,1.12,1.12,0,0,0-.72.3,1.34,1.34,0,0,0-.26,1,1,1,0,0,1-1,1Z" transform="translate(-135.7 -157.3)"/><rect class="cls-6" x="114.96" y="305.39" width="17.33" height="17.33" rx="8.66"/><path d="M259.33,481a9.67,9.67,0,1,1,9.66-9.66A9.68,9.68,0,0,1,259.33,481Zm0-17.33a7.67,7.67,0,1,0,7.66,7.67A7.68,7.68,0,0,0,259.33,463.69Z" transform="translate(-135.7 -157.3)"/><path class="cls-7" d="M253.52,472.78h-.14a1,1,0,0,1-.85-1.13,8.35,8.35,0,0,1,3.15-5.18,8.57,8.57,0,0,1,6.8-1.13,1,1,0,0,1-.38,2,6.63,6.63,0,0,0-5.24.78,6.43,6.43,0,0,0-2.35,3.85A1,1,0,0,1,253.52,472.78Z" transform="translate(-135.7 -157.3)"/><line class="cls-7" x1="100.57" y1="333.17" x2="100.94" y2="349.66"/><path d="M236.64,508.46a1.5,1.5,0,0,1-1.5-1.46l-.37-16.49a1.5,1.5,0,0,1,3-.07l.37,16.49a1.49,1.49,0,0,1-1.46,1.53Z" transform="translate(-135.7 -157.3)"/><line class="cls-7" x1="111.83" y1="333.17" x2="112.2" y2="349.66"/><path d="M247.9,508.46a1.5,1.5,0,0,1-1.5-1.46L246,490.51a1.5,1.5,0,0,1,3-.07l.37,16.49a1.49,1.49,0,0,1-1.46,1.53Z" transform="translate(-135.7 -157.3)"/><line class="cls-7" x1="122.81" y1="333.95" x2="122.9" y2="349.66"/><path d="M258.6,508.46a1.49,1.49,0,0,1-1.5-1.49L257,491.26a1.49,1.49,0,0,1,1.49-1.5h0a1.5,1.5,0,0,1,1.5,1.49l.08,15.7a1.5,1.5,0,0,1-1.49,1.51Z" transform="translate(-135.7 -157.3)"/><line class="cls-7" x1="132.76" y1="333.17" x2="133.13" y2="349.66"/><path d="M268.83,508.46a1.5,1.5,0,0,1-1.5-1.46L267,490.51a1.5,1.5,0,0,1,3-.07l.37,16.49a1.49,1.49,0,0,1-1.46,1.53Z" transform="translate(-135.7 -157.3)"/><line class="cls-7" x1="145.32" y1="333.17" x2="145.7" y2="349.66"/><path d="M281.4,508.46a1.5,1.5,0,0,1-1.5-1.46l-.37-16.49a1.5,1.5,0,0,1,3-.07l.37,16.49a1.5,1.5,0,0,1-1.46,1.53Z" transform="translate(-135.7 -157.3)"/><path d="M155.78,502.15a1.83,1.83,0,1,1,1.83-1.83A1.84,1.84,0,0,1,155.78,502.15Zm0-2.66a.83.83,0,1,0,.83.83A.84.84,0,0,0,155.78,499.49Z" transform="translate(-135.7 -157.3)"/><path d="M171,502.15a1.83,1.83,0,1,1,1.84-1.83A1.84,1.84,0,0,1,171,502.15Zm0-2.66a.83.83,0,1,0,.84.83A.83.83,0,0,0,171,499.49Z" transform="translate(-135.7 -157.3)"/><path d="M177.75,502.15a1.83,1.83,0,1,1,1.84-1.83A1.83,1.83,0,0,1,177.75,502.15Zm0-2.66a.83.83,0,0,0,0,1.66.83.83,0,1,0,0-1.66Z" transform="translate(-135.7 -157.3)"/><path d="M163.23,502.15a1.83,1.83,0,1,1,1.84-1.83A1.83,1.83,0,0,1,163.23,502.15Zm0-2.66a.83.83,0,1,0,.84.83A.83.83,0,0,0,163.23,499.49Z" transform="translate(-135.7 -157.3)"/><path d="M155.78,508.26a1.83,1.83,0,1,1,1.83-1.83A1.84,1.84,0,0,1,155.78,508.26Zm0-2.66a.83.83,0,1,0,.83.83A.84.84,0,0,0,155.78,505.6Z" transform="translate(-135.7 -157.3)"/><path d="M171,508.26a1.83,1.83,0,1,1,1.84-1.83A1.84,1.84,0,0,1,171,508.26Zm0-2.66a.83.83,0,1,0,.84.83A.83.83,0,0,0,171,505.6Z" transform="translate(-135.7 -157.3)"/><path d="M177.75,508.26a1.83,1.83,0,1,1,1.84-1.83A1.83,1.83,0,0,1,177.75,508.26Zm0-2.66a.83.83,0,0,0,0,1.66.83.83,0,1,0,0-1.66Z" transform="translate(-135.7 -157.3)"/><path d="M163.23,508.26a1.83,1.83,0,1,1,1.84-1.83A1.83,1.83,0,0,1,163.23,508.26Zm0-2.66a.83.83,0,1,0,.84.83A.83.83,0,0,0,163.23,505.6Z" transform="translate(-135.7 -157.3)"/><path d="M155.78,515.44a1.84,1.84,0,1,1,1.83-1.84A1.85,1.85,0,0,1,155.78,515.44Zm0-2.67a.84.84,0,0,0-.84.83.84.84,0,1,0,1.67,0A.83.83,0,0,0,155.78,512.77Z" transform="translate(-135.7 -157.3)"/><path d="M171,515.44a1.84,1.84,0,1,1,1.84-1.84A1.85,1.85,0,0,1,171,515.44Zm0-2.67a.83.83,0,0,0-.83.83.84.84,0,1,0,.83-.83Z" transform="translate(-135.7 -157.3)"/><path d="M177.75,515.44a1.84,1.84,0,1,1,1.84-1.84A1.84,1.84,0,0,1,177.75,515.44Zm0-2.67a.83.83,0,0,0-.83.83.84.84,0,0,0,.83.84.85.85,0,0,0,.84-.84A.84.84,0,0,0,177.75,512.77Z" transform="translate(-135.7 -157.3)"/><path d="M163.23,515.44a1.84,1.84,0,1,1,1.84-1.84A1.84,1.84,0,0,1,163.23,515.44Zm0-2.67a.83.83,0,0,0-.83.83.84.84,0,1,0,.83-.83Z" transform="translate(-135.7 -157.3)"/><path d="M343.89,502.15a1.83,1.83,0,1,1,1.83-1.83A1.83,1.83,0,0,1,343.89,502.15Zm0-2.66a.83.83,0,1,0,.83.83A.83.83,0,0,0,343.89,499.49Z" transform="translate(-135.7 -157.3)"/><path d="M359.08,502.15a1.83,1.83,0,1,1,1.83-1.83A1.83,1.83,0,0,1,359.08,502.15Zm0-2.66a.83.83,0,1,0,.83.83A.83.83,0,0,0,359.08,499.49Z" transform="translate(-135.7 -157.3)"/><path d="M365.87,502.15a1.83,1.83,0,1,1,1.83-1.83A1.84,1.84,0,0,1,365.87,502.15Zm0-2.66a.83.83,0,1,0,0,1.66.83.83,0,0,0,0-1.66Z" transform="translate(-135.7 -157.3)"/><path d="M351.35,502.15a1.83,1.83,0,1,1,1.83-1.83A1.84,1.84,0,0,1,351.35,502.15Zm0-2.66a.83.83,0,1,0,0,1.66.83.83,0,0,0,0-1.66Z" transform="translate(-135.7 -157.3)"/><path d="M343.89,508.26a1.83,1.83,0,1,1,1.83-1.83A1.83,1.83,0,0,1,343.89,508.26Zm0-2.66a.83.83,0,1,0,.83.83A.83.83,0,0,0,343.89,505.6Z" transform="translate(-135.7 -157.3)"/><path d="M359.08,508.26a1.83,1.83,0,1,1,1.83-1.83A1.83,1.83,0,0,1,359.08,508.26Zm0-2.66a.83.83,0,1,0,.83.83A.83.83,0,0,0,359.08,505.6Z" transform="translate(-135.7 -157.3)"/><path d="M365.87,508.26a1.83,1.83,0,1,1,1.83-1.83A1.84,1.84,0,0,1,365.87,508.26Zm0-2.66a.83.83,0,1,0,0,1.66.83.83,0,0,0,0-1.66Z" transform="translate(-135.7 -157.3)"/><path d="M351.35,508.26a1.83,1.83,0,1,1,1.83-1.83A1.84,1.84,0,0,1,351.35,508.26Zm0-2.66a.83.83,0,1,0,0,1.66.83.83,0,0,0,0-1.66Z" transform="translate(-135.7 -157.3)"/><path d="M343.89,515.44a1.84,1.84,0,1,1,1.83-1.84A1.84,1.84,0,0,1,343.89,515.44Zm0-2.67a.83.83,0,0,0-.83.83.83.83,0,1,0,1.66,0A.83.83,0,0,0,343.89,512.77Z" transform="translate(-135.7 -157.3)"/><path d="M359.08,515.44a1.84,1.84,0,1,1,1.83-1.84A1.84,1.84,0,0,1,359.08,515.44Zm0-2.67a.83.83,0,0,0-.83.83.83.83,0,1,0,1.66,0A.83.83,0,0,0,359.08,512.77Z" transform="translate(-135.7 -157.3)"/><path d="M365.87,515.44a1.84,1.84,0,1,1,1.83-1.84A1.85,1.85,0,0,1,365.87,515.44Zm0-2.67a.84.84,0,0,0-.84.83.85.85,0,0,0,.84.84.84.84,0,0,0,.83-.84A.83.83,0,0,0,365.87,512.77Z" transform="translate(-135.7 -157.3)"/><path d="M351.35,515.44a1.84,1.84,0,1,1,1.83-1.84A1.85,1.85,0,0,1,351.35,515.44Zm0-2.67a.84.84,0,0,0-.84.83.85.85,0,0,0,.84.84.84.84,0,0,0,.83-.84A.83.83,0,0,0,351.35,512.77Z" transform="translate(-135.7 -157.3)"/><line class="cls-3" x1="16.22" y1="33.84" x2="28.47" y2="42.53"/><path d="M164.17,200.83a1,1,0,0,1-.58-.18L151.34,192a1,1,0,0,1-.24-1.39,1,1,0,0,1,1.4-.24L164.75,199a1,1,0,0,1-.58,1.82Z" transform="translate(-135.7 -157.3)"/><line class="cls-3" x1="232.59" y1="33.84" x2="220.34" y2="42.53"/><path d="M356,200.83a1,1,0,0,1-.82-.42,1,1,0,0,1,.24-1.4l12.26-8.68a1,1,0,1,1,1.15,1.63l-12.25,8.69A1,1,0,0,1,356,200.83Z" transform="translate(-135.7 -157.3)"/><path class="cls-8" d="M150.52,189.15V355.9H370.63V189.15ZM352.65,342.09H168.5V203H352.65Z" transform="translate(-135.7 -157.3)"/><line class="cls-3" x1="232.59" y1="195.62" x2="220.34" y2="186.94"/><path d="M368.29,353.92a1,1,0,0,1-.57-.18l-12.26-8.68a1,1,0,1,1,1.16-1.63l12.25,8.68a1,1,0,0,1,.24,1.39A1,1,0,0,1,368.29,353.92Z" transform="translate(-135.7 -157.3)"/><line class="cls-3" x1="16.22" y1="195.62" x2="28.47" y2="186.94"/><path d="M151.92,353.92a1,1,0,0,1-.58-1.81l12.25-8.68a1,1,0,1,1,1.16,1.63l-12.25,8.68A1,1,0,0,1,151.92,353.92Z" transform="translate(-135.7 -157.3)"/></svg>