<svg xmlns="http://www.w3.org/2000/svg" viewBox="0 0 564.75 287.29"><defs><style>.cls-1{isolation:isolate;}.cls-2,.cls-3{fill:#bb494e;}.cls-11,.cls-15,.cls-16,.cls-3,.cls-5,.cls-6,.cls-8,.cls-9{mix-blend-mode:multiply;}.cls-16,.cls-4,.cls-5,.cls-9{fill:#6e3638;}.cls-5{opacity:0.15;}.cls-12,.cls-7{fill:#fff;}.cls-8{opacity:0.23;}.cls-11,.cls-9{opacity:0.5;}.cls-10,.cls-15{fill:#fdc756;}.cls-12{mix-blend-mode:overlay;}.cls-13{fill:#926868;}.cls-14{fill:#f1f2f2;}.cls-16{opacity:0.45;}</style></defs><g class="cls-1"><g id="Layer_1" data-name="Layer 1"><path class="cls-2" d="M806.7,389.24H367.33a50,50,0,0,0-50,50.05V593.46a50,50,0,0,0,50,50H806.7a50.05,50.05,0,0,0,50-50V439.29A50.05,50.05,0,0,0,806.7,389.24ZM739.18,586.12H434.85V445.53H739.18Z" transform="translate(-311.67 -383.63)"/><path class="cls-3" d="M806.7,622.9H367.33a50,50,0,0,1-50-50v20.6a50,50,0,0,0,50,50H806.7a50.05,50.05,0,0,0,50-50v-20.6A50,50,0,0,1,806.7,622.9Z" transform="translate(-311.67 -383.63)"/><path class="cls-4" d="M806.7,649.13H367.33a55.73,55.73,0,0,1-55.66-55.67V439.29a55.72,55.72,0,0,1,55.66-55.66H806.7a55.72,55.72,0,0,1,55.66,55.66V593.46A55.73,55.73,0,0,1,806.7,649.13ZM367.33,394.86a44.48,44.48,0,0,0-44.42,44.43V593.46a44.48,44.48,0,0,0,44.42,44.43H806.7a44.48,44.48,0,0,0,44.43-44.43V439.29a44.48,44.48,0,0,0-44.43-44.43Z" transform="translate(-311.67 -383.63)"/><path class="cls-5" d="M820.75,405.41H381.38a55.73,55.73,0,0,0-55.66,55.67V615.25a55.72,55.72,0,0,0,55.66,55.66H820.75a55.72,55.72,0,0,0,55.66-55.66V461.08A55.73,55.73,0,0,0,820.75,405.41ZM739.18,586.67H434.85V446.08H739.18Z" transform="translate(-311.67 -383.63)"/><g class="cls-6"><path class="cls-2" d="M742,589.48H432V443.27H742Zm-304.33-5.62H736.37v-135H437.66Z" transform="translate(-311.67 -383.63)"/></g><rect class="cls-7" x="57.6" y="20.97" width="435.5" height="3.3" rx="1.42"/><rect class="cls-7" x="120.37" y="210.72" width="309.95" height="3.3" rx="1.39"/><rect class="cls-7" x="120.37" y="50.37" width="309.95" height="3.3" rx="1.39"/><g class="cls-8"><circle class="cls-4" cx="371.92" cy="468.89" r="32.39" transform="translate(-445.4 -234.89) rotate(-19.24)"/><path class="cls-4" d="M802.11,501.27a32.39,32.39,0,1,0-32.39-32.38A32.42,32.42,0,0,0,802.11,501.27Z" transform="translate(-311.67 -383.63)"/><path class="cls-4" d="M371.63,535.75a29.77,29.77,0,1,0,29.76,29.77A29.8,29.8,0,0,0,371.63,535.75Z" transform="translate(-311.67 -383.63)"/><circle class="cls-4" cx="799.25" cy="536.6" r="10.85" transform="translate(-457.01 338.69) rotate(-45)"/><path class="cls-4" d="M799.25,574.56a10.85,10.85,0,1,0,10.84,10.85A10.87,10.87,0,0,0,799.25,574.56Z" transform="translate(-311.67 -383.63)"/><circle class="cls-4" cx="823.65" cy="561" r="10.85" transform="translate(-483.59 221.6) rotate(-36.8)"/><circle class="cls-4" cx="774.84" cy="561" r="10.85" transform="translate(-441.21 -134.37) rotate(-16.89)"/></g><path class="cls-9" d="M484.39,600.85h-44a9,9,0,0,0,0,18.08h44a9,9,0,1,0,0-18.08Z" transform="translate(-311.67 -383.63)"/><rect class="cls-10" x="121.61" y="219.19" width="58.2" height="14.16" rx="6.11"/><path class="cls-7" d="M436.12,610.78c0-2.95,2.85-5.33,6.37-5.33h39.64c3.51,0,6.37,2.38,6.37,5.33h1.76c0-3.76-3.65-6.81-8.13-6.81H442.49c-4.48,0-8.13,3-8.13,6.81h1.76Z" transform="translate(-311.67 -383.63)"/><path class="cls-9" d="M733.68,600.85h-44a9,9,0,0,0,0,18.08h44a9,9,0,1,0,0-18.08Z" transform="translate(-311.67 -383.63)"/><rect class="cls-10" x="370.89" y="219.19" width="58.2" height="14.16" rx="6.11"/><path class="cls-7" d="M685.41,610.78c0-2.95,2.85-5.33,6.37-5.33h39.63c3.52,0,6.37,2.38,6.37,5.33h1.77c0-3.76-3.65-6.81-8.14-6.81H691.78c-4.49,0-8.14,3-8.14,6.81h1.77Z" transform="translate(-311.67 -383.63)"/><g class="cls-11"><rect class="cls-4" x="120.37" y="39.31" width="309.95" height="5.58"/></g><rect class="cls-4" x="120.37" y="36.52" width="309.95" height="5.58"/><circle class="cls-10" cx="60.25" cy="80.01" r="31.41"/><path class="cls-4" d="M371.92,496a32.39,32.39,0,1,1,32.39-32.39A32.43,32.43,0,0,1,371.92,496Zm0-62.81a30.43,30.43,0,1,0,30.42,30.42A30.45,30.45,0,0,0,371.92,433.21Z" transform="translate(-311.67 -383.63)"/><path class="cls-7" d="M371.92,435.85a27.71,27.71,0,0,0-4.86.44l-2.65.47,3.18,3.19.71-.11A24.09,24.09,0,0,1,396,463.63a23.27,23.27,0,0,1-.28,3.63l-.1.7,3.19,3.19.47-2.66a27.77,27.77,0,0,0-27.35-32.64Z" transform="translate(-311.67 -383.63)"/><path class="cls-7" d="M375.67,487.41a24.83,24.83,0,0,1-3.75.29,24.09,24.09,0,0,1-24.06-24.07,23.59,23.59,0,0,1,.29-3.75l.11-.7L345.08,456l-.48,2.64a28.36,28.36,0,0,0-.46,5,27.81,27.81,0,0,0,27.78,27.78,28.34,28.34,0,0,0,5-.45l2.64-.49-3.18-3.18Z" transform="translate(-311.67 -383.63)"/><circle class="cls-12" cx="60.25" cy="80.01" r="20.36"/><circle class="cls-10" cx="490.44" cy="80.01" r="31.41"/><path class="cls-4" d="M802.11,496a32.39,32.39,0,1,1,32.39-32.39A32.43,32.43,0,0,1,802.11,496Zm0-62.81a30.43,30.43,0,1,0,30.42,30.42A30.45,30.45,0,0,0,802.11,433.21Z" transform="translate(-311.67 -383.63)"/><path class="cls-7" d="M802.11,435.85a27.71,27.71,0,0,0-4.86.44l-2.65.47,3.18,3.19.71-.11a24.09,24.09,0,0,1,27.69,23.79,24.55,24.55,0,0,1-.28,3.63l-.1.7,3.19,3.19.47-2.66a27.77,27.77,0,0,0-27.35-32.64Z" transform="translate(-311.67 -383.63)"/><path class="cls-7" d="M805.86,487.41a24.83,24.83,0,0,1-3.75.29A24.1,24.1,0,0,1,778,463.63a23.61,23.61,0,0,1,.3-3.75l.11-.7L775.27,456l-.48,2.64a27.44,27.44,0,0,0-.46,5,27.81,27.81,0,0,0,27.78,27.78,28.34,28.34,0,0,0,5-.45l2.64-.49-3.18-3.18Z" transform="translate(-311.67 -383.63)"/><circle class="cls-12" cx="490.44" cy="80.01" r="20.36"/><circle class="cls-13" cx="59.96" cy="176.64" r="28.86"/><path class="cls-4" d="M371.63,590a29.77,29.77,0,1,1,29.76-29.76A29.8,29.8,0,0,1,371.63,590Zm0-57.72a28,28,0,1,0,28,28A28,28,0,0,0,371.63,532.31Z" transform="translate(-311.67 -383.63)"/><path class="cls-14" d="M367.64,534.06a27.55,27.55,0,0,1,4-.3,26.52,26.52,0,0,1,26.2,30.5l.81.81a27.12,27.12,0,0,0,.43-4.8,27.41,27.41,0,0,0-32.25-27Z" transform="translate(-311.67 -383.63)"/><path class="cls-14" d="M375.76,586.45a26.86,26.86,0,0,1-4.13.32,26.46,26.46,0,0,1-26.18-30.63l-.81-.81a26.78,26.78,0,0,0-.46,4.94,27.44,27.44,0,0,0,32.39,27Z" transform="translate(-311.67 -383.63)"/><polygon class="cls-15" points="65.63 170.75 65.63 156.79 54.29 156.79 54.29 170.75 40.34 170.75 40.34 182.09 54.29 182.09 54.29 196.04 65.63 196.04 65.63 182.09 79.58 182.09 79.58 170.75 65.63 170.75"/><polygon class="cls-4" points="79.08 171.25 65.13 171.25 65.13 157.3 54.79 157.3 54.79 171.25 40.84 171.25 40.84 181.58 54.79 181.58 54.79 195.53 65.13 195.53 65.13 181.58 79.08 181.58 79.08 171.25"/><path class="cls-16" d="M371.63,554.48a5.79,5.79,0,1,0,5.79,5.79A5.8,5.8,0,0,0,371.63,554.48Z" transform="translate(-311.67 -383.63)"/><circle class="cls-10" cx="59.96" cy="176.64" r="5.28"/><polygon class="cls-16" points="60.03 159.53 57.17 164.52 62.75 164.52 60.03 159.53"/><polygon class="cls-10" points="60.02 160.02 57.6 164.24 62.32 164.24 60.02 160.02"/><polygon class="cls-16" points="59.89 193.84 62.75 188.85 57.17 188.85 59.89 193.84"/><polygon class="cls-10" points="59.9 193.35 62.32 189.13 57.6 189.13 59.9 193.35"/><polygon class="cls-16" points="77.12 176.61 72.13 179.48 72.13 173.89 77.12 176.61"/><polygon class="cls-10" points="76.62 176.62 72.4 179.05 72.4 174.32 76.62 176.62"/><polygon class="cls-16" points="42.8 176.76 47.79 173.89 47.79 179.48 42.8 176.76"/><polygon class="cls-10" points="43.3 176.75 47.52 174.32 47.52 179.05 43.3 176.75"/><path class="cls-7" d="M367.92,558a4.37,4.37,0,0,1,7.51,0h.48a4.79,4.79,0,0,0-8.47,0Z" transform="translate(-311.67 -383.63)"/><path class="cls-7" d="M375.12,562.91a4.37,4.37,0,0,1-6.89,0h-.52a4.79,4.79,0,0,0,7.93,0Z" transform="translate(-311.67 -383.63)"/><circle class="cls-13" cx="487.58" cy="147.72" r="10.52"/><path class="cls-4" d="M799.25,542.19a10.85,10.85,0,1,1,10.84-10.84A10.86,10.86,0,0,1,799.25,542.19Zm0-21a10.19,10.19,0,1,0,10.18,10.19A10.2,10.2,0,0,0,799.25,521.16Z" transform="translate(-311.67 -383.63)"/><path class="cls-14" d="M797.79,521.8a10,10,0,0,1,1.46-.11,9.66,9.66,0,0,1,9.65,9.66,8.69,8.69,0,0,1-.11,1.45l.3.3a10.17,10.17,0,0,0,.16-1.75,10,10,0,0,0-11.75-9.85Z" transform="translate(-311.67 -383.63)"/><path class="cls-14" d="M800.75,540.89a10.59,10.59,0,0,1-1.5.11,9.66,9.66,0,0,1-9.66-9.65,9.33,9.33,0,0,1,.12-1.51l-.3-.29a10.57,10.57,0,0,0-.16,1.8,10,10,0,0,0,10,10,9.8,9.8,0,0,0,1.8-.17Z" transform="translate(-311.67 -383.63)"/><path class="cls-10" d="M806.06,531.35a6.82,6.82,0,1,1-6.81-6.82A6.81,6.81,0,0,1,806.06,531.35Z" transform="translate(-311.67 -383.63)"/><circle class="cls-13" cx="487.58" cy="196.53" r="10.52"/><path class="cls-4" d="M799.25,591a10.85,10.85,0,1,1,10.84-10.84A10.86,10.86,0,0,1,799.25,591Zm0-21a10.19,10.19,0,1,0,10.18,10.19A10.2,10.2,0,0,0,799.25,570Z" transform="translate(-311.67 -383.63)"/><path class="cls-14" d="M797.79,570.61a10,10,0,0,1,1.46-.11,9.66,9.66,0,0,1,9.65,9.66,8.69,8.69,0,0,1-.11,1.45l.3.3a10.17,10.17,0,0,0,.16-1.75,10,10,0,0,0-11.75-9.85Z" transform="translate(-311.67 -383.63)"/><path class="cls-14" d="M800.75,589.69a9.29,9.29,0,0,1-1.5.12,9.66,9.66,0,0,1-9.66-9.65,9.33,9.33,0,0,1,.12-1.51l-.3-.3a10.78,10.78,0,0,0-.16,1.81,10,10,0,0,0,10,10,9.8,9.8,0,0,0,1.8-.17Z" transform="translate(-311.67 -383.63)"/><circle class="cls-10" cx="487.58" cy="196.53" r="6.82"/><circle class="cls-13" cx="823.65" cy="555.75" r="10.52" transform="translate(-477.22 265.53) rotate(-39.4)"/><path class="cls-4" d="M812.81,555.75a10.85,10.85,0,1,1,10.84,10.85A10.85,10.85,0,0,1,812.81,555.75Zm21,0a10.19,10.19,0,1,0-10.19,10.19A10.2,10.2,0,0,0,833.84,555.75Z" transform="translate(-311.67 -383.63)"/><path class="cls-14" d="M833.2,554.3a9.9,9.9,0,0,1,.11,1.45,9.67,9.67,0,0,1-9.66,9.66,9.9,9.9,0,0,1-1.45-.11l-.3.29a9.19,9.19,0,0,0,1.75.16A10,10,0,0,0,833.5,554Z" transform="translate(-311.67 -383.63)"/><path class="cls-14" d="M814.11,557.26a10.73,10.73,0,0,1-.12-1.51,9.68,9.68,0,0,1,9.66-9.66,9.42,9.42,0,0,1,1.51.12l.29-.29a9.64,9.64,0,0,0-1.8-.17,10,10,0,0,0-10,10,9.64,9.64,0,0,0,.17,1.8Z" transform="translate(-311.67 -383.63)"/><circle class="cls-10" cx="823.65" cy="555.75" r="6.82" transform="translate(-463.4 361.56) rotate(-45)"/><circle class="cls-13" cx="774.84" cy="555.75" r="10.52" transform="translate(-490.36 175.09) rotate(-35.83)"/><path class="cls-4" d="M764,555.75a10.85,10.85,0,1,1,10.84,10.85A10.85,10.85,0,0,1,764,555.75Zm21,0a10.19,10.19,0,1,0-10.19,10.19A10.2,10.2,0,0,0,785,555.75Z" transform="translate(-311.67 -383.63)"/><path class="cls-14" d="M784.39,554.3a9.9,9.9,0,0,1,.11,1.45,9.67,9.67,0,0,1-9.66,9.66,9.9,9.9,0,0,1-1.45-.11l-.3.29a9.19,9.19,0,0,0,1.75.16A10,10,0,0,0,784.69,554Z" transform="translate(-311.67 -383.63)"/><path class="cls-14" d="M765.3,557.26a10.73,10.73,0,0,1-.12-1.51,9.68,9.68,0,0,1,9.66-9.66,9.42,9.42,0,0,1,1.51.12l.29-.29a9.64,9.64,0,0,0-1.8-.17,10,10,0,0,0-10,10,9.64,9.64,0,0,0,.17,1.8Z" transform="translate(-311.67 -383.63)"/><path class="cls-10" d="M774.84,562.57a6.82,6.82,0,1,1,6.82-6.82A6.81,6.81,0,0,1,774.84,562.57Z" transform="translate(-311.67 -383.63)"/></g></g></svg>