<svg id="OBJECTS" xmlns="http://www.w3.org/2000/svg" xmlns:xlink="http://www.w3.org/1999/xlink" viewBox="0 0 252.81 367.43"><defs><style>.cls-1,.cls-4{fill:none;}.cls-2{fill:#09021c;}.cls-3{fill:#63aeef;}.cls-4{stroke:#000;stroke-linecap:round;stroke-linejoin:round;stroke-width:3px;}.cls-5{fill:#ffd401;}.cls-6{fill:url(#Unnamed_Pattern_4);}.cls-7{fill:#e18eba;}.cls-8{fill:#fff;}</style><pattern id="Unnamed_Pattern_4" data-name="Unnamed Pattern 4" width="15" height="15" patternUnits="userSpaceOnUse" viewBox="0 0 15 15"><rect class="cls-1" width="15" height="15"/><path class="cls-2" d="M15.37,15.08a.36.36,0,1,1-.36-.35A.36.36,0,0,1,15.37,15.08Z"/><circle class="cls-2" cx="0.01" cy="15.08" r="0.36"/><circle class="cls-2" cx="1.88" cy="15.08" r="0.36"/><circle class="cls-2" cx="1.88" cy="15.08" r="0.36"/><path class="cls-2" d="M4.11,15.08a.36.36,0,1,1-.35-.35A.36.36,0,0,1,4.11,15.08Z"/><path class="cls-2" d="M4.11,15.08a.36.36,0,1,1-.35-.35A.36.36,0,0,1,4.11,15.08Z"/><path class="cls-2" d="M6,15.08a.36.36,0,1,1-.36-.35A.36.36,0,0,1,6,15.08Z"/><path class="cls-2" d="M6,15.08a.36.36,0,1,1-.36-.35A.36.36,0,0,1,6,15.08Z"/><path class="cls-2" d="M7.86,15.08a.36.36,0,1,1-.71,0,.36.36,0,0,1,.71,0Z"/><circle class="cls-2" cx="7.5" cy="15.08" r="0.36"/><path class="cls-2" d="M9.73,15.08a.36.36,0,1,1-.35-.35A.36.36,0,0,1,9.73,15.08Z"/><path class="cls-2" d="M9.73,15.08a.36.36,0,1,1-.35-.35A.36.36,0,0,1,9.73,15.08Z"/><path class="cls-2" d="M11.61,15.08a.36.36,0,1,1-.36-.35A.36.36,0,0,1,11.61,15.08Z"/><path class="cls-2" d="M11.61,15.08a.36.36,0,1,1-.36-.35A.36.36,0,0,1,11.61,15.08Z"/><path class="cls-2" d="M13.48,15.08a.36.36,0,1,1-.35-.35A.36.36,0,0,1,13.48,15.08Z"/><path class="cls-2" d="M13.48,15.08a.36.36,0,1,1-.35-.35A.36.36,0,0,1,13.48,15.08Z"/><path class="cls-2" d="M15.36,15.08a.36.36,0,1,1-.36-.35A.36.36,0,0,1,15.36,15.08Z"/><path class="cls-2" d="M.36,15.08a.36.36,0,0,1-.36.36.36.36,0,0,1-.36-.36A.36.36,0,0,1,0,14.73.36.36,0,0,1,.36,15.08Z"/><path class="cls-2" d="M15.37,5.28A.36.36,0,1,1,15,4.92.36.36,0,0,1,15.37,5.28Z"/><path class="cls-2" d="M15.37,7.69A.36.36,0,1,1,15,7.33.36.36,0,0,1,15.37,7.69Z"/><path class="cls-2" d="M15.37,5.28A.36.36,0,1,1,15,4.92.36.36,0,0,1,15.37,5.28Z"/><path class="cls-2" d="M15.37.08a.36.36,0,1,1-.72,0,.36.36,0,0,1,.72,0Z"/><path class="cls-2" d="M15.37,2.89A.36.36,0,1,1,15,2.53.36.36,0,0,1,15.37,2.89Z"/><path class="cls-2" d="M15.37,15a.36.36,0,1,1-.36-.36A.36.36,0,0,1,15.37,15Z"/><path class="cls-2" d="M15.37,10.36A.36.36,0,1,1,15,10,.36.36,0,0,1,15.37,10.36Z"/><path class="cls-2" d="M15.37,12.63a.36.36,0,1,1-.36-.36A.36.36,0,0,1,15.37,12.63Z"/><path class="cls-2" d="M15.37,10.36A.36.36,0,1,1,15,10,.36.36,0,0,1,15.37,10.36Z"/><circle class="cls-2" cx="0.01" cy="5.28" r="0.36"/><circle class="cls-2" cx="1.88" cy="5.28" r="0.36"/><circle class="cls-2" cx="1.88" cy="5.28" r="0.36"/><path class="cls-2" d="M4.11,5.28a.36.36,0,0,1-.71,0,.36.36,0,1,1,.71,0Z"/><path class="cls-2" d="M4.11,5.28a.36.36,0,0,1-.71,0,.36.36,0,1,1,.71,0Z"/><path class="cls-2" d="M6,5.28a.36.36,0,1,1-.36-.36A.36.36,0,0,1,6,5.28Z"/><path class="cls-2" d="M6,5.28a.36.36,0,1,1-.36-.36A.36.36,0,0,1,6,5.28Z"/><path class="cls-2" d="M7.86,5.28a.36.36,0,1,1-.36-.36A.36.36,0,0,1,7.86,5.28Z"/><path class="cls-2" d="M.37,7.69A.36.36,0,0,1,0,8.05a.36.36,0,0,1,0-.72A.36.36,0,0,1,.37,7.69Z"/><path class="cls-2" d="M2.24,7.69a.36.36,0,1,1-.36-.36A.36.36,0,0,1,2.24,7.69Z"/><path class="cls-2" d="M2.24,7.69a.36.36,0,1,1-.36-.36A.36.36,0,0,1,2.24,7.69Z"/><path class="cls-2" d="M4.11,7.69a.36.36,0,1,1-.35-.36A.36.36,0,0,1,4.11,7.69Z"/><path class="cls-2" d="M4.11,7.69a.36.36,0,1,1-.35-.36A.36.36,0,0,1,4.11,7.69Z"/><path class="cls-2" d="M6,7.69a.36.36,0,1,1-.36-.36A.36.36,0,0,1,6,7.69Z"/><path class="cls-2" d="M6,7.69a.36.36,0,1,1-.36-.36A.36.36,0,0,1,6,7.69Z"/><path class="cls-2" d="M7.86,7.69a.36.36,0,1,1-.36-.36A.36.36,0,0,1,7.86,7.69Z"/><path class="cls-2" d="M.37,5.28A.36.36,0,0,1,0,5.63a.36.36,0,0,1-.36-.35A.36.36,0,0,1,0,4.92.36.36,0,0,1,.37,5.28Z"/><path class="cls-2" d="M2.24,5.28a.36.36,0,1,1-.36-.36A.36.36,0,0,1,2.24,5.28Z"/><path class="cls-2" d="M2.24,5.28a.36.36,0,1,1-.36-.36A.36.36,0,0,1,2.24,5.28Z"/><path class="cls-2" d="M4.11,5.28a.36.36,0,0,1-.71,0,.36.36,0,1,1,.71,0Z"/><path class="cls-2" d="M4.11,5.28a.36.36,0,0,1-.71,0,.36.36,0,1,1,.71,0Z"/><path class="cls-2" d="M6,5.28a.36.36,0,1,1-.36-.36A.36.36,0,0,1,6,5.28Z"/><path class="cls-2" d="M6,5.28a.36.36,0,1,1-.36-.36A.36.36,0,0,1,6,5.28Z"/><path class="cls-2" d="M7.86,5.28a.36.36,0,1,1-.36-.36A.36.36,0,0,1,7.86,5.28Z"/><path class="cls-2" d="M.37.08A.36.36,0,0,1,0,.44.36.36,0,0,1-.35.08.36.36,0,0,1,0-.27.36.36,0,0,1,.37.08Z"/><path class="cls-2" d="M2.24.08a.36.36,0,0,1-.72,0,.36.36,0,0,1,.72,0Z"/><path class="cls-2" d="M2.24.08a.36.36,0,0,1-.72,0,.36.36,0,0,1,.72,0Z"/><path class="cls-2" d="M4.11.08a.36.36,0,0,1-.35.36A.36.36,0,0,1,3.4.08a.36.36,0,0,1,.36-.35A.35.35,0,0,1,4.11.08Z"/><path class="cls-2" d="M4.11.08a.36.36,0,0,1-.35.36A.36.36,0,0,1,3.4.08a.36.36,0,0,1,.36-.35A.35.35,0,0,1,4.11.08Z"/><path class="cls-2" d="M6,.08a.36.36,0,0,1-.72,0A.36.36,0,0,1,6,.08Z"/><path class="cls-2" d="M6,.08a.36.36,0,0,1-.72,0A.36.36,0,0,1,6,.08Z"/><path class="cls-2" d="M7.86.08A.36.36,0,0,1,7.5.44a.36.36,0,0,1,0-.71A.36.36,0,0,1,7.86.08Z"/><circle class="cls-2" cx="0.01" cy="2.89" r="0.36"/><circle class="cls-2" cx="1.88" cy="2.89" r="0.36"/><circle class="cls-2" cx="1.88" cy="2.89" r="0.36"/><path class="cls-2" d="M4.11,2.89a.36.36,0,0,1-.71,0,.36.36,0,1,1,.71,0Z"/><path class="cls-2" d="M4.11,2.89a.36.36,0,0,1-.71,0,.36.36,0,1,1,.71,0Z"/><path class="cls-2" d="M6,2.89a.36.36,0,1,1-.36-.36A.36.36,0,0,1,6,2.89Z"/><path class="cls-2" d="M6,2.89a.36.36,0,1,1-.36-.36A.36.36,0,0,1,6,2.89Z"/><path class="cls-2" d="M7.86,2.89a.36.36,0,1,1-.36-.36A.36.36,0,0,1,7.86,2.89Z"/><circle class="cls-2" cx="7.5" cy="5.28" r="0.36"/><path class="cls-2" d="M9.73,5.28a.36.36,0,0,1-.71,0,.36.36,0,1,1,.71,0Z"/><path class="cls-2" d="M9.73,5.28a.36.36,0,0,1-.71,0,.36.36,0,1,1,.71,0Z"/><path class="cls-2" d="M11.61,5.28a.36.36,0,1,1-.36-.36A.36.36,0,0,1,11.61,5.28Z"/><path class="cls-2" d="M11.61,5.28a.36.36,0,1,1-.36-.36A.36.36,0,0,1,11.61,5.28Z"/><path class="cls-2" d="M13.48,5.28a.36.36,0,0,1-.71,0,.36.36,0,1,1,.71,0Z"/><path class="cls-2" d="M13.48,5.28a.36.36,0,0,1-.71,0,.36.36,0,1,1,.71,0Z"/><path class="cls-2" d="M15.36,5.28A.36.36,0,1,1,15,4.92.36.36,0,0,1,15.36,5.28Z"/><path class="cls-2" d="M7.86,7.69a.36.36,0,1,1-.36-.36A.36.36,0,0,1,7.86,7.69Z"/><path class="cls-2" d="M9.73,7.69a.36.36,0,1,1-.35-.36A.36.36,0,0,1,9.73,7.69Z"/><path class="cls-2" d="M9.73,7.69a.36.36,0,1,1-.35-.36A.36.36,0,0,1,9.73,7.69Z"/><path class="cls-2" d="M11.61,7.69a.36.36,0,1,1-.36-.36A.36.36,0,0,1,11.61,7.69Z"/><path class="cls-2" d="M11.61,7.69a.36.36,0,1,1-.36-.36A.36.36,0,0,1,11.61,7.69Z"/><path class="cls-2" d="M13.48,7.69a.36.36,0,1,1-.35-.36A.36.36,0,0,1,13.48,7.69Z"/><path class="cls-2" d="M13.48,7.69a.36.36,0,1,1-.35-.36A.36.36,0,0,1,13.48,7.69Z"/><path class="cls-2" d="M15.36,7.69A.36.36,0,1,1,15,7.33.36.36,0,0,1,15.36,7.69Z"/><path class="cls-2" d="M7.86,5.28a.36.36,0,1,1-.36-.36A.36.36,0,0,1,7.86,5.28Z"/><path class="cls-2" d="M9.73,5.28a.36.36,0,0,1-.71,0,.36.36,0,1,1,.71,0Z"/><path class="cls-2" d="M9.73,5.28a.36.36,0,0,1-.71,0,.36.36,0,1,1,.71,0Z"/><path class="cls-2" d="M11.61,5.28a.36.36,0,1,1-.36-.36A.36.36,0,0,1,11.61,5.28Z"/><path class="cls-2" d="M11.61,5.28a.36.36,0,1,1-.36-.36A.36.36,0,0,1,11.61,5.28Z"/><path class="cls-2" d="M13.48,5.28a.36.36,0,0,1-.71,0,.36.36,0,1,1,.71,0Z"/><path class="cls-2" d="M13.48,5.28a.36.36,0,0,1-.71,0,.36.36,0,1,1,.71,0Z"/><path class="cls-2" d="M15.36,5.28A.36.36,0,1,1,15,4.92.36.36,0,0,1,15.36,5.28Z"/><path class="cls-2" d="M.37,15a.36.36,0,0,1-.36.36.36.36,0,1,1,0-.72A.36.36,0,0,1,.37,15Z"/><path class="cls-2" d="M2.24,15a.36.36,0,1,1-.36-.36A.36.36,0,0,1,2.24,15Z"/><path class="cls-2" d="M2.24,15a.36.36,0,1,1-.36-.36A.36.36,0,0,1,2.24,15Z"/><path class="cls-2" d="M4.11,15a.36.36,0,1,1-.35-.36A.36.36,0,0,1,4.11,15Z"/><path class="cls-2" d="M4.11,15a.36.36,0,1,1-.35-.36A.36.36,0,0,1,4.11,15Z"/><path class="cls-2" d="M6,15a.36.36,0,1,1-.36-.36A.36.36,0,0,1,6,15Z"/><path class="cls-2" d="M6,15a.36.36,0,1,1-.36-.36A.36.36,0,0,1,6,15Z"/><path class="cls-2" d="M7.86,15a.36.36,0,1,1-.36-.36A.36.36,0,0,1,7.86,15Z"/><path class="cls-2" d="M.37,10.36a.36.36,0,0,1-.36.36A.36.36,0,1,1,0,10,.36.36,0,0,1,.37,10.36Z"/><path class="cls-2" d="M2.24,10.36A.36.36,0,1,1,1.88,10,.36.36,0,0,1,2.24,10.36Z"/><path class="cls-2" d="M2.24,10.36A.36.36,0,1,1,1.88,10,.36.36,0,0,1,2.24,10.36Z"/><path class="cls-2" d="M4.11,10.36A.36.36,0,1,1,3.76,10,.36.36,0,0,1,4.11,10.36Z"/><path class="cls-2" d="M4.11,10.36A.36.36,0,1,1,3.76,10,.36.36,0,0,1,4.11,10.36Z"/><path class="cls-2" d="M6,10.36A.36.36,0,1,1,5.63,10,.36.36,0,0,1,6,10.36Z"/><path class="cls-2" d="M6,10.36A.36.36,0,1,1,5.63,10,.36.36,0,0,1,6,10.36Z"/><path class="cls-2" d="M7.86,10.36A.36.36,0,1,1,7.5,10,.36.36,0,0,1,7.86,10.36Z"/><circle class="cls-2" cx="0.01" cy="12.63" r="0.36"/><circle class="cls-2" cx="1.88" cy="12.63" r="0.36"/><circle class="cls-2" cx="1.88" cy="12.63" r="0.36"/><path class="cls-2" d="M4.11,12.63a.36.36,0,1,1-.35-.36A.36.36,0,0,1,4.11,12.63Z"/><path class="cls-2" d="M4.11,12.63a.36.36,0,1,1-.35-.36A.36.36,0,0,1,4.11,12.63Z"/><path class="cls-2" d="M6,12.63a.36.36,0,1,1-.36-.36A.36.36,0,0,1,6,12.63Z"/><path class="cls-2" d="M6,12.63a.36.36,0,1,1-.36-.36A.36.36,0,0,1,6,12.63Z"/><path class="cls-2" d="M7.86,12.63a.36.36,0,1,1-.36-.36A.36.36,0,0,1,7.86,12.63Z"/><path class="cls-2" d="M.37,10.36a.36.36,0,0,1-.36.36A.36.36,0,1,1,0,10,.36.36,0,0,1,.37,10.36Z"/><path class="cls-2" d="M2.24,10.36A.36.36,0,1,1,1.88,10,.36.36,0,0,1,2.24,10.36Z"/><path class="cls-2" d="M2.24,10.36A.36.36,0,1,1,1.88,10,.36.36,0,0,1,2.24,10.36Z"/><path class="cls-2" d="M4.11,10.36A.36.36,0,1,1,3.76,10,.36.36,0,0,1,4.11,10.36Z"/><path class="cls-2" d="M4.11,10.36A.36.36,0,1,1,3.76,10,.36.36,0,0,1,4.11,10.36Z"/><path class="cls-2" d="M6,10.36A.36.36,0,1,1,5.63,10,.36.36,0,0,1,6,10.36Z"/><path class="cls-2" d="M6,10.36A.36.36,0,1,1,5.63,10,.36.36,0,0,1,6,10.36Z"/><path class="cls-2" d="M7.86,10.36A.36.36,0,1,1,7.5,10,.36.36,0,0,1,7.86,10.36Z"/><path class="cls-2" d="M7.86,15a.36.36,0,1,1-.36-.36A.36.36,0,0,1,7.86,15Z"/><path class="cls-2" d="M9.73,15a.36.36,0,1,1-.35-.36A.36.36,0,0,1,9.73,15Z"/><path class="cls-2" d="M9.73,15a.36.36,0,1,1-.35-.36A.36.36,0,0,1,9.73,15Z"/><path class="cls-2" d="M11.61,15a.36.36,0,1,1-.36-.36A.36.36,0,0,1,11.61,15Z"/><path class="cls-2" d="M11.61,15a.36.36,0,1,1-.36-.36A.36.36,0,0,1,11.61,15Z"/><path class="cls-2" d="M13.48,15a.36.36,0,1,1-.35-.36A.36.36,0,0,1,13.48,15Z"/><path class="cls-2" d="M13.48,15a.36.36,0,1,1-.35-.36A.36.36,0,0,1,13.48,15Z"/><path class="cls-2" d="M15.36,15a.36.36,0,1,1-.36-.36A.36.36,0,0,1,15.36,15Z"/><path class="cls-2" d="M7.86,10.36A.36.36,0,1,1,7.5,10,.36.36,0,0,1,7.86,10.36Z"/><path class="cls-2" d="M9.73,10.36A.36.36,0,1,1,9.38,10,.36.36,0,0,1,9.73,10.36Z"/><path class="cls-2" d="M9.73,10.36A.36.36,0,1,1,9.38,10,.36.36,0,0,1,9.73,10.36Z"/><path class="cls-2" d="M11.61,10.36a.36.36,0,1,1-.36-.36A.36.36,0,0,1,11.61,10.36Z"/><path class="cls-2" d="M11.61,10.36a.36.36,0,1,1-.36-.36A.36.36,0,0,1,11.61,10.36Z"/><path class="cls-2" d="M13.48,10.36a.36.36,0,1,1-.35-.36A.36.36,0,0,1,13.48,10.36Z"/><path class="cls-2" d="M13.48,10.36a.36.36,0,1,1-.35-.36A.36.36,0,0,1,13.48,10.36Z"/><path class="cls-2" d="M15.36,10.36A.36.36,0,1,1,15,10,.36.36,0,0,1,15.36,10.36Z"/><circle class="cls-2" cx="7.5" cy="12.63" r="0.36"/><path class="cls-2" d="M9.73,12.63a.36.36,0,1,1-.35-.36A.36.36,0,0,1,9.73,12.63Z"/><path class="cls-2" d="M9.73,12.63a.36.36,0,1,1-.35-.36A.36.36,0,0,1,9.73,12.63Z"/><path class="cls-2" d="M11.61,12.63a.36.36,0,1,1-.36-.36A.36.36,0,0,1,11.61,12.63Z"/><path class="cls-2" d="M11.61,12.63a.36.36,0,1,1-.36-.36A.36.36,0,0,1,11.61,12.63Z"/><path class="cls-2" d="M13.48,12.63a.36.36,0,1,1-.35-.36A.36.36,0,0,1,13.48,12.63Z"/><path class="cls-2" d="M13.48,12.63a.36.36,0,1,1-.35-.36A.36.36,0,0,1,13.48,12.63Z"/><path class="cls-2" d="M15.36,12.63a.36.36,0,1,1-.36-.36A.36.36,0,0,1,15.36,12.63Z"/><path class="cls-2" d="M7.86,10.36A.36.36,0,1,1,7.5,10,.36.36,0,0,1,7.86,10.36Z"/><path class="cls-2" d="M9.73,10.36A.36.36,0,1,1,9.38,10,.36.36,0,0,1,9.73,10.36Z"/><path class="cls-2" d="M9.73,10.36A.36.36,0,1,1,9.38,10,.36.36,0,0,1,9.73,10.36Z"/><path class="cls-2" d="M11.61,10.36a.36.36,0,1,1-.36-.36A.36.36,0,0,1,11.61,10.36Z"/><path class="cls-2" d="M11.61,10.36a.36.36,0,1,1-.36-.36A.36.36,0,0,1,11.61,10.36Z"/><path class="cls-2" d="M13.48,10.36a.36.36,0,1,1-.35-.36A.36.36,0,0,1,13.48,10.36Z"/><path class="cls-2" d="M13.48,10.36a.36.36,0,1,1-.35-.36A.36.36,0,0,1,13.48,10.36Z"/><path class="cls-2" d="M15.36,10.36A.36.36,0,1,1,15,10,.36.36,0,0,1,15.36,10.36Z"/><path class="cls-2" d="M7.86.08A.36.36,0,0,1,7.5.44a.36.36,0,0,1,0-.71A.36.36,0,0,1,7.86.08Z"/><path class="cls-2" d="M9.73.08a.36.36,0,0,1-.35.36A.36.36,0,0,1,9,.08a.36.36,0,0,1,.36-.35A.35.35,0,0,1,9.73.08Z"/><path class="cls-2" d="M9.73.08a.36.36,0,0,1-.35.36A.36.36,0,0,1,9,.08a.36.36,0,0,1,.36-.35A.35.35,0,0,1,9.73.08Z"/><path class="cls-2" d="M11.61.08a.36.36,0,1,1-.72,0,.36.36,0,0,1,.72,0Z"/><path class="cls-2" d="M11.61.08a.36.36,0,1,1-.72,0,.36.36,0,0,1,.72,0Z"/><path class="cls-2" d="M13.48.08a.36.36,0,0,1-.35.36.36.36,0,0,1-.36-.36.36.36,0,0,1,.36-.35A.35.35,0,0,1,13.48.08Z"/><path class="cls-2" d="M13.48.08a.36.36,0,0,1-.35.36.36.36,0,0,1-.36-.36.36.36,0,0,1,.36-.35A.35.35,0,0,1,13.48.08Z"/><path class="cls-2" d="M15.36.08a.36.36,0,1,1-.72,0,.36.36,0,0,1,.72,0Z"/><circle class="cls-2" cx="7.5" cy="2.89" r="0.36"/><path class="cls-2" d="M9.73,2.89a.36.36,0,0,1-.71,0,.36.36,0,1,1,.71,0Z"/><path class="cls-2" d="M9.73,2.89a.36.36,0,0,1-.71,0,.36.36,0,1,1,.71,0Z"/><path class="cls-2" d="M11.61,2.89a.36.36,0,1,1-.36-.36A.36.36,0,0,1,11.61,2.89Z"/><path class="cls-2" d="M11.61,2.89a.36.36,0,1,1-.36-.36A.36.36,0,0,1,11.61,2.89Z"/><path class="cls-2" d="M13.48,2.89a.36.36,0,0,1-.71,0,.36.36,0,1,1,.71,0Z"/><path class="cls-2" d="M13.48,2.89a.36.36,0,0,1-.71,0,.36.36,0,1,1,.71,0Z"/><path class="cls-2" d="M15.36,2.89A.36.36,0,1,1,15,2.53.36.36,0,0,1,15.36,2.89Z"/><path class="cls-2" d="M.36,5.28A.36.36,0,0,1,0,5.63a.36.36,0,0,1-.36-.35A.36.36,0,0,1,0,4.92.36.36,0,0,1,.36,5.28Z"/><path class="cls-2" d="M.36,7.69A.36.36,0,0,1,0,8.05a.36.36,0,0,1-.36-.36A.36.36,0,0,1,0,7.33.36.36,0,0,1,.36,7.69Z"/><path class="cls-2" d="M.36,5.28A.36.36,0,0,1,0,5.63a.36.36,0,0,1-.36-.35A.36.36,0,0,1,0,4.92.36.36,0,0,1,.36,5.28Z"/><path class="cls-2" d="M.36,15a.36.36,0,0,1-.36.36A.36.36,0,0,1-.36,15,.36.36,0,0,1,0,14.66.36.36,0,0,1,.36,15Z"/><path class="cls-2" d="M.36,10.36a.36.36,0,0,1-.36.36.36.36,0,0,1-.36-.36A.36.36,0,0,1,0,10,.36.36,0,0,1,.36,10.36Z"/><path class="cls-2" d="M.36,12.63A.36.36,0,0,1,0,13a.36.36,0,0,1-.36-.36A.36.36,0,0,1,0,12.27.36.36,0,0,1,.36,12.63Z"/><path class="cls-2" d="M.36,10.36a.36.36,0,0,1-.36.36.36.36,0,0,1-.36-.36A.36.36,0,0,1,0,10,.36.36,0,0,1,.36,10.36Z"/><path class="cls-2" d="M.36.08A.36.36,0,0,1,0,.44.36.36,0,0,1-.36.08.36.36,0,0,1,0-.27.36.36,0,0,1,.36.08Z"/><path class="cls-2" d="M.36,2.89A.36.36,0,0,1,0,3.24a.36.36,0,0,1-.36-.35A.36.36,0,0,1,0,2.53.36.36,0,0,1,.36,2.89Z"/><path class="cls-2" d="M15.37,0a.36.36,0,0,1-.72,0,.36.36,0,1,1,.72,0Z"/><path class="cls-2" d="M.37,0A.36.36,0,0,1,0,.38.36.36,0,0,1-.35,0,.36.36,0,0,1,0-.34.36.36,0,0,1,.37,0Z"/><path class="cls-2" d="M2.24,0a.36.36,0,0,1-.72,0,.36.36,0,1,1,.72,0Z"/><path class="cls-2" d="M2.24,0a.36.36,0,0,1-.72,0,.36.36,0,1,1,.72,0Z"/><path class="cls-2" d="M4.11,0a.36.36,0,0,1-.35.36A.36.36,0,0,1,3.4,0a.36.36,0,0,1,.36-.36A.36.36,0,0,1,4.11,0Z"/><path class="cls-2" d="M4.11,0a.36.36,0,0,1-.35.36A.36.36,0,0,1,3.4,0a.36.36,0,0,1,.36-.36A.36.36,0,0,1,4.11,0Z"/><path class="cls-2" d="M6,0a.36.36,0,0,1-.72,0A.36.36,0,0,1,6,0Z"/><path class="cls-2" d="M6,0a.36.36,0,0,1-.72,0A.36.36,0,0,1,6,0Z"/><path class="cls-2" d="M7.86,0A.36.36,0,0,1,7.5.38.36.36,0,0,1,7.15,0,.36.36,0,0,1,7.5-.34.36.36,0,0,1,7.86,0Z"/><path class="cls-2" d="M7.86,0A.36.36,0,0,1,7.5.38.36.36,0,0,1,7.15,0,.36.36,0,0,1,7.5-.34.36.36,0,0,1,7.86,0Z"/><path class="cls-2" d="M9.73,0a.36.36,0,0,1-.35.36A.36.36,0,0,1,9,0a.36.36,0,0,1,.36-.36A.36.36,0,0,1,9.73,0Z"/><path class="cls-2" d="M9.73,0a.36.36,0,0,1-.35.36A.36.36,0,0,1,9,0a.36.36,0,0,1,.36-.36A.36.36,0,0,1,9.73,0Z"/><path class="cls-2" d="M11.61,0a.36.36,0,0,1-.72,0,.36.36,0,1,1,.72,0Z"/><path class="cls-2" d="M11.61,0a.36.36,0,0,1-.72,0,.36.36,0,1,1,.72,0Z"/><path class="cls-2" d="M13.48,0a.36.36,0,0,1-.35.36A.36.36,0,0,1,12.77,0a.36.36,0,0,1,.36-.36A.36.36,0,0,1,13.48,0Z"/><path class="cls-2" d="M13.48,0a.36.36,0,0,1-.35.36A.36.36,0,0,1,12.77,0a.36.36,0,0,1,.36-.36A.36.36,0,0,1,13.48,0Z"/><path class="cls-2" d="M15.36,0a.36.36,0,0,1-.72,0,.36.36,0,1,1,.72,0Z"/><path class="cls-2" d="M.36,0A.36.36,0,0,1,0,.38.36.36,0,0,1-.36,0,.36.36,0,0,1,0-.34.36.36,0,0,1,.36,0Z"/></pattern></defs><path class="cls-3" d="M354.57,99.56H132.09a14.17,14.17,0,0,0-14.17,14.17V450.82A14.18,14.18,0,0,0,132.09,465H354.57a14.18,14.18,0,0,0,14.17-14.17V113.73A14.17,14.17,0,0,0,354.57,99.56ZM336.29,284.34H150.15V143.22H336.29Z" transform="translate(-116.92 -98.56)"/><path d="M354.57,466H132.09a15.19,15.19,0,0,1-15.17-15.17V113.73a15.19,15.19,0,0,1,15.17-15.17H354.57a15.19,15.19,0,0,1,15.17,15.17V450.82A15.19,15.19,0,0,1,354.57,466ZM132.09,100.56a13.19,13.19,0,0,0-13.17,13.17V450.82A13.19,13.19,0,0,0,132.09,464H354.57a13.19,13.19,0,0,0,13.17-13.17V113.73a13.19,13.19,0,0,0-13.17-13.17Z" transform="translate(-116.92 -98.56)"/><path class="cls-3" d="M348.76,99.56H137.9a14.17,14.17,0,0,0-14.17,14.17V450.82A14.18,14.18,0,0,0,137.9,465H348.76a14.18,14.18,0,0,0,14.17-14.17V113.73A14.17,14.17,0,0,0,348.76,99.56ZM336.29,283.85H150.15V142.73H336.29Z" transform="translate(-116.92 -98.56)"/><path d="M348.76,466H137.9a15.19,15.19,0,0,1-15.17-15.17V113.73A15.19,15.19,0,0,1,137.9,98.56H348.76a15.19,15.19,0,0,1,15.17,15.17V450.82A15.19,15.19,0,0,1,348.76,466ZM137.9,100.56a13.19,13.19,0,0,0-13.17,13.17V450.82A13.19,13.19,0,0,0,137.9,464H348.76a13.19,13.19,0,0,0,13.17-13.17V113.73a13.19,13.19,0,0,0-13.17-13.17Z" transform="translate(-116.92 -98.56)"/><path d="M334.14,111.81H152.3a12.27,12.27,0,0,1-12.25-12.25v-1H346.39v1A12.26,12.26,0,0,1,334.14,111.81Zm-192-11.25a10.27,10.27,0,0,0,10.2,9.25H334.14a10.27,10.27,0,0,0,10.2-9.25Z" transform="translate(-116.92 -98.56)"/><path d="M283.06,111.81H203.38a12.26,12.26,0,0,1-12.24-12.25v-1H295.3v1A12.26,12.26,0,0,1,283.06,111.81Zm-89.87-11.25a10.26,10.26,0,0,0,10.19,9.25h79.68a10.27,10.27,0,0,0,10.2-9.25Z" transform="translate(-116.92 -98.56)"/><line class="cls-4" x1="118.35" y1="6.62" x2="134.25" y2="6.62"/><path d="M317,466H169.45v-1a12.26,12.26,0,0,1,12.25-12.25h123A12.26,12.26,0,0,1,317,465ZM171.5,464H314.94a10.26,10.26,0,0,0-10.2-9.25h-123A10.27,10.27,0,0,0,171.5,464Z" transform="translate(-116.92 -98.56)"/><path class="cls-5" d="M133.17,130.41V297.15h220.1V130.41ZM336.29,284.34H150.15V143.22H336.29Z" transform="translate(-116.92 -98.56)"/><path d="M304.74,309.4h-123a12.26,12.26,0,0,1-12.25-12.25v-1H317v1A12.26,12.26,0,0,1,304.74,309.4ZM171.5,298.15a10.27,10.27,0,0,0,10.2,9.25h123a10.26,10.26,0,0,0,10.2-9.25Z" transform="translate(-116.92 -98.56)"/><path d="M354.27,298.15H132.17V129.41h222.1Zm-220.1-2h218.1V131.41H134.17Z" transform="translate(-116.92 -98.56)"/><path class="cls-6" d="M352.27,296.15V131.41H134.17V296.15ZM150.15,143.22H336.29V284.34H150.15Z" transform="translate(-116.92 -98.56)"/><path d="M337.29,285.34H149.15V142.22H337.29Zm-186.14-2H335.29V144.22H151.15Z" transform="translate(-116.92 -98.56)"/><circle class="cls-7" cx="176.7" cy="353.37" r="28.04" transform="translate(-324.73 345.59) rotate(-76.72)"/><path d="M176.7,382.4a29,29,0,1,1,29-29A29.07,29.07,0,0,1,176.7,382.4Zm0-56.07a27,27,0,1,0,27,27A27.07,27.07,0,0,0,176.7,326.33Z" transform="translate(-116.92 -98.56)"/><rect x="51.85" y="219.58" width="21.63" height="72.15" rx="6.51"/><path d="M183.89,391.29h-8.61a7.51,7.51,0,0,1-7.51-7.51V324.65a7.52,7.52,0,0,1,7.51-7.51h8.61a7.52,7.52,0,0,1,7.51,7.51v59.13A7.51,7.51,0,0,1,183.89,391.29Zm-8.61-72.15a5.51,5.51,0,0,0-5.51,5.51v59.13a5.51,5.51,0,0,0,5.51,5.51h8.61a5.51,5.51,0,0,0,5.51-5.51V324.65a5.51,5.51,0,0,0-5.51-5.51Z" transform="translate(-116.92 -98.56)"/><rect x="168.77" y="318.14" width="21.63" height="72.15" rx="6.51" transform="translate(416.88 76.07) rotate(90)"/><path d="M209.15,366H150a7.52,7.52,0,0,1-7.51-7.51v-8.6A7.52,7.52,0,0,1,150,342.4h59.13a7.52,7.52,0,0,1,7.51,7.52v8.6A7.52,7.52,0,0,1,209.15,366ZM150,344.4a5.52,5.52,0,0,0-5.51,5.52v8.6A5.51,5.51,0,0,0,150,364h59.13a5.51,5.51,0,0,0,5.51-5.51v-8.6a5.52,5.52,0,0,0-5.51-5.52Z" transform="translate(-116.92 -98.56)"/><path class="cls-8" d="M205.38,341.7H186.63V323a6.5,6.5,0,0,0-6.51-6.51h-8.61A6.51,6.51,0,0,0,165,323V341.7H146.25a6.5,6.5,0,0,0-6.51,6.51v8.61a6.51,6.51,0,0,0,6.51,6.51H165v18.75a6.51,6.51,0,0,0,6.51,6.51h8.61a6.5,6.5,0,0,0,6.51-6.51V363.33h18.75a6.51,6.51,0,0,0,6.51-6.51v-8.61A6.5,6.5,0,0,0,205.38,341.7Z" transform="translate(-116.92 -98.56)"/><path d="M180.12,389.59h-8.61a7.52,7.52,0,0,1-7.51-7.51V364.33H146.25a7.52,7.52,0,0,1-7.51-7.51v-8.61a7.52,7.52,0,0,1,7.51-7.51H164V323a7.51,7.51,0,0,1,7.51-7.51h8.61a7.51,7.51,0,0,1,7.51,7.51V340.7h17.75a7.52,7.52,0,0,1,7.51,7.51v8.61a7.52,7.52,0,0,1-7.51,7.51H187.63v17.75A7.52,7.52,0,0,1,180.12,389.59ZM146.25,342.7a5.51,5.51,0,0,0-5.51,5.51v8.61a5.52,5.52,0,0,0,5.51,5.51H166v19.75a5.52,5.52,0,0,0,5.51,5.51h8.61a5.51,5.51,0,0,0,5.51-5.51V362.33h19.75a5.52,5.52,0,0,0,5.51-5.51v-8.61a5.51,5.51,0,0,0-5.51-5.51H185.63V323a5.51,5.51,0,0,0-5.51-5.51h-8.61A5.52,5.52,0,0,0,166,323V342.7Z" transform="translate(-116.92 -98.56)"/><polyline class="cls-8" points="54.73 228.87 58.92 224.67 63.06 228.81"/><polygon points="55.43 229.57 54.02 228.16 58.92 223.26 63.77 228.11 62.36 229.52 58.92 226.09 55.43 229.57"/><polyline class="cls-8" points="63.06 278.02 58.87 282.22 54.73 278.07"/><polygon points="58.87 283.63 54.02 278.78 55.43 277.37 58.87 280.8 62.36 277.32 63.77 278.73 58.87 283.63"/><polyline class="cls-8" points="83.47 249.28 87.67 253.47 83.52 257.61"/><polygon points="84.23 258.32 82.82 256.91 86.25 253.47 82.77 249.98 84.18 248.57 89.08 253.47 84.23 258.32"/><polyline class="cls-8" points="34.31 257.61 30.12 253.42 34.27 249.28"/><polygon points="33.61 258.32 28.71 253.42 33.56 248.57 34.97 249.98 31.54 253.42 35.02 256.91 33.61 258.32"/><circle class="cls-8" cx="58.79" cy="254.26" r="7.18"/><path d="M175.72,361a8.18,8.18,0,1,1,8.17-8.17A8.19,8.19,0,0,1,175.72,361Zm0-14.35a6.18,6.18,0,1,0,6.17,6.18A6.18,6.18,0,0,0,175.72,346.64Z" transform="translate(-116.92 -98.56)"/><circle cx="165.69" cy="261.45" r="11.42"/><path d="M282.61,372.43A12.42,12.42,0,1,1,295,360,12.44,12.44,0,0,1,282.61,372.43Zm0-22.83A10.42,10.42,0,1,0,293,360,10.43,10.43,0,0,0,282.61,349.6Z" transform="translate(-116.92 -98.56)"/><circle class="cls-7" cx="281.79" cy="356.61" r="11.42" transform="translate(-231.94 36.42) rotate(-22.5)"/><path d="M281.79,369a12.42,12.42,0,1,1,12.42-12.42A12.43,12.43,0,0,1,281.79,369Zm0-22.84a10.42,10.42,0,1,0,10.42,10.42A10.44,10.44,0,0,0,281.79,346.19Z" transform="translate(-116.92 -98.56)"/><path class="cls-8" d="M289.2,354a1,1,0,0,1-.84-.45,7.86,7.86,0,0,0-5.05-3.81,7.41,7.41,0,0,0-5.21,1.21,1,1,0,1,1-1.18-1.62,9.52,9.52,0,0,1,6.75-1.56c2.46.44,4.6,2,6.36,4.68a1,1,0,0,1-.83,1.55Z" transform="translate(-116.92 -98.56)"/><circle cx="191.81" cy="236.93" r="11.42"/><path d="M308.73,347.91a12.42,12.42,0,1,1,12.42-12.42A12.44,12.44,0,0,1,308.73,347.91Zm0-22.84a10.42,10.42,0,1,0,10.42,10.42A10.43,10.43,0,0,0,308.73,325.07Z" transform="translate(-116.92 -98.56)"/><circle class="cls-5" cx="190.99" cy="233.52" r="11.42"/><path d="M307.91,344.5a12.42,12.42,0,1,1,12.42-12.42A12.43,12.43,0,0,1,307.91,344.5Zm0-22.84a10.42,10.42,0,1,0,10.42,10.42A10.44,10.44,0,0,0,307.91,321.66Z" transform="translate(-116.92 -98.56)"/><path class="cls-8" d="M315.22,329.43a1,1,0,0,1-.83-.45c-1.45-2.19-3.15-3.48-5.06-3.82a7.47,7.47,0,0,0-5.21,1.21,1,1,0,1,1-1.18-1.61,9.45,9.45,0,0,1,6.75-1.57c2.46.45,4.6,2,6.36,4.68a1,1,0,0,1-.28,1.39A1,1,0,0,1,315.22,329.43Z" transform="translate(-116.92 -98.56)"/><circle cx="216.29" cy="261.45" r="11.42"/><path d="M333.21,372.43A12.42,12.42,0,1,1,345.63,360,12.43,12.43,0,0,1,333.21,372.43Zm0-22.83A10.42,10.42,0,1,0,343.63,360,10.42,10.42,0,0,0,333.21,349.6Z" transform="translate(-116.92 -98.56)"/><circle class="cls-7" cx="332.39" cy="356.61" r="11.42" transform="translate(-228.09 55.79) rotate(-22.5)"/><path d="M332.39,369a12.42,12.42,0,1,1,12.42-12.42A12.43,12.43,0,0,1,332.39,369Zm0-22.84a10.42,10.42,0,1,0,10.42,10.42A10.43,10.43,0,0,0,332.39,346.19Z" transform="translate(-116.92 -98.56)"/><path class="cls-8" d="M340.1,354a1,1,0,0,1-.84-.45c-1.45-2.19-3.15-3.47-5.05-3.81A7.45,7.45,0,0,0,329,350.9a1,1,0,0,1-1.39-.22,1,1,0,0,1,.21-1.4,9.54,9.54,0,0,1,6.75-1.56c2.46.44,4.61,2,6.37,4.68a1,1,0,0,1-.28,1.39A1,1,0,0,1,340.1,354Z" transform="translate(-116.92 -98.56)"/><circle cx="190.55" cy="285.91" r="11.42"/><path d="M307.47,396.89a12.42,12.42,0,1,1,12.42-12.42A12.43,12.43,0,0,1,307.47,396.89Zm0-22.84a10.42,10.42,0,1,0,10.42,10.42A10.43,10.43,0,0,0,307.47,374.05Z" transform="translate(-116.92 -98.56)"/><circle class="cls-5" cx="189.73" cy="282.51" r="11.42"/><path d="M306.65,393.49a12.42,12.42,0,1,1,12.42-12.42A12.44,12.44,0,0,1,306.65,393.49Zm0-22.84a10.42,10.42,0,1,0,10.42,10.42A10.43,10.43,0,0,0,306.65,370.65Z" transform="translate(-116.92 -98.56)"/><path class="cls-8" d="M313.32,378.41a1,1,0,0,1-.83-.45,8,8,0,0,0-5-3.81,7.58,7.58,0,0,0-5.23,1.21,1,1,0,0,1-1.4-.23,1,1,0,0,1,.22-1.39,9.52,9.52,0,0,1,6.75-1.56c2.46.44,4.6,2,6.36,4.68a1,1,0,0,1-.28,1.38A.94.94,0,0,1,313.32,378.41Z" transform="translate(-116.92 -98.56)"/><line class="cls-8" x1="102.57" y1="333.17" x2="102.94" y2="349.66"/><path d="M219.86,449.72a1.5,1.5,0,0,1-1.5-1.47L218,431.77a1.5,1.5,0,1,1,3-.07l.37,16.48a1.5,1.5,0,0,1-1.46,1.54Z" transform="translate(-116.92 -98.56)"/><line class="cls-8" x1="113.83" y1="333.17" x2="114.2" y2="349.66"/><path d="M231.12,449.72a1.5,1.5,0,0,1-1.5-1.47l-.37-16.48a1.5,1.5,0,1,1,3-.07l.37,16.48a1.5,1.5,0,0,1-1.46,1.54Z" transform="translate(-116.92 -98.56)"/><line class="cls-8" x1="124.81" y1="333.95" x2="124.9" y2="349.66"/><path d="M241.82,449.72a1.5,1.5,0,0,1-1.5-1.49l-.08-15.71a1.5,1.5,0,0,1,1.49-1.51h0a1.51,1.51,0,0,1,1.5,1.49l.08,15.71a1.51,1.51,0,0,1-1.49,1.51Z" transform="translate(-116.92 -98.56)"/><line class="cls-8" x1="134.76" y1="333.17" x2="135.13" y2="349.66"/><path d="M252.05,449.72a1.49,1.49,0,0,1-1.49-1.47l-.38-16.48a1.5,1.5,0,1,1,3-.07l.38,16.48a1.51,1.51,0,0,1-1.47,1.54Z" transform="translate(-116.92 -98.56)"/><line class="cls-8" x1="147.32" y1="333.17" x2="147.7" y2="349.66"/><path d="M264.62,449.72a1.5,1.5,0,0,1-1.5-1.47l-.37-16.48a1.5,1.5,0,1,1,3-.07l.37,16.48a1.51,1.51,0,0,1-1.46,1.54Z" transform="translate(-116.92 -98.56)"/><path d="M139,443.41a1.84,1.84,0,1,1,1.83-1.83A1.85,1.85,0,0,1,139,443.41Zm0-2.67a.84.84,0,1,0,.83.84A.85.85,0,0,0,139,440.74Z" transform="translate(-116.92 -98.56)"/><path d="M154.19,443.41a1.84,1.84,0,1,1,1.83-1.83A1.85,1.85,0,0,1,154.19,443.41Zm0-2.67a.84.84,0,1,0,.83.84A.85.85,0,0,0,154.19,440.74Z" transform="translate(-116.92 -98.56)"/><path d="M161,443.41a1.84,1.84,0,1,1,1.84-1.83A1.84,1.84,0,0,1,161,443.41Zm0-2.67a.84.84,0,1,0,.84.84A.84.84,0,0,0,161,440.74Z" transform="translate(-116.92 -98.56)"/><path d="M146.45,443.41a1.84,1.84,0,1,1,1.84-1.83A1.84,1.84,0,0,1,146.45,443.41Zm0-2.67a.84.84,0,1,0,.84.84A.84.84,0,0,0,146.45,440.74Z" transform="translate(-116.92 -98.56)"/><path d="M139,449.52a1.84,1.84,0,1,1,1.83-1.83A1.84,1.84,0,0,1,139,449.52Zm0-2.67a.85.85,0,0,0-.84.84.84.84,0,1,0,.84-.84Z" transform="translate(-116.92 -98.56)"/><path d="M154.19,449.52a1.84,1.84,0,1,1,1.83-1.83A1.84,1.84,0,0,1,154.19,449.52Zm0-2.67a.85.85,0,0,0-.84.84.84.84,0,1,0,.84-.84Z" transform="translate(-116.92 -98.56)"/><path d="M161,449.52a1.84,1.84,0,1,1,1.84-1.83A1.83,1.83,0,0,1,161,449.52Zm0-2.67a.84.84,0,0,0-.83.84.84.84,0,0,0,1.67,0A.85.85,0,0,0,161,446.85Z" transform="translate(-116.92 -98.56)"/><path d="M146.45,449.52a1.84,1.84,0,1,1,1.84-1.83A1.83,1.83,0,0,1,146.45,449.52Zm0-2.67a.84.84,0,0,0-.83.84.84.84,0,0,0,1.67,0A.85.85,0,0,0,146.45,446.85Z" transform="translate(-116.92 -98.56)"/><path d="M139,456.69a1.83,1.83,0,1,1,1.83-1.83A1.84,1.84,0,0,1,139,456.69Zm0-2.66a.83.83,0,1,0,.83.83A.84.84,0,0,0,139,454Z" transform="translate(-116.92 -98.56)"/><path d="M154.19,456.69a1.83,1.83,0,1,1,1.83-1.83A1.84,1.84,0,0,1,154.19,456.69Zm0-2.66a.83.83,0,1,0,.83.83A.84.84,0,0,0,154.19,454Z" transform="translate(-116.92 -98.56)"/><path d="M161,456.69a1.83,1.83,0,1,1,1.84-1.83A1.83,1.83,0,0,1,161,456.69Zm0-2.66a.83.83,0,1,0,.84.83A.83.83,0,0,0,161,454Z" transform="translate(-116.92 -98.56)"/><path d="M146.45,456.69a1.83,1.83,0,1,1,1.84-1.83A1.83,1.83,0,0,1,146.45,456.69Zm0-2.66a.83.83,0,1,0,.84.83A.83.83,0,0,0,146.45,454Z" transform="translate(-116.92 -98.56)"/><path d="M327.11,443.41a1.84,1.84,0,1,1,1.83-1.83A1.84,1.84,0,0,1,327.11,443.41Zm0-2.67a.84.84,0,1,0,.83.84A.84.84,0,0,0,327.11,440.74Z" transform="translate(-116.92 -98.56)"/><path d="M342.3,443.41a1.84,1.84,0,1,1,1.83-1.83A1.84,1.84,0,0,1,342.3,443.41Zm0-2.67a.84.84,0,1,0,.83.84A.84.84,0,0,0,342.3,440.74Z" transform="translate(-116.92 -98.56)"/><path d="M349.09,443.41a1.84,1.84,0,1,1,1.83-1.83A1.85,1.85,0,0,1,349.09,443.41Zm0-2.67a.84.84,0,1,0,0,1.67.84.84,0,0,0,0-1.67Z" transform="translate(-116.92 -98.56)"/><path d="M334.57,443.41a1.84,1.84,0,1,1,1.83-1.83A1.85,1.85,0,0,1,334.57,443.41Zm0-2.67a.84.84,0,1,0,0,1.67.84.84,0,0,0,0-1.67Z" transform="translate(-116.92 -98.56)"/><path d="M327.11,449.52a1.84,1.84,0,1,1,1.83-1.83A1.83,1.83,0,0,1,327.11,449.52Zm0-2.67a.84.84,0,0,0-.83.84.83.83,0,0,0,1.66,0A.84.84,0,0,0,327.11,446.85Z" transform="translate(-116.92 -98.56)"/><path d="M342.3,449.52a1.84,1.84,0,1,1,1.83-1.83A1.83,1.83,0,0,1,342.3,449.52Zm0-2.67a.84.84,0,0,0-.83.84.83.83,0,0,0,1.66,0A.84.84,0,0,0,342.3,446.85Z" transform="translate(-116.92 -98.56)"/><path d="M349.09,449.52a1.84,1.84,0,1,1,1.83-1.83A1.84,1.84,0,0,1,349.09,449.52Zm0-2.67a.85.85,0,0,0-.84.84.84.84,0,0,0,.84.83.83.83,0,0,0,.83-.83A.84.84,0,0,0,349.09,446.85Z" transform="translate(-116.92 -98.56)"/><path d="M334.57,449.52a1.84,1.84,0,1,1,1.83-1.83A1.84,1.84,0,0,1,334.57,449.52Zm0-2.67a.85.85,0,0,0-.84.84.84.84,0,0,0,.84.83.83.83,0,0,0,.83-.83A.84.84,0,0,0,334.57,446.85Z" transform="translate(-116.92 -98.56)"/><path d="M327.11,456.69a1.83,1.83,0,1,1,1.83-1.83A1.83,1.83,0,0,1,327.11,456.69Zm0-2.66a.83.83,0,1,0,.83.83A.83.83,0,0,0,327.11,454Z" transform="translate(-116.92 -98.56)"/><path d="M342.3,456.69a1.83,1.83,0,1,1,1.83-1.83A1.83,1.83,0,0,1,342.3,456.69Zm0-2.66a.83.83,0,1,0,.83.83A.83.83,0,0,0,342.3,454Z" transform="translate(-116.92 -98.56)"/><path d="M349.09,456.69a1.83,1.83,0,1,1,1.83-1.83A1.84,1.84,0,0,1,349.09,456.69Zm0-2.66a.83.83,0,1,0,0,1.66.83.83,0,0,0,0-1.66Z" transform="translate(-116.92 -98.56)"/><path d="M334.57,456.69a1.83,1.83,0,1,1,1.83-1.83A1.84,1.84,0,0,1,334.57,456.69Zm0-2.66a.83.83,0,1,0,0,1.66.83.83,0,1,0,0-1.66Z" transform="translate(-116.92 -98.56)"/><line class="cls-3" x1="18.22" y1="33.84" x2="30.47" y2="42.53"/><path d="M147.39,142.09a1,1,0,0,1-.58-.19l-12.25-8.68a1,1,0,0,1-.24-1.39,1,1,0,0,1,1.4-.24L148,140.27a1,1,0,0,1-.58,1.82Z" transform="translate(-116.92 -98.56)"/><line class="cls-3" x1="234.59" y1="33.84" x2="222.34" y2="42.53"/><path d="M339.26,142.09a1,1,0,0,1-.58-1.82l12.26-8.68a1,1,0,0,1,1.15,1.63l-12.25,8.68A1,1,0,0,1,339.26,142.09Z" transform="translate(-116.92 -98.56)"/><line class="cls-3" x1="234.59" y1="195.62" x2="222.34" y2="186.94"/><path d="M351.52,295.18a1,1,0,0,1-.58-.18l-12.26-8.68a1,1,0,0,1,1.16-1.64l12.25,8.68a1,1,0,0,1,.24,1.4A1,1,0,0,1,351.52,295.18Z" transform="translate(-116.92 -98.56)"/><line class="cls-3" x1="18.22" y1="195.62" x2="30.47" y2="186.94"/><path d="M135.14,295.18a1,1,0,0,1-.82-.42,1,1,0,0,1,.24-1.4l12.25-8.68a1,1,0,1,1,1.16,1.64L135.72,295A1,1,0,0,1,135.14,295.18Z" transform="translate(-116.92 -98.56)"/></svg>