<svg width="463" height="446" viewBox="0 0 463 446" fill="none" xmlns="http://www.w3.org/2000/svg">
<g clip-path="url(#clip0_11_192)">
<path d="M323.878 336.666H247.089H216.188H139.4L110.633 369.025H192.973H270.343H352.683L323.878 336.666Z" fill="#d7d7d7"/>
<path fill-rule="evenodd" clip-rule="evenodd" d="M352.683 369.296H110.633C110.517 369.296 110.4 369.258 110.361 369.141C110.323 369.025 110.323 368.908 110.4 368.831L139.167 336.472C139.244 336.394 139.322 336.355 139.4 336.355H323.878C323.981 336.355 324.059 336.394 324.111 336.472L352.877 368.831C352.955 368.908 352.993 369.025 352.916 369.141C352.877 369.258 352.799 369.296 352.683 369.296ZM111.254 368.753H352.023L323.761 336.937H139.516L111.254 368.753Z" fill="#000001"/>
<path d="M110.633 369.025H352.683V379.384H110.633V369.025Z" fill="white"/>
<path fill-rule="evenodd" clip-rule="evenodd" d="M110.323 369.025C110.323 368.87 110.478 368.753 110.633 368.753H352.644C352.838 368.753 352.955 368.87 352.955 369.025V379.384C352.955 379.54 352.838 379.695 352.644 379.695H110.633C110.478 379.695 110.323 379.54 110.323 379.384V369.025ZM110.905 379.074H352.372V369.296H110.905V379.074Z" fill="#000001"/>
<g style="mix-blend-mode:multiply">
<path d="M287.735 354.048C287.735 359.17 262.269 361.459 230.823 361.459C199.417 361.459 173.95 359.17 173.95 354.048C173.95 348.926 199.417 344.775 230.823 344.775C262.269 344.775 287.735 348.926 287.735 354.048Z" fill="#CBCDCE"/>
</g>
<path d="M179.579 325.375V352.612C179.579 355.639 202.795 358.083 231.483 358.083C260.133 358.083 283.348 355.639 283.348 352.612V326.228L179.579 325.375Z" fill="white"/>
<path fill-rule="evenodd" clip-rule="evenodd" d="M231.483 358.355C206.172 358.355 179.308 356.337 179.308 352.612V325.375C179.308 325.297 179.334 325.233 179.385 325.181C179.424 325.103 179.502 325.064 179.579 325.103L283.348 325.918C283.504 325.918 283.62 326.034 283.62 326.228V352.612C283.62 356.337 256.756 358.355 231.483 358.355ZM179.89 325.646V352.612C179.89 355.057 201.048 357.773 231.483 357.773C261.88 357.773 283.077 355.057 283.077 352.612V326.5L179.89 325.646Z" fill="#000001"/>
<g style="mix-blend-mode:multiply">
<path d="M179.579 311.834V339.11C179.579 342.098 202.795 344.542 231.483 344.542C260.133 344.542 283.348 342.098 283.348 339.11V312.687L179.579 311.834Z" fill="#CBCDCE"/>
</g>
<g style="mix-blend-mode:screen" opacity="0.8">
<path d="M181.87 334.881V351.759C181.87 351.759 197.748 357.113 223.137 356.104C223.137 356.104 191.071 353.078 189.052 348.577V335.579L181.87 334.881Z" fill="white"/>
</g>
<path d="M70 283H393V335H70V283Z" fill="#d7d7d7"/>
<path fill-rule="evenodd" clip-rule="evenodd" d="M70 283.342C70 283.171 70.155 283 70.31 283H392.69C392.884 283 393 283.171 393 283.342V334.658C393 334.829 392.884 335 392.69 335H70.31C70.155 335 70 334.829 70 334.658V283.342ZM70.5812 334.317H392.419V283.64H70.5812V334.317Z" fill="#000001"/>
<g style="mix-blend-mode:multiply">
<path d="M70.1427 283.199H393.173V318.003H70.1427V283.199Z" fill="#CBCDCE"/>
</g>
<path d="M34.9707 -0.312408H428.307V314.045H34.9707V-0.312408Z" fill="white"/>
<path fill-rule="evenodd" clip-rule="evenodd" d="M34.699 -0.273615C34.699 -0.428815 34.8154 -0.584015 35.0095 -0.584015H428.306C428.462 -0.584015 428.617 -0.428815 428.617 -0.273615V314.045C428.617 314.2 428.462 314.356 428.306 314.356H35.0095C34.8154 314.356 34.699 314.2 34.699 314.045V-0.273615ZM35.2425 313.774H428.035V-0.00201488H35.2425V313.774Z" fill="#000001"/>
<path d="M42.6193 8.53064H419.682V306.595H42.6193V8.53064Z" fill="white"/>
<path fill-rule="evenodd" clip-rule="evenodd" d="M42.6193 8.89603C42.6193 8.71333 42.7519 8.53064 42.9729 8.53064H419.328C419.505 8.53064 419.682 8.71333 419.682 8.89603V306.23C419.682 306.458 419.505 306.595 419.328 306.595H42.9729C42.7519 306.595 42.6193 306.458 42.6193 306.23V8.89603ZM43.2822 305.91H419.019V9.21574H43.2822V305.91Z" fill="#000001"/>
<path d="M45.3126 11.222H416.988V303.904H45.3126V11.222Z" fill="#484B4C"/>
<path d="M405.667 389.31H57.597L3.28625 434.978H459.939L405.667 389.31Z" fill="white"/>
<path fill-rule="evenodd" clip-rule="evenodd" d="M459.939 435.25H3.2863C3.16984 435.25 3.0922 435.172 3.01456 435.056C2.97574 434.939 3.01456 434.823 3.13102 434.745L57.403 389.078C57.4547 389.052 57.5194 389.026 57.5971 389H405.667C405.719 389.026 405.771 389.052 405.823 389.078L460.133 434.745C460.211 434.823 460.25 434.939 460.211 435.056C460.172 435.172 460.056 435.25 459.939 435.25ZM4.10155 434.668H459.163L405.551 389.582H57.6747L4.10155 434.668Z" fill="#000001"/>
<path d="M3.28625 434.978H459.939V445.26H3.28625V434.978Z" fill="#d7d7d7"/>
<path fill-rule="evenodd" clip-rule="evenodd" d="M3.01453 434.978C3.01453 434.823 3.16981 434.668 3.3251 434.668H459.939C460.095 434.668 460.211 434.823 460.211 434.978V445.221C460.211 445.376 460.095 445.532 459.939 445.532H3.3251C3.16981 445.532 3.01453 445.376 3.01453 445.221V434.978ZM3.59684 444.95H459.668V435.25H3.59684V444.95Z" fill="#000001"/>
<path d="M64.8954 420.777L57.4806 429.158H75.2218L81.7826 420.777H64.8954Z" fill="#d7d7d7"/>
<path fill-rule="evenodd" clip-rule="evenodd" d="M75.2219 429.43H57.4806C57.3641 429.43 57.2477 429.391 57.2089 429.274C57.17 429.158 57.17 429.042 57.2477 428.964L64.7013 420.583C64.7531 420.531 64.8178 420.506 64.8954 420.506H81.7826C81.8991 420.506 82.0156 420.583 82.0544 420.661C82.0932 420.777 82.0932 420.894 82.0156 420.971L75.4548 429.352C75.416 429.391 75.3383 429.43 75.2219 429.43ZM58.1017 428.886H75.1054L81.2003 421.088H65.0507L58.1017 428.886Z" fill="#000001"/>
<path d="M46.6107 420.777L38.2642 429.158H55.9278L63.3814 420.777H46.6107Z" fill="#d7d7d7"/>
<path fill-rule="evenodd" clip-rule="evenodd" d="M55.9277 429.43H38.2641C38.1476 429.43 38.0312 429.391 37.9923 429.274C37.9535 429.158 37.9535 429.042 38.07 428.964L46.3777 420.583C46.4553 420.531 46.533 420.506 46.6106 420.506H63.3814C63.4978 420.506 63.5755 420.583 63.6531 420.661C63.6919 420.777 63.6531 420.894 63.5755 420.971L56.1606 429.352C56.083 429.404 56.0053 429.43 55.9277 429.43ZM38.9629 428.886H55.8112L62.7214 421.088H46.7271L38.9629 428.886Z" fill="#000001"/>
<path d="M83.2579 420.777L76.6971 429.158H94.5548L100.223 420.777H83.2579Z" fill="#d7d7d7"/>
<path fill-rule="evenodd" clip-rule="evenodd" d="M94.5547 429.43H76.697C76.5806 429.43 76.5029 429.391 76.4253 429.274C76.3865 429.197 76.3865 429.08 76.4641 428.964L83.0249 420.622C83.0637 420.544 83.1413 420.506 83.2578 420.506H100.223C100.3 420.506 100.417 420.544 100.456 420.661C100.533 420.738 100.494 420.855 100.456 420.932L94.7877 429.313C94.71 429.391 94.6324 429.43 94.5547 429.43ZM77.2793 428.886H94.3995L99.6791 421.088H83.3743L77.2793 428.886Z" fill="#000001"/>
<path d="M159.192 410.689L162.026 402.89H146.692L143.042 410.689H159.192Z" fill="#d7d7d7"/>
<path fill-rule="evenodd" clip-rule="evenodd" d="M159.192 411H143.042C142.965 411 142.887 410.922 142.809 410.844C142.771 410.767 142.771 410.65 142.809 410.573L146.459 402.774C146.497 402.696 146.575 402.619 146.692 402.619H162.026C162.104 402.619 162.181 402.658 162.259 402.735C162.298 402.813 162.298 402.929 162.298 403.007L159.464 410.806C159.425 410.922 159.308 411 159.192 411ZM143.508 410.418H158.998L161.599 403.201H146.886L143.508 410.418Z" fill="#000001"/>
<path d="M194.015 410.689L195.218 402.89H179.806L177.787 410.689H194.015Z" fill="#d7d7d7"/>
<path fill-rule="evenodd" clip-rule="evenodd" d="M194.015 411H177.787C177.671 411 177.593 410.961 177.554 410.883C177.477 410.806 177.477 410.728 177.516 410.612L179.534 402.813C179.534 402.696 179.651 402.619 179.806 402.619H195.218C195.296 402.619 195.373 402.658 195.451 402.735C195.503 402.787 195.516 402.852 195.49 402.929L194.286 410.728C194.247 410.883 194.131 411 194.015 411ZM178.137 410.418H193.743L194.869 403.201H180L178.137 410.418Z" fill="#000001"/>
<path d="M176.584 410.689L178.602 402.89H163.229L160.395 410.689H176.584Z" fill="#d7d7d7"/>
<path fill-rule="evenodd" clip-rule="evenodd" d="M176.584 411H160.395C160.318 411 160.24 410.922 160.162 410.844C160.124 410.767 160.124 410.689 160.124 410.612L162.958 402.813C162.996 402.696 163.113 402.619 163.229 402.619H178.603C178.68 402.619 178.797 402.658 178.835 402.735C178.874 402.813 178.913 402.89 178.874 402.968L176.856 410.767C176.817 410.883 176.739 411 176.584 411ZM160.822 410.418H176.351L178.253 403.201H163.423L160.822 410.418Z" fill="#000001"/>
<path d="M124.408 410.689L128.873 402.89H113.694L108.414 410.689H124.408Z" fill="#d7d7d7"/>
<path fill-rule="evenodd" clip-rule="evenodd" d="M124.408 411H108.414C108.336 411 108.22 410.922 108.181 410.844C108.142 410.728 108.142 410.612 108.181 410.534L113.461 402.735C113.538 402.658 113.616 402.619 113.694 402.619H128.873C128.989 402.619 129.067 402.658 129.106 402.774C129.183 402.852 129.183 402.968 129.106 403.046L124.68 410.844C124.602 410.922 124.525 411 124.408 411ZM108.957 410.418H124.253L128.368 403.201H113.849L108.957 410.418Z" fill="#000001"/>
<path d="M141.8 410.689L145.449 402.89H130.193L125.728 410.689H141.8Z" fill="#d7d7d7"/>
<path fill-rule="evenodd" clip-rule="evenodd" d="M141.8 411H125.728C125.651 411 125.534 410.922 125.495 410.844C125.418 410.767 125.418 410.65 125.495 410.573L129.96 402.774C129.998 402.658 130.076 402.619 130.193 402.619H145.449C145.527 402.619 145.643 402.658 145.682 402.735C145.721 402.813 145.721 402.929 145.682 403.007L142.072 410.806C141.994 410.922 141.917 411 141.8 411ZM126.233 410.418H141.606L144.983 403.201H130.348L126.233 410.418Z" fill="#000001"/>
<path d="M267.503 420.777L269.638 429.158H287.768L284.817 420.777H267.503Z" fill="#d7d7d7"/>
<path fill-rule="evenodd" clip-rule="evenodd" d="M287.768 429.43H269.638C269.483 429.43 269.366 429.352 269.366 429.236L267.231 420.855C267.192 420.777 267.231 420.7 267.27 420.622C267.348 420.544 267.425 420.506 267.503 420.506H284.817C284.934 420.506 285.05 420.583 285.089 420.7L288.039 429.042C288.078 429.158 288.078 429.236 288 429.313C287.962 429.391 287.884 429.43 287.768 429.43ZM269.832 428.886H287.379L284.623 421.088H267.891L269.832 428.886Z" fill="#000001"/>
<path d="M308.382 429.158H321.697L317.505 420.777H304.577L308.382 429.158Z" fill="#d7d7d7"/>
<path fill-rule="evenodd" clip-rule="evenodd" d="M321.697 429.43H308.382C308.265 429.43 308.149 429.391 308.11 429.274L304.305 420.894C304.267 420.816 304.267 420.7 304.305 420.622C304.383 420.544 304.461 420.506 304.577 420.506H317.505C317.621 420.506 317.737 420.544 317.776 420.661L321.93 429.042C321.969 429.119 321.969 429.236 321.93 429.313C321.891 429.391 321.775 429.43 321.697 429.43ZM308.537 428.886H321.231L317.349 421.088H305.004L308.537 428.886Z" fill="#000001"/>
<path d="M266.338 420.777H261.486H248.985H247.859H230.506H229.381H212.066H210.902H193.587H192.423H175.147H173.983H156.746H155.543H138.345H137.064H119.983H101.581L95.9135 429.158H115.169H133.182H134.424H152.476H153.718H171.809H173.012H191.142H192.306H210.475H211.6H229.769H230.933H249.102H250.266H262.961H268.435L266.338 420.777Z" fill="#d7d7d7"/>
<path fill-rule="evenodd" clip-rule="evenodd" d="M268.435 429.43H95.9135C95.8358 429.43 95.7194 429.391 95.6805 429.274C95.6417 429.197 95.6417 429.08 95.6805 429.003L101.348 420.622C101.426 420.544 101.504 420.506 101.581 420.506H266.338C266.455 420.506 266.571 420.583 266.61 420.7L268.706 429.08C268.745 429.158 268.706 429.274 268.668 429.313C268.629 429.391 268.512 429.43 268.435 429.43ZM96.457 428.886H268.085L266.105 421.088H101.737L96.457 428.886Z" fill="#000001"/>
<path d="M286.021 420.777L289.01 429.158H307.101L303.296 420.777H286.021Z" fill="#d7d7d7"/>
<path fill-rule="evenodd" clip-rule="evenodd" d="M307.1 429.43H289.01C288.855 429.43 288.777 429.352 288.738 429.236L285.749 420.894C285.71 420.777 285.749 420.7 285.788 420.622C285.827 420.544 285.943 420.506 286.021 420.506H303.296C303.412 420.506 303.529 420.583 303.568 420.661L307.372 429.042C307.411 429.119 307.411 429.236 307.333 429.313C307.295 429.391 307.217 429.43 307.1 429.43ZM289.204 428.886H306.673L303.102 421.088H286.448L289.204 428.886Z" fill="#000001"/>
<path d="M30.3834 420.777L20.9887 429.158H36.6336L44.9802 420.777H30.3834Z" fill="#d7d7d7"/>
<path fill-rule="evenodd" clip-rule="evenodd" d="M36.6336 429.43H20.9887C20.8722 429.43 20.7558 429.352 20.717 429.274C20.6781 429.158 20.717 429.003 20.7946 428.925L30.1893 420.583C30.2411 420.531 30.3058 420.506 30.3834 420.506H44.9802C45.0966 420.506 45.2131 420.583 45.2519 420.661C45.2907 420.777 45.2519 420.894 45.1743 420.971L36.8277 429.352C36.776 429.404 36.7113 429.43 36.6336 429.43ZM21.7263 428.886H36.5172L44.2814 421.088H30.4999L21.7263 428.886Z" fill="#000001"/>
<path d="M53.8702 411.853H40.3993L31.6646 419.652H46.106L53.8702 411.853Z" fill="#d7d7d7"/>
<path fill-rule="evenodd" clip-rule="evenodd" d="M46.106 419.924H31.6645C31.5481 419.924 31.4316 419.846 31.3928 419.73C31.354 419.613 31.3928 419.497 31.4704 419.419L40.2052 411.62C40.2828 411.569 40.3475 411.543 40.3993 411.543H53.8702C53.9867 411.543 54.1032 411.62 54.142 411.737C54.1808 411.853 54.1808 411.97 54.1032 412.047L46.3389 419.846C46.2613 419.898 46.1836 419.924 46.106 419.924ZM32.4021 419.342H45.9895L53.2103 412.125H40.5158L32.4021 419.342Z" fill="#000001"/>
<path d="M211.911 401.765L212.183 396.178H197.431L196.577 401.765H211.911Z" fill="#d7d7d7"/>
<path fill-rule="evenodd" clip-rule="evenodd" d="M211.911 402.037H196.577C196.473 402.037 196.396 402.011 196.344 401.959C196.292 401.882 196.266 401.804 196.266 401.726L197.159 396.139C197.159 395.984 197.275 395.906 197.431 395.906H212.183C212.26 395.906 212.338 395.932 212.416 395.984C212.467 396.036 212.493 396.1 212.493 396.178L212.183 401.765C212.183 401.92 212.066 402.037 211.911 402.037ZM196.887 401.455H211.639L211.911 396.45H197.664L196.887 401.455Z" fill="#000001"/>
<path d="M244.948 401.765L244.094 396.178H229.303L229.575 401.765H244.948Z" fill="#d7d7d7"/>
<path fill-rule="evenodd" clip-rule="evenodd" d="M244.948 402.037H229.575C229.419 402.037 229.303 401.92 229.264 401.765L228.992 396.178C228.992 396.1 229.018 396.036 229.07 395.984C229.148 395.932 229.225 395.906 229.303 395.906H244.094C244.249 395.906 244.365 395.984 244.404 396.139L245.22 401.726C245.245 401.804 245.232 401.882 245.181 401.959C245.129 402.011 245.051 402.037 244.948 402.037ZM229.846 401.455H244.637L243.861 396.45H229.575L229.846 401.455Z" fill="#000001"/>
<path d="M228.41 401.765L228.138 396.178H213.347L213.037 401.765H228.41Z" fill="#d7d7d7"/>
<path fill-rule="evenodd" clip-rule="evenodd" d="M228.41 402.037H213.037C212.959 402.037 212.895 402.011 212.843 401.959C212.791 401.907 212.765 401.83 212.765 401.726L213.076 396.178C213.076 396.023 213.192 395.906 213.347 395.906H228.138C228.294 395.906 228.41 396.023 228.41 396.178L228.721 401.726C228.721 401.83 228.695 401.907 228.643 401.959C228.565 402.011 228.488 402.037 228.41 402.037ZM213.347 401.455H228.138L227.867 396.45H213.619L213.347 401.455Z" fill="#000001"/>
<path d="M261.486 401.765L260.088 396.178H245.258L246.112 401.765H261.486Z" fill="#d7d7d7"/>
<path fill-rule="evenodd" clip-rule="evenodd" d="M261.486 402.037H246.112C245.957 402.037 245.841 401.92 245.841 401.804L244.987 396.217C244.961 396.139 244.987 396.062 245.064 395.984C245.116 395.932 245.181 395.906 245.258 395.906H260.088C260.205 395.906 260.321 395.984 260.36 396.1L261.796 401.688C261.796 401.765 261.796 401.882 261.719 401.92C261.68 401.998 261.602 402.037 261.486 402.037ZM246.345 401.455H261.136L259.855 396.45H245.608L246.345 401.455Z" fill="#000001"/>
<path d="M294.639 401.765L292.116 396.178H277.286L279.266 401.765H294.639Z" fill="#d7d7d7"/>
<path fill-rule="evenodd" clip-rule="evenodd" d="M294.639 402.037H279.266C279.149 402.037 279.072 401.959 278.994 401.843L277.053 396.256C277.014 396.178 277.014 396.1 277.053 396.023C277.131 395.945 277.208 395.906 277.286 395.906H292.116C292.232 395.906 292.31 395.945 292.348 396.062L294.911 401.649C294.949 401.726 294.949 401.843 294.872 401.92C294.833 401.998 294.755 402.037 294.639 402.037ZM279.499 401.455H294.212L291.921 396.45H277.713L279.499 401.455Z" fill="#000001"/>
<path d="M300.501 411.853L304.034 419.652H316.961L313.079 411.853H300.501Z" fill="#d7d7d7"/>
<path fill-rule="evenodd" clip-rule="evenodd" d="M316.961 419.924H304.034C303.917 419.924 303.84 419.846 303.762 419.768L300.229 411.97C300.19 411.892 300.19 411.776 300.268 411.698C300.307 411.62 300.384 411.543 300.501 411.543H313.079C313.157 411.543 313.273 411.62 313.312 411.737L317.194 419.497C317.233 419.613 317.233 419.691 317.194 419.807C317.116 419.885 317.039 419.924 316.961 419.924ZM304.228 419.342H316.495L312.885 412.125H300.928L304.228 419.342Z" fill="#000001"/>
<path d="M296.425 402.89L299.957 410.689H312.497L308.615 402.89H296.425Z" fill="#d7d7d7"/>
<path fill-rule="evenodd" clip-rule="evenodd" d="M312.497 411H299.957C299.841 411 299.763 410.922 299.724 410.806L296.153 403.007C296.114 402.929 296.114 402.813 296.192 402.735C296.231 402.658 296.347 402.619 296.425 402.619H308.615C308.731 402.619 308.809 402.696 308.847 402.774L312.73 410.573C312.807 410.65 312.768 410.767 312.73 410.844C312.691 410.922 312.574 411 312.497 411ZM300.152 410.418H312.031L308.42 403.201H296.891L300.152 410.418Z" fill="#000001"/>
<path d="M308.032 401.765L305.237 396.178H293.358L295.92 401.765H308.032Z" fill="#d7d7d7"/>
<path fill-rule="evenodd" clip-rule="evenodd" d="M308.032 402.037H295.92C295.804 402.037 295.687 401.959 295.648 401.882L293.086 396.294C293.047 396.217 293.086 396.1 293.125 396.023C293.164 395.945 293.28 395.906 293.358 395.906H305.237C305.354 395.906 305.47 395.945 305.509 396.062L308.304 401.61C308.343 401.726 308.343 401.804 308.265 401.92C308.226 401.998 308.149 402.037 308.032 402.037ZM296.075 401.455H307.566L305.082 396.45H293.824L296.075 401.455Z" fill="#000001"/>
<path d="M278.062 401.765L276.082 396.178H261.253L262.689 401.765H278.062Z" fill="#d7d7d7"/>
<path fill-rule="evenodd" clip-rule="evenodd" d="M278.062 402.037H262.689C262.573 402.037 262.456 401.959 262.417 401.843L260.981 396.256C260.981 396.178 260.981 396.062 261.059 395.984C261.097 395.945 261.175 395.906 261.292 395.906H276.082C276.199 395.906 276.315 395.945 276.354 396.062L278.334 401.649C278.373 401.765 278.334 401.843 278.295 401.92C278.256 401.998 278.14 402.037 278.062 402.037ZM262.922 401.455H277.674L275.888 396.45H261.641L262.922 401.455Z" fill="#000001"/>
<path d="M69.5151 396.178H58.0241L51.735 401.765H63.9249L69.5151 396.178Z" fill="#d7d7d7"/>
<path fill-rule="evenodd" clip-rule="evenodd" d="M63.9249 402.037H51.735C51.6186 402.037 51.5021 401.959 51.4633 401.843C51.4245 401.765 51.4633 401.61 51.5409 401.532L57.83 395.945C57.8817 395.919 57.9464 395.906 58.0241 395.906H69.4763C69.5928 395.906 69.7092 395.945 69.748 396.062C69.7869 396.178 69.7869 396.294 69.7092 396.372L64.119 401.959C64.0672 402.011 64.0025 402.037 63.9249 402.037ZM52.5115 401.455H63.8084L68.8163 396.45H58.1017L52.5115 401.455Z" fill="#000001"/>
<path d="M195.412 401.765L196.266 396.178H181.553L180.078 401.765H195.412Z" fill="#d7d7d7"/>
<path fill-rule="evenodd" clip-rule="evenodd" d="M195.412 402.037H180.078C180 402.037 179.922 401.998 179.884 401.92C179.806 401.843 179.806 401.765 179.806 401.688L181.242 396.1C181.281 395.984 181.398 395.906 181.553 395.906H196.266C196.344 395.906 196.421 395.932 196.499 395.984C196.551 396.062 196.564 396.139 196.538 396.217L195.684 401.804C195.645 401.959 195.529 402.037 195.412 402.037ZM180.466 401.455H195.14L195.917 396.45H181.747L180.466 401.455Z" fill="#000001"/>
<path d="M80.3075 401.765L85.2766 396.178H71.1068L65.5554 401.765H80.3075Z" fill="#d7d7d7"/>
<path fill-rule="evenodd" clip-rule="evenodd" d="M80.3074 402.037H65.5554C65.4389 402.037 65.3224 401.959 65.2836 401.882C65.2448 401.765 65.2836 401.649 65.3612 401.571L70.9127 395.984C70.9644 395.932 71.0291 395.906 71.1068 395.906H85.2765C85.393 395.906 85.4706 395.945 85.5482 396.062C85.5871 396.178 85.5482 396.294 85.4706 396.372L80.5015 401.959C80.4497 402.011 80.385 402.037 80.3074 402.037ZM66.2541 401.455H80.1909L84.6165 396.45H71.2232L66.2541 401.455Z" fill="#000001"/>
<path d="M62.7991 402.89H50.4539L41.7192 410.689H55.0348L62.7991 402.89Z" fill="#d7d7d7"/>
<path fill-rule="evenodd" clip-rule="evenodd" d="M55.0349 411H41.7192C41.5639 411 41.4863 410.922 41.4475 410.806C41.4087 410.689 41.4087 410.573 41.5251 410.495L50.2599 402.696C50.3116 402.645 50.3763 402.619 50.454 402.619H62.7991C62.9156 402.619 62.9932 402.696 63.0708 402.774C63.1097 402.89 63.0708 403.007 62.9932 403.123L55.229 410.883C55.1772 410.961 55.1125 411 55.0349 411ZM42.4568 410.418H54.9184L62.1003 403.201H50.5704L42.4568 410.418Z" fill="#000001"/>
<path d="M96.6899 401.765L101.077 396.178H86.7905L81.8214 401.765H96.6899Z" fill="#d7d7d7"/>
<path fill-rule="evenodd" clip-rule="evenodd" d="M96.69 402.037H81.8215C81.7438 402.037 81.6274 401.959 81.5885 401.882C81.5497 401.765 81.5497 401.649 81.6274 401.571L86.5965 395.984C86.6482 395.932 86.7129 395.906 86.7906 395.906H101.077C101.193 395.906 101.271 395.945 101.31 396.062C101.387 396.139 101.349 396.256 101.31 396.333L96.9229 401.92C96.8841 401.998 96.7676 402.037 96.69 402.037ZM82.4814 401.455H96.5735L100.494 396.45H86.9459L82.4814 401.455Z" fill="#000001"/>
<path d="M178.913 401.765L180.35 396.178H165.675L163.656 401.765H178.913Z" fill="#d7d7d7"/>
<path fill-rule="evenodd" clip-rule="evenodd" d="M178.913 402.037H163.656C163.54 402.037 163.462 401.998 163.423 401.92C163.346 401.843 163.346 401.765 163.385 401.649L165.403 396.062C165.442 395.945 165.559 395.906 165.675 395.906H180.349C180.427 395.906 180.544 395.945 180.582 395.984C180.621 396.062 180.66 396.178 180.621 396.256L179.185 401.843C179.146 401.959 179.03 402.037 178.913 402.037ZM164.045 401.455H178.68L180 396.45H165.869L164.045 401.455Z" fill="#000001"/>
<path d="M113.111 401.765L116.877 396.178H102.513L98.1652 401.765H113.111Z" fill="#d7d7d7"/>
<path fill-rule="evenodd" clip-rule="evenodd" d="M113.111 402.037H98.1651C98.0486 402.037 97.9322 401.998 97.8934 401.882C97.8545 401.765 97.8545 401.649 97.9322 401.571L102.28 395.984C102.358 395.945 102.435 395.906 102.513 395.906H116.877C116.993 395.906 117.071 395.945 117.149 396.023C117.187 396.139 117.187 396.256 117.11 396.333L113.344 401.92C113.305 401.998 113.189 402.037 113.111 402.037ZM98.7474 401.455H112.956L116.333 396.45H102.668L98.7474 401.455Z" fill="#000001"/>
<path d="M145.954 401.765L148.594 396.178H134.036L130.853 401.765H145.954Z" fill="#d7d7d7"/>
<path fill-rule="evenodd" clip-rule="evenodd" d="M145.954 402.037H130.853C130.736 402.037 130.658 401.998 130.62 401.882C130.542 401.804 130.542 401.688 130.62 401.61L133.803 396.023C133.842 395.945 133.958 395.906 134.036 395.906H148.594C148.671 395.906 148.788 395.945 148.827 396.023C148.866 396.1 148.866 396.217 148.827 396.294L146.226 401.882C146.187 401.959 146.07 402.037 145.954 402.037ZM131.357 401.455H145.799L148.128 396.45H134.23L131.357 401.455Z" fill="#000001"/>
<path d="M129.533 401.765L132.716 396.178H118.274L114.47 401.765H129.533Z" fill="#d7d7d7"/>
<path fill-rule="evenodd" clip-rule="evenodd" d="M129.533 402.037H114.47C114.392 402.037 114.276 401.998 114.237 401.882C114.198 401.804 114.198 401.688 114.237 401.61L118.042 396.023C118.08 395.945 118.158 395.906 118.274 395.906H132.716C132.832 395.906 132.91 395.945 132.988 396.023C133.026 396.1 133.026 396.217 132.988 396.333L129.766 401.882C129.727 401.998 129.649 402.037 129.533 402.037ZM115.013 401.455H129.377L132.211 396.45H118.43L115.013 401.455Z" fill="#000001"/>
<path d="M162.414 401.765L164.472 396.178H149.836L147.235 401.765H162.414Z" fill="#d7d7d7"/>
<path fill-rule="evenodd" clip-rule="evenodd" d="M162.414 402.037H147.235C147.157 402.037 147.041 401.998 147.002 401.92C146.963 401.843 146.925 401.726 146.963 401.649L149.603 396.062C149.642 395.945 149.72 395.906 149.836 395.906H164.472C164.549 395.906 164.627 395.945 164.705 396.023C164.743 396.1 164.743 396.178 164.743 396.256L162.686 401.843C162.647 401.959 162.569 402.037 162.414 402.037ZM147.701 401.455H162.22L164.045 396.45H150.03L147.701 401.455Z" fill="#000001"/>
<path d="M263.776 410.689L261.796 402.89H246.307L247.471 410.689H263.776Z" fill="#d7d7d7"/>
<path fill-rule="evenodd" clip-rule="evenodd" d="M263.776 411H247.471C247.316 411 247.199 410.883 247.199 410.728L245.996 402.929C245.996 402.852 246.022 402.787 246.074 402.735C246.125 402.658 246.203 402.619 246.307 402.619H261.796C261.913 402.619 262.029 402.696 262.068 402.852L264.048 410.612C264.048 410.728 264.048 410.806 264.009 410.883C263.931 410.961 263.854 411 263.776 411ZM247.704 410.418H263.388L261.563 403.201H246.617L247.704 410.418Z" fill="#000001"/>
<path d="M281.246 410.689L278.489 402.89H262.961L264.941 410.689H281.246Z" fill="#d7d7d7"/>
<path fill-rule="evenodd" clip-rule="evenodd" d="M281.246 411H264.941C264.824 411 264.708 410.883 264.669 410.767L262.689 402.968C262.689 402.89 262.689 402.813 262.767 402.735C262.806 402.658 262.883 402.619 262.961 402.619H278.489C278.606 402.619 278.683 402.696 278.761 402.813L281.517 410.612C281.517 410.689 281.517 410.806 281.479 410.883C281.401 410.922 281.323 411 281.246 411ZM265.174 410.418H280.819L278.256 403.201H263.349L265.174 410.418Z" fill="#000001"/>
<path d="M245.142 402.89H229.614L230.002 410.689H246.307L245.142 402.89Z" fill="#d7d7d7"/>
<path fill-rule="evenodd" clip-rule="evenodd" d="M246.307 411H230.002C229.846 411 229.73 410.883 229.73 410.728L229.342 402.929C229.342 402.852 229.368 402.774 229.419 402.696C229.471 402.645 229.536 402.619 229.613 402.619H245.142C245.258 402.619 245.375 402.735 245.414 402.852L246.578 410.65C246.604 410.728 246.591 410.806 246.539 410.883C246.462 410.961 246.384 411 246.307 411ZM230.273 410.418H245.996L244.87 403.201H229.924L230.273 410.418Z" fill="#000001"/>
<path d="M228.488 402.89H212.998L212.571 410.689H228.876L228.488 402.89Z" fill="#d7d7d7"/>
<path fill-rule="evenodd" clip-rule="evenodd" d="M228.876 411H212.571C212.493 411 212.429 410.961 212.377 410.883C212.325 410.831 212.299 410.767 212.299 410.689L212.687 402.89C212.726 402.735 212.843 402.619 212.998 402.619H228.488C228.643 402.619 228.759 402.735 228.759 402.89L229.148 410.689C229.148 410.767 229.122 410.831 229.07 410.883C229.018 410.961 228.954 411 228.876 411ZM212.882 410.418H228.565L228.216 403.201H213.27L212.882 410.418Z" fill="#000001"/>
<path d="M212.532 411.853L212.105 419.652H229.303L228.915 411.853H212.532Z" fill="#d7d7d7"/>
<path fill-rule="evenodd" clip-rule="evenodd" d="M229.303 419.924H212.105C212.028 419.924 211.963 419.898 211.911 419.846C211.859 419.768 211.833 419.691 211.833 419.613L212.222 411.814C212.222 411.659 212.377 411.543 212.532 411.543H228.915C229.07 411.543 229.187 411.659 229.225 411.814L229.614 419.613C229.614 419.717 229.588 419.794 229.536 419.846C229.458 419.898 229.381 419.924 229.303 419.924ZM212.416 419.342H228.992L228.643 412.125H212.804L212.416 419.342Z" fill="#000001"/>
<path d="M247.626 411.853L248.83 419.652H266.028L264.048 411.853H247.626Z" fill="#d7d7d7"/>
<path fill-rule="evenodd" clip-rule="evenodd" d="M266.028 419.924H248.83C248.675 419.924 248.558 419.807 248.558 419.691L247.355 411.892C247.355 411.814 247.381 411.737 247.432 411.659C247.484 411.582 247.549 411.543 247.626 411.543H264.048C264.203 411.543 264.32 411.659 264.32 411.776L266.299 419.574C266.338 419.652 266.299 419.73 266.261 419.807C266.222 419.885 266.105 419.924 266.028 419.924ZM249.063 419.342H265.678L263.854 412.125H247.976L249.063 419.342Z" fill="#000001"/>
<path d="M230.079 411.853L230.468 419.652H247.665L246.501 411.853H230.079Z" fill="#d7d7d7"/>
<path fill-rule="evenodd" clip-rule="evenodd" d="M247.665 419.924H230.468C230.312 419.924 230.196 419.807 230.157 419.652L229.769 411.853C229.769 411.776 229.795 411.711 229.846 411.659C229.924 411.582 230.002 411.543 230.079 411.543H246.501C246.617 411.543 246.734 411.659 246.772 411.814L247.937 419.613C247.963 419.691 247.95 419.768 247.898 419.846C247.821 419.898 247.743 419.924 247.665 419.924ZM230.739 419.342H247.316L246.229 412.125H230.39L230.739 419.342Z" fill="#000001"/>
<path d="M107.055 410.689L112.335 402.89H97.2723L91.1385 410.689H107.055Z" fill="#d7d7d7"/>
<path fill-rule="evenodd" clip-rule="evenodd" d="M107.055 411H91.1385C91.022 411 90.9444 410.922 90.9055 410.806C90.8279 410.728 90.8667 410.612 90.9055 410.534L97.0393 402.735C97.0781 402.658 97.1557 402.619 97.2722 402.619H112.335C112.451 402.619 112.529 402.658 112.568 402.774C112.645 402.852 112.607 402.968 112.568 403.046L107.288 410.844C107.249 410.922 107.133 411 107.055 411ZM91.7208 410.418H106.9L111.791 403.201H97.3887L91.7208 410.418Z" fill="#000001"/>
<path d="M282.876 411.853L285.632 419.652H302.791L299.22 411.853H282.876Z" fill="#d7d7d7"/>
<path fill-rule="evenodd" clip-rule="evenodd" d="M302.791 419.924H285.632C285.516 419.924 285.399 419.846 285.361 419.73L282.604 411.931C282.565 411.853 282.565 411.737 282.604 411.698C282.682 411.62 282.76 411.543 282.876 411.543H299.22C299.336 411.543 299.453 411.62 299.492 411.737L303.024 419.536C303.063 419.613 303.063 419.73 303.024 419.807C302.985 419.885 302.869 419.924 302.791 419.924ZM285.826 419.342H302.325L299.064 412.125H283.264L285.826 419.342Z" fill="#000001"/>
<path d="M265.251 411.853L267.231 419.652H284.39L281.634 411.853H265.251Z" fill="#d7d7d7"/>
<path fill-rule="evenodd" clip-rule="evenodd" d="M284.39 419.924H267.231C267.076 419.924 266.959 419.846 266.921 419.73L264.98 411.931C264.941 411.814 264.98 411.737 265.018 411.659C265.057 411.582 265.135 411.543 265.251 411.543H281.634C281.75 411.543 281.867 411.62 281.906 411.737L284.662 419.536C284.701 419.652 284.701 419.73 284.623 419.807C284.584 419.885 284.507 419.924 284.39 419.924ZM267.425 419.342H284.002L281.44 412.125H265.601L267.425 419.342Z" fill="#000001"/>
<path d="M195.179 410.689H211.445L211.833 402.89H196.383L195.179 410.689Z" fill="#d7d7d7"/>
<path fill-rule="evenodd" clip-rule="evenodd" d="M211.445 411H195.179C195.076 411 194.998 410.961 194.946 410.883C194.894 410.806 194.869 410.728 194.869 410.65L196.111 402.852C196.111 402.735 196.227 402.619 196.383 402.619H211.833C211.911 402.619 211.989 402.645 212.066 402.696C212.118 402.774 212.144 402.852 212.144 402.929L211.717 410.728C211.717 410.883 211.601 411 211.445 411ZM195.49 410.418H211.173L211.523 403.201H196.616L195.49 410.418Z" fill="#000001"/>
<path d="M298.715 410.689L295.182 402.89H279.693L282.449 410.689H298.715Z" fill="#d7d7d7"/>
<path fill-rule="evenodd" clip-rule="evenodd" d="M298.715 411H282.449C282.333 411 282.216 410.922 282.177 410.806L279.421 403.007C279.382 402.929 279.382 402.813 279.46 402.735C279.499 402.658 279.615 402.619 279.693 402.619H295.182C295.26 402.619 295.377 402.696 295.415 402.774L298.987 410.573C299.026 410.65 298.987 410.767 298.948 410.844C298.909 410.922 298.793 411 298.715 411ZM282.643 410.418H298.249L294.988 403.201H280.081L282.643 410.418Z" fill="#000001"/>
<path d="M72.8538 411.853L65.9436 419.652H82.6755L88.8093 411.853H72.8538Z" fill="#d7d7d7"/>
<path fill-rule="evenodd" clip-rule="evenodd" d="M82.6755 419.924H65.9436C65.8272 419.924 65.7107 419.846 65.6719 419.768C65.633 419.652 65.633 419.536 65.7107 419.458L72.6597 411.659C72.7114 411.582 72.7761 411.543 72.8538 411.543H88.8093C88.8869 411.543 89.0034 411.62 89.0422 411.737C89.1198 411.814 89.081 411.931 89.0034 412.008L82.9084 419.807C82.8696 419.885 82.792 419.924 82.6755 419.924ZM66.5647 419.342H82.5591L88.1881 412.125H73.0091L66.5647 419.342Z" fill="#000001"/>
<path d="M90.2456 411.853L84.1507 419.652H100.999L106.279 411.853H90.2456Z" fill="#d7d7d7"/>
<path fill-rule="evenodd" clip-rule="evenodd" d="M100.999 419.924H84.1507C84.0342 419.924 83.9178 419.846 83.879 419.768C83.8401 419.652 83.8401 419.536 83.9178 419.458L90.0127 411.659C90.0903 411.582 90.168 411.543 90.2456 411.543H106.279C106.395 411.543 106.473 411.62 106.512 411.698C106.589 411.814 106.551 411.931 106.512 412.008L101.232 419.807C101.193 419.885 101.077 419.924 100.999 419.924ZM84.733 419.342H100.844L105.735 412.125H90.4009L84.733 419.342Z" fill="#000001"/>
<path d="M79.2981 402.89H64.4296L56.6265 410.689H72.3491L79.2981 402.89Z" fill="#d7d7d7"/>
<path fill-rule="evenodd" clip-rule="evenodd" d="M72.3491 411H56.6265C56.5101 411 56.4324 410.922 56.3936 410.806C56.3548 410.689 56.3548 410.573 56.4324 410.495L64.1967 402.696C64.2484 402.645 64.3261 402.619 64.4296 402.619H79.2981C79.4145 402.619 79.4922 402.696 79.531 402.774C79.6086 402.89 79.5698 403.007 79.4922 403.084L72.582 410.883C72.5044 410.961 72.4267 411 72.3491 411ZM57.3253 410.418H72.2326L78.6381 403.201H64.546L57.3253 410.418Z" fill="#000001"/>
<path d="M55.5007 411.853L47.7365 419.652H64.3907L71.3397 411.853H55.5007Z" fill="#d7d7d7"/>
<path fill-rule="evenodd" clip-rule="evenodd" d="M64.3907 419.924H47.7364C47.62 419.924 47.5035 419.846 47.4647 419.768C47.4259 419.652 47.4647 419.536 47.5423 419.458L55.3066 411.659C55.3583 411.582 55.423 411.543 55.5007 411.543H71.3397C71.4562 411.543 71.5338 411.62 71.6114 411.737C71.6503 411.814 71.6114 411.97 71.5338 412.047L64.6236 419.846C64.546 419.898 64.4684 419.924 64.3907 419.924ZM48.4352 419.342H64.2742L70.6797 412.125H55.6171L48.4352 419.342Z" fill="#000001"/>
<path d="M107.638 411.853L102.358 419.652H119.284L123.748 411.853H107.638Z" fill="#d7d7d7"/>
<path fill-rule="evenodd" clip-rule="evenodd" d="M119.284 419.924H102.358C102.28 419.924 102.164 419.885 102.125 419.768C102.086 419.691 102.086 419.574 102.125 419.497L107.405 411.698C107.482 411.62 107.56 411.543 107.637 411.543H123.748C123.865 411.543 123.942 411.62 124.02 411.698C124.059 411.776 124.059 411.892 124.02 411.97L119.556 419.768C119.478 419.885 119.4 419.924 119.284 419.924ZM102.901 419.342H119.129L123.282 412.125H107.793L102.901 419.342Z" fill="#000001"/>
<path d="M142.538 411.853L138.889 419.652H155.931L158.765 411.853H142.538Z" fill="#d7d7d7"/>
<path fill-rule="evenodd" clip-rule="evenodd" d="M155.931 419.924H138.888C138.772 419.924 138.694 419.885 138.656 419.807C138.578 419.73 138.578 419.613 138.617 419.536L142.266 411.737C142.305 411.62 142.421 411.543 142.538 411.543H158.765C158.881 411.543 158.959 411.62 158.998 411.698C159.075 411.776 159.075 411.853 159.037 411.931L156.203 419.73C156.164 419.846 156.047 419.924 155.931 419.924ZM139.316 419.342H155.737L158.377 412.125H142.693L139.316 419.342Z" fill="#000001"/>
<path d="M177.477 411.853L175.458 419.652H192.617L193.82 411.853H177.477Z" fill="#d7d7d7"/>
<path fill-rule="evenodd" clip-rule="evenodd" d="M192.617 419.924H175.458C175.38 419.924 175.303 419.885 175.225 419.807C175.186 419.73 175.147 419.652 175.186 419.574L177.205 411.776C177.244 411.659 177.36 411.543 177.477 411.543H193.82C193.924 411.543 194.002 411.582 194.053 411.659C194.105 411.737 194.118 411.814 194.092 411.892L192.889 419.691C192.889 419.807 192.772 419.924 192.617 419.924ZM175.846 419.342H192.384L193.51 412.125H177.71L175.846 419.342Z" fill="#000001"/>
<path d="M125.068 411.853L120.604 419.652H137.607L141.257 411.853H125.068Z" fill="#d7d7d7"/>
<path fill-rule="evenodd" clip-rule="evenodd" d="M137.607 419.924H120.604C120.526 419.924 120.41 419.885 120.371 419.768C120.332 419.691 120.332 419.574 120.371 419.497L124.835 411.698C124.874 411.62 124.991 411.543 125.068 411.543H141.257C141.373 411.543 141.451 411.62 141.489 411.698C141.567 411.776 141.567 411.892 141.528 411.97L137.879 419.768C137.84 419.846 137.724 419.924 137.607 419.924ZM121.108 419.342H137.452L140.791 412.125H125.262L121.108 419.342Z" fill="#000001"/>
<path d="M160.007 411.853L157.173 419.652H174.293L176.312 411.853H160.007Z" fill="#d7d7d7"/>
<path fill-rule="evenodd" clip-rule="evenodd" d="M174.293 419.924H157.173C157.057 419.924 156.979 419.885 156.94 419.807C156.863 419.73 156.863 419.613 156.902 419.536L159.735 411.737C159.774 411.62 159.852 411.543 160.007 411.543H176.312C176.39 411.543 176.467 411.582 176.506 411.659C176.584 411.737 176.584 411.814 176.584 411.931L174.565 419.73C174.526 419.846 174.41 419.924 174.293 419.924ZM157.562 419.342H174.06L175.924 412.125H160.201L157.562 419.342Z" fill="#000001"/>
<path d="M89.7021 410.689L95.797 402.89H80.8121L73.9019 410.689H89.7021Z" fill="#d7d7d7"/>
<path fill-rule="evenodd" clip-rule="evenodd" d="M89.7021 411H73.9019C73.7855 411 73.669 410.922 73.6302 410.806C73.5914 410.728 73.5914 410.612 73.669 410.495L80.618 402.696C80.6697 402.645 80.7344 402.619 80.8121 402.619H95.797C95.9135 402.619 95.9912 402.696 96.0688 402.774C96.1076 402.89 96.1076 403.007 96.03 403.084L89.9351 410.883C89.8574 410.961 89.7798 411 89.7021 411ZM74.5231 410.418H89.5468L95.2147 403.201H80.9674L74.5231 410.418Z" fill="#000001"/>
<path d="M193.782 419.652H210.941L211.368 411.853H194.985L193.782 419.652Z" fill="#d7d7d7"/>
<path fill-rule="evenodd" clip-rule="evenodd" d="M210.941 419.924H193.782C193.678 419.924 193.6 419.898 193.549 419.846C193.497 419.768 193.484 419.691 193.51 419.613L194.713 411.814C194.713 411.659 194.83 411.543 194.985 411.543H211.368C211.445 411.543 211.51 411.582 211.562 411.659C211.639 411.711 211.665 411.776 211.639 411.853L211.251 419.652C211.251 419.807 211.096 419.924 210.941 419.924ZM194.092 419.342H210.669L211.057 412.125H195.218L194.092 419.342Z" fill="#000001"/>
<path d="M410.054 410.689L401.358 402.89H391.769L399.223 410.689H410.054Z" fill="#d7d7d7"/>
<path fill-rule="evenodd" clip-rule="evenodd" d="M410.054 411H399.223C399.145 411 399.081 410.961 399.029 410.883L391.575 403.084C391.498 403.007 391.459 402.89 391.536 402.774C391.575 402.696 391.653 402.619 391.769 402.619H401.358C401.436 402.619 401.501 402.645 401.552 402.696L410.248 410.495C410.326 410.573 410.365 410.689 410.326 410.806C410.287 410.922 410.171 411 410.054 411ZM399.34 410.418H409.278L401.242 403.201H392.468L399.34 410.418Z" fill="#000001"/>
<path d="M432.299 429.158H445.847L435.133 420.777H422.982L432.299 429.158Z" fill="#d7d7d7"/>
<path fill-rule="evenodd" clip-rule="evenodd" d="M445.847 429.43H432.299C432.221 429.43 432.156 429.404 432.105 429.352L422.787 421.01C422.71 420.932 422.671 420.777 422.71 420.7C422.749 420.583 422.865 420.506 422.982 420.506H435.133C435.21 420.506 435.275 420.519 435.327 420.544L446.041 428.925C446.119 429.003 446.158 429.119 446.119 429.236C446.08 429.352 445.964 429.43 445.847 429.43ZM432.415 428.886H445.032L435.055 421.088H423.758L432.415 428.886Z" fill="#000001"/>
<path d="M408.851 420.777L416.848 429.158H430.591L421.273 420.777H408.851Z" fill="#d7d7d7"/>
<path fill-rule="evenodd" clip-rule="evenodd" d="M430.591 429.43H416.848C416.77 429.43 416.706 429.404 416.654 429.352L408.657 420.971C408.579 420.894 408.579 420.777 408.618 420.661C408.657 420.583 408.773 420.506 408.851 420.506H421.273C421.351 420.506 421.416 420.531 421.468 420.583L430.785 428.925C430.862 429.042 430.901 429.158 430.862 429.274C430.823 429.352 430.707 429.43 430.591 429.43ZM417.003 428.886H429.853L421.157 421.088H409.549L417.003 428.886Z" fill="#000001"/>
<path d="M381.094 420.777L388.004 429.158H400.194L393.128 420.777H381.094Z" fill="#d7d7d7"/>
<path fill-rule="evenodd" clip-rule="evenodd" d="M400.194 429.43H388.004C387.926 429.43 387.848 429.391 387.771 429.352L380.861 420.971C380.783 420.894 380.783 420.777 380.822 420.661C380.861 420.583 380.977 420.506 381.094 420.506H393.128C393.206 420.506 393.27 420.544 393.322 420.622L400.426 428.964C400.504 429.042 400.504 429.158 400.465 429.274C400.427 429.391 400.31 429.43 400.194 429.43ZM388.12 428.886H399.572L392.973 421.088H381.676L388.12 428.886Z" fill="#000001"/>
<path d="M394.642 420.777L401.708 429.158H415.295L407.298 420.777H394.642Z" fill="#d7d7d7"/>
<path fill-rule="evenodd" clip-rule="evenodd" d="M415.295 429.43H401.708C401.63 429.43 401.552 429.404 401.475 429.352L394.409 420.971C394.332 420.894 394.332 420.777 394.37 420.661C394.409 420.583 394.526 420.506 394.642 420.506H407.298C407.376 420.506 407.44 420.531 407.492 420.583L415.489 428.964C415.567 429.042 415.606 429.158 415.528 429.274C415.489 429.391 415.411 429.43 415.295 429.43ZM401.824 428.886H414.596L407.143 421.088H395.225L401.824 428.886Z" fill="#000001"/>
<path d="M397.631 410.689L390.217 402.89H379.502L386.102 410.689H397.631Z" fill="#d7d7d7"/>
<path fill-rule="evenodd" clip-rule="evenodd" d="M397.631 411H386.102C385.998 411 385.92 410.961 385.869 410.883L379.269 403.084C379.191 403.007 379.191 402.89 379.23 402.774C379.269 402.696 379.385 402.619 379.502 402.619H390.217C390.294 402.619 390.359 402.645 390.411 402.696L397.864 410.495C397.942 410.573 397.942 410.689 397.903 410.806C397.864 410.922 397.748 411 397.631 411ZM386.218 410.418H396.971L390.061 403.201H380.123L386.218 410.418Z" fill="#000001"/>
<path d="M400.31 411.853L407.764 419.652H419.992L411.335 411.853H400.31Z" fill="#d7d7d7"/>
<path fill-rule="evenodd" clip-rule="evenodd" d="M419.992 419.924H407.764C407.686 419.924 407.621 419.898 407.57 419.846L400.116 412.047C400.038 411.97 400 411.853 400.077 411.737C400.116 411.62 400.194 411.543 400.31 411.543H411.335C411.387 411.543 411.452 411.569 411.529 411.62L420.186 419.419C420.264 419.497 420.303 419.652 420.264 419.73C420.225 419.846 420.109 419.924 419.992 419.924ZM407.88 419.342H419.255L411.219 412.125H401.009L407.88 419.342Z" fill="#000001"/>
<path d="M387.072 411.853L393.672 419.652H406.172L398.757 411.853H387.072Z" fill="#d7d7d7"/>
<path fill-rule="evenodd" clip-rule="evenodd" d="M406.172 419.924H393.672C393.568 419.924 393.49 419.885 393.439 419.807L386.839 412.047C386.761 411.931 386.761 411.814 386.8 411.737C386.839 411.62 386.956 411.543 387.072 411.543H398.757C398.835 411.543 398.9 411.582 398.951 411.659L406.405 419.458C406.483 419.536 406.483 419.652 406.444 419.768C406.405 419.846 406.289 419.924 406.172 419.924ZM393.788 419.342H405.512L398.602 412.125H387.693L393.788 419.342Z" fill="#000001"/>
<path d="M377.988 402.89H366.264L372.708 410.689H384.587L377.988 402.89Z" fill="#d7d7d7"/>
<path fill-rule="evenodd" clip-rule="evenodd" d="M384.587 411H372.708C372.631 411 372.553 410.961 372.514 410.883L366.07 403.084C365.992 403.007 365.953 402.89 366.031 402.774C366.07 402.696 366.147 402.619 366.264 402.619H377.988C378.066 402.619 378.143 402.658 378.221 402.735L384.82 410.495C384.859 410.612 384.898 410.728 384.859 410.806C384.782 410.922 384.704 411 384.587 411ZM372.863 410.418H383.966L377.833 403.201H366.885L372.863 410.418Z" fill="#000001"/>
<path d="M373.679 411.853L380.123 419.652H392.158L385.558 411.853H373.679Z" fill="#d7d7d7"/>
<path fill-rule="evenodd" clip-rule="evenodd" d="M392.158 419.924H380.123C380.045 419.924 379.968 419.885 379.89 419.807L373.446 412.008C373.368 411.931 373.368 411.814 373.407 411.737C373.446 411.62 373.562 411.543 373.679 411.543H385.558C385.636 411.543 385.713 411.582 385.791 411.659L392.352 419.458C392.429 419.536 392.468 419.652 392.429 419.768C392.352 419.846 392.274 419.924 392.158 419.924ZM380.278 419.342H391.536L385.403 412.125H374.3L380.278 419.342Z" fill="#000001"/>
<path d="M378.648 419.652L372.204 411.853H361.683L367.467 419.652H378.648Z" fill="#d7d7d7"/>
<path fill-rule="evenodd" clip-rule="evenodd" d="M378.648 419.924H367.467C367.39 419.924 367.312 419.885 367.234 419.807L361.45 412.008C361.411 411.931 361.372 411.814 361.45 411.698C361.489 411.62 361.567 411.543 361.683 411.543H372.204C372.281 411.543 372.359 411.582 372.398 411.659L378.842 419.458C378.92 419.536 378.958 419.652 378.881 419.768C378.842 419.846 378.764 419.924 378.648 419.924ZM367.623 419.342H378.027L372.048 412.125H362.265L367.623 419.342Z" fill="#000001"/>
<path d="M410.753 401.765L403.61 396.178H395.574L401.785 401.765H410.753Z" fill="#d7d7d7"/>
<path fill-rule="evenodd" clip-rule="evenodd" d="M410.753 402.037H401.785C401.734 402.037 401.682 402.011 401.63 401.959L395.38 396.372C395.302 396.294 395.263 396.178 395.302 396.062C395.38 395.945 395.457 395.906 395.574 395.906H403.61C403.688 395.906 403.752 395.919 403.804 395.945L410.947 401.532C411.025 401.61 411.064 401.726 411.025 401.843C410.986 401.959 410.908 402.037 410.753 402.037ZM401.902 401.455H409.938L403.532 396.45H396.35L401.902 401.455Z" fill="#000001"/>
<path d="M400.077 401.765L393.866 396.178H385.364L390.682 401.765H400.077Z" fill="#d7d7d7"/>
<path fill-rule="evenodd" clip-rule="evenodd" d="M400.077 402.037H390.682C390.605 402.037 390.54 402.011 390.488 401.959L385.131 396.372C385.053 396.294 385.053 396.178 385.092 396.062C385.131 395.945 385.247 395.906 385.364 395.906H393.866C393.943 395.906 394.008 395.919 394.06 395.945L400.271 401.532C400.349 401.61 400.388 401.765 400.349 401.843C400.31 401.959 400.194 402.037 400.077 402.037ZM390.799 401.455H399.34L393.749 396.45H386.024L390.799 401.455Z" fill="#000001"/>
<path d="M368.321 420.777L374.533 429.158H386.529L379.58 420.777H368.321Z" fill="#d7d7d7"/>
<path fill-rule="evenodd" clip-rule="evenodd" d="M386.529 429.43H374.533C374.455 429.43 374.339 429.391 374.3 429.313L368.088 420.971C368.011 420.855 368.011 420.738 368.05 420.661C368.127 420.544 368.205 420.506 368.321 420.506H379.58C379.657 420.506 379.735 420.544 379.812 420.622L386.723 428.964C386.8 429.042 386.8 429.197 386.761 429.274C386.723 429.391 386.606 429.43 386.529 429.43ZM374.688 428.886H385.907L379.463 421.088H368.904L374.688 428.886Z" fill="#000001"/>
<path d="M389.091 401.765L383.772 396.178H373.795L378.531 401.765H389.091Z" fill="#d7d7d7"/>
<path fill-rule="evenodd" clip-rule="evenodd" d="M389.091 402.037H378.531C378.428 402.037 378.35 402.011 378.298 401.959L373.562 396.372C373.485 396.256 373.485 396.139 373.523 396.062C373.562 395.945 373.679 395.906 373.795 395.906H383.772C383.85 395.906 383.915 395.932 383.966 395.984L389.324 401.571C389.401 401.649 389.401 401.765 389.362 401.882C389.324 401.959 389.207 402.037 389.091 402.037ZM378.648 401.455H388.431L383.656 396.45H374.416L378.648 401.455Z" fill="#000001"/>
<path d="M411.762 410.689H422.205L412.228 402.89H403.066L411.762 410.689Z" fill="#d7d7d7"/>
<path fill-rule="evenodd" clip-rule="evenodd" d="M422.205 411H411.762C411.685 411 411.62 410.974 411.568 410.922L402.872 403.123C402.795 403.046 402.756 402.929 402.795 402.813C402.872 402.696 402.95 402.619 403.066 402.619H412.228C412.306 402.619 412.371 402.645 412.422 402.696L422.399 410.456C422.477 410.534 422.516 410.689 422.477 410.806C422.438 410.922 422.361 411 422.205 411ZM411.879 410.418H421.39L412.151 403.201H403.843L411.879 410.418Z" fill="#000001"/>
<path d="M413.043 411.853L421.7 419.652H433.657L423.68 411.853H413.043Z" fill="#d7d7d7"/>
<path fill-rule="evenodd" clip-rule="evenodd" d="M433.657 419.924H421.701C421.649 419.924 421.584 419.898 421.506 419.846L412.849 412.047C412.772 411.97 412.733 411.853 412.772 411.737C412.811 411.62 412.927 411.543 413.043 411.543H423.68C423.758 411.543 423.823 411.569 423.875 411.62L433.852 419.419C433.929 419.497 433.968 419.613 433.929 419.73C433.89 419.846 433.813 419.924 433.657 419.924ZM421.817 419.342H432.842L423.603 412.125H413.781L421.817 419.342Z" fill="#000001"/>
<path d="M377.017 401.765L372.281 396.178H360.713L365.332 401.765H377.017Z" fill="#d7d7d7"/>
<path fill-rule="evenodd" clip-rule="evenodd" d="M377.017 402.037H365.332C365.255 402.037 365.177 401.998 365.099 401.92L360.48 396.372C360.402 396.256 360.402 396.139 360.441 396.062C360.48 395.945 360.596 395.906 360.713 395.906H372.281C372.385 395.906 372.462 395.932 372.514 395.984L377.25 401.571C377.289 401.649 377.328 401.765 377.289 401.882C377.212 401.959 377.134 402.037 377.017 402.037ZM365.449 401.455H376.396L372.165 396.45H361.334L365.449 401.455Z" fill="#000001"/>
<path d="M359.237 396.178H350.076L354.191 401.765H363.857L359.237 396.178Z" fill="#d7d7d7"/>
<path fill-rule="evenodd" clip-rule="evenodd" d="M363.857 402.037H354.19C354.113 402.037 354.035 401.998 353.958 401.92L349.843 396.333C349.765 396.256 349.765 396.139 349.804 396.062C349.843 395.945 349.959 395.906 350.075 395.906H359.237C359.315 395.906 359.393 395.906 359.431 395.984L364.051 401.571C364.129 401.649 364.129 401.765 364.09 401.882C364.051 401.959 363.935 402.037 363.857 402.037ZM354.346 401.455H363.236L359.082 396.45H350.619L354.346 401.455Z" fill="#000001"/>
<path d="M371.233 410.689L364.789 402.89H355.045L360.829 410.689H371.233Z" fill="#d7d7d7"/>
<path fill-rule="evenodd" clip-rule="evenodd" d="M371.233 411H360.829C360.751 411 360.674 410.961 360.596 410.883L354.812 403.084C354.773 402.968 354.734 402.89 354.812 402.774C354.85 402.696 354.967 402.619 355.045 402.619H364.789C364.866 402.619 364.944 402.658 365.022 402.735L371.466 410.534C371.544 410.612 371.544 410.728 371.505 410.806C371.466 410.922 371.349 411 371.233 411ZM360.984 410.418H370.612L364.633 403.201H355.627L360.984 410.418Z" fill="#000001"/>
<path d="M331.558 411.853L335.906 419.652H347.785L342.855 411.853H331.558Z" fill="#d7d7d7"/>
<path fill-rule="evenodd" clip-rule="evenodd" d="M347.785 419.924H335.906C335.789 419.924 335.712 419.885 335.673 419.768L331.286 411.97C331.247 411.892 331.247 411.776 331.286 411.698C331.364 411.62 331.441 411.543 331.558 411.543H342.855C342.971 411.543 343.049 411.62 343.127 411.698L348.057 419.497C348.096 419.574 348.096 419.691 348.057 419.768C348.018 419.885 347.902 419.924 347.785 419.924ZM336.061 419.342H347.28L342.699 412.125H332.024L336.061 419.342Z" fill="#000001"/>
<path d="M336.566 420.777L341.224 429.158H353.802L348.523 420.777H336.566Z" fill="#d7d7d7"/>
<path fill-rule="evenodd" clip-rule="evenodd" d="M353.802 429.43H341.224C341.147 429.43 341.03 429.391 340.991 429.313L336.294 420.932C336.255 420.855 336.255 420.738 336.294 420.661C336.372 420.544 336.449 420.506 336.566 420.506H348.523C348.639 420.506 348.717 420.544 348.756 420.622L354.074 429.003C354.113 429.08 354.113 429.197 354.074 429.313C354.035 429.391 353.919 429.43 353.802 429.43ZM341.418 428.886H353.298L348.367 421.088H337.032L341.418 428.886Z" fill="#000001"/>
<path d="M321.853 420.777L326.589 429.158H339.904L335.246 420.777H321.853Z" fill="#d7d7d7"/>
<path fill-rule="evenodd" clip-rule="evenodd" d="M339.904 429.43H326.589C326.472 429.43 326.356 429.391 326.317 429.313L321.581 420.932C321.542 420.855 321.542 420.738 321.62 420.661C321.658 420.544 321.736 420.506 321.853 420.506H335.246C335.323 420.506 335.44 420.544 335.479 420.661L340.176 429.003C340.215 429.119 340.215 429.197 340.176 429.313C340.098 429.391 340.021 429.43 339.904 429.43ZM326.744 428.886H339.439L335.052 421.088H322.357L326.744 428.886Z" fill="#000001"/>
<path d="M355.161 429.158H368.438L362.615 420.777H349.881L355.161 429.158Z" fill="#d7d7d7"/>
<path fill-rule="evenodd" clip-rule="evenodd" d="M368.438 429.43H355.161C355.083 429.43 355.006 429.391 354.928 429.313L349.648 420.932C349.571 420.855 349.571 420.738 349.648 420.661C349.687 420.544 349.765 420.506 349.881 420.506H362.615C362.692 420.506 362.809 420.544 362.848 420.622L368.671 429.003C368.748 429.08 368.748 429.197 368.71 429.274C368.671 429.391 368.554 429.43 368.438 429.43ZM355.355 428.886H367.894L362.459 421.088H350.425L355.355 428.886Z" fill="#000001"/>
<g style="mix-blend-mode:multiply" opacity="0.5">
<path d="M305.135 319H339.865C341.498 319 343.061 319.637 344.21 320.764C345.358 321.891 346 323.415 346 325C346 326.585 345.358 328.109 344.21 329.236C343.061 330.363 341.498 331 339.865 331H305.135C303.502 331 301.939 330.363 300.79 329.236C299.642 328.109 299 326.585 299 325C299 323.415 299.642 321.891 300.79 320.764C301.939 319.637 303.502 319 305.135 319Z" fill="#6E3638"/>
<path d="M305.135 319H339.865C341.498 319 343.061 319.637 344.21 320.764C345.358 321.891 346 323.415 346 325C346 326.585 345.358 328.109 344.21 329.236C343.061 330.363 341.498 331 339.865 331H305.135C303.502 331 301.939 330.363 300.79 329.236C299.642 328.109 299 326.585 299 325C299 323.415 299.642 321.891 300.79 320.764C301.939 319.637 303.502 319 305.135 319Z" stroke="black" stroke-width="2"/>
</g>
<g style="mix-blend-mode:multiply" opacity="0.5">
<path d="M123.135 319H157.865C159.498 319 161.061 319.637 162.21 320.764C163.358 321.891 164 323.415 164 325C164 326.585 163.358 328.109 162.21 329.236C161.061 330.363 159.498 331 157.865 331H123.135C121.502 331 119.939 330.363 118.79 329.236C117.642 328.109 117 326.585 117 325C117 323.415 117.642 321.891 118.79 320.764C119.939 319.637 121.502 319 123.135 319Z" fill="#6E3638"/>
<path d="M123.135 319H157.865C159.498 319 161.061 319.637 162.21 320.764C163.358 321.891 164 323.415 164 325C164 326.585 163.358 328.109 162.21 329.236C161.061 330.363 159.498 331 157.865 331H123.135C121.502 331 119.939 330.363 118.79 329.236C117.642 328.109 117 326.585 117 325C117 323.415 117.642 321.891 118.79 320.764C119.939 319.637 121.502 319 123.135 319Z" stroke="black" stroke-width="2"/>
</g>
<path d="M340.276 320H304.724C302.115 320 300 322.125 300 324.746V326.254C300 328.875 302.115 331 304.724 331H340.276C342.885 331 345 328.875 345 326.254V324.746C345 322.125 342.885 320 340.276 320Z" fill="#FDC756"/>
<path d="M158.276 320H122.724C120.115 320 118 322.125 118 324.746V326.254C118 328.875 120.115 331 122.724 331H158.276C160.885 331 163 328.875 163 326.254V324.746C163 322.125 160.885 320 158.276 320Z" fill="#FDC756"/>
<path d="M301.393 326C301.393 323.401 303.636 321.304 306.406 321.304H337.594C340.364 321.304 342.607 323.401 342.607 326H344C344 322.687 341.128 320 337.594 320H306.406C302.872 320 300 322.643 300 326H301.393Z" fill="white"/>
<path d="M119.393 326C119.393 323.401 121.636 321.304 124.406 321.304H155.594C158.364 321.304 160.607 323.401 160.607 326H162C162 322.687 159.128 320 155.594 320H124.406C120.872 320 118 322.643 118 326H119.393Z" fill="white"/>
</g>
<defs>
<clipPath id="clip0_11_192">
<rect width="463" height="446" fill="white"/>
</clipPath>
</defs>
</svg>
