<svg xmlns="http://www.w3.org/2000/svg" xmlns:xlink="http://www.w3.org/1999/xlink" viewBox="0 0 1500 2700"><defs><style>.cls-1{isolation:isolate;}.cls-11,.cls-12,.cls-13,.cls-14,.cls-16,.cls-2,.cls-20,.cls-21,.cls-3,.cls-4,.cls-5,.cls-6,.cls-7,.cls-8,.cls-9{fill-rule:evenodd;}.cls-2{fill:url(#Áåçûìÿííûé_ãðàäèåíò_114);}.cls-3{fill:#3b5265;}.cls-4{fill:#658634;}.cls-5{fill:url(#Áåçûìÿííûé_ãðàäèåíò_82);}.cls-6{fill:#659f68;}.cls-7{fill:url(#Áåçûìÿííûé_ãðàäèåíò_88);}.cls-8{fill:url(#Áåçûìÿííûé_ãðàäèåíò_48);}.cls-9{fill:url(#Áåçûìÿííûé_ãðàäèåíò_48-2);}.cls-10{fill:url(#Áåçûìÿííûé_ãðàäèåíò_25);}.cls-11{fill:url(#Áåçûìÿííûé_ãðàäèåíò_82-2);}.cls-12{fill:url(#Áåçûìÿííûé_ãðàäèåíò_103);}.cls-13{fill:url(#Áåçûìÿííûé_ãðàäèåíò_48-3);}.cls-14{fill:#7f9d34;}.cls-15{fill:#184b5e;opacity:0.5;}.cls-16{fill:url(#Áåçûìÿííûé_ãðàäèåíò_108);}.cls-17,.cls-23{mix-blend-mode:soft-light;}.cls-18{fill:#cfffba;}.cls-19,.cls-22{fill:#a4006d;mix-blend-mode:multiply;}.cls-19{opacity:0.47;}.cls-20{fill:url(#Áåçûìÿííûé_ãðàäèåíò_49);}.cls-21{fill:#9fb334;}.cls-22{opacity:0.2;}.cls-23{fill:#ffffb5;}</style><linearGradient id="Áåçûìÿííûé_ãðàäèåíò_114" x1="-8122.519" y1="3389.38" x2="-8122.519" y2="2840.237" gradientTransform="matrix(-0.977, -0.215, -0.215, 0.977, -6484.321, -3889.339)" gradientUnits="userSpaceOnUse"><stop offset="0.011" stop-color="#158984"/><stop offset="0.657" stop-color="#326169"/><stop offset="1" stop-color="#434a59"/></linearGradient><linearGradient id="Áåçûìÿííûé_ãðàäèåíò_82" x1="-7902.376" y1="3375.257" x2="-7902.376" y2="2825.827" gradientTransform="matrix(-0.977, -0.215, -0.215, 0.977, -6484.321, -3889.339)" gradientUnits="userSpaceOnUse"><stop offset="0" stop-color="#434a59"/><stop offset="0.121" stop-color="#3d4c5c"/><stop offset="0.989" stop-color="#155670"/></linearGradient><linearGradient id="Áåçûìÿííûé_ãðàäèåíò_88" x1="-7766.184" y1="3324.175" x2="-7766.184" y2="2848.547" gradientTransform="matrix(-0.977, -0.215, -0.215, 0.977, -6484.321, -3889.339)" gradientUnits="userSpaceOnUse"><stop offset="0" stop-color="#434a59"/><stop offset="0.953" stop-color="#164f51"/><stop offset="0.989" stop-color="#155670"/></linearGradient><linearGradient id="Áåçûìÿííûé_ãðàäèåíò_48" x1="-7842.722" y1="2999.806" x2="-7530.541" y2="2999.806" gradientTransform="matrix(-0.977, -0.215, -0.215, 0.977, -6484.321, -3889.339)" gradientUnits="userSpaceOnUse"><stop offset="0" stop-color="#668b3e"/><stop offset="0.14" stop-color="#6c923d"/><stop offset="1" stop-color="#8eba36"/></linearGradient><linearGradient id="Áåçûìÿííûé_ãðàäèåíò_48-2" x1="-7548.677" y1="3238.135" x2="-7529.708" y2="3238.135" xlink:href="#Áåçûìÿííûé_ãðàäèåíò_48"/><linearGradient id="Áåçûìÿííûé_ãðàäèåíò_25" x1="-8200.771" y1="4741.023" x2="-8200.771" y2="2855.176" gradientTransform="matrix(-0.977, -0.215, -0.215, 0.977, -6484.321, -3889.339)" gradientUnits="userSpaceOnUse"><stop offset="0" stop-color="#de815b"/><stop offset="1" stop-color="#a52731"/></linearGradient><linearGradient id="Áåçûìÿííûé_ãðàäèåíò_82-2" x1="-8782.524" y1="2755.533" x2="-8015.627" y2="2755.533" xlink:href="#Áåçûìÿííûé_ãðàäèåíò_82"/><linearGradient id="Áåçûìÿííûé_ãðàäèåíò_103" x1="-8001.361" y1="2751.393" x2="-7241" y2="2751.393" gradientTransform="matrix(-0.977, -0.215, -0.215, 0.977, -6484.321, -3889.339)" gradientUnits="userSpaceOnUse"><stop offset="0" stop-color="#434a59"/><stop offset="0.12" stop-color="#3d4f5a"/><stop offset="0.978" stop-color="#157261"/></linearGradient><linearGradient id="Áåçûìÿííûé_ãðàäèåíò_48-3" x1="-8001.361" y1="2749.328" x2="-7241" y2="2749.328" xlink:href="#Áåçûìÿííûé_ãðàäèåíò_48"/><linearGradient id="Áåçûìÿííûé_ãðàäèåíò_108" x1="-8698.962" y1="2699.156" x2="-7980.369" y2="2699.156" gradientTransform="matrix(-0.977, -0.215, -0.215, 0.977, -6484.321, -3889.339)" gradientUnits="userSpaceOnUse"><stop offset="0.022" stop-color="#157f61"/><stop offset="0.774" stop-color="#38575b"/><stop offset="1" stop-color="#434a59"/></linearGradient><linearGradient id="Áåçûìÿííûé_ãðàäèåíò_49" x1="-8698.962" y1="2689.34" x2="-7980.369" y2="2689.34" gradientTransform="matrix(-0.977, -0.215, -0.215, 0.977, -6484.321, -3889.339)" gradientUnits="userSpaceOnUse"><stop offset="0" stop-color="#8eba36"/><stop offset="0.86" stop-color="#6c923d"/><stop offset="1" stop-color="#668b3e"/></linearGradient></defs><g class="cls-1"><g id="Layer_1" data-name="Layer 1"><path class="cls-2" d="M675.736,898.071l86.707-63.193-69.072,83.507a406.373,406.373,0,0,0,15.367,58.052c43.972,128.448,139.939,216.453,139.939,216.453,35.748-71.776,53.568-142.319,61.807-203.339l-71.848-55.367,74.856,28.935A677.823,677.823,0,0,0,915,851.3c-2.245-31.056-5.982-49.229-5.982-49.229l-77.771-28.42,88.3,4.067,4.4.178c-1.416-1.591-2.878-3.251-4.4-4.925-65.3-72.132-184.936-167.41-184.936-167.41l-37.49,6.31c-1.829,4.164-3.554,8.412-5.138,12.569C636.49,765.851,675.736,898.071,675.736,898.071Z"/><path class="cls-3" d="M699.626,605.438S701.4,410.308,719.137,346,933.582,64.794,933.582,64.794L877.716,182.847,834.83,200.083l30.709,2.607S852.4,269.933,818.47,353.735,699.626,605.438,699.626,605.438Z"/><path class="cls-4" d="M933.582,64.794,821.055,244.286l-23.16-7.217L819.119,250.5,803.6,278.394l-22.051-14.6,20.5,19.571-2.2,7.044-23.621-22.362,17.639,29.134s-39.931,47.106-58.827,103.04-35.418,205.216-35.418,205.216,1.709-209.7,12.441-261.641S933.582,64.794,933.582,64.794Z"/><path class="cls-5" d="M686.919,580.325S539.146,695.191,490.038,764.3s-56.751,322.825-56.751,322.825,93.7-46.729,146.642-114.517l-22.647-85.935L593.2,959.156l25.9-58.9-43.593-41.648,50.7,28.957s65.653-69.207,89.76-260.915Z"/><path class="cls-6" d="M433.291,1086.726C447.645,958.557,490.145,889.3,490.145,889.3c-5.959-36.317-3.625-92.912-3.434-96.827,1.947,33.244,11.163,64.432,11.163,64.432l6.462-9.173L492.7,780.454l12.9,41.313,22.7-33.487-16.238-29.993,22.525,29.365c10.867-14.536,22.322-28.152,33.935-40.82C604.9,707.1,642.754,676.7,668.549,657.951l.07-.045c19.35-14.072,31.832-21.557,31.832-21.557l-22.809-26.688s-45.5,11.733-94.425,41.527c-5.546,3.347-11.213,6.972-16.816,10.854l-.154.149c-36.6,25.257-72.33,60.935-89.967,109.6C433.241,890.307,433.231,1077.032,433.291,1086.726Z"/><path class="cls-7" d="M715.969,626.651,489.084,670.808,430.39,586.494l38.763,96.318S251.67,815.719,174.687,977.973c0,0-17.051-223.75,149.737-451.46L711.73,609.042Z"/><path class="cls-8" d="M324.423,526.538C261.2,597.268,224.6,684.016,203.445,762.532l20.51,56.259c54.207-102.3,130.729-149.345,130.729-149.345L321.157,567.707l49.478,96.478,17.324-16.771-64.746-89.057,88.113,80.8,144.2-24.253-21.184-52.085Z"/><path class="cls-9" d="M191.666,896.991l1.4-91.138c-20.5,96.864-18.406,172.088-18.406,172.088a459.355,459.355,0,0,1,16.989-80.892Z"/><path class="cls-4" d="M193.108,805.679l-.038.174,5.547,70.321a429.168,429.168,0,0,1,18.821-44.63l-13.993-69.012C199.467,777.305,196.056,791.715,193.108,805.679Z"/><path class="cls-3" d="M700.419,636.367l-3.278-24.49s31.171-152.148,122.017-189.756l32.688,132.016Z"/><path class="cls-10" d="M688.479,622.3s43.027,158.893,63.977,471.841c21.527,321.184,19.661,804.582-75.964,1444.812l52.2,11.474s116.525-790.182,55.526-1502.8c-12.8-149.456-33.386-295.444-64.51-430.052Z"/><path class="cls-11" d="M734.619,605.559l183.26-161.737S1203.6,547.433,1477.64,797.467L990.011,661.534,965.789,532.09,970.9,666.011,878.9,643.18l2.55-115.4L850.436,647.263,740.514,632.047Z"/><path class="cls-12" d="M710.288,649.793,652.255,455.129S326.177,249.253,25.857,221.786L204.617,356.73l59-62.8-60.3,80.119,79.72,60.014,49.047-74.617-32.279,78.3S417.708,546.837,498.49,590.6s211.8,59.2,211.8,59.2Z"/><path class="cls-13" d="M710.288,649.793S692.712,565.382,550.71,435.628l3.487-15.866-17.8,12.72L389.144,361.511l7.112-32.351-22.707,26.821L350.967,339.22l12.215-17.331-21.235,15.349S142.212,242.13,25.857,221.786c0,0,308.761,22.211,635.2,224.24C661.053,446.026,698.614,529.46,710.288,649.793Z"/><path class="cls-4" d="M1477.64,797.467s-172.224-83.6-348.877-140.64l-14.054-131.971.953,133.294s-129.326-51.613-310.705-46.97l20.957-86.194L791.1,608.135l-86.56,9.466s124.733-157.369,286.135-137.76S1442.08,749.935,1477.64,797.467Z"/><polygon class="cls-14" points="1128.763 656.827 1121.126 570.903 1126.236 575.33 1161.601 573.722 1245.651 698.2 1128.763 656.827"/><polygon class="cls-14" points="1115.662 658.15 1113.716 564.482 1101.572 659.861 1115.662 658.15"/><polygon class="cls-15" points="1217.186 583.53 1185.111 676.772 1114.016 665.638 721.138 615.082 768.784 496.885 1055.194 491.141 1217.186 583.53"/><path class="cls-16" d="M751.652,363.843s245.93-24.483,340.435,3.267,352,193.762,352,193.762l-313.41,23.479-28.345-57.521-27.107,39.535-259.763-12.02L772.5,457.99l16.934,113.3L725.01,632.025l-13.28-22.983Z"/><g class="cls-17"><path class="cls-18" d="M730.258,865.846c17.754-11.956,34.6-.986,34.77-.875l1.846-2.769c-.181-.119-18.9-12.3-38.472.886Z"/><path class="cls-18" d="M746.517,1001.248c13.3-17.987,31.861-5.809,32.643-5.281l1.864-2.758c-.228-.143-21.973-14.533-37.186,6.059Z"/><path class="cls-18" d="M756.917,1147.86c17.306-18.937,32.538-8.189,33.169-7.728l1.973-2.68c-.18-.123-18.214-13.044-37.6,8.164Z"/><path class="cls-18" d="M763.644,1322.569c14.49-17.9,33.93-2.657,34.757-2l2.074-2.592c-.21-.193-22.871-17.924-39.417,2.5Z"/><path class="cls-18" d="M764.31,1539.559c6.72-11.619,14.105-18.148,21.941-19.406a18.546,18.546,0,0,1,14.208,3.868l2.21-2.482a21.829,21.829,0,0,0-16.946-4.676c-8.872,1.43-17.048,8.5-24.292,21.025Z"/><path class="cls-18" d="M760.557,1696.252c23.211-5.3,36.965,5.757,37.1,5.873l2.126-2.56c-.609-.5-15.059-12.228-39.961-6.563Z"/><path class="cls-18" d="M747.432,1913.165c19.148-15.934,39.9,2.456,40.779,3.241l2.231-2.464c-.226-.209-23.755-21.133-45.136-3.334Z"/><path class="cls-18" d="M722.012,2190.526c26.446-7.755,45.927,3.035,46.116,3.144l1.648-2.892c-.846-.486-20.842-11.595-48.7-3.452Z"/></g><path class="cls-19" d="M688.479,622.3s43.027,158.893,63.977,471.841l31.758-46.51c-12.8-149.456-33.386-295.444-64.51-430.052Z"/><path class="cls-20" d="M1444.091,560.872S1245.5,464.084,1098.472,450.609l-27.8-58.323,15.558,74.234-20.078-4.414-14.636-74.031-2.348,70.3S908.841,440.28,772.5,457.99l-14.888-82.308,1.31,119.3-47.2,114.062,39.922-245.2s196.26-30.778,325.381-.48S1444.091,560.872,1444.091,560.872Z"/><path class="cls-4" d="M684.851,623.2l-37.062,73.458-4.328,19.688,30.478-44.423L643.25,726.342s-6.371,44.3-2.964,65.665S687.3,877.381,687.3,877.381s20.582-69.138,28.716-109.643l-38.9-44,40.259,38.148,2.671-12.152-40.157-31.9,42,23.536s1.806-91.063-7.878-129.953l-10.478-5.12Z"/><path class="cls-4" d="M725.01,632.025s193.878,50.592,272.574,94.608S1116.123,816.8,1116.123,816.8l-114.185-43.713L990.516,740.7l3.963,26.64L935.838,743.8l-7.763-33.488-5.12,26.785-9.65-4,5.649-32.024-11.426,28S775.124,648.389,725.01,632.025Z"/><polygon class="cls-21" points="1049.171 458.373 1051.438 359.152 984.353 351.232 968.411 451.843 1049.171 458.373"/><path class="cls-21" d="M1098.472,450.609l-38.923-90.329s36.7,1.9,98.174,32.059l110.535,97.685S1187.21,465.354,1098.472,450.609Z"/><polygon class="cls-14" points="560.462 388.855 536.398 432.482 389.144 361.511 399.18 315.855 560.462 388.855"/><polygon class="cls-14" points="387.959 647.414 313.641 541.605 305.251 549.502 370.635 664.185 387.959 647.414"/><polygon class="cls-14" points="217.438 831.544 204.766 757.706 193.014 809.45 198.617 876.174 217.438 831.544"/><polygon class="cls-14" points="803.597 278.394 819.119 250.501 789.995 228.864 768.732 255.394 803.597 278.394"/><path class="cls-14" d="M761.968,343.026l-27.3-41.578L719.01,326.8l20.01,63.76S753.943,355.943,761.968,343.026Z"/><path class="cls-14" d="M716.017,767.738l-38.9-44s-8.1,42.7-8.809,58.7S687.3,877.381,687.3,877.381Z"/><polygon class="cls-14" points="721.888 741.37 721.38 689.949 688.442 672.231 679.892 717.834 721.888 741.37"/><polygon class="cls-14" points="935.838 743.804 926.157 694.925 989.458 722.273 994.479 767.344 935.838 743.804"/><polygon class="cls-14" points="758.926 494.98 760.611 362.542 751.652 363.843 729.31 501.061 730.132 569.417 758.926 494.98"/><path class="cls-22" d="M619.256,504.815l-46.973,115.7s-106.911-31.1-169.666-95.56l74.375-121.1L536.4,432.482l17.8-12.72-3.487,15.866S586.752,465.36,619.256,504.815Z"/><polygon class="cls-22" points="204.617 356.73 258.063 299.851 125.634 248.85 89.077 269.509 204.617 356.73"/><path class="cls-15" d="M566.247,662.191l2.277,84.641C604.9,707.1,642.754,676.7,668.549,657.951l.07-.045,8.391-14.351-29.917-4.323-63.876,11.956c-5.546,3.347-11.213,6.972-16.816,10.854Z"/><path class="cls-23" d="M752.456,1094.143s63.947,821.639-75.964,1444.812C676.492,2538.955,789.329,1915.174,752.456,1094.143Z"/></g></g></svg>