<svg xmlns="http://www.w3.org/2000/svg" xmlns:xlink="http://www.w3.org/1999/xlink" viewBox="0 0 2000 2700"><defs><style>.cls-1{isolation:isolate;}.cls-10,.cls-11,.cls-12,.cls-13,.cls-14,.cls-15,.cls-16,.cls-17,.cls-18,.cls-19,.cls-2,.cls-20,.cls-21,.cls-22,.cls-23,.cls-24,.cls-25,.cls-3,.cls-4,.cls-5,.cls-6,.cls-7,.cls-8,.cls-9{fill-rule:evenodd;}.cls-2{fill:url(#Безымянный_градиент_418);}.cls-3,.cls-5,.cls-9{opacity:0.48;}.cls-14,.cls-15,.cls-21,.cls-23,.cls-3,.cls-5,.cls-9{mix-blend-mode:multiply;}.cls-3{fill:url(#Безымянный_градиент_343);}.cls-4{fill:url(#Безымянный_градиент_418-2);}.cls-5{fill:url(#Безымянный_градиент_343-2);}.cls-6{fill:url(#Безымянный_градиент_411);}.cls-7{fill:url(#Безымянный_градиент_390);}.cls-8{fill:url(#Безымянный_градиент_418-3);}.cls-9{fill:url(#Безымянный_градиент_343-3);}.cls-10{fill:url(#Безымянный_градиент_422);}.cls-11,.cls-25{fill:#b7d442;mix-blend-mode:soft-light;}.cls-11,.cls-14,.cls-23{opacity:0.5;}.cls-12{fill:url(#Безымянный_градиент_411-2);}.cls-13{fill:url(#Безымянный_градиент_400);}.cls-14{fill:#aebce0;}.cls-15{fill:#ae9acc;}.cls-16{fill:url(#Безымянный_градиент_411-3);}.cls-17{fill:url(#Безымянный_градиент_397);}.cls-18{fill:#2c4f28;}.cls-19{fill:url(#Безымянный_градиент_405);}.cls-20{fill:url(#Безымянный_градиент_402);}.cls-21{fill:#9abce0;}.cls-22{fill:#e79d6c;}.cls-23{fill:#da86e0;}.cls-24{fill:#7caa33;}.cls-25{opacity:0.64;}</style><linearGradient id="Безымянный_градиент_418" x1="747.47" y1="1424.005" x2="747.47" y2="502.623" gradientTransform="matrix(-0.828, -0.56, -0.56, 0.828, 1628.607, 475.225)" gradientUnits="userSpaceOnUse"><stop offset="0" stop-color="#a4e100"/><stop offset="1" stop-color="#427440"/></linearGradient><linearGradient id="Безымянный_градиент_343" x1="519.515" y1="968.627" x2="992.577" y2="968.627" gradientTransform="matrix(-0.828, -0.56, -0.56, 0.828, 1628.607, 475.225)" gradientUnits="userSpaceOnUse"><stop offset="0" stop-color="#e7f9cc"/><stop offset="1" stop-color="#a47e6b"/></linearGradient><linearGradient id="Безымянный_градиент_418-2" x1="656.753" y1="1565.845" x2="656.753" y2="583.14" gradientTransform="translate(266.515 -88.511) rotate(11.298)" xlink:href="#Безымянный_градиент_418"/><linearGradient id="Безымянный_градиент_343-2" x1="381.26" y1="1074.492" x2="932.246" y2="1074.492" gradientTransform="translate(266.515 -88.511) rotate(11.298)" xlink:href="#Безымянный_градиент_343"/><linearGradient id="Безымянный_градиент_411" x1="502.269" y1="724.686" x2="502.269" y2="212.416" gradientTransform="translate(401.307 -113.916) rotate(17.12)" gradientUnits="userSpaceOnUse"><stop offset="0" stop-color="#36793c"/><stop offset="1" stop-color="#464f00"/></linearGradient><linearGradient id="Безымянный_градиент_390" x1="619.885" y1="2512.433" x2="619.885" y2="619.256" gradientTransform="translate(266.515 -88.511) rotate(11.298)" gradientUnits="userSpaceOnUse"><stop offset="0" stop-color="#b14534"/><stop offset="1" stop-color="#be5b5e"/></linearGradient><linearGradient id="Безымянный_градиент_418-3" x1="1164.032" y1="1516.823" x2="1164.032" y2="595.441" gradientTransform="translate(266.515 -88.511) rotate(11.298)" xlink:href="#Безымянный_градиент_418"/><linearGradient id="Безымянный_градиент_343-3" x1="936.077" y1="1061.445" x2="1409.139" y2="1061.445" gradientTransform="translate(266.515 -88.511) rotate(11.298)" xlink:href="#Безымянный_градиент_343"/><linearGradient id="Безымянный_градиент_422" x1="-27.004" y1="691.72" x2="-27.004" y2="108.898" gradientTransform="matrix(0.956, 0.294, -0.641, 0.748, 813.429, 132.281)" gradientUnits="userSpaceOnUse"><stop offset="0" stop-color="#5b7400"/><stop offset="1" stop-color="#639700"/></linearGradient><linearGradient id="Безымянный_градиент_411-2" x1="118.94" y1="658.704" x2="118.94" y2="146.436" gradientTransform="matrix(-0.981, -0.193, -0.193, 0.981, 1619.266, 196.809)" xlink:href="#Безымянный_градиент_411"/><linearGradient id="Безымянный_градиент_400" x1="-438.972" y1="618.77" x2="-438.972" y2="35.948" gradientTransform="matrix(-0.981, -0.193, 0.211, 0.963, 1139.705, 218.57)" gradientUnits="userSpaceOnUse"><stop offset="0" stop-color="#547414"/><stop offset="1" stop-color="#639700"/></linearGradient><linearGradient id="Безымянный_градиент_411-3" x1="854.354" y1="647.055" x2="854.354" y2="97.728" gradientTransform="translate(266.515 -88.511) rotate(11.298)" xlink:href="#Безымянный_градиент_411"/><linearGradient id="Безымянный_градиент_397" x1="644.6" y1="460.708" x2="888.606" y2="25.83" gradientTransform="translate(266.515 -88.511) rotate(11.298)" gradientUnits="userSpaceOnUse"><stop offset="0" stop-color="#7c9700"/><stop offset="1" stop-color="#639700"/></linearGradient><linearGradient id="Безымянный_градиент_405" x1="674.386" y1="1353.759" x2="674.386" y2="490.285" gradientTransform="translate(266.515 -88.511) rotate(11.298)" gradientUnits="userSpaceOnUse"><stop offset="0" stop-color="#4d7400"/><stop offset="1" stop-color="#6c9300"/></linearGradient><linearGradient id="Безымянный_градиент_402" x1="1332.256" y1="1354.708" x2="1332.256" y2="439.777" gradientTransform="translate(266.515 -88.511) rotate(11.298)" gradientUnits="userSpaceOnUse"><stop offset="0" stop-color="#4d7400"/><stop offset="1" stop-color="#7f9d00"/></linearGradient></defs><g class="cls-1"><g id="Layer_1" data-name="Layer 1"><path class="cls-2" d="M8.826,1099.173S276.533,1087.744,401.9,1033.6L510.28,902.118l-70.186,126.065,24.53-4.306L576.21,842.524l-80.161,181.89s122.63-63.01,174.362-107.833C722.186,871.7,902.035,653.086,902.035,653.086l1.387-32.683,1.23-27.841-21.608-1.78-331.686-26.87-59.235,56.059,98.5,41.3L479.2,639.086S258.318,775.052,205.591,830.563C152.884,886.178,8.826,1099.173,8.826,1099.173Z"/><path class="cls-3" d="M8.826,1099.173,171.659,992.034l244.3-173.729L903.422,620.4l-20.378-29.621-331.686-26.87-59.235,56.059,98.5,41.3L479.2,639.086S258.318,775.052,205.591,830.563C152.884,886.178,8.826,1099.173,8.826,1099.173Z"/><path class="cls-4" d="M1066.434,666.041s-76.789,318.7-132.064,419.108-335.024,316.566-335.024,316.566l-13.017-184.327-14.057,187.741C522.1,1436.2,411,1537.143,411,1537.143l-17.511-176.557,147.7-122.961-161.553,89.623s38.547-310.708,98.346-419.034c59.783-108.253,150.575-195.837,150.575-195.837l147.688,14.258-132.123-40.25,136.5-36.272C902.742,629.622,1066.434,666.041,1066.434,666.041Z"/><path class="cls-5" d="M1066.434,666.041l-237.7,115.895L566.606,1213.447l-134.725,263.32L411,1537.143l-17.511-176.557,147.7-122.961-161.553,89.623s38.547-310.708,98.346-419.034c59.783-108.253,150.575-195.837,150.575-195.837l147.688,14.258-132.123-40.25,136.5-36.272C902.742,629.622,1066.434,666.041,1066.434,666.041Z"/><polygon class="cls-6" points="954.063 360.513 997.627 517.964 931.642 779.739 810.39 770.382 775.245 754.345 635.296 351.001 563.008 158.158 732.247 270.114 954.063 360.513"/><path class="cls-7" d="M66.533,2433.619S461.3,1934.314,551.056,1776.588,1058.918,752.2,1058.918,752.2l-33.6-57.622S604.743,1567.663,473.9,1731.673s-355.762,443.649-355.762,443.649Z"/><path class="cls-8" d="M1351.179,1674.988s-180-198.493-229.571-325.73l17.379-169.508-40.368,138.523-14.174-20.478,50.61-206.83-73.075,184.85s-41.347-131.524-45.812-199.828c-4.449-68.379,24.7-349.957,24.7-349.957l22.277-23.953,18.944-20.441,16.45,14.122,252.2,217.1,1.744,81.537-98.6-41.061,94.083,63.686s58.489,252.7,56.049,329.219C1401.481,1422.82,1351.179,1674.988,1351.179,1674.988Z"/><path class="cls-9" d="M1351.179,1674.988l-38.2-191.139L1264.9,1187.955,1063.142,702.077l35.394-6.319,252.2,217.1,1.744,81.537-98.6-41.061,94.083,63.686s58.489,252.7,56.049,329.219C1401.481,1422.82,1351.179,1674.988,1351.179,1674.988Z"/><polygon class="cls-10" points="739.199 252.61 563.008 158.158 450.925 186.062 598.854 214.942 432.256 202.562 253.99 316.642 361.17 333.633 227.12 347.997 82.002 561.326 549.788 502.982 520.219 335.344 592.445 472.167 770.141 431.61 727.036 296.144 908.506 371.511 954.063 360.513 739.199 252.61"/><polygon class="cls-11" points="701.831 232.578 551.424 260.009 82.002 561.326 549.788 502.982 520.219 335.344 592.445 472.167 770.141 431.61 727.036 296.144 908.506 371.511 954.063 360.513 701.831 232.578"/><polygon class="cls-12" points="1296.641 362.341 1183.736 480.415 1117.949 742.24 1229.186 791.392 1267.736 793.901 1581.937 504.852 1736.895 369.199 1534.823 387.709 1296.641 362.341"/><polygon class="cls-13" points="1536.985 368.999 1736.895 369.199 1822.418 446.834 1678.441 402.25 1831.053 470.205 1934.083 655.078 1831.628 619.311 1942.909 695.417 1969.761 952.024 1585.317 679.203 1690.716 545.532 1562.329 631.867 1424.998 512.029 1527.092 413.104 1331.564 393.594 1296.641 362.341 1536.985 368.999"/><polygon class="cls-14" points="1579.383 369.041 1698.888 464.401 1969.761 952.024 1585.317 679.203 1690.716 545.532 1562.329 631.867 1424.998 512.029 1527.092 413.104 1331.564 393.594 1296.641 362.341 1579.383 369.041"/><polygon class="cls-15" points="681.668 1377.361 768.026 1349.026 944.993 987.264 832.999 1083.865 681.668 1377.361"/><polygon class="cls-16" points="946.069 707.096 869.704 432.769 878.223 317.482 1026.08 347.021 875.829 267.34 872.519 198.699 1081.032 220.804 1244.41 206.518 1231.584 338.415 1063.423 432.366 1240.63 356.319 1227.942 500.43 1104.133 670.918 1046.705 698.854 946.069 707.096"/><polygon class="cls-17" points="872.519 198.699 815.599 255.307 794.054 477.293 1087.927 309.714 1033.029 271.827 1110.815 283.457 1244.41 206.518 1051.913 217.717 872.519 198.699"/><polygon class="cls-18" points="984.686 686.405 1066.938 595.526 1347.303 600.307 1497.766 764.698 1203.388 771.333 1008.555 732.408 984.686 686.405"/><polygon class="cls-19" points="1104.12 670.906 998.629 938.209 977.482 958.829 855.127 1078.109 824.621 1112.26 786.748 1154.614 785.616 1151.369 724.836 975.611 747.889 1175.178 675.563 1236.189 454.517 1329.56 427.852 1077.184 446.441 998.858 657.691 967.691 673.721 965.321 659.075 965.414 450.87 966.617 455.425 898.49 568.14 654.301 757.805 540.187 846.962 604.128 777.925 522.382 815.181 521.079 932.955 630.441 1104.12 670.906"/><polygon class="cls-14" points="932.934 630.412 786.395 751.596 692.661 911.601 457.163 889.802 568.17 654.34 757.798 540.15 932.934 630.412"/><polygon class="cls-14" points="1021.808 976.305 1221.152 1074.723 1397.134 1268.397 1354.017 1009.548 1342.15 902.57 1152.042 752.296 1075.999 742.182 1025.837 869.243 1021.808 976.305"/><polygon class="cls-14" points="673.741 965.358 488.257 1244.745 454.511 1329.521 427.845 1077.214 446.406 998.866 673.741 965.358"/><polygon class="cls-20" points="1792.81 1133.756 1752.178 1365.799 1632.712 1565.916 1339.033 1099.288 1277.534 969.358 1373.34 871.399 1273.642 934.991 1198.083 837.081 1066.93 595.562 1277.592 599.106 1480.989 602.592 1510.187 646.272 1400.351 631.604 1568.038 695.677 1771.976 1007.153 1807.392 1108.806 1553.885 997.403 1553.885 997.403 1555.538 1001.526 1792.81 1133.756"/><polygon class="cls-11" points="1792.81 1133.756 1752.178 1365.799 1632.712 1565.916 1678.978 1374.626 1570.252 1037.901 1555.538 1001.526 1792.81 1133.756"/><polygon class="cls-11" points="1807.392 1108.806 1553.885 997.403 1466.945 782.132 1277.592 599.106 1480.989 602.592 1510.187 646.272 1400.351 631.604 1568.038 695.677 1771.976 1007.153 1807.392 1108.806"/><polygon class="cls-14" points="1277.534 969.358 1466.945 782.132 1499.536 862.83 1301.034 1019.008 1277.534 969.358"/><polygon class="cls-14" points="1519.936 1375.698 1553.885 997.403 1502.465 1358.965 1519.936 1375.698"/><polygon class="cls-14" points="747.879 1175.199 717.341 890.834 686.032 1227.349 747.879 1175.199"/><polygon class="cls-14" points="977.503 958.797 841.446 706.864 998.609 938.214 977.503 958.797"/><polygon class="cls-14" points="1585.317 679.203 1723.692 509.052 1617.882 702.313 1585.317 679.203"/><polygon class="cls-14" points="1942.909 695.417 1945.462 719.811 1774.782 578.396 1942.909 695.417"/><polygon class="cls-14" points="1051.913 217.717 943.24 266.598 794.054 477.293 815.599 255.307 872.519 198.699 1051.913 217.717"/><polygon class="cls-21" points="1166.35 597.235 1677.119 862.278 1573.888 696.808 1411.417 635.832 1510.187 646.272 1480.989 602.592 1166.35 597.235"/><polygon class="cls-21" points="932.934 630.412 1064.553 771.176 1104.133 670.918 932.934 630.412"/><polygon class="cls-14" points="549.788 502.982 510.363 286.366 508.603 508.119 549.788 502.982"/><polygon class="cls-14" points="634.691 462.525 558.427 258.732 645.41 460.079 634.691 462.525"/><polygon class="cls-14" points="254.22 539.846 330.578 401.768 280.124 532.251 254.22 539.846"/><polygon class="cls-14" points="815.599 255.307 943.24 266.598 922.637 292.164 811.045 302.228 815.599 255.307"/><polygon class="cls-14" points="1087.927 309.714 998.741 253.037 1062.328 324.312 1087.927 309.714"/><polygon class="cls-14" points="775.245 754.345 568.17 654.34 543.382 708.022 775.245 754.345"/><polygon class="cls-22" points="88.837 2321.98 327.564 2072.228 527.526 1808.377 733.034 1419.877 545.022 1786.925 340.652 2093.663 66.533 2433.619 88.837 2321.98"/><polygon class="cls-23" points="420.026 1799.1 457.16 1794.319 514.946 1832.066 551.056 1776.588 509.322 1738.75 466.037 1741.524 420.026 1799.1"/><polygon class="cls-23" points="258.672 2000.401 315.938 2011.842 351.106 2077.972 340.652 2093.663 308.38 2021.713 241.798 2021.42 258.672 2000.401"/><polygon class="cls-23" points="518.464 1667.022 575.036 1656.559 601.63 1676.412 594.578 1693.703 572.595 1668.78 518.464 1667.022"/><polygon class="cls-11" points="1466.945 782.132 1771.976 1007.153 1807.392 1108.806 1553.885 997.403 1466.945 782.132"/><polygon class="cls-11" points="717.341 890.834 786.741 1154.622 872.31 1061.382 787.195 759.798 718.29 886.083 717.341 890.834"/><polygon class="cls-11" points="645.839 1248.723 641.181 1008.808 491.235 1231.776 519.308 1302.157 645.839 1248.723"/><polygon class="cls-14" points="1192.563 826.915 1362.784 794.399 1198.083 837.081 1192.563 826.915"/><polygon class="cls-14" points="1331.564 393.594 1480.119 393.046 1637.947 415.772 1527.092 413.104 1331.564 393.594"/><polygon class="cls-14" points="1491.255 588.275 1172.933 576.179 1227.942 500.43 1234.06 430.95 1296.641 362.341 1331.564 393.594 1530.681 409.099 1424.998 512.029 1499.522 577.061 1491.255 588.275"/><polygon class="cls-11" points="1698.888 464.401 1864.114 529.528 1934.083 655.078 1831.628 619.311 1750.212 556.794 1698.888 464.401"/><polygon class="cls-11" points="1822.418 446.834 1595.78 382.125 1579.383 369.041 1736.895 369.199 1822.418 446.834"/><polygon class="cls-11" points="943.24 266.598 1004.789 357.123 794.054 477.293 943.24 266.598"/><polygon class="cls-11" points="1110.815 283.457 1033.029 271.827 990.184 245.482 1047.836 217.717 1244.41 206.518 1110.815 283.457"/><polygon class="cls-11" points="645.41 460.079 558.427 258.732 660.782 240.064 770.141 431.61 645.41 460.079"/><polygon class="cls-24" points="932.934 630.412 784.149 775.048 647.702 1001.848 491.235 1231.776 454.511 1329.521 484.47 1229.447 643.044 1000.917 692.661 911.601 786.395 751.596 932.934 630.412"/><polygon class="cls-24" points="1466.945 782.132 1678.978 1374.626 1632.712 1565.916 1695.592 1374.656 1590.667 1101.126 1553.885 997.403 1466.945 782.132"/><polygon class="cls-25" points="977.482 958.829 824.621 1112.26 785.616 1151.369 724.836 975.611 747.889 1175.178 675.563 1236.189 454.517 1329.56 491.232 1231.792 537.137 1164.34 657.691 967.691 659.075 965.414 706.034 888.808 795.807 763.715 853.415 716.326 977.482 958.829"/><polygon class="cls-14" points="1222.711 327.021 952.258 387.079 1087.927 309.714 1040.124 276.724 1110.815 283.457 1244.41 206.518 1222.711 327.021"/><polygon class="cls-14" points="876.233 533.276 1044.945 621.155 1029.035 649.611 932.934 630.412 876.233 533.276"/><polygon class="cls-24" points="701.831 232.578 549.788 266.598 230.278 466.149 543.382 255.307 701.831 232.578"/><polygon class="cls-11" points="432.256 202.562 543.382 255.307 423.999 335.699 253.99 316.642 432.256 202.562"/></g></g></svg>