<?xml version="1.0" encoding="UTF-8"?>
<svg id="Layer_2" data-name="Layer 2" xmlns="http://www.w3.org/2000/svg" viewBox="0 0 48.88 48.89">
  <defs>
    <style>
      .cls-1 {
        fill: #fff;
        stroke-width: 0px;
      }
    </style>
  </defs>
  <g id="OBJECTS">
    <path class="cls-1" d="M0,24.44c.08,10.3,6.58,19.54,16.27,23.05s20.64.38,27.03-7.44c6.47-7.93,7.48-19.31,2.19-28.15C40.16,3.01,29.62-1.56,19.49.48,8.21,2.75.09,13.03,0,24.44c-.02,2.57,3.97,2.57,3.99,0,.06-8.43,5.34-16.3,13.34-19.21s17.35-.48,22.94,6.17,6.15,16.25,1.77,23.56-13.12,11.26-21.49,9.59c-9.56-1.92-16.49-10.37-16.56-20.11C3.97,21.87-.02,21.86,0,24.44Z"/>
  </g>
</svg>