<?xml version="1.0" encoding="UTF-8"?>
<svg id="Layer_2" data-name="Layer 2" xmlns="http://www.w3.org/2000/svg" viewBox="0 0 24.75 23.72">
  <defs>
    <style>
      .cls-1 {
        fill: #fff;
        stroke-width: 0px;
      }
    </style>
  </defs>
  <g id="OBJECTS">
    <path class="cls-1" d="M10.61,1.28l-1.65,5.08c-.25.76-.96,1.28-1.77,1.28H1.86C.06,7.64-.69,9.94.77,11l4.32,3.14c.65.47.92,1.31.67,2.08l-1.65,5.08c-.56,1.71,1.4,3.13,2.86,2.08l4.32-3.14c.65-.47,1.53-.47,2.18,0l4.32,3.14c1.45,1.06,3.41-.37,2.86-2.08l-1.65-5.08c-.25-.76.02-1.6.67-2.08l4.32-3.14c1.45-1.06.71-3.36-1.09-3.36h-5.34c-.8,0-1.52-.52-1.77-1.28l-1.65-5.08c-.56-1.71-2.98-1.71-3.53,0Z"/>
  </g>
</svg>